<svg xmlns="http://www.w3.org/2000/svg" xml:space="preserve" viewBox="0 0 3710 3710"><linearGradient id="a" x1="3490.77" x2="1550.243" y1="3634.017" y2="1568.295" gradientUnits="userSpaceOnUse"><stop offset="0" style="stop-color:#dbeafe"/><stop offset="1" style="stop-color:#eff6ff"/></linearGradient><path d="M2906.47 2806.815c-71.636 73.84-135.734 117.246-184.809 150.014-478.623 319.581-1027.419 281.65-1196.574 250.166-272.911-50.794-501.608-140.808-699.541-319.632-449.764-406.344-427.888-1254.008-84.214-1779.099 40.749-62.261 383.904-570.922 932.206-642.597 13.411-1.753 23.417-2.751 32.181-3.679 84.821-8.981 610.441-56.379 1039.031 302.694 61.351 51.399 170.533 137.868 251.637 285.511 290.268 528.414 335.829 1317.78-89.917 1756.622" style="fill:url(#a)"/><path d="M2882.252 1579.845a990 990 0 0 0-2.502-10.594c-129.59-533.497-671.865-859.778-1211.203-728.768l237.213 976.56z" style="fill:#93c5fd"/><path d="m1902.858 1813.253 950.62 326.38c59.062-171.495 72.443-361.069 28.941-550.881a1022 1022 0 0 0-4.28-17.85z" style="fill:#93c5fd"/><path d="m1905.747 1817.045 193.193 986.195a1021 1021 0 0 0 18.56-3.801c356.771-76.901 628.12-334.413 738.877-656.02z" style="fill:#60a5fa"/><linearGradient id="b" x1="1419.439" x2="1132.531" y1="603.038" y2="2898.304" gradientUnits="userSpaceOnUse"><stop offset="0" style="stop-color:#ff928e"/><stop offset="1" style="stop-color:#fe7062"/></linearGradient><path d="m1782.217 1735.628-200.623-972.192c-453.631 93.612-772.178 479.341-799.999 920.354l995.084 58.243c3.503.205 6.247-2.969 5.538-6.405" style="fill:url(#b)"/><linearGradient id="c" x1="3439.148" x2="1577.584" y1="3206.932" y2="2206.091" gradientUnits="userSpaceOnUse"><stop offset="0" style="stop-color:#3b82f6"/><stop offset="1" style="stop-color:#2563eb"/></linearGradient><path d="M1906.362 1812.838 903.609 1779.51c-4.294 87.847 3.608 161.475 23.615 251.482 93.335 419.894 436.795 719.464 838.818 776.986z" style="fill:url(#c)"/><linearGradient id="d" x1="2135.196" x2="3269.487" y1="2172.358" y2="978.017" gradientUnits="userSpaceOnUse"><stop offset="0" style="stop-color:#3b82f6"/><stop offset="1" style="stop-color:#2563eb"/></linearGradient><path d="M1757.605 2810.997c110.939 16.819 226.498 15.18 342.658-7.493l-192.157-986.398z" style="fill:url(#d)"/><g style="opacity:.61"><path d="M1547.459 2718.771c-.847 0-1.71-.163-2.544-.507-138.792-57.309-264.236-147.243-362.773-260.077-101.821-116.591-175.082-258.269-211.871-409.717a996 996 0 0 1-9.034-40.949 6.675 6.675 0 0 1 5.245-7.845 6.665 6.665 0 0 1 7.845 5.245 985 985 0 0 0 8.911 40.4c36.287 149.372 108.542 289.106 208.955 404.089 97.188 111.29 220.918 199.993 357.818 256.52a6.675 6.675 0 0 1-2.552 12.841" style="fill:#fff"/></g><g style="opacity:.61"><path d="M2272.947 2723.067a6.672 6.672 0 0 1-2.463-12.875c248.23-98.521 445.567-298.831 541.41-549.571a6.667 6.667 0 0 1 8.614-3.851 6.67 6.67 0 0 1 3.851 8.614c-97.172 254.221-297.259 457.317-548.955 557.211-.806.32-1.64.472-2.457.472" style="fill:#fff"/></g><g style="opacity:.61"><path d="M2686.85 1243.748a6.66 6.66 0 0 1-5.33-2.652c-119.932-158.846-283.748-275.043-473.749-336.027a6.67 6.67 0 0 1-4.313-8.393 6.667 6.667 0 0 1 8.393-4.314c192.633 61.83 358.723 179.639 480.317 340.692a6.67 6.67 0 0 1-1.303 9.345 6.63 6.63 0 0 1-4.015 1.349" style="fill:#fff"/></g><g style="opacity:.74"><path d="M1327.831 1679.139q-.216 0-.437-.015l-510.554-32.928 1.117-7.212c13.436-86.567 35.538-170.383 69.557-263.777 1.261-3.465 5.099-5.242 8.552-3.986a6.67 6.67 0 0 1 3.984 8.554c-32.765 89.957-54.369 170.902-67.765 254.045l495.968 31.988a6.67 6.67 0 0 1 6.229 7.088 6.67 6.67 0 0 1-6.651 6.243" style="fill:#fff"/></g><g style="opacity:.74"><path d="M1728.292 1704.939q-.356 0-.717-.025l-104.147-6.737a6.67 6.67 0 0 1-6.229-7.088c.238-3.68 3.496-6.472 7.089-6.228l100.713 6.514-108.317-507.167a6.674 6.674 0 0 1 5.131-7.92 6.68 6.68 0 0 1 7.92 5.131l109.037 510.536a10.65 10.65 0 0 1-2.375 9.262 10.64 10.64 0 0 1-8.105 3.722m-2.571-10.193h.036z" style="fill:#fff"/></g><linearGradient id="e" x1="2929.188" x2="2080.282" y1="945.209" y2="1775.66" gradientUnits="userSpaceOnUse"><stop offset="0" style="stop-color:#1e3a8a"/><stop offset="1" style="stop-color:#172554"/></linearGradient><path d="m1912.363 1604.009-4.796-8.783 324.486-177.298 301.543 132.546 258.873-253.924.525-.312 304.052-179.441 5.089 8.62-303.528 179.131-262.835 257.815-303.24-133.293z" style="fill:url(#e)"/><linearGradient id="f" x1="1965.616" x2="1882.765" y1="1545.175" y2="1626.224" gradientUnits="userSpaceOnUse"><stop offset="0" style="stop-color:#1e3a8a"/><stop offset="1" style="stop-color:#1e40af"/></linearGradient><circle cx="1909.965" cy="1599.616" r="34.891" style="fill:url(#f)"/><linearGradient id="g" x1="2287.945" x2="2205.095" y1="1369.058" y2="1450.107" gradientUnits="userSpaceOnUse"><stop offset="0" style="stop-color:#1e3a8a"/><stop offset="1" style="stop-color:#1e40af"/></linearGradient><circle cx="2232.294" cy="1423.499" r="34.891" style="fill:url(#g)"/><linearGradient id="h" x1="2590.336" x2="2507.485" y1="1495.331" y2="1576.38" gradientUnits="userSpaceOnUse"><stop offset="0" style="stop-color:#1e3a8a"/><stop offset="1" style="stop-color:#1e40af"/></linearGradient><circle cx="2534.685" cy="1549.772" r="34.891" style="fill:url(#h)"/><linearGradient id="i" x1="2842.882" x2="2760.032" y1="1246.107" y2="1327.156" gradientUnits="userSpaceOnUse"><stop offset="0" style="stop-color:#1e3a8a"/><stop offset="1" style="stop-color:#1e40af"/></linearGradient><circle cx="2787.231" cy="1300.548" r="34.891" style="fill:url(#i)"/><linearGradient id="j" x1="3155.242" x2="3072.392" y1="1066.667" y2="1147.716" gradientUnits="userSpaceOnUse"><stop offset="0" style="stop-color:#1e3a8a"/><stop offset="1" style="stop-color:#1e40af"/></linearGradient><circle cx="3099.591" cy="1121.108" r="34.891" style="fill:url(#j)"/><linearGradient id="k" x1="1981.524" x2="2170.523" y1="3215.401" y2="3215.401" gradientTransform="translate(-1140.734)" gradientUnits="userSpaceOnUse"><stop offset="0" style="stop-color:#3b82f6"/><stop offset="1" style="stop-color:#2563eb"/></linearGradient><path d="M1024.453 3206.26c-32.378 2.799-88.571 7.345-132.871 9.295-26.63 1.172-41.961-1.436-50.791-4.97.015.995.043 1.936.082 2.81.209 4.661 3.997 8.391 8.706 8.654 83.707 4.672 150.28 1.617 173.98.175 4.901-.299 7.821-5.624 5.315-9.802-1.254-2.091-2.773-4.139-4.421-6.162" style="fill:url(#k)"/><linearGradient id="l" x1="1981.513" x2="2165.186" y1="3178.36" y2="3178.36" gradientTransform="translate(-1140.734)" gradientUnits="userSpaceOnUse"><stop offset="0" style="stop-color:#1e3a8a"/><stop offset="1" style="stop-color:#1e40af"/></linearGradient><path d="M891.581 3215.554c44.3-1.95 100.494-6.496 132.871-9.295-31.833-39.055-132.871-65.379-132.871-65.379h-28.536c-19.627 28.292-22.469 55.228-22.254 69.703 8.829 3.536 24.16 6.143 50.79 4.971" style="fill:url(#l)"/><linearGradient id="m" x1="1998.973" x2="2052.21" y1="3126.645" y2="3126.645" gradientTransform="translate(-1140.734)" gradientUnits="userSpaceOnUse"><stop offset="0" style="stop-color:#febbba"/><stop offset="1" style="stop-color:#ff928e"/></linearGradient><path d="m858.24 3094.294 2.67 52.844c.289 5.722 4.573 10.531 10.304 11.351 5.702.815 13.339.919 21.436-1.776 4.982-1.658 8.68-5.856 9.599-10.976l9.227-51.442H858.24z" style="fill:url(#m)"/><linearGradient id="n" x1="1604.739" x2="1677.167" y1="3211.325" y2="3211.325" gradientTransform="translate(-1140.734)" gradientUnits="userSpaceOnUse"><stop offset="0" style="stop-color:#3b82f6"/><stop offset="1" style="stop-color:#2563eb"/></linearGradient><path d="M487.59 3215.158c-14.041-1.958-20.394-9.252-23.057-17.05l-.053.21c-2.065 8.226 2.723 16.751 12.297 20.805 11.572 4.9 24.225 5.735 34.047 5.33 10.538-.434 20.212-4.795 25.529-11.775l.08-.105c-10.578 5.234-25.427 5.851-48.843 2.585" style="fill:url(#n)"/><linearGradient id="o" x1="1605.266" x2="1711.575" y1="3155.558" y2="3155.558" gradientTransform="translate(-1140.734)" gradientUnits="userSpaceOnUse"><stop offset="0" style="stop-color:#1e3a8a"/><stop offset="1" style="stop-color:#1e40af"/></linearGradient><path d="M553.79 3093.955h-23.533c-35.846-.732-58.356 74.874-65.724 104.153 2.664 7.798 9.017 15.092 23.057 17.05 23.416 3.266 38.265 2.65 48.843-2.584 19.366-25.484 28.967-62.809 33.582-84.591 5.25-24.775-16.225-34.028-16.225-34.028" style="fill:url(#o)"/><linearGradient id="p" x1="1660.524" x2="1724.148" y1="3082.264" y2="3082.264" gradientTransform="translate(-1140.734)" gradientUnits="userSpaceOnUse"><stop offset="0" style="stop-color:#febbba"/><stop offset="1" style="stop-color:#ff928e"/></linearGradient><path d="m533.282 3044.907-13.068 51.975c-1.602 6.373 1.448 12.964 7.34 15.988 7.31 3.752 17.603 7.694 27.062 6.552 4.448-.537 8.144-3.67 9.614-7.858l19.185-54.683z" style="fill:url(#p)"/><linearGradient id="q" x1="-136.023" x2="1158.398" y1="3794.764" y2="2393.584" gradientUnits="userSpaceOnUse"><stop offset="0" style="stop-color:#3b82f6"/><stop offset="1" style="stop-color:#2563eb"/></linearGradient><path d="M517.694 3059.93c16.259 14.422 69.141 16.326 69.141 16.326 190.491-457.198 268.416-522.15 268.416-522.15-27.505 172.567-4.435 554.61-4.435 554.61 31.434 13.871 71.961 0 71.961 0 2.553-282.516 45.977-528.897 97.276-723.139-128.749-2.894-197.217-46.951-219.573-64.634-107.321 173.024-282.786 738.987-282.786 738.987" style="fill:url(#q)"/><linearGradient id="r" x1="-719.107" x2="-81.905" y1="4255.228" y2="3761.48" gradientTransform="translate(-1140.734)" gradientUnits="userSpaceOnUse"><stop offset="0" style="stop-color:#ff928e"/><stop offset="1" style="stop-color:#fe7062"/></linearGradient><path d="M833.178 1795.164c-24.369 121.555-15.635 339.116-9.899 438.352 1.612 27.892-17.858 66.559-33.596 92.938a8.27 8.27 0 0 0 3.341 11.638c26.349 13.542 115.612 55.512 219.067 60.734 6.898.348 13.058-4.35 14.844-11.022 76.74-286.538 165.874-469.637 165.874-469.637-98.408-157.148-359.631-123.003-359.631-123.003" style="fill:url(#r)"/><linearGradient id="s" x1="871.441" x2="891.458" y1="1967.23" y2="2290.836" gradientUnits="userSpaceOnUse"><stop offset="0" style="stop-color:#3b82f6"/><stop offset="1" style="stop-color:#2563eb"/></linearGradient><path d="M868.249 2543.282a6.1 6.1 0 0 1-3.17-.894c-2.875-1.758-3.786-5.505-2.038-8.376 1.025-1.686 25.666-41.514 75.529-65.571 3.03-1.454 6.679-.197 8.147 2.842a6.1 6.1 0 0 1-2.845 8.144c-46.485 22.431-70.176 60.549-70.412 60.93a6.1 6.1 0 0 1-5.211 2.925" style="fill:url(#s)"/><linearGradient id="t" x1="1952.013" x2="1725.524" y1="2154.867" y2="2355.429" gradientTransform="translate(-1140.734)" gradientUnits="userSpaceOnUse"><stop offset="0" style="stop-color:#febbba"/><stop offset="1" style="stop-color:#ff928e"/></linearGradient><path d="M680.321 2144.025c7.828 56.627 30.955 118.392 77.22 184l17.587-14.337s-20.302-82.372-8.761-175.855c-28.539-5.567-62.245.172-86.046 6.192" style="fill:url(#t)"/><linearGradient id="u" x1="-829.439" x2="-192.235" y1="4112.844" y2="3619.094" gradientTransform="translate(-1140.734)" gradientUnits="userSpaceOnUse"><stop offset="0" style="stop-color:#ff928e"/><stop offset="1" style="stop-color:#fe7062"/></linearGradient><path d="m860.397 1945.147-27.219-149.983s-181.863 139.013-152.856 348.861c23.801-6.02 57.507-11.759 86.046-6.192 8.314-67.341 33.149-140.447 94.029-192.686" style="fill:url(#u)"/><linearGradient id="v" x1="-625.4" x2="11.803" y1="4376.169" y2="3882.42" gradientTransform="translate(-1140.734)" gradientUnits="userSpaceOnUse"><stop offset="0" style="stop-color:#ff928e"/><stop offset="1" style="stop-color:#fe7062"/></linearGradient><path d="m1192.808 1918.166-70.199 151.184c11.35 91.274 60.383 130.74 113.251 145.877 3.297-41.598 13.815-75.206 23.576-98.453-67.552-69.745-66.628-198.608-66.628-198.608" style="fill:url(#v)"/><linearGradient id="w" x1="2376.594" x2="2554.964" y1="2173.838" y2="2173.838" gradientTransform="translate(-1140.734)" gradientUnits="userSpaceOnUse"><stop offset="0" style="stop-color:#febbba"/><stop offset="1" style="stop-color:#ff928e"/></linearGradient><path d="M1259.436 2116.773c-9.76 23.247-20.279 56.855-23.576 98.453 141.052 54.726 178.37-51.408 178.37-51.408l-26.068-4.599c-58.869 6.202-99.99-12.776-128.726-42.446" style="fill:url(#w)"/><linearGradient id="x" x1="2203.214" x2="2201.266" y1="1697.169" y2="2030.262" gradientTransform="translate(-1140.734)" gradientUnits="userSpaceOnUse"><stop offset="0" style="stop-color:#febbba"/><stop offset="1" style="stop-color:#ff928e"/></linearGradient><path d="m1128.132 1731.518-33.89 124.583c-3.807 13.995-18.946 21.511-32.413 16.127-14.534-5.81-32.973-13.741-48.846-22.311-16.944-9.148-22.245-30.944-11.52-46.936l70.459-105.059z" style="fill:url(#x)"/><linearGradient id="y" x1="1549.621" x2="558.783" y1="2120.657" y2="2487.634" gradientUnits="userSpaceOnUse"><stop offset="0" style="stop-color:#1e3a8a"/><stop offset="1" style="stop-color:#1e40af"/></linearGradient><path d="m1478.878 2080.45-868.401 316.063c-36.421 13.256-53.831 54.727-37.785 90.009l2.635 5.793c14.197 31.216 51.092 44.907 82.215 30.51l843.206-390.072z" style="fill:url(#y)"/><linearGradient id="z" x1="2590.08" x2="3447.447" y1="1890.329" y2="1890.329" gradientTransform="translate(-1140.734)" gradientUnits="userSpaceOnUse"><stop offset="0" style="stop-color:#b37cff"/><stop offset="1" style="stop-color:#f895e7"/></linearGradient><ellipse cx="1878.03" cy="1890.329" rx="428.683" ry="420.95" style="opacity:.23;fill:url(#z)"/><linearGradient id="A" x1="2541.754" x2="3495.773" y1="1890.329" y2="1890.329" gradientTransform="translate(-1140.734)" gradientUnits="userSpaceOnUse"><stop offset="0" style="stop-color:#1e3a8a"/><stop offset="1" style="stop-color:#1e40af"/></linearGradient><path d="M1878.03 1421.925c-263.445 0-477.009 209.713-477.009 468.403 0 258.694 213.564 468.405 477.009 468.405s477.009-209.711 477.009-468.405c0-258.691-213.564-468.403-477.009-468.403m0 868.001c-224.745 0-406.938-178.905-406.938-399.598 0-220.691 182.193-399.597 406.938-399.597 224.747 0 406.939 178.906 406.939 399.597 0 220.693-182.192 399.598-406.939 399.598" style="fill:url(#A)"/><path d="M1437.288 1948.355a3.204 3.204 0 0 1-3.178-2.801 437 437 0 0 1-2.966-33.584 3.206 3.206 0 0 1 3.043-3.356c2.102-.127 3.28 1.276 3.365 3.043a429 429 0 0 0 2.916 33.093 3.205 3.205 0 0 1-3.18 3.605m3.272-130.976q-.277 0-.568-.051a3.2 3.2 0 0 1-2.585-3.717 431.2 431.2 0 0 1 25.732-88.078l.008-.008c68.762-166.811 231.619-274.603 414.885-274.603 85.459 0 168.527 23.74 240.247 68.656a3.2 3.2 0 0 1 1.009 4.416c-.924 1.509-2.907 1.954-4.416 1.017-70.694-44.276-152.593-67.681-236.84-67.681-180.664 0-341.191 106.236-408.961 270.645-.009.009-.009.013-.009.017a424.2 424.2 0 0 0-25.35 86.747 3.21 3.21 0 0 1-3.152 2.64" style="fill:#93c5fd"/><linearGradient id="B" x1="1979.305" x2="1815.342" y1="3441.43" y2="3658.34" gradientTransform="rotate(-8.21 -10956.95 8175.249)" gradientUnits="userSpaceOnUse"><stop offset="0" style="stop-color:#febbba"/><stop offset="1" style="stop-color:#ff928e"/></linearGradient><path d="M1202.276 1636.865c.309 2.139-28.266 142.169-28.266 142.169l-79.608-18.015 7.365-136.743c-.001 0 95.341-23.228 100.509 12.589" style="fill:url(#B)"/><linearGradient id="C" x1="1021.079" x2="1589.96" y1="1678.095" y2="1750.023" gradientUnits="userSpaceOnUse"><stop offset="0" style="stop-color:#1e3a8a"/><stop offset="1" style="stop-color:#1e40af"/></linearGradient><path d="m1119.671 1654.747-9.514 71.68a10 10 0 0 0 .01 2.745c.803 5.619 4.983 24.747 24.292 19.277 17.521-4.963 33.585-9.232 44.682-5.838a10.09 10.09 0 0 1 6.946 11.675c-2.6 12.722-8.988 41.281-18.323 65.247-1.895 4.864-7.22 7.417-12.231 5.956-15.098-4.402-46.682-14.576-70.173-28.713-3.183-1.916-5.079-5.377-4.922-9.089.764-18.096 2.88-73.103 1.099-88.522-1.672-14.473-19.434-23.143-27.151-26.252a9.93 9.93 0 0 1-5.524-5.546c-3.574-8.955-8.501-29.678 17.615-38.17a10.115 10.115 0 0 0 6.404-13.079c-3.868-10.769-5.499-27.202 14.704-36.256 20.535-9.203 35.871 1.744 44.151 10.64 3.348 3.597 8.721 4.145 12.875 1.52 2.365-1.494 5.412-1.985 9.093.309 4.96 3.09 11.529.984 14.089-4.27 4.918-10.094 14.94-20.906 35.043-17.463 35.673 6.109 39.714 45.64 30.303 68.805s-47.711 14.342-66.924 2.664c-14.608-8.879-33.558.427-41.802 5.399-2.612 1.576-4.34 4.258-4.742 7.281" style="fill:url(#C)"/><linearGradient id="D" x1="1739.163" x2="1870.675" y1="3613.206" y2="3478.278" gradientTransform="rotate(-8.21 -10956.95 8175.249)" gradientUnits="userSpaceOnUse"><stop offset="0" style="stop-color:#febbba"/><stop offset="1" style="stop-color:#ff928e"/></linearGradient><path d="M1078.332 1725.3s14.665-41.067-.402-51.125-37.383-4.836-32.469 24.914c6.111 37.006 32.871 26.211 32.871 26.211" style="fill:url(#D)"/><linearGradient id="E" x1="2041.454" x2="1814.965" y1="2255.871" y2="2456.432" gradientTransform="translate(-1140.734)" gradientUnits="userSpaceOnUse"><stop offset="0" style="stop-color:#febbba"/><stop offset="1" style="stop-color:#ff928e"/></linearGradient><path d="m767.876 2311.192 82.094-6.69 35.553 32.774s-8.411 11.627-34.708 4.944-62.318-8.323-62.318-8.323-36.303 16.366-36.745-14.256z" style="fill:url(#E)"/><linearGradient id="F" x1="2536.014" x2="2599.889" y1="2152.89" y2="2152.89" gradientTransform="translate(-1140.734)" gradientUnits="userSpaceOnUse"><stop offset="0" style="stop-color:#febbba"/><stop offset="1" style="stop-color:#ff928e"/></linearGradient><path d="M1403.774 2183.237c7.1 5.546 31.424-6.034 46.308-14.039 7.254-3.902 10.768-12.384 8.278-20.236-3.582-11.296-9.551-25.876-16.904-27.715-12.202-3.05-66.939 39.133-37.682 61.99" style="fill:url(#F)"/><path d="M627.613 2510.676c-.347 0-.703-.055-1.051-.174-33.919-11.73-41.81-31.771-42.454-46.518-.932-21.553 12.612-41.555 33.69-49.777l104.274-40.661c1.619-.644 3.492.166 4.145 1.822a3.206 3.206 0 0 1-1.822 4.153l-104.274 40.657c-18.519 7.226-30.419 24.715-29.605 43.526.805 18.562 13.637 32.266 38.148 40.738a3.2 3.2 0 0 1 1.975 4.077 3.2 3.2 0 0 1-3.026 2.157M755.356 2367.207a3.2 3.2 0 0 1-2.983-2.038 3.203 3.203 0 0 1 1.822-4.153l13.518-5.268c1.619-.648 3.5.174 4.145 1.822a3.203 3.203 0 0 1-1.822 4.153l-13.518 5.268a3.2 3.2 0 0 1-1.162.216" style="fill:#93c5fd"/><linearGradient id="G" x1="-3735.992" x2="-4311.662" y1="3071.784" y2="3697.953" gradientTransform="matrix(-1 0 0 1 -1038.069 0)" gradientUnits="userSpaceOnUse"><stop offset="0" style="stop-color:#3b82f6"/><stop offset="1" style="stop-color:#2563eb"/></linearGradient><path d="M2879.893 3118.429s5.962 33.75 8.885 67.16c1.143 13.058-8.924 24.395-22.02 24.94-44.491 1.853-139.661 5.456-173.811 3.933-5.134-.229-8.49-5.485-6.59-10.26a16.76 16.76 0 0 1 8.575-9.034l157.203-72.25z" style="fill:url(#G)"/><linearGradient id="H" x1="-3922.845" x2="-3871.711" y1="3118.29" y2="3118.29" gradientTransform="matrix(-1 0 0 1 -1038.069 0)" gradientUnits="userSpaceOnUse"><stop offset="0" style="stop-color:#febbba"/><stop offset="1" style="stop-color:#ff928e"/></linearGradient><path d="m2884.777 3098.598-4.79 40.371s-27.538 12.819-46.344-1.616l11.404-44.989z" style="fill:url(#H)"/><linearGradient id="I" x1="-4044.096" x2="-3875.022" y1="2727.304" y2="2727.304" gradientTransform="matrix(-1 0 0 1 -1038.069 0)" gradientUnits="userSpaceOnUse"><stop offset="0" style="stop-color:#1e3a8a"/><stop offset="1" style="stop-color:#1e40af"/></linearGradient><path d="M2881.177 2339.625c2.069 10.543 11.106 526.093-44.003 757.129-.899 3.77 1.012 7.655 4.6 9.122 8.453 3.453 25.023 8.454 44.881 9.121 6.15.207 11.664-3.791 13.398-9.694 15.753-53.604 91.237-322.175 101.083-578.732 11.003-286.678 0-9.761 0-9.761l-6.453-177.207z" style="fill:url(#I)"/><linearGradient id="J" x1="-3865.134" x2="-4440.804" y1="2953.056" y2="3579.225" gradientTransform="matrix(-1 0 0 1 -1038.069 0)" gradientUnits="userSpaceOnUse"><stop offset="0" style="stop-color:#3b82f6"/><stop offset="1" style="stop-color:#2563eb"/></linearGradient><path d="M3060.727 3136.037s9.49 17.039 18.677 62.314c1.659 8.177-4.054 16.002-12.357 16.819-14.691 1.444-37.307 3.302-55.424 3.177-8.351-.057-14.869-7.329-13.863-15.62 2.007-16.526 8.258-43.639 27.571-64.772z" style="fill:url(#J)"/><linearGradient id="K" x1="-4107.131" x2="-4062.982" y1="3115.668" y2="3115.668" gradientTransform="matrix(-1 0 0 1 -1038.069 0)" gradientUnits="userSpaceOnUse"><stop offset="0" style="stop-color:#febbba"/><stop offset="1" style="stop-color:#ff928e"/></linearGradient><path d="m3069.062 3084.112-11.192 61.051s-11.066 8.231-32.957 2.264l5.343-65.687z" style="fill:url(#K)"/><linearGradient id="L" x1="-4154.717" x2="-3914.687" y1="2721.772" y2="2721.772" gradientTransform="matrix(-1 0 0 1 -1038.069 0)" gradientUnits="userSpaceOnUse"><stop offset="0" style="stop-color:#1e3a8a"/><stop offset="1" style="stop-color:#1e40af"/></linearGradient><path d="M3099.298 2355.446c45.071 272.009-9.777 672.292-28.275 750.638-1.133 4.796-5.004 8.471-9.865 9.277-8.257 1.369-21.852 2.486-35.253-1.407a11.2 11.2 0 0 1-8.05-10.311c-2.482-63.34 1.985-452.184-40.011-605.857a34.9 34.9 0 0 0-13.464-19.258l-81.512-57.948-6.25-93.668z" style="fill:url(#L)"/><linearGradient id="M" x1="2561.533" x2="3031.905" y1="2594.071" y2="1883.508" gradientUnits="userSpaceOnUse"><stop offset="0" style="stop-color:#ff928e"/><stop offset="1" style="stop-color:#fe7062"/></linearGradient><path d="M2812.102 1840.042c135.07-2.232 284.105 35.465 284.105 35.465 40.261 234.926 7.04 505.895 7.04 505.895-104.568 27.422-222.527-16.766-222.527-16.766-17.38-98.193-98.47-374.542-98.47-374.542-65.996-8.191-120.36-27.231-165.131-52.404 34.15-39.585 50.249-89.955 57.242-119.73 47.756 14.843 96.08 22.77 137.741 22.082" style="fill:url(#M)"/><linearGradient id="N" x1="-3712.43" x2="-3451.196" y1="1784.272" y2="1784.272" gradientTransform="matrix(-1 0 0 1 -1038.069 0)" gradientUnits="userSpaceOnUse"><stop offset="0" style="stop-color:#febbba"/><stop offset="1" style="stop-color:#ff928e"/></linearGradient><path d="M2413.127 1641.09c13.269-16.026 30.062-8.445 30.062-8.445 19.877 83.962 124.098 152.039 231.172 185.316-6.993 29.775-23.092 80.145-57.242 119.73-177.697-99.912-203.992-296.601-203.992-296.601" style="fill:url(#N)"/><linearGradient id="O" x1="13957.169" x2="14132.464" y1="1740.483" y2="2139.318" gradientTransform="translate(-11485.847)" gradientUnits="userSpaceOnUse"><stop offset="0" style="stop-color:#febbba"/><stop offset="1" style="stop-color:#ff928e"/></linearGradient><path d="M2416.348 1645.166c-1.388 4.413 14.689 11.135 24.156-6.917.331-8.652 5.592-45.716.423-52.764-27.533-37.537-80.915-84.592-80.915-84.592-9.022 8.902-1.589 17.647-1.589 17.647l25.896 26.976c-5.416 9.788-12.023 18.05-15.119 29.89-2.345 8.966-.911 18.547 3.618 26.707 4.546 8.19 10.747 18.835 16.61 27.166 11.096 15.768 26.92 15.887 26.92 15.887" style="fill:url(#O)"/><linearGradient id="P" x1="-3452.45" x2="-3379.308" y1="1607.657" y2="1495.2" gradientTransform="matrix(-1 0 0 1 -1038.069 0)" gradientUnits="userSpaceOnUse"><stop offset="0" style="stop-color:#febbba"/><stop offset="1" style="stop-color:#ff928e"/></linearGradient><path d="m2395.646 1563.019 23.598 20.005 7.409 19.918-21.04 23.341s-7.074-39.519-12.333-48.073c-5.258-8.553-2.531-12.689 2.366-15.191" style="fill:url(#P)"/><linearGradient id="Q" x1="2698.376" x2="3168.748" y1="2684.657" y2="1974.093" gradientUnits="userSpaceOnUse"><stop offset="0" style="stop-color:#ff928e"/><stop offset="1" style="stop-color:#fe7062"/></linearGradient><path d="m3044.399 2006.295 51.808-130.788s126.163 85.722 146.911 194.409c-23.839 1.756-67.217 7.956-109.676 29.395-9.33-51.32-89.043-93.016-89.043-93.016" style="fill:url(#Q)"/><linearGradient id="R" x1="-4284.063" x2="-3953.47" y1="2154.302" y2="2154.302" gradientTransform="matrix(-1 0 0 1 -1038.069 0)" gradientUnits="userSpaceOnUse"><stop offset="0" style="stop-color:#febbba"/><stop offset="1" style="stop-color:#ff928e"/></linearGradient><path d="M2934.146 2129.362s141.65 80.054 189.444 11.697c9.924-14.194 12.296-28.3 9.852-41.748 42.459-21.439 85.837-27.639 109.676-29.395 6.256 32.765 2.949 67.613-16.305 102.834-83.72 153.147-311.412-8.464-311.412-8.464z" style="fill:url(#R)"/><linearGradient id="S" x1="-3853.453" x2="-3671.672" y1="1919.261" y2="2676.685" gradientTransform="matrix(-1 0 0 1 -1038.069 0)" gradientUnits="userSpaceOnUse"><stop offset="0" style="stop-color:#1e3a8a"/><stop offset="1" style="stop-color:#1e40af"/></linearGradient><path d="m2951.167 2230.638-77.307-269.973a7.87 7.87 0 0 0-6.659-5.669c-14.006-1.634-54.593-6.222-101.453-10.186-56.445-4.775-121.995-8.643-161.165-5.352-5.569.468-8.934 6.358-6.457 11.368 22.274 45.064 113.898 228.376 159.78 288.426a7.92 7.92 0 0 0 6.375 3.13l179.365-1.669c5.219-.05 8.957-5.057 7.521-10.075" style="fill:url(#S)"/><linearGradient id="T" x1="-3739.641" x2="-3778.356" y1="1799.87" y2="1969.878" gradientTransform="matrix(-1 0 0 1 -1038.069 0)" gradientUnits="userSpaceOnUse"><stop offset="0" style="stop-color:#3b82f6"/><stop offset="1" style="stop-color:#2563eb"/></linearGradient><path d="m2757.729 1921.404-56.049-9.339c-2.985-.498-5.43 2.355-4.482 5.228l5.549 16.813a4.02 4.02 0 0 0 3.288 2.727l53.936 7.205c2.791.373 5.091-2.163 4.449-4.904l-3.435-14.678a4.02 4.02 0 0 0-3.256-3.052" style="fill:url(#T)"/><linearGradient id="U" x1="-3759.903" x2="-3778.419" y1="1871.183" y2="1982.277" gradientTransform="matrix(-1 0 0 1 -1038.069 0)" gradientUnits="userSpaceOnUse"><stop offset="0" style="stop-color:#3b82f6"/><stop offset="1" style="stop-color:#2563eb"/></linearGradient><path d="m2799.697 1968.854-4.617-24.051a5.56 5.56 0 0 0-4.899-4.483l-113.206-11.488c-3.811-.387-6.861 3.105-5.967 6.829l7.198 29.97a5.56 5.56 0 0 0 5.126 4.254l110.625 5.569c3.601.181 6.42-3.059 5.74-6.6" style="fill:url(#U)"/><linearGradient id="V" x1="-3978.015" x2="-3875.022" y1="2119.64" y2="2119.64" gradientTransform="matrix(-1 0 0 1 -1038.069 0)" gradientUnits="userSpaceOnUse"><stop offset="0" style="stop-color:#febbba"/><stop offset="1" style="stop-color:#ff928e"/></linearGradient><path d="M2932.489 2165.412s10.769-44.281 6.425-59.991-12.76-35.91-40.814-31.421-61.147 16.307-61.147 16.307 1.672 20.463 22.993 13.861l-13.222 10.23s1.89 16.385 19.9 7.631l-12.298 13.568s7.735 13.457 20.985 4.826 19.602 30.321 57.178 24.989" style="fill:url(#V)"/><linearGradient id="W" x1="2975.641" x2="2892.238" y1="1997.941" y2="1697.689" gradientUnits="userSpaceOnUse"><stop offset="0" style="stop-color:#febbba"/><stop offset="1" style="stop-color:#ff928e"/></linearGradient><path d="m2948.917 1730.386 42.977 124.287c.712 2.059-.135 4.339-2.041 5.393-11.715 6.477-53.923 25.2-104.786-7.049-5.299-3.359-8.906-8.838-9.711-15.06l-13.917-107.57h87.478z" style="fill:url(#W)"/><linearGradient id="X" x1="-8389.268" x2="-8438.11" y1="-4109.27" y2="-4270.367" gradientTransform="rotate(-138.247 -3235.364 773.943)scale(1 -1)" gradientUnits="userSpaceOnUse"><stop offset="0" style="stop-color:#febbba"/><stop offset="1" style="stop-color:#ff928e"/></linearGradient><path d="M2855.404 1615.292s-47.194 88.836-41.144 124.722c6.049 35.886 64.538 33.309 115.613 4.164l35.69-95.924z" style="fill:url(#X)"/><linearGradient id="Y" x1="-8433.334" x2="-8392.477" y1="-4389.957" y2="-4156.92" gradientTransform="rotate(-138.247 -3235.364 773.943)scale(1 -1)" gradientUnits="userSpaceOnUse"><stop offset="0" style="stop-color:#1e3a8a"/><stop offset="1" style="stop-color:#1e40af"/></linearGradient><path d="M2927.616 1697.069c-2.075-.919-2.842-3.459-1.598-5.359 3.781-5.776 10.869-17.56 13.129-27.877 0 0 8.484-5.434-21.593-12.632-30.077-7.199-74.931-18.374-84.358-43.975-9.192-24.961 14.959-87.733 53.49-37.717 1.466 1.903 4.338 1.945 5.802.041 6.316-8.221 22.923-25.285 45.979-14.94 21.575 9.68 24.006 25.49 23.709 33.459-.087 2.345 2.008 4.167 4.313 3.727 10.909-2.08 37.085-3.867 49.304 22.987 10.064 22.119 3.523 34.639-2.435 40.763-1.93 1.983-1.084 5.25 1.562 6.061 7.17 2.194 16.427 8.273 15.5 25.07-1.282 23.22-27.243 21.174-34.635 20.116-1.211-.174-2.431.242-3.251 1.149-6.338 7.014-34.893 36.794-65.798 40.384-2.677.31-4.75-2.333-3.874-4.88l13.375-38.878a3.68 3.68 0 0 0-1.989-4.56z" style="fill:url(#Y)"/><linearGradient id="Z" x1="-8439.196" x2="-8483.143" y1="-4110.02" y2="-4254.962" gradientTransform="rotate(-138.247 -3235.364 773.943)scale(1 -1)" gradientUnits="userSpaceOnUse"><stop offset="0" style="stop-color:#febbba"/><stop offset="1" style="stop-color:#ff928e"/></linearGradient><path d="M2922.24 1702.588s33.602-23.054 36.057-3.639-30.259 28.121-46.463 20.883z" style="fill:url(#Z)"/><path d="m1301.818 1128.317 129.135 8.798c6.138.531 9.493-6.987 5-11.201l-123.833-91.699z" style="fill:#93c5fd"/><path d="m564.091 715.039 727.27-4.449c16.652-.102 30.174 12.236 30.048 27.415l-3.061 366.17c-.128 15.265-14.005 27.447-30.744 26.988l-719.395-19.708c-15.98-.438-28.744-12.275-28.949-26.847l-4.814-342.012c-.213-15.091 13.089-27.455 29.645-27.557" style="fill:#93c5fd"/><path d="m586.617 737.438 681.015-3.887c15.593-.089 28.255 10.691 28.136 23.953l-2.866 319.927c-.12 13.337 11.292 32.1-4.383 31.7l-698.047-25.339c-14.964-.383-26.916-10.725-27.108-23.456l-4.508-298.82c-.198-13.187 12.258-23.99 27.761-24.078" style="opacity:.14;fill:#fff"/><path d="m1288.52 1109.129-719.587-19.711c-3.037-.081-5.445-2.32-5.49-5.092l-4.813-342.015c-.024-1.391.536-2.665 1.619-3.675 1.079-1.01 2.465-1.546 4.007-1.553l727.268-4.45c1.567 0 2.96.525 4.048 1.516 1.099 1.006 1.667 2.284 1.651 3.697L1294.162 1104c-.016 2.827-2.549 5.129-5.642 5.129m-719.29-24.979 719.378 19.704 2.823-366.055-727.139 4.563z" style="opacity:.77;fill:#fff"/><path d="M606.042 820.194c0 12.955 7.545 23.457 16.852 23.457h618.571c9.307 0 16.852-10.502 16.852-23.457s-7.545-23.457-16.852-23.457H622.894c-9.307 0-16.852 10.502-16.852 23.457M639.923 883.654h579.94c12.618 0 22.847 6.299 22.847 14.068s-10.229 14.068-22.847 14.068h-579.94c-12.618 0-22.847-6.298-22.847-14.068s10.229-14.068 22.847-14.068M617.076 961.8c0 7.755 10.21 14.042 22.805 14.042h580.024c12.595 0 22.804-6.287 22.804-14.042v-8.681c0-7.889-10.551-14.23-23.359-14.038l-580.024 8.681c-12.375.186-22.25 6.416-22.25 14.038M642.21 1006.078h579.94c12.618 0 22.847 6.299 22.847 14.068 0 7.77-10.229 14.068-22.847 14.068H642.21c-12.618 0-22.847-6.298-22.847-14.068s10.229-14.068 22.847-14.068" style="opacity:.77;fill:#fff"/></svg>