<svg xmlns="http://www.w3.org/2000/svg" xml:space="preserve" viewBox="0 0 3710 3710"><linearGradient id="a" x1="3253.5" x2="752.4" y1="3457.8" y2="608.4" gradientUnits="userSpaceOnUse"><stop offset="0" style="stop-color:#dbeafe"/><stop offset="1" style="stop-color:#e9effd"/></linearGradient><path d="M2910.4 2828.1c-503.7 531.6-1277.5 374.3-1391.9 349-144-31.8-486.9-107.5-742.7-406.6-391.6-457.8-352-1173.4-49.6-1655.9 88-140.4 384.2-557.5 940.4-648.2 32.5-5.3 613.3-90.5 1080.6 301.6 63 52.9 164.8 148.6 253.9 288 276.5 432.5 407.4 1246.5-90.7 1772.1" style="fill:url(#a)"/><path d="M1818.9 597.8a46.7 46.7 0 0 1 61.5-34.7c177.7 63.4 790.4 272.6 1318.8 342.3a43 43 0 0 1 37.1 49.5L2929 2927a49.7 49.7 0 0 1-56.5 41.5c-221.4-33.1-1132.6-173-1446.7-274.3a39.4 39.4 0 0 1-26.5-45.4z" style="fill:#93c5fd"/><path d="M1830.1 651.2a45 45 0 0 1 59.2-33.4c171 61 760.7 262.4 1269.1 329.4a41.6 41.6 0 0 1 35.8 47.7l-295.8 1897.9c-4 26-28.4 43.9-54.4 40-213.1-32-1090-166.5-1392.3-264a38 38 0 0 1-25.4-43.7z" style="opacity:.6;fill:#fff"/><path d="M1996.7 807.8a28 28 0 0 0-34.1 22.5l-66.1 406.3a26 26 0 0 0 19.6 29.6c74.1 17.8 305.1 72.4 437.7 93.2 15 2.4 29.3-7.1 32.9-21.9 18.4-74.9 70.1-293.4 72.3-388.8a33 33 0 0 0-25-32.7z" style="opacity:.78;fill:#fff"/><linearGradient id="b" x1="2736.3" x2="2069.3" y1="363.3" y2="1356.4" gradientTransform="rotate(11.9 -22.4 -1359)" gradientUnits="userSpaceOnUse"><stop offset="0" style="stop-color:#fdf53f"/><stop offset="1" style="stop-color:#d93c65"/></linearGradient><circle cx="2185.7" cy="1027.6" r="88.4" style="fill:url(#b)"/><linearGradient id="c" x1="2850.2" x2="2183.2" y1="439.8" y2="1432.9" gradientTransform="rotate(11.9 -22.4 -1359)" gradientUnits="userSpaceOnUse"><stop offset="0" style="stop-color:#fdf53f"/><stop offset="1" style="stop-color:#d93c65"/></linearGradient><path d="m2000.8 1253.8 275.6 58.1c16.9 3.6 31-13 24.8-29.1-15.7-41.6-53.3-105.7-138.6-121.1-82.3-15-141 23.5-172.7 53.2a22.8 22.8 0 0 0 10.9 39" style="fill:url(#c)"/><g style="opacity:.6"><path d="M3057.2 1097.6c8.6 1.8 16.8-2.8 18.1-10.3s-4.5-15.2-13.1-17.2L2581 959.7c-8.6-2-14.7 3.6-13.6 12.3l1 7a24 24 0 0 0 17.7 19.3z" style="fill:#fff"/></g><g style="opacity:.6"><path d="M2565.1 1034.7c-8.6-2-14.6 3.6-13.5 12.3l1 7a24 24 0 0 0 17.7 19.3l471 99.3c8.7 1.8 16.9-2.8 18.2-10.3s-4.6-15.2-13.2-17.2z" style="fill:#fff"/></g><g style="opacity:.6"><path d="M2549.1 1110.8c-8.6-2-14.7 3.6-13.5 12.3l.9 7a24 24 0 0 0 17.8 19.3l471 99.3c8.7 1.8 16.8-2.8 18.2-10.3s-4.6-15.2-13.2-17.2z" style="fill:#fff"/></g><g style="opacity:.6"><path d="M2995 1625.6c8.5 1.8 16.5-2.9 17.6-10.4s-5.1-15.2-13.8-17.1l-1129.7-247.4c-8.6-2-12.4 3-8.4 10.9l6.8 13.5c4 8 14.2 15.9 22.8 17.7z" style="fill:#fff"/></g><g style="opacity:.6"><path d="M1853.3 1425.7c-8.6-1.9-12.4 3-8.4 10.9l6.8 13.6c4 7.8 14.2 15.8 22.8 17.6l1104.6 232.8c8.6 1.8 16.6-2.9 17.6-10.4s-5-15.2-13.7-17.1z" style="fill:#fff"/></g><path d="M1821.8 1549.9c27.7 3.6 78.8 13.4 107 18.9a26 26 0 0 1 21 24.7c.6 23.6-.1 64.1-9.7 105.2a23 23 0 0 1-27.5 17.3l-103.2-22.9a25.4 25.4 0 0 1-19.8-27.7l11.5-99.3a18.5 18.5 0 0 1 20.7-16.2" style="opacity:.6;fill:#fff"/><g style="opacity:.6"><path d="M2004.8 1630.2c-8.5-2.2-16 3.2-16.5 12l-1 17.2a19 19 0 0 0 14.8 19.4l251.3 53c8.7 1.8 17.1-3.8 18.8-12.5l.9-4.2a17 17 0 0 0-12.5-19.7z" style="fill:#fff"/></g><path d="M2385.7 1668.7c27.6 3.6 78.8 13.4 107 19a26 26 0 0 1 20.9 24.7c.7 23.5 0 64-9.7 105.2a23 23 0 0 1-27.4 17.3l-103.3-23a25.4 25.4 0 0 1-19.7-27.7l11.4-99.2a18.5 18.5 0 0 1 20.8-16.3" style="opacity:.6;fill:#fff"/><g style="opacity:.6"><path d="M2568.6 1749c-8.5-2.2-16 3.3-16.4 12l-1 17.3a19 19 0 0 0 14.7 19.3l251.4 53c8.6 1.8 17-3.8 18.8-12.5l.8-4.2a17 17 0 0 0-12.4-19.7z" style="fill:#fff"/></g><path d="m1886.4 1967-.2-.1-95.3-21c-13.6-3-23-14.8-21.6-27.4l8.5-82c.5-4.7 3-9 6.8-12.1 4.4-3.5 10.3-5 16.2-4.2 8.1 1.2 19.7 2.6 31.9 4.1 25.7 3.2 57.7 7.1 75.4 10.6 12.9 2.7 22.2 12.6 22.8 24.4 1.1 19.4-6.6 54.1-15.4 91-2.9 12-15.8 19.4-29 16.6m-86.7-139.4c-3.8-.5-7.6.5-10.4 2.7a10 10 0 0 0-4 7l-8.6 82c-.9 8.8 5.9 17 15.8 19.2l95.3 21 .2.1c9.2 2 18.3-3 20.2-11 8.6-36.3 16.3-70.5 15.2-89-.4-8.2-7.4-15.3-16.7-17.3-17.5-3.5-49.3-7.4-75-10.6z" style="fill:#fff"/><path d="M1808.3 1838c20.3 3 64.9 7.7 85.6 11.8 8.8 1.7 15.3 8.7 15.8 16.7.9 15.6-5.8 44.9-12.3 71.9-1.9 8-10.7 13-19.8 11l-76.2-16.8c-9.4-2.1-15.8-10.1-15-18.7l6.9-65.4c.7-6.8 7.4-11.5 15-10.4" style="opacity:.6;fill:#fff"/><g style="opacity:.6"><path d="M1981.5 1931.4c.6 11 8.6 20.4 19.5 22.6l885.2 178.7a18.3 18.3 0 0 0 7.5-36l-882.8-190.2a24.2 24.2 0 0 0-29.4 25" style="fill:#fff"/></g><linearGradient id="d" x1="2718.9" x2="2220.5" y1="1000" y2="1850.7" gradientTransform="rotate(11.9 -22.4 -1359)" gradientUnits="userSpaceOnUse"><stop offset="0" style="stop-color:#a737d5"/><stop offset="1" style="stop-color:#ef497a"/></linearGradient><path d="M1809.7 1851.5a15 15 0 0 1 19 9.8l11.8 37.7a4.8 4.8 0 0 0 8.4 1.4l68.7-94.2c3.4-4.7 10.8-1.3 9.5 4.4a210 210 0 0 1-89.9 130.3s-25.7-16.8-37.8-71a15.7 15.7 0 0 1 10.3-18.4" style="fill:url(#d)"/><path d="M1843.3 2171.6h-.3l-95.3-21c-13.6-3-22.9-14.8-21.6-27.4l8.5-82q.9-7.2 6.9-12.2c4.4-3.4 10.3-5 16.1-4l32 4c25.7 3.2 57.7 7.1 75.4 10.6h.4a27 27 0 0 1 22.4 24.4c1 19.4-6.7 54.1-15.5 91-2.8 12-15.8 19.4-29 16.6m-86.7-139.3c-3.9-.5-7.7.4-10.5 2.6a10 10 0 0 0-4 7.1l-8.5 82c-1 8.7 5.9 17 15.8 19.2l95.3 21h.2c9.2 2 18.2-2.9 20.2-11 8.6-36.2 16.2-70.4 15.2-88.8-.5-8.3-7.5-15.6-16.8-17.4-17.4-3.5-49.3-7.4-74.9-10.6z" style="fill:#fff"/><path d="M1765.1 2042.8c20.4 2.8 65 7.6 85.7 11.7 8.7 1.7 15.3 8.6 15.8 16.7.8 15.6-5.9 44.9-12.3 71.9-2 8-10.8 13-19.9 11l-76.1-16.8c-9.4-2.1-15.8-10.1-15-18.7l6.8-65.4c.7-6.8 7.5-11.5 15-10.4" style="opacity:.6;fill:#fff"/><g style="opacity:.6"><path d="M1938.4 2136.1c.6 11 8.5 20.3 19.4 22.5l885.2 178.7a18.3 18.3 0 0 0 7.5-35.8l-882.8-190.3a24.2 24.2 0 0 0-29.3 24.9" style="fill:#fff"/></g><linearGradient id="e" x1="2810.2" x2="2311.8" y1="1053.5" y2="1904.1" gradientTransform="rotate(11.9 -22.4 -1359)" gradientUnits="userSpaceOnUse"><stop offset="0" style="stop-color:#a737d5"/><stop offset="1" style="stop-color:#ef497a"/></linearGradient><path d="M1766.5 2056.2a15 15 0 0 1 19.1 9.8l11.7 37.7a4.8 4.8 0 0 0 8.5 1.4l68.6-94.2c3.5-4.7 10.8-1.3 9.5 4.4a210 210 0 0 1-89.8 130.3s-25.8-16.8-37.9-71a15.7 15.7 0 0 1 10.3-18.4" style="fill:url(#e)"/><path d="M1800.2 2376.3h-.3l-95.3-21c-13.6-3-23-14.8-21.6-27.4l8.5-82q.9-7.2 6.9-12.2c4.4-3.4 10.2-5 16.1-4.1 8.2 1.1 19.7 2.6 31.9 4 25.7 3.2 57.7 7.2 75.5 10.7h.3a27 27 0 0 1 22.5 24.3c1 19.5-6.7 54.2-15.5 91.1-2.8 12-15.8 19.4-29 16.6m-86.7-139.3c-3.9-.5-7.7.4-10.5 2.6a10 10 0 0 0-4 7.1l-8.5 82c-1 8.7 5.8 17 15.7 19.2l95.3 21h.2c9.3 2 18.3-2.9 20.2-11 8.6-36.3 16.3-70.4 15.3-88.8-.5-8.3-7.6-15.7-16.8-17.4-17.5-3.5-49.3-7.4-75-10.6z" style="fill:#fff"/><path d="M1722 2247.5c20.3 2.8 64.9 7.6 85.6 11.7 8.8 1.7 15.4 8.6 15.8 16.7.9 15.6-5.8 44.9-12.2 71.9-2 8-10.8 13-19.9 11l-76.2-16.9c-9.3-2-15.8-10-14.9-18.6l6.8-65.4c.7-6.8 7.4-11.5 15-10.4" style="opacity:.6;fill:#fff"/><g style="opacity:.6"><path d="M1895.3 2340.8c.5 11 8.5 20.3 19.4 22.5l885.2 178.7a18.3 18.3 0 0 0 7.5-35.8l-882.8-190.3a24.2 24.2 0 0 0-29.3 24.9" style="fill:#fff"/></g><linearGradient id="f" x1="2886.9" x2="2231.1" y1="1263.2" y2="2177.5" gradientTransform="rotate(11.9 -22.4 -1359)" gradientUnits="userSpaceOnUse"><stop offset="0" style="stop-color:#a737d5"/><stop offset="1" style="stop-color:#ef497a"/></linearGradient><path d="M1723.4 2260.9a15 15 0 0 1 19 9.7l11.8 37.8a4.8 4.8 0 0 0 8.5 1.4l68.6-94.2c3.4-4.7 10.8-1.3 9.5 4.4a210 210 0 0 1-89.9 130.3s-25.7-16.8-37.8-71a15.7 15.7 0 0 1 10.3-18.4" style="fill:url(#f)"/><path d="M1757 2581h-.2l-95.3-21.1c-13.7-3-23-14.8-21.6-27.4l8.5-81.9q.8-7.4 6.8-12.2c4.4-3.4 10.3-5 16.2-4.1 8.1 1.1 19.7 2.6 31.9 4 25.7 3.2 57.7 7.2 75.4 10.7h.4a27 27 0 0 1 22.4 24.3c1.1 19.5-6.7 54.2-15.4 91.1-2.9 12-15.9 19.4-29 16.6m-86.7-139.3c-3.8-.5-7.6.4-10.5 2.6a10 10 0 0 0-4 7.1l-8.5 82c-.9 8.7 5.9 17 15.8 19.2l95.3 21h.2c9.2 2 18.3-2.9 20.2-11 8.6-36.3 16.3-70.4 15.2-88.8-.4-8.3-7.5-15.7-16.7-17.5-17.5-3.4-49.4-7.3-75-10.5z" style="fill:#fff"/><path d="M1678.8 2452.1c20.4 2.9 65 7.7 85.7 11.8 8.8 1.7 15.3 8.6 15.8 16.7.9 15.6-5.9 44.9-12.3 71.9-1.9 8-10.7 13-19.8 11l-76.2-16.9c-9.4-2-15.8-10-15-18.6l6.9-65.4c.7-6.8 7.4-11.5 15-10.5" style="opacity:.6;fill:#fff"/><g style="opacity:.6"><path d="M1852.1 2545.5c.6 11 8.6 20.3 19.4 22.5l885.3 178.7a18.3 18.3 0 0 0 7.4-35.9l-882.8-190.2a24.2 24.2 0 0 0-29.3 24.9" style="fill:#fff"/></g><linearGradient id="g" x1="2992.6" x2="2494.2" y1="1160.4" y2="2011.1" gradientTransform="rotate(11.9 -22.4 -1359)" gradientUnits="userSpaceOnUse"><stop offset="0" style="stop-color:#a737d5"/><stop offset="1" style="stop-color:#ef497a"/></linearGradient><path d="M1680.3 2465.6a15 15 0 0 1 19 9.7l11.7 37.8a4.8 4.8 0 0 0 8.5 1.4l68.7-94.2c3.4-4.7 10.7-1.3 9.5 4.4a210 210 0 0 1-90 130.3s-25.6-16.8-37.8-71.1a15.7 15.7 0 0 1 10.4-18.3" style="fill:url(#g)"/><path d="M487.1 863.8a46.7 46.7 0 0 1 42.7-56.2C718 795.2 1363.5 744 1876.1 598.4A43 43 0 0 1 1930 629l500.5 1932.2c6.9 26.5-9 53.5-35.4 60.5-216.4 57.5-1108.2 290.8-1436.8 322.4-20 2-38.2-11.5-42.3-31.2z" style="fill:#93c5fd"/><path d="M518.7 908.4a45 45 0 0 1 41-54.1c181.2-12 802.3-61.1 1295.7-201.4a41.6 41.6 0 0 1 51.7 29.6l481.7 1859.4a48 48 0 0 1-34.1 58.3C2146.5 2655.5 1288.2 2880 972 2910.5a38 38 0 0 1-40.7-30z" style="opacity:.6;fill:#fff"/><path d="m711.3 1020.2 100.5 399.2a26 26 0 0 0 29.9 19.4c75-13 308.8-54.6 438.7-88.2a29 29 0 0 0 21.5-33.1c-12.9-76.1-52-297.2-88-385.7a33 33 0 0 0-36-20L733.7 986a28 28 0 0 0-22.4 34.2" style="opacity:.78;fill:#fff"/><circle cx="994.4" cy="1112.7" r="88.4" style="fill:#93c5fd" transform="rotate(-86.1 994.4 1112.7)"/><path d="m914.5 1393.8 276-56a21.8 21.8 0 0 0 11.2-36.7c-30.9-31.9-90.9-75.8-175.3-56.1-81.4 19-120 77.5-137.4 117.4a22.8 22.8 0 0 0 25.5 31.4" style="fill:#93c5fd"/><g style="opacity:.6"><path d="M1822 831.1c8.7-1.8 14.4-9.2 12.7-16.6s-10.3-12.2-19-10.6l-485.5 89.7c-8.6 1.6-12 9-7.5 16.7l3.7 6a24 24 0 0 0 23.9 10.6z" style="fill:#fff"/></g><g style="opacity:.6"><path d="M1345.5 968.7c-8.7 1.6-12 9.1-7.5 16.7l3.6 6a24 24 0 0 0 24 10.7l471.7-95.9c8.7-1.7 14.3-9.2 12.6-16.6s-10.2-12.1-18.9-10.5z" style="fill:#fff"/></g><g style="opacity:.6"><path d="M1361 1045c-8.7 1.5-12 9-7.6 16.6l3.7 6.1a24 24 0 0 0 24 10.6l471.7-95.8c8.7-1.8 14.3-9.3 12.6-16.7s-10.2-12.1-19-10.5z" style="fill:#fff"/></g><g style="opacity:.6"><path d="M1974.5 1340.5c8.6-1.8 14-9.2 12-16.5s-10.7-12-19.3-10.3L832 1534.9c-8.7 1.7-10.3 7.7-3.5 13.4l11.6 9.8a38 38 0 0 0 28 7z" style="fill:#fff"/></g><g style="opacity:.6"><path d="M847.3 1610c-8.6 1.7-10.2 7.8-3.4 13.4l11.6 9.8a38 38 0 0 0 28 7l1106.2-224.6c8.7-1.7 14.1-9.2 12.1-16.5s-10.7-12-19.4-10.3z" style="fill:#fff"/></g><path d="M867.7 1736.5c26.8-7.6 77.6-19 105.6-25a26 26 0 0 1 29.1 14.3c10 21.4 25.4 59 32.9 100.5a23 23 0 0 1-18.3 26.7l-104 20a25.4 25.4 0 0 1-29-17.6l-29-95.7c-3-9.9 2.7-20.3 12.7-23.2" style="opacity:.6;fill:#fff"/><g style="opacity:.6"><path d="M1067.5 1737.6a12.8 12.8 0 0 0-10.4 17.6l6 16.2c3 8.3 12.5 13.7 21.2 12l251.7-51.2a16 16 0 0 0 12.3-18.9l-.9-4.2a17 17 0 0 0-19.2-13.2z" style="fill:#fff"/></g><path d="M1432.4 1621.8a2236 2236 0 0 1 105.6-25 26 26 0 0 1 29.1 14.3c10 21.4 25.4 59 32.9 100.5a23 23 0 0 1-18.3 26.7l-104 20a25.4 25.4 0 0 1-29-17.6l-29-95.7c-3-9.9 2.7-20.3 12.7-23.2" style="opacity:.6;fill:#fff"/><g style="opacity:.6"><path d="M1632.2 1623a12.8 12.8 0 0 0-10.4 17.5l6 16.2c3 8.3 12.5 13.7 21.2 12l251.7-51.2a16 16 0 0 0 12.3-18.9l-.9-4.2a17 17 0 0 0-19.2-13.2z" style="fill:#fff"/></g><path d="M1092.5 2093.7h-.3l-95.8 18.6c-13.7 2.6-26.9-4.5-30.7-16.6l-24.7-78.5c-1.4-4.6-1-9.6 1.5-14 2.6-4.9 7.4-8.6 13.1-10.2 8-2.1 19.1-5.4 31-8.9 24.8-7.3 55.7-16.3 73.4-20.2 12.9-2.6 25.3 2.8 30.6 13.3 8.7 17.4 15.4 52.4 22 89.7 2.1 12.2-6.9 24.1-20.1 26.8m-134.9-93.4q-5.7 1.7-8.5 6.5a10 10 0 0 0-1 8.1l24.8 78.6c2.6 8.4 12.1 13.3 22 11.4l96-18.5h.1c9.3-2 15.6-10 14.2-18.1-6.5-36.8-13-71.2-21.3-87.7-3.7-7.4-13-11.2-22.3-9.3-17.4 3.7-48.2 12.8-73 20-11.8 3.5-23 6.8-31 9" style="fill:#fff"/><path d="M969.6 2006.5c19.8-5.5 62.6-18.8 83.2-23.3 8.8-1.8 17.6 1.9 21.2 9 7 14 12.4 43.6 17.3 71 1.4 8.1-4.7 16.2-13.9 18l-76.6 14.7c-9.4 1.8-18.5-3-21-11.2L960 2022c-2-6.5 2.3-13.5 9.6-15.5" style="opacity:.6;fill:#fff"/><g style="opacity:.6"><path d="M1165.7 2023.4c4.9 9.9 16 15.2 26.8 13l883.4-187.3a18.3 18.3 0 0 0-7.4-36L1182.7 1989a24.2 24.2 0 0 0-17 34.5" style="fill:#fff"/></g><path d="M1134.1 2298.7h-.2l-95.9 18.6c-13.6 2.6-26.8-4.5-30.6-16.6l-24.7-78.5c-1.5-4.6-1-9.6 1.4-14 2.7-4.9 7.5-8.6 13.2-10.2 8-2.1 19-5.4 30.9-8.9 24.8-7.3 55.8-16.3 73.5-20.2h.3c12.6-2.6 25 2.9 30.2 13.3 8.8 17.4 15.4 52.4 22 89.7 2.2 12.2-6.8 24.1-20 26.8m-134.8-93.4q-5.9 1.7-8.6 6.5a10 10 0 0 0-.9 8.1l24.7 78.6c2.7 8.4 12.2 13.3 22.1 11.4l95.9-18.5h.2c9.2-2 15.6-10 14.1-18.1-6.5-36.8-13-71.2-21.3-87.7-3.7-7.4-13-11.4-22.3-9.3-17.4 3.7-48.2 12.8-72.9 20-11.8 3.5-23 6.8-31 9" style="fill:#fff"/><path d="M1011.2 2211.5c19.9-5.5 62.6-18.8 83.3-23.3 8.7-1.8 17.5 1.9 21.1 9 7 14 12.5 43.6 17.3 71 1.4 8.1-4.7 16.2-13.9 18l-76.5 14.7c-9.5 1.8-18.6-3-21.1-11.2l-19.8-62.7c-2-6.5 2.3-13.5 9.6-15.5" style="opacity:.6;fill:#fff"/><g style="opacity:.6"><path d="M1207.3 2228.4c5 9.9 16 15.2 26.8 13l883.4-187.3a18.3 18.3 0 0 0-7.3-36L1224.3 2194a24.2 24.2 0 0 0-17 34.5" style="fill:#fff"/></g><path d="M1175.8 2503.7h-.3l-95.8 18.6c-13.7 2.6-26.9-4.5-30.7-16.6l-24.7-78.5c-1.5-4.6-1-9.6 1.4-14 2.7-4.9 7.5-8.6 13.2-10.2 8-2.1 19.1-5.4 31-8.9 24.8-7.3 55.7-16.3 73.4-20.2h.4c12.6-2.6 25 2.9 30.2 13.3 8.7 17.4 15.3 52.4 22 89.7 2 12.2-6.9 24.1-20.1 26.8m-134.9-93.4c-3.7 1-6.9 3.4-8.6 6.5a10 10 0 0 0-.9 8.1l24.7 78.6c2.7 8.4 12.2 13.3 22.2 11.4l95.8-18.5h.2c9.3-2 15.6-10 14.2-18.1-6.5-36.8-13-71.2-21.3-87.7-3.7-7.4-13.1-11.4-22.3-9.3-17.4 3.7-48.2 12.8-73 20-11.8 3.5-23 6.8-31 9" style="fill:#fff"/><path d="M1052.9 2416.5c19.8-5.5 62.6-18.8 83.2-23.3 8.8-1.8 17.6 1.9 21.2 9 7 14 12.4 43.6 17.2 71 1.5 8.1-4.7 16.2-13.8 18l-76.6 14.7c-9.4 1.8-18.5-3-21.1-11.2l-19.7-62.7c-2-6.5 2.2-13.5 9.6-15.5" style="opacity:.6;fill:#fff"/><g style="opacity:.6"><path d="M1249 2433.4c4.9 9.9 15.9 15.2 26.7 13l883.5-187.3a18.3 18.3 0 0 0-7.4-36L1266 2399a24.2 24.2 0 0 0-17 34.5" style="fill:#fff"/></g><path d="M1217.4 2708.7h-.2l-95.9 18.6c-13.7 2.6-26.9-4.5-30.7-16.6l-24.7-78.5c-1.4-4.6-.9-9.6 1.5-14 2.7-4.9 7.5-8.6 13.2-10.2 7.9-2.1 19-5.4 30.9-8.9 24.8-7.3 55.8-16.3 73.4-20.2h.4c12.6-2.6 25 2.9 30.2 13.3 8.7 17.4 15.4 52.4 22 89.7 2.1 12.2-6.9 24.1-20 26.8m-134.9-93.4c-3.7 1-6.8 3.4-8.5 6.5a10 10 0 0 0-1 8.1l24.8 78.6c2.6 8.4 12.1 13.3 22.1 11.4l95.8-18.5h.2c9.3-2 15.6-10 14.2-18.1-6.5-36.8-13-71.2-21.3-87.7-3.7-7.4-13.1-11.4-22.3-9.3-17.4 3.7-48.2 12.8-73 20-11.8 3.5-23 6.8-31 9" style="fill:#fff"/><path d="M1094.5 2621.5c19.8-5.5 62.6-18.8 83.3-23.3 8.7-1.8 17.5 1.9 21 9 7 14 12.5 43.6 17.4 71 1.4 8.1-4.7 16.2-13.9 18l-76.6 14.7c-9.4 1.8-18.5-3-21-11.2l-19.8-62.7c-2-6.5 2.3-13.5 9.6-15.5" style="opacity:.6;fill:#fff"/><g style="opacity:.6"><path d="M1290.6 2638.4c5 9.9 16 15.2 26.8 13l883.4-187.3a18.3 18.3 0 0 0-7.4-36L1307.6 2604a24.2 24.2 0 0 0-17 34.5" style="fill:#fff"/></g><linearGradient id="h" x1="843.9" x2="345.6" y1="1957.5" y2="2808.2" gradientTransform="rotate(-11.5 -283.6 -1335.7)" gradientUnits="userSpaceOnUse"><stop offset="0" style="stop-color:#a737d5"/><stop offset="1" style="stop-color:#ef497a"/></linearGradient><path d="M1101.1 2633.2a15 15 0 0 1 21.4 1.4l25.7 30c2.6 3 7.5 1.8 8.4-2l25.6-113.7c1.3-5.7 9.4-5.5 10.5.2 6 32 9.8 94.2-30.8 155.3 0 0-30.3-5.2-63-50.3a15.7 15.7 0 0 1 2.2-20.9" style="fill:url(#h)"/><path d="M1060.1 2535.5a2558 2558 0 0 0 54.2 318.7h15.5a1739 1739 0 0 1-52.8-499.7c8.8-201.5 58.1-446.1-34-563-76.5-97.2-401.5-111.8-508.3-113.9a15.8 15.8 0 0 0-12.7 25.6c41 51.5 126.8 170.9 134.2 275.1 9.9 137.4 116.7 245.3 222.8 290.2s163.2 79.1 181.1 267" style="fill:#93c5fd"/><path d="M668.3 1762.5a512 512 0 0 1 182.3 87.8 401 401 0 0 1 73.2 71.3c21 27 38.8 56.9 51 89l4.6 12q2 6 4 12.3l3.6 12.3 3.2 12.2a3347 3347 0 0 1 36.1 147.3c14.6 65.8 27 132 35.5 199a3 3 0 0 1-5.8 1v-.2q-9-49.6-19.9-98.7-10.6-49.2-22.5-98.2l-12-49-12.4-48.8q-6.3-24.3-13-48.7L973 2051q-1.6-6-3.6-11.9-1.6-5.9-3.6-11.8l-4.3-11.5a344 344 0 0 0-48.4-85.9 381 381 0 0 0-32.8-37.2l-4.3-4.4-4.5-4.2q-4.5-4.4-9.1-8.5-9.3-8.3-19-16a514 514 0 0 0-83.8-54.2 534 534 0 0 0-92.4-38.3h-.2a2.4 2.4 0 0 1 1.3-4.6" style="opacity:.5;fill:#fff"/><path d="M1063.2 2660.2c55.6 81.6 48.4 127.3 50.1 166 .3 6.8.7 16.5 1.5 28h15.2a333 333 0 0 1-6-47.2c-5.5-106.8-29.6-289-121.7-398.1-92-109-193-119-320-19.9-106 82.6-172 124.3-210.7 132a14.6 14.6 0 0 0-9.8 21.4c24.8 45.8 95 150.9 213 143.5 150.5-9.5 332.8-107.3 388.4-25.7" style="fill:#93c5fd"/><path d="M725.3 2520.3q12.6-11.7 26.3-21.9 13.5-10.4 28.2-19.4c19.4-12 40.2-22.2 62.3-29.3q16.6-5.3 34.1-7.7 17.5-2.2 35.4-.1 4.4.6 8.8 1.4 4.3 1 8.7 2l16.5 5.2 16.3 6.3 15.7 7.6a198 198 0 0 1 54.8 42.8 246 246 0 0 1 38 57.7l3.7 7.7q1.8 4 3.4 8 3.3 7.8 6.4 15.8l5.6 16.2c2 5.4 3.3 11 4.9 16.4a597 597 0 0 1 14.4 66.6 2.3 2.3 0 0 1-4.5.9c-5.3-22-10.4-43.9-17.7-65.1-3.3-10.7-7.5-21-11.4-31.5q-3.3-7.7-6.7-15.4-1.7-3.7-3.5-7.5l-4-7.4a251 251 0 0 0-37.5-54.2 193 193 0 0 0-52-39.6l-14.8-7-15.3-6-15.8-4.8-7.8-1.8q-4-.8-7.9-1.4a133 133 0 0 0-32.2 0 184 184 0 0 0-32 6.5 308 308 0 0 0-61 26 467 467 0 0 0-56.2 36.6 2.4 2.4 0 0 1-3.2-3.6" style="opacity:.5;fill:#fff"/><linearGradient id="i" x1="1899.3" x2="1780.9" y1="2908.3" y2="-596.4" gradientUnits="userSpaceOnUse"><stop offset="0" style="stop-color:#1e3a8a"/><stop offset="1" style="stop-color:#1e40af"/></linearGradient><path d="M1066.3 1061.9c0-83.6 67.8-151.4 151.4-151.4h1287.4c71 0 129.6 55.6 133.2 126.6l95 1866.4a98.4 98.4 0 0 1-96.4 103.3l-1475.5 26.9c-52.2 1-95-41.2-95-93.4z" style="fill:url(#i)"/><path d="M1171.8 939.2a44 44 0 0 1 49.9-43.8c175.8 23.8 780.3 97.5 1280.1 59.2a40.7 40.7 0 0 1 43.8 38.3l99.7 1874.8a47 47 0 0 1-44 49.2c-210.2 12.4-1076 60.5-1384.7 28.2a37 37 0 0 1-33.2-36.7z" style="fill:#93c5fd"/><path d="M1192.5 986.2a42.3 42.3 0 0 1 48-42.2c169.2 23 751 93.9 1232 57 21.9-1.7 41 14.9 42 36.9l96 1804.1a45 45 0 0 1-42.3 47.4c-202.3 12-1035.5 58.2-1332.6 27.1a35.7 35.7 0 0 1-32-35.3z" style="opacity:.6;fill:#fff"/><path d="m1349.1 1125.3 18 386.8c.6 12.8 11 23 23.8 23.4 71.7 2 294.9 7.5 421 1a27.5 27.5 0 0 0 26-26.6c2.3-72.5 7.6-283.7-9-372a31 31 0 0 0-29.3-25.1l-423.5-14.9a26 26 0 0 0-27 27.4" style="opacity:.78;fill:#fff"/><linearGradient id="j" x1="1476.9" x2="1871.6" y1="1062.1" y2="1748.8" gradientUnits="userSpaceOnUse"><stop offset="0" style="stop-color:#ff928e"/><stop offset="1" style="stop-color:#fe7062"/></linearGradient><circle cx="1592.8" cy="1263.6" r="83.1" style="fill:url(#j)"/><linearGradient id="k" x1="1384.8" x2="1779.4" y1="1115.1" y2="1801.8" gradientUnits="userSpaceOnUse"><stop offset="0" style="stop-color:#ff928e"/><stop offset="1" style="stop-color:#fe7062"/></linearGradient><path d="M1466.5 1507.7h264.9c16.2 0 26-18 17.2-31.6-22.5-35.2-69.6-87-151.1-84.6-78.6 2.2-125.2 49-148.6 82.5-10 14.2.2 33.7 17.6 33.7" style="fill:url(#k)"/><g style="opacity:.6"><path d="M2408.4 1159c8.3 0 15-5.9 14.7-13-.2-7.2-7.1-13.1-15.4-13.3l-464.3-8.2c-8.3-.2-12.9 6.1-10.1 14l2.2 6.2a23 23 0 0 0 20.1 14.3z" style="fill:#fff"/></g><g style="opacity:.6"><path d="M1943.4 1196.6c-8.3-.2-12.9 6.1-10.1 14l2.2 6.2a23 23 0 0 0 20.1 14.3h452.8c8.3 0 15-5.9 14.7-13-.2-7.1-7.1-13.1-15.4-13.3z" style="fill:#fff"/></g><g style="opacity:.6"><path d="M1943.4 1269.7c-8.3-.1-12.9 6.2-10.1 14l2.2 6.3a23 23 0 0 0 20.1 14.2h452.8c8.3 0 15-5.8 14.7-13-.2-7-7.1-13-15.4-13.2z" style="fill:#fff"/></g><g style="opacity:.6"><path d="M2453.5 1657c8.3 0 14.7-5.8 14.2-13s-7.6-13-15.9-13l-1087.7-8.6c-8.3 0-10.9 5.2-5.7 11.7l8.9 11.1a36 36 0 0 0 24.5 11.8z" style="fill:#fff"/></g><g style="opacity:.6"><path d="M1364 1694.5c-8.2 0-10.8 5.2-5.6 11.7l8.9 11.1a36 36 0 0 0 24.5 11.8h1061.7c8.3 0 14.7-5.8 14.2-13s-7.6-13-15.9-13z" style="fill:#fff"/></g><linearGradient id="l" x1="1205.1" x2="2444.4" y1="1709.6" y2="2700.2" gradientUnits="userSpaceOnUse"><stop offset="0" style="stop-color:#3b82f6"/><stop offset="1" style="stop-color:#2563eb"/></linearGradient><path d="M1359.2 1814.9c26.1-2 75.1-3 102-3.3a24.4 24.4 0 0 1 24.2 18.7c5.2 21.5 12.4 59 11.5 98.7a21.7 21.7 0 0 1-22 21.2l-99.4-1a24 24 0 0 1-23.6-21.7l-8.7-93.6a17.4 17.4 0 0 1 16-19" style="fill:url(#l)"/><g style="opacity:.6"><path d="M1543.1 1853.3a12 12 0 0 0-12.8 14.3l2.4 16c1.3 8.2 9 15 17.3 15h241.7c8.3 0 15-6.8 14.9-15.1v-4.1c-.2-8.3-7-15.4-15.3-15.7z" style="fill:#fff"/></g><linearGradient id="m" x1="1416.4" x2="2655.7" y1="1445.2" y2="2435.9" gradientUnits="userSpaceOnUse"><stop offset="0" style="stop-color:#3b82f6"/><stop offset="1" style="stop-color:#2563eb"/></linearGradient><path d="M1901.2 1814.9c26.1-2 75-3 102-3.3a24.4 24.4 0 0 1 24.2 18.7c5.2 21.5 12.4 59 11.5 98.7a21.7 21.7 0 0 1-22 21.2l-99.4-1a24 24 0 0 1-23.6-21.7l-8.7-93.6c-1-9.7 6.3-18.3 16-19" style="fill:url(#m)"/><g style="opacity:.6"><path d="M2085.1 1853.3a12 12 0 0 0-12.8 14.3l2.4 16c1.3 8.2 9 15 17.3 15h241.7c8.3 0 15-6.8 14.9-15.1v-4.1c-.2-8.3-7-15.4-15.3-15.7z" style="fill:#fff"/></g><path d="M1499.5 2186.2h-.2l-91.8-.9c-13.1-.1-24-9.1-25.2-21l-8-77c-.5-4.5.9-9 3.9-12.6 3.4-4 8.5-6.5 14-7 7.8-.4 18.7-1.4 30.2-2.3 24.3-2.1 54.5-4.7 71.5-4.9 12.3 0 22.8 7.2 25.7 18 4.8 17.7 4.4 51.1 3.4 86.8-.2 11.6-10.8 21-23.5 21m-106.8-111.4a13 13 0 0 0-9.1 4.5 10 10 0 0 0-2.4 7.3l8.1 77c.9 8.3 8.7 14.6 18.3 14.7l91.8.9h.1c9 0 16.3-6.3 16.5-14 .9-35.2 1.3-68.1-3.2-84.9-2-7.5-9.9-12.7-18.8-12.7-16.8.2-46.8 2.7-71 4.8-11.6 1-22.5 1.9-30.3 2.4" style="fill:#fff"/><path d="M1402.6 2082.8c19.3-1.3 61.2-5.6 81-5.8 8.5-.1 15.9 5 17.9 12.2 3.8 14.2 3.3 42.5 2.6 68.6-.2 7.8-7.4 14-16.1 14l-73.4-.7c-9-.1-16.5-6.3-17.3-14.3l-6.5-61.5c-.7-6.4 4.6-12 11.8-12.5" style="opacity:.6;fill:#fff"/><g style="opacity:.6"><path d="M1580.2 2135c2.6 10.1 11.8 17.1 22.2 17l849.4-7.2a17.2 17.2 0 0 0 0-34.5l-849.5-3.8c-15-.1-26 14-22.1 28.6" style="fill:#fff"/></g><linearGradient id="n" x1="1676.1" x2="1207.3" y1="1714.2" y2="2514.3" gradientUnits="userSpaceOnUse"><stop offset="0" style="stop-color:#3b82f6"/><stop offset="1" style="stop-color:#2563eb"/></linearGradient><path d="M1406.5 2094.9a14 14 0 0 1 19.4 5.2l18.1 32.5c1.9 3.3 6.6 3 8.1-.3l45-100c2.2-5 9.6-3.3 9.5 2.1-.4 30.6-8.6 88.8-57.4 137.4 0 0-27-10.5-48.6-58-3.2-7-.6-15.1 5.9-19" style="fill:url(#n)"/><path d="M1499.5 2383h-.2l-91.8-1c-13.1 0-24-9-25.2-20.9l-8-77q-.7-7 3.9-12.6c3.4-4 8.5-6.6 14-7 7.8-.5 18.7-1.4 30.2-2.4 24.3-2 54.5-4.6 71.5-4.8h.4c12 0 22.4 7.3 25.3 18 4.8 17.6 4.4 51.1 3.4 86.8-.2 11.5-10.8 20.9-23.5 20.9m-106.8-111.4a13 13 0 0 0-9.1 4.4 10 10 0 0 0-2.4 7.3l8.1 77c.9 8.3 8.7 14.6 18.3 14.7l91.8 1h.1c9 0 16.3-6.4 16.5-14.1.9-35.1 1.3-68-3.2-84.8-2-7.5-10-13-18.8-12.8-16.8.2-46.8 2.8-71 4.8-11.6 1-22.5 2-30.3 2.5" style="fill:#fff"/><path d="M1402.6 2279.5c19.3-1.3 61.2-5.5 81-5.8 8.5 0 15.9 5 17.9 12.3 3.8 14.2 3.3 42.5 2.6 68.6-.2 7.8-7.4 14-16.1 14l-73.4-.8c-9 0-16.5-6.2-17.3-14.2l-6.5-61.6c-.7-6.3 4.6-12 11.8-12.5" style="opacity:.6;fill:#fff"/><g style="opacity:.6"><path d="M1580.2 2331.8c2.6 10.1 11.8 17 22.2 17l849.4-7.2a17.2 17.2 0 0 0 0-34.5l-849.5-3.9c-15 0-26 14.1-22.1 28.6" style="fill:#fff"/></g><linearGradient id="o" x1="1761.9" x2="1293.1" y1="1764.5" y2="2564.6" gradientUnits="userSpaceOnUse"><stop offset="0" style="stop-color:#3b82f6"/><stop offset="1" style="stop-color:#2563eb"/></linearGradient><path d="M1406.5 2291.6a14 14 0 0 1 19.4 5.3l18.1 32.5c1.9 3.2 6.6 3 8.1-.4l45-100c2.2-5 9.6-3.3 9.5 2.2-.4 30.6-8.6 88.7-57.4 137.4 0 0-27-10.5-48.6-58.1-3.2-6.9-.6-15 5.9-18.9" style="fill:url(#o)"/><path d="M1499.5 2579.7h-.2l-91.8-.9c-13.1 0-24-9.1-25.2-21l-8-77c-.5-4.5.9-9 3.9-12.6 3.4-4 8.5-6.5 14-6.9 7.8-.5 18.7-1.4 30.2-2.4 24.3-2.1 54.5-4.7 71.5-4.9h.4c12 0 22.4 7.4 25.3 18 4.8 17.7 4.4 51.1 3.4 86.8-.2 11.6-10.8 21-23.5 21m-106.8-111.4a13 13 0 0 0-9.1 4.5 10 10 0 0 0-2.4 7.3l8.1 77c.9 8.3 8.7 14.6 18.3 14.7l91.8.9h.1c9 0 16.3-6.3 16.5-14 .9-35.2 1.3-68.1-3.2-84.9-2-7.5-10-12.9-18.8-12.7-16.8.2-46.8 2.7-71 4.8-11.6 1-22.5 2-30.3 2.4" style="fill:#fff"/><path d="M1402.6 2476.3c19.3-1.3 61.2-5.6 81-5.8 8.5-.1 15.9 5 17.9 12.3 3.8 14.1 3.3 42.4 2.6 68.5-.2 7.8-7.4 14-16.1 14l-73.4-.7c-9-.1-16.5-6.2-17.3-14.3l-6.5-61.5c-.7-6.4 4.6-12 11.8-12.5" style="opacity:.6;fill:#fff"/><g style="opacity:.6"><path d="M1580.2 2528.6c2.6 10 11.8 17 22.2 17l849.4-7.3a17.2 17.2 0 0 0 0-34.5l-849.5-3.8c-15-.1-26 14-22.1 28.6" style="fill:#fff"/></g><linearGradient id="p" x1="1834" x2="1217.2" y1="1961.7" y2="2821.7" gradientUnits="userSpaceOnUse"><stop offset="0" style="stop-color:#3b82f6"/><stop offset="1" style="stop-color:#2563eb"/></linearGradient><path d="M1406.5 2488.4a14 14 0 0 1 19.4 5.3l18.1 32.4c1.9 3.3 6.6 3 8.1-.3l45-100c2.2-5 9.6-3.3 9.5 2.1-.4 30.6-8.6 88.8-57.4 137.4 0 0-27-10.4-48.6-58-3.2-7-.6-15.1 5.9-19" style="fill:url(#p)"/><path d="M1499.5 2776.5h-.2l-91.8-.9c-13.1-.1-24-9.1-25.2-21l-8-77c-.5-4.5.9-9 3.9-12.6 3.4-4 8.5-6.6 14-7 7.8-.5 18.7-1.4 30.2-2.4 24.3-2 54.5-4.6 71.5-4.8h.4c12 0 22.4 7.3 25.3 18 4.8 17.6 4.4 51.1 3.4 86.8-.2 11.5-10.8 20.9-23.5 20.9M1392.7 2665a13 13 0 0 0-9.1 4.4 10 10 0 0 0-2.4 7.4l8.1 77c.9 8.3 8.7 14.6 18.3 14.7l91.8.8h.1c9 0 16.3-6.2 16.5-14 .9-35.1 1.3-68-3.2-84.8-2-7.5-10-13-18.8-12.8-16.8.2-46.8 2.8-71 4.9-11.6 1-22.5 1.9-30.3 2.4" style="fill:#fff"/><path d="M1402.6 2673c19.3-1.3 61.2-5.5 81-5.8 8.5 0 15.9 5 17.9 12.3 3.8 14.2 3.3 42.5 2.6 68.6-.2 7.8-7.4 14-16.1 14l-73.4-.8c-9 0-16.5-6.2-17.3-14.2l-6.5-61.6c-.7-6.3 4.6-12 11.8-12.4" style="opacity:.6;fill:#fff"/><g style="opacity:.6"><path d="M1580.2 2725.3c2.6 10.1 11.8 17.1 22.2 17l849.4-7.2a17.2 17.2 0 0 0 0-34.5l-849.5-3.9c-15 0-26 14.1-22.1 28.6" style="fill:#fff"/></g><linearGradient id="q" x1="1933.5" x2="1464.7" y1="1865" y2="2665.1" gradientUnits="userSpaceOnUse"><stop offset="0" style="stop-color:#3b82f6"/><stop offset="1" style="stop-color:#2563eb"/></linearGradient><path d="M1406.5 2685.1a14 14 0 0 1 19.4 5.3l18.1 32.5c1.9 3.2 6.6 3 8.1-.4l45-100c2.2-5 9.6-3.3 9.5 2.2-.4 30.6-8.6 88.7-57.4 137.4 0 0-27-10.5-48.6-58.1-3.2-6.9-.6-15 5.9-18.9" style="fill:url(#q)"/><linearGradient id="r" x1="2084.9" x2="1492.7" y1="463.8" y2="1242.8" gradientUnits="userSpaceOnUse"><stop offset="0" style="stop-color:#1e3a8a"/><stop offset="1" style="stop-color:#172554"/></linearGradient><path d="M1941.2 656c-46.5-32.3-86.9-31.7-115.4-23.3a57 57 0 0 0-40.3 59.7l12.3 134 146 13s88.6-120-2.6-183.4M1877 764.1a36.4 36.4 0 1 1 0-72.8 36.4 36.4 0 0 1 0 72.8" style="fill:url(#r)"/><path d="M1812.4 770a3.5 3.5 0 0 1-3.5-3.2l-2-21.3a3.5 3.5 0 1 1 7-.7l2 21.4a3.5 3.5 0 0 1-3.5 3.8m-3.9-41.8a3.5 3.5 0 0 1-3.5-3.2l-1.4-16.2a54 54 0 0 1 38.4-56.9q26.3-7.7 53.4-2.2a3.5 3.5 0 1 1-1.5 7 102 102 0 0 0-50 2 47 47 0 0 0-33.3 49.4l1.5 16.2a3.5 3.5 0 0 1-3.6 3.9" style="fill:#fff"/><linearGradient id="s" x1="2149.8" x2="1557.7" y1="513.2" y2="1292.2" gradientUnits="userSpaceOnUse"><stop offset="0" style="stop-color:#1e3a8a"/><stop offset="1" style="stop-color:#172554"/></linearGradient><path d="M1598.4 913v-67.4a41 41 0 0 1 42.5-41l464.5 15.8a40 40 0 0 1 38.5 37.6l3.9 64.7z" style="fill:url(#s)"/><path d="M1771.6 829.9h-20a3.5 3.5 0 1 1 0-7h20a3.5 3.5 0 1 1 0 7M1623.6 891.8c-2 0-3.6-1.6-3.6-3.5V861c0-21 17.2-38.2 38.2-38.2h73.5a3.5 3.5 0 1 1 0 7h-73.5c-17.1 0-31.1 14-31.1 31.2v27.3c0 2-1.6 3.5-3.5 3.5" style="fill:#fff"/><linearGradient id="t" x1="1984.7" x2="2502.2" y1="1417" y2="678.2" gradientUnits="userSpaceOnUse"><stop offset="0" style="stop-color:#ff928e"/><stop offset="1" style="stop-color:#fe7062"/></linearGradient><path d="m2270.7 1353-109.3-89.2-109.3 89.2a1873 1873 0 0 0 1.5-372.9 14 14 0 0 1 13.8-15.1h190.2c7.4 0 13.5 5.7 13.9 13a3462 3462 0 0 1-.8 375" style="fill:url(#t)"/><linearGradient id="u" x1="2075.2" x2="1666.3" y1="560.9" y2="1311.6" gradientUnits="userSpaceOnUse"><stop offset="0" style="stop-color:#3b82f6"/><stop offset="1" style="stop-color:#2563eb"/></linearGradient><path d="M1409.2 930a44 44 0 0 1 43.7-41.7H2265a60 60 0 0 1 59.2 49.8l.7 4a51.6 51.6 0 0 1-50.8 60.3h-833.2c-19.2 0-34.4-16-33.5-35.1z" style="fill:url(#u)"/><linearGradient id="v" x1="-883.3" x2="-700.6" y1="3141.4" y2="3141.4" gradientTransform="matrix(-1 0 0 1 2012.4 0)" gradientUnits="userSpaceOnUse"><stop offset="0" style="stop-color:#090056"/><stop offset="1" style="stop-color:#020039"/></linearGradient><path d="M2827 3178.2c-42.5 2-83.7.7-111.2-.7 25-17.8 82.7-56.6 131-72l33-2s11.3 17 15.3 56.1c-5.5 6.9-21.5 16.4-68 18.6" style="fill:url(#v)"/><linearGradient id="w" x1="2574.6" x2="2955.3" y1="2908.9" y2="3345.7" gradientUnits="userSpaceOnUse"><stop offset="0" style="stop-color:#090056"/><stop offset="1" style="stop-color:#020039"/></linearGradient><path d="m2715.5 3177.7.3-.2a1179 1179 0 0 0 111.2.7c46.6-2.2 62.6-11.7 68.1-18.6l.5 5.5c.7 8.6-5.6 16.1-14.2 16.8-34.8 2.6-121.2 8.6-162.9 6.4a5.8 5.8 0 0 1-3-10.6" style="fill:url(#w)"/><linearGradient id="x" x1="-1204.3" x2="-1118.7" y1="3141.8" y2="3141.8" gradientTransform="matrix(-1 0 0 1 2012.4 0)" gradientUnits="userSpaceOnUse"><stop offset="0" style="stop-color:#090056"/><stop offset="1" style="stop-color:#020039"/></linearGradient><path d="M3131.3 3166.8c3.1-20 8.1-48.8 12-56.2 6-11.6 26.8 0 26.8 0s14.5 6.8 21.2 18l24 41.7q1.5 2.4 1.3 5l-83 2.9q-3.2-5-2.3-11.4" style="fill:url(#x)"/><linearGradient id="y" x1="2783.2" x2="3163.8" y1="2727.1" y2="3163.9" gradientUnits="userSpaceOnUse"><stop offset="0" style="stop-color:#090056"/><stop offset="1" style="stop-color:#020039"/></linearGradient><path d="M3216.6 3175.3c0 4.7-3.9 9-9.2 9.2l-59 1.6c-6.3.2-11.8-3-14.8-8z" style="fill:url(#y)"/><linearGradient id="z" x1="-1168.1" x2="-1112.6" y1="3082.8" y2="3082.8" gradientTransform="matrix(-1 0 0 1 2012.4 0)" gradientUnits="userSpaceOnUse"><stop offset="0" style="stop-color:#febbba"/><stop offset="1" style="stop-color:#ff928e"/></linearGradient><path d="M3125 3044.2c.7 2.4 11.4 54.4 16.1 77.2a13 13 0 0 0 13.4 10.4q5.3-.3 11.9-1c7.6-1 13.4-7.4 13.7-15 .7-20 1.1-58.4-6.2-73.3-10.2-20.5-49 1.7-49 1.7" style="fill:url(#z)"/><linearGradient id="A" x1="-874" x2="-827.8" y1="3079.2" y2="3079.2" gradientTransform="matrix(-1 0 0 1 2012.4 0)" gradientUnits="userSpaceOnUse"><stop offset="0" style="stop-color:#febbba"/><stop offset="1" style="stop-color:#ff928e"/></linearGradient><path d="M2886.4 3059c-4.6 0 1.8 23.8-5.1 47.3-1.6 5.3-5.5 9.5-11 9.6q-5.7.1-12.2-.4a13 13 0 0 1-12.3-12l-5.7-61z" style="fill:url(#A)"/><linearGradient id="B" x1="4069.4" x2="3019.5" y1="3314.7" y2="2785.8" gradientUnits="userSpaceOnUse"><stop offset="0" style="stop-color:#090056"/><stop offset="1" style="stop-color:#020039"/></linearGradient><path d="M2757.7 2411.4c2 10 74.6 432.7 79 651.5 0 3.7 2.7 6.7 6.4 7.2 9.2 1.3 27 3 44.5-.2a5 5 0 0 0 4.3-4.9c2.5-40.7 22.9-385.4-2-547.6 0 0 206 433.7 237.2 553.3.8 2.9 3.5 4.8 6.5 4.7 8.8-.5 27.2-2 41.7-7.4a11 11 0 0 0 7-12.9c-17.5-71.5-139.9-564.6-222.9-673.3z" style="fill:url(#B)"/><linearGradient id="C" x1="-759" x2="-948.3" y1="2367.9" y2="2612.7" gradientTransform="matrix(-1 0 0 1 2012.4 0)" gradientUnits="userSpaceOnUse"><stop offset="0" style="stop-color:#cb236d"/><stop offset="1" style="stop-color:#4c246d"/></linearGradient><path d="M2889.8 2520q1 0 2-.7c1-1 1-2.8 0-3.8l-27.6-28.2a2.7 2.7 0 1 0-3.9 3.7l27.6 28.3q.8.8 2 .8" style="fill:url(#C)"/><linearGradient id="D" x1="2591.1" x2="3262.3" y1="1581.9" y2="2842.2" gradientUnits="userSpaceOnUse"><stop offset="0" style="stop-color:#3b82f6"/><stop offset="1" style="stop-color:#2563eb"/></linearGradient><path d="M2688 1865.9c61.7-9.3 182.7-22.6 261.6.6l-8.6 244-285.9-30.9-24.3-34.5s11.3-172.3 57.2-179.2" style="fill:url(#D)"/><linearGradient id="E" x1="-534.8" x2="-513.1" y1="1799.8" y2="1666.4" gradientTransform="rotate(-173.9 1227.2 -32)scale(1 -1)" gradientUnits="userSpaceOnUse"><stop offset="0" style="stop-color:#febbba"/><stop offset="1" style="stop-color:#ff928e"/></linearGradient><path d="M2830.5 1735.3s5.7 97 4.6 127.2c0 0-79.5 13-98.4-.6l15-115z" style="fill:url(#E)"/><linearGradient id="F" x1="-463.4" x2="-610.9" y1="1581.1" y2="1693.9" gradientTransform="rotate(-173.9 1227.2 -32)scale(1 -1)" gradientUnits="userSpaceOnUse"><stop offset="0" style="stop-color:#febbba"/><stop offset="1" style="stop-color:#ff928e"/></linearGradient><path d="M2753.2 1638.1s-32 56.2-37 86.9-13.9 50 21.2 60.1c35 10.1 67.1-4.5 86.7-33.5 0 0 30.7-44.7 27-64.7-3.6-20.1-97.9-48.8-97.9-48.8" style="fill:url(#F)"/><linearGradient id="G" x1="2705.3" x2="3073.7" y1="1645.1" y2="1745.1" gradientUnits="userSpaceOnUse"><stop offset="0" style="stop-color:#090056"/><stop offset="1" style="stop-color:#020039"/></linearGradient><path d="m2814.3 1728.2-4.5-.5s22.7-36.2 7-44.7-79-28.7-90.4-53.2c-11.1-23.6 4-51 22.8-57 1.2-.4 2.5.3 3 1.5l1.1 3c.9 2 3.7 2 4.6 0s3.5-2.1 4.4-.2c3.5 7.3 14 19.7 44.4 28.8 43.2 13 70.5 33.9 67.9 64.5-.2 1.9 1.8 3.2 3.5 2.4 3.5-1.7 8.8-2 15.2 4.6 11 11.4 3.2 37.3-25.7 56.2-1.4.9-1.6 2.9-.3 3.9 4.4 3.7 10.8 11.9-8.8 19.8-20.2 8.1-31.3 5.8-35.4 4.3a2.4 2.4 0 0 1-1.6-2.7l4.6-26.9c.2-1.4-.8-2.7-2.2-2.8z" style="fill:url(#G)"/><linearGradient id="H" x1="-481.7" x2="-629.1" y1="1557.3" y2="1670.1" gradientTransform="rotate(-173.9 1227.2 -32)scale(1 -1)" gradientUnits="userSpaceOnUse"><stop offset="0" style="stop-color:#febbba"/><stop offset="1" style="stop-color:#ff928e"/></linearGradient><path d="M2812.6 1733.7s13.8-36.6 29.6-24.2c15.7 12.3-13.3 41.2-27 41.1z" style="fill:url(#H)"/><linearGradient id="I" x1="4241.9" x2="3290.1" y1="4640.4" y2="5890" gradientTransform="rotate(-79.3 1597.8 4228.5)" gradientUnits="userSpaceOnUse"><stop offset="0" style="stop-color:#ff928e"/><stop offset="1" style="stop-color:#fe7062"/></linearGradient><path d="m2470 2056.7 7.7-29.8a28.5 28.5 0 0 1 33.3-20.9l714.1 145.7a30 30 0 0 1 23.3 35.5l-43.5 206.4z" style="fill:url(#I)"/><path d="m2402.4 2418.7 53.7-386c1-8 8.8-13.3 16.6-11.6l733.5 163a29 29 0 0 1 21.9 34.6l-61.6 266.8z" style="fill:#fff"/><path d="m2421.7 2401.3 20.6-344.6c.5-8.9 8.8-15.2 17.5-13.3l741.2 156.8a20 20 0 0 1 15.7 22.8l-39.5 248.9z" style="fill:#fff"/><linearGradient id="J" x1="2431.7" x2="3068.5" y1="1876" y2="2728.5" gradientUnits="userSpaceOnUse"><stop offset="0" style="stop-color:#ff928e"/><stop offset="1" style="stop-color:#fe7062"/></linearGradient><path d="m2368 2482.7 46.7-373.2a32.5 32.5 0 0 1 38.3-28l760 143.5a28.4 28.4 0 0 1 22.7 33.2l-64.2 340.1c-3 16-18.1 27-34.3 24.8l-736.8-98.4a37.6 37.6 0 0 1-32.3-42" style="fill:url(#J)"/><linearGradient id="K" x1="2431.7" x2="3068.5" y1="1876" y2="2728.5" gradientUnits="userSpaceOnUse"><stop offset="0" style="stop-color:#ff928e"/><stop offset="1" style="stop-color:#fe7062"/></linearGradient><path d="M2720.4 2132a29 29 0 0 1-34 23.3l-169.5-32a29.2 29.2 0 1 1 10.8-57.3l169.5 32a29 29 0 0 1 23.2 34" style="fill:url(#K)"/><linearGradient id="L" x1="2707.6" x2="3378.8" y1="1519.9" y2="2780.2" gradientUnits="userSpaceOnUse"><stop offset="0" style="stop-color:#3b82f6"/><stop offset="1" style="stop-color:#2563eb"/></linearGradient><path d="m2869.8 1972.9 79.8-106.4s128.2 136.2 152.8 309l-80 39c-24.8-58.2-70.5-137-152.6-241.6" style="fill:url(#L)"/><linearGradient id="M" x1="2973.6" x2="3196" y1="2417" y2="2097.3" gradientUnits="userSpaceOnUse"><stop offset="0" style="stop-color:#febbba"/><stop offset="1" style="stop-color:#ff928e"/></linearGradient><path d="M2984.1 2452c9.5-15.8 28-45.9 36.9-55.3 0 0-8.2-5.1-24-3.2-15.7 2-28-5.8-27.5-14.3l75-23c3.4-7.1 18.3-47-22-141.7l79.9-39c9.2 64.7 3.9 134.5-28.1 204.2 0 0-24.8 77.1-53.4 94.3-74.4 44.6-40.4-15.9-36.8-22" style="fill:url(#M)"/><path d="m1075 1451.5-15.8 20a3.3 3.3 0 1 1-5.3-4.2l16.4-19.7a3 3 0 0 1 4.7 3.8zM1021.7 1524.1l-26.7 42.6-.1.2a4.6 4.6 0 1 1-7.8-4.9l27.8-42.5a4.1 4.1 0 0 1 7 4.4zM964 1623.4l-21.4 45.4-.2.3a5.6 5.6 0 0 1-10.2-4.8v-.1l22.6-45.6a5.2 5.2 0 0 1 9.3 4.5zM918.7 1728.8l-15.5 47.6-.1.4a6.7 6.7 0 1 1-12.7-4.1v-.2l16.7-48a6.2 6.2 0 0 1 11.7 4zM887.2 1838.8l-9.3 49.2-.1.5a7.4 7.4 0 0 1-14.6-2.8l10-50a7.1 7.1 0 0 1 14 2.7zM870.3 1952l-2.4 49.9v.5a8 8 0 1 1-16.1-.8v-.1l3-50.9a7.8 7.8 0 0 1 15.5.9zM869.1 2066.2l4.5 49.8v.5a8.7 8.7 0 1 1-17.3 1.5l-4-51a8.4 8.4 0 0 1 16.8-1.3zM883.7 2179.4l11.1 48.7.2.6a9.3 9.3 0 1 1-18.2 4.1l-10.9-50a9 9 0 0 1 17.6-3.9zM913.4 2289.6l17.5 46.8.2.5a9.8 9.8 0 1 1-18.3 6.9l-17.7-48a9.6 9.6 0 1 1 18.1-6.7zM957.2 2395l23.3 44.2.3.5a10 10 0 0 1-17.7 9.3l-23.7-45.3a9.9 9.9 0 0 1 17.5-9.2zM1014 2494l28.7 40.8.4.5a10.2 10.2 0 1 1-16.7 11.7l-29.2-42a10 10 0 1 1 16.5-11.5zM1082.8 2585l33.6 37 .4.4a10.4 10.4 0 1 1-15.4 14l-34.2-38a10.3 10.3 0 0 1 15.3-13.8zM1162.5 2666.6l38.1 32.2.5.4a10.6 10.6 0 0 1-13.7 16.2l-39-33.2a10.5 10.5 0 0 1 13.7-16zM1252.3 2736.6l21.1 13.2 10.6 6.5q5.2 3.4 10.6 6.5a10.8 10.8 0 0 1-10.5 19l-.3-.2q-5.5-3.3-11-6.7l-10.8-6.9-21.7-13.6a10.7 10.7 0 1 1 11.4-18.1zM1351.5 2792q22.5 10.3 45.9 19a10.9 10.9 0 0 1-7.7 20.4q-24-9-47.3-19.6a11 11 0 0 1 9-19.9M1458.2 2831l48.3 12 .7.2a10.7 10.7 0 0 1-5.2 20.8l-49.7-12.2a10.8 10.8 0 1 1 5.2-21zM1569.7 2854l49.6 5.3h.6a10.6 10.6 0 0 1-2.2 21l-50.9-5.2a10.6 10.6 0 1 1 2.2-21.2zM1683.4 2862.1l50-.8h.5a10.1 10.1 0 0 1 .4 20.3l-51 1.2a10.3 10.3 0 1 1-.5-20.6zM1797.5 2856.6l49.6-6.4h.5a9.7 9.7 0 0 1 2.6 19.1l-50.5 7a9.9 9.9 0 0 1-2.7-19.6zM1910.5 2838.8l48.8-11.4.4-.1a8.8 8.8 0 0 1 4.1 17.2l-49.4 12.2a9.2 9.2 0 1 1-4.4-17.8zM2021.3 2809.7l47.6-16 .3-.1a8 8 0 0 1 5.2 15l-48 17a8.4 8.4 0 1 1-5.5-15.7zM2129 2770.3l46-20.2.2-.1a7.1 7.1 0 0 1 5.9 13l-46.2 21.1a7.5 7.5 0 1 1-6.2-13.6zM2233 2721.7l44.3-24h.2a5.8 5.8 0 0 1 5.6 10.2l-44 25.2a6.5 6.5 0 0 1-6.4-11.2l.1-.1zM2332.9 2664.7l42.2-27.5h.1a4.4 4.4 0 0 1 5 7.3l-41.9 28.7a5 5 0 0 1-5.7-8.3l.1-.1zM2428.2 2599.8l20.4-15.2a3 3 0 0 1 3.8 4.8l-20 16a3.5 3.5 0 1 1-4.2-5.5" style="fill:#fff"/></svg>