<svg xmlns="http://www.w3.org/2000/svg" xmlns:xlink="http://www.w3.org/1999/xlink" xml:space="preserve" viewBox="0 0 2475 1650"><linearGradient id="a" x1="-1585" x2="658" y1="3445.6" y2="3445.6" gradientTransform="matrix(-1 0 0 -1 774 4250)" gradientUnits="userSpaceOnUse"><stop offset="0" style="stop-color:#dbeafe"/><stop offset="1" style="stop-color:#eff6ff"/></linearGradient><path d="M141 750.2c26 46 67.4 84.7 99.3 127.8 92 124.4-3.8 270 38.3 404 36.6 117 188.8 148.2 300.2 153 187.5 8 374.9-4 555.7-54.9 125.5-35.3 251.1-81.5 383.4-84.3 135.2-2.8 262.4 51.4 393 77.1 143.4 28.2 315-2.4 349.6-162.6 21.4-99.2-36.3-190.6-41.7-288.3-7.1-129.3 121.8-200.3 138.5-321.2 10.5-76.3-28.8-144.4-80-199.5-54.2-58.2-127-109.6-210.4-114.4-87.3-5-165.1 40.8-246.7 62.7C1591 411 1460.9 206 1250 177.4c-95.1-12.9-212-6.7-298.4 37.5-80.3 41.2-119.2 132.7-209.3 159.5C646.9 403 559.7 346.1 469 328a242 242 0 0 0-241.2 87.7C171 486.5 109.5 579.9 116.5 673.5a182 182 0 0 0 24.5 76.7" style="fill:url(#a)"/><path d="M714.8 1407c-55.9 11-127.3-49.9-150.3-116.5-23.6-68.5 19.8-97.2 19.4-192.3-.4-108-56.6-124.3-93.7-270-8.4-32.8-57-222.9 3.2-258.5 55.6-33 211.8 61.6 239.2 182.6 19.5 86.3-40.8 122.6-17.8 223 20.3 88.3 73.4 89.5 93.8 174.6 24.8 103.6-20.3 242.3-93.8 257" style="fill:#93c5fd"/><path d="M710.8 1433c15-116.3-14.4-295.9-41.7-426a3810 3810 0 0 0-63.5-257l-4.6 1.4c.3 1.1 33.9 116 63.4 256.6 27.2 129.8 56.6 308.8 41.6 424.5z" style="fill:#60a5fa"/><path d="M650.5 1394c73.3-38.3 98.4-169.5 56.7-212.2-28.2-28.8-68.6 1.5-107.5-28.3-49.8-38.2-13.2-110-52.3-203.2C514 871.1 434.2 796 387.6 811.4c-48.9 16.1-74.6 135.7-32.9 207.6 27.2 46.8 68.7 49.1 77.7 92.6 10.4 50.5-40 73.6-40.3 122.5-.5 88 161.3 210.4 258.4 159.8" style="fill:#bfdbfe"/><path d="m610.9 1427.5 1.3-.3a3 3 0 0 0 1.4-4c-97.3-200.3-125.8-432.7-126-435a3 3 0 1 0-6 .6c.3 2.4 29 235.8 126.6 437a3 3 0 0 0 2.7 1.7" style="fill:#93c5fd"/><path d="M411.4 1048.3a1.4 1.4 0 0 0 1.1-2.3c-30.7-39.4-64.7-98.6-52.4-156.8a102 102 0 0 1 28-53 1.4 1.4 0 1 0-1.9-2.1c-.9.7-21.4 18.9-29 54.5-6.8 32.7-3.2 87 53 159.2q.5.5 1.2.5" style="fill:#dce5fe"/><path d="M657 1376.4q.8 0 1.2-.6c47.2-68.8 63.3-122 47.8-158-13.7-32.1-48.4-38.1-48.7-38.2a1.4 1.4 0 0 0-.5 2.9c.4 0 33.5 5.8 46.6 36.4 15 35-1 87.3-47.5 155.3a1.4 1.4 0 0 0 1.2 2.2" style="fill:#f0f0f0"/><path d="M1772.2 1407c55.9 11 127.3-49.9 150.3-116.5 23.7-68.5-19.7-97.2-19.4-192.3.4-108 56.6-124.3 93.8-270 8.3-32.8 56.9-222.9-3.3-258.5-55.6-33-211.8 61.6-239.2 182.6-19.5 86.3 40.8 122.6 17.8 223-20.2 88.3-73.4 89.5-93.8 174.6-24.7 103.6 20.4 242.3 93.8 257" style="fill:#93c5fd"/><path d="M1776.2 1433c-15-116.3 14.4-295.9 41.7-426a3810 3810 0 0 1 63.5-257l4.6 1.4c-.3 1.1-33.8 116-63.4 256.6-27.2 129.8-56.5 308.8-41.5 424.5z" style="fill:#60a5fa"/><path d="M1836.6 1394c-73.4-38.3-98.5-169.5-56.8-212.2 28.2-28.8 68.6 1.5 107.6-28.3 49.7-38.2 13.1-110 52.2-203.2 33.3-79.2 113.2-154.3 159.8-138.9 48.9 16.1 74.6 135.7 32.9 207.6-27.1 46.8-68.7 49.1-77.7 92.6-10.4 50.5 40 73.6 40.4 122.5.5 88-161.4 210.4-258.4 159.8" style="fill:#bfdbfe"/><path d="m1876.2 1427.5-1.3-.3a3 3 0 0 1-1.4-4c97.2-200.3 125.7-432.7 126-435a3 3 0 1 1 6 .6c-.4 2.4-29 235.8-126.7 437a3 3 0 0 1-2.6 1.7" style="fill:#93c5fd"/><path d="M2075.6 1048.3a1.4 1.4 0 0 1-1-2.3c30.6-39.4 64.6-98.6 52.4-156.8a102 102 0 0 0-28-53 1.4 1.4 0 1 1 1.8-2.1c.9.7 21.5 18.9 29 54.5 6.9 32.7 3.2 87-53 159.2q-.5.5-1.2.5" style="fill:#dce5fe"/><path d="M1830 1376.4q-.8 0-1.2-.6c-47.2-68.8-63.3-122-47.8-158 13.7-32.1 48.4-38.1 48.7-38.2a1.4 1.4 0 0 1 .5 2.9c-.3 0-33.5 5.8-46.6 36.4-15 35 1 87.3 47.5 155.3a1.4 1.4 0 0 1-1.1 2.2" style="fill:#f0f0f0"/><linearGradient id="b" x1="1214" x2="1275.5" y1="474.8" y2="1934.8" gradientUnits="userSpaceOnUse"><stop offset="0" style="stop-color:#fe7062"/><stop offset="1" style="stop-color:#ff928e"/></linearGradient><path d="M634 724.7v613.4c0 45.2 39.6 81.8 88.5 81.8h1030c49 0 88.6-36.6 88.6-81.8V724.7z" style="fill:url(#b)"/><linearGradient id="c" x1="1213.5" x2="1272.9" y1="154.9" y2="1566.9" gradientUnits="userSpaceOnUse"><stop offset="0" style="stop-color:#e1473d"/><stop offset="1" style="stop-color:#e9605a"/></linearGradient><path d="M1540 542 1278 383.8a77 77 0 0 0-81.2 0L935.1 542 632.7 725 935 907.4l302.4 182.5 302.4-182.7L1842.3 725z" style="fill:url(#c)"/><path d="M657.6 1393.4q-.8 0-1.4-.6c-1-.7-1-2-.2-3l377.2-424.3a2.1 2.1 0 1 1 3.1 2.8l-377.2 424.4q-.7.7-1.5.7M1817.4 1393.4q-.8 0-1.5-.7l-377.2-424.4a2.1 2.1 0 1 1 3.1-2.8l377.2 424.3a2.1 2.1 0 0 1-1.6 3.6" style="fill:#fff"/><linearGradient id="d" x1="1366.5" x2="1877.1" y1="822.8" y2="1338.3" gradientUnits="userSpaceOnUse"><stop offset="0" style="stop-color:#1e3a8a"/><stop offset="1" style="stop-color:#1e40af"/></linearGradient><path d="M1635.4 1103.4s-12.4-15 4.5-24.1 43.4.9 46.8 20.4c3.4 19.6 20.1 8 27.5 3.7s27.8-10.1 33 12.2c2 8.8-.6 20.1 3.2 28.3 5.3 11.3 22.5 8.4 31.9 12.7 12.2 5.7 18.5 16.5 12.2 29.2-9.8 19.6-29 32-18.6 49s-31.5 55.2-45.8 19.7c-14.4-35.4-36.7-29.4-54.7-31.6s-27.2-17.8-22.3-33.7-1.5-25.4-8.2-32c-6.8-6.8-29.4-35.8-9.5-53.8" style="fill:url(#d)"/><linearGradient id="e" x1="1634" x2="1601.3" y1="1454.3" y2="1306.3" gradientUnits="userSpaceOnUse"><stop offset="0" style="stop-color:#ff928e"/><stop offset="1" style="stop-color:#feb3b1"/></linearGradient><path d="M1609.2 1293.5s-13.5 2-28.8 12.2a8 8 0 0 0-3.3 7.3c1.8 14.5 9.3 61.3 34 107q2 3.8 1.2 8l-4.4 20-8 7.4h20.6l13.7-37-5.8-1.8a11 11 0 0 1-7.8-10.4l-.7-39.7c.6-17.7-10.8-30-10.8-30l32.8-1.5z" style="fill:url(#e)"/><linearGradient id="f" x1="5435.6" x2="5445" y1="445.2" y2="527" gradientTransform="translate(-3934)" gradientUnits="userSpaceOnUse"><stop offset="0" style="stop-color:#2563eb"/><stop offset="1" style="stop-color:#3b82f6"/></linearGradient><path d="M1592 1459c-2 2.5 20 5.7 31.2.4 0 0 15.4-26.9 15.4-40.7 0 0-1.2-2.8-10.2-2.1 0 0-5.2 31.7-10.7 35.3s-15.3.3-15.3.3-7.7 3.2-10.5 6.8" style="fill:url(#f)"/><linearGradient id="g" x1="1691.4" x2="1614.7" y1="1099.7" y2="1286.4" gradientUnits="userSpaceOnUse"><stop offset="0" style="stop-color:#ff928e"/><stop offset="1" style="stop-color:#feb3b1"/></linearGradient><path d="M1637.7 1337.2c-.1-.3-35.3-4.3-35.3-4.3s1.2 10.7-2.4 25.4-55.2 78.5-55.2 78.5l5.4 17.2a87 87 0 0 1-49.4 3l33.5-20.2s31.4-107 50.6-126l35.3-12.2z" style="fill:url(#g)"/><linearGradient id="h" x1="847.1" x2="926.6" y1="1293.4" y2="1448.8" gradientTransform="translate(808.2)" gradientUnits="userSpaceOnUse"><stop offset="0" style="stop-color:#1e3a8a"/><stop offset="1" style="stop-color:#1e40af"/></linearGradient><path d="M1716.6 1275s20.2 30 22 43.8c1.6 13.7-5.6 19.3-26.9 20.2-21.2 1-78 1-78 1l-48.4-41.5s35.3-12.5 44.5-16.1c9.1-3.6 86.8-7.5 86.8-7.5" style="fill:url(#h)"/><linearGradient id="i" x1="5340.6" x2="5349.9" y1="456.1" y2="537.9" gradientTransform="translate(-3934)" gradientUnits="userSpaceOnUse"><stop offset="0" style="stop-color:#2563eb"/><stop offset="1" style="stop-color:#3b82f6"/></linearGradient><path d="M1548.1 1448.2s5.9 5.6 2 11.9c0 0-46.2 8.2-58.8 4.5 0 0 2.6-6 16.7-12.7l-1 .8c-1.3 1-.5 3 1.1 3 9.3-.5 28.6-2.2 40-7.5" style="fill:url(#i)"/><linearGradient id="j" x1="5586.8" x2="5659.6" y1="1180.4" y2="1338.8" gradientTransform="translate(-3934)" gradientUnits="userSpaceOnUse"><stop offset="0" style="stop-color:#2563eb"/><stop offset="1" style="stop-color:#3b82f6"/></linearGradient><path d="M1661.8 1271s-23.6-22.5-35.2-37.4c-6.3-8-8.2-18.6-5.3-28.4 5.3-17.9 14.7-36.4 15.6-39.3 1.3-4.4 27.7-4.2 27.7-4.2s52 33.8 72.5 91l-23 7.2s-13.5-22.8-27-37.3c0 0 23.3 30.7 24 43.2z" style="fill:url(#j)"/><linearGradient id="k" x1="1635.5" x2="1668.2" y1="1122.6" y2="1202.6" gradientUnits="userSpaceOnUse"><stop offset="0" style="stop-color:#ff928e"/><stop offset="1" style="stop-color:#feb3b1"/></linearGradient><path d="M1633.7 1141.3c.2.9 7.1 23.8 7.7 24.3.5.4 15.1 1.2 22-3.5l-11.7-24.4z" style="fill:url(#k)"/><linearGradient id="l" x1="1663.9" x2="1715.2" y1="1525" y2="1519.7" gradientTransform="translate(-3934)" gradientUnits="userSpaceOnUse"><stop offset="0" style="stop-color:#ff928e"/><stop offset="1" style="stop-color:#feb3b1"/></linearGradient><path d="M1645 1093.2s-12.5 5.3-21 23.3-2 26.3 5.9 27.5 19.8 1 32.4-10.7-1.1-46.3-17.3-40" style="fill:url(#l)"/><linearGradient id="m" x1="1373.6" x2="1884.3" y1="815.7" y2="1331.2" gradientUnits="userSpaceOnUse"><stop offset="0" style="stop-color:#1e3a8a"/><stop offset="1" style="stop-color:#1e40af"/></linearGradient><path d="M1653.8 1123.7s9.4-26.4-14-26.7l-5.4 3.9s-8.6-14.6 5.5-21.6 35-.8 41 18.2 2.5 31.2-7.5 40.2-14-1.2-14-1.2 5.4-8.5 3.2-13-7.3 1-7.3 1z" style="fill:url(#m)"/><linearGradient id="n" x1="1664.9" x2="1716.2" y1="1534.3" y2="1529" gradientTransform="translate(-3934)" gradientUnits="userSpaceOnUse"><stop offset="0" style="stop-color:#ff928e"/><stop offset="1" style="stop-color:#feb3b1"/></linearGradient><path d="M1651.3 1127.9s4.8-13.6 11.1-8.2c6.4 5.4-5.1 12.6-9.6 14.9z" style="fill:url(#n)"/><linearGradient id="o" x1="1813.9" x2="1656.6" y1="1277.7" y2="1263.7" gradientUnits="userSpaceOnUse"><stop offset="0" style="stop-color:#ff928e"/><stop offset="1" style="stop-color:#feb3b1"/></linearGradient><path d="m1613.8 1272.6 17.3-16.7 24 10.1s23.8 3.7 37.5 0l13.6-3.7 31-9.6 4.8 13.7c1.2 3.5 0 7.3-3 9.5-2.7 1.9-5.9 4-7.9 4.8-4 1.8-100.1-1.2-100.1-1.2z" style="fill:url(#o)"/><path d="m1739.7 1125.3-.9-.1q1.1-9.8-3.3-13.4c-5.9-4.8-18-1-28.7 2.3-5.4 1.7-10.6 3.3-14.1 3.5q-4.2.2-6.6-2.2c-2.9-2.9-2.7-7.6-2.7-7.8h.8s-.2 4.6 2.5 7.2q2.1 2 6 2c3.4-.2 8.5-1.8 13.9-3.5 10.9-3.4 23.2-7.2 29.4-2.1q4.8 3.8 3.7 14M1765.2 1224c-2-8 3.2-14.7 9.3-22.4 4.3-5.6 9.2-12 11.9-19.5q1.9-5.5-.8-10c-5.7-9.1-24.3-11.8-24.5-11.8l.1-.8c.8.1 19.2 2.7 25 12.2a12 12 0 0 1 1 10.6 71 71 0 0 1-12 19.8c-6 7.6-11 14.1-9.2 21.7z" style="fill:#bfdbfe"/><linearGradient id="p" x1="5603.4" x2="5623.2" y1="1453.5" y2="1329.4" gradientTransform="translate(-3934)" gradientUnits="userSpaceOnUse"><stop offset="0" style="stop-color:#2563eb"/><stop offset="1" style="stop-color:#3b82f6"/></linearGradient><path d="M1672 1359.3h9.1v98.7h-9.1z" style="fill:url(#p)"/><linearGradient id="q" x1="5611.4" x2="5631.1" y1="1454.7" y2="1330.6" gradientTransform="translate(-3934)" gradientUnits="userSpaceOnUse"><stop offset="0" style="stop-color:#2563eb"/><stop offset="1" style="stop-color:#3b82f6"/></linearGradient><path d="M1716.6 1459.9h-80a6 6 0 0 1 6-6h68a6 6 0 0 1 6 6" style="fill:url(#q)"/><linearGradient id="r" x1="5596.1" x2="5615.8" y1="1452.3" y2="1328.2" gradientTransform="translate(-3934)" gradientUnits="userSpaceOnUse"><stop offset="0" style="stop-color:#2563eb"/><stop offset="1" style="stop-color:#3b82f6"/></linearGradient><path d="M1728.5 1355.8c0 5.4-4.5 9.9-9.9 9.9h-80.9a10 10 0 0 1-9.8-9.9v-8.8c0-5.4 4.4-9.8 9.8-9.8h81c5.3 0 9.8 4.4 9.8 9.8z" style="fill:url(#r)"/><linearGradient id="s" x1="5548.5" x2="5467.5" y1="1616.6" y2="1638.8" gradientTransform="rotate(-2.8 -3718.7 79369)" gradientUnits="userSpaceOnUse"><stop offset="0" style="stop-color:#1e3a8a"/><stop offset="1" style="stop-color:#1e40af"/></linearGradient><path d="M1679.3 1280.5h-.2l-100.5-.1a4.5 4.5 0 0 1 0-9H1679a4.5 4.5 0 0 1 .2 9" style="fill:url(#s)"/><linearGradient id="t" x1="1499.1" x2="1589.1" y1="1273.7" y2="1211.7" gradientUnits="userSpaceOnUse"><stop offset="0" style="stop-color:#1e3a8a"/><stop offset="1" style="stop-color:#1e40af"/></linearGradient><path d="M1488.2 1189.2h83.7a16 16 0 0 1 14.5 9.1l38.7 82.1h-104c-4 0-7.6-2.4-9-6.1l-30.1-76a6.7 6.7 0 0 1 6.2-9.1" style="fill:url(#t)"/><linearGradient id="u" x1="1391.5" x2="1819.9" y1="1289" y2="1289" gradientUnits="userSpaceOnUse"><stop offset="0" style="stop-color:#dbeafe"/><stop offset="1" style="stop-color:#eff6ff"/></linearGradient><path d="M1819.8 1284.1q.4-1.7-.8-3.2-1.3-1.4-3.2-1.4h-419.5q-2.7.1-4 2c-1.3 2-1 3-.4 4.4l4.6 9.2c1 2.1 3.3 3.5 5.8 3.5h410.6c2.3 0 4.3-1.6 4.7-3.7z" style="fill:url(#u)"/><linearGradient id="v" x1="1416.1" x2="1500.7" y1="1382.9" y2="1382.9" gradientUnits="userSpaceOnUse"><stop offset="0" style="stop-color:#dbeafe"/><stop offset="1" style="stop-color:#eff6ff"/></linearGradient><path d="M1419.8 1478.5q-.7 0-1.5-.3c-1.8-.8-2.7-3-1.9-5l77.2-183.6c.8-1.9 3-2.8 4.9-2 1.8.9 2.7 3 1.9 5l-77.2 183.6c-.6 1.5-2 2.3-3.4 2.3" style="fill:url(#v)"/><linearGradient id="w" x1="1425.9" x2="1510.4" y1="1382.9" y2="1382.9" gradientUnits="userSpaceOnUse"><stop offset="0" style="stop-color:#dbeafe"/><stop offset="1" style="stop-color:#eff6ff"/></linearGradient><path d="M1506.8 1478.5q-2.4 0-3.4-2.3l-77.2-183.6c-.8-2 0-4.1 1.9-5 1.9-.8 4 .1 4.8 2l77.2 183.7c.9 1.9 0 4-1.9 5z" style="fill:url(#w)"/><linearGradient id="x" x1="1720.1" x2="1804.7" y1="1382.9" y2="1382.9" gradientUnits="userSpaceOnUse"><stop offset="0" style="stop-color:#dbeafe"/><stop offset="1" style="stop-color:#eff6ff"/></linearGradient><path d="M1723.8 1478.5q-.8 0-1.4-.3c-1.9-.8-2.8-3-2-5l77.3-183.6c.8-1.9 3-2.8 4.8-2 1.9.9 2.7 3 2 5l-77.3 183.6c-.6 1.5-2 2.3-3.4 2.3" style="fill:url(#x)"/><linearGradient id="y" x1="1729.9" x2="1814.5" y1="1382.9" y2="1382.9" gradientUnits="userSpaceOnUse"><stop offset="0" style="stop-color:#dbeafe"/><stop offset="1" style="stop-color:#eff6ff"/></linearGradient><path d="M1810.8 1478.5q-2.3 0-3.4-2.3l-77.2-183.6c-.8-2 0-4.1 2-5 1.8-.8 4 .1 4.8 2l77.2 183.7c.8 1.9 0 4-2 5z" style="fill:url(#y)"/><defs><path id="z" d="m684 755 554.3 334.5 522.6-314.7V287.4H727.5z"/></defs><clipPath id="A"><use xlink:href="#z" style="overflow:visible"/></clipPath><g style="clip-path:url(#A)"><path d="M1613 427.9H768a28 28 0 0 0-27.2 27.8v685.7h993.4V551z" style="fill:#bfdbfe"/><path d="m1733.7 551-110.8 1q-4.4-.1-7.4-3.2c-2-2.1-2.3-5-2.3-7.8V428.7z" style="fill:#93c5fd"/><linearGradient id="B" x1="1284.2" x2="1179.3" y1="279.3" y2="1377.9" gradientUnits="userSpaceOnUse"><stop offset="0" style="stop-color:#2563eb"/><stop offset="1" style="stop-color:#3b82f6"/></linearGradient><path d="M1456.7 750.4q0 38.7-12.4 70.8a117 117 0 0 1-34.9 50.3 81 81 0 0 1-52.4 18.3q-19.9 0-35.1-9.5a55 55 0 0 1-22-25.1h-4.4a92 92 0 0 1-73.8 34.6q-47.6 0-75-28.6t-27.3-78.3q0-56.6 36-91.3t94-34.6q23 0 50.8 4.4T1346 672l-6.2 131.3q0 37.5 20.5 37.4 17.1 0 27.3-25.1t10.2-65.7q0-43.2-18-76.4c-18-33.2-28.8-39-50.6-50.6s-46.6-17.5-74.5-17.5q-54.2 0-94.2 22.3A149 149 0 0 0 1099 692a212 212 0 0 0-21.3 97.1q0 74.1 39.6 113.7t114.8 39.6q28.5 0 62.5-6.3a415 415 0 0 0 67.2-18.4v51.6a323 323 0 0 1-127.6 24.4q-102 0-159-53.7-57.2-53.7-57.2-149.3a250 250 0 0 1 29.2-120.4q29-54 83-84.9a246 246 0 0 1 123.9-30.7q59 0 105.5 24.1t71.7 68.8a205 205 0 0 1 25.3 102.8m-275 33.6q0 56.7 46.2 56.7a43 43 0 0 0 36.8-17q12.6-17.2 15.3-55.5l3.5-59.4q-13.8-3-31-3-33.5 0-52.2 21-18.6 21-18.6 57.2" style="fill:url(#B)"/></g><path d="M1796.9 423.5a189.1 189.1 0 0 1 294-159.2l10.7-10.9a5.5 5.5 0 0 1 9.3 2.4l18.8 68.3a5.5 5.5 0 0 1-6.7 6.8l-68.6-17.9a5.5 5.5 0 0 1-2.5-9.2l12-12.3A151.6 151.6 0 0 0 1834.4 423c1 83.4 69.7 150.5 153.2 149.5 39.8-.4 77.3-16.3 105.5-44.7a151 151 0 0 0 44.2-105.5c0-2.9 2.3-6 5.5-6.1l26.4-.3c1.7 0 3 1.2 3.7 2l.3.3c1.2 1.2 1.6 3.4 1.6 4.6a188 188 0 0 1-55 131.8 188 188 0 0 1-131.7 55.7 189 189 0 0 1-191.1-186.7m328.9-98v-.3l-18.9-68.3a1.4 1.4 0 0 0-2.4-.6l-13.1 13.3-1.4-1a185 185 0 0 0-289 154.8 185 185 0 0 0 187 182.7c48.6-.6 94.4-20 128.8-54.5a184 184 0 0 0 53.8-129c0-.5-.3-1.4-.4-1.7l-.3-.2q-.4-.5-1-.8l-26.2.3c-.5 0-1.4 1-1.4 2a155 155 0 0 1-45.4 108.4 154 154 0 0 1-108.3 45.9 155.7 155.7 0 0 1-157.4-153.6 155.7 155.7 0 0 1 238.1-133.5l2.2 1.3-15.7 16a1.5 1.5 0 0 0 .6 2.4l68.6 17.8a1.4 1.4 0 0 0 1.8-1.4" style="fill:#60a5fa"/><path d="M1928 458.5h-54.4V447l19.6-19.7q8.7-8.9 11.3-12.4 2.6-3.4 3.9-6.3 1-3 1.1-6.1 0-4.7-2.5-7a10 10 0 0 0-7-2.3q-4.5 0-8.7 2a45 45 0 0 0-9 6l-8.9-10.6q5.8-5 9.6-7a35 35 0 0 1 8.2-3q4.5-1.2 10-1.1 7.3 0 13 2.6 5.4 2.7 8.6 7.5 3 4.8 3 11 0 5.5-1.8 10a39 39 0 0 1-5.9 9.7q-4 5-14 14.1l-10 9.5v.7h34zM1992 442.3h-9.3v16.2h-16v-16.2h-33.3V431l34.1-50.3h15.2v49h9.4zm-25.4-12.8v-13.2a244 244 0 0 1 .7-16.9h-.4q-2 4.5-4.7 8.6l-14.3 21.5zM2038.3 380.6l-29 77.9h-14.8l29-78zM2051 458.5l29.2-64h-38.4v-13.8h55.9V391l-29.5 67.5z" style="fill:#60a5fa"/><linearGradient id="C" x1="2083.8" x2="2086.5" y1="773.1" y2="773.1" gradientUnits="userSpaceOnUse"><stop offset="0" style="stop-color:#dbeafe"/><stop offset="1" style="stop-color:#eff6ff"/></linearGradient><path d="m2083.8 770 .6 6.3a1.1 1.1 0 0 0 2.1-.1l-.5-6.4a1 1 0 0 0-2.2.2" style="fill:url(#C)"/><linearGradient id="D" x1="2084.9" x2="2087.3" y1="794.3" y2="794.3" gradientUnits="userSpaceOnUse"><stop offset="0" style="stop-color:#dbeafe"/><stop offset="1" style="stop-color:#eff6ff"/></linearGradient><path d="m2085 791.1-.1 6.4a1.2 1.2 0 1 0 2.4 0v-6.4a1.2 1.2 0 0 0-2.4 0" style="fill:url(#D)"/><linearGradient id="E" x1="2083.6" x2="2086.7" y1="815.6" y2="815.6" gradientUnits="userSpaceOnUse"><stop offset="0" style="stop-color:#dbeafe"/><stop offset="1" style="stop-color:#eff6ff"/></linearGradient><path d="m2084.2 812.3-.6 6.3a1.3 1.3 0 0 0 2.6.3l.5-6.4a1.3 1.3 0 0 0-2.5-.3" style="fill:url(#E)"/><linearGradient id="F" x1="2080.6" x2="2084.4" y1="836.6" y2="836.6" gradientUnits="userSpaceOnUse"><stop offset="0" style="stop-color:#dbeafe"/><stop offset="1" style="stop-color:#eff6ff"/></linearGradient><path d="m2081.7 833.3-1.1 6.2a1.4 1.4 0 0 0 2.8.5l1-6.3a1.4 1.4 0 0 0-2.7-.5" style="fill:url(#F)"/><linearGradient id="G" x1="2075.8" x2="2080.4" y1="857.4" y2="857.4" gradientUnits="userSpaceOnUse"><stop offset="0" style="stop-color:#dbeafe"/><stop offset="1" style="stop-color:#eff6ff"/></linearGradient><path d="m2077.5 854-1.6 6.1a1.5 1.5 0 1 0 3 .8l1.5-6.2a1.5 1.5 0 0 0-3-.8" style="fill:url(#G)"/><linearGradient id="H" x1="2069.5" x2="2074.8" y1="877.8" y2="877.8" gradientUnits="userSpaceOnUse"><stop offset="0" style="stop-color:#dbeafe"/><stop offset="1" style="stop-color:#eff6ff"/></linearGradient><path d="m2071.6 874.3-2 6a1.6 1.6 0 0 0 3 1l2.1-6a1.6 1.6 0 0 0-3-1" style="fill:url(#H)"/><linearGradient id="I" x1="2061.6" x2="2067.6" y1="897.7" y2="897.7" gradientUnits="userSpaceOnUse"><stop offset="0" style="stop-color:#dbeafe"/><stop offset="1" style="stop-color:#eff6ff"/></linearGradient><path d="m2064.3 894-2.5 5.9a1.8 1.8 0 0 0 3.2 1.4l2.4-6a1.7 1.7 0 0 0-3.1-1.3" style="fill:url(#I)"/><linearGradient id="J" x1="2052.3" x2="2058.9" y1="916.9" y2="916.9" gradientUnits="userSpaceOnUse"><stop offset="0" style="stop-color:#dbeafe"/><stop offset="1" style="stop-color:#eff6ff"/></linearGradient><path d="m2055.4 913.3-2.9 5.6a1.9 1.9 0 1 0 3.3 1.7l2.9-5.7a1.8 1.8 0 0 0-3.3-1.7" style="fill:url(#J)"/><linearGradient id="K" x1="2041.5" x2="2048.8" y1="935.5" y2="935.5" gradientUnits="userSpaceOnUse"><stop offset="0" style="stop-color:#dbeafe"/><stop offset="1" style="stop-color:#eff6ff"/></linearGradient><path d="m2045.2 931.7-3.4 5.4a2 2 0 0 0 3.4 2.1l3.3-5.5a2 2 0 0 0-3.3-2" style="fill:url(#K)"/><linearGradient id="L" x1="2029.5" x2="2037.3" y1="953.1" y2="953.1" gradientUnits="userSpaceOnUse"><stop offset="0" style="stop-color:#dbeafe"/><stop offset="1" style="stop-color:#eff6ff"/></linearGradient><path d="m2033.6 949.4-3.7 5v.1a2 2 0 0 0 3.3 2.5l3.7-5.3a2 2 0 0 0-3.3-2.4" style="fill:url(#L)"/><linearGradient id="M" x1="2016.1" x2="2024.6" y1="969.9" y2="969.9" gradientUnits="userSpaceOnUse"><stop offset="0" style="stop-color:#dbeafe"/><stop offset="1" style="stop-color:#eff6ff"/></linearGradient><path d="m2020.7 966-4 4.9a2.2 2.2 0 0 0 3.2 2.9l4.2-5a2.2 2.2 0 0 0-3.3-2.8" style="fill:url(#M)"/><linearGradient id="N" x1="2001.5" x2="2010.6" y1="985.6" y2="985.6" gradientUnits="userSpaceOnUse"><stop offset="0" style="stop-color:#dbeafe"/><stop offset="1" style="stop-color:#eff6ff"/></linearGradient><path d="m2006.7 981.8-4.5 4.5a2.3 2.3 0 0 0 3.2 3.2l4.5-4.6a2.3 2.3 0 0 0-3.2-3.2" style="fill:url(#N)"/><linearGradient id="O" x1="1985.8" x2="1995.4" y1="1000.2" y2="1000.2" gradientUnits="userSpaceOnUse"><stop offset="0" style="stop-color:#dbeafe"/><stop offset="1" style="stop-color:#eff6ff"/></linearGradient><path d="m1991.4 996.3-4.7 4.2a2.4 2.4 0 0 0 3 3.7l4.9-4.3a2.4 2.4 0 0 0-3.1-3.6" style="fill:url(#O)"/><linearGradient id="P" x1="1969" x2="1979.1" y1="1013.6" y2="1013.6" gradientUnits="userSpaceOnUse"><stop offset="0" style="stop-color:#dbeafe"/><stop offset="1" style="stop-color:#eff6ff"/></linearGradient><path d="m1975.1 1009.7-5 3.7h-.1a2.5 2.5 0 0 0 3 4l5.1-3.8a2.5 2.5 0 0 0-3-4" style="fill:url(#P)"/><linearGradient id="Q" x1="1951.2" x2="1961.8" y1="1025.5" y2="1025.5" gradientUnits="userSpaceOnUse"><stop offset="0" style="stop-color:#dbeafe"/><stop offset="1" style="stop-color:#eff6ff"/></linearGradient><path d="m1957.8 1021.6-5.3 3.3h-.1a2.6 2.6 0 0 0 2.7 4.5l5.5-3.4a2.6 2.6 0 0 0-2.7-4.4" style="fill:url(#Q)"/><linearGradient id="R" x1="1932.5" x2="1943.5" y1="1035.9" y2="1035.9" gradientUnits="userSpaceOnUse"><stop offset="0" style="stop-color:#dbeafe"/><stop offset="1" style="stop-color:#eff6ff"/></linearGradient><path d="m1939.6 1032.1-5.6 2.9a2.7 2.7 0 0 0 2.3 4.7l5.8-3a2.6 2.6 0 0 0-2.4-4.6" style="fill:url(#R)"/><linearGradient id="S" x1="1913" x2="1924.4" y1="1044.7" y2="1044.7" gradientUnits="userSpaceOnUse"><stop offset="0" style="stop-color:#dbeafe"/><stop offset="1" style="stop-color:#eff6ff"/></linearGradient><path d="m1920.6 1041-5.9 2.4a2.7 2.7 0 1 0 2 5l6-2.4a2.7 2.7 0 0 0-2-5z" style="fill:url(#S)"/><linearGradient id="T" x1="1892.8" x2="1904.5" y1="1051.8" y2="1051.8" gradientUnits="userSpaceOnUse"><stop offset="0" style="stop-color:#dbeafe"/><stop offset="1" style="stop-color:#eff6ff"/></linearGradient><path d="m1900.8 1048.3-6 1.8a2.8 2.8 0 0 0 1.6 5.3l6.2-1.9a2.8 2.8 0 0 0-1.7-5.3" style="fill:url(#T)"/><linearGradient id="U" x1="1872.2" x2="1884.1" y1="1057.4" y2="1057.4" gradientUnits="userSpaceOnUse"><stop offset="0" style="stop-color:#dbeafe"/><stop offset="1" style="stop-color:#eff6ff"/></linearGradient><path d="m1880.6 1054-6.2 1.3a2.8 2.8 0 1 0 1.2 5.5l6.3-1.4a2.8 2.8 0 0 0-1.2-5.5z" style="fill:url(#U)"/><linearGradient id="V" x1="1851.2" x2="1863.3" y1="1061.3" y2="1061.3" gradientUnits="userSpaceOnUse"><stop offset="0" style="stop-color:#dbeafe"/><stop offset="1" style="stop-color:#eff6ff"/></linearGradient><path d="m1860 1058-6.3 1a2.9 2.9 0 1 0 .8 5.7l6.4-1a2.9 2.9 0 0 0-.9-5.7" style="fill:url(#V)"/><linearGradient id="W" x1="1830" x2="1842.3" y1="1063.7" y2="1063.7" gradientUnits="userSpaceOnUse"><stop offset="0" style="stop-color:#dbeafe"/><stop offset="1" style="stop-color:#eff6ff"/></linearGradient><path d="m1839 1060.5-6.2.5a3 3 0 1 0 .4 6l6.4-.6a3 3 0 0 0-.5-5.9" style="fill:url(#W)"/><linearGradient id="X" x1="1808.7" x2="1821.2" y1="1064.7" y2="1064.7" gradientUnits="userSpaceOnUse"><stop offset="0" style="stop-color:#dbeafe"/><stop offset="1" style="stop-color:#eff6ff"/></linearGradient><path d="M1818 1061.6h-6.3a3 3 0 0 0 0 6.1h6.5a3 3 0 0 0 0-6z" style="fill:url(#X)"/><linearGradient id="Y" x1="1787.4" x2="1800" y1="1064.2" y2="1064.2" gradientUnits="userSpaceOnUse"><stop offset="0" style="stop-color:#dbeafe"/><stop offset="1" style="stop-color:#eff6ff"/></linearGradient><path d="m1797 1061.3-6.3-.3a3 3 0 0 0-.4 6.1l6.4.3a3 3 0 0 0 .4-6" style="fill:url(#Y)"/><linearGradient id="Z" x1="1766.2" x2="1778.8" y1="1062.4" y2="1062.4" gradientUnits="userSpaceOnUse"><stop offset="0" style="stop-color:#dbeafe"/><stop offset="1" style="stop-color:#eff6ff"/></linearGradient><path d="m1776 1059.7-6.3-.8a3.1 3.1 0 1 0-.7 6.3l6.4.7a3.1 3.1 0 0 0 .7-6.2" style="fill:url(#Z)"/><linearGradient id="aa" x1="1745.1" x2="1757.8" y1="1059.4" y2="1059.4" gradientUnits="userSpaceOnUse"><stop offset="0" style="stop-color:#dbeafe"/><stop offset="1" style="stop-color:#eff6ff"/></linearGradient><path d="m1755.2 1056.8-6.3-1.1a3.2 3.2 0 0 0-1.1 6.3l6.3 1a3.2 3.2 0 0 0 1.1-6.2" style="fill:url(#aa)"/><linearGradient id="ab" x1="1724.3" x2="1737" y1="1055.2" y2="1055.2" gradientUnits="userSpaceOnUse"><stop offset="0" style="stop-color:#dbeafe"/><stop offset="1" style="stop-color:#eff6ff"/></linearGradient><path d="m1734.5 1052.7-6.2-1.4a3.3 3.3 0 0 0-1.5 6.3l6.3 1.5a3.3 3.3 0 0 0 1.4-6.4" style="fill:url(#ab)"/><linearGradient id="ac" x1="1703.7" x2="1716.5" y1="1049.8" y2="1049.8" gradientUnits="userSpaceOnUse"><stop offset="0" style="stop-color:#dbeafe"/><stop offset="1" style="stop-color:#eff6ff"/></linearGradient><path d="m1714 1047.5-6-1.7a3.3 3.3 0 0 0-2 6.4l6.3 1.7a3.3 3.3 0 0 0 1.8-6.3" style="fill:url(#ac)"/><linearGradient id="ad" x1="1683.4" x2="1696.2" y1="1043.5" y2="1043.5" gradientUnits="userSpaceOnUse"><stop offset="0" style="stop-color:#dbeafe"/><stop offset="1" style="stop-color:#eff6ff"/></linearGradient><path d="m1693.9 1041.3-6-2a3.4 3.4 0 0 0-2.2 6.3l6 2.1a3.4 3.4 0 0 0 2.3-6.4z" style="fill:url(#ad)"/><linearGradient id="ae" x1="1663.4" x2="1676.3" y1="1036.1" y2="1036.1" gradientUnits="userSpaceOnUse"><stop offset="0" style="stop-color:#dbeafe"/><stop offset="1" style="stop-color:#eff6ff"/></linearGradient><path d="m1674.1 1034-5.9-2.3a3.5 3.5 0 1 0-2.6 6.4l6 2.4a3.4 3.4 0 0 0 2.5-6.4" style="fill:url(#ae)"/><linearGradient id="af" x1="1643.9" x2="1656.7" y1="1027.8" y2="1027.8" gradientUnits="userSpaceOnUse"><stop offset="0" style="stop-color:#dbeafe"/><stop offset="1" style="stop-color:#eff6ff"/></linearGradient><path d="m1654.7 1026-5.8-2.7a3.5 3.5 0 0 0-3 6.3l6 2.7a3.5 3.5 0 0 0 2.8-6.4" style="fill:url(#af)"/><linearGradient id="ag" x1="1624.7" x2="1637.6" y1="1018.5" y2="1018.5" gradientUnits="userSpaceOnUse"><stop offset="0" style="stop-color:#dbeafe"/><stop offset="1" style="stop-color:#eff6ff"/></linearGradient><path d="m1635.6 1016.8-5.6-2.9a3.6 3.6 0 0 0-3.3 6.3l5.7 3a3.6 3.6 0 0 0 3.3-6.4" style="fill:url(#ag)"/><linearGradient id="ah" x1="1606.1" x2="1618.9" y1="1008.4" y2="1008.4" gradientUnits="userSpaceOnUse"><stop offset="0" style="stop-color:#dbeafe"/><stop offset="1" style="stop-color:#eff6ff"/></linearGradient><path d="m1617 1006.9-5.5-3.2a3.6 3.6 0 0 0-3.6 6.3l5.6 3.1a3.6 3.6 0 1 0 3.6-6.2" style="fill:url(#ah)"/><linearGradient id="ai" x1="1587.9" x2="1600.6" y1="997.5" y2="997.5" gradientUnits="userSpaceOnUse"><stop offset="0" style="stop-color:#dbeafe"/><stop offset="1" style="stop-color:#eff6ff"/></linearGradient><path d="m1598.9 996.2-5.4-3.4a3.6 3.6 0 1 0-3.9 6.1l5.5 3.4a3.6 3.6 0 0 0 3.8-6.1" style="fill:url(#ai)"/><linearGradient id="aj" x1="1570.1" x2="1582.7" y1="986" y2="986" gradientUnits="userSpaceOnUse"><stop offset="0" style="stop-color:#dbeafe"/><stop offset="1" style="stop-color:#eff6ff"/></linearGradient><path d="m1581 984.8-5.2-3.6a3.6 3.6 0 1 0-4 6l5.2 3.6a3.6 3.6 0 0 0 4.1-6" style="fill:url(#aj)"/><linearGradient id="ak" x1="1552.7" x2="1565.2" y1="973.8" y2="973.8" gradientUnits="userSpaceOnUse"><stop offset="0" style="stop-color:#dbeafe"/><stop offset="1" style="stop-color:#eff6ff"/></linearGradient><path d="m1563.7 972.7-5.1-3.7a3.7 3.7 0 0 0-4.3 5.9l5.2 3.8a3.7 3.7 0 1 0 4.2-6" style="fill:url(#ak)"/><linearGradient id="al" x1="1535.8" x2="1548.2" y1="961.1" y2="961.1" gradientUnits="userSpaceOnUse"><stop offset="0" style="stop-color:#dbeafe"/><stop offset="1" style="stop-color:#eff6ff"/></linearGradient><path d="m1546.7 960.1-5-3.9a3.7 3.7 0 0 0-4.5 5.8l5 4a3.7 3.7 0 0 0 4.6-5.9" style="fill:url(#al)"/><linearGradient id="am" x1="1519.2" x2="1531.5" y1="947.9" y2="947.9" gradientUnits="userSpaceOnUse"><stop offset="0" style="stop-color:#dbeafe"/><stop offset="1" style="stop-color:#eff6ff"/></linearGradient><path d="m1530.2 947-5-4a3.7 3.7 0 1 0-4.7 5.7l5 4a3.7 3.7 0 1 0 4.7-5.7" style="fill:url(#am)"/><linearGradient id="an" x1="1502.9" x2="1515.2" y1="934.2" y2="934.2" gradientUnits="userSpaceOnUse"><stop offset="0" style="stop-color:#dbeafe"/><stop offset="1" style="stop-color:#eff6ff"/></linearGradient><path d="m1514 933.4-4.9-4.1a3.7 3.7 0 1 0-4.9 5.6l4.9 4.2a3.7 3.7 0 0 0 4.8-5.6" style="fill:url(#an)"/><linearGradient id="ao" x1="1487" x2="1499.3" y1="920.1" y2="920.1" gradientUnits="userSpaceOnUse"><stop offset="0" style="stop-color:#dbeafe"/><stop offset="1" style="stop-color:#eff6ff"/></linearGradient><path d="m1498 919.5-4.7-4.3a3.7 3.7 0 1 0-5 5.5l4.7 4.3a3.7 3.7 0 0 0 5-5.5" style="fill:url(#ao)"/><linearGradient id="ap" x1="1471.4" x2="1483.6" y1="905.7" y2="905.7" gradientUnits="userSpaceOnUse"><stop offset="0" style="stop-color:#dbeafe"/><stop offset="1" style="stop-color:#eff6ff"/></linearGradient><path d="m1482.4 905.2-4.6-4.4a3.8 3.8 0 1 0-5.2 5.5l4.7 4.3a3.8 3.8 0 1 0 5.1-5.4" style="fill:url(#ap)"/><linearGradient id="aq" x1="1456.1" x2="1468.2" y1="891" y2="891" gradientUnits="userSpaceOnUse"><stop offset="0" style="stop-color:#dbeafe"/><stop offset="1" style="stop-color:#eff6ff"/></linearGradient><path d="m1467 890.5-4.5-4.4a3.8 3.8 0 1 0-5.3 5.4l4.6 4.5a3.8 3.8 0 0 0 5.3-5.5" style="fill:url(#aq)"/><linearGradient id="ar" x1="1441" x2="1453.1" y1="876.1" y2="876.1" gradientUnits="userSpaceOnUse"><stop offset="0" style="stop-color:#dbeafe"/><stop offset="1" style="stop-color:#eff6ff"/></linearGradient><path d="m1452 875.7-4.5-4.6a3.8 3.8 0 1 0-5.4 5.4l4.5 4.5a3.8 3.8 0 1 0 5.4-5.3" style="fill:url(#ar)"/><linearGradient id="as" x1="1426.1" x2="1438.2" y1="860.9" y2="860.9" gradientUnits="userSpaceOnUse"><stop offset="0" style="stop-color:#dbeafe"/><stop offset="1" style="stop-color:#eff6ff"/></linearGradient><path d="m1437.1 860.6-4.4-4.6a3.8 3.8 0 0 0-5.5 5.3l4.4 4.6a3.8 3.8 0 1 0 5.5-5.3" style="fill:url(#as)"/><linearGradient id="at" x1="1411.3" x2="1423.4" y1="845.6" y2="845.6" gradientUnits="userSpaceOnUse"><stop offset="0" style="stop-color:#dbeafe"/><stop offset="1" style="stop-color:#eff6ff"/></linearGradient><path d="m1422.4 845.3-4.4-4.6a3.8 3.8 0 1 0-5.6 5.2l4.4 4.7a3.8 3.8 0 1 0 5.6-5.3" style="fill:url(#at)"/><linearGradient id="au" x1="1396.7" x2="1408.8" y1="830.2" y2="830.2" gradientUnits="userSpaceOnUse"><stop offset="0" style="stop-color:#dbeafe"/><stop offset="1" style="stop-color:#eff6ff"/></linearGradient><path d="m1407.8 829.9-4.4-4.7a3.9 3.9 0 1 0-5.6 5.3l4.4 4.6a3.9 3.9 0 0 0 5.6-5.2" style="fill:url(#au)"/><linearGradient id="av" x1="1382.2" x2="1394.3" y1="814.6" y2="814.6" gradientUnits="userSpaceOnUse"><stop offset="0" style="stop-color:#dbeafe"/><stop offset="1" style="stop-color:#eff6ff"/></linearGradient><path d="m1393.3 814.3-4.4-4.6a3.9 3.9 0 0 0-5.7 5.2l4.4 4.7a3.9 3.9 0 0 0 5.7-5.3" style="fill:url(#av)"/><linearGradient id="aw" x1="1367.7" x2="1379.9" y1="799.1" y2="799.1" gradientUnits="userSpaceOnUse"><stop offset="0" style="stop-color:#dbeafe"/><stop offset="1" style="stop-color:#eff6ff"/></linearGradient><path d="m1378.8 798.8-4.3-4.7a4 4 0 1 0-5.7 5.3l4.3 4.7a3.9 3.9 0 0 0 5.7-5.3" style="fill:url(#aw)"/><linearGradient id="ax" x1="1353.2" x2="1365.4" y1="783.5" y2="783.5" gradientUnits="userSpaceOnUse"><stop offset="0" style="stop-color:#dbeafe"/><stop offset="1" style="stop-color:#eff6ff"/></linearGradient><path d="m1364.4 783.2-4.4-4.7a4 4 0 1 0-5.7 5.3l4.3 4.7a4 4 0 0 0 5.8-5.3" style="fill:url(#ax)"/><linearGradient id="ay" x1="1338.7" x2="1351" y1="767.9" y2="767.9" gradientUnits="userSpaceOnUse"><stop offset="0" style="stop-color:#dbeafe"/><stop offset="1" style="stop-color:#eff6ff"/></linearGradient><path d="m1349.9 767.6-4.4-4.7a4 4 0 1 0-5.7 5.4l4.3 4.7a4 4 0 1 0 5.8-5.4" style="fill:url(#ay)"/><linearGradient id="az" x1="1324.1" x2="1336.4" y1="752.4" y2="752.4" gradientUnits="userSpaceOnUse"><stop offset="0" style="stop-color:#dbeafe"/><stop offset="1" style="stop-color:#eff6ff"/></linearGradient><path d="m1335.4 752-4.4-4.6a4 4 0 1 0-5.8 5.5l4.4 4.6a4 4 0 1 0 5.8-5.4" style="fill:url(#az)"/><linearGradient id="aA" x1="1309.4" x2="1321.8" y1="737.1" y2="737.1" gradientUnits="userSpaceOnUse"><stop offset="0" style="stop-color:#dbeafe"/><stop offset="1" style="stop-color:#eff6ff"/></linearGradient><path d="m1320.7 736.6-4.4-4.6a4 4 0 1 0-5.8 5.5l4.4 4.6a4 4 0 0 0 5.8-5.5" style="fill:url(#aA)"/><linearGradient id="aB" x1="1294.5" x2="1307" y1="721.9" y2="721.9" gradientUnits="userSpaceOnUse"><stop offset="0" style="stop-color:#dbeafe"/><stop offset="1" style="stop-color:#eff6ff"/></linearGradient><path d="m1305.9 721.3-4.5-4.5a4 4 0 1 0-5.7 5.6l4.5 4.5a4 4 0 0 0 5.7-5.6" style="fill:url(#aB)"/><linearGradient id="aC" x1="1279.5" x2="1292.1" y1="706.8" y2="706.8" gradientUnits="userSpaceOnUse"><stop offset="0" style="stop-color:#dbeafe"/><stop offset="1" style="stop-color:#eff6ff"/></linearGradient><path d="m1290.9 706.2-4.6-4.5a4 4 0 0 0-5.6 5.7l4.5 4.5a4 4 0 0 0 5.7-5.7" style="fill:url(#aC)"/><linearGradient id="aD" x1="1264.2" x2="1276.9" y1="692" y2="692" gradientUnits="userSpaceOnUse"><stop offset="0" style="stop-color:#dbeafe"/><stop offset="1" style="stop-color:#eff6ff"/></linearGradient><path d="m1275.6 691.3-4.6-4.4a4 4 0 0 0-5.6 5.8l4.6 4.4a4 4 0 0 0 5.6-5.8" style="fill:url(#aD)"/><linearGradient id="aE" x1="1248.6" x2="1261.4" y1="677.5" y2="677.5" gradientUnits="userSpaceOnUse"><stop offset="0" style="stop-color:#dbeafe"/><stop offset="1" style="stop-color:#eff6ff"/></linearGradient><path d="m1260.1 676.7-4.7-4.4a4 4 0 1 0-5.5 6l4.7 4.3a4 4 0 1 0 5.5-6" style="fill:url(#aE)"/><linearGradient id="aF" x1="1232.8" x2="1245.7" y1="663.2" y2="663.2" gradientUnits="userSpaceOnUse"><stop offset="0" style="stop-color:#dbeafe"/><stop offset="1" style="stop-color:#eff6ff"/></linearGradient><path d="m1244.3 662.3-4.8-4.2a4 4 0 0 0-5.3 6l4.8 4.3a4 4 0 0 0 5.3-6" style="fill:url(#aF)"/><linearGradient id="aG" x1="1216.6" x2="1229.6" y1="649.4" y2="649.4" gradientUnits="userSpaceOnUse"><stop offset="0" style="stop-color:#dbeafe"/><stop offset="1" style="stop-color:#eff6ff"/></linearGradient><path d="m1228.1 648.4-4.9-4.1a4 4 0 1 0-5.1 6.1l4.9 4.1a4 4 0 1 0 5.1-6.1" style="fill:url(#aG)"/><linearGradient id="aH" x1="1200.1" x2="1213.1" y1="636" y2="636" gradientUnits="userSpaceOnUse"><stop offset="0" style="stop-color:#dbeafe"/><stop offset="1" style="stop-color:#eff6ff"/></linearGradient><path d="m1211.6 634.8-5-4a4 4 0 1 0-5 6.3l5 4a4 4 0 0 0 5-6.3" style="fill:url(#aH)"/><linearGradient id="aI" x1="1183.3" x2="1196.3" y1="623" y2="623" gradientUnits="userSpaceOnUse"><stop offset="0" style="stop-color:#dbeafe"/><stop offset="1" style="stop-color:#eff6ff"/></linearGradient><path d="m1194.7 621.8-5.1-3.9a4 4 0 1 0-4.7 6.4l5 3.8a4 4 0 0 0 4.8-6.3" style="fill:url(#aI)"/><linearGradient id="aJ" x1="1166" x2="1179.2" y1="610.6" y2="610.6" gradientUnits="userSpaceOnUse"><stop offset="0" style="stop-color:#dbeafe"/><stop offset="1" style="stop-color:#eff6ff"/></linearGradient><path d="m1177.4 609.2-5.2-3.7a4 4 0 0 0-4.5 6.5l5.2 3.7a4 4 0 1 0 4.6-6.5" style="fill:url(#aJ)"/><linearGradient id="aK" x1="1148.3" x2="1161.5" y1="598.8" y2="598.8" gradientUnits="userSpaceOnUse"><stop offset="0" style="stop-color:#dbeafe"/><stop offset="1" style="stop-color:#eff6ff"/></linearGradient><path d="m1159.7 597.2-5.4-3.5a4 4 0 0 0-4.2 6.7l5.3 3.4a4 4 0 0 0 4.3-6.6" style="fill:url(#aK)"/><linearGradient id="aL" x1="1130.1" x2="1143.5" y1="587.6" y2="587.6" gradientUnits="userSpaceOnUse"><stop offset="0" style="stop-color:#dbeafe"/><stop offset="1" style="stop-color:#eff6ff"/></linearGradient><path d="m1141.6 585.9-5.5-3.3a4 4 0 1 0-4 6.8l5.4 3.2a4 4 0 0 0 4-6.7" style="fill:url(#aL)"/><linearGradient id="aM" x1="1111.6" x2="1125.1" y1="577.1" y2="577.1" gradientUnits="userSpaceOnUse"><stop offset="0" style="stop-color:#dbeafe"/><stop offset="1" style="stop-color:#eff6ff"/></linearGradient><path d="m1123 575.2-5.6-3a4 4 0 0 0-3.7 6.8l5.6 3a4 4 0 1 0 3.7-6.8" style="fill:url(#aM)"/><linearGradient id="aN" x1="1092.7" x2="1106.3" y1="567.3" y2="567.3" gradientUnits="userSpaceOnUse"><stop offset="0" style="stop-color:#dbeafe"/><stop offset="1" style="stop-color:#eff6ff"/></linearGradient><path d="m1104.1 565.2-5.7-2.8a3.9 3.9 0 1 0-3.5 7l5.7 2.8a3.9 3.9 0 0 0 3.5-7" style="fill:url(#aN)"/><linearGradient id="aO" x1="1073.5" x2="1087.1" y1="558.2" y2="558.2" gradientUnits="userSpaceOnUse"><stop offset="0" style="stop-color:#dbeafe"/><stop offset="1" style="stop-color:#eff6ff"/></linearGradient><path d="m1084.8 556-5.8-2.7a3.9 3.9 0 1 0-3.2 7l5.8 2.7a3.9 3.9 0 0 0 3.2-7" style="fill:url(#aO)"/><linearGradient id="aP" x1="1054" x2="1067.7" y1="549.7" y2="549.7" gradientUnits="userSpaceOnUse"><stop offset="0" style="stop-color:#dbeafe"/><stop offset="1" style="stop-color:#eff6ff"/></linearGradient><path d="m1065.3 547.4-6-2.5a3.9 3.9 0 0 0-3 7.2h.1l5.9 2.4a3.9 3.9 0 0 0 3-7.1" style="fill:url(#aP)"/><linearGradient id="aQ" x1="1034.2" x2="1047.9" y1="542" y2="542" gradientUnits="userSpaceOnUse"><stop offset="0" style="stop-color:#dbeafe"/><stop offset="1" style="stop-color:#eff6ff"/></linearGradient><path d="m1045.4 539.5-6-2.2a3.8 3.8 0 1 0-2.7 7.2l6 2.2a3.9 3.9 0 0 0 2.7-7.2" style="fill:url(#aQ)"/><linearGradient id="aR" x1="1014.1" x2="1027.8" y1="535" y2="535" gradientUnits="userSpaceOnUse"><stop offset="0" style="stop-color:#dbeafe"/><stop offset="1" style="stop-color:#eff6ff"/></linearGradient><path d="m1025.2 532.3-6-2a3.8 3.8 0 0 0-2.5 7.3l6 2h.1a3.8 3.8 0 0 0 2.4-7.3" style="fill:url(#aR)"/><linearGradient id="aS" x1="993.8" x2="1007.6" y1="528.7" y2="528.7" gradientUnits="userSpaceOnUse"><stop offset="0" style="stop-color:#dbeafe"/><stop offset="1" style="stop-color:#eff6ff"/></linearGradient><path d="m1004.8 525.9-6.1-1.8a3.8 3.8 0 0 0-2.2 7.3l6.1 1.8a3.8 3.8 0 1 0 2.2-7.3" style="fill:url(#aS)"/><linearGradient id="aT" x1="973.2" x2="987.1" y1="523.1" y2="523.1" gradientUnits="userSpaceOnUse"><stop offset="0" style="stop-color:#dbeafe"/><stop offset="1" style="stop-color:#eff6ff"/></linearGradient><path d="m984.2 520.2-6.2-1.6a3.8 3.8 0 0 0-1.9 7.4l6.2 1.5a3.8 3.8 0 0 0 2-7.3" style="fill:url(#aT)"/><linearGradient id="aU" x1="952.5" x2="966.4" y1="518.2" y2="518.2" gradientUnits="userSpaceOnUse"><stop offset="0" style="stop-color:#dbeafe"/><stop offset="1" style="stop-color:#eff6ff"/></linearGradient><path d="m963.4 515.2-6.3-1.4a3.8 3.8 0 0 0-1.6 7.4l6.3 1.4a3.8 3.8 0 1 0 1.6-7.4" style="fill:url(#aU)"/><linearGradient id="aV" x1="931.7" x2="945.6" y1="514.1" y2="514.1" gradientUnits="userSpaceOnUse"><stop offset="0" style="stop-color:#dbeafe"/><stop offset="1" style="stop-color:#eff6ff"/></linearGradient><path d="m942.4 511-6.3-1.2a3.8 3.8 0 0 0-1.3 7.4l6.3 1.1a3.8 3.8 0 1 0 1.3-7.4" style="fill:url(#aV)"/><linearGradient id="aW" x1="910.7" x2="924.6" y1="510.7" y2="510.7" gradientUnits="userSpaceOnUse"><stop offset="0" style="stop-color:#dbeafe"/><stop offset="1" style="stop-color:#eff6ff"/></linearGradient><path d="m921.3 507.4-6.3-1a3.8 3.8 0 1 0-1 7.5l6.2 1a3.8 3.8 0 1 0 1.1-7.5" style="fill:url(#aW)"/><linearGradient id="aX" x1="889.6" x2="903.5" y1="508" y2="508" gradientUnits="userSpaceOnUse"><stop offset="0" style="stop-color:#dbeafe"/><stop offset="1" style="stop-color:#eff6ff"/></linearGradient><path d="m900.1 504.6-6.3-.7a3.7 3.7 0 1 0-.8 7.5l6.3.6a3.7 3.7 0 0 0 .8-7.4" style="fill:url(#aX)"/><linearGradient id="aY" x1="868.5" x2="882.3" y1="506.1" y2="506.1" gradientUnits="userSpaceOnUse"><stop offset="0" style="stop-color:#dbeafe"/><stop offset="1" style="stop-color:#eff6ff"/></linearGradient><path d="m878.8 502.6-6.4-.5a3.7 3.7 0 1 0-.5 7.4l6.4.5a3.7 3.7 0 1 0 .6-7.4" style="fill:url(#aY)"/><linearGradient id="aZ" x1="847.2" x2="861.1" y1="504.9" y2="504.9" gradientUnits="userSpaceOnUse"><stop offset="0" style="stop-color:#dbeafe"/><stop offset="1" style="stop-color:#eff6ff"/></linearGradient><path d="m857.5 501.3-6.4-.2a3.7 3.7 0 0 0-.3 7.4l6.4.2a3.7 3.7 0 0 0 .3-7.4" style="fill:url(#aZ)"/><linearGradient id="ba" x1="826" x2="839.8" y1="504.5" y2="504.5" gradientUnits="userSpaceOnUse"><stop offset="0" style="stop-color:#dbeafe"/><stop offset="1" style="stop-color:#eff6ff"/></linearGradient><path d="M836.1 500.8h-6.4a3.7 3.7 0 0 0 0 7.4h6.4a3.7 3.7 0 0 0 0-7.4" style="fill:url(#ba)"/><linearGradient id="bb" x1="804.8" x2="818.5" y1="504.8" y2="504.8" gradientUnits="userSpaceOnUse"><stop offset="0" style="stop-color:#dbeafe"/><stop offset="1" style="stop-color:#eff6ff"/></linearGradient><path d="m814.7 501-6.4.3a3.7 3.7 0 1 0 .3 7.3l6.4-.2a3.7 3.7 0 1 0-.3-7.3" style="fill:url(#bb)"/><linearGradient id="bc" x1="783.6" x2="797.3" y1="506" y2="506" gradientUnits="userSpaceOnUse"><stop offset="0" style="stop-color:#dbeafe"/><stop offset="1" style="stop-color:#eff6ff"/></linearGradient><path d="m793.4 502-6.4.6a3.7 3.7 0 0 0 .5 7.3l6.4-.5a3.7 3.7 0 1 0-.5-7.3" style="fill:url(#bc)"/><linearGradient id="bd" x1="762.4" x2="776.1" y1="507.9" y2="507.9" gradientUnits="userSpaceOnUse"><stop offset="0" style="stop-color:#dbeafe"/><stop offset="1" style="stop-color:#eff6ff"/></linearGradient><path d="m772 504-6.3.6a3.6 3.6 0 0 0 .8 7.3l6.3-.7a3.7 3.7 0 0 0-.7-7.3" style="fill:url(#bd)"/><linearGradient id="be" x1="741.4" x2="755" y1="510.6" y2="510.6" gradientUnits="userSpaceOnUse"><stop offset="0" style="stop-color:#dbeafe"/><stop offset="1" style="stop-color:#eff6ff"/></linearGradient><path d="m750.8 506.5-6.3 1a3.6 3.6 0 0 0 1 7.1l6.4-.9a3.6 3.6 0 0 0-1-7.2" style="fill:url(#be)"/><linearGradient id="bf" x1="720.5" x2="734" y1="514.1" y2="514.1" gradientUnits="userSpaceOnUse"><stop offset="0" style="stop-color:#dbeafe"/><stop offset="1" style="stop-color:#eff6ff"/></linearGradient><path d="m729.7 510-6.3 1.1a3.6 3.6 0 1 0 1.4 7.1l6.2-1.2a3.6 3.6 0 0 0-1.3-7" style="fill:url(#bf)"/><linearGradient id="bg" x1="699.7" x2="713.2" y1="518.4" y2="518.4" gradientUnits="userSpaceOnUse"><stop offset="0" style="stop-color:#dbeafe"/><stop offset="1" style="stop-color:#eff6ff"/></linearGradient><path d="m708.7 514.2-6.2 1.5a3.6 3.6 0 1 0 1.6 7l6.2-1.5a3.6 3.6 0 0 0-1.5-7" style="fill:url(#bg)"/><linearGradient id="bh" x1="679.2" x2="692.5" y1="523.8" y2="523.8" gradientUnits="userSpaceOnUse"><stop offset="0" style="stop-color:#dbeafe"/><stop offset="1" style="stop-color:#eff6ff"/></linearGradient><path d="m688 519.4-6.2 1.8a3.6 3.6 0 0 0 2 6.9l6-1.7h.1a3.6 3.6 0 0 0-2-7" style="fill:url(#bh)"/><linearGradient id="bi" x1="659" x2="672.2" y1="530.1" y2="530.1" gradientUnits="userSpaceOnUse"><stop offset="0" style="stop-color:#dbeafe"/><stop offset="1" style="stop-color:#eff6ff"/></linearGradient><path d="m667.5 525.7-6.1 2a3.5 3.5 0 0 0 2.3 6.8l6-2a3.6 3.6 0 0 0-2.2-6.8" style="fill:url(#bi)"/><linearGradient id="bj" x1="639.2" x2="652.1" y1="537.4" y2="537.4" gradientUnits="userSpaceOnUse"><stop offset="0" style="stop-color:#dbeafe"/><stop offset="1" style="stop-color:#eff6ff"/></linearGradient><path d="m647.3 533-6 2.4a3.5 3.5 0 0 0 2.7 6.5l5.9-2.4a3.5 3.5 0 0 0-2.6-6.5" style="fill:url(#bj)"/><linearGradient id="bk" x1="619.8" x2="632.5" y1="545.9" y2="545.9" gradientUnits="userSpaceOnUse"><stop offset="0" style="stop-color:#dbeafe"/><stop offset="1" style="stop-color:#eff6ff"/></linearGradient><path d="m627.6 541.4-5.8 2.8a3.4 3.4 0 1 0 3 6.2l5.7-2.7a3.5 3.5 0 1 0-2.9-6.3" style="fill:url(#bk)"/><linearGradient id="bl" x1="601" x2="613.5" y1="555.6" y2="555.6" gradientUnits="userSpaceOnUse"><stop offset="0" style="stop-color:#dbeafe"/><stop offset="1" style="stop-color:#eff6ff"/></linearGradient><path d="m608.4 551-5.6 3.2a3.4 3.4 0 0 0 3.3 6v-.1l5.6-3a3.4 3.4 0 1 0-3.3-6" style="fill:url(#bl)"/><linearGradient id="bm" x1="583" x2="595.1" y1="566.5" y2="566.5" gradientUnits="userSpaceOnUse"><stop offset="0" style="stop-color:#dbeafe"/><stop offset="1" style="stop-color:#eff6ff"/></linearGradient><path d="m589.9 562-5.4 3.5a3.4 3.4 0 0 0 3.6 5.6h.1l5.3-3.5a3.4 3.4 0 0 0-3.6-5.7" style="fill:url(#bm)"/><linearGradient id="bn" x1="565.8" x2="577.5" y1="578.7" y2="578.7" gradientUnits="userSpaceOnUse"><stop offset="0" style="stop-color:#dbeafe"/><stop offset="1" style="stop-color:#eff6ff"/></linearGradient><path d="M572.2 574.2 567 578a3.3 3.3 0 0 0 4 5.2l5-3.8h.1a3.3 3.3 0 1 0-4-5.4" style="fill:url(#bn)"/><linearGradient id="bo" x1="549.6" x2="561" y1="592.3" y2="592.3" gradientUnits="userSpaceOnUse"><stop offset="0" style="stop-color:#dbeafe"/><stop offset="1" style="stop-color:#eff6ff"/></linearGradient><path d="m555.5 587.7-4.8 4.4a3.3 3.3 0 0 0 4.4 4.8l4.7-4.3a3.3 3.3 0 1 0-4.3-4.9" style="fill:url(#bo)"/><linearGradient id="bp" x1="534.7" x2="545.6" y1="607.2" y2="607.2" gradientUnits="userSpaceOnUse"><stop offset="0" style="stop-color:#dbeafe"/><stop offset="1" style="stop-color:#eff6ff"/></linearGradient><path d="m540 602.6-4.4 4.8a3.2 3.2 0 0 0 4.7 4.4v-.1l4.3-4.6a3.2 3.2 0 0 0-4.6-4.5" style="fill:url(#bp)"/><linearGradient id="bq" x1="521.2" x2="531.5" y1="623.4" y2="623.4" gradientUnits="userSpaceOnUse"><stop offset="0" style="stop-color:#dbeafe"/><stop offset="1" style="stop-color:#eff6ff"/></linearGradient><path d="m525.8 618.9-4 5.1a3.2 3.2 0 1 0 5.1 3.9l3.9-5v-.1a3.2 3.2 0 1 0-5-4" style="fill:url(#bq)"/><linearGradient id="br" x1="509.4" x2="519.1" y1="640.8" y2="640.8" gradientUnits="userSpaceOnUse"><stop offset="0" style="stop-color:#dbeafe"/><stop offset="1" style="stop-color:#eff6ff"/></linearGradient><path d="m513.3 636.5-3.4 5.5a3.1 3.1 0 1 0 5.3 3.2l3.4-5.4a3.1 3.1 0 0 0-5.3-3.4" style="fill:url(#br)"/><linearGradient id="bs" x1="499.5" x2="508.5" y1="659.4" y2="659.4" gradientUnits="userSpaceOnUse"><stop offset="0" style="stop-color:#dbeafe"/><stop offset="1" style="stop-color:#eff6ff"/></linearGradient><path d="m502.6 655.2-2.8 5.8a3 3 0 1 0 5.5 2.7v-.1l2.8-5.6v-.1a3 3 0 0 0-5.5-2.8" style="fill:url(#bs)"/><linearGradient id="bt" x1="491.3" x2="499.7" y1="678.9" y2="678.9" gradientUnits="userSpaceOnUse"><stop offset="0" style="stop-color:#dbeafe"/><stop offset="1" style="stop-color:#eff6ff"/></linearGradient><path d="m493.8 674.8-2.3 6a3 3 0 0 0 5.7 2.2l2.2-6a3 3 0 0 0-5.6-2.2" style="fill:url(#bt)"/><linearGradient id="bu" x1="485" x2="492.7" y1="699.1" y2="699.1" gradientUnits="userSpaceOnUse"><stop offset="0" style="stop-color:#dbeafe"/><stop offset="1" style="stop-color:#eff6ff"/></linearGradient><path d="m486.8 695.2-1.7 6.2a3 3 0 1 0 5.7 1.6l1.8-6.1v-.1a3 3 0 1 0-5.8-1.6" style="fill:url(#bu)"/><linearGradient id="bv" x1="480.5" x2="487.5" y1="719.8" y2="719.8" gradientUnits="userSpaceOnUse"><stop offset="0" style="stop-color:#dbeafe"/><stop offset="1" style="stop-color:#eff6ff"/></linearGradient><path d="m481.7 716-1.2 6.4a3 3 0 0 0 5.8 1l1.2-6.2a3 3 0 0 0-5.8-1.2" style="fill:url(#bv)"/><linearGradient id="bw" x1="477.8" x2="484.2" y1="740.8" y2="740.8" gradientUnits="userSpaceOnUse"><stop offset="0" style="stop-color:#dbeafe"/><stop offset="1" style="stop-color:#eff6ff"/></linearGradient><path d="m478.4 737.3-.6 6.4a2.9 2.9 0 0 0 5.7.6l.7-6.3v-.1a2.9 2.9 0 0 0-5.8-.6" style="fill:url(#bw)"/><linearGradient id="bx" x1="476.9" x2="482.7" y1="762" y2="762" gradientUnits="userSpaceOnUse"><stop offset="0" style="stop-color:#dbeafe"/><stop offset="1" style="stop-color:#eff6ff"/></linearGradient><path d="m477 758.7-.1 6.5a2.8 2.8 0 1 0 5.7 0V759a2.9 2.9 0 0 0-5.6-.2" style="fill:url(#bx)"/><linearGradient id="by" x1="477.3" x2="483.3" y1="783.2" y2="783.2" gradientUnits="userSpaceOnUse"><stop offset="0" style="stop-color:#dbeafe"/><stop offset="1" style="stop-color:#eff6ff"/></linearGradient><path d="m477.3 780.2.5 6.5a2.8 2.8 0 1 0 5.5-.4l-.4-6.4a2.8 2.8 0 0 0-5.6.3" style="fill:url(#by)"/><linearGradient id="bz" x1="479.4" x2="485.9" y1="804.4" y2="804.4" gradientUnits="userSpaceOnUse"><stop offset="0" style="stop-color:#dbeafe"/><stop offset="1" style="stop-color:#eff6ff"/></linearGradient><path d="m479.5 801.6 1 6.4a2.7 2.7 0 0 0 5.4-.9l-1-6.3a2.8 2.8 0 1 0-5.4.8" style="fill:url(#bz)"/><linearGradient id="bA" x1="483.3" x2="490.2" y1="825.2" y2="825.2" gradientUnits="userSpaceOnUse"><stop offset="0" style="stop-color:#dbeafe"/><stop offset="1" style="stop-color:#eff6ff"/></linearGradient><path d="m483.4 822.7 1.5 6.3a2.7 2.7 0 1 0 5.3-1.3l-1.5-6.2a2.7 2.7 0 1 0-5.3 1.2" style="fill:url(#bA)"/><linearGradient id="bB" x1="489" x2="496.4" y1="845.6" y2="845.6" gradientUnits="userSpaceOnUse"><stop offset="0" style="stop-color:#dbeafe"/><stop offset="1" style="stop-color:#eff6ff"/></linearGradient><path d="m489.1 843.4 2.1 6.1a2.7 2.7 0 0 0 5-1.7l-2-6a2.7 2.7 0 1 0-5 1.6" style="fill:url(#bB)"/><linearGradient id="bC" x1="496.5" x2="504.3" y1="865.4" y2="865.4" gradientUnits="userSpaceOnUse"><stop offset="0" style="stop-color:#dbeafe"/><stop offset="1" style="stop-color:#eff6ff"/></linearGradient><path d="m496.7 863.5 2.6 6a2.6 2.6 0 0 0 4.8-2.2l-2.6-5.8a2.6 2.6 0 0 0-4.8 2" style="fill:url(#bC)"/><linearGradient id="bD" x1="505.7" x2="514" y1="884.4" y2="884.4" gradientUnits="userSpaceOnUse"><stop offset="0" style="stop-color:#dbeafe"/><stop offset="1" style="stop-color:#eff6ff"/></linearGradient><path d="m506 882.9 3.2 5.6a2.6 2.6 0 0 0 4.5-2.5l-3.1-5.6a2.6 2.6 0 0 0-4.6 2.5" style="fill:url(#bD)"/><linearGradient id="bE" x1="516.8" x2="525.4" y1="902.4" y2="902.4" gradientUnits="userSpaceOnUse"><stop offset="0" style="stop-color:#dbeafe"/><stop offset="1" style="stop-color:#eff6ff"/></linearGradient><path d="m517.2 901.2 3.7 5.3a2.5 2.5 0 0 0 4-2.8l-3.5-5.3a2.5 2.5 0 1 0-4.2 2.8" style="fill:url(#bE)"/><linearGradient id="bF" x1="529.5" x2="538.5" y1="919.3" y2="919.3" gradientUnits="userSpaceOnUse"><stop offset="0" style="stop-color:#dbeafe"/><stop offset="1" style="stop-color:#eff6ff"/></linearGradient><path d="m530.1 918.4 4.2 4.9a2.4 2.4 0 0 0 3.7-3.1l-4.1-4.9a2.4 2.4 0 0 0-3.8 3z" style="fill:url(#bF)"/><linearGradient id="bG" x1="544" x2="553.3" y1="934.7" y2="934.7" gradientUnits="userSpaceOnUse"><stop offset="0" style="stop-color:#dbeafe"/><stop offset="1" style="stop-color:#eff6ff"/></linearGradient><path d="m544.7 934.2 4.7 4.4a2.3 2.3 0 0 0 3.2-3.4l-4.6-4.4a2.3 2.3 0 0 0-3.3 3.3" style="fill:url(#bG)"/><linearGradient id="bH" x1="560" x2="569.6" y1="948.5" y2="948.5" gradientUnits="userSpaceOnUse"><stop offset="0" style="stop-color:#dbeafe"/><stop offset="1" style="stop-color:#eff6ff"/></linearGradient><path d="m560.9 948.3 5 4a2.2 2.2 0 0 0 2.8-3.5l-5-4a2.2 2.2 0 1 0-2.8 3.5" style="fill:url(#bH)"/><linearGradient id="bI" x1="577.3" x2="587" y1="960.7" y2="960.7" gradientUnits="userSpaceOnUse"><stop offset="0" style="stop-color:#dbeafe"/><stop offset="1" style="stop-color:#eff6ff"/></linearGradient><path d="m578.3 960.9 5.5 3.4a2.1 2.1 0 0 0 2.3-3.6h-.1l-5.3-3.5a2.2 2.2 0 1 0-2.4 3.7" style="fill:url(#bI)"/><linearGradient id="bJ" x1="595.7" x2="605.6" y1="971.2" y2="971.2" gradientUnits="userSpaceOnUse"><stop offset="0" style="stop-color:#dbeafe"/><stop offset="1" style="stop-color:#eff6ff"/></linearGradient><path d="m596.8 971.6 5.8 3a2 2 0 0 0 1.9-3.7l-5.7-3a2 2 0 1 0-2 3.7" style="fill:url(#bJ)"/><linearGradient id="bK" x1="615" x2="625" y1="980" y2="980" gradientUnits="userSpaceOnUse"><stop offset="0" style="stop-color:#dbeafe"/><stop offset="1" style="stop-color:#eff6ff"/></linearGradient><path d="m616.3 980.7 6 2.4a2 2 0 0 0 1.4-3.7l-5.9-2.4a2 2 0 0 0-1.5 3.7" style="fill:url(#bK)"/><linearGradient id="bL" x1="635" x2="645" y1="987" y2="987" gradientUnits="userSpaceOnUse"><stop offset="0" style="stop-color:#dbeafe"/><stop offset="1" style="stop-color:#eff6ff"/></linearGradient><path d="m636.4 988 6.2 1.8a1.9 1.9 0 0 0 1-3.6l-6-1.9a2 2 0 0 0-1.2 3.7" style="fill:url(#bL)"/><linearGradient id="bM" x1="655.6" x2="665.6" y1="992.3" y2="992.3" gradientUnits="userSpaceOnUse"><stop offset="0" style="stop-color:#dbeafe"/><stop offset="1" style="stop-color:#eff6ff"/></linearGradient><path d="m657.1 993.5 6.3 1.3a1.8 1.8 0 0 0 .7-3.6l-6.2-1.3a1.8 1.8 0 0 0-.8 3.6" style="fill:url(#bM)"/><linearGradient id="bN" x1="676.6" x2="686.5" y1="995.9" y2="995.9" gradientUnits="userSpaceOnUse"><stop offset="0" style="stop-color:#dbeafe"/><stop offset="1" style="stop-color:#eff6ff"/></linearGradient><path d="m678.2 997.2 6.3.8a1.7 1.7 0 0 0 .5-3.4l-6.3-.9a1.7 1.7 0 1 0-.5 3.5" style="fill:url(#bN)"/><linearGradient id="bO" x1="697.9" x2="707.6" y1="997.6" y2="997.6" gradientUnits="userSpaceOnUse"><stop offset="0" style="stop-color:#dbeafe"/><stop offset="1" style="stop-color:#eff6ff"/></linearGradient><path d="m699.5 999.2 6.4.2a1.6 1.6 0 0 0 .1-3.3l-6.3-.3a1.7 1.7 0 1 0-.2 3.4" style="fill:url(#bO)"/><linearGradient id="bP" x1="719.2" x2="728.8" y1="997.6" y2="997.6" gradientUnits="userSpaceOnUse"><stop offset="0" style="stop-color:#dbeafe"/><stop offset="1" style="stop-color:#eff6ff"/></linearGradient><path d="m720.9 999.3 6.4-.3a1.6 1.6 0 0 0-.2-3l-6.3.2a1.6 1.6 0 1 0 0 3.1" style="fill:url(#bP)"/><linearGradient id="bQ" x1="740.5" x2="749.8" y1="995.8" y2="995.8" gradientUnits="userSpaceOnUse"><stop offset="0" style="stop-color:#dbeafe"/><stop offset="1" style="stop-color:#eff6ff"/></linearGradient><path d="m742.2 997.7 6.3-.9a1.5 1.5 0 0 0-.3-2.9l-6.4.8a1.5 1.5 0 0 0 .4 3" style="fill:url(#bQ)"/><linearGradient id="bR" x1="761.6" x2="770.6" y1="992.1" y2="992.1" gradientUnits="userSpaceOnUse"><stop offset="0" style="stop-color:#dbeafe"/><stop offset="1" style="stop-color:#eff6ff"/></linearGradient><path d="m763.3 994.2 6.2-1.4a1.4 1.4 0 0 0-.6-2.7l-6.2 1.3a1.4 1.4 0 1 0 .6 2.8" style="fill:url(#bR)"/><linearGradient id="bS" x1="782.2" x2="791" y1="986.6" y2="986.6" gradientUnits="userSpaceOnUse"><stop offset="0" style="stop-color:#dbeafe"/><stop offset="1" style="stop-color:#eff6ff"/></linearGradient><path d="m784 988.8 6-2a1.3 1.3 0 0 0-.7-2.4l-6.1 1.9a1.3 1.3 0 1 0 .8 2.5" style="fill:url(#bS)"/><linearGradient id="bT" x1="802.3" x2="810.7" y1="979.2" y2="979.2" gradientUnits="userSpaceOnUse"><stop offset="0" style="stop-color:#dbeafe"/><stop offset="1" style="stop-color:#eff6ff"/></linearGradient><path d="m804 981.6 6-2.6a1.2 1.2 0 0 0-1-2.2l-5.9 2.5a1.2 1.2 0 1 0 1 2.3" style="fill:url(#bT)"/><linearGradient id="bU" x1="821.7" x2="829.6" y1="969.9" y2="969.9" gradientUnits="userSpaceOnUse"><stop offset="0" style="stop-color:#dbeafe"/><stop offset="1" style="stop-color:#eff6ff"/></linearGradient><path d="m823.4 972.5 5.6-3.2a1.1 1.1 0 0 0-1.1-2l-5.6 3.1a1.2 1.2 0 0 0 1 2" style="fill:url(#bU)"/><linearGradient id="bV" x1="840" x2="846.3" y1="959.1" y2="959.1" gradientUnits="userSpaceOnUse"><stop offset="0" style="stop-color:#dbeafe"/><stop offset="1" style="stop-color:#eff6ff"/></linearGradient><path d="m841.7 961.4 4.1-2.8a1 1 0 0 0-1.2-1.8l-4.1 2.8a1 1 0 1 0 1.2 1.8" style="fill:url(#bV)"/><path d="M581.7 542.5a6.5 6.5 0 0 1-6.1-4.4l-9.1-25.7q-19-4.6-35.7-14.4L506.3 510a6.5 6.5 0 0 1-7.5-1.2l-25.2-24.8c-2-2-2.5-5-1.3-7.5L484 452q-10-16.6-15-35.5l-25.8-8.6a6.5 6.5 0 0 1-4.5-6.2l-.3-35.4c0-2.7 1.7-5.2 4.4-6.2l25.7-9q4.6-19 14.4-35.8L470.8 291a6.5 6.5 0 0 1 1.2-7.5l24.8-25.2c2-2 5-2.5 7.4-1.3l24.7 11.7q16.6-10.1 35.4-15l8.7-25.9a6.5 6.5 0 0 1 6.1-4.4l35.4-.3h.1c2.8 0 5.2 1.7 6.1 4.3l9.1 25.8q19 4.6 35.7 14.4l24.5-12.1a6.5 6.5 0 0 1 7.4 1.1l25.3 24.9c2 2 2.5 5 1.3 7.4l-11.8 24.7q10.2 16.6 15 35.4l26 8.7c2.6.9 4.4 3.3 4.4 6.1l.3 35.4c0 2.8-1.7 5.3-4.4 6.2l-25.7 9.1q-4.6 18.9-14.4 35.7l12.1 24.5c1.3 2.4.8 5.4-1.2 7.4l-24.8 25.3c-2 2-5 2.5-7.5 1.3l-24.6-11.8q-16.6 10.2-35.4 15l-8.7 26a6.5 6.5 0 0 1-6.1 4.4zm-50.6-53.9 2 1.2q17.5 10.6 37.4 15.1l2.2.5 10.2 28.9 33-.3 9.7-29 2.2-.5q19.9-4.8 37.2-15.8l1.9-1.2 27.6 13.2 23.2-23.6-13.7-27.4 1.2-1.9q10.6-17.5 15.2-37.4l.5-2.2 28.8-10.2-.3-33-29-9.8-.5-2.2A124 124 0 0 0 704 316l-1.2-2 13.2-27.5-23.6-23.2-27.3 13.6-2-1.1q-17.5-10.7-37.4-15.2l-2.2-.5-10.2-28.8-33 .3-9.7 29-2.2.5a124 124 0 0 0-37.2 15.7l-1.9 1.2-27.6-13.1-23.2 23.5 13.7 27.4-1.2 2Q480.5 335 475.9 355l-.5 2.2-28.8 10.3.3 33 29 9.7.5 2.2q4.8 19.9 15.8 37.2l1.2 1.9-13.2 27.6 23.5 23.2zm66.5-15.7A89 89 0 0 1 535 447a89 89 0 0 1-26.8-63 89 89 0 0 1 25.7-63.6 89 89 0 0 1 82.1-24.9 4 4 0 0 1-1.7 8 80.8 80.8 0 0 0-74.6 22.6 81 81 0 0 0-23.3 57.8c.2 21.7 8.8 42 24.3 57.3a81 81 0 0 0 57.7 23.4 81 81 0 0 0 57.4-24.3 81 81 0 0 0 11.5-99.4 4 4 0 0 1 7-4.3 89.4 89.4 0 0 1-75.8 136.2z" style="fill:#60a5fa"/><path d="M598 418.3a35 35 0 0 1-34.2-26.6 35.3 35.3 0 0 1 25.4-43.4 35.6 35.6 0 1 1 8.9 70m-6.8-62a27 27 0 0 0-19.5 33.3 27 27 0 0 0 33.4 19.6 27 27 0 0 0 19.5-33.4 27.4 27.4 0 0 0-33.4-19.5M443.6 675.5q-2 0-3.4-1.8l-7.5-10q-8.9.3-17.5-1.6l-9.2 8.6a4 4 0 0 1-4.8.6l-15.1-7.9a4 4 0 0 1-2.2-4.4l1.8-12.3q-6.5-6-11.3-13.6l-12.5-.4a4 4 0 0 1-4-3l-5-16.2c-.5-1.7 0-3.6 1.5-4.7l10.1-7.4q-.4-8.9 1.6-17.6l-8.6-9.1a4 4 0 0 1-.7-4.9l8-15a4 4 0 0 1 4.3-2.3l12.4 1.9q6-6.6 13.6-11.3l.3-12.5c0-1.8 1.3-3.4 3-4l16.3-5c1.7-.6 3.6 0 4.6 1.5l7.5 10q8.9-.4 17.5 1.7l9.2-8.6a4 4 0 0 1 4.8-.7l15.1 7.9c1.6.8 2.5 2.6 2.2 4.4l-1.8 12.4q6.6 6 11.3 13.5l12.5.4q2.9.2 4 3l5 16.2c.5 1.7 0 3.6-1.5 4.7l-10.1 7.4q.4 9-1.6 17.6l8.6 9.1a4 4 0 0 1 .7 4.9l-8 15a4 4 0 0 1-4.3 2.3l-12.4-1.9q-6 6.6-13.6 11.3l-.3 12.6c0 1.8-1.3 3.3-3 3.9l-16.2 5zm-7.9-18.2 8.6 11.7 13.7-4.3.4-14.5 1.5-.9a59 59 0 0 0 14.6-12.2l1-1.2L490 638l6.6-12.7-10-10.5.5-1.7a59 59 0 0 0 1.7-19l-.1-1.6 11.6-8.6-4.2-13.7-14.5-.4-1-1.5a59 59 0 0 0-12.1-14.6l-1.3-1.1 2.2-14.4-12.7-6.6-10.6 10-1.6-.5a59 59 0 0 0-19-1.7l-1.7.1-8.6-11.7-13.7 4.3-.4 14.5-1.5.9a59 59 0 0 0-14.6 12.2l-1 1.3-14.5-2.2-6.6 12.7 10 10.6-.4 1.6a59 59 0 0 0-1.8 19l.2 1.7-11.7 8.6 4.2 13.6 14.6.5.8 1.4a59 59 0 0 0 12.2 14.6l1.3 1.1-2.2 14.4 12.7 6.7 10.6-10 1.6.4a59 59 0 0 0 19 1.7zm-6.1-14.4a44.2 44.2 0 0 1-4-88.2 3 3 0 0 1 .6 6.1q-4 .4-8 1.6a38 38 0 1 0 36.7 8 3 3 0 0 1 4.1-4.6 44.1 44.1 0 0 1-29.4 77.1" style="fill:#60a5fa"/><linearGradient id="bW" x1="1922.7" x2="2059.8" y1="801.5" y2="1375" gradientUnits="userSpaceOnUse"><stop offset="0" style="stop-color:#2563eb"/><stop offset="1" style="stop-color:#3b82f6"/></linearGradient><path d="M2009 1009s-23.6 22.4-31.4 62.2-26.3-56.2-26.3-56.2h-18.7s-7.1 98.9 45.7 106.7c10.1 1.5 20.2-2.5 26.5-10.5 9.7-12.2 24.7-34 28.4-54.8-3.2-32.7-24.2-47.4-24.2-47.4" style="fill:url(#bW)"/><linearGradient id="bX" x1="2148.6" x2="2150.9" y1="1584.2" y2="1514.9" gradientTransform="translate(-43.1)" gradientUnits="userSpaceOnUse"><stop offset="0" style="stop-color:#2563eb"/><stop offset="1" style="stop-color:#3b82f6"/></linearGradient><path d="M2128.8 1467v-.9c-4.5-17.5-22.6-26.5-22.6-26.5l-8.7.7c-5 15.4-8.2 23-7.4 27.2v.4c7.3.6 22 1 38.7-.9" style="fill:url(#bX)"/><linearGradient id="bY" x1="2231" x2="2088.1" y1="1406.7" y2="1518.9" gradientTransform="translate(-43.1)" gradientUnits="userSpaceOnUse"><stop offset="0" style="stop-color:#1e3a8a"/><stop offset="1" style="stop-color:#1e40af"/></linearGradient><path d="M2090.2 1467.9a4 4 0 0 0 2.7 2.7c10.3 2.2 26.5.5 33.3-.4 1.5-.2 2.6-1.6 2.6-3.2a207 207 0 0 1-38.6.9" style="fill:url(#bY)"/><linearGradient id="bZ" x1="1291.7" x2="1283.9" y1="1408.4" y2="1476.1" gradientTransform="matrix(-1 0 0 1 3394.4 0)" gradientUnits="userSpaceOnUse"><stop offset="0" style="stop-color:#ff928e"/><stop offset="1" style="stop-color:#feb3b1"/></linearGradient><path d="m2113.4 1426-3.8 18.4a3 3 0 0 1-2.6 2.5q-2.4.3-5.9-.1c-2-.3-3.3-2.3-3-4.5l2.7-16.3z" style="fill:url(#bZ)"/><linearGradient id="ca" x1="1423.4" x2="1285.2" y1="1440" y2="1548.5" gradientTransform="matrix(-1 0 0 1 3394.4 0)" gradientUnits="userSpaceOnUse"><stop offset="0" style="stop-color:#1e3a8a"/><stop offset="1" style="stop-color:#1e40af"/></linearGradient><path d="M2016.2 1467.7c9.3-.3 14.1-1.4 16.6-2.4v2.9q-.2 1.7-1.8 1.8l-51-.3c-1.6 0-2.6-1.9-1.9-3.4 6.7.6 23.8 1.8 38.1 1.4" style="fill:url(#ca)"/><linearGradient id="cb" x1="1383.5" x2="1385.8" y1="1627.1" y2="1557.8" gradientTransform="matrix(-1 0 0 1 3394.4 0)" gradientUnits="userSpaceOnUse"><stop offset="0" style="stop-color:#2563eb"/><stop offset="1" style="stop-color:#3b82f6"/></linearGradient><path d="m1978.1 1466.3.2-.4a65 65 0 0 1 38.7-24.3l10.9-.3s4.8 8.4 5 24c-2.6 1-7.4 2.1-16.7 2.4-14.3.4-31.4-.8-38-1.4" style="fill:url(#cb)"/><linearGradient id="cc" x1="1373.4" x2="1366.1" y1="1417" y2="1480.4" gradientTransform="matrix(-1 0 0 1 3394.4 0)" gradientUnits="userSpaceOnUse"><stop offset="0" style="stop-color:#ff928e"/><stop offset="1" style="stop-color:#feb3b1"/></linearGradient><path d="m2029.9 1424.8-2.2 18c-.1 1-1 2-2 2-1.8.3-4.8.5-7.5 0-1.4-.3-2.4-1.7-2.4-3.3v-19.3z" style="fill:url(#cc)"/><linearGradient id="cd" x1="-483.2" x2="-474.5" y1="1415" y2="1142.2" gradientTransform="matrix(-1 0 0 1 1582.6 0)" gradientUnits="userSpaceOnUse"><stop offset="0" style="stop-color:#1e3a8a"/><stop offset="1" style="stop-color:#1e40af"/></linearGradient><path d="M2106.1 1185.1s17.4 154.8 7.8 251.6c0 0-11.7 0-17.5-2 0 0-18-151.3-24-194.6-.1-1.7-2.5-1.7-2.8-.1a16576 16576 0 0 1-39 192.8s-9.6 3.9-17.4 0c0 0 15.5-207 27.1-243.8z" style="fill:url(#cd)"/><linearGradient id="ce" x1="2014.3" x2="2151.4" y1="779.6" y2="1353.1" gradientUnits="userSpaceOnUse"><stop offset="0" style="stop-color:#2563eb"/><stop offset="1" style="stop-color:#3b82f6"/></linearGradient><path d="M2141 1005.2s-73.6-11.6-131.6 3.8l3.8 60s15.5 83.2 27.1 120c0 0 44.5 7.7 65.8-3.9 0 0 17.4-104.5 27.1-120 0 0 9.7-40.6 7.8-60" style="fill:url(#ce)"/><linearGradient id="cf" x1="2081.2" x2="2079.2" y1="937.4" y2="1026.7" gradientUnits="userSpaceOnUse"><stop offset="0" style="stop-color:#ff928e"/><stop offset="1" style="stop-color:#feb3b1"/></linearGradient><path d="m2089.4 942 7.8 59.8s-20.5 9.4-34.8-.4l3-35z" style="fill:url(#cf)"/><linearGradient id="cg" x1="2065.7" x2="2202.7" y1="767.4" y2="1340.8" gradientUnits="userSpaceOnUse"><stop offset="0" style="stop-color:#2563eb"/><stop offset="1" style="stop-color:#3b82f6"/></linearGradient><path d="M2141 1005.2s114.1 123.8-20.4 171.2v-9.7s50.3-42.5 11.6-100.6c0 0 4.9-55.1 8.8-61" style="fill:url(#cg)"/><linearGradient id="ch" x1="-506.2" x2="-568.1" y1="1156.7" y2="1209.5" gradientTransform="matrix(-1 0 0 1 1582.6 0)" gradientUnits="userSpaceOnUse"><stop offset="0" style="stop-color:#ff928e"/><stop offset="1" style="stop-color:#feb3b1"/></linearGradient><path d="M2119.7 1167.7s-17.4-11.6-25.2-7.7c-7.7 3.8-7.7 9.7-7.7 9.7s3.8 7.7 9.6 5.8c5.9-2 19.4 1.9 25.2 0 0 0 2-7.8-2-7.8" style="fill:url(#ch)"/><linearGradient id="ci" x1="-6978.6" x2="-7001.3" y1="239.8" y2="263.8" gradientTransform="rotate(16.7 -4773 31068.4)scale(1 1.2768)" gradientUnits="userSpaceOnUse"><stop offset="0" style="stop-color:#1e3a8a"/><stop offset="1" style="stop-color:#1e40af"/></linearGradient><path d="m1931.4 952.4 24.6 8.3c3 .9 5 3.9 5.2 7.7l-1.2 41c.4 6.4-5 12-10 10.6l-19.6-6.7c-2-.6-3.2-2.6-3.2-5.1l-.5-51c0-3 2.4-5.5 4.7-4.8" style="fill:url(#ci)"/><linearGradient id="cj" x1="1928" x2="1930.6" y1="966.9" y2="1008.5" gradientUnits="userSpaceOnUse"><stop offset="0" style="stop-color:#ff928e"/><stop offset="1" style="stop-color:#feb3b1"/></linearGradient><path d="M1926.7 1005.2s-7.7-24.7-3.8-28.8 11.7-15.6 12.3-6.2c.5 9.3 5.2 49.7-8.5 35" style="fill:url(#cj)"/><linearGradient id="ck" x1="2132.5" x2="2042.5" y1="932.6" y2="955.9" gradientUnits="userSpaceOnUse"><stop offset="0" style="stop-color:#ff928e"/><stop offset="1" style="stop-color:#feb3b1"/></linearGradient><path d="M2044.3 931.9c0 .7 8.7 47.5 8.7 47.5l26.6-5.6-1.7-45.5s-31.6-8.3-33.6 3.6" style="fill:url(#ck)"/><linearGradient id="cl" x1="-4592.9" x2="-4527.7" y1="-3277.4" y2="-3277.4" gradientTransform="rotate(9.2 -23071 -16749.7)scale(-1 1)" gradientUnits="userSpaceOnUse"><stop offset="0" style="stop-color:#1e3a8a"/><stop offset="1" style="stop-color:#1e40af"/></linearGradient><path d="M2070 935.7a4 4 0 0 1 1.8 2.9l2.7 23.5v1.1c-.4 2-1.9 8.1-8.2 6.2-5.4-1.6-10.4-3-14-2.4a4 4 0 0 0-3.1 4.6c.8 4.4 2.7 13.2 5.4 20.8.7 2 2.8 3 4.7 2.4 5.2-1.4 15.2-4.5 22.8-8.9q1.9-1.2 2-3.4c-.2-6.4-.6-24.2 0-29.2.7-4.7 6.4-7.4 9-8.5a4 4 0 0 0 2.3-2.2c1.2-3 2.5-9.4-5.4-12.4-2-.7-3-3-2.3-5 1.2-3.5 1.6-8.7-4.9-11.7s-11.5.1-14.4 3a4 4 0 0 1-4.8.7q-1-.7-2.5 0c-2 .9-4.2.2-5.2-1.7-1.6-3.3-4.9-6.7-11.4-5.7-11.9 1.9-13.5 15-10.5 22.8 3 7.7 15.8 5 22.3 1.2 4.8-2.8 10.8.1 13.6 1.9" style="fill:url(#cl)"/><linearGradient id="cm" x1="-4629.9" x2="-4587.1" y1="-3238.3" y2="-3282.3" gradientTransform="rotate(9.2 -23071 -16749.7)scale(-1 1)" gradientUnits="userSpaceOnUse"><stop offset="0" style="stop-color:#ff928e"/><stop offset="1" style="stop-color:#feb3b1"/></linearGradient><path d="M2083.8 961.2s-3.3-13 1.7-16.2c5.1-3.3 12.5-1.4 10.7 8.5-2.2 12.3-12.4 7.7-12.4 7.7" style="fill:url(#cm)"/><path d="M2031.8 924.7q-.2 0-.4-.2c-4.3-9.3 5.8-16.7 5.9-16.8a.4.4 0 0 1 .5.7c-.1 0-9.7 7-5.6 15.7a.4.4 0 0 1-.4.6" style="fill:#fff"/><path d="M1872.1 953.7v84.6c0 7-4.2 12.5-9.4 12.5h-308.1c-4.3 0-8 3.9-9.1 9.5l-5.5 29.4c-.8 3.9-4.8 4.2-6 .5l-7-25c-1.4-4.8-5-8-8.8-8h-13.3c-5.1 0-9.3-5.5-9.3-12.4v-87c0-6.8 4.1-12.4 9.3-12.5l357.7-4c5.3-.1 9.5 5.5 9.5 12.4" style="fill:#bfdbfe"/><ellipse cx="1543.3" cy="996.6" rx="37.8" ry="38.8" style="fill:#60a5fa"/><linearGradient id="cn" x1="1531.7" x2="1556.9" y1="982.1" y2="982.1" gradientUnits="userSpaceOnUse"><stop offset="0" style="stop-color:#dbeafe"/><stop offset="1" style="stop-color:#eff6ff"/></linearGradient><path d="M1557 980.8c0 7-5.7 14.5-12.7 14.5s-12.6-7.5-12.6-14.5 5.7-11.9 12.6-11.9c7 0 12.6 5 12.6 12" style="fill:url(#cn)"/><linearGradient id="co" x1="1519.9" x2="1568.6" y1="1010.8" y2="1010.8" gradientUnits="userSpaceOnUse"><stop offset="0" style="stop-color:#dbeafe"/><stop offset="1" style="stop-color:#eff6ff"/></linearGradient><path d="M1528.7 1022.2h30.8c3.2 0 6-2.1 7-5.2l1.7-5.2a7.4 7.4 0 0 0-4.5-9.3 57 57 0 0 0-38.7.4 7.4 7.4 0 0 0-4.8 9l1.3 4.8a7.5 7.5 0 0 0 7.2 5.5" style="fill:url(#co)"/><linearGradient id="cp" x1="1602.5" x2="1842.7" y1="1006.7" y2="1006.7" gradientUnits="userSpaceOnUse"><stop offset="0" style="stop-color:#dbeafe"/><stop offset="1" style="stop-color:#eff6ff"/></linearGradient><path d="M1842.7 1006.7c0 4-3.4 7.3-7.7 7.3h-224.9a7.5 7.5 0 0 1-7.6-7.3c0-4 3.4-7.3 7.6-7.3h225c4.2 0 7.6 3.2 7.6 7.3" style="fill:url(#cp)"/><linearGradient id="cq" x1="1605" x2="1736.2" y1="1030.2" y2="1030.2" gradientUnits="userSpaceOnUse"><stop offset="0" style="stop-color:#dbeafe"/><stop offset="1" style="stop-color:#eff6ff"/></linearGradient><path d="M1736.2 1030.2c0 3.7-3 6.7-6.7 6.7h-117.9c-3.7 0-6.6-3-6.6-6.7s3-6.7 6.6-6.7h118c3.6 0 6.6 3 6.6 6.7" style="fill:url(#cq)"/><linearGradient id="cr" x1="1744.4" x2="1842.8" y1="1030.2" y2="1030.2" gradientUnits="userSpaceOnUse"><stop offset="0" style="stop-color:#dbeafe"/><stop offset="1" style="stop-color:#eff6ff"/></linearGradient><path d="M1842.8 1030.2c0 3.7-3 6.7-6.7 6.7h-85c-3.7 0-6.7-3-6.7-6.7s3-6.7 6.6-6.7h85.1c3.7 0 6.7 3 6.7 6.7" style="fill:url(#cr)"/><path d="M1734.1 971.1c0 5.2-4.2 9.4-9.3 9.4h-113.6a9.4 9.4 0 0 1-9.3-9.4v-.7c0-5.2 4.2-9.4 9.3-9.4h113.6c5.1 0 9.3 4.2 9.3 9.4z" style="fill:#60a5fa"/><linearGradient id="cs" x1="685.9" x2="687.9" y1="928.8" y2="1454.8" gradientUnits="userSpaceOnUse"><stop offset="0" style="stop-color:#1e3a8a"/><stop offset="1" style="stop-color:#1e40af"/></linearGradient><path d="M837.7 999.4c0 74.3-.7 330.8-5.1 421.6-.5 9.6-7.2 17.2-15.5 17.3-40.7.6-190 1.3-256.4-3.5-13.9-1-24.6-14.3-24.5-30.6.3-78 2.1-297.5 11.6-397.8 1.1-12 9.4-21.4 19.7-22.4 44.5-4.2 194.5-13.6 252-8 10.3 1 18.2 11.2 18.2 23.4" style="fill:url(#cs)"/><linearGradient id="ct" x1="-5514" x2="-6130.2" y1="1056.6" y2="1844.8" gradientTransform="rotate(-178.7 -2438.4 -19.7)scale(1 -1)" gradientUnits="userSpaceOnUse"><stop offset="0" style="stop-color:#2563eb"/><stop offset="1" style="stop-color:#3b82f6"/></linearGradient><path d="M819 1021.8c.9 60 3.4 259.7-.5 333.4-.5 10.8-8 19.4-17.2 19.8-38 1.8-167.5 4.6-223-1.8-10-1.2-17.6-10.8-17.9-22.6-1.5-61.2-5.4-247.2-1.7-320.1.6-11.7 8.5-21 18.4-21.8 41.1-3.4 178.8-10.6 226-6.6 8.9.8 15.8 9.3 16 19.7" style="fill:url(#ct)"/><linearGradient id="cu" x1="665.6" x2="721.8" y1="988.9" y2="988.9" gradientUnits="userSpaceOnUse"><stop offset="0" style="stop-color:#2563eb"/><stop offset="1" style="stop-color:#3b82f6"/></linearGradient><path d="M721.8 988.1c0 2.3-1.7 4.2-3.6 4.2l-48.8 2c-2.4.1-4.3-2.4-3.7-5.1v-.5c.4-1.9 1.8-3.3 3.4-3.4 8.2-.7 33-2.6 49.2-1.5 2 .1 3.5 2 3.5 4.3" style="fill:url(#cu)"/><linearGradient id="cv" x1="593.5" x2="784.3" y1="1189.2" y2="1189.2" gradientUnits="userSpaceOnUse"><stop offset="0" style="stop-color:#dbeafe"/><stop offset="1" style="stop-color:#eff6ff"/></linearGradient><circle cx="688.9" cy="1189.2" r="95.4" style="fill:url(#cv)"/><linearGradient id="cw" x1="629.6" x2="748.2" y1="1189.2" y2="1189.2" gradientUnits="userSpaceOnUse"><stop offset="0" style="stop-color:#2563eb"/><stop offset="1" style="stop-color:#3b82f6"/></linearGradient><path d="M747.6 1214.1a17 17 0 0 0-10.1-11.2l-6.9-2.7a13 13 0 0 0-15.4 4.3l-6 8.2a50 50 0 0 1-30.6-10.6 51 51 0 0 1-18.2-25h.3l5.5-7.3a15 15 0 0 0-.2-18.4l-4.6-5.7a17.2 17.2 0 0 0-27.2.4 22 22 0 0 0-3.6 7.4c-5.1 17.9 9.3 45 35.9 64.8 26.5 19.9 56.5 26 72.2 16.2q3.6-2.3 6.1-5.6a17 17 0 0 0 2.8-14.8" style="fill:url(#cw)"/><linearGradient id="cx" x1="546" x2="576.4" y1="1381.7" y2="1381.7" gradientUnits="userSpaceOnUse"><stop offset="0" style="stop-color:#2563eb"/><stop offset="1" style="stop-color:#3b82f6"/></linearGradient><path d="M575.3 1421.6c-16 0-29.3-13-29.3-29v-49.9q0-.9 1-1c1-.1 1 .5 1 1v49.8c0 15 12.4 27 27.3 27q1 .1 1 1t-1 1.1" style="fill:url(#cx)"/><linearGradient id="cy" x1="1673.8" x2="1483.3" y1="1414.4" y2="1621.7" gradientTransform="translate(-1198.5)" gradientUnits="userSpaceOnUse"><stop offset="0" style="stop-color:#1e3a8a"/><stop offset="1" style="stop-color:#1e40af"/></linearGradient><path d="M415 1429.8s-2 11.2-2.9 22.3c-.4 4.3 3 8 7.3 8.2 14.7.6 46.2 1.8 57.5 1.3 1.7 0 2.9-1.8 2.2-3.4a6 6 0 0 0-2.8-3l-52-23.9z" style="fill:url(#cy)"/><linearGradient id="cz" x1="1612" x2="1628.9" y1="1429.8" y2="1429.8" gradientTransform="translate(-1198.5)" gradientUnits="userSpaceOnUse"><stop offset="0" style="stop-color:#ff928e"/><stop offset="1" style="stop-color:#feb3b1"/></linearGradient><path d="m413.4 1423.3 1.6 13.3s9.2 4.3 15.4-.5l-3.8-14.9z" style="fill:url(#cz)"/><linearGradient id="cA" x1="1581.3" x2="1618.7" y1="1414.7" y2="1197.5" gradientTransform="translate(-1198.5)" gradientUnits="userSpaceOnUse"><stop offset="0" style="stop-color:#1e3a8a"/><stop offset="1" style="stop-color:#1e40af"/></linearGradient><path d="M414.6 1172c-.6 3.5-3.6 174.2 14.6 250.7.3 1.2-.3 2.5-1.5 3a45 45 0 0 1-14.9 3c-2 0-3.8-1.3-4.4-3.2-5.2-17.8-30.2-106.7-33.5-191.6-3.6-94.9 0-3.2 0-3.2l2.2-58.7z" style="fill:url(#cA)"/><linearGradient id="cB" x1="1631.1" x2="1440.5" y1="1375.1" y2="1582.4" gradientTransform="translate(-1198.5)" gradientUnits="userSpaceOnUse"><stop offset="0" style="stop-color:#1e3a8a"/><stop offset="1" style="stop-color:#1e40af"/></linearGradient><path d="M355.2 1435.7s-3.1 5.6-6.2 20.6a4.6 4.6 0 0 0 4.1 5.6c4.9.4 12.4 1 18.4 1 2.7 0 4.9-2.4 4.5-5.2a39 39 0 0 0-9-21.4z" style="fill:url(#cB)"/><linearGradient id="cC" x1="1551" x2="1565.6" y1="1428.9" y2="1428.9" gradientTransform="translate(-1198.5)" gradientUnits="userSpaceOnUse"><stop offset="0" style="stop-color:#ff928e"/><stop offset="1" style="stop-color:#feb3b1"/></linearGradient><path d="m352.4 1418.5 3.8 20.2s3.6 2.7 10.9.7l-1.8-21.7z" style="fill:url(#cC)"/><linearGradient id="cD" x1="1539" x2="1576.4" y1="1407.5" y2="1190.2" gradientTransform="translate(-1198.5)" gradientUnits="userSpaceOnUse"><stop offset="0" style="stop-color:#1e3a8a"/><stop offset="1" style="stop-color:#1e40af"/></linearGradient><path d="M342.4 1177.3c-14.9 90 3.3 222.5 9.4 248.4a4 4 0 0 0 3.3 3.1c2.7.5 7.2.8 11.6-.4a4 4 0 0 0 2.7-3.5c.8-21-.7-149.6 13.2-200.5q1.1-4 4.5-6.4l27-19.2 2-31z" style="fill:url(#cD)"/><linearGradient id="cE" x1="1379.6" x2="1235.6" y1="1475.1" y2="1741.1" gradientTransform="translate(-1198.5)" gradientUnits="userSpaceOnUse"><stop offset="0" style="stop-color:#fe7062"/><stop offset="1" style="stop-color:#ff928e"/></linearGradient><path d="M437.5 1006.7c-44.7-.8-94 11.7-94 11.7C330 1096.2 341 1186 341 1186c34.6 9 73.7-5.6 73.7-5.6 5.7-32.5 32.6-124 32.6-124 21.8-2.7 39.8-9 54.6-17.3a96 96 0 0 1-18.9-39.6 150 150 0 0 1-45.6 7.3" style="fill:url(#cE)"/><linearGradient id="cF" x1="1681.6" x2="1768.1" y1="988.2" y2="988.2" gradientTransform="translate(-1198.5)" gradientUnits="userSpaceOnUse"><stop offset="0" style="stop-color:#ff928e"/><stop offset="1" style="stop-color:#feb3b1"/></linearGradient><path d="M569.6 940.8c-4.4-5.3-10-2.8-10-2.8-6.6 27.8-41 50.4-76.5 61.4a96 96 0 0 0 19 39.6c58.8-33 67.5-98.2 67.5-98.2" style="fill:url(#cF)"/><linearGradient id="cG" x1="7462.9" x2="7521" y1="973.7" y2="1105.7" gradientTransform="matrix(-1 0 0 1 8013.2 0)" gradientUnits="userSpaceOnUse"><stop offset="0" style="stop-color:#ff928e"/><stop offset="1" style="stop-color:#feb3b1"/></linearGradient><path d="M568.5 942.2c.5 1.4-4.9 3.7-8-2.3-.1-2.9-1.8-15.1-.1-17.5 9-12.4 26.8-28 26.8-28 3 3 .5 5.9.5 5.9l-8.6 8.9c1.8 3.2 4 6 5 9.9q1.1 4.6-1.2 8.8c-1.5 2.7-3.5 6.3-5.5 9-3.7 5.2-8.9 5.3-8.9 5.3" style="fill:url(#cG)"/><linearGradient id="cH" x1="495.7" x2="621.7" y1="1013.4" y2="869.4" gradientUnits="userSpaceOnUse"><stop offset="0" style="stop-color:#ff928e"/><stop offset="1" style="stop-color:#feb3b1"/></linearGradient><path d="m575.4 915-7.9 6.6-2.4 6.6 7 7.7s2.3-13 4-15.9c1.8-2.8.9-4.2-.7-5" style="fill:url(#cH)"/><linearGradient id="cI" x1="1323" x2="1179" y1="1444.5" y2="1710.5" gradientTransform="translate(-1198.5)" gradientUnits="userSpaceOnUse"><stop offset="0" style="stop-color:#fe7062"/><stop offset="1" style="stop-color:#ff928e"/></linearGradient><path d="m360.6 1061.7-17.1-43.3s-41.8 28.4-48.7 64.4a95 95 0 0 1 35.2 9.8c6.4-14.2 30.6-30.9 30.6-30.9" style="fill:url(#cI)"/><linearGradient id="cJ" x1="399.6" x2="381.6" y1="991.2" y2="1127.2" gradientUnits="userSpaceOnUse"><stop offset="0" style="stop-color:#ff928e"/><stop offset="1" style="stop-color:#feb3b1"/></linearGradient><path d="m392.2 970.4-14.2 41.1q-.3 1.2.7 1.8a33 33 0 0 0 34.7-2.3 7 7 0 0 0 3.2-5l4.6-35.6z" style="fill:url(#cJ)"/><linearGradient id="cK" x1="-3032.8" x2="-3092.8" y1="2086.5" y2="1975.5" gradientTransform="rotate(-41.8 293 -6580.8)" gradientUnits="userSpaceOnUse"><stop offset="0" style="stop-color:#ff928e"/><stop offset="1" style="stop-color:#feb3b1"/></linearGradient><path d="M423.2 932.3s15.6 29.4 13.6 41.3-21.4 11-38.3 1.3l-11.8-31.7z" style="fill:url(#cK)"/><linearGradient id="cL" x1="-1711.6" x2="-1578.7" y1="-4239.8" y2="-4391.6" gradientTransform="rotate(-41.8 293 -6580.8)" gradientUnits="userSpaceOnUse"><stop offset="0" style="stop-color:#1e3a8a"/><stop offset="1" style="stop-color:#1e40af"/></linearGradient><path d="M399.3 959.4q1.1-.7.5-1.8c-1.3-2-3.6-5.8-4.3-9.2 0 0-2.9-1.8 7.1-4.2s24.8-6.1 28-14.6c3-8.2-5-29-17.8-12.5q-1 1-1.9 0c-2-2.7-7.6-8.3-15.2-4.9-7.2 3.2-8 8.4-7.9 11q-.1 1.4-1.4 1.3c-3.6-.7-12.3-1.3-16.3 7.6-3.4 7.3-1.2 11.5.8 13.5.6.7.3 1.7-.5 2-2.4.7-5.5 2.8-5.2 8.3.5 7.7 9 7 11.5 6.7q.6-.1 1 .4c2.2 2.3 11.6 12.1 21.9 13.3.8.1 1.5-.8 1.2-1.6l-4.4-12.9q-.3-1 .7-1.5z" style="fill:url(#cL)"/><linearGradient id="cM" x1="-3044.5" x2="-3104.5" y1="2092.8" y2="1981.8" gradientTransform="rotate(-41.8 293 -6580.8)" gradientUnits="userSpaceOnUse"><stop offset="0" style="stop-color:#ff928e"/><stop offset="1" style="stop-color:#feb3b1"/></linearGradient><path d="M401 961.2s-11-7.7-11.9-1.2c-.8 6.4 10 9.3 15.4 6.9z" style="fill:url(#cM)"/><linearGradient id="cN" x1="1581.7" x2="1492.7" y1="1171.9" y2="1100.6" gradientTransform="translate(-1198.5)" gradientUnits="userSpaceOnUse"><stop offset="0" style="stop-color:#ff928e"/><stop offset="1" style="stop-color:#feb3b1"/></linearGradient><path d="M295.1 1083.1s-28.5 65 41.3 74.5l9.5-7.9s-35-19-15.9-57c0 0-20.6-17.5-34.9-9.6" style="fill:url(#cN)"/><linearGradient id="cO" x1="-8450.4" x2="-8473.2" y1="720.8" y2="744.8" gradientTransform="rotate(16.7 -4773 31068.4)scale(1 1.2768)" gradientUnits="userSpaceOnUse"><stop offset="0" style="stop-color:#1e3a8a"/><stop offset="1" style="stop-color:#1e40af"/></linearGradient><path d="m345.2 1117.3 24.6 8.3c3 1 5 4 5.3 7.7l-1.3 41c.4 6.4-5 12.1-10 10.6l-19.6-6.7c-2-.6-3.2-2.6-3.2-5l-.5-51.1c0-3 2.5-5.4 4.7-4.8" style="fill:url(#cO)"/><linearGradient id="cP" x1="352" x2="335.4" y1="1140.1" y2="1152.5" gradientUnits="userSpaceOnUse"><stop offset="0" style="stop-color:#ff928e"/><stop offset="1" style="stop-color:#feb3b1"/></linearGradient><path d="M338.9 1166c-.7-.8-5.3-9.2-4-20.4 1-11.3-1.1-16.3 4.1-16 5.3.5 9.6 1.4 9 7s1 40.6-9.1 29.3" style="fill:url(#cP)"/></svg>