<svg xmlns="http://www.w3.org/2000/svg" xml:space="preserve" viewBox="0 0 3710 3710"><linearGradient id="a" x1="3492.7" x2="1410.7" y1="3292.4" y2="1470.7" gradientUnits="userSpaceOnUse"><stop offset="0" style="stop-color:#dbeafe"/><stop offset="1" style="stop-color:#eff6ff"/></linearGradient><path d="M3138.9 2346.3c-269.1 633.6-985.9 988.5-1607.4 892.8-101.2-15.6-378.5-62-624-281C435 2536.7 334 1702.1 715.1 1114 992.6 686 1490 443.3 1962.6 455.4c101.8 2.6 492 18.8 834.8 301.5a1286 1286 0 0 1 261.6 296.7c235 367.6 255.2 879.8 79.9 1292.7" style="fill:url(#a)"/><path d="M583 536.3c-2.7-11 12.9-18.4 22.4-10.7C702 603.9 934 838.5 876.2 1248.4c-72.5 514.3 51.5 702 206 816.5 0 0-212.1-53.8-345.6-244.3C409 1353.1 629.1 732.6 583 536.3" style="fill:#bfdbfe"/><path d="M656.4 697a2708 2708 0 0 1 51 345.7c4.4 58 7.4 116 7.6 174 .5 58-2 116-4.6 174.2-2.3 58.2-5 116.8-.7 175.8a521 521 0 0 0 61.1 215.2q10.8 20.1 22.9 39.8a629 629 0 0 0 54.8 75.4c40.8 47.8 90 90.3 144.3 126.2a14.4 14.4 0 0 0 18.2-2c4.3-4.9 3.4-11.8-2-15.6h-.1q-19.4-13.5-38-28-9.1-7.1-18.2-14.5c-5.8-5-11.9-10-17.5-15.1a624 624 0 0 1-157.5-216 509 509 0 0 1-40.5-167c-4.6-57.2-2.5-115.3-.7-173.5 1.7-58.2 3-116.7 1.4-175.2q-1-43.8-3.8-87.6-1.4-22-3.2-43.7-2-22-4.2-43.7a2454 2454 0 0 0-25-173.8c-10.8-57.7-23.3-115-38.4-171.9-.4-1.6-2.3-2.6-4.2-2.3-1.8.4-3 2-2.7 3.5" style="fill:#fff"/><path d="M833.2 1767.3a24.3 24.3 0 0 1-39.8-6.7A742 742 0 0 1 812 1124c124.1-248.5 167.8-395 183-463a15.2 15.2 0 0 1 28.8-2.8c65.5 148.6 238.6 653.8-190.6 1109.1" style="fill:#93c5fd"/><path d="M811.7 1758.2h-1.3a6.7 6.7 0 0 1-6.7-6.8c0-4.2 8.3-426 165.2-779.4a6.7 6.7 0 0 1 12.3 5.5c-155.7 350.7-164 770-164 774.1 0 3.3-2.4 6-5.5 6.6" style="fill:#fff"/><linearGradient id="b" x1="-159.3" x2="2179" y1="6336.7" y2="-1565" gradientTransform="matrix(-1 0 0 1 3686 0)" gradientUnits="userSpaceOnUse"><stop offset="0" style="stop-color:#3b82f6"/><stop offset="1" style="stop-color:#2563eb"/></linearGradient><path d="M2512.4 1115.7c-37.6-66-66.5-154.7-7.5-221.2 106.7-120 319.9-146.6 373.2 40 22 77.2 6.5 137.2-19.4 181a61 61 0 0 0 52.7 91.8h340v453.4c0 41-46.1 64.4-79.7 41-228-158.2-347 28.5-347.2 112.5-.3 93.3 40.3 313.2 186.9 306.5 67-3 122.9-25.5 163.8-49.1a50.5 50.5 0 0 1 76.1 43.3v422.7h-351.7a52.5 52.5 0 0 0-44 81.2c26.1 40.2 48 98.6 49.2 181.7 3 211.4-319.9 173.2-399.9 106.6-57-47.6-59.4-200.2-15-294.6 16.5-34.9-10.6-74.9-49.1-74.9h-342.4v-462.5a43.4 43.4 0 0 0-65.6-37.2c-59 35-150 78.9-241 82.8-153.2 6.7-173.2-166.6-179.9-299.9-5.8-117.7 218.6-308.2 395.7-192 29 19 88.6 46.8 88.6 12.1v-433.6h363.4a61 61 0 0 0 52.8-91.6" style="fill:url(#b)"/><path d="M2700.7 2966.5q-26.9 0-55.4-3.6c-61-7.7-116.4-27-144.7-50.6-61.6-51.4-60.7-209.4-16.8-302.7a44 44 0 0 0-3-43.1 47 47 0 0 0-40-22.2h-342.4c-3.7 0-6.7-3-6.7-6.7v-462.5c0-13.4-7-25.3-18.5-31.8a36 36 0 0 0-37 .4c-60.6 36-152.1 79.8-244 83.8-70.7 3.1-121.7-31.1-151.5-101.6-25.2-59.8-32.1-137-35.5-204.7-3.2-64.4 56.5-146.6 142-195.6 91-52 187.2-53 264.1-2.5 26.8 17.5 62.9 32.5 74.6 26.2 1-.5 3.6-2 3.6-8.4v-433.6c0-3.8 3-6.8 6.7-6.8h363.4a54.3 54.3 0 0 0 47-81.5c-53.8-94.3-56-173.4-6.7-229 65.2-73.3 168.7-111.2 251.8-92.3 65 14.8 112.3 62.8 132.9 135 19.5 68 12.7 130.7-20 186.3a53 53 0 0 0-.4 54 54 54 0 0 0 47.2 27.5h340c3.6 0 6.6 3 6.6 6.8v453.4a56 56 0 0 1-30.4 50.4c-19 10-42 8.5-59.8-3.8-113.1-78.5-192.1-66.2-238.5-42-66.7 34.7-98 109.4-98 148.9-.2 72.2 23 202.2 87.8 264.3a121 121 0 0 0 92 35.5 352 352 0 0 0 160.7-48.3 57.3 57.3 0 0 1 86.2 49.2v422.7c0 3.7-3 6.7-6.7 6.7h-351.7c-17 0-32 9-40.2 23.9a45 45 0 0 0 1.9 46.9c32.3 49.8 49.2 112.1 50.2 185.3 1 65.2-28.8 114.2-86 141.5-34 16.2-77.1 24.6-124.8 24.6m-595.5-435.6h335.6c21 0 40.2 10.6 51.5 28.4a58 58 0 0 1 3.7 56c-45.3 96.2-38.5 243.5 13.2 286.6 53 44.2 213.2 74.2 310.4 27.8 53-25.2 79.3-68.7 78.4-129.1-1-70.6-17.1-130.5-48-178.2a59 59 0 0 1-2.4-60.7 58 58 0 0 1 52-30.8h345v-416a43 43 0 0 0-21.7-37.6 44 44 0 0 0-44.4.1 365 365 0 0 1-166.8 50 134 134 0 0 1-102-39.2c-67.8-65-92.1-199.5-92-274 .2-44.1 33-123.1 105.3-160.9 49.7-25.9 133.8-39.4 252.5 43a43.7 43.7 0 0 0 69-35.6V1214h-333a67 67 0 0 1-59-34.2 67 67 0 0 1 .4-67.7c30.8-52.2 37.1-111.3 18.7-175.7-24.6-86.2-80.4-115.9-122.9-125.5-78.5-18-176.7 18.3-238.7 88.1-31.5 35.4-55.6 101.2 8.2 213.3a67.6 67.6 0 0 1-58.6 101.7H2103v427c0 11.9-5.8 17.5-10.7 20.2-25.8 13.9-85.8-25.1-88.4-26.8-72.5-47.6-163.6-46.5-250 3-80 45.8-138.2 124.5-135.2 183.1 3.3 66.5 10 142.3 34.4 200.1 27.8 65.7 73 96.2 138.5 93.4 89-3.9 178.5-46.7 237.8-82a50 50 0 0 1 50.5-.5 50 50 0 0 1 25.3 43.6z" style="fill:#fcfcfc"/><linearGradient id="c" x1="1457.1" x2="3767.7" y1="4728.5" y2="-3079.6" gradientTransform="matrix(-1 0 0 1 3686 0)" gradientUnits="userSpaceOnUse"><stop offset="0" style="stop-color:#3b82f6"/><stop offset="1" style="stop-color:#2563eb"/></linearGradient><path d="M802.2 2052.6c-40 26.8-92.8 52.9-152.3 58.8-131.7 13.2-184.4-131.7-191-256.8s105.4-243.6 204.2-230.5c46.5 6.2 97.4 35.8 138.3 65.4 33 23.8 79 .4 79-40.4v-449.3h454.7c37.8 0 63-39.2 47.1-73.6-35.7-77.5-75.7-195.3-19.8-246.2 86.8-79 321.4-79 361 39.5 22 66.4-8 146.2-38.8 203.7a52 52 0 0 0 45.8 76.4h388v416.2c0 44.4-50.2 72-86.4 46.2-167.8-119-351.2 6.6-368 146.5-19.7 164.6 85.7 303 197.6 289.8 56.8-6.7 122.2-38.9 172.7-69a55.5 55.5 0 0 1 84.1 47.7v459.7h-447a69.7 69.7 0 0 1-63-99.4c26.3-55 134.6-122.4 128-174.4-13-105.4-247.7-131.4-374-111.8-96.5 15-48.5 165.8 6.3 286.7a69.8 69.8 0 0 1-63.4 98.9H880.4v-443.2a50 50 0 0 0-78.2-41" style="fill:url(#c)"/><path d="M2118.4 2543.4h-447a76.4 76.4 0 0 1-69.2-109c11.4-23.7 37-49.3 61.7-74 34.1-34 69.3-69.3 65.9-96.7q-3.9-30.5-35.3-54.2c-47.5-35.9-189-73.8-331.1-51.8-19.2 3-32.4 11.7-40.5 26.6-22 40.6-4 127.4 52 250.7a76.7 76.7 0 0 1-69.6 108.4H880.4c-3.7 0-6.7-3-6.7-6.7v-443.2a43.3 43.3 0 0 0-67.7-35.3c-51.7 34.6-104 54.8-155.4 60q-64 6.3-110.5-33.6c-23.8-20.5-80.2-83.8-87.9-229.6-3.5-67 27-139 79.7-187.5 40.7-37.6 88.8-55.8 132.1-50 40.1 5.3 87.7 27.7 141.3 66.5a42 42 0 0 0 45 3.5 42 42 0 0 0 23.4-38.4v-449.4c0-3.7 3-6.7 6.7-6.7h454.7a45 45 0 0 0 41-64c-40-87-75.7-201.7-18.3-254 55-50 169.2-70.8 259.8-47.1 58.1 15.2 98 47 112.1 89.5 23 69.2-8.5 151.8-39.1 209a45 45 0 0 0 1 44.5 45 45 0 0 0 38.8 22h388c3.7 0 6.8 3 6.8 6.7v416.2c0 23.5-13.2 45-34.3 55.9a60 60 0 0 1-62.8-4.2c-71.1-50.4-151-60.2-225.1-27.4-71.8 31.9-123.7 98.3-132.3 169.2-10.7 89.8 16.9 180 72.1 235.4 35 35 77 51.7 118 46.9 57.4-6.8 124.2-40.7 170-68a62 62 0 0 1 63-.7 62 62 0 0 1 31.4 54.1v459.7c0 3.7-3 6.7-6.8 6.7m-669.6-405c88.4 0 195.2 16 253.9 60.3q35.9 27.1 40.5 63.4c4.2 33.9-33.4 71.5-69.7 107.8-24 24-48.8 48.7-59.1 70.3a63 63 0 0 0 57.1 89.8h440.2v-453c0-17.8-9.2-33.6-24.6-42.3a49 49 0 0 0-49.3.5c-47 28-115.7 62.7-175.4 69.8-45.2 5.3-91.1-12.7-129.1-50.8-58.1-58.3-87.2-152.7-76-246.5 9.1-75.6 64.1-146.2 140.2-179.9 78.6-34.8 163.3-24.6 238.4 28.7a46 46 0 0 0 48.8 3.2 49 49 0 0 0 27-44v-409.4h-381.3a58 58 0 0 1-50.3-28.5 58 58 0 0 1-1.4-57.8c29.3-54.8 59.8-133.7 38.2-198.3-12.7-38.1-49.2-66.8-102.7-80.8-86.7-22.6-195.3-3.2-247.3 44.1-23.2 21.1-51.3 80.2 21.4 238.4a58.4 58.4 0 0 1-53.2 83H887v442.7a56.3 56.3 0 0 1-89.7 45.8c-51-37-97.8-59.1-135.2-64-39.3-5.3-83.4 11.6-121.2 46.5-49.8 46-78.6 113.7-75.3 176.9 5.1 97.5 36.2 179.8 83.2 220.1q42.2 36 100.4 30.3c49.1-4.9 99.3-24.3 149.1-57.7a57 57 0 0 1 59-3.2 55 55 0 0 1 29.8 49.7v436.4h418.1a63.2 63.2 0 0 0 57.2-89.4c-58.5-129-75.8-217.5-51.4-262.6 10-18.6 27-29.9 50.2-33.5 24.4-3.8 54.7-6 87.5-6" style="fill:#fcfcfc"/><g style="opacity:.3"><path d="M2579.3 915.5a8.4 8.4 0 0 1-9.7-5.9q-4-13.7-7-27.8c-1-4.6 2-9 6.6-10h.1c4.5-.9 8.9 2 9.8 6.5q2.8 13.5 6.7 26.5a8.4 8.4 0 0 1-6.5 10.7m-13-72.2h-1a8.4 8.4 0 0 1-9-7.8q-.9-14.3-.7-28.7a8.4 8.4 0 1 1 16.9.3q-.3 13.6.6 27.3c.3 4.3-2.7 8-6.8 8.9m3.3-73.3a8.5 8.5 0 0 1-9.9-9.6 335 335 0 0 1 5.7-28.2 8.4 8.4 0 0 1 16.4 4q-3.3 13.4-5.5 26.8a8 8 0 0 1-6.7 7m19.6-70.8q-2.4.5-4.7-.4a8.4 8.4 0 0 1-4.7-11q5.4-13.4 11.9-26.2a8.4 8.4 0 0 1 15 7.6q-6.1 12.2-11.3 24.9a8 8 0 0 1-6.2 5.1m34.8-64.6a8.4 8.4 0 0 1-8.4-13q8.1-11.9 17.3-23a8.4 8.4 0 1 1 13 10.8q-8.7 10.5-16.5 21.8a8 8 0 0 1-5.4 3.4m48.3-55.2a8.4 8.4 0 0 1-7.2-14.5q10.6-9.8 22-18.5a8.4 8.4 0 0 1 10.2 13.4 323 323 0 0 0-20.9 17.5 8 8 0 0 1-4 2m299.8-76.5q-1.8.3-3.6 0-13.3-3.3-26.7-5.5a8.4 8.4 0 1 1 2.6-16.6q14.2 2.3 28.1 5.7a8.4 8.4 0 0 1-.4 16.4m-240.5 33.3a8.4 8.4 0 0 1-5.7-15.6q12.5-7 25.5-13.1a8.4 8.4 0 0 1 7 15.3 318 318 0 0 0-24.2 12.4q-1.2.7-2.6 1m167.7-42.7-1.7.2q-13.6-.3-27.3.7a8.4 8.4 0 0 1-1.2-16.8q14.4-1 28.8-.8a8.4 8.4 0 0 1 1.4 16.7M2799 507.4a8.4 8.4 0 0 1-4-16.4q13.8-4 27.8-7h.2a8.4 8.4 0 0 1 3.3 16.5 321 321 0 0 0-27.3 6.9M3028 522.2q-2.5.5-5-.6l-12-5.1a8.4 8.4 0 1 1 6.2-15.6l12.7 5.4a8.4 8.4 0 0 1-2 16" style="fill:#93c5fd"/></g><g style="opacity:.3"><path d="M3202.5 710.7c-4 .8-8.1-1.5-9.5-5.4q-2.2-6.2-4.7-12.3a8.4 8.4 0 0 1 15.6-6.3l5 12.9a8.4 8.4 0 0 1-6.5 11.1M2954.2 1144l-11.5 2a8.4 8.4 0 0 1-2.5-16.8q13.4-2 26.4-5a8.4 8.4 0 0 1 3.9 16.3q-8 1.9-16.3 3.5m-55.8 5.6-1.4.1q-14.2.3-28.3-.7a8.4 8.4 0 1 1 1.2-16.8q13.4.9 26.8.7a8.4 8.4 0 0 1 1.7 16.7m114.4-22.3a8.4 8.4 0 0 1-4.6-16.2q12.5-4.8 24.6-10.7a8.4 8.4 0 0 1 7.4 15 335 335 0 0 1-27.4 11.9m-186.3 15.4q-1.6.3-3.3 0a336 336 0 0 1-27.4-7 8.4 8.4 0 1 1 4.8-16q13 3.8 26 6.5a8.4 8.4 0 0 1-.1 16.5m250.2-48.9a8.4 8.4 0 0 1-6.2-15.2 320 320 0 0 0 21.6-16 8.4 8.4 0 1 1 10.5 13.2q-11 8.9-22.7 16.7-1.4 1-3.2 1.3m55.1-46.7a8.4 8.4 0 0 1-7.7-14q9.2-9.8 17.7-20.3a8.4 8.4 0 1 1 13.1 10.5 341 341 0 0 1-18.5 21.4 8 8 0 0 1-4.6 2.4m43.6-57.5q-3 .5-5.9-1a8.4 8.4 0 0 1-2.9-11.6 322 322 0 0 0 12.8-23.6 8.4 8.4 0 1 1 15.1 7.4 340 340 0 0 1-13.4 24.8 8 8 0 0 1-5.7 4m30-65.7q-2.1.4-4.2-.3a8.4 8.4 0 0 1-5.4-10.6q4.3-12.8 7.3-25.9a8.4 8.4 0 0 1 16.4 4q-3.2 13.6-7.7 27.1c-1 3-3.5 5.1-6.4 5.7m14.8-70.7a8.4 8.4 0 0 1-10-9.1q1.4-13.4 1.5-26.8a8.4 8.4 0 0 1 16.9.2q-.2 14.2-1.5 28.2a8.4 8.4 0 0 1-6.9 7.5m-1-72.2h-.6a8.4 8.4 0 0 1-9.4-7.3 327 327 0 0 0-4.4-26.5c-1-4.5 2-9 6.5-10s9 2 10 6.6a340 340 0 0 1 4.7 27.9 8.4 8.4 0 0 1-6.8 9.3M2757.7 1120.2q-2.6.4-5-.7-6.3-2.9-12.5-6a8.4 8.4 0 1 1 7.6-15q6 3 11.8 5.7a8.4 8.4 0 0 1-2 16" style="fill:#93c5fd"/></g><path d="M2750.9 1022a4 4 0 0 0 4.5.4l41.2-24.5c20 10.1 41.7 17.2 64.4 20.5l19.4 43.9a4 4 0 0 0 4 2.3l57.2-4.8a4 4 0 0 0 3.5-3l11.8-46.4c21.9-7.1 42-17.7 60-31l44.7 17.2a4 4 0 0 0 4.5-1l37-44a4 4 0 0 0 .4-4.5l-24.5-41.2q15.4-30.2 20.6-64.4l43.8-19.4a4 4 0 0 0 2.3-4L3141 761a4 4 0 0 0-3-3.5l-46.4-11.8c-7-21.9-17.7-42-31-60l17.3-44.7a4 4 0 0 0-1.1-4.5l-44-37a4 4 0 0 0-4.5-.4l-41.2 24.5a209 209 0 0 0-64.4-20.6l-19.4-43.8a4 4 0 0 0-3.9-2.3l-57.3 4.8a4 4 0 0 0-3.5 3l-11.7 46.4c-22 7-42.1 17.7-60.1 31l-44.7-17.3a4 4 0 0 0-4.4 1.1l-37.1 44a4 4 0 0 0-.4 4.5l24.5 41.2a209 209 0 0 0-20.5 64.4l-43.9 19.4a4 4 0 0 0-2.3 3.9l4.8 57.3a4 4 0 0 0 3 3.5l46.4 11.7a209 209 0 0 0 31 60.1l-17.2 44.7a4 4 0 0 0 1 4.4z" style="fill:#93c5fd"/><path d="M2902.4 867.5a57.9 57.9 0 1 1-21-113.8 57.9 57.9 0 0 1 21 113.8M2883.8 767a44.4 44.4 0 1 0 16.2 87.2 44.4 44.4 0 0 0-16.2-87.2" style="fill:#bfdbfe"/><path d="M2918.9 949.3q-7.2 1.3-14.5 2a142 142 0 0 1-27.3-.4h-.3l-1-.1-1.6-.2a3.4 3.4 0 1 1 .9-6.7 135.3 135.3 0 1 0-92.4-55.3l.5 1.4a3.4 3.4 0 0 1-6 2.6 142 142 0 0 1-26.2-71 142.2 142.2 0 0 1 233.2-120.4 141 141 0 0 1 49.9 96.6c3.2 37.8-8.6 74.6-33 103.6a141 141 0 0 1-82.2 47.9" style="fill:#bfdbfe"/><g style="opacity:.3"><path d="M2337.5 1186.6c-2.2.4-4.6-.7-5.6-2.8q-3-6-5.7-12a5.2 5.2 0 0 1 9.5-4.2q2.5 5.8 5.5 11.5a5.2 5.2 0 0 1-3.7 7.5M2322.7 1149.4c-2.6.4-5.2-1.1-6-3.7a226 226 0 0 1-6.1-27 5.4 5.4 0 0 1 4.2-6 5 5 0 0 1 6 4.3 220 220 0 0 0 6 25.8 5.2 5.2 0 0 1-4.1 6.6m-8.8-53.3h-.8a5 5 0 0 1-5.4-5q-.6-13.8.6-27.6a5.2 5.2 0 0 1 10.3.8q-1 13.2-.5 26.4a5 5 0 0 1-4.2 5.4m4.4-53.9h-2a5 5 0 0 1-4-6.2q2.8-13.6 7.2-26.7a5.2 5.2 0 1 1 9.9 3.4q-4.3 12.5-7 25.5a5 5 0 0 1-4.1 4m17.5-51.1a5.2 5.2 0 0 1-5.7-7.4q6.1-12.5 13.7-24.1a5.2 5.2 0 0 1 8.7 5.7q-7.2 11-13 23a5 5 0 0 1-3.7 2.8m29.4-45.3a5.2 5.2 0 0 1-5-8.5q9-10.6 19.1-20a5.2 5.2 0 1 1 7.1 7.6 217 217 0 0 0-18.2 19.1q-1.3 1.5-3 1.8m39.5-36.8a5.2 5.2 0 0 1-4-9.3q11.3-8.1 23.4-14.8a5.2 5.2 0 0 1 5 9.1q-11.6 6.4-22.3 14.1-1 .7-2 1m47.4-26a5.2 5.2 0 0 1-3-10q13-5 26.4-8.5c2.8-.7 5.6 1 6.4 3.7.7 2.8-1 5.6-3.8 6.3a214 214 0 0 0-26 8.5m79.2-15.5-.9.1a216 216 0 0 0-26.3 1.9 5 5 0 0 1-5.9-4.5 5 5 0 0 1 4.5-5.8l3.6-.5q12-1.4 24-1.5a5.2 5.2 0 0 1 1 10.3" style="fill:#93c5fd"/></g><g style="opacity:.3"><path d="M2576.6 1302.3a5.2 5.2 0 0 1-2-10.2q12.8-2.6 25.1-6.7c2.7-.9 5.7.6 6.6 3.3.9 2.8-.6 5.7-3.3 6.6q-13 4.3-26.4 7m-26.4 3.6h-.6q-13.6 1.2-27.2.6a5.2 5.2 0 0 1 .4-10.4q13 .5 26-.5a5.2 5.2 0 0 1 1.4 10.3m76.8-20.3a5.2 5.2 0 0 1-3.2-9.8q11.8-5.6 22.8-12.5a5.2 5.2 0 0 1 5.6 8.8 226 226 0 0 1-25.2 13.5m-130 18q-.8.3-1.7 0-13.6-2.2-26.6-6a5.2 5.2 0 0 1 3-10q12.4 3.7 25.3 5.8a5.2 5.2 0 0 1 0 10.2m175-46.4a5.2 5.2 0 0 1-4.3-9.1q10-8.3 19-17.6a5.2 5.2 0 1 1 7.6 7.2q-9.5 9.8-20 18.5-1.1.8-2.4 1m36.7-38.3a5.2 5.2 0 0 1-5.1-8.2q7.8-10.5 14.3-21.7a5.2 5.2 0 1 1 9 5.2q-6.8 11.8-15 22.7-1.3 1.7-3.2 2m26.6-46q-1.5.2-3-.3a5 5 0 0 1-2.8-6.9q5.2-12 8.8-24.5a5.2 5.2 0 0 1 10 3q-3.8 13-9.2 25.6a5 5 0 0 1-3.8 3M2445.9 1288.5q-1.5.2-3-.3-6.2-2.7-12-5.7a5.2 5.2 0 0 1 4.6-9.3l11.5 5.4a5.2 5.2 0 0 1-1.1 9.9" style="fill:#93c5fd"/></g><path d="M2437.8 1221.6q1.3 1.2 3 .3l27.6-16.4a140 140 0 0 0 43 13.7l13 29.4q.8 1.6 2.7 1.5l38.3-3.2q1.8-.2 2.3-2l7.9-31a140 140 0 0 0 40.2-20.8l30 11.6q1.6.5 2.9-.8l24.8-29.4q1-1.3.2-3l-16.4-27.6a140 140 0 0 0 13.8-43l29.3-13q1.6-.8 1.6-2.7l-3.2-38.3q-.3-1.7-2-2.3l-31-7.9a140 140 0 0 0-20.9-40.2l11.6-30q.5-1.6-.7-2.9l-29.4-24.8q-1.5-1-3-.2l-27.6 16.4a140 140 0 0 0-43.1-13.8l-13-29.3q-.8-1.6-2.6-1.6l-38.3 3.2q-1.7.3-2.4 2l-7.8 31a140 140 0 0 0-40.2 20.9l-30-11.6q-1.7-.5-3 .7l-24.7 29.4q-1.2 1.5-.3 3l16.4 27.6a140 140 0 0 0-13.7 43.1l-29.4 13q-1.6.8-1.5 2.6l3.2 38.3q.3 1.8 2 2.4l31 7.8a140 140 0 0 0 20.8 40.2l-11.6 30q-.5 1.6.8 3z" style="fill:#93c5fd"/><path d="M2539.2 1119a39 39 0 0 1-44.3-26 39.4 39.4 0 1 1 44.3 26m-12.4-67.2q-2.1.3-4.1 1a29 29 0 0 0 18.8 54.8 29 29 0 0 0 18-36.8 29 29 0 0 0-32.7-19" style="fill:#bfdbfe"/><path d="M2550.6 1175.9a100 100 0 0 1-29.8 1l-.9-.1a5.2 5.2 0 1 1 1.3-10.4q9.3 1.2 18.7.5l1-.1a87 87 0 0 0 58-30.1l.2-.1.4-.5a87 87 0 0 0 19.1-72.8 87 87 0 0 0-29.5-50.7 87 87 0 0 0-63.9-20.3 87 87 0 0 0-59.6 30.7 87 87 0 0 0-4.2 107.7q.7 1 .9 2a5.2 5.2 0 0 1-9.4 4 98 98 0 0 1 4.8-120.4 97 97 0 0 1 66.6-34.4c26.1-2.2 51.5 5.9 71.5 22.8a97 97 0 0 1 34.4 66.6 98 98 0 0 1-79.6 104.6" style="fill:#bfdbfe"/><linearGradient id="d" x1="1593.7" x2="1626.3" y1="1929.9" y2="1918.6" gradientUnits="userSpaceOnUse"><stop offset="0" style="stop-color:#febbba"/><stop offset="1" style="stop-color:#ff928e"/></linearGradient><path d="M1688.2 1871.8s-15.7-41.3-34-37.5a125 125 0 0 0-38.3 17.8l-29.4 39.8s82.5 32.5 111.5 13.9c0 0 84.3 14.5 190.7-3a417 417 0 0 1-30-90.3c-53.8 30.5-111.9 53.3-170.5 59.3" style="fill:url(#d)"/><linearGradient id="e" x1="1825.5" x2="2299.7" y1="1990.6" y2="1473.7" gradientUnits="userSpaceOnUse"><stop offset="0" style="stop-color:#1e3a8a"/><stop offset="1" style="stop-color:#1e40af"/></linearGradient><path d="M2134.6 1572.7s-120.7 152-275.8 239.8a417 417 0 0 0 30 90.4c80.4-13.3 173.6-44.8 252.6-114.8z" style="fill:url(#e)"/><linearGradient id="f" x1="2041.9" x2="2516.2" y1="2189.2" y2="1672.3" gradientUnits="userSpaceOnUse"><stop offset="0" style="stop-color:#1e3a8a"/><stop offset="1" style="stop-color:#1e40af"/></linearGradient><path d="M2285 2246.3c-23.5-112.1-47.1-177-126.1-389.5-24.9-66.8-47.5-134.5-36.6-205l12.3-79.1s153.5-52 323.7-2.2c0 0 232.2 100.9 74.5 599-71 79.6-154.3 102.3-247.7 76.8" style="fill:url(#f)"/><linearGradient id="g" x1="996" x2="947.5" y1="1629.8" y2="1484.4" gradientTransform="translate(1290.1)" gradientUnits="userSpaceOnUse"><stop offset="0" style="stop-color:#febbba"/><stop offset="1" style="stop-color:#ff928e"/></linearGradient><path d="m2160.7 1471.6 39.8 95.7a19 19 0 0 0 14.4 11.4c23 4 78.5 10.1 115-13.8a9.3 9.3 0 0 0 2.5-13l-73.6-105.7z" style="fill:url(#g)"/><linearGradient id="h" x1="2149.5" x2="2323.7" y1="1381.3" y2="1457" gradientUnits="userSpaceOnUse"><stop offset="0" style="stop-color:#febbba"/><stop offset="1" style="stop-color:#ff928e"/></linearGradient><path d="M2201.9 1325.3c-1.7 1.6-70.6 136.9-70.6 136.9l78.1 37.7 84.4-118.6s-64-82.4-91.9-56" style="fill:url(#h)"/><linearGradient id="i" x1="5027.6" x2="5235.7" y1="5584.3" y2="5584.3" gradientTransform="rotate(46.7 3367.4 11987)scale(-1 1)" gradientUnits="userSpaceOnUse"><stop offset="0" style="stop-color:#1e3a8a"/><stop offset="1" style="stop-color:#1e40af"/></linearGradient><path d="m2258.3 1395.6-39 64.9a12 12 0 0 1-2.1 2.6c-4.6 4.4-20.5 17-32.8-.2-10.4-14.5-20.2-27.8-30.7-33.3a12.4 12.4 0 0 0-16.8 5.6 465 465 0 0 0-26.7 63.2c-2 6.2 1.2 12.8 7.2 15.2 15.8 6.4 47 18 74.8 21.8 4.6.7 9-1.3 11.8-5 12-16.3 45.6-62 57-73.4 10.7-10.7 30.4-6.6 39.2-4.1q5.3 1.5 10-1.3c9-5.4 24.7-19 10.3-41.8a12.5 12.5 0 0 1 3.9-16.9c10-6.6 21-19 10.5-39.1-10.5-20.3-29.2-22.2-42-20.6a13 13 0 0 1-13.6-7.5 8 8 0 0 0-6.4-5.1 12 12 0 0 1-9.8-14.2c2.2-11.5.5-26.5-17.8-36.6-33.7-18.5-63.2 11.7-70.7 37.2s30.1 43.5 53.8 46.5c17.4 2.2 27 21.2 30.8 31.1 1.4 3.6 1 7.6-1 11" style="fill:url(#i)"/><linearGradient id="j" x1="2138.7" x2="2312.9" y1="1406.3" y2="1482" gradientUnits="userSpaceOnUse"><stop offset="0" style="stop-color:#febbba"/><stop offset="1" style="stop-color:#ff928e"/></linearGradient><path d="M2244.6 1476.4s16.8-39.4 36-37.8 34.2 20.7 10.5 42.2c-29.6 26.7-46.5-4.4-46.5-4.4" style="fill:url(#j)"/><linearGradient id="k" x1="2273.5" x2="2489.9" y1="3244.5" y2="3244.5" gradientTransform="matrix(-1 0 0 1 4753.8 0)" gradientUnits="userSpaceOnUse"><stop offset="0" style="stop-color:#3b82f6"/><stop offset="1" style="stop-color:#2563eb"/></linearGradient><path d="M2270 3234c37 3.3 101.4 8.5 152.1 10.7 30.5 1.3 48-1.6 58.2-5.7v3.2c-.3 5.4-4.7 9.6-10 10-96 5.3-172.2 1.8-199.3.1-5.6-.3-9-6.4-6.1-11.2q2.2-3.6 5-7" style="fill:url(#k)"/><linearGradient id="l" x1="3002.8" x2="2219" y1="3042" y2="3265.4" gradientUnits="userSpaceOnUse"><stop offset="0" style="stop-color:#1e3a8a"/><stop offset="1" style="stop-color:#1e40af"/></linearGradient><path d="M2422.1 3244.7c-50.7-2.2-115-7.4-152.2-10.6 36.5-44.8 152.2-75 152.2-75h32.7a137 137 0 0 1 25.5 80c-10.1 4-27.7 7-58.2 5.6" style="fill:url(#l)"/><linearGradient id="m" x1="2293.4" x2="2354.4" y1="3142.9" y2="3142.9" gradientTransform="matrix(-1 0 0 1 4753.8 0)" gradientUnits="userSpaceOnUse"><stop offset="0" style="stop-color:#febbba"/><stop offset="1" style="stop-color:#ff928e"/></linearGradient><path d="m2460.3 3105.8-3 60.5c-.4 6.6-5.3 12.1-11.8 13s-15.3 1.1-24.6-2c-5.7-1.9-10-6.7-11-12.6l-10.6-58.9z" style="fill:url(#m)"/><linearGradient id="n" x1="1841.9" x2="1924.8" y1="3239.9" y2="3239.9" gradientTransform="matrix(-1 0 0 1 4753.8 0)" gradientUnits="userSpaceOnUse"><stop offset="0" style="stop-color:#3b82f6"/><stop offset="1" style="stop-color:#2563eb"/></linearGradient><path d="M2884.9 3244.3c16-2.3 23.3-10.6 26.4-19.6v.3c2.4 9.4-3.1 19.1-14 23.8a92 92 0 0 1-39 6.1c-12.1-.5-23.2-5.5-29.3-13.5v-.1c12 6 29 6.7 55.9 3" style="fill:url(#n)"/><linearGradient id="o" x1="2565.8" x2="3054.3" y1="2996.6" y2="3314.7" gradientUnits="userSpaceOnUse"><stop offset="0" style="stop-color:#1e3a8a"/><stop offset="1" style="stop-color:#1e40af"/></linearGradient><path d="M2809 3105.4h27c41-.8 66.8 85.8 75.3 119.3-3 9-10.4 17.3-26.4 19.6-26.9 3.7-43.9 3-56-3-22.2-29.2-33.2-72-38.5-96.9a34 34 0 0 1 18.6-39" style="fill:url(#o)"/><linearGradient id="p" x1="1905.8" x2="1978.7" y1="3092" y2="3092" gradientTransform="matrix(-1 0 0 1 4753.8 0)" gradientUnits="userSpaceOnUse"><stop offset="0" style="stop-color:#febbba"/><stop offset="1" style="stop-color:#ff928e"/></linearGradient><path d="m2832.5 3049.3 15 59.5a16 16 0 0 1-8.4 18.3 57 57 0 0 1-31 7.5c-5.1-.6-9.3-4.2-11-9l-22-62.6z" style="fill:url(#p)"/><linearGradient id="q" x1="-437.5" x2="674.5" y1="3199" y2="1661.7" gradientTransform="matrix(-1 0 0 1 2420.8 0)" gradientUnits="userSpaceOnUse"><stop offset="0" style="stop-color:#1e3a8a"/><stop offset="1" style="stop-color:#1e40af"/></linearGradient><path d="M2850.4 3066.5c-18.7 16.5-79.2 18.7-79.2 18.7-218.2-523.7-309.2-667.9-309.2-667.9 31.5 197.7 6.8 705 6.8 705-36 16-82.4 0-82.4 0-3-323.5-48.5-671.3-107.2-893.7 147.4-3.3 227.6-35.5 253.2-55.7 122.9 198.1 318 893.6 318 893.6" style="fill:url(#q)"/><linearGradient id="r" x1="2477.4" x2="2504.3" y1="2182.9" y2="2378.4" gradientUnits="userSpaceOnUse"><stop offset="0" style="stop-color:#e1473d"/><stop offset="1" style="stop-color:#e9605a"/></linearGradient><path d="m2242 2374.9 27.1 168.8a55.6 55.6 0 0 0 61.8 46.2l406-49.5c20-2.5 35-19 35.4-39 .9-43.6-.8-121.2-19.1-192z" style="fill:url(#r)"/><path d="M2342.2 2578.7a1.2 1.2 0 0 1-.1-2.3l9.2-1.2q1 0 1.3 1 0 1.2-1 1.3l-9.2 1.2zm-21.4-.6h-.3q-4.5-1-9-2.9c-.6-.2-.9-1-.6-1.5.2-.6 1-.9 1.5-.6q4.2 1.7 8.6 2.8a1.2 1.2 0 0 1-.2 2.2m52-3.2a1.2 1.2 0 0 1 0-2.3l9.1-1q1-.2 1.3 1 0 .9-1 1.2l-9.2 1.1zm30.7-3.7a1.2 1.2 0 0 1-.1-2.3l9.2-1.1q1-.1 1.3 1 0 1-1 1.3l-9.2 1zm30.7-3.7a1.2 1.2 0 0 1-.2-2.4l9.2-1q1.1-.2 1.3 1 0 1-1 1.2l-9.2 1.1zm30.6-3.8a1.2 1.2 0 0 1-.1-2.3l9.2-1.1q1 0 1.3 1 0 1-1 1.3l-9.2 1.1zm-170.5-.5q-.5 0-.9-.4a54 54 0 0 1-5.9-7.4 1.2 1.2 0 0 1 2-1.3q2.4 3.9 5.6 7a1.2 1.2 0 0 1-.8 2m201.2-3.2a1.2 1.2 0 0 1-.2-2.3l9.2-1.2q1.1 0 1.3 1 0 1.2-1 1.3l-9.2 1.2zm30.6-3.8a1.2 1.2 0 0 1-.1-2.3l9.2-1q1-.2 1.3 1 0 1-1 1.2l-9.2 1.1zm30.7-3.7a1.2 1.2 0 0 1-.2-2.3l9.2-1.1a1.2 1.2 0 1 1 .3 2.3l-9.2 1zm30.6-3.7a1.2 1.2 0 0 1-.1-2.3l9.2-1.2q1 0 1.3 1 0 1.2-1 1.3l-9.2 1.2zm30.7-3.8a1.2 1.2 0 0 1-.2-2.3l9.2-1.1q1.1 0 1.3 1t-1 1.3l-9.2 1.1zm30.6-3.7a1.2 1.2 0 0 1-.1-2.3l9.2-1.1a1.2 1.2 0 1 1 .3 2.3l-9.2 1zm30.7-3.8a1.2 1.2 0 0 1-.2-2.3l9.2-1q1.1-.2 1.3 1 0 1-1 1.2l-9.2 1.1zm-399-1.5q-.9 0-1-1l-1.6-9a1.2 1.2 0 1 1 2.3-.4l1.5 9a1.2 1.2 0 0 1-1.1 1.4m429.6-2.2a1.2 1.2 0 0 1-.1-2.3l9.2-1.1q1 0 1.3 1 0 1-1 1.3l-9.2 1.1zm30-6.6q-.8 0-1-.6-.5-1 .3-1.6 3.9-2.2 7.2-5.4.9-.6 1.7 0 .6 1 0 1.7a39 39 0 0 1-8.3 5.9m-464.5-21.6q-.9 0-1.1-1l-1.5-9.2q0-1 1-1.3 1-.1 1.3 1l1.5 9.1a1.2 1.2 0 0 1-1.2 1.4m482.6-2.4h-.3q-1-.4-.9-1.4 1-4 1-8.1l.1-.8q0-1.1 1.2-1.2 1 0 1.1 1.2v.8q0 4.5-1.1 8.6-.3 1-1.1 1m-487.5-28.1q-.9 0-1.1-1l-1.5-9.1a1.2 1.2 0 1 1 2.3-.4l1.5 9.1a1.2 1.2 0 0 1-1.2 1.4m488.7-2.7q-1-.1-1.2-1.1v-9.3q0-1 1-1.2 1.1 0 1.2 1.2l.2 9.3q-.1 1-1.2 1.1m-493.6-27.8q-.9 0-1.1-1l-1.5-9.1q0-1.2 1-1.4 1 0 1.3 1l1.5 9.1a1.2 1.2 0 0 1-1.2 1.4m492.9-3q-1.1 0-1.2-1.2l-.4-9.2q0-1 1-1.2 1.2 0 1.3 1l.4 9.3q-.1 1.1-1 1.2zm-497.8-27.5q-.8 0-1.1-1l-1.5-9.1a1.2 1.2 0 1 1 2.3-.4l1.5 9.2a1.2 1.2 0 0 1-1.2 1.3m495.9-3.4q-1 0-1.2-1l-.8-9.3q0-1 1-1.2 1.3 0 1.3 1l.8 9.3q0 1-1 1.2zm-500.8-27q-.8-.1-1.1-1l-1.7-10.4 4.8-.6q1.1 0 1.3 1 0 1-1 1.3l-2.4.3 1.3 8a1.2 1.2 0 0 1-1.2 1.3m497.6-3.7q-.9 0-1.1-1l-1.2-9.2q-.1-1 1-1.3 1 0 1.3 1l1.2 9.2a1.2 1.2 0 0 1-1.2 1.3m-474-8.7a1.2 1.2 0 0 1-.2-2.3l9.2-1.2q1.1 0 1.3 1t-1 1.3l-9.2 1.2zm30.6-4a1.2 1.2 0 0 1-.1-2.3l9.2-1.1q1.1-.1 1.3 1 0 1-1 1.3l-9.2 1.1zm30.6-3.9a1.2 1.2 0 0 1-.1-2.3l9.2-1.2q1.1 0 1.3 1 0 1.2-1 1.3l-9.2 1.2zm30.7-3.9a1.2 1.2 0 0 1-.2-2.3l9.2-1.2q1.1 0 1.3 1 0 1.1-1 1.3l-9.2 1.2zm30.6-4a1.2 1.2 0 0 1-.2-2.2l9.2-1.2q1.2 0 1.3 1t-1 1.3l-9.2 1.2zm30.6-3.8a1.2 1.2 0 0 1-.1-2.3l9.2-1.2q1.1 0 1.3 1 0 1-1 1.3l-9.2 1.2zm316.4-2.2q-.9 0-1.2-1-.7-4.5-1.7-9 0-1.2 1-1.4t1.3.9l1.7 9a1.2 1.2 0 0 1-1.1 1.5m-285.8-1.7a1.2 1.2 0 0 1-.1-2.4l9.2-1.1q1.1-.1 1.3 1 0 1-1 1.3l-9.2 1.1zm30.7-4a1.2 1.2 0 0 1-.2-2.3l9.2-1.1q1.1-.1 1.3 1 0 1-1 1.2l-9.2 1.2zm30.6-3.9a1.2 1.2 0 0 1-.1-2.3l9.1-1.2q1.3 0 1.3 1 .1 1.1-1 1.3l-9.1 1.2zm30.6-4a1.2 1.2 0 0 1-.1-2.2l9.2-1.2q1.1 0 1.3 1 0 1-1 1.3l-9.2 1.2zm30.7-3.8a1.2 1.2 0 0 1-.2-2.3l9.2-1.2q1.1 0 1.3 1 0 1-1 1.3l-9.2 1.2zm30.6-4a1.2 1.2 0 0 1-.2-2.3l9.2-1.1q1.2-.1 1.3 1 .1 1-1 1.3l-9.2 1.1zm30.6-3.9a1.2 1.2 0 0 1-.1-2.3l9.2-1.1q1.1-.1 1.2 1 .1 1-1 1.2l-9.1 1.2zm30.6-3.9a1.2 1.2 0 0 1-.1-2.3l9.2-1.2q1.1 0 1.3 1 0 1.2-1 1.3l-9.2 1.2zm65-1q-.9 0-1-1l-1.5-6-1 .2q-1.2 0-1.4-1 0-1.1 1-1.3l3-.4.3 1 1.8 7a1.2 1.2 0 0 1-1.1 1.4m-34.3-2.9a1.2 1.2 0 0 1-.2-2.3l9.2-1.2q1.1 0 1.3 1 0 1-1 1.3l-9.2 1.2z" style="fill:#fff"/><linearGradient id="s" x1="27.6" x2="24.6" y1="2902.5" y2="2829.6" gradientTransform="rotate(-7.3 -3785.5 -15910.6)" gradientUnits="userSpaceOnUse"><stop offset="0" style="stop-color:#e1473d"/><stop offset="1" style="stop-color:#e9605a"/></linearGradient><path d="m2345.2 2236.7-.4-13.3q1.7-5.1 6.8-6.8c12.4-3.6 43.3-11.2 59.9-1.8l4.1 14.9z" style="fill:url(#s)"/><linearGradient id="t" x1="23.8" x2="38.8" y1="2793.1" y2="3001.9" gradientTransform="rotate(-7.3 -3785.5 -15910.6)" gradientUnits="userSpaceOnUse"><stop offset="0" style="stop-color:#e1473d"/><stop offset="1" style="stop-color:#e9605a"/></linearGradient><path d="M2383 2219q-4.1 1.7-8.7 1.1a8 8 0 0 1-7-6.8l-5.2-41 20.8-2.6 5.3 40.9a8 8 0 0 1-5.1 8.4" style="fill:url(#t)"/><linearGradient id="u" x1="230.6" x2="227.6" y1="2894.1" y2="2821.3" gradientTransform="rotate(-7.3 -3785.5 -15910.6)" gradientUnits="userSpaceOnUse"><stop offset="0" style="stop-color:#e1473d"/><stop offset="1" style="stop-color:#e9605a"/></linearGradient><path d="m2547 2210.8-.5-13.2c1-3.3 3.5-5.9 6.8-6.8 12.4-3.7 43.3-11.2 59.9-1.9l4.2 15z" style="fill:url(#u)"/><linearGradient id="v" x1="226.3" x2="241.3" y1="2778.5" y2="2987.4" gradientTransform="rotate(-7.3 -3785.5 -15910.6)" gradientUnits="userSpaceOnUse"><stop offset="0" style="stop-color:#e1473d"/><stop offset="1" style="stop-color:#e9605a"/></linearGradient><path d="M2584.8 2193.2q-4.2 1.7-8.7 1.1a8 8 0 0 1-7-6.9l-5.8-45.2 20.8-2.7 5.8 45.2a8 8 0 0 1-5 8.5" style="fill:url(#v)"/><linearGradient id="w" x1="142.9" x2="122.6" y1="2676.8" y2="2825.6" gradientTransform="rotate(-7.3 -3785.5 -15910.6)" gradientUnits="userSpaceOnUse"><stop offset="0" style="stop-color:#ff928e"/><stop offset="1" style="stop-color:#fe7062"/></linearGradient><path d="m2361.3 2182.6 223-36c5-.9 9-5.1 9.2-10.2a92 92 0 0 0-3-28.5 26 26 0 0 0-27.8-18.7c-42 4.4-148.3 18-204 48.7a21 21 0 0 0-10.5 15.8 50 50 0 0 0 2.4 22.8 10 10 0 0 0 10.7 6.1" style="fill:url(#w)"/><path d="M2355.8 2173.6a3 3 0 0 1-3-2.4c-.1-.4-2.1-9-.9-17.8 1-7.1 5.7-13.3 12.3-16.2a250 250 0 0 1 55-17.7c1.7-.3 3.3.9 3.5 2.6a3 3 0 0 1-2.6 3.5c-19.6 3-43.9 13-53.4 17.3-4.7 2-8 6.4-8.7 11.3-1 7.7.8 15.5.8 15.6a3 3 0 0 1-3 3.8" style="opacity:.58;fill:#fff"/><linearGradient id="x" x1="2498.2" x2="2495.9" y1="2570.3" y2="2311.8" gradientUnits="userSpaceOnUse"><stop offset="0" style="stop-color:#ff928e"/><stop offset="1" style="stop-color:#fe7062"/></linearGradient><path d="M2240.6 2244.9c72.3-10.2 384.9-53.6 477.2-54.2 8 0 15 4.8 17.8 12.3a616 616 0 0 1 32.4 134.7c.8 7.6-4 14.8-11.3 17.2l-202.6 65.8-73.7 9.4-226.8-15.6c-8-.6-14.6-6.5-16-14.3-5-28-15.7-93.7-13.6-137.2.5-9.2 7.4-16.8 16.6-18.1" style="fill:url(#x)"/><path d="M2479.9 2413.2h-.1l-9.3-.7q-1-.2-1-1.2.2-1 1.2-1l9.2.6a1.2 1.2 0 0 1 0 2.3m8.4-1.1a1.2 1.2 0 0 1-.1-2.3l9.1-1.2q1.3 0 1.3 1 .1 1.1-1 1.3l-9.1 1.2zm-39.2-1h-.1l-9.3-.7q-1-.2-1-1.2.2-1 1.2-1.1l9.2.6a1.2 1.2 0 0 1 0 2.4m-30.8-2.2h-.1l-9.3-.6q-1-.2-1-1.2.2-1 1.2-1.1l9.2.6a1.2 1.2 0 0 1 0 2.3m100.6-.7a1.2 1.2 0 0 1-.1-2.3l9.2-1.2q1.1 0 1.3 1 0 1-1 1.3l-9.2 1.2zm-131.4-1.4h-.1l-9.3-.6q-1-.1-1-1.3.2-1 1.2-1l9.2.6a1.2 1.2 0 0 1 0 2.3m-30.8-2.1h-.1l-9.3-.7q-1-.2-1-1.2.2-1 1.2-1l9.2.6a1.2 1.2 0 0 1 0 2.3m192.9-.4a1.2 1.2 0 0 1-.2-2.3l.6-.1 8-2.7q1-.1 1.5.8.3 1-.7 1.5l-9 2.8zm-223.8-1.8-9.3-.6q-1-.2-1-1.2.2-1 1.2-1.1l9.2.6a1.2 1.2 0 0 1 0 2.3m-30.8-2-9.3-.7q-1-.1-1-1.3.2-1 1.2-1l9.2.6a1.2 1.2 0 0 1 0 2.3m-30.8-2.2-9.9-.7-.2-.9q0-1 1-1.5.4 0 .9.2l8.3.6a1.2 1.2 0 0 1 0 2.3m314.8-3.5q-.8 0-1.2-.8-.2-1 .8-1.4l8.8-2.9q1-.2 1.5.7.2 1.1-.8 1.5l-8.8 2.9zm29.3-9.5q-.9 0-1-.8-.4-1 .7-1.5l8.8-2.8q1-.2 1.4.7.3 1-.7 1.5l-8.8 2.8zm-356.7-9.2q-1 0-1.1-1l-1.5-9.2q0-1 1-1.3 1.1 0 1.3 1l1.4 9.1a1.2 1.2 0 0 1-1 1.4m386-.4a1.2 1.2 0 0 1-.3-2.2l8.8-2.9a1.2 1.2 0 0 1 .7 2.2l-8.8 2.9zm29.4-9.5a1.2 1.2 0 0 1-.3-2.3l8.8-2.8q1-.2 1.5.7.2 1-.8 1.5l-8.8 2.8zm29.4-9.6a1.2 1.2 0 0 1-.3-2.2l8.8-2.9q1-.2 1.4.8t-.7 1.4l-8.8 2.9zm29.4-9.5a1.2 1.2 0 0 1-.4-2.3l8.8-2.8a1.2 1.2 0 1 1 .7 2.2l-8.8 2.8zm-478.6-1.6q-1 0-1.2-1l-1.1-9.2a1.2 1.2 0 1 1 2.3-.3l1.1 9.2a1.2 1.2 0 0 1-1.1 1.3m502-11.7q-1-.1-1.1-1l-1.3-9.2q0-1 1-1.3 1.1-.2 1.3 1l1.3 9.2a1.2 1.2 0 0 1-1.2 1.3m-505.5-19q-1-.1-1.1-1l-.8-9.3q.1-1.1 1-1.3 1.3.1 1.3 1.1l.8 9.2a1.2 1.2 0 0 1-1.2 1.3m500.7-11.5q-.9 0-1.2-1l-1.8-9a1.2 1.2 0 0 1 2.2-.5l1.9 9a1.2 1.2 0 0 1-1.1 1.5m-502.5-19.4q-1-.1-1.2-1v-9.4q.1-1 1.1-1.1 1 .1 1.2 1.1v9.3q-.1 1-1 1.1zm495.8-10.8q-.9 0-1.2-.9l-2.3-9a1.2 1.2 0 1 1 2.3-.5l2.3 9a1.2 1.2 0 0 1-1.2 1.4m-484.4-10.7a1.2 1.2 0 0 1-.2-2.3l9.2-1.2q1-.2 1.3 1 .1 1-1 1.3l-9.1 1.2zm30.6-4.2a1.2 1.2 0 0 1-.2-2.3l9.2-1.3q1 0 1.3 1 .1 1-1 1.3l-9.1 1.3zm30.6-4.2a1.2 1.2 0 0 1-.1-2.3l9.1-1.2a1.2 1.2 0 0 1 .4 2.3l-9.2 1.2zm30.6-4.1q-1 0-1.1-1-.1-1.1 1-1.3l9.2-1.3q1 0 1.3 1 0 1.2-1 1.3l-9.2 1.3zm30.6-4q-.8-.1-1.1-1.1 0-1 1-1.3l9.2-1.2a1.2 1.2 0 1 1 .3 2.3l-9.2 1.2zm353.8-2.6q-.8 0-1.1-.8l-2.8-8.8q-.2-1.1.8-1.5 1-.2 1.4.8 1.4 4.2 2.8 8.8a1.2 1.2 0 0 1-1.1 1.5m-323.1-1.5a1.2 1.2 0 0 1-.2-2.3l9.2-1.2q1 0 1.3 1 0 1-1 1.3l-9.2 1.2zm30.6-4a1.2 1.2 0 0 1-.1-2.2l9.1-1.2q1.2 0 1.3 1t-1 1.3l-9.2 1.2zm30.6-3.8a1.2 1.2 0 0 1-.1-2.3l9.2-1.1q1.1 0 1.3 1 0 1-1 1.3l-9.2 1.1zm30.7-3.7a1.2 1.2 0 0 1-.2-2.3l9.2-1.1q1.2-.1 1.3 1 .1 1-1 1.3l-9.2 1zm30.6-3.7a1.2 1.2 0 0 1 0-2.3l9.1-1q1.1-.2 1.3 1 0 1-1 1.2l-9.2 1.1zm30.7-3.5a1.2 1.2 0 0 1-.1-2.3l9.2-1q1.1 0 1.3 1 0 1-1 1.3l-9.2 1zm30.7-3.3a1.2 1.2 0 0 1-.1-2.4l9.2-1q1.1.1 1.3 1.1 0 1-1 1.3l-9.3 1m30.7-3.2a1.2 1.2 0 0 1 0-2.3l9.2-.9q1 0 1.2 1 0 1.2-1 1.3l-9.2 1zm99-2.7q-.9 0-1.2-.7l-1.2-3.3h-4.2a1.2 1.2 0 0 1 0-2.3h4.5q1.3 0 1.8 1l1.3 3.8a1.2 1.2 0 0 1-1 1.5m-68.2-.1q-1-.1-1.2-1 .1-1.2 1-1.3l9.3-.8q1.1 0 1.3 1 0 1.1-1 1.3zm30.8-2.4a1.2 1.2 0 0 1-.1-2.3l9.3-.6q1 .1 1.2 1.1-.1 1-1.1 1.2z" style="fill:#fff"/><linearGradient id="y" x1="2493.7" x2="2518.5" y1="2480.3" y2="2365.7" gradientUnits="userSpaceOnUse"><stop offset="0" style="stop-color:#e1473d"/><stop offset="1" style="stop-color:#e9605a"/></linearGradient><path d="m2551.1 2452.5-64.6 8.3c-8.4 1-16.3-4.3-18.4-12.5l-15.4-61.2a17 17 0 0 1 14.2-20.8l77.6-9.9a17 17 0 0 1 19 16l2.4 62.8c.3 8.7-6.1 16.2-14.8 17.3" style="fill:url(#y)"/><linearGradient id="z" x1="91.6" x2="176.8" y1="3060.5" y2="3060.5" gradientTransform="rotate(-7.3 -3785.5 -15910.6)" gradientUnits="userSpaceOnUse"><stop offset="0" style="stop-color:#ff928e"/><stop offset="1" style="stop-color:#fe7062"/></linearGradient><path d="m2541.7 2442.1-49.1 6.3c-6.5.8-12.5-3.3-14-9.5l-11.8-46.6a13 13 0 0 1 10.8-15.8l59-7.5c7.5-1 14.2 4.6 14.5 12.1l1.8 47.9c.3 6.6-4.6 12.3-11.2 13.1" style="fill:url(#z)"/><linearGradient id="A" x1="2561.4" x2="2396.4" y1="1982" y2="2299.3" gradientUnits="userSpaceOnUse"><stop offset="0" style="stop-color:#febbba"/><stop offset="1" style="stop-color:#ff928e"/></linearGradient><path d="M2503.3 1946.8c15.3 63 15.7 124.6 13.3 147-.8 8.4-7.6 15-16.1 15.6l-34.5 2.3c-12.8.7-27.1-7.4-36.7-14.2-4.9-3.5-11.2 1.9-8.5 7.2a70 70 0 0 0 21 22.6c4.9 3.7 21 10.3 20 17.6a13 13 0 0 1-3.3 6c-9 10.8-22.6 16.6-36 20.7a10 10 0 0 0-4.7 2.4c-.3 8.7 26.4 18.3 33.3 20.6a77 77 0 0 0 32.1 3.8c26.9-2.9 51.7-21.4 66.2-43.8 38.7-59.8 58.7-132 66-187.2-36-36-90.3-27-112-20.6" style="fill:url(#A)"/><linearGradient id="B" x1="2112.5" x2="2586.7" y1="2253.9" y2="1737" gradientUnits="userSpaceOnUse"><stop offset="0" style="stop-color:#1e3a8a"/><stop offset="1" style="stop-color:#1e40af"/></linearGradient><path d="M2615.4 1973c28.7-216.9-138.4-383.6-138.4-383.6l-99.5 115.9c75.5 94.1 111.4 180.3 127.8 248 21.8-6.3 74.1-16.3 110.1 19.7" style="fill:url(#B)"/><linearGradient id="C" x1="2457.1" x2="2567.3" y1="1750.9" y2="1317.2" gradientUnits="userSpaceOnUse"><stop offset="0" style="stop-color:#1e3a8a"/><stop offset="1" style="stop-color:#1e40af"/></linearGradient><path d="M2503 1952.3a6 6 0 0 1-6-4.7c-20.2-83.5-62.8-166.1-126.6-245.7a6.2 6.2 0 0 1 9.6-7.7c65 81 108.3 165.2 129 250.5a6.2 6.2 0 0 1-6 7.6" style="fill:url(#C)"/><linearGradient id="D" x1="-276" x2="-134" y1="3187.6" y2="3187.6" gradientTransform="translate(1290.1)" gradientUnits="userSpaceOnUse"><stop offset="0" style="stop-color:#1e3a8a"/><stop offset="1" style="stop-color:#1e40af"/></linearGradient><path d="M1156 3238.2q0-1.6-.3-3.3c-16-63.4-95.3-102.9-95.3-102.9l-31.5 2.5c-18 55.9-15.8 90.2-12.9 105.4l.4 1.3c26 2.3 79.3 3.8 139.7-3" style="fill:url(#D)"/><linearGradient id="E" x1="79.5" x2="-437.2" y1="3020.1" y2="3425.7" gradientTransform="translate(1290.1)" gradientUnits="userSpaceOnUse"><stop offset="0" style="stop-color:#3b82f6"/><stop offset="1" style="stop-color:#2563eb"/></linearGradient><path d="M1016.4 3241.2c1.4 5 5.1 9 10 10 36.9 7.8 95.5 1.6 120.2-1.6 5.4-.7 9.4-5.8 9.5-11.4a746 746 0 0 1-139.7 3" style="fill:url(#E)"/><linearGradient id="F" x1="-236.6" x2="-263.7" y1="3025.9" y2="3262.7" gradientTransform="translate(1290.1)" gradientUnits="userSpaceOnUse"><stop offset="0" style="stop-color:#febbba"/><stop offset="1" style="stop-color:#ff928e"/></linearGradient><path d="m1016.3 3087.6 13.3 64.2c1 4.7 4.6 8.2 9 8.6 5.3.5 13 .8 20.6-.3 6.9-1 11.6-8 10.4-15.5l-9.2-57z" style="fill:url(#F)"/><linearGradient id="G" x1="171.2" x2="-345.4" y1="3136.8" y2="3542.4" gradientTransform="translate(1290.1)" gradientUnits="userSpaceOnUse"><stop offset="0" style="stop-color:#3b82f6"/><stop offset="1" style="stop-color:#2563eb"/></linearGradient><path d="M1292.3 3240.4c-34.7-1-52.7-5-62-8.9l.1 10.6c.1 4 3 7 6.6 7l190.7-1.2c6.1 0 9.7-7.1 7-12.7-25 2-88.7 6.7-142.4 5.2" style="fill:url(#G)"/><linearGradient id="H" x1="-59.8" x2="144.6" y1="3191.2" y2="3191.2" gradientTransform="translate(1290.1)" gradientUnits="userSpaceOnUse"><stop offset="0" style="stop-color:#1e3a8a"/><stop offset="1" style="stop-color:#1e40af"/></linearGradient><path d="m1434.7 3235.2-.7-1.5c-16.9-23.5-59.8-70.4-144.6-90.7l-40.6-1.3s-18.2 31.5-18.5 89.8c9.3 3.8 27.3 7.9 62 8.9 53.7 1.5 117.4-3.1 142.4-5.2" style="fill:url(#H)"/><linearGradient id="I" x1="89.3" x2="62.2" y1="2996.8" y2="3233.5" gradientTransform="rotate(-3.6 1541.1 -15741.5)" gradientUnits="userSpaceOnUse"><stop offset="0" style="stop-color:#febbba"/><stop offset="1" style="stop-color:#ff928e"/></linearGradient><path d="m1239.4 3082 12.4 66.3c.8 4.2 4 7.3 8 7.5 6.9.4 18.1.4 27.8-2.2 5.2-1.4 8.7-6.7 8.3-12.6l-4.5-72.2z" style="fill:url(#I)"/><linearGradient id="J" x1="1285.5" x2="832.6" y1="2161" y2="3594.5" gradientUnits="userSpaceOnUse"><stop offset="0" style="stop-color:#1e3a8a"/><stop offset="1" style="stop-color:#1e40af"/></linearGradient><path d="M1208.6 2239.3s56 384.5 96.3 842c.8 8.5-6 16-14.4 17.7a212 212 0 0 1-45.5 5.3c-8-.2-14.7-6.2-16-14-13.8-80.8-112-513.7-137.7-609 0 0-29.6 404.8-20.1 614.7a10 10 0 0 1-8.8 10.4c-7.9 1-20.5 1.6-36.5-.1-6.1-.6-11-5.2-11.9-11.3-9.8-68.3-66.2-474.6-63.8-767.4.1-16.5 19.4-152.1 19.4-152.1z" style="fill:url(#J)"/><linearGradient id="K" x1="866.3" x2="1381" y1="2272.6" y2="1641" gradientUnits="userSpaceOnUse"><stop offset="0" style="stop-color:#ff928e"/><stop offset="1" style="stop-color:#fe7062"/></linearGradient><path d="M961.2 2261.5c-5.8-2-9.8-7.3-10.4-13.3-7.5-72.2-43.5-519.8 184-704 0 0 13-34 120.2 49.8 107.2 84 49.8 171.8 24.1 293.1-31 146.8-85.5 266.7-61.4 357a12.5 12.5 0 0 1-7.7 15 355 355 0 0 1-248.8 2.4" style="fill:url(#K)"/><linearGradient id="L" x1="1105.1" x2="1293.9" y1="1578.3" y2="1466" gradientUnits="userSpaceOnUse"><stop offset="0" style="stop-color:#febbba"/><stop offset="1" style="stop-color:#ff928e"/></linearGradient><path d="M1223.5 1410.2c-.1 6.3-91 135.3-91 135.3s16.4 32.1 94.2 58.2l67.2-138.1z" style="fill:url(#L)"/><linearGradient id="M" x1="1311.1" x2="1200.9" y1="1502.6" y2="1340.7" gradientUnits="userSpaceOnUse"><stop offset="0" style="stop-color:#febbba"/><stop offset="1" style="stop-color:#ff928e"/></linearGradient><path d="M1295 1336.3s32.3 74.2 34.5 113.2c2.1 39 10.5 64.2-34.5 72-45 7.9-83-14.6-103.6-53.4 0 0-32.2-59.8-25-84.3s128.6-47.5 128.6-47.5" style="fill:url(#M)"/><linearGradient id="N" x1="1106.9" x2="1262.7" y1="1220.5" y2="1403" gradientUnits="userSpaceOnUse"><stop offset="0" style="stop-color:#1e3a8a"/><stop offset="1" style="stop-color:#1e40af"/></linearGradient><path d="m1206.8 1440.2 2.6-1.1a6 6 0 0 0 3-8.5c-6.4-12.3-18.7-40.4-2.7-47 20.6-8.4 102.2-25 119.9-54 16.9-27.9 1.9-63.9-20.7-74a3 3 0 0 0-4 1.2l-1.9 3.6a3 3 0 0 1-5.6-.6 3 3 0 0 0-5.6-.8c-5.4 8.7-20 22.8-59.1 30-55.6 10.2-92.3 32.7-93.2 71.1a3 3 0 0 1-4.8 2.6c-4-2.5-10.7-3.7-19.4 3.7-15.3 12.8-9 46 24.4 73.5 1.6 1.3 1.6 3.8-.1 4.9-6 4-15.1 13.3 8.3 25.8 24.2 13 42.3 12 49.3 10.8a3 3 0 0 0 2.5-3.7l-7.5-33.8a3 3 0 0 1 3-3.7z" style="fill:url(#N)"/><linearGradient id="O" x1="1257.6" x2="1147.5" y1="1539" y2="1377.2" gradientUnits="userSpaceOnUse"><stop offset="0" style="stop-color:#febbba"/><stop offset="1" style="stop-color:#ff928e"/></linearGradient><path d="M1208.2 1447.4s-12.3-47.5-33.6-34.2c-21.2 13.3 11 53.2 28.1 55z" style="fill:url(#O)"/><linearGradient id="P" x1="1118.3" x2="1356.6" y1="1997.5" y2="1671.6" gradientUnits="userSpaceOnUse"><stop offset="0" style="stop-color:#ff928e"/><stop offset="1" style="stop-color:#fe7062"/></linearGradient><path d="m1289.5 1633 6.3 168.1a462 462 0 0 0 50.8 14.5c10-32.5 32.3-72.4 50.5-102-66.8-23.6-107.6-80.6-107.6-80.6" style="fill:url(#P)"/><linearGradient id="Q" x1="1744.1" x2="1347.7" y1="1616" y2="1813.1" gradientUnits="userSpaceOnUse"><stop offset="0" style="stop-color:#febbba"/><stop offset="1" style="stop-color:#ff928e"/></linearGradient><path d="M1623 1630.1c-91.6 99-165.8 104.8-226 83.5-18.1 29.6-40.3 69.5-50.4 102 244.7 54 302.4-171 302.4-171z" style="fill:url(#Q)"/><linearGradient id="R" x1="1738.3" x2="1602.7" y1="1566.5" y2="1708.1" gradientUnits="userSpaceOnUse"><stop offset="0" style="stop-color:#febbba"/><stop offset="1" style="stop-color:#ff928e"/></linearGradient><path d="M1641.6 1619.6s10.6-11.3 30.1-7.8c19.6 3.6 37 10.4 49.1 0s16.5 3.6 16.5 3.6l-36.5 27.7z" style="fill:url(#R)"/><linearGradient id="S" x1="1745.9" x2="1349.6" y1="1613.6" y2="1810.8" gradientUnits="userSpaceOnUse"><stop offset="0" style="stop-color:#febbba"/><stop offset="1" style="stop-color:#ff928e"/></linearGradient><path d="M1619.8 1639s7.3-30.3 29-26.1c21.9 4.1 71.4 31 84.1 26 12.8-4.9 29-16.8 37.4-12.6l-14.7 18.4s37.9-21.9 44.4-8.5l-63 35.5s-92.3-9.2-117.2-32.7" style="fill:url(#S)"/><linearGradient id="T" x1="1911.6" x2="761.4" y1="1948.1" y2="1740.2" gradientUnits="userSpaceOnUse"><stop offset="0" style="stop-color:#febbba"/><stop offset="1" style="stop-color:#ff928e"/></linearGradient><path d="M1187.8 1853s172.3 144.4 358.3 81.4c11.6-3.9 24.2-3 35 2.6l53.4 28.3a47.7 47.7 0 0 0 63.3-17.7 101 101 0 0 0 15-40.3l-104.6-42.3 7.7-12.9s-51-4.3-64.5 32.3c0 0-97.3 40.5-261.5-140 0 0-74.4 63.3-102.1 108.7" style="fill:url(#T)"/><linearGradient id="U" x1="1348" x2="845.1" y1="1443.7" y2="2214.6" gradientUnits="userSpaceOnUse"><stop offset="0" style="stop-color:#e1473d"/><stop offset="1" style="stop-color:#e9605a"/></linearGradient><path d="M1178.5 1851.6a3 3 0 0 1-1.7-.5c-72.5-49-106.7-128.2-107-129a3 3 0 0 1 5.4-2.3c.4.8 33.9 78.4 105 126.4a3 3 0 0 1-1.7 5.4" style="fill:url(#U)"/><linearGradient id="V" x1="1341.1" x2="838.1" y1="1439.2" y2="2210.1" gradientUnits="userSpaceOnUse"><stop offset="0" style="stop-color:#e1473d"/><stop offset="1" style="stop-color:#e9605a"/></linearGradient><path d="M1286.5 1742q-1.6-.1-2.4-1.4c-.3-.4-22.4-34.9-64.6-110.5q-19.6-35-50.7-43.7c-34.3-9.6-67.3 8.8-67.6 9a3 3 0 1 1-3-5.1c1.5-.9 35.5-19.9 72-9.6q33.6 9.5 54.4 46.5a2327 2327 0 0 0 64.4 110.2 3 3 0 0 1-2.5 4.5" style="fill:url(#V)"/></svg>