<svg xmlns="http://www.w3.org/2000/svg" xml:space="preserve" viewBox="0 0 2475 1650"><linearGradient id="a" x1="180.1" x2="2327.8" y1="800" y2="800" gradientUnits="userSpaceOnUse"><stop offset="0" style="stop-color:#dbeafe"/><stop offset="1" style="stop-color:#eff6ff"/></linearGradient><path d="M2199.5 423.3c-41.7-19.1-86.3-37-95.2-78.5-17.5-81.2 2-149.6-106.5-180.5-151.5-43.3-282.7 78.2-403.9 141a1200 1200 0 0 1-430.3 127.4c-90-1.6-164.7-70.3-237.7-123a811 811 0 0 0-338.4-140.2c-151-25.4-441.2 37-369.3 239.4 32.8 92.3 175.3 151.5 173.4 255.5C390 751 276 815 223.8 876.4 184.3 923 160.2 979 202 1031.6c26.3 33 77.8 53.2 92.7 93.2 21.5 57.4-46 93.6-56.5 145.8-9.6 48.1 23.4 96.4 65.4 122.3 46.2 28.4 102.9 37.1 157.7 44.6 183.3 25 365-18.7 545.2-44.6 192.7-27.7 366.8-7.7 556.8 25.1 109.6 18.9 222.5 31.4 332.5 8.5 47.1-9.8 94.7-21.1 136-44.3 41.4-23.2 76.2-60.1 84.2-104.4 10.4-56.5-23.5-112-24.7-169.4-1.8-88.3 71.3-159.8 128.6-230.3 57-70 103.1-151.6 107.6-239.3 3.4-66-20.6-135.3-71.6-182.3-14.7-13.5-35.2-23.5-56.4-33.1m-1028.8 9.3 11.1-.5q-5.6.5-11.1.5" style="fill:url(#a)"/><path d="M1978.4 1411.9c83.2 16 328.8 26 419.3-381.6 2.6-11.6-11.8-19-19.8-10.3-37.2 41.2-103.5 111.2-159.8 132.8-174.4 66.7-237.5 174-258.4 224.4a25.4 25.4 0 0 0 18.7 34.7" style="fill:#bfdbfe"/><path d="M1970.4 1398.3a1.5 1.5 0 0 1-.5-3c122-35.4 211.6-103.6 265.2-154.6a590 590 0 0 0 88-103 1.5 1.5 0 0 1 2.5 1.5c-.3.5-30 48.2-88.5 103.7a686 686 0 0 1-110.8 85.8 629 629 0 0 1-156 69.6" style="fill:#93c5fd"/><path d="M606.3 1003s85.5-138.4 42.9-213.8c-42.7-75.4-151.9-171-38.4-375.2 66.4-119.6 93.7-172.9 104.9-196.5a15.4 15.4 0 0 1 24-5c54.5 47.3 225.6 211.3 187.8 371.5-44.8 190-321.2 419-321.2 419" style="fill:#bfdbfe"/><path d="M752.6 296.8q6.2 21 10.8 42.4l4.4 21.4 2 10.8 2 10.8q7 43.1 10.8 86.8 1.7 21.9 2.4 43.7l.4 11 .2 5.4v5.5l.1 22v5.4l-.1 5.5-.3 11-.3 10.9-.2 5.4q0 2.8-.3 5.5l-1.4 21.9-.4 5.4-.1 2.8-.3 2.7-1.1 11-1.4 10.9-1.6 10.8-1.8 10.9-1 5.4-1.1 5.4-2.2 10.7-2.6 10.7-1.2 5.4-1.4 5.3-3 10.6q-12 42.3-30 82.4a666 666 0 0 1-40.7 77.6 696 696 0 0 1-24 36.7q-12.3 18-26.6 35a2.2 2.2 0 0 1-3.3-2.8q6.9-8.4 13.2-17.3 6.5-8.7 12.5-17.8 12.3-18 23.3-36.7 22.1-37.5 39.6-77.4 2.3-5 4.3-10l4.1-10 4-10.1 1.9-5.1 1.8-5.1 3.7-10.2L751 749l1.7-5.2 1.5-5.2 3.1-10.4 2.8-10.5 1.4-5.2 1.3-5.3 2.5-10.6 2.2-10.6 1-5.3 1-5.3 1.8-10.7L773 654l1.4-10.7c1.7-14.4 2.4-28.9 3.5-43.3q0-2.8.3-5.5l.2-5.4.4-10.9.4-10.9.2-5.4v-32.6l-.1-5.5-.3-10.9q-.3-10.8-.9-21.7l-1.2-21.8q-3-43.5-9.5-86.5a809 809 0 0 0-17-85.4 1.2 1.2 0 0 1 2.3-.7M644.5 1343.5c11.1 8.5-84.9-179.9-73.4-442.8 5.3-124 35.7-274.4-20.9-346.2-47-59.8-247-68.8-312.6-70a9.7 9.7 0 0 0-7.8 15.6c25.2 31.7 78 105.1 82.5 169.3 6 84.4 71.7 150.8 137 178.4s100.4 48.6 111.4 164.2 52.3 307.2 83.8 331.5" style="fill:#93c5fd"/><path d="m319.7 536.6 5.5 1.4q5.3 1.4 15.2 4.6a333 333 0 0 1 84.1 42.6q16.7 11.6 32.6 27.2a215.2 215.2 0 0 1 51.1 76.7l2.1 5.6 1 2.8 1 2.8 3.4 11.4 5.8 22.3 5.8 22 5.1 21.6 5 20.9q2.4 10.2 4.3 20l4.1 19 3.5 18 3.1 16.4 6.4 39q1.6 10.2 2.2 15.7l.7 5.6a1.8 1.8 0 0 1-3.5.5l-1-5.5-3-15.4-5-24-3-14.7-3.7-16.3-4-17.7-4.4-18.8q-4.5-19.5-10-40.7-2.5-10.6-5.3-21.4l-5.8-22-6-22.2-3.2-11-.8-2.6-1-2.7-2-5.3a219 219 0 0 0-48.5-74.3 273 273 0 0 0-31.1-27.2q-16-11.9-31-20.5a380 380 0 0 0-50.3-24 319 319 0 0 0-20-7 1.4 1.4 0 0 1 .6-2.8M638.3 1338.7c8 3.6-48-82-56.1-159.7S549.4 969.3 478 893.4c-71.4-76-145.4-79.3-234.2-2.1-74 64.3-120.6 97.3-148.5 104.4-7 1.8-10.1 9.9-6.4 16 20 32.4 75.2 106.3 161 96.3 109.3-12.7 238.5-91 282.2-33.7 43.7 57.4 40.2 91 43 119 2.7 28.2 10.4 121 63.1 145.4" style="fill:#bfdbfe"/><linearGradient id="b" x1="280.8" x2="565.9" y1="1011.4" y2="1011.4" gradientUnits="userSpaceOnUse"><stop offset="0" style="stop-color:#dbeafe"/><stop offset="1" style="stop-color:#eff6ff"/></linearGradient><path d="M281 986q9-8.6 18.6-16.5a267 267 0 0 1 41.3-27.6q11-5.9 22.8-10.3 11.7-4.3 24.1-6.6t25.2-1.4l3.1.3 3.2.4 6.2 1 6 1.5 6.1 1.6a145 145 0 0 1 64.5 37.2c12 11.8 21.7 25.5 30 39.9a274 274 0 0 1 20.2 45.4q8 23.4 13.6 47.6a.7.7 0 0 1-1.5.4q-6.2-24-14.6-47.1l-4.6-11.5-2.4-5.7-2.5-5.6q-5-11.1-11.2-21.8c-8.3-14.1-18.1-27.3-29.8-38.7a141 141 0 0 0-62.9-36l-5.9-1.5-6-1.4-5.9-1.1-3-.4-3-.3c-16-1.2-32.3 2-47.6 7.5s-30 13.2-43.7 22q-20.8 13.4-39.2 29.9a.8.8 0 0 1-1-1.1" style="fill:url(#b)"/><path d="M2168.1 717.3c9.5 76.1 56.8 545.4-192.8 695.1a11.8 11.8 0 0 1-17.8-9.3c-4.1-56-6.6-233.7 96-443.4 74-151.4 101.2-219.6 109.8-243 .9-2.4 4.5-2 4.8.6" style="fill:#bfdbfe"/><path d="M1957.5 1405.1a2 2 0 0 1-1.8-3c126.5-232.4 179.7-511 179.1-520.3a2 2 0 0 1 3.9-1c1.3 4.2-13.1 79.5-41.4 176.8-26.4 90.7-71.7 224.4-138 346.5q-.7 1-1.8 1m177.4-523.3" style="fill:#93c5fd"/><linearGradient id="c" x1="1352.4" x2="1052.4" y1="359.7" y2="1691.9" gradientUnits="userSpaceOnUse"><stop offset="0" style="stop-color:#1e3a8a"/><stop offset="1" style="stop-color:#1e40af"/></linearGradient><path d="M1919.7 1357.4a25 25 0 0 1-25 24.9H546.3a25 25 0 0 1-25-25l-11.1-774.8a43.4 43.4 0 0 1 45.7-38.4L1873.7 510a63 63 0 0 1 64.5 64.2z" style="fill:url(#c)"/><linearGradient id="d" x1="1293.6" x2="555.5" y1="848.6" y2="2138.7" gradientUnits="userSpaceOnUse"><stop offset="0" style="stop-color:#2563eb"/><stop offset="1" style="stop-color:#3b82f6"/></linearGradient><path d="M1895 1333.5c0 13-10.6 23.6-23.6 23.6H578.8c-13 0-23.5-10.6-23.5-23.6L544.7 630c1.2-42.3 38.3-57.5 60.8-56.6l1263-33.9a44 44 0 0 1 45.3 45.2z" style="fill:url(#d)"/><path d="M569.2 996.8a1 1 0 0 1-1-1l-.8-57q0-1 1-1t1 1l.8 57q0 1-1 1M567.2 857a1 1 0 0 1-1-1L563 637.7q0-21.6 13-34c15.8-15.1 40.5-14.4 41.5-14.3l403.4-10.9q1 .1 1 1t-1 1l-403.4 10.9c-1 0-25-.8-40 13.7a43 43 0 0 0-12.5 32.5l3.2 218.5q-.1 1-1 1" style="fill:#60a5fa"/><linearGradient id="e" x1="1653.4" x2="1539.4" y1="182.2" y2="395.2" gradientUnits="userSpaceOnUse"><stop offset="0" style="stop-color:#2563eb"/><stop offset="1" style="stop-color:#3b82f6"/></linearGradient><path d="M612.2 1294.5c1.4-58.2.9-573-2.5-617.5-3.3-44.5 66-52.8 172.3-57.8s1003.3-24.8 1026.4-26.7c52-4.2 62.7 73.4 57.5 241.9l-13.3 431a53 53 0 0 1-52.8 51.2c-215.9.6-1043.3 3-1098.3 4.6-63.4 1.9-89.8-3.7-89.3-26.7" style="fill:url(#e)"/><linearGradient id="f" x1="1279.8" x2="1258.8" y1="397.1" y2="865.1" gradientUnits="userSpaceOnUse"><stop offset="0" style="stop-color:#1e3a8a"/><stop offset="1" style="stop-color:#1e40af"/></linearGradient><path d="M1995 1446.6H473.4c-18.7 0-34-15.3-34-34 0-18.8 15.3-34 34-34H1995c18.7 0 34 15.2 34 34 0 18.7-15.3 34-34 34" style="fill:url(#f)"/><linearGradient id="g" x1="1497.6" x2="744.7" y1="626.6" y2="1497.1" gradientUnits="userSpaceOnUse"><stop offset="0" style="stop-color:#fe7062"/><stop offset="1" style="stop-color:#ff928e"/></linearGradient><path d="M1470.5 994.9h-468.7c-15.6 0-28.2-10.6-28.2-23.7v-84.7c0-12.8 12.2-23.3 27.4-23.6l468.8-10c15.8-.4 29 10.3 29 23.6v94.7c0 13-12.7 23.7-28.3 23.7" style="fill:url(#g)"/><path d="M1470.5 999.7h-468.7c-18.2 0-33-12.8-33-28.5v-84.7c0-15.5 14-28 32.1-28.4l468.8-10c9.8-.3 19.1 3.3 25.6 9.6a26 26 0 0 1 8.2 18.8v94.7c0 15.7-14.8 28.5-33 28.5m0-142h-.6l-468.8 10c-12.5.3-22.7 8.7-22.7 18.8v84.7c0 10.4 10.5 18.8 23.4 18.8h468.7c12.9 0 23.4-8.4 23.4-18.8v-94.7c0-5.5-3-9.5-5.3-12-4.5-4.3-11-6.8-18-6.8" style="fill:#bfdbfe"/><path d="m1818 1221-483.7-11a23 23 0 0 1-22.6-23.1v-129.3a23 23 0 0 1 23.1-23.2h483.7a23 23 0 0 1 23.2 23.2v140.3c0 13-10.7 23.4-23.7 23.1M1306.9 1323l541.5 7-5-52a21 21 0 0 0-20-18.8l-491.4-17a21 21 0 0 0-21.5 19.5zM637.3 1316.4l570.3 9.8-4.6-262.5a30 30 0 0 0-29.8-29.5l-495.5-4.3a35 35 0 0 0-35.5 34.5z" style="fill:#60a5fa"/><g style="opacity:.7"><path d="m1141.6 669.4-80.9-1.2a32 32 0 0 0-32.2 31.7v69c0 17.7 14.5 32 32.2 31.7l81-1.3a32 32 0 0 0 31.2-31.8v-66.3c0-17.4-14-31.5-31.3-31.8M861.5 803.8l80.8-1.3a32 32 0 0 0 31.3-31.8v-72.6c0-17.4-14-31.5-31.3-31.8l-80.9-1.2a32 32 0 0 0-32.2 31.7V772c0 17.8 14.5 32.1 32.3 31.8M1801 679.6l-542.3-8.4c-17-.2-31 13.5-31 30.5V767c0 17 14 30.7 31 30.4l542.3-8.8a24.5 24.5 0 0 0 24.1-24.5v-60a24.5 24.5 0 0 0-24-24.5M774.3 691.8a28.6 28.6 0 0 0-28.1-28.5l-99-1.6a24.5 24.5 0 0 0-25 24l-2.2 96.5c-.4 14 11 25.3 24.9 25.1l101.3-1.6c15.6-.3 28-13 28-28.6z" style="fill:#60a5fa"/></g><linearGradient id="h" x1="1906.9" x2="1842.9" y1="741" y2="1229" gradientUnits="userSpaceOnUse"><stop offset="0" style="stop-color:#1e3a8a"/><stop offset="1" style="stop-color:#1e40af"/></linearGradient><path d="M1662.3 866.4c-2 97.9-8.8 435.5-5.6 555.1.4 12.7 9 22.9 20 23.3 53.5 2 250 7.3 337.6 3 18.3-1 32.8-18.2 33.2-39.6 1.8-102.8 5.8-391.7-3.8-524.1-1.1-15.9-11.7-28.5-25.3-30-58.3-7-255.6-23.6-331.4-17.9-13.6 1-24.3 14.2-24.7 30.2" style="fill:url(#h)"/><path d="M1686.2 896.4c-2.8 79-12 341.8-9 439 .4 14.2 10 25.7 22 26.6 50 3.4 220.4 11 293.7 4 13.1-1.2 23.5-13.7 24.2-29.1 3.7-80.6 14.4-325.4 11.6-421.5-.4-15.3-10.6-27.8-23.6-29.2-54-5.7-235.1-19.2-297.4-15.2-11.7.8-21 11.7-21.5 25.4" style="fill:#60a5fa"/><path d="M1794.8 853.4c0 3 2 5.4 4.5 5.6l64.3 4c3.1.3 5.6-3 5-6.7l-.1-.6c-.4-2.5-2.2-4.3-4.3-4.5a527 527 0 0 0-64.8-3.5c-2.6.1-4.6 2.6-4.6 5.6" style="opacity:.5;fill:#fff"/><g style="opacity:.42"><path d="m1806.1 1134.2 98.4 3.8-6.9-82.6-91.5-2.5z" style="fill:#bfdbfe"/><path d="m1916.2 1138.4 76.9 3 .5-83.5-84.3-2.2z" style="fill:#fff"/><path d="m1993.7 1044.3.7-87.5c0-10.6-7-19.4-16-20l-234.2-17.1c-9.5-.7-17.6 7.8-18 19l-3.8 98.4zM1794.4 1052.6l-72.5-1.9-3.1 80.1 75.6 2.9zM1718.3 1144.4l-6.3 164.9c-.4 11.1 7 20.5 16.6 20.8l245.8 7.3c9.5.3 17.3-8.6 17.4-19.8l1.2-162.5z" style="fill:#bfdbfe"/></g><linearGradient id="i" x1="745.7" x2="1010.5" y1="1050.7" y2="1050.7" gradientUnits="userSpaceOnUse"><stop offset="0" style="stop-color:#dbeafe"/><stop offset="1" style="stop-color:#eff6ff"/></linearGradient><path d="m986 1088.1 24.5-183.6c.6-4.9-5.6-9.9-10.3-8.1l-173.7 64.2c-4 1.4-3.8 6.8.3 10.1l24.2 19.4c3.1 2.5 4.1 6.4 2.2 8.7L746.7 1132c-1.9 2.4-.9 6.3 2.2 8.8l78.3 62.7c3.1 2.4 7.2 2.5 9 .2l106.6-133.2c1.9-2.4 6-2.3 9 .2l24.2 19.4c4.1 3.3 9.4 2.2 10-2" style="fill:url(#i)"/><path d="M832.4 1212.6q-5.1 0-9.6-3.5l-78.4-62.7a16 16 0 0 1-5.4-8.3 12 12 0 0 1 2-10.5l105.6-131.9-24.3-19.4a15 15 0 0 1-5.7-13.5c.7-4.1 3.5-7.5 7.4-9l173.7-64.2c4.6-1.7 9.9-.6 14.1 2.8 4.3 3.3 6.4 8.3 5.8 13.1L993 1089.1c-.6 4.2-3.2 7.6-7.1 9.2-4.6 1.8-10.1.8-14.4-2.6l-24.2-19.4-105.5 131.9a12 12 0 0 1-9.5 4.4m-79-77.4 78.3 62.7L937.2 1066c4.4-5.5 12.8-6 19.1-.9l23 18.5 24-179.6q-.4-.5-1-.8L832.4 966l23 18.5c6.4 5 7.9 13.3 3.4 18.8zM1883.5 1286.4h18.6V1487h-18.6z" style="fill:#bfdbfe"/><path d="M1974 1490.9h-162.5v-8.8c0-1.8 1.4-3.3 3.2-3.3h155.8c1.9 0 3.5 1.6 3.5 3.5zM2004.7 1279c0 11.7-9.6 21.2-21.2 21.2h-174.7a21.3 21.3 0 0 1-21.2-21.2v-19.2c0-11.6 9.5-21.2 21.2-21.2h174.7c11.6 0 21.2 9.6 21.2 21.2z" style="fill:#bfdbfe"/><linearGradient id="j" x1="1711.6" x2="1711.6" y1="1375" y2="1549" gradientUnits="userSpaceOnUse"><stop offset="0" style="stop-color:#1e3a8a"/><stop offset="1" style="stop-color:#1e40af"/></linearGradient><path d="M1728.3 1426.1s-60 25.8-56.5 52.9c0 0 62-12 73-29.6 11.1-17.8 5-28 5-28z" style="fill:url(#j)"/><linearGradient id="k" x1="-89.2" x2="-56.5" y1="1297.9" y2="1297.9" gradientTransform="rotate(12.5 373 8942.4)scale(-1 1)" gradientUnits="userSpaceOnUse"><stop offset="0" style="stop-color:#ff928e"/><stop offset="1" style="stop-color:#feb3b1"/></linearGradient><path d="m1743 1396.6 3 26.3c.5 4-1.7 7.9-5.5 9.2q-2.7 1.1-7.6 1.2c-4.6 0-8.6-3-9.8-7.4l-6-21.3z" style="fill:url(#k)"/><linearGradient id="l" x1="-1385.2" x2="-1616.2" y1="-30.5" y2="-242.5" gradientTransform="rotate(12.5 373 8942.4)scale(-1 1)" gradientUnits="userSpaceOnUse"><stop offset="0" style="stop-color:#2563eb"/><stop offset="1" style="stop-color:#3b82f6"/></linearGradient><path d="M1874 1194.7s-110.3-5-165.2 27 2.8 185.6 2.8 185.6 14.3 3 35-8c0 0-29.5-112.4 21.7-132 57.5-22 117-16.6 117-16.6l-11-52.5z" style="fill:url(#l)"/><linearGradient id="m" x1="1788.2" x2="1759.2" y1="1256.1" y2="1333.1" gradientUnits="userSpaceOnUse"><stop offset="0" style="stop-color:#1e3a8a"/><stop offset="1" style="stop-color:#1e40af"/></linearGradient><path d="M1683.8 1467.1c12.6-2.7 49.7-18.2 55.4-18 5.6.3 13.6 8.7 13.6 8.7s1.4 4.6-2.6 11.3c-9.6 7.5-30.2 21.2-54.2 22.7a40 40 0 0 1-34.4-12.8 49 49 0 0 1 22.2-11.9" style="fill:url(#m)"/><linearGradient id="n" x1="1702.4" x2="1694.4" y1="1495.5" y2="1654.1" gradientUnits="userSpaceOnUse"><stop offset="0" style="stop-color:#2563eb"/><stop offset="1" style="stop-color:#3b82f6"/></linearGradient><path d="M1696 1491.8c24-1.5 44.6-15.2 54.2-22.7-2.7 4.5-8 9.9-17.7 15.4-24.3 13.7-64.4 11.7-72.3 8.6-6.4-2.4-4.4-8.4 1.4-14 6 6.8 16.7 13.8 34.4 12.7" style="fill:url(#n)"/><linearGradient id="o" x1="-112.8" x2="-82.1" y1="1328" y2="1328" gradientTransform="rotate(12.5 373 8942.4)scale(-1 1)" gradientUnits="userSpaceOnUse"><stop offset="0" style="stop-color:#ff928e"/><stop offset="1" style="stop-color:#feb3b1"/></linearGradient><path d="M1766 1444a89 89 0 0 1-14.7 17.7 10 10 0 0 1-9.3 2.8q-3.3-.7-6.6-2.4a6.5 6.5 0 0 1-2.5-8.8l12.8-23.3z" style="fill:url(#o)"/><linearGradient id="p" x1="-1421.1" x2="-1652.1" y1="8.6" y2="-203.4" gradientTransform="rotate(12.5 373 8942.4)scale(-1 1)" gradientUnits="userSpaceOnUse"><stop offset="0" style="stop-color:#2563eb"/><stop offset="1" style="stop-color:#3b82f6"/></linearGradient><path d="M1983.3 1185.5s9.6 68.3-18.2 82.3c-27.9 14-89 23-110 58.5-21 35.4-58.7 105-93.1 125 0 0-19.6-6.5-25.4-16.1 0 0 40.8-107.3 57.8-133.3 14.8-22.6 36.3-55.1 67-69.2 8.7-4 9.4-13.3 7.9-22.9l-2.8-17.3z" style="fill:url(#p)"/><linearGradient id="q" x1="-417.2" x2="-693.2" y1="1575.4" y2="2019.5" gradientTransform="rotate(12.5 373 8942.4)scale(-1 1)" gradientUnits="userSpaceOnUse"><stop offset="0" style="stop-color:#fe7062"/><stop offset="1" style="stop-color:#ff928e"/></linearGradient><path d="M1725.3 1108c39 11.2 56.5-98.6 56.3-101.3l59.9 70s-35.7 62.7-89.5 69.4a64 64 0 0 1-35-5.1 56 56 0 0 0 8.3-33" style="fill:url(#q)"/><linearGradient id="r" x1="-2.6" x2="104.2" y1="1005.8" y2="1005.8" gradientTransform="rotate(12.5 373 8942.4)scale(-1 1)" gradientUnits="userSpaceOnUse"><stop offset="0" style="stop-color:#ff928e"/><stop offset="1" style="stop-color:#feb3b1"/></linearGradient><path d="M1653 1072.1c17-7 31.5 7 31.5 7 16.8 17.2 30.2 26 40.8 29a56 56 0 0 1-8.3 32.9 87 87 0 0 1-38.3-38.9c-1.8-3.5-6-5-9.6-3.2s-7.3 4.4-7.6 8c-.4 7.1-9 7.5-9 4.9s6.6-16.7 6.6-16.7l-27.1 17.3c-7.7 4.8-14.1-3-14.1-3s18.1-30.3 35.1-37.3" style="fill:url(#r)"/><linearGradient id="s" x1="2045" x2="1769" y1="837.1" y2="1281.2" gradientUnits="userSpaceOnUse"><stop offset="0" style="stop-color:#fe7062"/><stop offset="1" style="stop-color:#ff928e"/></linearGradient><path d="M1968.3 961.5s-52.5-35.8-179.2 29c0 0-13 16.5-6.9 35.1s81.3 119.5 84.3 166.9c0 0 51.4 30.3 118.1.3 0 0 22.4-125.1-16.3-231.3" style="fill:url(#s)"/><linearGradient id="t" x1="-121.1" x2="-50.3" y1="817.4" y2="817.4" gradientTransform="rotate(12.5 373 8942.4)scale(-1 1)" gradientUnits="userSpaceOnUse"><stop offset="0" style="stop-color:#ff928e"/><stop offset="1" style="stop-color:#feb3b1"/></linearGradient><path d="m1859 915.8 20.8 40.6c2 4 1.6 8.9-1.2 12.4-5.7 7.2-17.6 16.8-38 10.6-6-1.9-10.7-6.8-12.1-13l-10.8-45.3z" style="fill:url(#t)"/><linearGradient id="u" x1="2117.6" x2="1841.6" y1="882.3" y2="1326.3" gradientUnits="userSpaceOnUse"><stop offset="0" style="stop-color:#fe7062"/><stop offset="1" style="stop-color:#ff928e"/></linearGradient><path d="M2007.1 1103.3c3.5-24.7-61.7-72.5-61.7-72.5l22.9-69.3s124.4 88.8 98.3 161.4a51 51 0 0 1-16.2 23.3c-13.2-27-31-38.2-43.3-42.9" style="fill:url(#u)"/><linearGradient id="v" x1="1949" x2="1953" y1="983.8" y2="1086.8" gradientUnits="userSpaceOnUse"><stop offset="0" style="stop-color:#ff928e"/><stop offset="1" style="stop-color:#feb3b1"/></linearGradient><path d="M1916 1110.2s73.9 20.6 89.2-1.9q1.5-2.3 1.9-5c12.2 4.7 30.1 15.9 43.3 43-35 27.5-102.6-3.4-121-12.7a13 13 0 0 0-9.7-.8c-6.5 2-17.8 5.2-24.1 4.9-9.2-.5-19.1 32.8-34.8 24.4 0 0 7-57 55.3-52" style="fill:url(#v)"/><linearGradient id="w" x1="121.9" x2="33.3" y1="-1222.7" y2="-1105.5" gradientTransform="rotate(-130.9 900.5 649.4)scale(1 -1)" gradientUnits="userSpaceOnUse"><stop offset="0" style="stop-color:#ff928e"/><stop offset="1" style="stop-color:#feb3b1"/></linearGradient><path d="M1832.5 849.4c-.9.7-38.8 68-38.8 68l38.9 20.8 45.4-58.4s-30.7-43.2-45.5-30.4" style="fill:url(#w)"/><linearGradient id="x" x1="54.3" x2="160.1" y1="-1194.4" y2="-1194.4" gradientTransform="rotate(-130.9 900.5 649.4)scale(1 -1)" gradientUnits="userSpaceOnUse"><stop offset="0" style="stop-color:#1e3a8a"/><stop offset="1" style="stop-color:#1e40af"/></linearGradient><path d="m1859.9 886-21.5 32.6-1 1c-2.3 2-10.8 8.4-16.7-.7-5.4-8.2-10.5-15.6-16.2-18.2a5.5 5.5 0 0 0-7 2.4c-3.4 6-10.9 20-15.6 33-1 2.7.4 5.7 3 6.8 7.6 3.6 24.1 10.6 38.7 13.1q3.2.6 5.3-2a562 562 0 0 1 30.8-36.5c5.8-5.3 16.2-2.5 20.4-1q2.3.6 4.2-.4c4.7-2.4 14-9 6.3-21.8-1.6-2.7-.6-6 2-7.6 5.4-3 12-9.2 6.9-20-5.1-11-15.3-12-21.8-11.3-2.6.3-5-1.4-5.8-4q-.5-2.2-3.8-3c-3.1-.5-5-3.7-4.3-6.7a16 16 0 0 0-8.1-19.6c-16.7-10.1-32.4 4.6-36.7 17.4s14.4 22.7 26.4 24.8c9 1.5 13.5 12 15.1 17q.8 2.4-.6 4.6" style="fill:url(#x)"/><linearGradient id="y" x1="-7.8" x2="63.2" y1="-1129.9" y2="-1202.8" gradientTransform="rotate(-130.9 900.5 649.4)scale(1 -1)" gradientUnits="userSpaceOnUse"><stop offset="0" style="stop-color:#ff928e"/><stop offset="1" style="stop-color:#feb3b1"/></linearGradient><path d="M1851.8 929.4s8.5-22 18.3-20.8c9.7 1.2 17 11.3 4.4 21.7-15.6 13-22.7-1-22.7-1" style="fill:url(#y)"/><linearGradient id="z" x1="12255.1" x2="12116.2" y1="1805.7" y2="1843.8" gradientTransform="rotate(-2.8 -6995.2 211946)" gradientUnits="userSpaceOnUse"><stop offset="0" style="stop-color:#1e3a8a"/><stop offset="1" style="stop-color:#1e40af"/></linearGradient><path d="M1821.9 1157.2h-.4l-172.4-.2a7.7 7.7 0 1 1 0-15.5l172.4.2a7.7 7.7 0 0 1 .4 15.5" style="fill:url(#z)"/><linearGradient id="A" x1="1539.6" x2="1643.6" y1="1163.8" y2="1035.8" gradientUnits="userSpaceOnUse"><stop offset="0" style="stop-color:#1e3a8a"/><stop offset="1" style="stop-color:#1e40af"/></linearGradient><path d="M1494 1000.6h143.6c10.6 0 20.3 6.1 24.8 15.7l66.4 140.8h-178.5c-6.8 0-13-4.2-15.4-10.6l-51.5-130.2c-3-7.5 2.6-15.7 10.7-15.7" style="fill:url(#A)"/><path d="M1595.2 1072.8c3.1 9.7.8 19-5.1 21-6 1.9-13.3-4.4-16.4-14s-.8-19.1 5.1-21c6-2 13.3 4.3 16.4 14" style="fill:#60a5fa"/><linearGradient id="B" x1="1510.1" x2="1676.5" y1="1348.9" y2="1348.9" gradientUnits="userSpaceOnUse"><stop offset="0" style="stop-color:#dbeafe"/><stop offset="1" style="stop-color:#eff6ff"/></linearGradient><path d="M1517.3 1527q-1.5 0-2.8-.6a7 7 0 0 1-3.8-9.3l152-342a7.3 7.3 0 0 1 9.5-3.6 7 7 0 0 1 3.8 9.2l-152 342a7 7 0 0 1-6.7 4.2" style="fill:url(#B)"/><linearGradient id="C" x1="1529.3" x2="1695.8" y1="1348.9" y2="1348.9" gradientUnits="userSpaceOnUse"><stop offset="0" style="stop-color:#dbeafe"/><stop offset="1" style="stop-color:#eff6ff"/></linearGradient><path d="M1688.5 1527a7 7 0 0 1-6.6-4.3l-152-342a7 7 0 0 1 3.8-9.2c3.7-1.5 8 .1 9.5 3.7l152 342a7 7 0 0 1-3.8 9.2q-1.5.5-2.9.5" style="fill:url(#C)"/><linearGradient id="D" x1="1980.4" x2="2146.9" y1="1348.9" y2="1348.9" gradientUnits="userSpaceOnUse"><stop offset="0" style="stop-color:#dbeafe"/><stop offset="1" style="stop-color:#eff6ff"/></linearGradient><path d="M1987.7 1527q-1.5 0-2.9-.6a7 7 0 0 1-3.8-9.3l152-342a7.3 7.3 0 0 1 9.5-3.6 7 7 0 0 1 3.8 9.2l-152 342a7 7 0 0 1-6.6 4.2" style="fill:url(#D)"/><linearGradient id="E" x1="1999.7" x2="2166.1" y1="1348.9" y2="1348.9" gradientUnits="userSpaceOnUse"><stop offset="0" style="stop-color:#dbeafe"/><stop offset="1" style="stop-color:#eff6ff"/></linearGradient><path d="M2158.8 1527a7 7 0 0 1-6.6-4.3l-152-342a7 7 0 0 1 3.8-9.2c3.7-1.5 8 .1 9.6 3.7l151.9 342a7 7 0 0 1-3.8 9.2q-1.4.5-2.9.5" style="fill:url(#E)"/><linearGradient id="F" x1="1470.9" x2="2176.8" y1="1174.3" y2="1174.3" gradientUnits="userSpaceOnUse"><stop offset="0" style="stop-color:#dbeafe"/><stop offset="1" style="stop-color:#eff6ff"/></linearGradient><path d="M2176.7 1164.6q.5-3.4-1.5-6.3a7 7 0 0 0-5.2-2.8h-691.3a8 8 0 0 0-6.6 4 10 10 0 0 0-.5 8.5l7.5 18.2c1.7 4.1 5.4 6.8 9.5 6.8h676.6c3.8 0 7-3 7.8-7.2z" style="fill:url(#F)"/><linearGradient id="G" x1="641" x2="634.3" y1="831.1" y2="873.4" gradientUnits="userSpaceOnUse"><stop offset="0" style="stop-color:#1e3a8a"/><stop offset="1" style="stop-color:#1e40af"/></linearGradient><path d="M649.9 944.8c-9.9.8-27 2.2-40.4 2.8-8.1.4-12.8-.4-15.5-1.5v.8c.1 1.5 1.3 2.6 2.7 2.7 25.5 1.4 45.7.5 52.9 0a2 2 0 0 0 1.6-3z" style="fill:url(#G)"/><linearGradient id="H" x1="594" x2="649.9" y1="936.3" y2="936.3" gradientUnits="userSpaceOnUse"><stop offset="0" style="stop-color:#1e3a8a"/><stop offset="1" style="stop-color:#1e40af"/></linearGradient><path d="M609.5 947.6c13.4-.6 30.5-2 40.4-2.8-9.7-11.9-40.4-19.9-40.4-19.9h-8.7c-6 8.6-6.8 16.8-6.8 21.2 2.7 1 7.4 1.9 15.5 1.5" style="fill:url(#H)"/><linearGradient id="I" x1="599.3" x2="615.5" y1="920.6" y2="920.6" gradientUnits="userSpaceOnUse"><stop offset="0" style="stop-color:#ff928e"/><stop offset="1" style="stop-color:#feb3b1"/></linearGradient><path d="m599.3 910.8.9 16c0 1.8 1.4 3.2 3 3.5q2.8.5 6.6-.6a4 4 0 0 0 3-3.3l2.7-15.6z" style="fill:url(#I)"/><linearGradient id="J" x1="506.9" x2="499.2" y1="857.4" y2="898.4" gradientUnits="userSpaceOnUse"><stop offset="0" style="stop-color:#1e3a8a"/><stop offset="1" style="stop-color:#1e40af"/></linearGradient><path d="M486.7 947.5c-4.3-.6-6.2-2.8-7-5.2-.7 2.6.8 5.2 3.7 6.4 3.5 1.5 7.4 1.7 10.4 1.6 3.2-.1 6.1-1.4 7.7-3.6-3.2 1.6-7.7 1.8-14.8.8" style="fill:url(#J)"/><linearGradient id="K" x1="479.7" x2="512" y1="929.4" y2="929.4" gradientUnits="userSpaceOnUse"><stop offset="0" style="stop-color:#1e3a8a"/><stop offset="1" style="stop-color:#1e40af"/></linearGradient><path d="M506.8 910.6h-7.1c-11-.2-17.8 22.8-20 31.7.8 2.4 2.7 4.6 7 5.2 7.1 1 11.6.8 14.8-.8 6-7.7 8.8-19 10.2-25.7a9 9 0 0 0-4.9-10.4" style="fill:url(#K)"/><linearGradient id="L" x1="496.5" x2="515.8" y1="907.1" y2="907.1" gradientUnits="userSpaceOnUse"><stop offset="0" style="stop-color:#ff928e"/><stop offset="1" style="stop-color:#feb3b1"/></linearGradient><path d="m500.6 895.7-4 15.8c-.5 2 .4 4 2.2 4.9 2.3 1.1 5.4 2.3 8.3 2a4 4 0 0 0 2.9-2.4l5.8-16.6z" style="fill:url(#L)"/><linearGradient id="M" x1="940.6" x2="781.6" y1="560" y2="670" gradientUnits="userSpaceOnUse"><stop offset="0" style="stop-color:#1e3a8a"/><stop offset="1" style="stop-color:#1e40af"/></linearGradient><path d="M495.8 900.3c5 4.4 21 5 21 5 58-139 81.6-158.7 81.6-158.7-8.3 52.4-1.3 168.5-1.3 168.5 9.5 4.2 21.9 0 21.9 0a895 895 0 0 1 29.5-219.8c-39.1-.8-60-14.2-66.7-19.6-32.6 52.6-86 224.6-86 224.6" style="fill:url(#M)"/><linearGradient id="N" x1="770.3" x2="425.3" y1="531.6" y2="705.6" gradientUnits="userSpaceOnUse"><stop offset="0" style="stop-color:#fe7062"/><stop offset="1" style="stop-color:#ff928e"/></linearGradient><path d="M591.7 515.9c-7.4 37-4.7 103-3 133.2.5 8.5-5.4 20.3-10.2 28.3a2.5 2.5 0 0 0 1 3.5c8 4.1 35.2 16.9 66.6 18.5 2.1 0 4-1.4 4.5-3.4A875 875 0 0 1 701 553.3c-29.9-47.8-109.3-37.4-109.3-37.4" style="fill:url(#N)"/><linearGradient id="O" x1="561.6" x2="570.9" y1="835.5" y2="816.9" gradientUnits="userSpaceOnUse"><stop offset="0" style="stop-color:#3f2bf3"/><stop offset="1" style="stop-color:#3522cb"/></linearGradient><path d="M602.4 743.3a2 2 0 0 1-1.6-2.8c.3-.6 7.8-12.7 23-20a1.9 1.9 0 0 1 1.6 3.4 56 56 0 0 0-21.4 18.5q-.6.9-1.6.9" style="fill:url(#O)"/><linearGradient id="P" x1="611.2" x2="591.8" y1="564.3" y2="595.6" gradientUnits="userSpaceOnUse"><stop offset="0" style="stop-color:#ff928e"/><stop offset="1" style="stop-color:#feb3b1"/></linearGradient><path d="M545.3 622a127 127 0 0 0 23.4 55.8l5.4-4.3s-6.2-25-2.7-53.5a64 64 0 0 0-26.1 2" style="fill:url(#P)"/><linearGradient id="Q" x1="746.7" x2="401.7" y1="484.7" y2="658.7" gradientUnits="userSpaceOnUse"><stop offset="0" style="stop-color:#fe7062"/><stop offset="1" style="stop-color:#ff928e"/></linearGradient><path d="m600 561.5-8.3-45.6s-55.2 42.2-46.4 106a64 64 0 0 1 26.1-1.9c2.6-20.4 10.1-42.6 28.6-58.5" style="fill:url(#Q)"/><linearGradient id="R" x1="784.5" x2="439.5" y1="559.6" y2="733.6" gradientUnits="userSpaceOnUse"><stop offset="0" style="stop-color:#fe7062"/><stop offset="1" style="stop-color:#ff928e"/></linearGradient><path d="m701 553.3-21.3 46c3.5 27.7 18.4 39.7 34.4 44.3 1-12.7 4.2-22.9 7.2-30-20.5-21.2-20.3-60.3-20.3-60.3" style="fill:url(#R)"/><linearGradient id="S" x1="714.1" x2="768.3" y1="631" y2="631" gradientUnits="userSpaceOnUse"><stop offset="0" style="stop-color:#ff928e"/><stop offset="1" style="stop-color:#feb3b1"/></linearGradient><path d="M721.3 613.6c-3 7.1-6.2 17.3-7.2 30 42.9 16.6 54.2-15.7 54.2-15.7l-7.9-1.4a45 45 0 0 1-39.1-12.9" style="fill:url(#S)"/><linearGradient id="T" x1="677" x2="647" y1="468.4" y2="554.4" gradientUnits="userSpaceOnUse"><stop offset="0" style="stop-color:#ff928e"/><stop offset="1" style="stop-color:#feb3b1"/></linearGradient><path d="m681.4 496.5-10.3 38a7.4 7.4 0 0 1-9.9 4.8c-4.4-1.8-10-4.2-14.8-6.8a10 10 0 0 1-3.5-14.2l21.4-32z" style="fill:url(#T)"/><linearGradient id="U" x1="510.7" x2="794.6" y1="670.7" y2="670.7" gradientUnits="userSpaceOnUse"><stop offset="0" style="stop-color:#1e3a8a"/><stop offset="1" style="stop-color:#1e40af"/></linearGradient><path d="m788 602.6-264 96c-11 4-16.3 16.7-11.4 27.4l.8 1.8a19 19 0 0 0 25 9.3l256.2-118.6z" style="fill:url(#U)"/><g style="opacity:.35"><ellipse cx="909.3" cy="544.8" rx="130.3" ry="127.9" style="fill:#bfdbfe"/></g><linearGradient id="V" x1="764.3" x2="1054.3" y1="544.8" y2="544.8" gradientUnits="userSpaceOnUse"><stop offset="0" style="stop-color:#1e3a8a"/><stop offset="1" style="stop-color:#1e40af"/></linearGradient><path d="M909.3 402.4c-80 0-145 63.8-145 142.4s65 142.4 145 142.4 145-63.8 145-142.4-65-142.4-145-142.4m0 263.9a122.6 122.6 0 0 1-123.7-121.5c0-67 55.4-121.4 123.7-121.4S1033 477.7 1033 544.8c0 67-55.4 121.5-123.7 121.5" style="fill:url(#V)"/><path d="M775.3 562a1 1 0 0 1-.4-.5l-1-10.1a.5.5 0 0 1 1 0q.3 5 1 10a.5.5 0 0 1-.6.6m1-39.8a.5.5 0 0 1-.5-.6q2.5-13.7 7.8-26.7c10-24.3 27-45 49-59.9a137 137 0 0 1 76.7-23.3c25.9 0 51 7.2 72.8 20.8a.5.5 0 1 1-.6.9 136 136 0 0 0-72.2-20.7 134 134 0 0 0-133 109.5" style="fill:#93c5fd"/><linearGradient id="W" x1="780.1" x2="726.1" y1="465" y2="477.7" gradientUnits="userSpaceOnUse"><stop offset="0" style="stop-color:#ff928e"/><stop offset="1" style="stop-color:#feb3b1"/></linearGradient><path d="M704 467.8c0 .6-8.7 43.2-8.7 43.2l-24.2-5.5 2.3-41.6s29-7 30.5 3.9" style="fill:url(#W)"/><linearGradient id="X" x1="354.8" x2="414.4" y1="2143.2" y2="2143.2" gradientTransform="rotate(-8.2 -11005 -801.5)" gradientUnits="userSpaceOnUse"><stop offset="0" style="stop-color:#1e3a8a"/><stop offset="1" style="stop-color:#1e40af"/></linearGradient><path d="M678.8 473.2 676 495v.8c.3 1.7 1.5 7.6 7.4 5.9 5.3-1.5 10.2-2.8 13.6-1.8a3 3 0 0 1 2.1 3.6c-.8 3.8-2.7 12.5-5.6 19.8a3 3 0 0 1-3.7 1.8 99 99 0 0 1-21.3-8.7 3 3 0 0 1-1.5-2.8c.2-5.5.9-22.2.3-26.9-.5-4.4-5.9-7-8.2-8a3 3 0 0 1-1.7-1.7c-1.1-2.7-2.6-9 5.3-11.6a3 3 0 0 0 2-4c-1.2-3.2-1.7-8.2 4.5-11s10.9.6 13.4 3.3a3 3 0 0 0 3.9.4q1-.8 2.8.1a3 3 0 0 0 4.2-1.3c1.5-3 4.6-6.3 10.7-5.3 10.8 1.9 12 13.9 9.2 21s-14.5 4.3-20.3.8c-4.5-2.7-10.2 0-12.8 1.6a3 3 0 0 0-1.4 2.2" style="fill:url(#X)"/><linearGradient id="Y" x1="319.9" x2="359.9" y1="2179.5" y2="2138.5" gradientTransform="rotate(-8.2 -11005 -801.5)" gradientUnits="userSpaceOnUse"><stop offset="0" style="stop-color:#ff928e"/><stop offset="1" style="stop-color:#feb3b1"/></linearGradient><path d="M666.2 494.7s4.5-12.5 0-15.6c-4.7-3-11.4-1.5-10 7.6 2 11.2 10 8 10 8" style="fill:url(#Y)"/><linearGradient id="Z" x1="644.7" x2="625.4" y1="585" y2="616.3" gradientUnits="userSpaceOnUse"><stop offset="0" style="stop-color:#ff928e"/><stop offset="1" style="stop-color:#feb3b1"/></linearGradient><path d="m571.9 672.7 25-2 10.7 10s-2.5 3.5-10.5 1.5-19-2.6-19-2.6-11 5-11.1-4.3z" style="fill:url(#Z)"/><linearGradient id="aa" x1="796.3" x2="787.6" y1="538.2" y2="570.2" gradientUnits="userSpaceOnUse"><stop offset="0" style="stop-color:#ff928e"/><stop offset="1" style="stop-color:#feb3b1"/></linearGradient><path d="M765.2 633.8c2.1 1.7 9.5-1.8 14-4.2a5 5 0 0 0 2.6-6.2c-1.1-3.4-3-7.8-5.2-8.4-3.7-1-20.3 11.9-11.4 18.8" style="fill:url(#aa)"/><path d="M529.3 732.9h-.2q-12-4.2-12.6-13.8a15 15 0 0 1 10-14.6L558 692a.5.5 0 1 1 .4 1l-31.7 12.3a14 14 0 0 0-9.3 13.7q.4 8.9 12 12.8a.5.5 0 0 1-.2 1M568 689.3a.5.5 0 0 1-.1-1l4.1-1.6q.5 0 .7.3 0 .5-.3.6l-4.1 1.6zM675.5 1517c-2.6 0-4.7-2-4.7-4.6v-554a4.6 4.6 0 1 1 9.3 0v554c0 2.6-2 4.6-4.6 4.6M549.8 1517c-2.5 0-4.6-2-4.6-4.6v-554a4.6 4.6 0 1 1 9.3 0v554c0 2.6-2.1 4.6-4.7 4.6M241.2 1520.6a4.6 4.6 0 0 1-4.3-6.5l237-557.6a4.6 4.6 0 0 1 8.6 3.6l-237 557.6a5 5 0 0 1-4.3 2.9" style="fill:#93c5fd"/><path d="M387.6 1520.6a4.6 4.6 0 0 1-4.2-6.5l237-557.6a4.6 4.6 0 0 1 8.5 3.6l-237 557.6a5 5 0 0 1-4.3 2.9" style="fill:#93c5fd"/><path d="M682.7 963.4H465.5c-3.6 0-6.5-3-6.5-6.5 0-3.6 2.9-6.6 6.5-6.6h217.2c3.6 0 6.5 3 6.5 6.6s-3 6.5-6.5 6.5M588.9 1048.2H442a4.6 4.6 0 1 1 0-9.3h146.9a4.6 4.6 0 0 1 0 9.3M396.9 1144.4h146.9v9.3H396.9zM353.3 1249.9h146.9v9.3H353.3zM454.4 1364.6H307.6a4.6 4.6 0 1 1 0-9.3h146.8a4.6 4.6 0 0 1 0 9.3M410.2 1470H263.3a4.6 4.6 0 1 1 0-9.2h146.9a4.6 4.6 0 1 1 0 9.3" style="fill:#93c5fd"/><path d="m1544 225 2.6 1.5a.8.8 0 0 1-.7 1.3l-2.6-1.5a.8.8 0 0 1 .7-1.3M1552.6 230.3l2.5 1.7a.8.8 0 0 1-1 1.3l-2.4-1.7a.8.8 0 0 1 .9-1.3M1560.6 236.4l2.3 2a.8.8 0 1 1-1 1.2h-.1l-2.2-2a.8.8 0 0 1 1-1.2M1568 243.3l2 2.2a.8.8 0 1 1-1.2 1.1l-2-2.2a.8.8 0 0 1 1.1-1.1M1574.5 250.9l1.9 2.4a.8.8 0 1 1-1.3 1l-1.8-2.4a.8.8 0 0 1 1.2-1M1580.4 259l1.6 2.6a.8.8 0 1 1-1.4 1v-.1l-1.6-2.5a.8.8 0 0 1 1.4-1M1585.5 267.7l1.4 2.7a.9.9 0 1 1-1.5.8l-1.4-2.7a.9.9 0 0 1 1.5-.8M1590 276.8l1 2.8a.9.9 0 0 1-1.5.7l-1.2-2.8a.9.9 0 0 1 1.6-.7M1593.5 286.2l1 2.8a.9.9 0 1 1-1.7.6l-1-2.9a.9.9 0 0 1 1.7-.5M1596.5 295.8l.7 3a.9.9 0 0 1-1.7.4l-.8-3a.9.9 0 0 1 1.8-.4M1598.7 305.6l.5 3a1 1 0 1 1-1.8.3l-.5-3a1 1 0 0 1 1.8-.3M1600.2 315.6l.4 3a1 1 0 0 1-1.9.2l-.3-3a1 1 0 0 1 1.8-.2M1601.1 325.6l.2 3a1 1 0 0 1-2 0v-3a1 1 0 0 1 1.8 0M1601.4 335.6v3a1 1 0 1 1-2 0v-3a1 1 0 0 1 2 0M1601 345.7l-.3 3a1 1 0 1 1-1.9-.2l.2-3a1 1 0 0 1 2 .2M1600 355.7l-.5 3a1 1 0 1 1-2-.3l.5-3a1 1 0 0 1 2 .3M1598.3 365.6l-.6 3a1 1 0 0 1-2-.4l.7-3a1 1 0 0 1 2 .4M1596 375.4l-.8 3a1 1 0 1 1-2-.6l.9-2.9a1 1 0 0 1 2 .5M1593.1 385l-1 3a1 1 0 1 1-2-.8l1-2.8a1 1 0 0 1 2 .7M1589.5 394.5l-1.2 2.7a1 1 0 1 1-1.9-.8l1.2-2.7a1 1 0 0 1 2 .8M1585.3 403.6l-1.3 2.7a1 1 0 0 1-2-1l1.4-2.6a1 1 0 0 1 2 1M1580.6 412.5l-1.5 2.6a1 1 0 1 1-1.8-1l1.5-2.6a1 1 0 0 1 1.8 1M1575.5 421.2l-1.6 2.5a1 1 0 0 1-1.9-1.2l1.7-2.5a1 1 0 0 1 1.8 1.2M1570 429.5l-1.8 2.5a1.1 1.1 0 0 1-1.8-1.3l1.8-2.4a1.1 1.1 0 0 1 1.8 1.2M1564 437.6l-1.8 2.4a1.1 1.1 0 0 1-1.8-1.4l1.8-2.3a1.1 1.1 0 0 1 1.8 1.3M1557.7 445.5l-2 2.3a1.1 1.1 0 1 1-1.7-1.5l2-2.3a1.1 1.1 0 0 1 1.7 1.5M1551 453l-2 2.2a1.1 1.1 0 0 1-1.6-1.5l2-2.2a1.1 1.1 0 0 1 1.7 1.5M1544.2 460.3l-2.2 2.1a1.2 1.2 0 1 1-1.6-1.6l2.1-2.1a1.2 1.2 0 0 1 1.7 1.6M1537 467.3l-2.2 2a1.2 1.2 0 0 1-1.6-1.7l2.2-2a1.2 1.2 0 0 1 1.6 1.7M1529.6 474l-2.3 2a1.2 1.2 0 1 1-1.6-1.7l2.3-2a1.2 1.2 0 0 1 1.6 1.8M1522 480.6l-2.4 2a1.2 1.2 0 1 1-1.5-2l2.3-1.8a1.2 1.2 0 0 1 1.6 1.8M1514.1 486.9l-2.3 1.8a1.2 1.2 0 0 1-1.5-1.9l2.3-1.8a1.2 1.2 0 0 1 1.5 1.9M1506.2 493l-2.5 1.8a1.2 1.2 0 1 1-1.4-2l2.4-1.8a1.2 1.2 0 0 1 1.5 2M1498 498.9l-2.4 1.7a1.3 1.3 0 1 1-1.5-2l2.5-1.8a1.2 1.2 0 0 1 1.4 2M1489.8 504.6l-2.5 1.6a1.3 1.3 0 1 1-1.4-2l2.5-1.7a1.3 1.3 0 0 1 1.4 2M1481.4 510l-2.5 1.7a1.3 1.3 0 1 1-1.4-2.2l2.5-1.6a1.3 1.3 0 0 1 1.4 2.2M1473 515.4l-2.6 1.6a1.3 1.3 0 0 1-1.4-2.2l2.6-1.6a1.3 1.3 0 0 1 1.4 2.2M1464.4 520.6l-2.6 1.6a1.3 1.3 0 0 1-1.3-2.3l2.6-1.5a1.3 1.3 0 0 1 1.3 2.2M1455.8 525.7l-2.7 1.5a1.3 1.3 0 0 1-1.3-2.3l2.6-1.5a1.3 1.3 0 0 1 1.4 2.3M1447 530.7l-2.6 1.4a1.3 1.3 0 1 1-1.3-2.3l2.6-1.5a1.3 1.3 0 1 1 1.3 2.4M1438.3 535.5l-2.6 1.5a1.4 1.4 0 0 1-1.3-2.4l2.6-1.4a1.4 1.4 0 1 1 1.3 2.3M1429.5 540.3l-2.7 1.4a1.4 1.4 0 1 1-1.2-2.4l2.6-1.4a1.4 1.4 0 1 1 1.3 2.4M1420.6 545l-2.6 1.4a1.4 1.4 0 0 1-1.3-2.5l2.7-1.4a1.4 1.4 0 1 1 1.2 2.5M1411.7 549.6l-2.6 1.3a1.4 1.4 0 1 1-1.3-2.4l2.7-1.4a1.4 1.4 0 1 1 1.2 2.5M1402.8 554l-2.7 1.4a1.4 1.4 0 1 1-1.2-2.5l2.7-1.3a1.4 1.4 0 1 1 1.2 2.5M1393.8 558.5l-2.7 1.3a1.4 1.4 0 0 1-1.2-2.5l2.7-1.3a1.4 1.4 0 1 1 1.2 2.5M1384.8 562.9l-2.7 1.3a1.4 1.4 0 1 1-1.2-2.6l2.7-1.3a1.4 1.4 0 1 1 1.2 2.6M1375.8 567.2l-2.7 1.2a1.4 1.4 0 1 1-1.3-2.5l2.8-1.3a1.4 1.4 0 1 1 1.2 2.6M1366.7 571.4l-2.7 1.2a1.4 1.4 0 1 1-1.2-2.6l2.7-1.2a1.4 1.4 0 1 1 1.2 2.6M1357.6 575.5l-2.8 1.2a1.4 1.4 0 0 1-1.1-2.6l2.7-1.2a1.4 1.4 0 1 1 1.2 2.6M1348.4 579.6l-2.7 1.2a1.5 1.5 0 0 1-1.2-2.7l2.8-1.2a1.5 1.5 0 0 1 1.1 2.7M1339.3 583.6l-2.8 1.2a1.5 1.5 0 1 1-1.2-2.7l2.8-1.2a1.5 1.5 0 1 1 1.2 2.7M1330 587.5l-2.7 1.2a1.5 1.5 0 0 1-1.2-2.7l2.8-1.2a1.5 1.5 0 1 1 1.2 2.7M1320.8 591.4l-2.7 1.2a1.5 1.5 0 1 1-1.2-2.8l2.8-1.1a1.5 1.5 0 1 1 1.1 2.7M1311.6 595.2l-2.8 1.2a1.5 1.5 0 1 1-1.1-2.8l2.8-1.1a1.5 1.5 0 1 1 1 2.7M1302.3 599l-2.8 1.1a1.5 1.5 0 1 1-1-2.7l2.7-1.2a1.5 1.5 0 0 1 1.1 2.8M1293 602.7l-2.8 1.1a1.5 1.5 0 0 1-1-2.8l2.7-1a1.5 1.5 0 1 1 1.1 2.7M1283.7 606.4l-2.8 1a1.5 1.5 0 1 1-1-2.7l2.7-1.1a1.5 1.5 0 0 1 1.1 2.8M1274.4 610l-2.8 1a1.5 1.5 0 1 1-1.1-2.8l2.8-1a1.5 1.5 0 1 1 1 2.8M1265 613.6l-2.8 1a1.5 1.5 0 0 1-1-2.8l2.8-1a1.5 1.5 0 1 1 1 2.8M1255.7 617.1l-2.8 1a1.5 1.5 0 0 1-1.1-2.8l2.8-1a1.5 1.5 0 1 1 1 2.8M1246.3 620.6l-2.8 1a1.5 1.5 0 0 1-1.1-2.9l2.8-1a1.5 1.5 0 0 1 1 2.9M1236.9 624l-2.8 1a1.6 1.6 0 1 1-1-2.9l2.7-1a1.5 1.5 0 0 1 1 3M1227.5 627.4l-2.8 1a1.6 1.6 0 0 1-1.1-2.9l2.8-1a1.6 1.6 0 1 1 1 3M1218 630.8l-2.8 1a1.6 1.6 0 0 1-1-3l2.8-1a1.6 1.6 0 0 1 1 3M1208.6 634.2l-2.8 1a1.6 1.6 0 0 1-1-3l2.8-1a1.6 1.6 0 0 1 1 3M1199.2 637.5l-2.8 1a1.6 1.6 0 1 1-1-3l2.8-1a1.6 1.6 0 0 1 1 3M1189.7 640.8l-2.8 1a1.6 1.6 0 0 1-1-3l2.8-1a1.6 1.6 0 0 1 1 3M1180.3 644l-2.8 1a1.6 1.6 0 1 1-1-3l2.8-1a1.6 1.6 0 0 1 1 3M1170.8 647.3l-2.8 1a1.6 1.6 0 0 1-1-3l2.8-1a1.6 1.6 0 0 1 1 3M1161.4 650.5l-2.9 1a1.6 1.6 0 0 1-1-3l2.8-1a1.6 1.6 0 0 1 1 3M1151.9 653.8l-2.8 1a1.6 1.6 0 0 1-1-3.2l2.8-1a1.6 1.6 0 0 1 1 3.2M1142.4 657l-2.8 1a1.6 1.6 0 0 1-1-3.2l2.8-1a1.6 1.6 0 0 1 1 3.2M1133 660.1l-2.9 1a1.6 1.6 0 1 1-1-3.1l2.8-1a1.6 1.6 0 0 1 1 3.1M1123.5 663.3l-2.9 1a1.6 1.6 0 1 1-1-3.1l2.8-1a1.6 1.6 0 0 1 1 3.1M1114 666.5l-2.9 1a1.7 1.7 0 1 1-1-3.2l2.8-1a1.7 1.7 0 0 1 1 3.2M1104.5 669.7l-2.8 1a1.7 1.7 0 1 1-1.1-3.2l2.8-1a1.7 1.7 0 0 1 1.1 3.2M1095 672.9l-2.8 1a1.7 1.7 0 1 1-1-3.2l2.8-1a1.7 1.7 0 0 1 1 3.2M1085.5 676l-2.8 1a1.7 1.7 0 1 1-1-3.2l2.8-1a1.7 1.7 0 0 1 1 3.2M1076 679.2l-2.8 1a1.7 1.7 0 1 1-1-3.2l2.8-1a1.7 1.7 0 0 1 1 3.2M1066.6 682.4l-2.9 1a1.7 1.7 0 0 1-1-3.2l2.8-1a1.7 1.7 0 0 1 1 3.2M1057.1 685.6l-2.8 1a1.7 1.7 0 1 1-1.1-3.2l2.8-1a1.7 1.7 0 0 1 1.1 3.2M1047.6 688.8l-2.8 1a1.7 1.7 0 1 1-1.1-3.2l2.8-1a1.7 1.7 0 0 1 1.1 3.2M1038.2 692l-2.9 1a1.7 1.7 0 0 1-1-3.2l2.8-1a1.7 1.7 0 0 1 1 3.3M1028.7 695.3l-2.8 1a1.7 1.7 0 0 1-1.1-3.3l2.8-1a1.7 1.7 0 0 1 1.1 3.3M1019.3 698.6l-2.8 1a1.7 1.7 0 0 1-1.2-3.3l2.9-1a1.7 1.7 0 0 1 1 3.3M1009.8 701.9l-2.8 1a1.7 1.7 0 1 1-1.1-3.3l2.8-1a1.7 1.7 0 0 1 1.1 3.3M1000.4 705.2l-2.8 1a1.8 1.8 0 1 1-1.2-3.3l2.9-1a1.8 1.8 0 0 1 1.1 3.3M991 708.5l-2.8 1a1.8 1.8 0 1 1-1.2-3.3l2.8-1a1.8 1.8 0 0 1 1.2 3.3M981.6 712l-2.8 1a1.8 1.8 0 0 1-1.2-3.4l2.8-1a1.8 1.8 0 0 1 1.2 3.3M972.2 715.3l-2.8 1a1.8 1.8 0 0 1-1.2-3.3l2.8-1a1.8 1.8 0 0 1 1.2 3.3M962.8 718.8l-2.8 1a1.8 1.8 0 0 1-1.2-3.3l2.8-1a1.8 1.8 0 1 1 1.2 3.3M953.5 722.3l-2.9 1a1.8 1.8 0 0 1-1.2-3.3l2.8-1.1a1.8 1.8 0 0 1 1.3 3.4M944.1 725.8l-2.8 1a1.8 1.8 0 0 1-1.3-3.3l2.8-1a1.8 1.8 0 0 1 1.3 3.3M934.8 729.4l-2.8 1a1.8 1.8 0 0 1-1.3-3.3l2.8-1.1a1.8 1.8 0 0 1 1.3 3.4M925.5 733l-2.8 1a1.8 1.8 0 1 1-1.4-3.3l2.8-1.1a1.8 1.8 0 1 1 1.4 3.4M916.2 736.6l-2.8 1.1a1.8 1.8 0 0 1-1.4-3.4l2.8-1a1.8 1.8 0 1 1 1.4 3.3M906.9 740.3l-2.8 1.2a1.8 1.8 0 0 1-1.4-3.4l2.8-1.2a1.8 1.8 0 1 1 1.4 3.4M897.6 744l-2.8 1.2a1.8 1.8 0 0 1-1.3-3.3l2.7-1.2a1.8 1.8 0 1 1 1.4 3.4M888.4 748l-2.8 1a1.8 1.8 0 1 1-1.4-3.3l2.8-1.2a1.8 1.8 0 1 1 1.4 3.4M879.2 751.8l-2.8 1.2a1.8 1.8 0 0 1-1.4-3.4l2.7-1.2q1.7-.6 2.4 1s0 2-1 2.4M870 755.7l-2.8 1.2a1.8 1.8 0 1 1-1.4-3.4l2.7-1.1a1.8 1.8 0 1 1 1.5 3.3M860.8 759.7l-2.7 1.2a1.8 1.8 0 0 1-1.5-3.3l2.8-1.2a1.8 1.8 0 1 1 1.4 3.3M851.7 763.8 849 765a1.8 1.8 0 1 1-1.5-3.3l2.7-1.3a1.8 1.8 0 1 1 1.5 3.4M842.6 768l-2.7 1.2a1.8 1.8 0 0 1-1.5-3.4l2.7-1.2a1.8 1.8 0 1 1 1.5 3.3M833.6 772.1l-2.7 1.3a1.8 1.8 0 1 1-1.6-3.4l2.7-1.2a1.8 1.8 0 1 1 1.6 3.3M824.6 776.4l-2.7 1.3a1.8 1.8 0 0 1-1.6-3.4l2.7-1.3a1.8 1.8 0 1 1 1.6 3.4M815.6 780.7l-2.7 1.3a1.8 1.8 0 1 1-1.6-3.3l2.7-1.3a1.8 1.8 0 1 1 1.6 3.3M806.6 785.1l-2.6 1.4a1.9 1.9 0 0 1-1.7-3.3l2.7-1.4a1.9 1.9 0 1 1 1.6 3.3M797.7 789.7l-2.6 1.3a1.9 1.9 0 0 1-1.7-3.3l2.6-1.4a1.9 1.9 0 1 1 1.7 3.3M788.9 794.2l-2.7 1.4a1.9 1.9 0 1 1-1.7-3.3l2.6-1.4a1.9 1.9 0 0 1 1.8 3.3M780 798.9l-2.6 1.4a1.9 1.9 0 1 1-1.8-3.3l2.7-1.4a1.9 1.9 0 0 1 1.7 3.3M771.3 803.7l-2.7 1.4a1.9 1.9 0 0 1-1.8-3.3l2.7-1.4a1.9 1.9 0 0 1 1.8 3.2M762.5 808.5 760 810a1.9 1.9 0 0 1-1.8-3.3l2.6-1.5a1.9 1.9 0 1 1 1.8 3.3M753.9 813.4l-2.6 1.5a1.9 1.9 0 0 1-1.9-3.2l2.6-1.5a1.9 1.9 0 0 1 1.9 3.2M745.2 818.4l-2.5 1.6a1.9 1.9 0 0 1-2-3.3l2.6-1.5a1.9 1.9 0 1 1 2 3.2M736.7 823.5l-2.6 1.6a1.9 1.9 0 0 1-2-3.2l2.6-1.6a1.9 1.9 0 1 1 2 3.2M728.2 828.8l-2.6 1.5a1.9 1.9 0 1 1-2-3.1l2.6-1.6a1.9 1.9 0 0 1 2 3.2M719.7 834l-2.5 1.7a1.9 1.9 0 0 1-2-3.2l2.5-1.6a1.9 1.9 0 1 1 2 3.2M711.4 839.5l-2.5 1.7a1.9 1.9 0 0 1-2.1-3.1l2.5-1.7a1.9 1.9 0 0 1 2 3.1M703.1 845l-2.5 1.8a1.9 1.9 0 0 1-2.1-3.1l2.5-1.7a1.9 1.9 0 1 1 2.1 3M695 850.8l-2.5 1.7a1.9 1.9 0 0 1-2.2-3l2.4-1.8a1.9 1.9 0 0 1 2.2 3M686.8 856.6l-2.4 1.8a1.9 1.9 0 1 1-2.2-3l2.4-1.8a1.9 1.9 0 0 1 2.2 3M678.9 862.6l-2.4 1.8a1.9 1.9 0 0 1-2.3-3l2.4-1.8a1.9 1.9 0 0 1 2.3 3M671 868.7l-2.3 2a1.9 1.9 0 1 1-2.4-3l2.4-2a1.9 1.9 0 0 1 2.3 3M663.3 875l-2.3 2a1.9 1.9 0 1 1-2.4-3l2.3-1.9a1.9 1.9 0 1 1 2.4 3M655.7 881.5l-2.2 2a1.9 1.9 0 0 1-2.5-2.9l2.2-2a1.9 1.9 0 1 1 2.5 2.9M648.3 888.1l-2.2 2a1.9 1.9 0 1 1-2.6-2.7l2.2-2a1.9 1.9 0 0 1 2.6 2.7M641 895l-2.1 2a1.9 1.9 0 1 1-2.7-2.7l2.2-2.1a1.9 1.9 0 0 1 2.6 2.7M634 902l-2.1 2a2 2 0 0 1-2.8-2.6l2.1-2.1a1.9 1.9 0 1 1 2.8 2.6M627 909.1l-2 2.2a2 2 0 1 1-2.8-2.6l2-2.2a2 2 0 1 1 2.9 2.6M620.4 916.5l-2 2.2a2 2 0 0 1-2.9-2.5l2-2.3a2 2 0 1 1 2.9 2.5M613.9 924l-1.9 2.3a2 2 0 1 1-3-2.4l2-2.3a2 2 0 0 1 3 2.4zM607.7 931.7l-1.9 2.4a2 2 0 0 1-3-2.3l1.8-2.4a2 2 0 1 1 3 2.3M601.7 939.7l-1.8 2.4a2 2 0 1 1-3.1-2.3l1.8-2.4a2 2 0 0 1 3 2.2M596 947.8l-1.7 2.4a2 2 0 0 1-3.2-2l1.7-2.6a2 2 0 0 1 3.1 2.1M590.5 956l-1.6 2.6a2 2 0 1 1-3.3-2l1.6-2.6a2 2 0 0 1 3.3 2M585.4 964.6l-1.5 2.6a2 2 0 1 1-3.4-2l1.5-2.6a2 2 0 0 1 3.4 2M580.5 973.3l-1.3 2.6a2 2 0 0 1-3.5-1.8l1.4-2.7a2 2 0 1 1 3.4 1.8M576 982.1l-1.2 2.7a2 2 0 1 1-3.5-1.7l1.3-2.7a2 2 0 0 1 3.5 1.7M571.9 991.1l-1.2 2.8a2 2 0 0 1-3.6-1.6l1.2-2.7a2 2 0 1 1 3.6 1.5M568 1000.3l-1 2.8a2 2 0 0 1-3.6-1.4l1-2.8a2 2 0 1 1 3.7 1.4M564.6 1009.6l-1 2.8a2 2 0 0 1-3.6-1.2l1-2.9a2 2 0 1 1 3.6 1.3M561.5 1019l-.8 2.9a2 2 0 1 1-3.8-1.1l1-3a2 2 0 0 1 3.6 1.2M558.8 1028.6l-.7 2.8a2 2 0 1 1-3.8-.9l.8-3a2 2 0 0 1 3.7 1M556.5 1038.2l-.6 3a2 2 0 1 1-3.8-.9l.6-3a2 2 0 1 1 3.8.9M554.7 1048l-.5 2.9a2 2 0 1 1-3.9-.6l.5-3a2 2 0 0 1 3.9.6M553.2 1057.7l-.3 3a2 2 0 1 1-3.9-.4l.3-3a2 2 0 1 1 4 .4M552.2 1067.6l-.2 3a2 2 0 1 1-3.9-.3l.2-3a2 2 0 0 1 4 .3M551.7 1077.5v3a2 2 0 0 1-4 0l.1-3.1a2 2 0 1 1 4 0zM551.7 1087.4l.1 3a2 2 0 1 1-4 .1v-3a2 2 0 1 1 4-.1M552.2 1097.3l.2 3a2 2 0 1 1-3.9.3l-.2-3a2 2 0 0 1 3.9-.3M553.2 1107.1l.4 3a2 2 0 1 1-3.9.5l-.4-3a2 2 0 1 1 3.9-.5M554.7 1116.9l.6 3a2 2 0 1 1-3.9.7l-.5-3a2 2 0 0 1 3.8-.7M556.8 1126.6l.7 2.9a2 2 0 0 1-3.8 1l-.7-3a2 2 0 0 1 3.8-1M559.4 1136.1l.9 2.8a2 2 0 1 1-3.8 1.3l-.9-3a2 2 0 0 1 3.8-1.1M562.5 1145.5l1 2.8a2 2 0 1 1-3.6 1.4l-1-2.9a2 2 0 0 1 3.6-1.3M566.2 1154.7l1.2 2.7a2 2 0 1 1-3.6 1.6l-1.2-2.8a2 2 0 1 1 3.6-1.5M570.3 1163.7l1.4 2.6a2 2 0 0 1-3.5 1.8l-1.4-2.7a2 2 0 1 1 3.5-1.8M575 1172.4l1.4 2.6a2 2 0 0 1-3.4 2l-1.5-2.6a2 2 0 0 1 3.4-2M580 1181l1.6 2.4a2 2 0 0 1-3.3 2.2l-1.6-2.6a2 2 0 1 1 3.3-2.1M585.5 1189.2l1.7 2.4a2 2 0 0 1-3.2 2.3l-1.8-2.5a2 2 0 1 1 3.3-2.3M591.4 1197.1l1.8 2.4a2 2 0 0 1-3 2.4l-2-2.3a2 2 0 1 1 3.2-2.5M597.6 1204.8l2 2.3a2 2 0 0 1-3 2.6l-2-2.3a2 2 0 1 1 3-2.6M604.3 1212.2l2 2.1a2 2 0 1 1-2.9 2.8l-2-2.2a2 2 0 0 1 2.8-2.7M611.2 1219.2l2.1 2.1a2 2 0 1 1-2.7 2.9l-2.2-2a2 2 0 0 1 2.8-3M618.5 1226l2.2 2a2 2 0 1 1-2.6 3l-2.3-2a2 2 0 1 1 2.6-3M626 1232.4l2.3 1.9a2 2 0 0 1-2.5 3.1l-2.3-1.9a2 2 0 1 1 2.5-3.1M633.8 1238.5l2.4 1.8a2 2 0 0 1-2.3 3.2l-2.5-1.8a2 2 0 0 1 2.4-3.2M641.9 1244.3l2.5 1.6a2 2 0 0 1-2.2 3.3l-2.5-1.6a2 2 0 1 1 2.2-3.4M650.2 1249.7l2.6 1.5a2 2 0 1 1-2 3.4l-2.7-1.6a2 2 0 1 1 2.1-3.4M658.8 1254.7l2.6 1.4a2 2 0 0 1-2 3.5l-2.6-1.4a2 2 0 1 1 2-3.5M667.5 1259.4l2.7 1.3a2 2 0 0 1-1.8 3.6l-2.7-1.4a2 2 0 0 1 1.8-3.5M676.4 1263.7l2.8 1.2a2 2 0 0 1-1.6 3.6l-2.8-1.2a2 2 0 0 1 1.6-3.6M685.6 1267.6l2.7 1a2 2 0 0 1-1.4 3.7l-2.8-1a2 2 0 1 1 1.4-3.7M694.8 1271l2.8 1a2 2 0 0 1-1.2 3.8l-2.9-1a2 2 0 0 1 1.3-3.7M704.3 1274.2l2.8.8a2 2 0 0 1-1 3.8l-3-.9a2 2 0 1 1 1.1-3.7M713.8 1276.9l2.9.7a2 2 0 0 1-1 3.8l-2.9-.7a2 2 0 0 1 1-3.8M723.5 1279.2l2.9.6a2 2 0 0 1-.8 3.8l-3-.6a2 2 0 0 1 .8-3.8M733.2 1281.1l3 .5a2 2 0 0 1-.7 3.9l-3-.5a2 2 0 0 1 .7-3.9M743 1282.7l3 .4a2 2 0 1 1-.6 3.8l-3-.4a2 2 0 1 1 .6-3.8M752.8 1283.9l3 .3a2 2 0 0 1-.3 3.8l-3-.3a2 2 0 0 1 .3-3.8M762.7 1284.7l3 .2a2 2 0 0 1-.2 3.9l-3-.2a2 2 0 1 1 .2-3.9M772.7 1285.2h3a2 2 0 0 1-.1 4l-3-.1a2 2 0 0 1 0-4M782.6 1285.3h3a2 2 0 0 1 0 3.9h-3a2 2 0 0 1 0-3.9M792.5 1285.1l3-.1a2 2 0 0 1 .2 3.8l-3 .2a2 2 0 0 1-.2-3.9M802.4 1284.6l3-.2a2 2 0 0 1 .3 3.8l-3 .2a2 2 0 0 1-.3-3.8M812.3 1283.7l3-.3a2 2 0 0 1 .4 3.8l-3 .4a2 2 0 0 1-.4-3.9M822.2 1282.6l3-.5a2 2 0 0 1 .5 3.9l-3 .4a2 2 0 1 1-.5-3.8M832 1281l3-.4a2 2 0 0 1 .6 3.8l-3 .5a2 2 0 1 1-.6-3.8M841.8 1279.3l3-.6a2 2 0 0 1 .7 3.8l-3 .6a2 2 0 0 1-.7-3.8M851.6 1277.3l2.9-.7a2 2 0 0 1 .8 3.7l-2.9.7a2 2 0 1 1-.9-3.7M861.2 1275l3-.8a2 2 0 0 1 .9 3.7l-3 .7a2 2 0 0 1-.9-3.7M870.8 1272.3l2.9-.8a2 2 0 0 1 1 3.6l-2.8.9a2 2 0 0 1-1.1-3.7M880.3 1269.4l2.9-.9a1.9 1.9 0 0 1 1.2 3.7l-2.9.9a1.9 1.9 0 1 1-1.2-3.6M889.8 1266.3l2.8-1a1.9 1.9 0 0 1 1.3 3.6l-2.9 1a1.9 1.9 0 0 1-1.2-3.6M899.1 1263l2.8-1.1a1.9 1.9 0 0 1 1.4 3.5l-2.8 1a1.9 1.9 0 1 1-1.4-3.5M908.4 1259.3l2.8-1.2a1.9 1.9 0 0 1 1.4 3.5l-2.8 1.2a1.9 1.9 0 0 1-1.4-3.5M917.6 1255.4l2.7-1.2a1.9 1.9 0 0 1 1.5 3.4l-2.7 1.2a1.9 1.9 0 0 1-1.6-3.4M926.6 1251.3l2.7-1.3a1.9 1.9 0 0 1 1.6 3.4l-2.7 1.3a1.9 1.9 0 0 1-1.6-3.4M935.6 1247l2.6-1.4a1.9 1.9 0 0 1 1.7 3.3l-2.6 1.4a1.9 1.9 0 1 1-1.7-3.4M944.4 1242.4l2.7-1.5a1.9 1.9 0 0 1 1.7 3.3l-2.6 1.5a1.9 1.9 0 1 1-1.8-3.3M953.2 1237.6l2.6-1.5a1.9 1.9 0 0 1 1.8 3.3l-2.6 1.5a1.9 1.9 0 0 1-1.8-3.3M961.8 1232.6l2.6-1.5a1.9 1.9 0 0 1 1.9 3.2l-2.6 1.6a1.9 1.9 0 0 1-1.9-3.3M970.3 1227.5l2.6-1.6a1.9 1.9 0 0 1 2 3.2l-2.6 1.6a1.9 1.9 0 1 1-2-3.2M978.8 1222.2l2.5-1.7a1.9 1.9 0 0 1 2 3.2l-2.5 1.6a1.9 1.9 0 0 1-2-3.1M987 1216.7l2.6-1.7a1.9 1.9 0 0 1 2 3l-2.4 1.8a1.9 1.9 0 0 1-2.1-3.1M995.3 1211l2.4-1.7a1.9 1.9 0 0 1 2.2 3l-2.5 1.8a1.9 1.9 0 1 1-2.1-3M1003.4 1205.2l2.4-1.7a1.9 1.9 0 0 1 2.2 3l-2.4 1.7a1.9 1.9 0 1 1-2.2-3M1011.4 1199.3l2.4-1.8a1.8 1.8 0 0 1 2.2 3l-2.4 1.7a1.8 1.8 0 1 1-2.2-2.9M1019.3 1193.2l2.3-1.8a1.8 1.8 0 0 1 2.3 2.8l-2.3 1.9a1.8 1.8 0 0 1-2.3-2.9M1027 1187l2.4-1.9a1.8 1.8 0 0 1 2.3 2.8l-2.3 2a1.8 1.8 0 1 1-2.3-2.9M1034.8 1180.7l2.2-2a1.8 1.8 0 0 1 2.4 2.8l-2.3 2a1.8 1.8 0 1 1-2.3-2.8M1042.4 1174.2l2.2-2a1.8 1.8 0 0 1 2.4 2.8l-2.2 2a1.8 1.8 0 1 1-2.4-2.8M1049.9 1167.6l2.2-2a1.8 1.8 0 0 1 2.4 2.8l-2.2 2a1.8 1.8 0 0 1-2.4-2.8M1057.3 1161l2.2-2a1.8 1.8 0 0 1 2.5 2.6l-2.3 2a1.8 1.8 0 0 1-2.4-2.7M1064.6 1154.2l2.2-2a1.8 1.8 0 0 1 2.5 2.6l-2.2 2a1.8 1.8 0 0 1-2.5-2.6M1071.8 1147.3l2.2-2a1.8 1.8 0 0 1 2.5 2.5l-2.1 2.1a1.8 1.8 0 1 1-2.6-2.6M1079 1140.3l2.1-2a1.8 1.8 0 0 1 2.6 2.5l-2.2 2.1a1.8 1.8 0 0 1-2.5-2.6M1086 1133.3l2.2-2.1a1.8 1.8 0 0 1 2.6 2.5l-2.2 2.2a1.8 1.8 0 1 1-2.5-2.6M1093 1126.2l2.2-2.2a1.8 1.8 0 0 1 2.6 2.5l-2.1 2.2a1.8 1.8 0 0 1-2.6-2.5M1100 1119l2-2.2a1.8 1.8 0 1 1 2.7 2.5l-2 2.2a1.8 1.8 0 0 1-2.7-2.5M1106.9 1111.7l2-2.1a1.8 1.8 0 1 1 2.6 2.4l-2 2.2a1.8 1.8 0 1 1-2.6-2.5M1113.7 1104.4l2-2.2a1.8 1.8 0 1 1 2.6 2.5l-2 2.2a1.8 1.8 0 0 1-2.6-2.5M1120.4 1097l2-2.1a1.8 1.8 0 1 1 2.7 2.4l-2 2.2a1.8 1.8 0 0 1-2.7-2.4M1127.1 1089.7l2-2.3a1.8 1.8 0 1 1 2.7 2.4l-2 2.3a1.8 1.8 0 0 1-2.7-2.4M1133.8 1082.2l2-2.2a1.8 1.8 0 0 1 2.7 2.4l-2 2.2a1.8 1.8 0 1 1-2.7-2.4M1140.4 1074.7l2-2.2a1.8 1.8 0 1 1 2.7 2.4l-2 2.2a1.8 1.8 0 1 1-2.7-2.4M1147 1067.2l2-2.2a1.8 1.8 0 0 1 2.7 2.3l-2 2.3a1.8 1.8 0 1 1-2.7-2.3M1153.6 1059.7l2-2.2a1.8 1.8 0 0 1 2.7 2.3l-2 2.3a1.8 1.8 0 0 1-2.7-2.4M1160.2 1052.2l2-2.3a1.8 1.8 0 0 1 2.6 2.3l-2 2.3a1.8 1.8 0 0 1-2.6-2.3M1166.8 1044.7l2-2.3a1.7 1.7 0 0 1 2.6 2.3l-2 2.3a1.7 1.7 0 0 1-2.6-2.3M1173.4 1037.1l2-2.2a1.7 1.7 0 0 1 2.6 2.3l-2 2.2a1.7 1.7 0 1 1-2.6-2.3M1180 1029.6l2-2.2a1.7 1.7 0 0 1 2.5 2.2l-2 2.3a1.7 1.7 0 0 1-2.5-2.3M1186.6 1022.1l2-2.2a1.7 1.7 0 0 1 2.5 2.2l-2 2.3a1.7 1.7 0 0 1-2.5-2.3M1193.2 1014.6l2-2.2a1.7 1.7 0 0 1 2.6 2.2l-2 2.3a1.7 1.7 0 1 1-2.6-2.3M1199.9 1007.1l2-2.2a1.7 1.7 0 0 1 2.5 2.3l-2 2.2a1.7 1.7 0 1 1-2.5-2.2M1206.6 999.7l2-2.2a1.7 1.7 0 0 1 2.5 2.2l-2 2.3a1.7 1.7 0 0 1-2.5-2.3M1213.4 992.3l2-2.2a1.7 1.7 0 1 1 2.4 2.3l-2 2.2a1.7 1.7 0 1 1-2.5-2.3M1220.2 985l2-2.2a1.7 1.7 0 0 1 2.4 2.2l-2 2.2a1.7 1.7 0 0 1-2.5-2.2M1227 977.7l2-2.2a1.6 1.6 0 1 1 2.5 2.3l-2 2.1a1.6 1.6 0 0 1-2.5-2.2M1234 970.4l2-2.1a1.6 1.6 0 1 1 2.4 2.3l-2.1 2.1a1.6 1.6 0 1 1-2.4-2.3M1241 963.3l2-2.2a1.6 1.6 0 0 1 2.4 2.3l-2.1 2.2a1.6 1.6 0 1 1-2.4-2.3M1248 956.2l2.1-2.1a1.6 1.6 0 1 1 2.3 2.3l-2.1 2a1.6 1.6 0 0 1-2.3-2.2M1255.2 949.2l2.1-2.1a1.6 1.6 0 0 1 2.3 2.3l-2.2 2a1.6 1.6 0 1 1-2.2-2.2M1262.4 942.3l2.2-2.1a1.6 1.6 0 0 1 2.2 2.3l-2.2 2a1.6 1.6 0 1 1-2.2-2.2M1269.8 935.4l2.2-2a1.6 1.6 0 0 1 2.1 2.4l-2.2 2a1.6 1.6 0 1 1-2.1-2.4M1277.2 928.7l2.3-2a1.6 1.6 0 0 1 2 2.4l-2.2 2a1.6 1.6 0 1 1-2-2.4M1284.8 922.1l2.2-2a1.6 1.6 0 0 1 2 2.4l-2.2 2a1.6 1.6 0 1 1-2-2.4M1292.4 915.7l2.3-2a1.6 1.6 0 1 1 2 2.4l-2.3 2a1.6 1.6 0 1 1-2-2.4M1300.2 909.3l2.3-1.9a1.5 1.5 0 1 1 2 2.4l-2.4 2a1.5 1.5 0 1 1-2-2.5M1308 903.1l2.4-1.8a1.5 1.5 0 1 1 2 2.4l-2.5 1.8a1.5 1.5 0 1 1-1.8-2.4M1316 897l2.5-1.7a1.5 1.5 0 0 1 1.8 2.4l-2.4 1.8a1.5 1.5 0 1 1-1.8-2.4M1324.2 891.2l2.4-1.8a1.5 1.5 0 1 1 1.8 2.5l-2.5 1.7a1.5 1.5 0 1 1-1.7-2.4M1332.4 885.4l2.5-1.6a1.5 1.5 0 1 1 1.7 2.4l-2.5 1.7a1.5 1.5 0 1 1-1.7-2.5M1340.8 879.9l2.5-1.6a1.5 1.5 0 0 1 1.6 2.5l-2.5 1.6a1.5 1.5 0 1 1-1.6-2.5M1349.3 874.5l2.5-1.5a1.5 1.5 0 1 1 1.6 2.5l-2.6 1.6a1.5 1.5 0 0 1-1.5-2.6M1357.9 869.4l2.6-1.5a1.5 1.5 0 1 1 1.5 2.5l-2.6 1.5q-1.2.6-2-.5s-.2-1.6.5-2M1366.6 864.5l2.7-1.5a1.5 1.5 0 1 1 1.4 2.6l-2.7 1.4a1.5 1.5 0 0 1-1.4-2.5M1375.5 859.8l2.7-1.4a1.4 1.4 0 0 1 1.3 2.6l-2.7 1.3a1.4 1.4 0 1 1-1.3-2.5M1384.5 855.3l2.7-1.3a1.4 1.4 0 0 1 1.2 2.6l-2.7 1.3a1.4 1.4 0 0 1-1.2-2.6M1393.6 851l2.7-1.1a1.4 1.4 0 1 1 1.2 2.6l-2.8 1.2a1.4 1.4 0 0 1-1.1-2.6M1402.8 847.1l2.8-1.1a1.4 1.4 0 0 1 1 2.6l-2.7 1.2a1.4 1.4 0 0 1-1-2.7M1412.2 843.5l2.8-1a1.4 1.4 0 1 1 1 2.6l-2.9 1a1.4 1.4 0 1 1-1-2.6M1421.6 840l2.9-.9a1.4 1.4 0 0 1 .9 2.7l-2.9 1a1.4 1.4 0 1 1-.9-2.7M1431.2 837l2.9-.8a1.4 1.4 0 0 1 .8 2.6l-3 .9a1.4 1.4 0 1 1-.7-2.7M1440.9 834.3l2.9-.8a1.4 1.4 0 0 1 .7 2.7l-3 .8a1.4 1.4 0 1 1-.6-2.7M1450.6 832l3-.7a1.4 1.4 0 1 1 .5 2.6l-2.9.7a1.4 1.4 0 0 1-.6-2.7M1460.5 829.9l3-.6a1.4 1.4 0 0 1 .4 2.7l-3 .5a1.4 1.4 0 1 1-.5-2.6M1470.4 828.2l3-.5a1.3 1.3 0 1 1 .3 2.7l-3 .4a1.3 1.3 0 0 1-.3-2.6M1480.3 826.8l3-.3a1.3 1.3 0 1 1 .3 2.6l-3 .4a1.3 1.3 0 0 1-.3-2.7M1490.3 825.8l3-.2a1.3 1.3 0 1 1 .2 2.6l-3 .3a1.3 1.3 0 1 1-.2-2.7M1500.3 825.2h3a1.3 1.3 0 0 1 .1 2.5l-3 .1a1.3 1.3 0 0 1 0-2.6M1510.4 825h3a1.3 1.3 0 0 1 0 2.6h-3a1.3 1.3 0 1 1 0-2.6M1520.4 825.1l3 .2a1.3 1.3 0 0 1 0 2.5l-3-.1a1.3 1.3 0 1 1 0-2.6M1530.5 825.7l3 .2a1.2 1.2 0 1 1-.2 2.5l-3-.2a1.3 1.3 0 1 1 .2-2.5M1540.5 826.7l3 .3a1.2 1.2 0 0 1-.3 2.5l-3-.4a1.2 1.2 0 0 1 .3-2.4M1550.4 828l3 .5a1.2 1.2 0 1 1-.4 2.4l-3-.5a1.2 1.2 0 0 1 .4-2.4M1560.3 829.8l3 .7a1.2 1.2 0 1 1-.5 2.3l-3-.6a1.2 1.2 0 0 1 .5-2.4M1570.1 832l3 .8a1.2 1.2 0 1 1-.7 2.3l-2.9-.7a1.2 1.2 0 1 1 .6-2.3M1579.8 834.8l2.9.8a1.2 1.2 0 0 1-.7 2.3l-2.9-1a1.2 1.2 0 0 1 .7-2.1M1589.4 837.9l2.8 1a1.1 1.1 0 0 1-.8 2.2l-2.8-1a1.1 1.1 0 1 1 .8-2.2M1598.7 841.5l2.8 1.2a1.1 1.1 0 1 1-.8 2l-2.8-1.1a1.1 1.1 0 0 1 .8-2.1M1608 845.6l2.7 1.3a1.1 1.1 0 0 1-1 2l-2.7-1.3a1.1 1.1 0 1 1 1-2M1617 850l2.6 1.5a1 1 0 1 1-1 2l-2.7-1.5a1 1 0 1 1 1-2M1625.7 855l2.5 1.6a1 1 0 1 1-1 1.8h-.1l-2.5-1.5a1 1 0 0 1 1-1.9M1634.1 860.5l2.5 1.8a1 1 0 0 1-1.2 1.7l-2.5-1.8a1 1 0 0 1 1.2-1.7M1642.2 866.5l2.4 1.9a1 1 0 1 1-1.3 1.6l-2.4-1.9a1 1 0 0 1 1.3-1.6M1650 872.9l2.2 2a1 1 0 0 1-1.3 1.5l-2.3-2a1 1 0 0 1 1.3-1.5M1657.3 879.8l2.1 2a1 1 0 0 1-1.4 1.5l-2-2.1h-.1a1 1 0 1 1 1.4-1.4M1664.3 887l2 2.3a1 1 0 0 1-1.5 1.3l-2-2.3a1 1 0 1 1 1.5-1.3M1670.8 894.6l1.9 2.4a1 1 0 0 1-1.5 1.2l-1.9-2.3a1 1 0 1 1 1.5-1.3M1677 902.6l1.7 2.5a1 1 0 0 1-1.5 1l-1.8-2.4a1 1 0 1 1 1.5-1M1682.6 911l1.6 2.5a1 1 0 1 1-1.5 1l-1.7-2.6a1 1 0 1 1 1.6-1M1687.8 919.5l1.5 2.6a.9.9 0 1 1-1.6 1l-1.5-2.7a.9.9 0 0 1 1.6-.9M1692.5 928.4l1.3 2.7a.9.9 0 0 1-1.5.8l-1.4-2.7a.9.9 0 1 1 1.6-.8M1696.7 937.5l1.2 2.8a.9.9 0 0 1-1.6.7l-1.2-2.8a.9.9 0 1 1 1.6-.7M1700.4 946.9l1 2.8a.8.8 0 1 1-1.6.6l-1-2.9a.8.8 0 1 1 1.6-.5M1703.5 956.4l.8 3a.8.8 0 0 1-1.5.4l-.9-3a.8.8 0 0 1 1.6-.4M1706 966.1l.7 3a.8.8 0 0 1-1.6.3l-.6-2.9a.8.8 0 0 1 1.6-.4M1708 976l.4 3a.8.8 0 1 1-1.5.2l-.5-3a.8.8 0 0 1 1.6-.2M1709.3 986l.2 3a.8.8 0 1 1-1.5.1l-.3-3a.8.8 0 1 1 1.6-.1M1709.9 996v3a.8.8 0 0 1-1.5 0v-3a.8.8 0 0 1 1.5 0M1709.8 1006l-.2 3a.7.7 0 0 1-1.4 0l.1-3a.7.7 0 0 1 1.5 0M1709 1016l-.4 3a.7.7 0 1 1-1.4-.1l.4-3a.7.7 0 1 1 1.4.2M1707.5 1026l-.6 3a.7.7 0 0 1-1.4-.3l.6-3a.7.7 0 1 1 1.4.3M1705.2 1035.8l-.8 2.9a.7.7 0 0 1-1.3-.4l.8-2.9a.7.7 0 1 1 1.3.4" style="fill:#bfdbfe"/><linearGradient id="ab" x1="1324.2" x2="1306.1" y1="1072.7" y2="1098.2" gradientTransform="translate(-123.2)" gradientUnits="userSpaceOnUse"><stop offset="0" style="stop-color:#ff928e"/><stop offset="1" style="stop-color:#feb3b1"/></linearGradient><path d="M1195.3 1087s-2.5-4.5-2.2-8.2-2-9.2.4-8.8 3 .1 3.6 4.5 6.7 20.9-1.8 12.6" style="fill:url(#ab)"/><linearGradient id="ac" x1="-2767.9" x2="-2900.8" y1="1482.9" y2="1587.2" gradientTransform="matrix(-1 0 0 1 -1734.5 0)" gradientUnits="userSpaceOnUse"><stop offset="0" style="stop-color:#1e3a8a"/><stop offset="1" style="stop-color:#1e40af"/></linearGradient><path d="M1076.9 1509.6c9-.3 13.5-1.3 16-2.3l-.1 2.7q-.2 1.7-1.7 1.8l-49-.3c-1.6 0-2.5-1.8-1.9-3.3 6.5.6 22.9 1.7 36.7 1.4" style="fill:url(#ac)"/><linearGradient id="ad" x1="1208.8" x2="1199.1" y1="1440.9" y2="1474.9" gradientTransform="translate(-123.2)" gradientUnits="userSpaceOnUse"><stop offset="0" style="stop-color:#1e3a8a"/><stop offset="1" style="stop-color:#1e40af"/></linearGradient><path d="M1090.7 1490.7a9 9 0 0 0-9-6.5l-4 .1a63 63 0 0 0-37.2 23.3l-.2.4c6.4.5 22.8 1.7 36.6 1.3 9-.2 13.6-1.3 16-2.2 0-7-1-12.5-2.2-16.4" style="fill:url(#ad)"/><linearGradient id="ae" x1="1203.6" x2="1196.6" y1="1454.4" y2="1515.2" gradientTransform="translate(-123.2)" gradientUnits="userSpaceOnUse"><stop offset="0" style="stop-color:#ff928e"/><stop offset="1" style="stop-color:#feb3b1"/></linearGradient><path d="m1070.8 1470.2 3.4 16.5a3 3 0 0 0 2.3 2.2q2.3.4 5.3 0c1.8-.3 3-2 2.7-4l-2.4-14.7z" style="fill:url(#ae)"/><linearGradient id="af" x1="1308.5" x2="1175.6" y1="1482.9" y2="1587.2" gradientTransform="translate(-123.2)" gradientUnits="userSpaceOnUse"><stop offset="0" style="stop-color:#1e3a8a"/><stop offset="1" style="stop-color:#1e40af"/></linearGradient><path d="M1141.8 1509.6c-9-.3-13.6-1.3-16-2.3v2.7q.2 1.7 1.8 1.8l49-.3c1.6 0 2.5-1.8 1.8-3.3-6.4.6-22.8 1.7-36.6 1.4" style="fill:url(#af)"/><linearGradient id="ag" x1="1286.8" x2="1277.1" y1="1463.1" y2="1497.1" gradientTransform="translate(-123.2)" gradientUnits="userSpaceOnUse"><stop offset="0" style="stop-color:#1e3a8a"/><stop offset="1" style="stop-color:#1e40af"/></linearGradient><path d="m1178.4 1508.2-.2-.4a63 63 0 0 0-37.2-23.3l-10.4-.3s-4.7 8-4.8 23c2.4 1 7 2.1 16 2.4 13.8.3 30.2-.8 36.6-1.4" style="fill:url(#ag)"/><linearGradient id="ah" x1="1260.4" x2="1253.4" y1="1460.9" y2="1521.8" gradientTransform="translate(-123.2)" gradientUnits="userSpaceOnUse"><stop offset="0" style="stop-color:#ff928e"/><stop offset="1" style="stop-color:#feb3b1"/></linearGradient><path d="M1128.6 1468.3c.2.8 1.6 12.7 2.1 17.3q.4 1.7 2 2c1.8.2 4.6.4 7.2-.1q2.1-.7 2.3-3.1v-18.6z" style="fill:url(#ah)"/><linearGradient id="ai" x1="1222.6" x2="1222.6" y1="1313.8" y2="1597.9" gradientTransform="translate(-123.2)" gradientUnits="userSpaceOnUse"><stop offset="0" style="stop-color:#1e3a8a"/><stop offset="1" style="stop-color:#1e40af"/></linearGradient><path d="M1120.3 1252s25.2 96 24.7 216.6c0 2.2-1.5 4.1-3.7 4.6-3.2.6-7.8 1.4-11.7 1.3-2 0-3.8-1.6-4.1-3.6-3.5-20.8-23.8-137.6-35.4-156.6 0 0-7.6 104-5.2 158.1 0 1.3-1 2.5-2.2 2.7q-3.1.5-9.4 0a3.4 3.4 0 0 1-3-3c-2.6-17.5-17.1-122-16.5-197.3 0-4.3 11.2-22.7 11.2-22.7z" style="fill:url(#ai)"/><linearGradient id="aj" x1="1164.5" x2="1188.9" y1="1144.9" y2="1074.7" gradientTransform="translate(-123.2)" gradientUnits="userSpaceOnUse"><stop offset="0" style="stop-color:#53d8ff"/><stop offset="1" style="stop-color:#3840f7"/></linearGradient><path d="M1041.6 1168.7a106 106 0 0 1-4.3-41.7l1.9.2c0 .3-2.5 22.5 4.2 40.8z" style="fill:url(#aj)"/><linearGradient id="ak" x1="1304.1" x2="1265.6" y1="1035.9" y2="1079.4" gradientUnits="userSpaceOnUse"><stop offset="0" style="stop-color:#ff928e"/><stop offset="1" style="stop-color:#feb3b1"/></linearGradient><path d="M1217.4 1176.5c5.7-30.8-2.5-81.5-2.5-81.5l-11 11.4s-1.9 41.5-9.8 58.6c5.2.6 15.3 3 23.3 11.5" style="fill:url(#ak)"/><linearGradient id="al" x1="1303.3" x2="913.7" y1="1088.8" y2="1532.7" gradientTransform="translate(-123.2)" gradientUnits="userSpaceOnUse"><stop offset="0" style="stop-color:#fe7062"/><stop offset="1" style="stop-color:#ff928e"/></linearGradient><path d="M1194.1 1165q-2.2 5-5.1 6.7c-7.1 4-21-18.4-31.2-37.7-7.4-13.9-13-26.2-13-26.2-7.4-8.4-25.7-9.5-42.8-8.5-17.7 1.1-34 4.6-35.2 4.9l-20.5 2.6q-9.2 1.3-15.4 8.3c-15.7 18.1-50 67.8-9.6 117.8a75 75 0 0 0 17.6-12.8c-4.5-12.7-4.9-28.8 4.5-48.6q.5 2.4 1.2 4.7c13 41 13.6 75 13.6 82.9q0 1.7 1.6 2.4c17 6.8 49.8 2.8 60.8 1.1 2-.3 3.3-2.1 3-4.2-3.2-23.7 5.7-56.8 14.9-82.7 53.8 53.3 73 33.1 78.9.8-8-8.5-18-10.9-23.3-11.5" style="fill:url(#al)"/><linearGradient id="am" x1="1080.5" x2="1071.8" y1="1160" y2="1188.3" gradientUnits="userSpaceOnUse"><stop offset="0" style="stop-color:#ff928e"/><stop offset="1" style="stop-color:#feb3b1"/></linearGradient><path d="M1068.9 1254.4a69 69 0 0 1-30-34.3c-5 5.3-12.4 9.9-17.6 12.8q11.5 14.3 32 28.5c.6 10.6 8.7 14.6 10.6 18s-.8 2.7.4 7c1.2 4.4 13.6-6.9 16.6-9.4 3-2.6 1.2-9.7 1.2-9.7s.2-1.5 1-4.5c.7-3-14.1-8.3-14.2-8.4" style="fill:url(#am)"/><linearGradient id="an" x1="1219" x2="1192.4" y1="1064.4" y2="1179.6" gradientTransform="translate(-123.2)" gradientUnits="userSpaceOnUse"><stop offset="0" style="stop-color:#ff928e"/><stop offset="1" style="stop-color:#feb3b1"/></linearGradient><path d="m1075.7 1073.4-3.3 33.5s18.8 5.7 32.5-4l-9.6-30.4z" style="fill:url(#an)"/><linearGradient id="ao" x1="1183.2" x2="1114.5" y1="1042.1" y2="1060.8" gradientUnits="userSpaceOnUse"><stop offset="0" style="stop-color:#ff928e"/><stop offset="1" style="stop-color:#feb3b1"/></linearGradient><path d="M1107.7 1044.9c.2.5 1.1 41.7 1.1 41.7h-23.5l-6.7-38.8s25.3-12.7 29-3" style="fill:url(#ao)"/><linearGradient id="ap" x1="-192.3" x2="-135.8" y1="-792.1" y2="-792.1" gradientTransform="rotate(-21 5462 -3255.5)" gradientUnits="userSpaceOnUse"><stop offset="0" style="stop-color:#1e3a8a"/><stop offset="1" style="stop-color:#1e40af"/></linearGradient><path d="M1086.7 1052.6q-1.2 1.2-1 2.8l1.8 20.5.2.9c.6 1.6 3 6.5 8 3.8 4.3-2.4 8.3-4.5 11.5-4.6 1.9 0 3.4 1.5 3.4 3.4.1 3.8.1 11.6-.9 18.6-.2 1.7-1.8 3-3.5 2.8a94 94 0 0 1-20.9-3.4q-1.8-.7-2.3-2.6c-1-5.4-3.8-20.6-5.3-24.7-1.3-3.8-6.6-5.2-9-5.6q-1.5-.3-2.4-1.5c-1.5-2.4-3.8-7.5 2.4-11.4 1.6-1 2-3 1-4.6-1.6-2.8-2.8-7.1 2-10.8 5-3.7 9.8-2 12.8-.1 1.3.8 3 .8 4.2-.2q.7-.8 2.2-.5c1.8.4 3.6-.6 4-2.4.8-3 3-6.5 8.7-6.8 10.4-.6 14 10.3 12.9 17.4-1.2 7.1-12.5 7-18.6 5-4.6-1.5-9.1 2-11.2 4" style="fill:url(#ap)"/><linearGradient id="aq" x1="-225.4" x2="-187.5" y1="-757.6" y2="-796.5" gradientTransform="rotate(-21 5462 -3255.5)" gradientUnits="userSpaceOnUse"><stop offset="0" style="stop-color:#ff928e"/><stop offset="1" style="stop-color:#feb3b1"/></linearGradient><path d="M1078.5 1077.7s1.5-12.5-3.4-14.4c-4.9-1.8-10.8 1-7.5 9.1 4 10 10.9 5.3 10.9 5.3" style="fill:url(#aq)"/><linearGradient id="ar" x1="1282.8" x2="1215.5" y1="1003.9" y2="1075.9" gradientUnits="userSpaceOnUse"><stop offset="0" style="stop-color:#e1473d"/><stop offset="1" style="stop-color:#e9605a"/></linearGradient><path d="M1138.9 1174.6a.6.6 0 0 1-.6-.7c0-.3 3.2-26.1 1.5-33.6a.6.6 0 0 1 1.1-.2c1.8 7.6-1.3 32.9-1.4 34q0 .4-.6.5" style="fill:url(#ar)"/><linearGradient id="as" x1="1344.9" x2="1281.5" y1="1058.5" y2="1148" gradientTransform="translate(-123.2)" gradientUnits="userSpaceOnUse"><stop offset="0" style="stop-color:#1e3a8a"/><stop offset="1" style="stop-color:#1e40af"/></linearGradient><path d="M1213.9 1059.6a2.3 2.3 0 0 0-2.9-2.2l-17 3.9q-1 .3-1 1.4l5 44a1 1 0 0 0 .8.6l14.8-1.8a2.3 2.3 0 0 0 2-2.4z" style="fill:url(#as)"/><linearGradient id="at" x1="1340.5" x2="1289.5" y1="1062.9" y2="1135" gradientTransform="translate(-123.2)" gradientUnits="userSpaceOnUse"><stop offset="0" style="stop-color:#fe7062"/><stop offset="1" style="stop-color:#ff928e"/></linearGradient><path d="M1209.1 1062.1a1.3 1.3 0 0 0-1.6-1.2l-11.2 2.8q-1 .4-1 1.4l4.3 37.5a1 1 0 0 0 .8.6l10.3-1.8q.5-.1.6-.8z" style="fill:url(#at)"/><linearGradient id="au" x1="1268.9" x2="1246.9" y1="1017.2" y2="1042.7" gradientUnits="userSpaceOnUse"><stop offset="0" style="stop-color:#ff928e"/><stop offset="1" style="stop-color:#feb3b1"/></linearGradient><path d="M1219.7 1070.8c-2.7-1-8-10.3-9-7.2-1 3 .4 7.2 0 8.5s-3.5 8.5-2.1 11.8c1 2.4 2.5 9.7 3.3 13.6a2.8 2.8 0 0 0 5.5 0c.1-.5 5-25.7 2.3-26.7" style="fill:url(#au)"/><path d="m2020 324.2-113.6 6.5c-9.5.5-17.7-6.7-18.4-16.2l-9.4-131.7c-.8-10.1 7.2-18.7 17.3-18.7h123c9.7 0 17.5 7.8 17.5 17.4v125.3c0 9.3-7.2 16.9-16.4 17.4" style="fill:#93c5fd"/><linearGradient id="av" x1="1906.5" x2="2008.4" y1="247.4" y2="247.4" gradientUnits="userSpaceOnUse"><stop offset="0" style="stop-color:#dbeafe"/><stop offset="1" style="stop-color:#eff6ff"/></linearGradient><path d="M1957.5 315.3c-6 0-11.2-3-14.3-8-16.7-27.7-36.7-64.2-36.7-80.8 0-26 22.8-47 51-47s51 21 51 47c0 16.6-20 53.1-36.8 80.8-3 5-8.4 8-14.2 8m0-128.6c-24.2 0-43.8 17.9-43.8 39.8 0 11.5 13 39.6 35.7 77a9 9 0 0 0 8 4.6c3.4 0 6.4-1.7 8.1-4.5 22.7-37.5 35.7-65.6 35.7-77 0-22-19.6-40-43.7-40" style="fill:url(#av)"/><linearGradient id="aw" x1="1921.8" x2="1985.3" y1="227.8" y2="227.8" gradientUnits="userSpaceOnUse"><stop offset="0" style="stop-color:#dbeafe"/><stop offset="1" style="stop-color:#eff6ff"/></linearGradient><path d="M1953.5 259.5a32 32 0 0 1-31.7-31.7 3.6 3.6 0 0 1 7.2 0 24.6 24.6 0 1 0 4.9-14.7 3.6 3.6 0 1 1-5.8-4.3 31.8 31.8 0 1 1 25.5 50.7" style="fill:url(#aw)"/><path d="M2177.9 506.6v62.1c0 7.4 5.8 13.5 13.2 13.9l77.7 3.6c8 .4 14.5-6 14.5-13.8v-65.8c0-7.7-6.2-13.9-13.8-13.9h-77.8c-7.6 0-13.8 6.2-13.8 13.9" style="fill:#93c5fd"/><path d="M2206 571h-2.5c-1.1 0-2-1-2.2-2q-.2-2 1.7-2.6a113 113 0 0 0 17.2-6.8c-22.8-1.9-27.4-13.6-28.3-19-2.2-13.5 9.6-28.9 26.2-34.2 17-5.4 34.3-3.4 44 5 5 4.5 10.7 13 8 28.4-4.9 28.9-49.8 31.2-64 31.2m30.6-15.5-7.2 4c-.4.3-6.8 3.8-14.5 7 17.6-1 47.5-6 51.1-27.4q2.8-16.2-6.7-24.6c-9.7-8.5-27-8.2-40-4.1-14.5 4.6-25.2 18.1-23.3 29.5 1.7 10.4 13.5 16.2 32.4 15.8z" style="opacity:.73;fill:#fff"/><path d="m1656.5 376.6-1.7 104.8c-.1 6.6 5.2 12 11.9 12h120.6c6.6 0 11.9-5.2 11.9-11.8V376.8c0-6.6-5.3-11.9-11.9-11.9h-119c-6.4 0-11.7 5.2-11.8 11.7" style="fill:#93c5fd"/><linearGradient id="ax" x1="1673" x2="1781.1" y1="426.8" y2="426.8" gradientUnits="userSpaceOnUse"><stop offset="0" style="stop-color:#dbeafe"/><stop offset="1" style="stop-color:#eff6ff"/></linearGradient><path d="M1727.5 477.3h-2.7c-29.7-1.4-53-25-51.7-52.9.6-13.5 6.8-26 17.4-35a56 56 0 0 1 38.8-13c29.7 1.2 53 25 51.7 52.8-.5 13.5-6.7 26-17.4 35-10 8.5-22.7 13.1-36.1 13.1m-.8-94c-11.8 0-22.9 4-31.5 11.5a42 42 0 0 0-15 30c-1 23.8 19.1 44.2 45 45.3 12.5.6 24.5-3.4 33.8-11.3a42 42 0 0 0 15-30c1-23.9-19.2-44.2-45-45.4z" style="fill:url(#ax)"/><linearGradient id="ay" x1="1714.1" x2="1740" y1="427.2" y2="427.2" gradientUnits="userSpaceOnUse"><stop offset="0" style="stop-color:#dbeafe"/><stop offset="1" style="stop-color:#eff6ff"/></linearGradient><path d="M1740 427a142 142 0 0 1-3.4 30.8q-.7 3-1.8 6-1 3-2.7 5.6-.8 1.3-2 2.4l-1.4.8a4 4 0 0 1-3.1.1l-1.4-.8q-1.2-1-2-2.4-1.7-2.6-2.8-5.5a58 58 0 0 1-3.2-12 127 127 0 0 1-2-24.8 155 155 0 0 1 3-30.8 59 59 0 0 1 3-9q.5-1.4 1.4-2.6.8-1.4 2-2.4l1.4-.8a4 4 0 0 1 3 0l1.4.9q1.2 1 2 2.3a28 28 0 0 1 3 5.5 57 57 0 0 1 3.3 12q2.3 12.2 2.3 24.7m-.7 0a146 146 0 0 0-2-24.6 85 85 0 0 0-3.3-12q-1-2.8-2.7-5.4-1-1.4-2-2.3-.7-.5-1.3-.9l-1.5-.3q-.8 0-1.5.3l-1.2.8a10 10 0 0 0-2 2.3 21 21 0 0 0-2.6 5.6 59 59 0 0 0-2.7 12 137 137 0 0 0-1.7 24.7 161 161 0 0 0 2 24.6 88 88 0 0 0 3 12 27 27 0 0 0 2.6 5.5q.8 1.4 2 2.3l1.3.8a4 4 0 0 0 2.9 0l1.2-.9q1.1-1 2-2.3 1.5-2.6 2.6-5.6a59 59 0 0 0 3-12 129 129 0 0 0 2-24.6" style="fill:url(#ay)"/><linearGradient id="az" x1="1712.9" x2="1741.2" y1="427.2" y2="427.2" gradientUnits="userSpaceOnUse"><stop offset="0" style="stop-color:#dbeafe"/><stop offset="1" style="stop-color:#eff6ff"/></linearGradient><path d="M1727 474.2q-1 0-1.9-.4-.7-.3-1.6-1-1.3-1-2.4-2.6-1.5-2.3-2.8-5.8a58 58 0 0 1-3.3-12.2 128 128 0 0 1-2-25 155 155 0 0 1 3-31.1 60 60 0 0 1 3-9.1l1.6-3q1-1.5 2.3-2.5.7-.7 1.6-1a5 5 0 0 1 4 0l1.6 1q1.2 1 2.3 2.6 1.6 2.3 3 5.8a58 58 0 0 1 3.5 12.2q2.2 11.4 2.3 24.9a143 143 0 0 1-3.4 31.1q-.9 3.4-1.9 6.1-1.3 3.6-2.8 5.8-1.1 1.7-2.3 2.7l-1.6 1a5 5 0 0 1-2.2.5m-.6-91.5q-.4 0-.9.2l-1 .6q-.8.7-1.7 2l-1.3 2.6q-.6 1.2-1.1 2.8a57 57 0 0 0-2.8 11.8 134 134 0 0 0-1.6 24.5 161 161 0 0 0 2 24.4 87 87 0 0 0 2.9 11.8q1.2 3.2 2.5 5.3a9 9 0 0 0 1.8 2q.4.4 1 .6l1 .2.9-.3 1-.6 1.7-2q1.3-2.2 2.5-5.4a57 57 0 0 0 3-11.7 127 127 0 0 0 1.8-24.5 146 146 0 0 0-2-24.4 83 83 0 0 0-3.2-11.7q-1.3-3.2-2.6-5.3l-1.8-2-1-.7z" style="fill:url(#az)"/><linearGradient id="aA" x1="1690.6" x2="1760.8" y1="427" y2="427" gradientUnits="userSpaceOnUse"><stop offset="0" style="stop-color:#dbeafe"/><stop offset="1" style="stop-color:#eff6ff"/></linearGradient><path d="M1760.8 427q0 8-2.2 15.8a51 51 0 0 1-11.6 20.7q-2.9 2.9-6.2 5a30 30 0 0 1-15 4.5 27 27 0 0 1-15.2-4.5 35 35 0 0 1-11.2-11.2 51 51 0 0 1-8.2-22.3 63 63 0 0 1 1.6-23.8 51 51 0 0 1 11.6-20.7q3-2.9 6.2-5a30 30 0 0 1 15.1-4.5 27 27 0 0 1 15 4.5 35 35 0 0 1 11.3 11.2 51 51 0 0 1 6.6 14.5 61 61 0 0 1 2.2 15.8m-.7 0a60 60 0 0 0-2-15.6 51 51 0 0 0-11.4-20.6 29.3 29.3 0 0 0-21-9.5 27 27 0 0 0-14.9 4.5 34 34 0 0 0-11 11.2 51 51 0 0 0-7.9 22.1 62 62 0 0 0 1.6 23.5 51 51 0 0 0 11.3 20.6q2.7 2.9 6 5a29 29 0 0 0 15 4.5 27 27 0 0 0 14.8-4.5 34 34 0 0 0 11-11.2q4.3-6.7 6.4-14.4 2-7.6 2-15.6" style="fill:url(#aA)"/><linearGradient id="aB" x1="1689.4" x2="1762" y1="427" y2="427" gradientUnits="userSpaceOnUse"><stop offset="0" style="stop-color:#dbeafe"/><stop offset="1" style="stop-color:#eff6ff"/></linearGradient><path d="M1725.7 474.2a28 28 0 0 1-15.7-4.7 37 37 0 0 1-11.6-11.5 52 52 0 0 1-8.4-22.9 65 65 0 0 1 1.6-24.2 52 52 0 0 1 12-21.2q3-3 6.4-5.2a31 31 0 0 1 15.7-4.7 28 28 0 0 1 15.7 4.7A37 37 0 0 1 1753 396a52 52 0 0 1 6.8 14.9 61.7 61.7 0 0 1 0 32.3 52 52 0 0 1-12 21.2q-2.9 3-6.4 5.1a31 31 0 0 1-15.7 4.7m0-91.7a26 26 0 0 0-14.2 4.3 33 33 0 0 0-10.7 10.8 49 49 0 0 0-7.7 21.7 61 61 0 0 0 1.5 23 49 49 0 0 0 11 20q2.9 3 5.9 4.9a28 28 0 0 0 14.2 4.3 26 26 0 0 0 14.3-4.3 33 33 0 0 0 10.6-10.8q4-6.3 6.2-14a59 59 0 0 0 0-30.7 50 50 0 0 0-11-20 28.1 28.1 0 0 0-20.1-9.1" style="fill:url(#aB)"/><linearGradient id="aC" x1="1684.8" x2="1769" y1="408.9" y2="408.9" gradientUnits="userSpaceOnUse"><stop offset="0" style="stop-color:#dbeafe"/><stop offset="1" style="stop-color:#eff6ff"/></linearGradient><path d="M1684.8 408.8h10.6l10.5-.1h52.6l10.5.1-10.5.2h-63.1z" style="fill:url(#aC)"/><linearGradient id="aD" x1="1683.6" x2="1770.2" y1="408.9" y2="408.9" gradientUnits="userSpaceOnUse"><stop offset="0" style="stop-color:#dbeafe"/><stop offset="1" style="stop-color:#eff6ff"/></linearGradient><path d="m1726.9 410.3-31.5-.1-11.1-.1-.7-.7v-1.8h1.2l21.1-.1 21-.1 31.6.1 11.7.1v2.5h-1.2l-21 .1z" style="fill:url(#aD)"/><linearGradient id="aE" x1="1697" x2="1756.8" y1="391.2" y2="391.2" gradientUnits="userSpaceOnUse"><stop offset="0" style="stop-color:#dbeafe"/><stop offset="1" style="stop-color:#eff6ff"/></linearGradient><path d="M1697 391.1h7.5l7.5-.1h37.3l7.5.1-7.5.2H1697z" style="fill:url(#aE)"/><linearGradient id="aF" x1="1695.8" x2="1758.1" y1="391.2" y2="391.2" gradientUnits="userSpaceOnUse"><stop offset="0" style="stop-color:#dbeafe"/><stop offset="1" style="stop-color:#eff6ff"/></linearGradient><path d="M1727 392.6h-15l-10-.1h-5l-1.2-.1V390h1.2l4.9-.2h50.2l4.7.1h1.3l-.1 2.5h-6.2l-10 .1z" style="fill:url(#aF)"/><linearGradient id="aG" x1="1681.1" x2="1772.7" y1="426.5" y2="426.5" gradientUnits="userSpaceOnUse"><stop offset="0" style="stop-color:#dbeafe"/><stop offset="1" style="stop-color:#eff6ff"/></linearGradient><path d="M1681.2 426.5h11.4l11.5-.1h57.1l11.5.1-11.5.2h-68.6z" style="fill:url(#aG)"/><linearGradient id="aH" x1="1679.9" x2="1773.9" y1="426.5" y2="426.5" gradientUnits="userSpaceOnUse"><stop offset="0" style="stop-color:#dbeafe"/><stop offset="1" style="stop-color:#eff6ff"/></linearGradient><path d="m1726.9 428-34.3-.1-12.6-.1-.1-2.5h1.3l22.9-.1 22.8-.1 34.3.1 12 .1.7.8v1.7h-1.2l-22.9.1z" style="fill:url(#aH)"/><linearGradient id="aI" x1="1684.8" x2="1769" y1="444.2" y2="444.2" gradientUnits="userSpaceOnUse"><stop offset="0" style="stop-color:#dbeafe"/><stop offset="1" style="stop-color:#eff6ff"/></linearGradient><path d="m1684.8 444.2 10.6-.1h63.1l10.5.1-10.5.2h-63.1z" style="fill:url(#aI)"/><linearGradient id="aJ" x1="1683.6" x2="1770.2" y1="444.2" y2="444.2" gradientUnits="userSpaceOnUse"><stop offset="0" style="stop-color:#dbeafe"/><stop offset="1" style="stop-color:#eff6ff"/></linearGradient><path d="m1726.9 445.7-31.5-.1-11.1-.1-.7-.8V443h1.2l21.1-.2h21l31.6.1 11.7.1v2.4l-1.2.1-21 .1z" style="fill:url(#aJ)"/><linearGradient id="aK" x1="1698.4" x2="1758.5" y1="461.9" y2="461.9" gradientUnits="userSpaceOnUse"><stop offset="0" style="stop-color:#dbeafe"/><stop offset="1" style="stop-color:#eff6ff"/></linearGradient><path d="M1758.3 462h-59.7v-.2h59.7z" style="fill:url(#aK)"/><linearGradient id="aL" x1="1697.2" x2="1759.7" y1="461.9" y2="461.9" gradientUnits="userSpaceOnUse"><stop offset="0" style="stop-color:#dbeafe"/><stop offset="1" style="stop-color:#eff6ff"/></linearGradient><path d="M1758.3 463.3h-59.7a1.4 1.4 0 0 1 0-2.7h59.7a1.4 1.4 0 0 1 0 2.7" style="fill:url(#aL)"/><path d="M2116.3 790.3h-110.1c-8.5 0-15.3-6.8-15.3-15.2V664.6c0-8 6.1-14.5 14-15.2l117.4-9.5c9.2-.7 17 6.9 16.4 16.1l-7.2 120c-.4 8-7.1 14.3-15.2 14.3" style="fill:#93c5fd"/><linearGradient id="aM" x1="2010.2" x2="2117.4" y1="719.9" y2="719.9" gradientUnits="userSpaceOnUse"><stop offset="0" style="stop-color:#dbeafe"/><stop offset="1" style="stop-color:#eff6ff"/></linearGradient><path d="M2021.9 768.8a11.7 11.7 0 0 1-11.7-11.6v-70.8a3.6 3.6 0 0 1 7.2 0v70.8q0 1.8 1.4 3.2 1.5 1.2 3.3 1.2l84-5c2.3-.2 4.1-2.1 4.1-4.4v-69.6q0-1.9-1.5-3.2-1.4-1.3-3.4-1.2l-69.8 7a4 4 0 0 0-3.6 2.5c-.3.7-.9 2.6.5 4.5l26.6 36.7a4.4 4.4 0 0 0 7.1 0l29.4-39a3.6 3.6 0 0 1 5.7 4.3l-29.3 39.1a11.6 11.6 0 0 1-18.8-.2l-26.6-36.7c-2.5-3.4-2.9-7.8-1.2-11.6 1.8-3.9 5.3-6.4 9.5-6.9l69.8-6.9a11.7 11.7 0 0 1 12.8 11.6v69.6c0 6.1-4.8 11.2-11 11.6l-83.8 5z" style="fill:url(#aM)"/><path d="m1879.5 769.6-72.5 7.6c-9 1-16.7-6-16.7-15v-83.7c0-7.5 5.5-14 13-15l72.4-10.4a15.2 15.2 0 0 1 17.4 15v86.4c0 7.7-6 14.3-13.6 15" style="fill:#bfdbfe"/><linearGradient id="aN" x1="1810.1" x2="1831.6" y1="743.3" y2="743.3" gradientUnits="userSpaceOnUse"><stop offset="0" style="stop-color:#dbeafe"/><stop offset="1" style="stop-color:#eff6ff"/></linearGradient><path d="M1820.9 754a10.8 10.8 0 1 1 0-21.5 10.8 10.8 0 0 1 0 21.5m0-17.2a6.5 6.5 0 1 0 0 13 6.5 6.5 0 0 0 0-13" style="fill:url(#aN)"/><linearGradient id="aO" x1="1815.9" x2="1850.2" y1="730.7" y2="730.7" gradientUnits="userSpaceOnUse"><stop offset="0" style="stop-color:#dbeafe"/><stop offset="1" style="stop-color:#eff6ff"/></linearGradient><path d="M1820.9 720.4a23 23 0 0 1 22.8 25.2c-.1 1 .7 1.9 1.7 1.7l3.4-.5q1.1-.2 1.3-1.4v-2.1a29.3 29.3 0 0 0-32.8-29q-1.5.2-1.4 1.7l.6 3.3q.3 1.3 1.7 1.2z" style="fill:url(#aO)"/><linearGradient id="aP" x1="1813.1" x2="1866.7" y1="721.2" y2="721.2" gradientUnits="userSpaceOnUse"><stop offset="0" style="stop-color:#dbeafe"/><stop offset="1" style="stop-color:#eff6ff"/></linearGradient><path d="M1820.9 703.9a39.5 39.5 0 0 1 39.4 39.4q.1 1.7 1.8 1.5l3.2-.4 1.4-1.6a46 46 0 0 0-52.3-44.9q-1.3.5-1.3 1.8l.6 3.3q.3 1.3 1.7 1.2 2.7-.3 5.5-.3" style="fill:url(#aP)"/><linearGradient id="aQ" x1="1810.3" x2="1883.1" y1="711.7" y2="711.7" gradientUnits="userSpaceOnUse"><stop offset="0" style="stop-color:#dbeafe"/><stop offset="1" style="stop-color:#eff6ff"/></linearGradient><path d="M1820.9 687.3a56 56 0 0 1 55.9 53.6q.2 1.6 1.7 1.5l3.3-.5q1.3-.3 1.3-1.6a62.4 62.4 0 0 0-71.4-58.7q-1.5.4-1.3 1.9l.5 3.2q.5 1.3 1.8 1.3 4-.7 8.2-.7" style="fill:url(#aQ)"/><path d="m1818.3 399.1 8 163.6A20.4 20.4 0 0 0 1845 582l244.5 20.9c10.2.8 19.4-6 21.7-15.9 8-36 25-120.2 20.3-175.8-.8-9.4-7.8-17-17-18.5-97.6-15.8-190.8-22.3-277.6-15-11 1-19.2 10.4-18.6 21.4" style="fill:#93c5fd"/><path d="m1833.3 408.3 7.5 150.7c.4 9.4 7.8 17 17.2 17.8l225.2 19.2c9.4.8 17.9-5.4 20-14.6 7.4-33.2 23-110.7 18.7-162a19 19 0 0 0-15.7-17c-89.8-14.6-175.7-20.5-255.6-13.7a19 19 0 0 0-17.3 19.6" style="fill:#bfdbfe"/><linearGradient id="aR" x1="1879.2" x2="1909.3" y1="438.5" y2="438.5" gradientUnits="userSpaceOnUse"><stop offset="0" style="stop-color:#dbeafe"/><stop offset="1" style="stop-color:#eff6ff"/></linearGradient><circle cx="1894.3" cy="438.5" r="15" style="fill:url(#aR)"/><linearGradient id="aS" x1="1934.9" x2="2094.1" y1="443" y2="443" gradientUnits="userSpaceOnUse"><stop offset="0" style="stop-color:#dbeafe"/><stop offset="1" style="stop-color:#eff6ff"/></linearGradient><path d="M2090.6 452.5h-.8c-43.4-10.9-92.8-14.3-151.1-10.5a3.5 3.5 0 1 1-.5-7c59-3.8 109.2-.4 153.3 10.6a3.5 3.5 0 0 1-.9 7" style="fill:url(#aS)"/><linearGradient id="aT" x1="1934.9" x2="2088" y1="478.1" y2="478.1" gradientUnits="userSpaceOnUse"><stop offset="0" style="stop-color:#dbeafe"/><stop offset="1" style="stop-color:#eff6ff"/></linearGradient><path d="M2084.5 487.8q-.6 0-1.1-.2c-58.5-20-143.7-9.2-144.5-9.1a3.5 3.5 0 0 1-.9-7c3.5-.4 87.6-11 147.6 9.5a3.5 3.5 0 0 1-1.1 6.8" style="fill:url(#aT)"/><linearGradient id="aU" x1="1934.9" x2="2088" y1="510.9" y2="510.9" gradientUnits="userSpaceOnUse"><stop offset="0" style="stop-color:#dbeafe"/><stop offset="1" style="stop-color:#eff6ff"/></linearGradient><path d="M2084.5 520.6q-.6 0-1.1-.2c-58.5-20-143.7-9.2-144.5-9.1a3.5 3.5 0 1 1-.9-7c3.5-.4 87.6-11 147.6 9.5a3.5 3.5 0 0 1-1.1 6.8" style="fill:url(#aU)"/><path d="m1527.8 174.5-7.1 34.8-20.5-19.7z" style="fill:#60a5fa"/><path d="m1375.4 122.8 77.2 101.5a9 9 0 0 0 12.9 1.5l99-81.4a3.6 3.6 0 0 0-2-6.4z" style="fill:#93c5fd"/><path d="m1527.8 174.5-152.4-51.7 136.4 64.9-1.5 9.7z" style="fill:#60a5fa"/><path d="m1502.3 195.4 18.4 13.9-8.9-21.6z" style="fill:#60a5fa"/></svg>