<svg xmlns="http://www.w3.org/2000/svg" xml:space="preserve" viewBox="0 0 3710 3710"><linearGradient id="a" x1="3611.3" x2="1104.8" y1="4065.3" y2="952.4" gradientUnits="userSpaceOnUse"><stop offset="0" style="stop-color:#dbeafe"/><stop offset="1" style="stop-color:#eff6ff"/></linearGradient><path d="M2929.5 2832.3c-58 60.3-113 99.2-156.3 130-509.6 361.2-1112.7 255.9-1240.8 230.2-189.3-38-555.1-111.4-819.6-418.7C312.6 2309 375 1576.6 685.3 1093.1c56.8-88.4 356.7-579.2 966.2-658 369-47.6 799 48.5 1110.3 306.2 653.7 541 607.1 1634 167.7 2091" style="fill:url(#a)"/><path d="M1596.8 3006c-17.8-321.3-137-614.4-560-822.9 0 0-65.6 788 560 822.8" style="fill:#bfdbfe"/><path d="M1480.7 2866.5q-1.4 0-2.4-1C1239 2632 1089.6 2289.5 1088 2286a3.4 3.4 0 0 1 6.2-2.7c1.5 3.4 150.5 344.8 388.7 577.3a3.4 3.4 0 0 1-2.3 5.9" style="opacity:.51;fill:#fff"/><path d="M2334.2 2985.9c288.9 26.6 566-40.8 808-390.4 0 0-694.2-163-808 390.4" style="fill:#bfdbfe"/><path d="M2498.1 2891.5q-1.2 0-2.2-.8a3.4 3.4 0 0 1-.4-4.8c86.4-101.8 227.8-166.5 331.2-202.8a1369 1369 0 0 1 205.6-55c1.9-.4 3.6 1 3.9 2.8s-1 3.6-2.8 3.9c-3.7.6-369.2 62.8-532.7 255.5q-1 1.2-2.6 1.2" style="opacity:.51;fill:#fff"/><linearGradient id="b" x1="2065.5" x2="2555.6" y1="2407.2" y2="1358.9" gradientUnits="userSpaceOnUse"><stop offset="0" style="stop-color:#1e3a8a"/><stop offset="1" style="stop-color:#1e40af"/></linearGradient><path d="m1630.3 2377-60.7 544.8h704.7l-91.8-544.8z" style="fill:url(#b)"/><linearGradient id="c" x1="1853" x2="1853" y1="514.5" y2="1624" gradientUnits="userSpaceOnUse"><stop offset="0" style="stop-color:#1e3a8a"/><stop offset="1" style="stop-color:#1e40af"/></linearGradient><path d="M446.5 1034.9v1247.6A189.3 189.3 0 0 0 631 2471.7c455.7 11.8 2049.5 40.3 2483.3 33.9 74.6-1.1 135-60.8 137.1-135.3 8.4-289.9 22-986.8-28.3-1310.4a143 143 0 0 0-137-121.3c-381.9-12.2-2071.4-51-2505-41.3A137.6 137.6 0 0 0 446.5 1035" style="fill:url(#c)"/><path d="M524.8 1028.8v1185.3c0 60 48.1 108.8 108 109.7l2419 29.9c59.4.9 108-47 108.3-106.3l4-1174.8a78 78 0 0 0-76-78.3l-2476.7-50a84.6 84.6 0 0 0-86.6 84.5" style="fill:#93c5fd"/><path d="m3178.3 2402.3-2653.5-45.2a3.4 3.4 0 0 1-3.4-3.5c0-1.9 1.7-3.4 3.5-3.3l2653.5 45.2a3.4 3.4 0 0 1 0 6.8M1877.7 2457.5a31 31 0 1 1 .1-62 31 31 0 0 1 0 62m0-55.2a24.2 24.2 0 1 0 0 48.5 24.2 24.2 0 0 0 0-48.5" style="opacity:.65;fill:#fff"/><path d="M2291.7 3001c309.9-153.8 549-395.8 575.6-902.2 0 0-806.5 269.3-575.6 902.2" style="fill:#60a5fa"/><path d="M2341.8 2886.7q-.6 0-1.1-.2a3.4 3.4 0 0 1-2.1-4.3 1641 1641 0 0 1 263-472.8c86-107.5 155.2-166 156-166.6 1.4-1.2 3.5-1 4.7.4s1 3.6-.4 4.8c-2.7 2.3-276 234.7-416.9 636.4a3.4 3.4 0 0 1-3.2 2.3" style="opacity:.51;fill:#fff"/><linearGradient id="d" x1="2162.1" x2="1991.9" y1="4227.1" y2="3396.6" gradientUnits="userSpaceOnUse"><stop offset="0" style="stop-color:#1e3a8a"/><stop offset="1" style="stop-color:#1e40af"/></linearGradient><path d="M2426 3033.2H1394.8c-28 0-49-19.9-43.7-41.3l13.3-52.4c4-15.7 21.3-27.3 41.8-27.9l994.3-31c21.5-.7 40.5 10.7 45.2 27l23.9 83.4c6.2 21.7-15 42.2-43.4 42.2" style="fill:url(#d)"/><path d="M1949.9 2925.8a3.4 3.4 0 0 1 0-6.8l42.5-.6h.1a3.4 3.4 0 0 1 0 6.8zM1389.2 3004.4h-.5c-1.9-.3-3.1-2-2.8-4l6-38a42.5 42.5 0 0 1 41.5-35.8l451.9-6.6a3.4 3.4 0 0 1 0 6.8l-451.8 6.6c-17.5.2-32.1 12.9-34.8 30.1l-6.1 38a3.4 3.4 0 0 1-3.4 3" style="fill:#fff"/><linearGradient id="e" x1="889.1" x2="173.3" y1="-60.4" y2="1723.3" gradientTransform="rotate(-16.8 2472.3 -6235)" gradientUnits="userSpaceOnUse"><stop offset="0" style="stop-color:#2563eb"/><stop offset="1" style="stop-color:#3b82f6"/></linearGradient><path d="M2681.8 523.7q23.3 1 46.2 4.1a14.3 14.3 0 0 0 16.2-12.3c1-7.8-4.5-15-12.3-16a570 570 0 0 0-48.7-4.5 14.3 14.3 0 1 0-1.4 28.7" style="fill:url(#e)"/><linearGradient id="f" x1="484.3" x2="-231.4" y1="-222.8" y2="1560.9" gradientTransform="rotate(-16.8 2472.3 -6235)" gradientUnits="userSpaceOnUse"><stop offset="0" style="stop-color:#2563eb"/><stop offset="1" style="stop-color:#3b82f6"/></linearGradient><path d="M2280.1 653.7c-5.4-5.7-14.5-5.9-20.2-.4a578 578 0 0 0-33.9 35.3 14.3 14.3 0 0 0 21.6 19 549 549 0 0 1 32.1-33.6c5.7-5.5 6-14.6.4-20.3" style="fill:url(#f)"/><linearGradient id="g" x1="370.1" x2="-345.7" y1="-268.6" y2="1515" gradientTransform="rotate(-16.8 2472.3 -6235)" gradientUnits="userSpaceOnUse"><stop offset="0" style="stop-color:#2563eb"/><stop offset="1" style="stop-color:#3b82f6"/></linearGradient><path d="M2104.3 977.7c-7.8-1-15 4.4-16.1 12.3q-3.3 24.2-4.5 48.7a14.3 14.3 0 0 0 28.6 1.4q1.2-23.2 4.3-46.2c1-7.9-4.4-15.1-12.3-16.2" style="fill:url(#g)"/><linearGradient id="h" x1="422.4" x2="-293.3" y1="-247.6" y2="1536" gradientTransform="rotate(-16.8 2472.3 -6235)" gradientUnits="userSpaceOnUse"><stop offset="0" style="stop-color:#2563eb"/><stop offset="1" style="stop-color:#3b82f6"/></linearGradient><path d="M2197.7 747.6a14.3 14.3 0 0 0-19.9 4q-13.5 20.5-25.1 42a14.3 14.3 0 1 0 25.2 13.7q11-20.5 23.9-39.9a14.3 14.3 0 0 0-4-19.8" style="fill:url(#h)"/><linearGradient id="i" x1="774" x2="58.2" y1="-106.5" y2="1677.1" gradientTransform="rotate(-16.8 2472.3 -6235)" gradientUnits="userSpaceOnUse"><stop offset="0" style="stop-color:#2563eb"/><stop offset="1" style="stop-color:#3b82f6"/></linearGradient><path d="M2560.4 531.6a550 550 0 0 1 46-6.2 14.3 14.3 0 0 0 13-15.6 14.3 14.3 0 0 0-15.7-13 581 581 0 0 0-48.4 6.6 14.3 14.3 0 1 0 5 28.2" style="fill:url(#i)"/><linearGradient id="j" x1="383.7" x2="-332" y1="-263.1" y2="1520.5" gradientTransform="rotate(-16.8 2472.3 -6235)" gradientUnits="userSpaceOnUse"><stop offset="0" style="stop-color:#2563eb"/><stop offset="1" style="stop-color:#3b82f6"/></linearGradient><path d="M2138.1 857.4c-7.4-2.8-15.7 1-18.5 8.4a577 577 0 0 0-15.2 46.4 14.3 14.3 0 0 0 27.6 7.8q6.2-22.4 14.5-44.1c2.8-7.4-1-15.7-8.4-18.5" style="fill:url(#j)"/><linearGradient id="k" x1="382.9" x2="-332.9" y1="-263.5" y2="1520.2" gradientTransform="rotate(-16.8 2472.3 -6235)" gradientUnits="userSpaceOnUse"><stop offset="0" style="stop-color:#2563eb"/><stop offset="1" style="stop-color:#3b82f6"/></linearGradient><path d="M2098.3 1102.5c-8 .7-13.7 7.7-13 15.6 1.5 16 3.6 32.4 6.5 48.4a14.3 14.3 0 0 0 28.2-5 548 548 0 0 1-6.1-46 14.3 14.3 0 0 0-15.6-13" style="fill:url(#k)"/><linearGradient id="l" x1="566.3" x2="-149.4" y1="-189.9" y2="1593.8" gradientTransform="rotate(-16.8 2472.3 -6235)" gradientUnits="userSpaceOnUse"><stop offset="0" style="stop-color:#2563eb"/><stop offset="1" style="stop-color:#3b82f6"/></linearGradient><path d="M2333.4 627.8q2.2-.6 4.2-2 18.8-13.6 38.8-25.6a14.3 14.3 0 0 0-14.8-24.6q-21 12.6-40.8 26.9a14.3 14.3 0 0 0 12.6 25.3" style="fill:url(#l)"/><linearGradient id="m" x1="664.5" x2="-51.2" y1="-150.4" y2="1633.2" gradientTransform="rotate(-16.8 2472.3 -6235)" gradientUnits="userSpaceOnUse"><stop offset="0" style="stop-color:#2563eb"/><stop offset="1" style="stop-color:#3b82f6"/></linearGradient><path d="m2442.2 566.7 1.4-.6q21.4-9 43.5-16.2a14.3 14.3 0 0 0-8.5-27.3h-.3q-23.4 7.6-45.8 17.1a14.3 14.3 0 0 0 9.7 27" style="fill:url(#m)"/><linearGradient id="n" x1="420.6" x2="-295.1" y1="-248.4" y2="1535.3" gradientTransform="rotate(-16.8 2472.3 -6235)" gradientUnits="userSpaceOnUse"><stop offset="0" style="stop-color:#2563eb"/><stop offset="1" style="stop-color:#3b82f6"/></linearGradient><path d="M2138.2 1234.5a14.5 14.5 0 0 0-17.9-9.5l-.2.1a14.4 14.4 0 0 0-9.2 18.2c5 15.5 10.8 31.4 17 46.3a14 14 0 0 0 17.4 8c.5 0 .9-.5 1.3-.7 7.3-3 10.8-11.4 7.7-18.7a550 550 0 0 1-16.1-43.7" style="fill:url(#n)"/><linearGradient id="o" x1="993.4" x2="277.6" y1="-18.5" y2="1765.2" gradientTransform="rotate(-16.8 2472.3 -6235)" gradientUnits="userSpaceOnUse"><stop offset="0" style="stop-color:#2563eb"/><stop offset="1" style="stop-color:#3b82f6"/></linearGradient><path d="M2841.8 540.5a14.3 14.3 0 0 0-9.2-18.1q-11.2-3.6-22.5-6.8a14.3 14.3 0 1 0-7.8 27.6q10.8 3 21.4 6.5a14.3 14.3 0 0 0 18-9.2" style="fill:url(#o)"/><linearGradient id="p" x1="861.5" x2="145.8" y1="-71.4" y2="1712.3" gradientTransform="rotate(-16.8 2472.3 -6235)" gradientUnits="userSpaceOnUse"><stop offset="0" style="stop-color:#2563eb"/><stop offset="1" style="stop-color:#3b82f6"/></linearGradient><path d="M2602.6 1608.7a543 543 0 0 1-45.3-6.4 14.3 14.3 0 1 0-5.2 28.2 572 572 0 0 0 47.7 6.7 14.3 14.3 0 1 0 2.8-28.5" style="fill:url(#p)"/><linearGradient id="q" x1="1366.3" x2="650.5" y1="153.4" y2="1937.1" gradientTransform="rotate(-16.8 2472.3 -6235)" gradientUnits="userSpaceOnUse"><stop offset="0" style="stop-color:#2563eb"/><stop offset="1" style="stop-color:#3b82f6"/></linearGradient><path d="M3194.1 854.3a14.3 14.3 0 0 0 25.8-12.5q-5.1-10.6-10.7-21a14.3 14.3 0 1 0-25.3 13.6q5.4 9.8 10.2 19.9" style="fill:url(#q)"/><linearGradient id="r" x1="1440.3" x2="724.6" y1="183.2" y2="1966.8" gradientTransform="rotate(-16.8 2472.3 -6235)" gradientUnits="userSpaceOnUse"><stop offset="0" style="stop-color:#2563eb"/><stop offset="1" style="stop-color:#3b82f6"/></linearGradient><path d="M3259.3 1024.7c-7.9.8-13.7 7.8-13 15.7a544 544 0 0 1 2.6 45.6 14.3 14.3 0 1 0 28.6-.4q-.2-24-2.6-48a14.3 14.3 0 0 0-15.6-12.9" style="fill:url(#r)"/><linearGradient id="s" x1="1444" x2="728.3" y1="184.6" y2="1968.3" gradientTransform="rotate(-16.8 2472.3 -6235)" gradientUnits="userSpaceOnUse"><stop offset="0" style="stop-color:#2563eb"/><stop offset="1" style="stop-color:#3b82f6"/></linearGradient><path d="M3260.7 1147.7c-7.8-1-15 4.5-16 12.4a542 542 0 0 1-7.6 45 14.3 14.3 0 1 0 28 6q5-23.5 8-47.4c1-7.9-4.5-15-12.4-16" style="fill:url(#s)"/><linearGradient id="t" x1="1377.2" x2="661.4" y1="157.8" y2="1941.5" gradientTransform="rotate(-16.8 2472.3 -6235)" gradientUnits="userSpaceOnUse"><stop offset="0" style="stop-color:#2563eb"/><stop offset="1" style="stop-color:#3b82f6"/></linearGradient><path d="M3164 1384q-12.4 19.4-26.2 37.6a14.3 14.3 0 1 0 22.9 17.3q14.5-19.2 27.4-39.5a14.3 14.3 0 0 0-24.2-15.3" style="fill:url(#t)"/><linearGradient id="u" x1="1224.6" x2="508.9" y1="96.6" y2="1880.2" gradientTransform="rotate(-16.8 2472.3 -6235)" gradientUnits="userSpaceOnUse"><stop offset="0" style="stop-color:#2563eb"/><stop offset="1" style="stop-color:#3b82f6"/></linearGradient><path d="M2995.6 1552.2a540 540 0 0 1-39.6 22.7 14.3 14.3 0 0 0 13.2 25.5 571 571 0 0 0 41.7-24 14.3 14.3 0 0 0-15.3-24.2" style="fill:url(#u)"/><linearGradient id="v" x1="1310.1" x2="594.4" y1="130.9" y2="1914.6" gradientTransform="rotate(-16.8 2472.3 -6235)" gradientUnits="userSpaceOnUse"><stop offset="0" style="stop-color:#2563eb"/><stop offset="1" style="stop-color:#3b82f6"/></linearGradient><path d="M3089 1477.5a545 545 0 0 1-33.6 30.9 14.3 14.3 0 1 0 18.5 21.9 572 572 0 0 0 35.4-32.6 14.3 14.3 0 1 0-20.3-20.2" style="fill:url(#v)"/><linearGradient id="w" x1="1422.5" x2="706.8" y1="176" y2="1959.7" gradientTransform="rotate(-16.8 2472.3 -6235)" gradientUnits="userSpaceOnUse"><stop offset="0" style="stop-color:#2563eb"/><stop offset="1" style="stop-color:#3b82f6"/></linearGradient><path d="M3235 1268a14.3 14.3 0 0 0-18.3 8.5q-7.7 21.5-17.3 42.3a14.3 14.3 0 1 0 26 12 579 579 0 0 0 18.3-44.5 14.3 14.3 0 0 0-8.6-18.4" style="fill:url(#w)"/><linearGradient id="x" x1="1015" x2="299.3" y1="12.5" y2="1796.1" gradientTransform="rotate(-16.8 2472.3 -6235)" gradientUnits="userSpaceOnUse"><stop offset="0" style="stop-color:#2563eb"/><stop offset="1" style="stop-color:#3b82f6"/></linearGradient><path d="M2771.4 1632.2q-22.7 2.8-45.6 3.7a14.3 14.3 0 1 0 1.2 28.7 575 575 0 0 0 50.3-4.5 14.3 14.3 0 0 0-6-27.9" style="fill:url(#x)"/><linearGradient id="y" x1="1124.6" x2="408.8" y1="56.5" y2="1840.1" gradientTransform="rotate(-16.8 2472.3 -6235)" gradientUnits="userSpaceOnUse"><stop offset="0" style="stop-color:#2563eb"/><stop offset="1" style="stop-color:#3b82f6"/></linearGradient><path d="M2888 1604.5a555 555 0 0 1-43.7 13.6 14.3 14.3 0 0 0 7.3 27.7 590 590 0 0 0 46-14.2 14.3 14.3 0 1 0-9.7-27" style="fill:url(#y)"/><linearGradient id="z" x1="1411.8" x2="696.1" y1="171.7" y2="1955.4" gradientTransform="rotate(-16.8 2472.3 -6235)" gradientUnits="userSpaceOnUse"><stop offset="0" style="stop-color:#2563eb"/><stop offset="1" style="stop-color:#3b82f6"/></linearGradient><path d="M3249.1 914.2a14 14 0 0 0-18-9.2 14.3 14.3 0 0 0-9.2 18.1 556 556 0 0 1 12.3 44 14.3 14.3 0 0 0 28-6.6 582 582 0 0 0-13-46.3" style="fill:url(#z)"/><linearGradient id="A" x1="759.4" x2="43.7" y1="-112.4" y2="1671.3" gradientTransform="rotate(-16.8 2472.3 -6235)" gradientUnits="userSpaceOnUse"><stop offset="0" style="stop-color:#2563eb"/><stop offset="1" style="stop-color:#3b82f6"/></linearGradient><path d="M2485 1583.7q-10.5-3.5-21-7.4a14.3 14.3 0 1 0-10 26.8q11 4.2 22 7.8a14.3 14.3 0 0 0 18.2-9 14.3 14.3 0 0 0-9.1-18.2" style="fill:url(#A)"/><linearGradient id="B" x1="1673.5" x2="1785.8" y1="3686.3" y2="2729.8" gradientTransform="rotate(11.2 -495 4905.2)" gradientUnits="userSpaceOnUse"><stop offset="0" style="stop-color:#1e3a8a"/><stop offset="1" style="stop-color:#1e40af"/></linearGradient><path d="m3125.5 948.1-80.7-11.4a355 355 0 0 0-60.7-92.6L2880 864l-79.6 86.3 70.2 152.2-177.8-6-104 77.5 14.1 136.6-109.3-21.2-37.2 36.9-21 78.5c-.8 2.8.3 5.7 2.7 7.3l81 54.7a7 7 0 0 0 7.9-.2l65.1-49a355 355 0 0 0 112.8 23l40.8 70.5a7 7 0 0 0 7 3.2l96-18.6c2.9-.6 5-2.9 5.4-5.7l11.4-80.7c35.8-16 68-37.7 96-63.6l78.8 21.1c2.7.8 5.7-.3 7.3-2.7l54.7-81.1a7 7 0 0 0-.2-7.8l-49-65.1a355 355 0 0 0 22.9-112.8l70.6-40.8a7 7 0 0 0 3.2-7.1l-18.7-96c-.5-2.8-2.8-5-5.6-5.4" style="fill:url(#B)"/><linearGradient id="C" x1="2637.2" x2="2815.5" y1="1141" y2="1141" gradientUnits="userSpaceOnUse"><stop offset="0" style="stop-color:#2563eb"/><stop offset="1" style="stop-color:#3b82f6"/></linearGradient><path d="M2750.9 1151.7a75.4 75.4 0 0 1-95.3-27.3l-18.4 13.7a98.5 98.5 0 0 0 123.4 34.4 98 98 0 0 0 54.9-71.5l-23.3-.8a75 75 0 0 1-41.3 51.5" style="fill:url(#C)"/><linearGradient id="D" x1="2709.1" x2="2961.7" y1="1104.3" y2="1104.3" gradientUnits="userSpaceOnUse"><stop offset="0" style="stop-color:#2563eb"/><stop offset="1" style="stop-color:#3b82f6"/></linearGradient><path d="M2951.2 1011.3c-15.4-51-47-95-90.6-126.2l-7.9 8.5a228 228 0 0 1 93.2 144 230.3 230.3 0 0 1-231 274.3 5.7 5.7 0 0 0-.2 11.5c1 0 2-.5 2.9-.5.5 0 1-.5 1.5-.5h.5c12.9 0 25.8-.5 38.6-2.6l7.8-1q12.3-2.4 24-6c53.2-16 98.8-49.4 130.3-96a240 240 0 0 0 30.9-205.5" style="fill:url(#D)"/><linearGradient id="E" x1="1330.7" x2="1443.1" y1="3646" y2="2689.6" gradientTransform="rotate(11.2 -495 4905.2)" gradientUnits="userSpaceOnUse"><stop offset="0" style="stop-color:#1e3a8a"/><stop offset="1" style="stop-color:#1e40af"/></linearGradient><path d="m2519.6 1248.6-13.5-130.2 104-77.4 173.3 5.8c2.1 0 3.5-2.1 2.7-4l-68.4-148 79.6-86.3 104.2-20-3-3.4 21.1-78.7c.8-2.8-.3-5.7-2.7-7.3l-81.1-54.7a7 7 0 0 0-7.8.2l-65.1 49a355 355 0 0 0-112.8-23l-40.8-70.5a7 7 0 0 0-7-3.3l-96.1 18.7c-2.8.6-5 2.8-5.4 5.7l-11.4 80.7c-35.7 16-68 37.6-96 63.5l-78.7-21c-2.8-.8-5.7.3-7.3 2.7l-54.7 81a7 7 0 0 0 .2 7.9l49 65.1a355 355 0 0 0-23 112.8l-70.5 40.8a7 7 0 0 0-3.2 7l18.7 96c.5 2.9 2.8 5 5.6 5.4l80.7 11.4c16 35.8 37.7 68 63.6 96l-.1.2 37.2-36.9 103 20c3.2.6 6-2 5.7-5.2" style="fill:url(#E)"/><linearGradient id="F" x1="2537.8" x2="2734.5" y1="1005.9" y2="1005.9" gradientUnits="userSpaceOnUse"><stop offset="0" style="stop-color:#2563eb"/><stop offset="1" style="stop-color:#3b82f6"/></linearGradient><path d="M2573 1068.7a75.5 75.5 0 1 1 131.5-73 75 75 0 0 1 5 48.8l23.3.9a98 98 0 0 0-63.3-110 98.4 98.4 0 0 0-115 147.2z" style="fill:url(#F)"/><linearGradient id="G" x1="2395.4" x2="2777.9" y1="986.8" y2="986.8" gradientUnits="userSpaceOnUse"><stop offset="0" style="stop-color:#2563eb"/><stop offset="1" style="stop-color:#3b82f6"/></linearGradient><path d="M2772.4 825.6a240 240 0 0 0-181.4-37 242 242 0 0 0-133.8 398.9 5.7 5.7 0 1 0 8.5-7.7A230 230 0 0 1 2411 1070 230.6 230.6 0 0 1 2766 835l4 3 8-8.5q-2.9-2-5.6-4" style="fill:url(#G)"/><circle cx="877.9" cy="820.1" r="282" style="fill:#fff" transform="rotate(-45 878 820)"/><linearGradient id="H" x1="1054.1" x2="798.4" y1="134.6" y2="1129.5" gradientUnits="userSpaceOnUse"><stop offset="0" style="stop-color:#fe7062"/><stop offset="1" style="stop-color:#ff928e"/></linearGradient><circle cx="877.9" cy="820.1" r="272.6" style="fill:url(#H)"/><path d="M1102.7 709.7q.7 0 1.3-.3c1.4-.7 2-2.5 1.3-3.9A253.5 253.5 0 0 0 832 569.7a2.9 2.9 0 1 0 1 5.6 247.8 247.8 0 0 1 267.1 132.8q1 1.6 2.6 1.6" style="opacity:.7;fill:#fff"/><circle cx="872" cy="826" r="230.7" style="fill:#fff" transform="rotate(-45 872 826)"/><linearGradient id="I" x1="1781.6" x2="1382.6" y1="-339.2" y2="143.1" gradientUnits="userSpaceOnUse"><stop offset="0" style="stop-color:#e1473d"/><stop offset="1" style="stop-color:#e9605a"/></linearGradient><path d="m886.3 870.9-26.2-.6a14.5 14.5 0 0 1-13.6-13.8l-9.6-184a12 12 0 0 1 3.8-9.4q4.1-3.7 10-3.2l45 3.2a14 14 0 0 1 13.3 14.4L899.7 858c-.4 7.2-6.3 13-13.5 12.8" style="fill:url(#I)"/><linearGradient id="J" x1="1872.1" x2="1473.1" y1="-264.3" y2="218" gradientUnits="userSpaceOnUse"><stop offset="0" style="stop-color:#e1473d"/><stop offset="1" style="stop-color:#e9605a"/></linearGradient><path d="M846 915.8q9.7-9.3 27.4-9 18.3.3 27.7 9.6 9.5 9.3 9.5 27.1 0 17.2-9.7 26.7t-27.5 9.5a37 37 0 0 1-27.3-9.9 36 36 0 0 1-10-26.9q0-17.7 9.9-27" style="fill:url(#J)"/><linearGradient id="K" x1="1721.9" x2="1969.4" y1="715" y2="2115.2" gradientUnits="userSpaceOnUse"><stop offset="0" style="stop-color:#1e3a8a"/><stop offset="1" style="stop-color:#1e40af"/></linearGradient><path d="m1907.4 697.2-728 1223.2c-16 26.9 4.9 59.7 38.1 60l1443 11.9c33.4.2 55-32.5 39.3-59.6l-715.1-1235c-16.5-28.5-60.6-28.7-77.3-.5" style="fill:url(#K)"/><linearGradient id="L" x1="2374" x2="1093.6" y1="899.5" y2="3865" gradientUnits="userSpaceOnUse"><stop offset="0" style="stop-color:#fe7062"/><stop offset="1" style="stop-color:#ff928e"/></linearGradient><path d="M1911 770.3 1250 1881.2c-14.5 24.4 4.4 54.2 34.6 54.5l1310.6 10.7c30.3.3 49.8-29.4 35.6-54L1981.2 770.6c-14.9-25.8-55-26-70.2-.4" style="fill:url(#L)"/><linearGradient id="M" x1="1577.9" x2="2231.8" y1="1797.2" y2="207.2" gradientUnits="userSpaceOnUse"><stop offset="0" style="stop-color:#1e3a8a"/><stop offset="1" style="stop-color:#1e40af"/></linearGradient><path d="m1797.4 1531.5-32.3.4v57.7l-55.8 1v-58l-116.4 1.6v-41.4l119.6-181.6 52.6.1v175l32.3-.4zm-88-44.7v-47.4a900 900 0 0 1 2.3-60.5h-1.4q-6.9 15.6-16.5 30.6l-50 78z" style="fill:url(#M)"/><linearGradient id="N" x1="1746.5" x2="2400.4" y1="1866.5" y2="276.5" gradientUnits="userSpaceOnUse"><stop offset="0" style="stop-color:#1e3a8a"/><stop offset="1" style="stop-color:#1e40af"/></linearGradient><path d="M2010.4 1448.5q0 71.8-22.4 106.6-22.4 35-69.4 35.7-45.7.8-69-34.8-23.5-35.7-23.5-106 0-73.4 22.8-108.2 22.7-34.7 69.7-34.7 45.6 0 68.7 36.2 23.1 36 23.1 105.2m-128.5 1q0 51 8.5 72.8 8.4 21.9 28.2 21.6 19.5-.3 28.1-22.6t8.6-72.3q0-50.7-8.7-72.7t-28-22q-19.6 0-28.1 22.2-8.6 22.3-8.6 73" style="fill:url(#N)"/><linearGradient id="O" x1="1952.6" x2="2606.5" y1="1951.3" y2="361.3" gradientUnits="userSpaceOnUse"><stop offset="0" style="stop-color:#1e3a8a"/><stop offset="1" style="stop-color:#1e40af"/></linearGradient><path d="m2232 1525.9-30.6.4v56l-52.7.9v-56.3l-110 1.5v-40.2l113-176.5h49.7v170.1l30.5-.3zm-83.3-43.5v-46a904 904 0 0 1 2.3-59h-1.4a212 212 0 0 1-15.6 29.8L2087 1483z" style="fill:url(#O)"/><linearGradient id="P" x1="1607.6" x2="2261.5" y1="1809.4" y2="219.4" gradientUnits="userSpaceOnUse"><stop offset="0" style="stop-color:#1e3a8a"/><stop offset="1" style="stop-color:#1e40af"/></linearGradient><path d="m1671.6 1833.6-86 2.7v-153.6l86-1.9v26.5l-54.2 1.4v33.6l50.5-1.3v26.5l-50.5 1.4v39.6l54.2-1.7z" style="fill:url(#P)"/><linearGradient id="Q" x1="1724" x2="2377.9" y1="1857.3" y2="267.3" gradientUnits="userSpaceOnUse"><stop offset="0" style="stop-color:#1e3a8a"/><stop offset="1" style="stop-color:#1e40af"/></linearGradient><path d="M1739 1773v58.4l-31.3 1V1680l43-1q30-.6 44.2 10.3t14.3 33.8q0 13.4-7.1 24a49 49 0 0 1-20.1 16.8q33 50.2 43 64.8l-34.4 1-35-57.1zm0-26.2 10-.2q15-.5 21.9-5.7 7-5.3 7-16.2t-7.2-15.2-22.2-4l-9.5.2z" style="fill:url(#Q)"/><linearGradient id="R" x1="1842" x2="2495.9" y1="1905.8" y2="315.8" gradientUnits="userSpaceOnUse"><stop offset="0" style="stop-color:#1e3a8a"/><stop offset="1" style="stop-color:#1e40af"/></linearGradient><path d="M1879 1769v58l-30.7 1v-151.1l42.2-1q29.3-.6 43.4 10.2t14 33.5a42 42 0 0 1-6.9 23.7 49 49 0 0 1-19.7 16.8q32.4 49.7 42.1 64.1l-33.7 1.1-34.4-56.7zm0-25.9 10-.3q14.4-.3 21.3-5.6t7-16q0-10.7-7.1-15-7-4.5-21.9-4l-9.3.2z" style="fill:url(#R)"/><linearGradient id="S" x1="1961.7" x2="2615.6" y1="1955" y2="365.1" gradientUnits="userSpaceOnUse"><stop offset="0" style="stop-color:#1e3a8a"/><stop offset="1" style="stop-color:#1e40af"/></linearGradient><path d="M2114.8 1745q0 36.8-17.3 57.1-17.2 20.4-49.8 21.5-32.6 1-50-18.4-17.6-19.5-17.6-56.8 0-37.5 17.6-57.5 17.6-20.1 50.2-20.9 32.5-.6 49.8 18.7 17.1 19.3 17.1 56.2m-103 2.7q0 25 9 37.5t27 11.8q35.8-1 35.8-51.2t-35.7-49.4a32 32 0 0 0-27 13.3q-9.2 13-9.2 38" style="fill:url(#S)"/><linearGradient id="T" x1="2094.2" x2="2748.1" y1="2009.5" y2="419.5" gradientUnits="userSpaceOnUse"><stop offset="0" style="stop-color:#1e3a8a"/><stop offset="1" style="stop-color:#1e40af"/></linearGradient><path d="M2178.3 1760.6v56.7l-29.6 1v-148.2l40.6-.9q28.3-.6 41.8 10t13.5 32.9q0 13-6.7 23.3a47 47 0 0 1-19 16.4q31.2 48.8 40.6 63l-32.5 1-33-55.6zm0-25.5 9.5-.2q13.9-.4 20.6-5.5 6.6-5.2 6.6-15.7t-6.8-14.8a39 39 0 0 0-21-4l-9 .3z" style="fill:url(#T)"/><linearGradient id="U" x1="3667" x2="2967.4" y1="3057.2" y2="3818.2" gradientTransform="translate(-2400)" gradientUnits="userSpaceOnUse"><stop offset="0" style="stop-color:#1e3a8a"/><stop offset="1" style="stop-color:#1e40af"/></linearGradient><path d="M1045.8 3114s-7.2 41-10.8 81.5a28 28 0 0 0 26.8 30.3c54 2.3 169.7 6.7 211.2 4.8a9 9 0 0 0 8-12.4q-3.2-7.5-10.4-11l-191-87.8z" style="fill:url(#U)"/><linearGradient id="V" x1="3439.9" x2="3502" y1="3113.8" y2="3113.8" gradientTransform="translate(-2400)" gradientUnits="userSpaceOnUse"><stop offset="0" style="stop-color:#febbba"/><stop offset="1" style="stop-color:#ff928e"/></linearGradient><path d="m1039.9 3089.8 5.8 49s33.4 15.7 56.3-1.9l-13.9-54.7z" style="fill:url(#V)"/><linearGradient id="W" x1="-240" x2="429.9" y1="6899.2" y2="6114.1" gradientTransform="translate(-2400)" gradientUnits="userSpaceOnUse"><stop offset="0" style="stop-color:#172554"/><stop offset="1" style="stop-color:#172554"/></linearGradient><path d="M1044.2 2167.5c-2.5 12.8-13.5 639.3 53.5 920 1.1 4.7-1.2 9.4-5.6 11.2a166 166 0 0 1-54.5 11c-7.5.3-14.2-4.6-16.3-11.7-19.1-65.2-110.9-391.6-122.8-703.3-13.4-348.4 0-11.9 0-11.9l7.8-215.3z" style="fill:url(#W)"/><linearGradient id="X" x1="3510" x2="2810.5" y1="2913" y2="3673.9" gradientTransform="translate(-2400)" gradientUnits="userSpaceOnUse"><stop offset="0" style="stop-color:#1e3a8a"/><stop offset="1" style="stop-color:#1e40af"/></linearGradient><path d="M826 3135.3s-11.5 20.7-22.7 75.7a17 17 0 0 0 15 20.5c18 1.7 45.4 4 67.4 3.8 10.2 0 18-8.9 16.9-19-2.5-20-10-53-33.5-78.6z" style="fill:url(#X)"/><linearGradient id="Y" x1="3216" x2="3269.6" y1="3110.6" y2="3110.6" gradientTransform="translate(-2400)" gradientUnits="userSpaceOnUse"><stop offset="0" style="stop-color:#febbba"/><stop offset="1" style="stop-color:#ff928e"/></linearGradient><path d="m816 3072.2 13.5 74.2s13.5 10 40 2.8l-6.4-79.9z" style="fill:url(#Y)"/><linearGradient id="Z" x1="-333.9" x2="336" y1="6819.1" y2="6034" gradientTransform="translate(-2400)" gradientUnits="userSpaceOnUse"><stop offset="0" style="stop-color:#172554"/><stop offset="1" style="stop-color:#172554"/></linearGradient><path d="M779.2 2186.7c-54.8 330.6 11.8 817 34.3 912.2 1.4 5.8 6.1 10.3 12 11.3 10 1.7 26.6 3 42.9-1.7 5.6-1.6 9.5-6.7 9.7-12.5 3-77-2.4-549.6 48.7-736.3a42 42 0 0 1 16.3-23.4l99-70.4 7.7-113.9z" style="fill:url(#Z)"/><linearGradient id="aa" x1="1262.5" x2="1020.9" y1="1460.7" y2="2141.4" gradientUnits="userSpaceOnUse"><stop offset="0" style="stop-color:#3b82f6"/><stop offset="1" style="stop-color:#2563eb"/></linearGradient><path d="M1266.8 1715.5c-8.3 59.2-17.1 72.8-24 73.2-21.7 1.1-17.3-132.4-96.8-200-50.2-42.6-118.8-46.1-172.6-41.1l75.3 270.1c11 27 58.8 135.7 167 168.8 22 6.7 54.8 16.7 85.2 3.6 60.2-25.9 88.4-131.8 61.5-264.6-12.6-4.7-30.1-9.7-95.6-10" style="fill:url(#aa)"/><linearGradient id="ab" x1="-9542.8" x2="-10239.8" y1="3099.4" y2="3991.1" gradientTransform="rotate(-71.7 -5528 -5139.4)" gradientUnits="userSpaceOnUse"><stop offset="0" style="stop-color:#febbba"/><stop offset="1" style="stop-color:#ff928e"/></linearGradient><path d="m1247.7 1484.6 10 56.3c15.9 68.8 17.4 126.2 9.1 174.6a760 760 0 0 1 95.6 10c-8.6-70-55.2-186.2-55.2-186.2-28.1-40.6-31.5-14.2-59.5-54.7" style="fill:url(#ab)"/><linearGradient id="ac" x1="-9448" x2="-10144.9" y1="3173.6" y2="4065.2" gradientTransform="rotate(-71.7 -5528 -5139.4)" gradientUnits="userSpaceOnUse"><stop offset="0" style="stop-color:#febbba"/><stop offset="1" style="stop-color:#ff928e"/></linearGradient><path d="M1361.4 1366c-11.2-.3-22 4.5-29.3 13.2l-71 84.1s-13-2.6-14.1-27.4c-1.2-24.7-27.5-27.7-27.5-27.7s3.8 34.5 11 85.6a108 108 0 0 0 35.4 63.4l41-14.1a467 467 0 0 0 74.1-176.6z" style="fill:url(#ac)"/><linearGradient id="ad" x1="1055.8" x2="814.1" y1="1387.3" y2="2068" gradientUnits="userSpaceOnUse"><stop offset="0" style="stop-color:#3b82f6"/><stop offset="1" style="stop-color:#2563eb"/></linearGradient><path d="M692.3 1594.9c4.7-1.3 37-34.7 41.9-35.6 79.7-15.2 278.7-68.8 411.8 29.5l.7 7q1.8 2.4 5.5 9.3c12.6 24.4 27.6 48.1 45 70.2q-5.8 5.7-9.3 13.2c-32 68.5-153.3 342.2-132 509.6a16 16 0 0 1-13.4 17.8c-47.1 6.5-187.3 22.4-259.8-7.5a11 11 0 0 1-6.8-10.5c.5-33.5-1-179.3-54.4-355q-3-9.8-5-20l-1.8 4.1z" style="fill:url(#ad)"/><linearGradient id="ae" x1="774.1" x2="532.4" y1="1287.3" y2="1968" gradientUnits="userSpaceOnUse"><stop offset="0" style="stop-color:#3b82f6"/><stop offset="1" style="stop-color:#2563eb"/></linearGradient><path d="M814 1544.1C665.2 1555 634.1 1640 531.4 1588l18.2 159c38 42.1 95.6 70.8 168 81.5z" style="fill:url(#ae)"/><linearGradient id="af" x1="-5209.3" x2="-5329.2" y1="2191.2" y2="2709.2" gradientTransform="rotate(15 962.8 25381.1)" gradientUnits="userSpaceOnUse"><stop offset="0" style="stop-color:#febbba"/><stop offset="1" style="stop-color:#ff928e"/></linearGradient><path d="M915.5 1400.3a390 390 0 0 0-39.3 150.6c5.5 2 78.6 52.7 127.5 3.6-10.5-33.6-8.7-84.4-6-136.4z" style="fill:url(#af)"/><linearGradient id="ag" x1="-1288.7" x2="-1726.7" y1="1937.8" y2="2150.7" gradientTransform="rotate(161 -582.8 -145.6)scale(1 -1)" gradientUnits="userSpaceOnUse"><stop offset="0" style="stop-color:#febbba"/><stop offset="1" style="stop-color:#ff928e"/></linearGradient><path d="M1048 1266.8c1.5 2.2 38 174.5 38 174.5l-98.8 18.8-58.9-158.2s96.3-73 119.8-35.1" style="fill:url(#ag)"/><linearGradient id="ah" x1="-5232.1" x2="-4990.7" y1="-4192.8" y2="-4192.8" gradientTransform="rotate(-31.7 7729 -12207.1)" gradientUnits="userSpaceOnUse"><stop offset="0" style="stop-color:#1e3a8a"/><stop offset="1" style="stop-color:#1e40af"/></linearGradient><path d="M966 1316a15 15 0 0 0-2.2 12.5L988 1413a14 14 0 0 0 1.6 3.6c4 6.2 18 25 36.8 9.6 16-13.2 31-25 44.5-28a14.4 14.4 0 0 1 17.1 11.2c3.4 16.2 9.5 49 10.9 78.9.3 7.5-5.2 14-12.7 14.8-19.6 2.5-58 6-90.3 2-5.3-.7-9.8-4.2-11.7-9.1-8.5-22-32.4-83.2-41.8-99.5-8.8-15-32-16.5-42.7-16.3-4.1 0-8-1.5-10.8-4.5-8.4-8.7-22-28.6 1-49.9 5.7-5.3 6-14.3.7-20.1-9.2-10.4-17.7-27.6 0-47 17.9-19.6 39.4-16 53.3-10.4a15 15 0 0 0 17.5-4.4c1.7-2.3 4.5-4 8.7-3.7 7.9.5 14.7-5 15.2-13 1-13.6 7.3-29.8 31-35.6 43.3-10.6 67.3 32 68 62.9s-46.9 39.6-74.3 35.9c-20.2-2.8-36.6 15.6-43.9 25.6" style="fill:url(#ah)"/><linearGradient id="ai" x1="-1265.1" x2="-1703.1" y1="1986.4" y2="2199.3" gradientTransform="rotate(161 -582.8 -145.6)scale(1 -1)" gradientUnits="userSpaceOnUse"><stop offset="0" style="stop-color:#febbba"/><stop offset="1" style="stop-color:#ff928e"/></linearGradient><path d="M957 1428.6s-9.1-54.6-31-58.5c-22-4-44.7 12.9-24.5 44 25 38.9 55.6 14.5 55.6 14.5" style="fill:url(#ai)"/><linearGradient id="aj" x1="-1515.6" x2="-1128.3" y1="2285.1" y2="2553.7" gradientTransform="rotate(.6 98314.3 -52279.2)scale(-1 1)" gradientUnits="userSpaceOnUse"><stop offset="0" style="stop-color:#febbba"/><stop offset="1" style="stop-color:#ff928e"/></linearGradient><path d="M920.8 1232.3q5.8-.2 12.6 1.2c10.5 2.2 24.4 7.6 20.8 17.6-5.5 15.1-33.7 1-48.8 25.4-13.2 21.4-2.4 44.7-6.4 67.8-2 11.2-9.2 27.9-19.3 34.4-4.4 3-39.9 8.6-41.8 2.3l-9.9-32c-8.8-28.7 25.2-76.7 42.8-96 13.5-15 32-20 50-20.7" style="fill:url(#aj)"/><linearGradient id="ak" x1="-1507.7" x2="-1104.8" y1="2277.4" y2="2556.8" gradientTransform="rotate(.6 98314.3 -52279.2)scale(-1 1)" gradientUnits="userSpaceOnUse"><stop offset="0" style="stop-color:#febbba"/><stop offset="1" style="stop-color:#ff928e"/></linearGradient><path d="m887.2 1347.8-33.9 28.2c-65 27.7-112.2 60.2-146.5 95.5a193 193 0 0 0-64.4-71.3c65.5-32.3 114.3-45.7 114.3-45.7 132.3-53.2 130.5-6.7 130.5-6.7" style="fill:url(#ak)"/><linearGradient id="al" x1="679.2" x2="437.5" y1="1253.6" y2="1934.3" gradientUnits="userSpaceOnUse"><stop offset="0" style="stop-color:#3b82f6"/><stop offset="1" style="stop-color:#2563eb"/></linearGradient><path d="M706.8 1471.5c-106.9 110.1-75.7 54.2-76.5 148-.3 35-30.7 168.6-30.7 168.6-327-141.3-54-334 42.8-387.9 32 21 52 48 64.4 71.3" style="fill:url(#al)"/></svg>