<svg xmlns="http://www.w3.org/2000/svg" xml:space="preserve" viewBox="0 0 3710 3710"><linearGradient id="a" x1="3585.9" x2="1121.3" y1="4072.5" y2="1011.6" gradientUnits="userSpaceOnUse"><stop offset="0" style="stop-color:#dbeafe"/><stop offset="1" style="stop-color:#eff6ff"/></linearGradient><path d="M2907.9 2865.4c-56.6 59.6-110.2 98-152.5 128.4-497.5 357-1086.1 252.9-1211.3 227.5-184.7-37.5-541.8-110-800-413.7-390.6-459.3-329.7-1183-26.8-1660.7 55.4-87.4 348.2-572.4 943.2-650.1 360-47.1 779.8 47.8 1083.8 302.5 638 534.5 592.6 1614.4 163.6 2066" style="fill:url(#a)"/><path d="M2355.2 3161.4q-7.4-1.1-12-7c-42-56.6-347.3-499.5 59-904.3 385.8-384.3 560.7-463.2 584-689 2.6-26.3 38.3-32.7 50-8.9 87.7 177.7 224.2 592.2-227.7 864.3-498.5 300.1-457.6 629.2-433.5 722.7 3.2 12.3-7.1 24-19.8 22.2" style="fill:#93c5fd"/><path d="M2417 3169.8a26 26 0 0 1-22-21.6c-12-77-41.2-364.7 170.8-441 233.4-84 421.8 133.3 593.4-36.8 9-9 24.2-1.2 22 11.4-15.3 88.8-83.3 294.6-385.8 336-324 44.4-360.4 81.5-353.8 127.6a21.7 21.7 0 0 1-24.6 24.4" style="fill:#93c5fd"/><path d="M2974.8 1791.3c-4 16.8-9.2 32.5-15.4 48.1a487 487 0 0 1-21 45.7 599 599 0 0 1-53.9 85 704 704 0 0 1-143.6 140.7 919 919 0 0 1-84.3 54.6q-41.6 24.3-80 53.6a843 843 0 0 0-138.5 133.8c-81.6 99.3-139.5 219-158.6 346.6a674 674 0 0 0-1 193c8.6 64.2 26.9 127 51 187.7a6.3 6.3 0 0 1-11.5 5 756 756 0 0 1-61-189.4q-9-49.3-10.5-99.7a672 672 0 0 1 58.8-294.1 781 781 0 0 1 105.1-171.6 842 842 0 0 1 227.5-197c28.4-16.4 55.5-33 81.7-51.9a775 775 0 0 0 142.1-129.6q31.4-36.7 57.5-77.7c17-27.3 33-56 44.5-85.8l.2-.4a5.8 5.8 0 0 1 11 3.4M2403.6 3117.6c1-2.8.7-5.4.6-8l-.3-8-.1-15.8a757 757 0 0 1 6.2-95c5.8-42 15.3-83.7 32.2-123 16.8-39.2 42.1-76.6 78.9-101a174 174 0 0 1 60.4-24.8c21.4-4.5 43.4-5.2 65-3.3 84.2 9.7 166.9 26 249.7 39 41.3 6.2 83.1 11.7 123.6 6.1q15.2-2 29.7-6.7a156 156 0 0 0 27.6-12.4c17.6-10 33.1-23.8 47-39v-.1a5.1 5.1 0 0 1 7.7 6.8 206 206 0 0 1-48.8 42.3 168 168 0 0 1-61.2 22c-43.2 6.3-86 1-127.7-4.8-41.9-6-83.2-13.7-124.7-20.4-41.3-6.8-83.2-13.3-124.3-18.1-20.4-2-41-1.5-60.7 2.5a160 160 0 0 0-55.8 22.4c-34.3 21.8-59.1 56.5-76 94a464 464 0 0 0-33.6 119.8 702 702 0 0 0-8 93.7v23.6c.1 2.5 0 5.2 1.3 7.7a4.8 4.8 0 1 1-8.7.6z" style="opacity:.47;fill:#fff"/><linearGradient id="b" x1="5363.4" x2="212.8" y1="-1443.3" y2="2946.9" gradientUnits="userSpaceOnUse"><stop offset="0" style="stop-color:#e1473d"/><stop offset="1" style="stop-color:#e9605a"/></linearGradient><path d="M1963.1 486.8c-127-1-255.1 19.1-368.5 66.2-263.8 109.4-487.8 399.1-400.1 695 28.4 96.2 13.5 202.2 109.2 244 51.8 22.6 193 36 246.6 18.2 142.6-47.3 236.3-176.9 158.8-320.6-24.9-46-57-88-78.5-135.7-21.4-47.7-31.2-104.3-9.3-151.8 42.9-93.2 185.5-122.9 278-120 109 3.2 208 57.2 266.6 149.8 73.2 115.4 91.8 255.8 81 389.7-11.4 143.3-71.8 252.8-162.4 362.7-78 94.7-163.9 185.6-215.7 296.7-47.6 102-63.1 215.2-65.3 326.8-.4 21.6-108 225.6-107.5 287.9 0 8.8 122 38 130.8 38l224 2.5c9.8.1 17.9-7.7 18-17.6 3.4-303 96.6-592 332.6-795.6 85.9-74 178.4-134.4 245.2-227.9 95.1-133.2 142-264.4 128.5-428.8-12.3-150.2-61.8-300.5-159.7-417C2510.2 624 2356.2 545.8 2196 512a1181 1181 0 0 0-233-25.2" style="fill:url(#b)"/><linearGradient id="c" x1="6114.6" x2="964" y1="-561.9" y2="3828.3" gradientUnits="userSpaceOnUse"><stop offset="0" style="stop-color:#e1473d"/><stop offset="1" style="stop-color:#e9605a"/></linearGradient><path d="M2197.3 2976c0 139.4-77.2 262.7-216.6 262.7-30.1 0-132.5.3-159.3-9.4-97.1-35.1-97.5-109.8-97.5-219 0-139.4 47-276.5 186.5-276.5s287 102.8 287 242.2" style="fill:url(#c)"/><linearGradient id="d" x1="555.1" x2="5026.4" y1="2735.7" y2="-1999.3" gradientUnits="userSpaceOnUse"><stop offset="0" style="stop-color:#ff928e"/><stop offset="1" style="stop-color:#fe7062"/></linearGradient><path d="M1842.4 455c-127-1-255.1 19.2-368.5 66.2-263.8 109.5-487.8 399.2-400.1 695 28.4 96.2 94.3 217.2 190 259 51.8 22.6 112.1 21 165.8 3.3 142.6-47.4 236.3-177 158.8-320.6-24.9-46-57-88-78.5-135.8s-31.2-104.2-9.3-151.8c42.9-93.2 185.5-122.8 278-120 109 3.3 208 57.2 266.6 149.8 73.2 115.4 91.8 255.8 81 389.7-11.4 143.4-71.8 252.8-162.4 362.8-78 94.7-163.8 185.5-215.7 296.7-47.6 102-63.1 215.1-65.2 326.7-.5 21.7 6.8 247.6 7.3 310 0 8.7 7.1 15.9 16 16l223.8 2.5c9.9 0 18-7.8 18.1-17.7 3.4-303 96.6-592 332.6-795.6 86-74 178.4-134.4 245.2-227.8 95.1-133.3 142-264.4 128.5-428.9-12.3-150.2-61.8-300.5-159.7-417-105.2-125.2-259.2-203.5-419.3-237.2a1181 1181 0 0 0-233-25.3" style="fill:url(#d)"/><linearGradient id="e" x1="2373.3" x2="1359.5" y1="2406.4" y2="3526.6" gradientUnits="userSpaceOnUse"><stop offset="0" style="stop-color:#ff928e"/><stop offset="1" style="stop-color:#fe7062"/></linearGradient><circle cx="1855.6" cy="2978.5" r="252.4" style="fill:url(#e)"/><path d="M1157.3 1187.3q-2.4-.1-3.2-2.5c-17.6-79.9-20.2-205 67.8-347.2 86-138.8 206.5-231.8 358.4-276.1 162.3-47.5 355-37.3 572.7 30.2a3.2 3.2 0 0 1-1.9 6.1c-418.3-129.6-746.4-43.2-923.7 243.2-86.9 140.4-84.4 263.7-67 342.4a3.2 3.2 0 0 1-3.1 3.9M1210.4 1315.8q-1.6 0-2.6-1.4c-.8-1-19-26.1-35.9-70.4a3.2 3.2 0 0 1 6-2.3 325 325 0 0 0 35.1 69 3.2 3.2 0 0 1-2.6 5M1940 2815q-.8 0-1.4-.4a182 182 0 0 0-83-19.8 3.2 3.2 0 1 1 0-6.5q45.5.1 85.9 20.5a3.2 3.2 0 0 1-1.5 6.1M1751 3136.7q-.9 0-1.7-.5a190 190 0 0 1 16.4-325.3 3.2 3.2 0 1 1 3 5.7 183.6 183.6 0 0 0-15.8 314.2 3.2 3.2 0 0 1-1.8 6" style="opacity:.63;fill:#fff"/><g style="opacity:.3"><path d="M1016.1 927.1a7.6 7.6 0 0 1-10.7 1.2q-9.5-7.8-20-14.8a7.6 7.6 0 0 1 8.7-12.6q10.8 7.2 20.9 15.5a7.6 7.6 0 0 1 1.1 10.7m-65.4-33.8q-11-5.5-22.6-10a7.6 7.6 0 0 1 5.6-14.2q12 4.8 23.8 10.5a7.6 7.6 0 0 1-6.8 13.7m-60.9-22q-12-2.9-24.3-4.7a7.6 7.6 0 0 1 2.3-15.1q12.8 2 25.5 5a7.6 7.6 0 0 1-3.5 14.8m-64.3-7.8q-12.5-.1-24.8.8a7.6 7.6 0 0 1-1.2-15.2q13-1 26-1a7.6 7.6 0 0 1 0 15.4m-64.5 6.7q-12 2.5-24 6.3a7.6 7.6 0 0 1-4.5-14.6 309 309 0 0 1 25.2-6.7 7.6 7.6 0 1 1 3.3 15M699.6 891q-11.2 5.2-22 11.4a7.6 7.6 0 0 1-7.6-13.2q11.3-6.6 23-12a7.6 7.6 0 0 1 6.6 13.8m-172.2 225.4c-4.1-.7-7-4.6-6.4-8.7a304 304 0 0 1 5-25.6 7.6 7.6 0 1 1 14.9 3.6q-3 12-4.8 24.2a7.6 7.6 0 0 1-8.7 6.5m117-191.6q-9.8 7.6-18.9 16a7.6 7.6 0 0 1-10.4-11.1q9.6-9 19.8-17a7.6 7.6 0 0 1 9.4 12.1M543 1051.7c-4-1.6-5.9-6-4.3-10q4.7-12 10.5-23.8a7.6 7.6 0 1 1 13.7 6.8 293 293 0 0 0-10.7 24c-2 3-5.8 4.3-9.2 3m55-81.5q-7.9 9.5-14.8 19.8a7.6 7.6 0 1 1-12.6-8.6q7.2-10.7 15.5-20.9a7.6 7.6 0 0 1 11.9 9.7M531.8 1166.5a8 8 0 0 0 1.2-4.4v-11.9a7.6 7.6 0 1 0-15.4-.1q0 6.2.2 12.5a7.6 7.6 0 0 0 14 3.9" style="fill:#93c5fd"/></g><g style="opacity:.3"><path d="M629.4 1377.9c2-3.1 1.6-7.3-1.3-9.8l-8.6-8.2a7.6 7.6 0 1 0-10.7 10.9q4.5 4.4 9.1 8.6a7.6 7.6 0 0 0 11.5-1.5M1069.8 1332.1a7.6 7.6 0 1 1-12.4-8.9q7-9.8 13.5-20.3a7.6 7.6 0 0 1 13 7.9 316 316 0 0 1-14 21.3m23.1-54.4a7.6 7.6 0 0 1-4-10q4.9-11.1 8.7-22.7a7.6 7.6 0 1 1 14.5 4.8 306 306 0 0 1-9.7 25c-2 3.2-6 4.4-9.5 3m-49.7 86.4q-8.8 9.4-18.4 17.8a7.6 7.6 0 0 1-10.2-11.4q9.2-8 17.6-17a7.6 7.6 0 0 1 11 10.6m70.5-148.5a7.6 7.6 0 0 1-6.1-8.9q2.2-12 3.5-24a7.6 7.6 0 1 1 15.2 1.4q-1.3 12.8-3.7 25.4a7.6 7.6 0 0 1-9 6.1m-122 191.6q-10.6 7.1-21.8 13.3a7.6 7.6 0 1 1-7.4-13.4q10.7-5.8 20.8-12.6a7.6 7.6 0 1 1 8.5 12.7m-59.6 30.8q-12 4.5-24.3 8.2a7.6 7.6 0 0 1-4.2-14.7q11.7-3.4 23-7.7a7.6 7.6 0 0 1 5.5 14.2m-65 17q-12.6 2-25.4 2.7a7.6 7.6 0 0 1-1-15.2q12.1-.8 24.2-2.6a7.6 7.6 0 0 1 2.3 15.2m-67 2.5q-12.7-.9-25.5-3a7.6 7.6 0 1 1 2.4-15q12 2 24.2 2.8a7.6 7.6 0 1 1-1.1 15.2m-66-12.3a305 305 0 0 1-24.2-8.5 7.6 7.6 0 0 1 5.6-14.2q11.4 4.5 23 8a7.6 7.6 0 1 1-4.5 14.7m-61.7-26.5a310 310 0 0 1-21.8-13.6 7.6 7.6 0 0 1-2-10.6 7.6 7.6 0 0 1 10.6-2 297 297 0 0 0 20.7 12.9 7.6 7.6 0 1 1-7.5 13.3M1126.4 1146.8a8 8 0 0 0 1.2-4.5l-.7-12.5a7.6 7.6 0 1 0-15.3 1.2q.6 6 .7 11.9a7.6 7.6 0 0 0 14 3.9" style="fill:#93c5fd"/></g><path d="M1030.6 1057.5a4 4 0 0 0-3.3-2.5l-43.5-1a189 189 0 0 0-39.6-46.7l6.2-43q.3-2.5-1.9-3.7l-46.3-23.8q-2.3-1-4.1.6l-31.4 30c-20.2-5-40.9-6.7-61.1-5l-26-34.8a4 4 0 0 0-4-1.3l-49.6 16a4 4 0 0 0-2.5 3.2l-1 43.5a189 189 0 0 0-46.7 39.6l-43-6.2q-2.5-.2-3.7 1.9l-23.8 46.3q-1 2.3.6 4.1l30 31.4c-5 20.2-6.7 40.9-5 61l-34.8 26.1a4 4 0 0 0-1.3 4l16 49.6a4 4 0 0 0 3.2 2.5l43.5 1A189 189 0 0 0 697 1297l-6.2 43q-.2 2.5 1.9 3.7l46.3 23.8q2.3 1 4.1-.6l31.4-30c20.2 5 40.9 6.7 61 5l26.1 34.8q1.6 2 4 1.3l49.6-16a4 4 0 0 0 2.4-3.2l1-43.5a189 189 0 0 0 46.8-39.6l43 6.2q2.5.3 3.7-1.9l23.8-46.3q1-2.3-.6-4.1l-30-31.4c5-20.2 6.6-40.9 5-61l34.8-26.1q1.9-1.6 1.3-4z" style="fill:#93c5fd"/><path d="M860 1186.8a52.4 52.4 0 1 1-78.7-69.5 52.4 52.4 0 0 1 78.6 69.5m-79.4-32.1a40.2 40.2 0 1 0 80.2-5.2 40.2 40.2 0 0 0-80.2 5.2" style="fill:#bfdbfe"/><path d="M927.4 1222.8q3.6-5.5 6.7-11.5a128 128 0 0 0 9.3-23.3l.2-.7.4-1.5a3 3 0 1 0-6-1.6q-3.4 12.7-9.4 24.3a122.7 122.7 0 1 1-4.8-120.9q.3.6.9 1a3 3 0 0 0 4.2-4.2 128 128 0 0 0-50.4-46.5 129 129 0 0 0-181.6 153.8 128 128 0 0 0 63.7 75.2 128 128 0 0 0 98.3 8.2 128 128 0 0 0 68.5-52.3" style="fill:#bfdbfe"/><g style="opacity:.3"><path d="M1327.3 817.6c1.2-1.7 1-4-.3-5.6l-8.2-9a4.7 4.7 0 0 0-6.7 6.6l7.7 8.5a4.7 4.7 0 0 0 7.5-.5M1301 792.8a4.7 4.7 0 0 1-6.6.7 196 196 0 0 0-19.6-13.9 4.7 4.7 0 0 1-1.5-6.5c1.4-2 4.3-2.9 6.5-1.5a214 214 0 0 1 20.5 14.5 4.7 4.7 0 0 1 .7 6.7m-47.3-24.5q-10.9-5.1-22.3-8.7a4.7 4.7 0 1 1 3-9q11.8 3.8 23.3 9a4.7 4.7 0 0 1-4 8.7m-45.5-14.6q-11.7-2.2-23.8-3a4.7 4.7 0 0 1 .6-9.4q12.6.8 25 3.1a4.7 4.7 0 0 1-1.8 9.3m-47.7-3q-12 .8-23.8 3a4.7 4.7 0 1 1-1.7-9.3q12.3-2.3 24.9-3a4.7 4.7 0 0 1 .6 9.3m-47 8.8q-11.4 3.6-22.4 8.6a4.7 4.7 0 0 1-3.9-8.5q11.5-5.3 23.4-9a4.7 4.7 0 0 1 2.9 9m-43.5 20q-10.1 6.2-19.5 13.8a4.7 4.7 0 1 1-6-7.4 203 203 0 0 1 20.6-14.5 4.7 4.7 0 0 1 5 8m-37.2 29.9a194 194 0 0 0-15.6 18.2 4.7 4.7 0 0 1-7.5-5.7q7.5-10.1 16.3-19a4.7 4.7 0 0 1 6.8 6.5m-45.6 62.1a4.7 4.7 0 0 1-2.5-6.2 206 206 0 0 1 11.2-22.4c1.2-2.3 4.1-3 6.4-1.8 2.3 1.3 3 4.2 1.7 6.5l-1.5 2.7a196 196 0 0 0-9.5 19.5 5 5 0 0 1-5.8 1.7" style="fill:#93c5fd"/></g><g style="opacity:.3"><path d="M1341.6 1058q-6.9 10.4-15 19.7a4.7 4.7 0 0 1-7.1-6.1 195 195 0 0 0 14.2-18.8 4.7 4.7 0 1 1 7.9 5.3m6.1-19.2a4.7 4.7 0 0 1-2-6.3 197 197 0 0 0 9.3-21.7 4.7 4.7 0 0 1 8.9 3.3 206 206 0 0 1-10.1 23c-1.3 2-4 2.8-6 1.7m-38.3 56.6q-9 8.4-19.2 15.5a4.7 4.7 0 0 1-5.5-7.7q9.6-6.8 18.4-14.8a4.7 4.7 0 1 1 6.3 7m55.8-101.5a4.7 4.7 0 0 1-3.5-5.7q2.6-11.4 3.9-23.2a4.7 4.7 0 0 1 9.4 1q-1.4 12.4-4.1 24.4a4.7 4.7 0 0 1-5.7 3.5m-96 130a205 205 0 0 1-22.4 10.4 4.7 4.7 0 0 1-3.5-8.8 194 194 0 0 0 21.4-9.9 4.7 4.7 0 0 1 4.5 8.3m-46 18q-11.9 3.1-24.2 4.7a4.7 4.7 0 1 1-1.2-9.3 197 197 0 0 0 23.1-4.5 4.7 4.7 0 0 1 2.4 9.1m-48.8 6.5q-12.4.2-24.7-1.2a4.7 4.7 0 1 1 1-9.4 193 193 0 0 0 23.6 1.2 4.7 4.7 0 0 1 .1 9.4M1375.3 943.7q.8-1.2.7-2.6 0-6-.5-12a4.7 4.7 0 0 0-9.4.7l.5 11.4a4.7 4.7 0 0 0 8.7 2.5" style="fill:#93c5fd"/></g><path d="M1311.4 880.6q-.6-1.5-2.2-1.7l-29-.6q-10.6-17.5-26.6-31.3l4.2-28.8q.1-1.6-1.3-2.4l-31-16q-1.5-.6-2.8.4l-21 20.1a127 127 0 0 0-40.8-3.4l-17.4-23.2a2.4 2.4 0 0 0-2.7-.9l-33.2 10.6q-1.5.7-1.7 2.3l-.6 29q-17.5 10.5-31.3 26.5l-28.8-4.1q-1.6-.2-2.4 1.3l-16 31q-.6 1.5.4 2.7l20.1 21a127 127 0 0 0-3.4 40.9l-23.2 17.4q-1.4 1-.9 2.6l10.6 33.2q.7 1.6 2.3 1.7l29 .6q10.5 17.7 26.5 31.4l-4.1 28.7q-.2 1.6 1.3 2.5l31 16q1.5.6 2.7-.5l21-20q20.5 5 40.9 3.3l17.4 23.3q1 1.3 2.6.8l33.2-10.6q1.6-.6 1.7-2.2l.6-29q17.6-10.6 31.4-26.6l28.7 4.2q1.6.1 2.5-1.3l16-31q.6-1.6-.5-2.8l-20-21q5-20.4 3.3-40.8l23.3-17.4q1.3-1.1.8-2.7z" style="fill:#93c5fd"/><path d="M1197.7 967.5a35.4 35.4 0 0 1-50.4 3.2 35.7 35.7 0 1 1 50.4-3.2m-44.1-3.9a26 26 0 0 0 37-2.3 26 26 0 0 0-2.3-37 26.3 26.3 0 0 0-34.7 39.3" style="fill:#bfdbfe"/><path d="M1244.7 992.6a91 91 0 0 0 11.1-24.7l.2-.8a4.7 4.7 0 1 0-9-2.4 80 80 0 0 1-6.2 15.7l-.4.9a79 79 0 0 1-45.3 38.2h-.1l-.6.2a79 79 0 0 1-67.6-9 79 79 0 0 1-32.2-42.4 79 79 0 0 1 5-60.5 79 79 0 0 1 46.4-39.3 79 79 0 0 1 91.7 33.6q.5 1 1.4 1.5a4.7 4.7 0 0 0 6.6-6.4 88.6 88.6 0 0 0-102.6-37.7 88 88 0 0 0-51.9 44 88 88 0 0 0-5.6 67.7 88 88 0 0 0 44 51.9 89 89 0 0 0 115-30.5" style="fill:#bfdbfe"/><path d="m2282.7 1312.8-137.2 140.3 164.5-44z" style="fill:#93c5fd"/><path d="m3098.9 1370.9-779.5 37.8a35 35 0 0 1-36.7-35V1053a64.5 64.5 0 0 1 62.5-64.5l702.4-21.7a94.7 94.7 0 0 1 94.7 94.7v263.7a45.7 45.7 0 0 1-43.5 45.7" style="fill:#93c5fd"/><path d="M2342.7 1395.8a47.8 47.8 0 0 1-48.1-48.2v-289a63 63 0 0 1 62.2-62.6l680.1-20.5c51.6 0 93.5 40.9 93.5 91.1v249.2c0 24-19.2 43.7-43.7 44.8l-741.6 35.2zm694.3-417-680.1 20.6c-33 1-58.9 27-58.9 59.2v289c0 12.4 5 23.9 13.9 32.4s20.7 13 33 12.4l741.6-35.1a42 42 0 0 0 40.5-41.5v-249.2a89 89 0 0 0-90-87.8" style="opacity:.85;fill:#fff"/><linearGradient id="f" x1="2400.7" x2="3046.3" y1="1060.3" y2="1060.3" gradientUnits="userSpaceOnUse"><stop offset="0" style="stop-color:#dbeafe"/><stop offset="1" style="stop-color:#eff6ff"/></linearGradient><path d="m3034.7 1037.3-623.2 23.3c-6.1.2-11 4.3-10.8 9l.3 5.5c.2 4.7 5.2 8.4 11.3 8.1l623.2-22.7c6.2-.3 11-4.3 10.8-9l-.3-6.1c-.2-4.7-5.2-8.3-11.3-8.1" style="fill:url(#f)"/><linearGradient id="g" x1="2345" x2="2990.5" y1="1218.4" y2="1218.4" gradientUnits="userSpaceOnUse"><stop offset="0" style="stop-color:#dbeafe"/><stop offset="1" style="stop-color:#eff6ff"/></linearGradient><path d="m2979 1195-623.3 23.3c-6.1.2-11 4.4-10.7 9.3l.2 5.7c.2 4.9 5.3 8.6 11.3 8.4l623.3-22.6c6.1-.2 11-4.4 10.7-9.4l-.2-6.2c-.2-4.9-5.3-8.6-11.4-8.4" style="fill:url(#g)"/><linearGradient id="h" x1="2345" x2="3064.6" y1="1286" y2="1286" gradientUnits="userSpaceOnUse"><stop offset="0" style="stop-color:#dbeafe"/><stop offset="1" style="stop-color:#eff6ff"/></linearGradient><path d="m3051.7 1261-694.7 26.3c-6.9.3-12.2 4.5-12 9.5l.2 5.7c.2 5 5.8 8.7 12.6 8.5l694.8-25.7c6.8-.2 12.2-4.5 12-9.5l-.3-6.3c-.2-5-5.8-8.7-12.6-8.4" style="fill:url(#h)"/><linearGradient id="i" x1="2347.7" x2="2699.8" y1="1148.4" y2="1148.4" gradientUnits="userSpaceOnUse"><stop offset="0" style="stop-color:#dbeafe"/><stop offset="1" style="stop-color:#eff6ff"/></linearGradient><path d="m2693 1130.3-339.7 10c-3.3 0-5.8 4.6-5.5 10.1l.3 6.4c.2 5.5 3.1 9.8 6.4 9.7l339.7-9.2c3.4-.1 5.9-4.7 5.6-10.2l-.3-7c-.3-5.5-3.2-9.9-6.5-9.8" style="fill:url(#i)"/><linearGradient id="j" x1="2741" x2="3073.8" y1="1136.3" y2="1136.3" gradientUnits="userSpaceOnUse"><stop offset="0" style="stop-color:#dbeafe"/><stop offset="1" style="stop-color:#eff6ff"/></linearGradient><path d="m3067.3 1118.6-321 9.2c-3.2 0-5.6 4.6-5.3 10.2l.3 6.3c.3 5.5 3 9.8 6.1 9.8l321.2-8.6c3.1 0 5.5-4.6 5.2-10.2l-.4-7c-.2-5.5-3-9.8-6.1-9.7" style="fill:url(#j)"/><linearGradient id="k" x1="7779.6" x2="7159.3" y1="3089.2" y2="3764" gradientTransform="translate(-6484.4)" gradientUnits="userSpaceOnUse"><stop offset="0" style="stop-color:#1e3a8a"/><stop offset="1" style="stop-color:#1e40af"/></linearGradient><path d="M1099.2 3139.5s-6.4 36.3-9.6 72.3a25 25 0 0 0 23.7 26.9c48 2 150.5 5.9 187.3 4.2a8 8 0 0 0 7.2-11 18 18 0 0 0-9.3-9.8l-169.4-77.8z" style="fill:url(#k)"/><linearGradient id="l" x1="7578.3" x2="7633.4" y1="3139.3" y2="3139.3" gradientTransform="translate(-6484.4)" gradientUnits="userSpaceOnUse"><stop offset="0" style="stop-color:#febbba"/><stop offset="1" style="stop-color:#ff928e"/></linearGradient><path d="m1094 3118 5 43.6s29.8 13.8 50-1.8l-12.3-48.4z" style="fill:url(#l)"/><linearGradient id="m" x1="7828.5" x2="7300.6" y1="2326.1" y2="3041.5" gradientTransform="translate(-6484.4)" gradientUnits="userSpaceOnUse"><stop offset="0" style="stop-color:#1e3a8a"/><stop offset="1" style="stop-color:#1e40af"/></linearGradient><path d="M1097.8 2300.2c-2.2 11.4-12 567 47.4 815.9 1 4-1 8.2-5 9.8-9 3.7-26.9 9.1-48.3 9.9-6.6.2-12.6-4.1-14.4-10.5-17-57.8-98.4-347.2-109-623.6-11.8-309 0-10.6 0-10.6l7-191z" style="fill:url(#m)"/><linearGradient id="n" x1="7640.5" x2="7020.1" y1="2961.2" y2="3636" gradientTransform="translate(-6484.4)" gradientUnits="userSpaceOnUse"><stop offset="0" style="stop-color:#1e3a8a"/><stop offset="1" style="stop-color:#1e40af"/></linearGradient><path d="M904.3 3158.4s-10.2 18.4-20.1 67.2a15 15 0 0 0 13.3 18.1c15.8 1.6 40.2 3.6 59.7 3.4 9 0 16-7.9 15-16.8-2.2-17.8-9-47-29.7-69.8z" style="fill:url(#n)"/><linearGradient id="o" x1="7379.7" x2="7427.3" y1="3136.5" y2="3136.5" gradientTransform="translate(-6484.4)" gradientUnits="userSpaceOnUse"><stop offset="0" style="stop-color:#febbba"/><stop offset="1" style="stop-color:#ff928e"/></linearGradient><path d="m895.3 3102.5 12.1 65.8s12 8.8 35.5 2.4l-5.7-70.8z" style="fill:url(#o)"/><linearGradient id="p" x1="7734.4" x2="7206.5" y1="2256.7" y2="2972.1" gradientTransform="translate(-6484.4)" gradientUnits="userSpaceOnUse"><stop offset="0" style="stop-color:#1e3a8a"/><stop offset="1" style="stop-color:#1e40af"/></linearGradient><path d="M862.8 2317.2c-48.6 293.2 10.5 724.5 30.4 809 1.2 5.1 5.4 9 10.7 10a88 88 0 0 0 38-1.6c5-1.4 8.4-5.9 8.6-11 2.7-68.3-2.1-487.4 43.1-653a38 38 0 0 1 14.5-20.7l87.9-62.5 6.7-100.9z" style="fill:url(#p)"/><linearGradient id="q" x1="1063.4" x2="1904.9" y1="1938.3" y2="488.5" gradientUnits="userSpaceOnUse"><stop offset="0" style="stop-color:#3b82f6"/><stop offset="1" style="stop-color:#2563eb"/></linearGradient><path d="M1172.2 1761.8c-145.5-2.4-306.1 38.3-306.1 38.3-43.4 253.1-7.6 545.1-7.6 545.1 112.7 29.6 239.8-18 239.8-18 18.7-105.9 106.1-403.7 106.1-403.7a480 480 0 0 0 178-56.4c-36.8-42.7-54.2-97-61.7-129a488 488 0 0 1-148.5 23.7" style="fill:url(#q)"/><linearGradient id="r" x1="-3067.8" x2="-2970.6" y1="1373.7" y2="1651.5" gradientTransform="matrix(-1 0 0 1 -1509 0)" gradientUnits="userSpaceOnUse"><stop offset="0" style="stop-color:#febbba"/><stop offset="1" style="stop-color:#ff928e"/></linearGradient><path d="M1602.2 1547.4c-14.3-17.2-32.4-9-32.4-9-21.4 90.4-133.7 163.8-249.1 199.6 7.5 32.1 24.9 86.4 61.7 129 191.4-107.6 219.8-319.6 219.8-319.6" style="fill:url(#r)"/><linearGradient id="s" x1="-3150.9" x2="-3053.7" y1="1402.8" y2="1680.6" gradientTransform="matrix(-1 0 0 1 -1509 0)" gradientUnits="userSpaceOnUse"><stop offset="0" style="stop-color:#febbba"/><stop offset="1" style="stop-color:#ff928e"/></linearGradient><path d="M1598.7 1551.8c1.5 4.8-15.8 12-26-7.4-.4-9.3-6-49.3-.5-56.9 29.7-40.4 87.2-91.1 87.2-91.1 9.7 9.6 1.7 19 1.7 19l-27.9 29c5.9 10.6 13 19.5 16.3 32.3 2.5 9.6 1 20-3.9 28.7a347 347 0 0 1-17.9 29.3c-12 17-29 17.1-29 17.1" style="fill:url(#s)"/><linearGradient id="t" x1="-3076.3" x2="-3149.5" y1="1580.3" y2="1432.6" gradientTransform="matrix(-1 0 0 1 -1509 0)" gradientUnits="userSpaceOnUse"><stop offset="0" style="stop-color:#febbba"/><stop offset="1" style="stop-color:#ff928e"/></linearGradient><path d="m1621 1463.3-25.4 21.6-8 21.4 22.7 25.2s7.6-42.6 13.3-51.8c5.6-9.2 2.7-13.7-2.6-16.4" style="fill:url(#t)"/><linearGradient id="u" x1="888.4" x2="1729.9" y1="1836.7" y2="386.9" gradientUnits="userSpaceOnUse"><stop offset="0" style="stop-color:#3b82f6"/><stop offset="1" style="stop-color:#2563eb"/></linearGradient><path d="m922 1941-56-141s-135.9 92.4-158.2 209.6c25.7 1.8 72.4 8.5 118.2 31.6 10-55.3 96-100.2 96-100.2" style="fill:url(#u)"/><linearGradient id="v" x1="7189" x2="7545.3" y1="2100.5" y2="2100.5" gradientTransform="translate(-6484.4)" gradientUnits="userSpaceOnUse"><stop offset="0" style="stop-color:#febbba"/><stop offset="1" style="stop-color:#ff928e"/></linearGradient><path d="M1040.7 2073.6s-152.6 86.3-204.1 12.6a58 58 0 0 1-10.6-45 322 322 0 0 0-118.2-31.6 162 162 0 0 0 17.5 110.8c90.3 165 335.6-9.1 335.6-9.1z" style="fill:url(#v)"/><path d="m1022.4 2182.8 83.3-291c1-3.3 3.8-5.7 7.2-6 15-1.8 58.8-6.8 109.3-11 60.8-5.2 131.5-9.4 173.7-5.8 6 .5 9.6 6.8 7 12.2-24 48.6-122.8 246.1-172.3 310.8a9 9 0 0 1-6.8 3.4l-193.3-1.8a8.5 8.5 0 0 1-8.1-10.8" style="fill:#93c5fd"/><path d="m1230.8 1849.5 60.4-10a4.3 4.3 0 0 1 4.9 5.6l-6 18.1a4 4 0 0 1-3.6 3l-58 7.7c-3 .4-5.6-2.3-4.9-5.3l3.7-15.8q.8-2.7 3.5-3.3" style="fill:#bfdbfe"/><path d="m1185.6 1900.6 5-25.9a6 6 0 0 1 5.3-4.8l122-12.4a6 6 0 0 1 6.4 7.4l-7.8 32.3a6 6 0 0 1-5.5 4.6l-119.2 6a6 6 0 0 1-6.2-7.2" style="fill:#bfdbfe"/><linearGradient id="w" x1="7518.8" x2="7629.8" y1="2063.1" y2="2063.1" gradientTransform="translate(-6484.4)" gradientUnits="userSpaceOnUse"><stop offset="0" style="stop-color:#febbba"/><stop offset="1" style="stop-color:#ff928e"/></linearGradient><path d="M1042.5 2112.5s-11.6-47.8-7-64.7c4.8-17 13.8-38.7 44-33.8 30.3 4.8 66 17.5 66 17.5s-1.8 22-24.8 15l14.2 11s-2 17.6-21.4 8.2l13.2 14.6s-8.3 14.5-22.6 5.2c-14.2-9.3-21 32.7-61.6 27" style="fill:url(#w)"/><linearGradient id="x" x1="7462.6" x2="7603.4" y1="1719.6" y2="1719.6" gradientTransform="translate(-6484.4)" gradientUnits="userSpaceOnUse"><stop offset="0" style="stop-color:#febbba"/><stop offset="1" style="stop-color:#ff928e"/></linearGradient><path d="m1024.8 1643.7-46.3 133.9c-.8 2.2.1 4.7 2.2 5.8 12.6 7 58.1 27.2 113-7.6 5.6-3.6 9.5-9.5 10.4-16.2l15-116z" style="fill:url(#x)"/><linearGradient id="y" x1="252.7" x2="200" y1="3487.2" y2="3313.6" gradientTransform="rotate(-41.8 -1732 1378.8)" gradientUnits="userSpaceOnUse"><stop offset="0" style="stop-color:#febbba"/><stop offset="1" style="stop-color:#ff928e"/></linearGradient><path d="M1125.6 1519.6s50.8 95.8 44.3 134.4-69.5 36-124.6 4.5l-38.4-103.3z" style="fill:url(#y)"/><linearGradient id="z" x1="205.2" x2="249.2" y1="3184.7" y2="3435.8" gradientTransform="rotate(-41.8 -1732 1378.8)" gradientUnits="userSpaceOnUse"><stop offset="0" style="stop-color:#1e3a8a"/><stop offset="1" style="stop-color:#1e40af"/></linearGradient><path d="M1047.8 1607.8a4 4 0 0 0 1.7-5.8 103 103 0 0 1-14.2-30s-9.1-5.9 23.3-13.7 80.8-19.8 91-47.4c9.8-26.8-16.2-94.5-57.7-40.6a4 4 0 0 1-6.3 0c-6.8-8.8-24.7-27.2-49.5-16-23.3 10.4-25.9 27.4-25.6 36a4 4 0 0 1-4.6 4c-11.8-2.2-40-4.1-53.2 24.8-10.8 23.8-3.8 37.3 2.7 44a4 4 0 0 1-1.7 6.5c-7.7 2.3-17.7 8.9-16.7 27 1.4 25 29.3 22.8 37.3 21.6a4 4 0 0 1 3.5 1.3c6.8 7.5 37.6 39.6 71 43.5a4 4 0 0 0 4-5.3l-14.3-41.9a4 4 0 0 1 2.1-4.9z" style="fill:url(#z)"/><linearGradient id="A" x1="198.8" x2="151.5" y1="3486.4" y2="3330.2" gradientTransform="rotate(-41.8 -1732 1378.8)" gradientUnits="userSpaceOnUse"><stop offset="0" style="stop-color:#febbba"/><stop offset="1" style="stop-color:#ff928e"/></linearGradient><path d="M1053.6 1613.7s-36.3-24.8-38.9-4c-2.6 21 32.6 30.4 50 22.6z" style="fill:url(#A)"/></svg>