<svg xmlns="http://www.w3.org/2000/svg" xml:space="preserve" viewBox="0 0 2475 1650"><linearGradient id="a" x1="210.2" x2="2305.5" y1="839.8" y2="839.8" gradientUnits="userSpaceOnUse"><stop offset="0" style="stop-color:#dbeafe"/><stop offset="1" style="stop-color:#eff6ff"/></linearGradient><path d="M2246.2 905C2210 868 2167 832 2155.7 782c-19.3-86.6 63.5-160.4 90.7-245 18.7-58.5 9-125.1-25.6-176.2a215 215 0 0 0-156-91c-107.2-9.7-212.2 61-317.8 40.6-84.6-16.4-151.4-88.9-237.3-96.6-101-9.2-184.9 72.6-281.3 103.3-115.4 36.8-240.6-1.6-354-43.8S641.6 184 522 204.2c-133.2 22.5-244.8 136.1-262.6 267.3-17.6 130 130.4 234.5 4.4 390.6-39.4 48.8-65.6 116.7-48.2 176.5 17 58.2 89 95 89.4 155.4.4 47.7-45.5 85.6-49.2 133.2-3.1 40.8 26.8 78.6 63.7 98 36.8 19.3 79.5 24 121 28.4-2.3 2.5-3 6-1.6 9s4.4 5.2 8 5.5c203.1 16.6 407.5 12.6 611.4 8.6l994-19.5c34-.6 68.9-1.5 100.6-13.6 31.8-12.1 60.2-38 65-71.1 8.3-56.2-51.7-105-46.2-161.6 7.1-72.2 110.9-100 130.6-169.9 14-49.4-19.7-99.2-56-136" style="fill:url(#a)"/><path d="M1233 1458.8s-149.5-204.8-125.2-398.5 145.7-170.5 199.6-56 102.6 98.8 70.5-8.9c-32-107.6-72.3-177.7-5.8-284.9s73.4-152.7 36-248.3c-37.3-95.6-84.2-231 64.4-279.4s296.6 100.2 262 294.5S1679 693 1726.7 765s27.9 101.6 21.1 148.5c-6.8 46.8 66.2 57.8 64.6-8.2-1.5-66-94.3-221.8-31-294.5s187.4-73.5 219.2 94.6-70 243.6-65 304.4 59.8-31.4 107.4 30.6-16.5 110.6-63.7 144.2-118.3 93.7-50.6 137.4 131.8 2 90.3 136.9z" style="fill:#bfdbfe"/><linearGradient id="b" x1="1520.5" x2="1641.6" y1="855.5" y2="855.5" gradientUnits="userSpaceOnUse"><stop offset="0" style="stop-color:#dbeafe"/><stop offset="1" style="stop-color:#eff6ff"/></linearGradient><path d="M1540.4 323q7.3 4.3 13.4 10.1t11.5 12.5q10.8 13.6 18.3 29.7c9.9 21.4 15.2 45.2 17 69q.4 4.5.5 9 .2 4.5.2 9v9l-.4 9-.2 4.4-.4 4.4-.9 9q-1 8.8-2.4 17.6t-3.3 17.4l-1.8 8.7-1.9 8.4-7.6 33.4a2551 2551 0 0 0-27.5 134c-7.5 44.8-12.6 90.1-11.5 134.9a348 348 0 0 0 8 65.7q3.7 16 9.6 31c4.4 11.2 7.9 23 10.6 34.5 5.1 23.2 8.1 46.5 10.4 69.6q3.4 34.7 5.4 69.3c2.9 46 5.4 91.9 11.5 137.1q1 8.5 2.5 17 1.4 8.3 3 16.7t3.6 16.7l2.1 8.2q1 4.1 2.3 8.1l2.5 8.1 2.9 8c1.8 5.3 4.2 10.3 6.3 15.5q7.3 15.2 17.5 28.1l-1.7 1.9a144 144 0 0 1-20-27.5q-8.2-15-14-31.5c-8-21.8-13.2-44.5-17.5-67.2-8.6-45.7-12.7-91.9-17.3-137.7-2.4-22.9-4.5-45.7-7.4-68.3-2.8-22.6-6.4-45-11.8-66.5q-4.1-16-10-30.8-7-16.6-11.4-34.2t-6.7-35.3a375 375 0 0 1-3-35.6 719 719 0 0 1 10.9-140.3c7.4-46 17.5-91 28.7-135.7q4.3-16.7 8.7-33.4l2.2-8.3 2-8q2-8.3 3.7-16.4c1.3-5.4 2-10.9 3.1-16.4l1.2-8.2q.7-4.1 1-8.3 2-16.5 1.9-33.2a207 207 0 0 0-10.4-65.2 164 164 0 0 0-14-29.7 109 109 0 0 0-20.6-25.1z" style="fill:url(#b)"/><path d="M1222.1 1016.8a1179 1179 0 0 0 31.5 160.4q1.7 6.6 3.7 13l3.8 13q3.9 13 8.2 25.7 4.4 12.8 9.1 25.4t9.9 25q10.4 24.7 22.7 48.3a539 539 0 0 0 27 45.7 493 493 0 0 0 32 42l-1.6 1.9a304 304 0 0 1-36.5-38.7 420 420 0 0 1-54.6-93.7c-3.5-8.4-7.2-16.8-10.3-25.4q-4.8-12.8-9.2-25.9t-8.1-26.3l-3.7-13.3q-1.8-6.6-3.4-13.3a755 755 0 0 1-11.4-54 727 727 0 0 1-11.5-109.7z" style="opacity:.62;fill:#fff"/><linearGradient id="c" x1="1211.3" x2="970.8" y1="862.8" y2="313.6" gradientUnits="userSpaceOnUse"><stop offset="0" style="stop-color:#fe7062"/><stop offset="1" style="stop-color:#ff928e"/></linearGradient><path d="M1823.8 943.3c-13.2 301.2-287.4 533.7-612.5 519.5-325-14.3-577.8-270-564.6-571.1S934 358 1259.2 372.2c325 14.3 577.8 270 564.6 571.1" style="fill:url(#c)"/><g style="opacity:.68"><path d="M1386.2 920.1q0 72.4-5.6 144.4t-18.2 143.3a1042 1042 0 0 1-15.2 70.7 681 681 0 0 1-21.3 69.2 328 328 0 0 1-31.8 65.2 130 130 0 0 1-23.8 27.8 68 68 0 0 1-15.6 10 47 47 0 0 1-36.7 1 64 64 0 0 1-16-9.6 124 124 0 0 1-24.4-27.3 318 318 0 0 1-32.2-65 666 666 0 0 1-21.5-69.1q-9-35.1-15.3-70.7c-8.7-47.4-14.6-95.2-18.6-143.2q-6-72-6.3-144.4 0-36.1 1.5-72.2 1.3-36 4-72.1 5.2-72.1 16.9-143.5 5.9-35.7 14.2-70.9a682 682 0 0 1 20.2-69.4c8.1-22.7 17.6-45 30.8-65.5a119 119 0 0 1 23.8-27.4q7.2-6 15.8-9.5a44 44 0 0 1 36 1 70 70 0 0 1 15.5 9.7c9.5 7.7 17.4 17.1 24.3 27 13.9 20 24.3 41.9 33.4 64.2q13.3 33.7 22.9 68.6a988 988 0 0 1 16.6 70.4q13.9 70.9 20.2 143t6.4 144.3m-8 0q.2-72-5.7-143.7c-3.9-47.8-9.8-95.4-18.7-142.5q-6.5-35.4-15.6-70.2a654 654 0 0 0-21.9-68.4 322 322 0 0 0-32.2-63.9 130 130 0 0 0-23.4-26.7q-6.8-5.6-14.9-9.5-8-3.8-16.9-4.1t-17 3.2a58 58 0 0 0-15 9.2 116 116 0 0 0-22.9 27.1 311 311 0 0 0-29.7 65 677 677 0 0 0-19.1 69.3q-7.9 35-13.3 70.6c-14.6 94.9-19.3 191-19 286.9q-.3 72 5 143.7 5 72 17.2 142.8 6.2 35.4 14.7 70.3a660 660 0 0 0 20.7 68.7c8.3 22.4 18 44.4 31.1 64.2 6.6 9.8 14.1 19.2 23.2 26.5q6.8 5.7 14.8 9a41 41 0 0 0 33.3-.9q7.8-3.7 14.5-9.5c8.9-7.6 16.2-17 22.7-27 12.9-20 22.4-42 30.6-64.4a675 675 0 0 0 20.5-68.8q8.5-34.8 14.5-70.4c8.2-47.2 13.6-94.9 17.2-142.7q5.3-71.7 5.3-143.8" style="fill:#fff"/><path d="M1629 920.1c-.3 62-8.2 124.1-24.9 184a592 592 0 0 1-77 168.6 447 447 0 0 1-131.2 130.1 349 349 0 0 1-84.4 38.6c-29.7 9-60.7 13.6-91.8 13.7s-62-4.7-91.8-13.6q-44.7-13.6-84.5-38.5A448 448 0 0 1 912 1272.9a593 593 0 0 1-77.2-168.7q-12.5-45-18.8-91.2a730 730 0 0 1-6.3-92.9q.3-46.6 6.4-92.8A667 667 0 0 1 835 736c17-59.7 42.7-117 77.4-168.5 34.6-51.4 78.7-97 131.4-130a351 351 0 0 1 84.4-38.3c29.7-9 60.6-13.6 91.6-13.6s62 4.7 91.6 13.7q44.7 13.6 84.4 38.4c52.6 33 96.6 78.6 131.2 130a592 592 0 0 1 77.1 168.5 702 702 0 0 1 25 183.8m-9 0c-.1-61.2-7.7-122.5-23.9-181.6a589 589 0 0 0-74.3-167.4 480 480 0 0 0-57.3-71.7c-21.4-21.9-45-41.7-71-58.2a343 343 0 0 0-83.2-38.5c-29.3-9-59.9-13.6-90.6-13.7-30.6.1-61.3 4.8-90.6 13.8S1072 425 1046 441.4a400 400 0 0 0-70.8 58.2 480 480 0 0 0-57.2 71.8 588 588 0 0 0-74 167.2q-12.1 44.5-17.9 90-6 45.6-6 91.5.1 46 6 91.6t18 90c16.1 59 40.5 115.9 74.1 167a479 479 0 0 0 57.2 71.7c21.4 21.9 45 41.7 70.8 58.1a344 344 0 0 0 83.1 38.5c29.2 9 59.8 13.7 90.4 13.8a315 315 0 0 0 90.5-13.7 344 344 0 0 0 83.1-38.4 399 399 0 0 0 71-58.1q32-33.1 57.3-71.6a589 589 0 0 0 74.4-167.2 694 694 0 0 0 24-181.7" style="fill:#fff"/><path d="m742.6 708.5 122.8-1.1 122.8-.6q61.4-.4 122.8-.4l122.8-.1 245.5.5 122.8.7 122.8 1.2a.4.4 0 0 1 0 .8l-122.8 1.2-122.8.7-245.5.6-122.8-.2q-61.5 0-122.8-.4l-122.8-.6-122.8-1a.6.6 0 0 1 0-1.3M885 502.8q43.7-.6 87.2-1l87.2-.7q43.5-.3 87.2-.3l87.2-.2 87.1.2q43.7 0 87.2.4l87.2.6q43.5.6 87.2 1.2a.4.4 0 0 1 0 .9q-43.5.6-87.2 1.1l-87.2.7q-43.5.4-87.2.4l-87.1.2-87.2-.2q-43.5 0-87.2-.3l-87.2-.6q-43.5-.4-87.1-1.2a.6.6 0 0 1 0-1.2M700 914.2l133.4-1.1 133.5-.7 266.9-.5 266.9.6 133.4.7 133.5 1.2a.4.4 0 0 1 0 .8l-133.5 1.2-133.4.7-267 .5-266.8-.5-133.5-.6-133.5-1.1a.6.6 0 0 1 0-1.2M742.6 1119.8l122.8-1 122.8-.7q61.4-.4 122.8-.3l122.8-.2 245.5.5 122.8.7 122.8 1.2a.4.4 0 0 1 0 .8l-122.8 1.2-122.8.7-245.5.6-122.8-.2q-61.5 0-122.8-.3l-122.8-.7-122.8-1a.6.6 0 0 1 0-1.3M1600 1328.2H902.6a2.1 2.1 0 1 1 0-4.2H1600a2.1 2.1 0 1 1 0 4.2" style="fill:#fff"/></g><linearGradient id="d" x1="1615.6" x2="1666.5" y1="532.3" y2="585.4" gradientUnits="userSpaceOnUse"><stop offset="0" style="stop-color:#2563eb"/><stop offset="1" style="stop-color:#2563eb"/></linearGradient><path d="M1601.4 504.8s-14 .8-15.7 29.6c0 0 32.5 29.2 76.4 36.1 3.3.6-4.6-22.5-5.8-25.6-5.6-14.8-23.4-24.4-54.9-40" style="fill:url(#d)"/><linearGradient id="e" x1="1537.1" x2="1590.1" y1="479.6" y2="280.2" gradientUnits="userSpaceOnUse"><stop offset="0" style="stop-color:#1e3a8a"/><stop offset="1" style="stop-color:#1e40af"/></linearGradient><path d="M1443.4 471h29.7s90.8-100.4 150.4-110.6c0 0 41.5 53-2.2 152-3.5 7.9-13.4 11.4-20.7 6.7a12 12 0 0 1-4.7-5.6l3.5-84.5s-77.5 67.8-91 80.9c-13.4 13-82 5.1-65-39" style="fill:url(#e)"/><linearGradient id="f" x1="1698.5" x2="1686.5" y1="653.1" y2="718.4" gradientUnits="userSpaceOnUse"><stop offset="0" style="stop-color:#1e3a8a"/><stop offset="1" style="stop-color:#1e40af"/></linearGradient><path d="M1729.6 681.6A111 111 0 0 0 1669 655l-9.6 6s6.1 9 17.4 18.6c10.3 6 26.3 14.1 39.5 15.9 12.8 1.7 14.7-6 13.4-14" style="fill:url(#f)"/><linearGradient id="g" x1="1638.6" x2="1690" y1="574" y2="678" gradientUnits="userSpaceOnUse"><stop offset="0" style="stop-color:#2563eb"/><stop offset="1" style="stop-color:#2563eb"/></linearGradient><path d="M1656.3 545c-7.6 2.4-11 13.2-30.3 6-18.8-6.9-32.8-15.8-40-21l-.3 4.4s34.3 32.7 78.2 39.6c3.3.5 6-2.8 4.7-5.9-2-5.6-6-14-12.3-23.2" style="fill:url(#g)"/><linearGradient id="h" x1="1718.8" x2="1829.5" y1="700.6" y2="855.3" gradientUnits="userSpaceOnUse"><stop offset="0" style="stop-color:#2563eb"/><stop offset="1" style="stop-color:#2563eb"/></linearGradient><path d="M1739 690.9q-3.7-4.3-9.4-9.3c1.3 7.8-.6 15.6-13.4 13.9a122 122 0 0 1-39.5-16c13 11.1 32.6 22.8 57.5 22.2a6.5 6.5 0 0 0 4.8-10.8" style="fill:url(#h)"/><linearGradient id="i" x1="1622.7" x2="1598.7" y1="423.3" y2="466.6" gradientUnits="userSpaceOnUse"><stop offset="0" style="stop-color:#1e3a8a"/><stop offset="1" style="stop-color:#1e40af"/></linearGradient><path d="m1444.5 492.3 138.7 1.5s79.1 65.5 93.5 165.4c0 0 2.4 7.3-12 8.6 0 0-47.8-31.3-79-86.5-38.3-67.8-99.8-43.6-99.8-43.6-74.7 25.5-100.3-12.3-101-21.3z" style="fill:url(#i)"/><linearGradient id="j" x1="1508.1" x2="1442.8" y1="420.2" y2="544.2" gradientUnits="userSpaceOnUse"><stop offset="0" style="stop-color:#ff928e"/><stop offset="1" style="stop-color:#feb3b1"/></linearGradient><path d="M1447.8 380.7s15 74.8 88 104.3l26-3 6.2 9.8-61 1.9s-52.2-20.7-79.8-77c-1-1.8-16.1-33.2 20.6-36" style="fill:url(#j)"/><linearGradient id="k" x1="1452.8" x2="1121.6" y1="320.9" y2="754" gradientUnits="userSpaceOnUse"><stop offset="0" style="stop-color:#2563eb"/><stop offset="1" style="stop-color:#3b82f6"/></linearGradient><path d="M1455.8 491.1s-17-46.1-20.6-91c0 0 12.4-10.6 20.2-15.2a5.6 5.6 0 0 0 2.1-7.3c-5.7-11.8-40.2-58.2-42.7-58.9-14-3.5-71.7-30.9-112.3 24.6-17.4 23.9 3.5 97.2 82.5 173.1l2.6.5a40 40 0 0 0 26-3.8z" style="fill:url(#k)"/><linearGradient id="l" x1="1503" x2="1479.7" y1="383.7" y2="427.7" gradientUnits="userSpaceOnUse"><stop offset="0" style="stop-color:#ff928e"/><stop offset="1" style="stop-color:#feb3b1"/></linearGradient><path d="M1390.4 410.3s47.2 55.8 107.4 64c0 0 15.6-14.3 27.2-9.2 11.6 5 27.5 27.5 27.5 27.5H1475s-73.2-2.6-109.8-47c3-15.5 11.8-24.8 25.1-35.3" style="fill:url(#l)"/><linearGradient id="m" x1="1378.7" x2="1362.7" y1="289" y2="364.3" gradientUnits="userSpaceOnUse"><stop offset="0" style="stop-color:#ff928e"/><stop offset="1" style="stop-color:#feb3b1"/></linearGradient><path d="m1363 279.6-10.4 34.4c-.5 1.6.1 3.3 1.5 4.2 5 3.4 18 10.2 35.7 3.6 2-.8 3.4-2.7 3.6-4.8l2.5-30z" style="fill:url(#m)"/><linearGradient id="n" x1="1386.2" x2="1389.5" y1="185.2" y2="270.5" gradientUnits="userSpaceOnUse"><stop offset="0" style="stop-color:#ff928e"/><stop offset="1" style="stop-color:#feb3b1"/></linearGradient><path d="M1423.3 251.7s-5 35.7-18.8 46.7c-13.7 11-40.4 2.7-49.4-24.2l18-46z" style="fill:url(#n)"/><linearGradient id="o" x1="1378.2" x2="1397.9" y1="161.3" y2="273.6" gradientUnits="userSpaceOnUse"><stop offset="0" style="stop-color:#1e3a8a"/><stop offset="1" style="stop-color:#1e40af"/></linearGradient><path d="M1371 258c1.1.3 2.2-.4 2.4-1.5a46 46 0 0 1 4.2-14.2s-1.3-4.7 11.8 2.4 32.9 17.4 44.5 11.3c11.3-6 22.8-36.4-7.1-30.8-1.2.2-2.2-.7-2.1-1.8.3-5-.2-16.5-11.8-20.2-10.9-3.4-16.8 1.5-19.3 4.4-.7 1-2 .9-2.7 0-3.3-4.3-12.1-13.3-25.1-7.6-10.7 4.8-12.4 11.4-12.2 15.5 0 1.3-1.3 2.2-2.5 1.7-3.3-1.6-8.6-2.3-13.7 4-7 8.8 3 16.4 6 18.4q.8.5.8 1.4c0 4.6.8 24.5 10.7 35.7.9 1 2.5.7 3-.5l7.7-18.3c.3-.9 1.3-1.3 2.1-1z" style="fill:url(#o)"/><linearGradient id="p" x1="1361.2" x2="1364.6" y1="186.1" y2="271.5" gradientUnits="userSpaceOnUse"><stop offset="0" style="stop-color:#ff928e"/><stop offset="1" style="stop-color:#feb3b1"/></linearGradient><path d="M1371.2 261.7s-4.7-19.1-11.8-13c-7 6.3 1.9 20 10 22.5z" style="fill:url(#p)"/><path d="m1548.6 496.9 34.7-115.9c1.4-4.7 5.6-8 10.6-8.4l46.9-3.2a6.7 6.7 0 0 1 6.7 8.8L1608.7 489a10 10 0 0 1-8.2 6.5l-46.2 5.1z" style="fill:#60a5fa"/><path d="M1554.3 500.5h-.3l-98.4-5a4.4 4.4 0 1 1 .4-8.8l98.5 5a4.4 4.4 0 0 1-.2 8.8" style="fill:#60a5fa"/><linearGradient id="q" x1="1439" x2="1434.3" y1="236.4" y2="319.7" gradientUnits="userSpaceOnUse"><stop offset="0" style="stop-color:#1e3a8a"/><stop offset="1" style="stop-color:#1e40af"/></linearGradient><path d="M1435.2 401a1 1 0 0 1-.9-.8c0-20.6-7.9-47.9-8-48.2a.9.9 0 1 1 1.7-.5c.1.3 8.1 27.8 8 48.7q0 .7-.8.8" style="fill:url(#q)"/><linearGradient id="r" x1="1384.5" x2="1379.8" y1="233.3" y2="316.6" gradientUnits="userSpaceOnUse"><stop offset="0" style="stop-color:#1e3a8a"/><stop offset="1" style="stop-color:#1e40af"/></linearGradient><path d="m1390.4 411.1-.7-.3c-.2-.3-21.7-27.6-29.1-46.4a.9.9 0 1 1 1.6-.7c7.3 18.6 28.7 45.7 29 46a1 1 0 0 1-.8 1.4" style="fill:url(#r)"/><linearGradient id="s" x1="1347.3" x2="1342.7" y1="231.2" y2="314.6" gradientUnits="userSpaceOnUse"><stop offset="0" style="stop-color:#1e3a8a"/><stop offset="1" style="stop-color:#1e40af"/></linearGradient><path d="m1360.1 453-.6-.3c-31.2-13.3-50.5-50.5-50.6-51a.9.9 0 0 1 1.5-.7c.2.4 19 36.5 49.1 49.8l3.2-4.4q.5-.6 1.2-.2.6.5.2 1.2z" style="fill:url(#s)"/><linearGradient id="t" x1="1212.9" x2="1105.5" y1="855.7" y2="1301.4" gradientUnits="userSpaceOnUse"><stop offset="0" style="stop-color:#2563eb"/><stop offset="1" style="stop-color:#3b82f6"/></linearGradient><path d="M818.7 1060.5A90 90 0 0 1 731 978l-8.3-103.8c-2-24.8 6.1-49 22.3-66.6a80 80 0 0 1 59.6-26l810.3-1.5a79 79 0 0 1 62.6 28.5 84 84 0 0 1 16 70.3l-22.2 108.8c-9.3 45.3-53.3 80.7-100.4 80.7z" style="fill:url(#t)"/><linearGradient id="u" x1="1209" x2="1209" y1="257" y2="689" gradientUnits="userSpaceOnUse"><stop offset="0" style="stop-color:#2563eb"/><stop offset="1" style="stop-color:#3b82f6"/></linearGradient><path d="m1615 801.2-810.3 1.5c-36.8 0-64 32-61 70l8.4 103.7a69 69 0 0 0 66.8 63l751.4 8c37 .5 73-27.4 80.4-63.8l22.2-108.8c8.1-39.9-17.7-73.6-57.8-73.6" style="fill:url(#u)"/><linearGradient id="v" x1="812.5" x2="993.7" y1="927.7" y2="927.7" gradientUnits="userSpaceOnUse"><stop offset="0" style="stop-color:#dbeafe"/><stop offset="1" style="stop-color:#eff6ff"/></linearGradient><path d="m992.8 876-37.4 114.3h-.1a16 16 0 0 1-11 10.8h-.2l-.6.1h-.3l-.4.2h-3.6l-.4-.2h-.3l-.6-.1h-.1a16 16 0 0 1-11.2-10.8l-23.6-72-23.5 72a16 16 0 0 1-11 10.8h-.2l-.6.1h-.3l-.5.2h-3.5l-.4-.2h-.3l-.6-.1h-.2a16 16 0 0 1-11.2-10.8l-37.4-114.2v-.3q-.8-2.7-.8-5.5c0-6.8 4-13 10.1-15.3q2.3-.8 4.6-.7c6.3 0 12.4 4.4 14.4 11.3l23.6 71.7 23.4-71.7c1.6-5 5-8.5 9.1-10.3l.2-.2.4-.1h.2l.3-.1h.2q.3-.3.5-.2l.1-.1q.4 0 .6-.2h.2l.6-.1h.8q.4 0 .6-.2h1.4q.2.3.4.2h.9l.7.1.6.2.2.1q.3 0 .5.2h.3l.3.1h.2l.4.1.2.2c4 1.8 7.5 5.3 9.1 10.3l23.4 71.7 23.4-71.7c2.2-7 8.3-11.3 14.6-11.3q2.2-.1 4.6.7a16 16 0 0 1 10.1 15.3q0 2.8-.9 5.5z" style="fill:url(#v)"/><linearGradient id="w" x1="1001.1" x2="1182.4" y1="927.7" y2="927.7" gradientUnits="userSpaceOnUse"><stop offset="0" style="stop-color:#dbeafe"/><stop offset="1" style="stop-color:#eff6ff"/></linearGradient><path d="M1181.5 876 1144 990.4h-.2a16 16 0 0 1-11 10.8h-.2l-.5.1h-.3l-.5.2h-3.5l-.5-.2h-.3l-.5-.1h-.2a16 16 0 0 1-11.2-10.8l-23.5-72-23.6 72a16 16 0 0 1-11 10.8h-.2l-.6.1h-.3l-.4.2h-3.6l-.4-.2h-.3l-.6-.1h-.1a16 16 0 0 1-11.2-10.8L1002 876.1v-.3q-.9-2.7-.9-5.5c0-6.8 4-13 10.2-15.3q2.2-.8 4.5-.7c6.4 0 12.4 4.4 14.5 11.3.1.3 13 39.3 23.5 71.7l23.4-71.7c1.6-5 5-8.5 9.2-10.3l.1-.2.4-.1h.2l.3-.1h.3q.2-.3.4-.2l.2-.1q.4 0 .6-.2h.1l.6-.1h.9q.4 0 .6-.2h1.3q.2.3.4.2h.9l.8.1q.3.3.5.2l.2.1q.4 0 .6.2h.3l.3.1h.1l.5.1.1.2c4.1 1.8 7.5 5.3 9.1 10.3l23.4 71.7 23.5-71.7c2.2-7 8.2-11.3 14.5-11.3q2.3-.1 4.6.7a16 16 0 0 1 10.2 15.3q0 2.8-1 5.5z" style="fill:url(#w)"/><linearGradient id="x" x1="1189.7" x2="1371" y1="927.7" y2="927.7" gradientUnits="userSpaceOnUse"><stop offset="0" style="stop-color:#dbeafe"/><stop offset="1" style="stop-color:#eff6ff"/></linearGradient><path d="m1370.1 876-37.4 114.3h-.1a16 16 0 0 1-11 10.8h-.2l-.6.1h-.3l-.4.2h-3.6l-.4-.2h-.3l-.6-.1h-.1a16 16 0 0 1-11.2-10.8l-23.6-72-23.6 72a16 16 0 0 1-11 10.8h-.2l-.5.1h-.3l-.5.2h-3.5l-.5-.2h-.2l-.6-.1h-.2a16 16 0 0 1-11.2-10.8l-37.4-114.2v-.3q-.9-2.7-.9-5.5c0-6.8 4-13 10.2-15.3q2.2-.8 4.6-.7c6.3 0 12.3 4.4 14.4 11.3l23.6 71.7 23.4-71.7c1.6-5 5-8.5 9.1-10.3l.1-.2.5-.1h.1l.3-.1h.3q.3-.3.5-.2l.1-.1q.5 0 .6-.2h.2l.5-.1h.9q.5 0 .6-.2h1.3q.3.3.5.2h.9l.7.1.6.2.1.1q.5 0 .6.2h.3l.3.1h.2l.4.1.1.2c4.2 1.8 7.6 5.3 9.2 10.3l23.4 71.7 23.4-71.7c2.2-7 8.3-11.3 14.6-11.3q2.2-.1 4.5.7a16 16 0 0 1 10.2 15.3q0 2.8-.9 5.5z" style="fill:url(#x)"/><linearGradient id="y" x1="1397.5" x2="1410.2" y1="916.2" y2="916.2" gradientUnits="userSpaceOnUse"><stop offset="0" style="stop-color:#dbeafe"/><stop offset="1" style="stop-color:#eff6ff"/></linearGradient><path d="M1410.2 1003.6c0 3.5-2.9 6.3-6.4 6.3a6.3 6.3 0 0 1-6.3-6.3V828.7a6.3 6.3 0 0 1 12.6 0z" style="fill:url(#y)"/><linearGradient id="z" x1="1487" x2="1748" y1="1017.6" y2="1017.6" gradientUnits="userSpaceOnUse"><stop offset="0" style="stop-color:#dbeafe"/><stop offset="1" style="stop-color:#eff6ff"/></linearGradient><path d="m1744.5 1149.2-94.3-115a3.4 3.4 0 0 1 1.8-5.5l83.3-20a8.7 8.7 0 0 0 2.6-15.8l-237.6-150.2a8.7 8.7 0 0 0-13.2 8.8l49.4 298.3a8.7 8.7 0 0 0 16 3l46.1-77.3a3.4 3.4 0 0 1 5.6-.4l87.8 112.7c5 6.4 14.3 7.9 21 3.3l28.2-19.2a15.5 15.5 0 0 0 3.3-22.7" style="fill:url(#z)"/><path d="M683.5 1335a169 169 0 0 1 10.2-112.7 120 120 0 0 0 6.6-90q-1.5-4.5-2.7-9.5c-11.8-49.4 9-96.8 46.3-105.7 37.4-9 77.3 24 89 73.4q3.6 15.1 3.4 29.7c-.6 30.7 10 60.8 30.7 83.5 18.5 20.3 32.9 47 40.2 77.9 11 46 4 90.9-16 123.4-7.5 12.3-12.8 26-15.4 40.1-4.4 23.6-19.2 42.4-40.2 47.4-22.6 5.4-46.1-6.8-60.5-28.8a126 126 0 0 0-30.6-32c-28.3-21-51-55.1-61-96.7" style="fill:#93c5fd"/><path d="M743.4 1072.8q4.7 50.8 11.3 101.3 1.6 12.6 3.5 25.2l1.8 12.6 1.9 12.6 3.9 25.2 4.1 25.2q4.4 25 9.2 50 2.4 12.7 5 25l5.3 25q11 49.8 25.6 98.6l1.4-.4-6.5-24.6-1.6-6.1-1.5-6.2-3-12.4-3-12.3-2.7-12.5q-2.8-12.3-5.4-24.8-10.2-50-18.7-100-4.2-25.2-8.1-50.3l-2-12.5-1.9-12.6-3.6-25.2q-3.7-25.2-7-50.4-3.4-25.2-6.6-50.5z" style="fill:#bfdbfe"/><path d="M694.8 1441.8a95 95 0 0 1-19-60.5c1-17.4-4.6-34.6-16-47.9l-3.4-4.3c-16.8-23-16.2-52 1.1-64.6s45-4.2 61.8 18.8q5.1 7.2 8 14.7a68 68 0 0 0 34 36.6c13.8 6.5 27 17.3 37.4 31.6a93 93 0 0 1 18.4 67.3q-1.9 12 .6 24c2.8 13.1-.8 26-10.5 33-10.5 7.7-25.3 6.5-37.4-1.8q-10.6-7-22.7-10a95 95 0 0 1-52.3-37" style="fill:#bfdbfe"/><linearGradient id="A" x1="669.2" x2="793.1" y1="1389.1" y2="1389.1" gradientUnits="userSpaceOnUse"><stop offset="0" style="stop-color:#dbeafe"/><stop offset="1" style="stop-color:#eff6ff"/></linearGradient><path d="M669.2 1293.4q13.3 25.3 27.7 50l7.2 12.2 3.7 6.2 3.6 6 7.5 12.3 7.5 12q7.7 12 15.6 24l7.9 11.9 8.1 11.7q16.4 23.4 34.5 45.5l.6-.5-8.7-11.3-2.1-2.9-2.1-2.8-4.2-5.8-4.2-5.8-4-5.8-8.2-11.7q-16-23.5-31.2-47.7l-15-24.2-3.8-6-3.6-6.2q-3.8-6-7.3-12.2A1876 1876 0 0 1 670 1293z" style="fill:url(#A)"/><path d="M2052 1337h13.8v149.5H2052z" style="fill:#60a5fa"/><path d="M2119.5 1489.4h-121.1v-6.6c0-1.3 1.1-2.4 2.5-2.4h116c1.4 0 2.6 1.2 2.6 2.6zM2142.4 1331.5c0 8.7-7.2 15.8-15.8 15.8h-130.2c-8.7 0-15.8-7.1-15.8-15.8v-14.3c0-8.7 7.1-15.8 15.8-15.8h130.2c8.6 0 15.8 7.1 15.8 15.8z" style="fill:#60a5fa"/><linearGradient id="B" x1="-244.8" x2="-269.2" y1="1251.8" y2="1299.8" gradientTransform="rotate(12.5 373 8942.4)scale(-1 1)" gradientUnits="userSpaceOnUse"><stop offset="0" style="stop-color:#1e3a8a"/><stop offset="1" style="stop-color:#1e40af"/></linearGradient><path d="M1936.4 1441.1s-44.7 19.2-42.1 39.4c0 0 46.2-8.9 54.4-22 8.3-13.3 3.7-21 3.7-21z" style="fill:url(#B)"/><linearGradient id="C" x1="-291.2" x2="-266.9" y1="1270.9" y2="1270.9" gradientTransform="rotate(12.5 373 8942.4)scale(-1 1)" gradientUnits="userSpaceOnUse"><stop offset="0" style="stop-color:#ff928e"/><stop offset="1" style="stop-color:#feb3b1"/></linearGradient><path d="m1947.3 1419.1 2.3 19.6c.4 3-1.3 5.9-4 6.9a17 17 0 0 1-5.8.9 8 8 0 0 1-7.3-5.5l-4.4-16z" style="fill:url(#C)"/><linearGradient id="D" x1="-324.9" x2="-221.6" y1="1206.6" y2="1061.8" gradientTransform="rotate(12.5 373 8942.4)scale(-1 1)" gradientUnits="userSpaceOnUse"><stop offset="0" style="stop-color:#1e3a8a"/><stop offset=".2" style="stop-color:#1e40af"/><stop offset=".7" style="stop-color:#1e3a8a"/><stop offset="1" style="stop-color:#172554"/></linearGradient><path d="M2045 1268.7s-82.2-3.8-123.1 20c-41 23.9 2 138.4 2 138.4s10.7 2.3 26.1-6c0 0-22-83.7 16.2-98.3 42.9-16.4 87.2-12.4 87.2-12.4l-8.2-39.1z" style="fill:url(#D)"/><linearGradient id="E" x1="-259" x2="-343.6" y1="1300.3" y2="1410.9" gradientTransform="rotate(12.5 373 8942.4)scale(-1 1)" gradientUnits="userSpaceOnUse"><stop offset="0" style="stop-color:#1e3a8a"/><stop offset="1" style="stop-color:#1e40af"/></linearGradient><path d="M1903.3 1471.6c9.3-2 37-13.5 41.2-13.3s10.2 6.4 10.2 6.4 1 3.5-2 8.4a78 78 0 0 1-40.4 17 30 30 0 0 1-25.6-9.5c4-4 10.3-7.6 16.6-9" style="fill:url(#E)"/><linearGradient id="F" x1="1917.5" x2="1918.8" y1="1504.7" y2="1377.3" gradientUnits="userSpaceOnUse"><stop offset="0" style="stop-color:#2563eb"/><stop offset="1" style="stop-color:#3b82f6"/></linearGradient><path d="M1912.3 1490a78 78 0 0 0 40.4-16.9c-2 3.4-5.9 7.4-13.2 11.5-18 10.2-48 8.7-53.9 6.4-4.7-1.8-3.2-6.2 1.1-10.4a30 30 0 0 0 25.6 9.4" style="fill:url(#F)"/><linearGradient id="G" x1="-308.8" x2="-286" y1="1293.3" y2="1293.3" gradientTransform="rotate(12.5 373 8942.4)scale(-1 1)" gradientUnits="userSpaceOnUse"><stop offset="0" style="stop-color:#ff928e"/><stop offset="1" style="stop-color:#feb3b1"/></linearGradient><path d="M1964.5 1454.5c-.6 2.3-7.1 9.2-11 13.1a8 8 0 0 1-6.9 2q-2.5-.4-5-1.6a5 5 0 0 1-1.8-6.6l9.6-17.4z" style="fill:url(#G)"/><linearGradient id="H" x1="-362.1" x2="-356.4" y1="1278.7" y2="1085.2" gradientTransform="rotate(12.5 373 8942.4)scale(-1 1)" gradientUnits="userSpaceOnUse"><stop offset="0" style="stop-color:#1e3a8a"/><stop offset="1" style="stop-color:#1e40af"/></linearGradient><path d="M2126.4 1261.8s7.2 51-13.6 61.3c-20.7 10.4-66.2 17.2-81.9 43.6-15.6 26.4-43.8 78.2-69.4 93.1 0 0-14.6-4.7-18.9-12 0 0 30.4-79.9 43-99.3 11-16.8 27.1-41 50-51.5 6.5-3 7-10 5.8-17l-2-13z" style="fill:url(#H)"/><linearGradient id="I" x1="-277.6" x2="-219.8" y1="1054.6" y2="996.5" gradientTransform="rotate(12.5 373 8942.4)scale(-1 1)" gradientUnits="userSpaceOnUse"><stop offset="0" style="stop-color:#2563eb"/><stop offset="1" style="stop-color:#3b82f6"/></linearGradient><path d="M1934.2 1204.1c29 8.3 42-73.5 42-75.5l44.5 52.1s-26.5 46.8-66.7 51.7a47 47 0 0 1-26-3.8 42 42 0 0 0 6.2-24.5" style="fill:url(#I)"/><linearGradient id="J" x1="-226.7" x2="-147.1" y1="1053.2" y2="1053.2" gradientTransform="rotate(12.5 373 8942.4)scale(-1 1)" gradientUnits="userSpaceOnUse"><stop offset="0" style="stop-color:#ff928e"/><stop offset="1" style="stop-color:#feb3b1"/></linearGradient><path d="M1880.3 1177.3c12.7-5.2 23.4 5.2 23.4 5.2 12.6 12.9 22.6 19.4 30.5 21.6.4 7.2-.8 15.8-6.2 24.5a65 65 0 0 1-28.5-29 5.4 5.4 0 0 0-7.2-2.3c-2.7 1.3-5.5 3.2-5.6 6-.4 5.2-6.7 5.6-6.7 3.6s4.8-12.5 4.8-12.5l-20.2 13c-5.7 3.5-10.5-2.4-10.5-2.4s13.5-22.5 26.2-27.7" style="fill:url(#J)"/><linearGradient id="K" x1="2009.7" x2="2160.9" y1="1061.1" y2="1329.4" gradientUnits="userSpaceOnUse"><stop offset="0" style="stop-color:#2563eb"/><stop offset="1" style="stop-color:#3b82f6"/></linearGradient><path d="M2115.2 1094.9s-39-26.7-133.5 21.6c0 0-9.7 12.3-5.1 26.2s60.6 89 62.8 124.3c0 0 38.3 22.6 88 .2 0 0 16.7-93.2-12.2-172.3" style="fill:url(#K)"/><linearGradient id="L" x1="1991.4" x2="2054" y1="1029.4" y2="1136" gradientUnits="userSpaceOnUse"><stop offset="0" style="stop-color:#ff928e"/><stop offset="1" style="stop-color:#feb3b1"/></linearGradient><path d="m2024.3 1053.1 25 38c1.5 3 1.2 6.6-1 9.3-4.2 5.3-13 12.4-28.2 7.8-4.5-1.3-8-5-9-9.6l-8-33.8z" style="fill:url(#L)"/><linearGradient id="M" x1="2067.8" x2="2219" y1="1028.3" y2="1296.6" gradientUnits="userSpaceOnUse"><stop offset="0" style="stop-color:#2563eb"/><stop offset="1" style="stop-color:#3b82f6"/></linearGradient><path d="M2144.2 1200.6c2.6-18.4-46-54-46-54l17-51.7s92.8 66.2 73.3 120.3q-4.3 11.5-12 17.4a60 60 0 0 0-32.3-32" style="fill:url(#M)"/><linearGradient id="N" x1="2146.2" x2="2125.6" y1="1148.1" y2="1192.8" gradientUnits="userSpaceOnUse"><stop offset="0" style="stop-color:#ff928e"/><stop offset="1" style="stop-color:#feb3b1"/></linearGradient><path d="M2076.3 1205.7s55 15.3 66.4-1.4a9 9 0 0 0 1.5-3.7 60 60 0 0 1 32.2 32c-26 20.5-76.4-2.5-90.1-9.4a10 10 0 0 0-7.3-.6 66 66 0 0 1-18 3.6c-6.8-.4-14.2 24.4-25.9 18.2 0 0 5.3-42.5 41.2-38.7" style="fill:url(#N)"/><linearGradient id="O" x1="-1984.8" x2="-1998.1" y1="1062" y2="954" gradientTransform="rotate(-176.8 -136.7 1064.1)scale(1 -1)" gradientUnits="userSpaceOnUse"><stop offset="0" style="stop-color:#ff928e"/><stop offset="1" style="stop-color:#feb3b1"/></linearGradient><path d="M1967.2 1029.1c0 .7 11.3 40 17.2 60.1 1.7 6.2 8.4 9.4 14.3 6.9l4.5-1.9c6.2-2.6 17-10.5 17.6-17.2l-2-47.5s-50.8-15-51.6-.4" style="fill:url(#O)"/><linearGradient id="P" x1="-2298.6" x2="-2219.8" y1="-1221" y2="-1221" gradientTransform="rotate(-176.8 -136.7 1064.1)scale(1 -1)" gradientUnits="userSpaceOnUse"><stop offset="0" style="stop-color:#1e3a8a"/><stop offset="1" style="stop-color:#1e40af"/></linearGradient><path d="M2018.4 1016.3c1.1-4.5 1.2-11.1-7.2-14-8.6-3-14.3 1.9-17.3 5.8a4 4 0 0 1-5.2 1c-1-.5-2.2-.6-3.6.5a4 4 0 0 1-5.8-1.3 12 12 0 0 0-14.7-5.7c-14 3.7-14.3 19.7-9.7 28.6s19.6 4.1 27-1.3c5.5-4 13.4-1 16.9.7a4 4 0 0 1 2.1 2.8l4 17.7q6.6.7 13 2l-.1-3.2c.2-5.9 7-10 10-11.5a4 4 0 0 0 2-2.4c1.1-3.7 2.4-12.2-8.4-14.7a4 4 0 0 1-3-5" style="fill:url(#P)"/><linearGradient id="Q" x1="-2013.3" x2="-2026.6" y1="1065.5" y2="957.5" gradientTransform="rotate(-176.8 -136.7 1064.1)scale(1 -1)" gradientUnits="userSpaceOnUse"><stop offset="0" style="stop-color:#ff928e"/><stop offset="1" style="stop-color:#feb3b1"/></linearGradient><path d="M2020 1060.2s-7.3-16-1.6-20.5 14.8-3.2 13.9 8.9c-1.2 15-12.3 11.6-12.3 11.6" style="fill:url(#Q)"/><linearGradient id="R" x1="12426.9" x2="12323.4" y1="1909.5" y2="1937.9" gradientTransform="rotate(-2.8 -6995.2 211946)" gradientUnits="userSpaceOnUse"><stop offset="0" style="stop-color:#1e3a8a"/><stop offset="1" style="stop-color:#1e40af"/></linearGradient><path d="M2006.1 1240.7h-.3l-128.4-.1a5.7 5.7 0 1 1 0-11.5l128.4.1a5.7 5.7 0 0 1 .3 11.5" style="fill:url(#R)"/><linearGradient id="S" x1="1909.3" x2="1819.3" y1="1228.1" y2="1170.7" gradientUnits="userSpaceOnUse"><stop offset="0" style="stop-color:#1e3a8a"/><stop offset="1" style="stop-color:#1e40af"/></linearGradient><path d="M1761.9 1124h107c7.9 0 15 4.6 18.4 11.7l49.5 105h-133c-5 0-9.7-3.2-11.5-8l-38.4-97a8.5 8.5 0 0 1 8-11.6" style="fill:url(#S)"/><path d="M1779.2 1516.2q-1 0-2.1-.4a5 5 0 0 1-2.8-6.9l113.2-254.8a5.5 5.5 0 0 1 7-2.7c2.8 1.1 4 4.2 2.9 6.9L1784.2 1513c-.9 2-2.9 3.1-5 3.1" style="fill:#93c5fd"/><path d="M1906.8 1516.2c-2.1 0-4.1-1.1-5-3.1l-113.2-254.8a5 5 0 0 1 2.8-7c2.7-1 6 .2 7.1 2.8l113.2 254.8c1.2 2.7 0 5.8-2.8 7zM2129.7 1516.2q-1.1 0-2.1-.4a5 5 0 0 1-2.9-6.9l113.2-254.8a5.5 5.5 0 0 1 7.1-2.7c2.8 1.1 4 4.2 2.9 6.9L2134.6 1513c-.8 2-2.8 3.1-5 3.1" style="fill:#93c5fd"/><path d="M2257.2 1516.2c-2 0-4-1.1-5-3.1L2139 1258.3a5 5 0 0 1 2.9-7c2.7-1 5.9.2 7 2.8l113.3 254.8c1.2 2.7-.1 5.8-2.8 7q-1.1.3-2.2.3" style="fill:#93c5fd"/><path d="M2270.5 1246.3q.5-2.6-1-4.8-1.6-2-4-2h-515c-2 0-4 1.1-5 3a7 7 0 0 0-.4 6.3l5.6 13.5c1.3 3.1 4 5.1 7 5.1H2262c2.8 0 5.2-2.3 5.8-5.4z" style="fill:#93c5fd"/><path d="M625.8 521.6c66.5 2.7 141.3 38.2 154.6 109.1 11.4 60.4-50 98.5-88.6 117.3a49 49 0 0 0-23.8 25.3c-11 26.4-37.7 73.2-86.2 62.8-3.5-.8-3.6-5.8-.1-6.7 11-3 26.1-9.5 33.5-23.1a29.4 29.4 0 0 0-23.8-43c-39.8-3.3-118.6-21.6-137.7-112.8C428 527 625.8 521.6 625.8 521.6" style="fill:#bfdbfe"/><path d="M621.4 628.4s-9.5-41-49.7-27.7c-38.2 12.5-17.3 64.1 43.1 89.7a22 22 0 0 0 20.1-1.6c22.6-14 74.5-52.3 37-88.5-24.2-23.3-50.5 28-50.5 28" style="fill:#fff"/><linearGradient id="T" x1="598.2" x2="744" y1="560.2" y2="560.2" gradientUnits="userSpaceOnUse"><stop offset="0" style="stop-color:#dbeafe"/><stop offset="1" style="stop-color:#eff6ff"/></linearGradient><path d="M740.9 587.7q-1.5 0-2.5-1.1c-20.2-23.8-60.4-51.3-137-47a3 3 0 0 1-3.2-3 3 3 0 0 1 3-3.4c43.6-2.4 103.7 4.2 142 49.3a3.2 3.2 0 0 1-2.3 5.2" style="fill:url(#T)"/><linearGradient id="U" x1="757.4" x2="769.5" y1="625.9" y2="625.9" gradientUnits="userSpaceOnUse"><stop offset="0" style="stop-color:#dbeafe"/><stop offset="1" style="stop-color:#eff6ff"/></linearGradient><path d="M766.3 638.3a3 3 0 0 1-3.1-2.6c0-.1-1.2-7.4-5.6-17.8a3.2 3.2 0 0 1 5.9-2.4 93 93 0 0 1 6 19.2 3.2 3.2 0 0 1-3.2 3.6" style="fill:url(#U)"/><path d="m665.1 369-5.7 2.5a1.8 1.8 0 1 1-1.5-3.3l5.8-2.5a1.8 1.8 0 1 1 1.4 3.3M646.2 378l-5.6 2.9a1.8 1.8 0 0 1-1.8-3.3l5.7-3a1.8 1.8 0 0 1 1.7 3.3M627.8 388l-5.4 3.3a1.9 1.9 0 1 1-2-3.2l5.5-3.3a1.9 1.9 0 0 1 2 3.2zM610 399.2l-5.1 3.6a2 2 0 1 1-2.2-3.2l5.2-3.6a2 2 0 1 1 2.2 3.2M593 411.4l-5 3.8a2 2 0 0 1-2.4-3l5-4a2 2 0 0 1 2.4 3.2M576.7 424.5l-4.8 4.1a2 2 0 1 1-2.6-3l4.8-4.1a2 2 0 1 1 2.6 3M561.1 438.5l-4.5 4.4a2 2 0 1 1-2.9-2.9l4.6-4.4a2 2 0 1 1 2.8 3M546.3 453.4l-4.2 4.6a2 2 0 1 1-3.1-2.8l4.3-4.6a2 2 0 1 1 3 2.8M532.4 469.1l-4 4.9a2.1 2.1 0 0 1-3.3-2.7l4-5a2.1 2.1 0 0 1 3.3 2.8M519.4 485.5l-3.8 5v.1a2.2 2.2 0 0 1-3.5-2.6l3.8-5a2.2 2.2 0 0 1 3.5 2.5M507.3 502.6l-3.5 5.3a2.2 2.2 0 1 1-3.7-2.4l3.5-5.3a2.2 2.2 0 0 1 3.7 2.4M496.1 520.4l-3.1 5.4a2.2 2.2 0 1 1-4-2.2l3.3-5.5a2.2 2.2 0 0 1 3.8 2.2M486 538.7l-2.9 5.6a2.3 2.3 0 1 1-4-2l2.8-5.7a2.3 2.3 0 1 1 4 2zM476.9 557.6l-2.6 5.7a2.3 2.3 0 1 1-4.3-1.8l2.6-5.8a2.3 2.3 0 1 1 4.3 1.8M468.8 577l-2.1 5.8a2.4 2.4 0 1 1-4.5-1.6l2.2-6a2.4 2.4 0 0 1 4.5 1.7M462 596.7l-1.9 6a2.4 2.4 0 0 1-4.6-1.4l1.9-6a2.4 2.4 0 1 1 4.6 1.3M456.3 616.8l-1.5 6.1a2.5 2.5 0 1 1-4.8-1.1l1.5-6.2a2.4 2.4 0 0 1 4.8 1.2M451.8 637.2l-1.1 6.2a2.5 2.5 0 0 1-5-.8l1.2-6.3a2.5 2.5 0 0 1 4.9.9M448.5 657.9l-.7 6.2a2.5 2.5 0 1 1-5-.5l.7-6.3a2.5 2.5 0 1 1 5 .6M446.6 678.7l-.4 6.3a2.6 2.6 0 1 1-5.1-.3l.3-6.3a2.6 2.6 0 0 1 5.2.3M445.8 699.6v6.3a2.6 2.6 0 0 1-5.2 0v-6.3a2.6 2.6 0 1 1 5.2 0M446.3 720.5l.3 6.3a2.6 2.6 0 0 1-5.2.3l-.3-6.3a2.6 2.6 0 0 1 5.2-.3M448 741.4l.6 6.2a2.6 2.6 0 0 1-5.1.7l-.8-6.4a2.6 2.6 0 1 1 5.2-.6M450.7 762.1l1.1 6.2a2.6 2.6 0 0 1-5.1 1l-1.1-6.3a2.6 2.6 0 0 1 5.1-1zM454.7 782.7l1.5 6v.1a2.6 2.6 0 1 1-5.2 1.2l-1.4-6.2a2.6 2.6 0 1 1 5.1-1.2M459.9 803l1.7 6a2.7 2.7 0 0 1-5 1.5l-1.8-6.1a2.7 2.7 0 0 1 5-1.5M466 823l2.2 5.9a2.7 2.7 0 0 1-5 1.8l-2.1-6a2.7 2.7 0 1 1 5-1.8M473.4 842.6l2.4 5.8a2.7 2.7 0 1 1-5 2l-2.3-5.8a2.7 2.7 0 0 1 4.9-2M481.8 861.7l2.7 5.7a2.7 2.7 0 1 1-4.8 2.4l-2.8-5.8a2.7 2.7 0 1 1 4.9-2.3M491.2 880.4l3 5.5h.1a2.7 2.7 0 0 1-4.7 2.7l-3.1-5.6a2.7 2.7 0 0 1 4.7-2.6M501.7 898.5l3.3 5.4a2.7 2.7 0 0 1-4.5 2.9l-3.4-5.4a2.7 2.7 0 0 1 4.6-2.9M513.2 916l3.6 5.1a2.7 2.7 0 0 1-4.4 3.3l-3.7-5.2a2.7 2.7 0 0 1 4.4-3.2M525.6 932.8l4 5a2.8 2.8 0 0 1-4.3 3.4l-4-5a2.7 2.7 0 0 1 4.3-3.4M539 948.9l4.2 4.6a2.8 2.8 0 1 1-4 3.8l-4.3-4.8a2.8 2.8 0 0 1 4-3.7zM553.3 964l4.5 4.5a2.8 2.8 0 0 1-3.8 4l-4.6-4.5a2.8 2.8 0 0 1 4-4M568.6 978.4l4.7 4.1a2.8 2.8 0 1 1-3.6 4.3l-4.8-4.2a2.8 2.8 0 0 1 3.6-4.2M584.6 991.8l5 3.9a2.8 2.8 0 0 1-3.4 4.4l-5-3.9a2.8 2.8 0 0 1 3.4-4.4M601.4 1004.3l5.1 3.6a2.8 2.8 0 0 1-3.1 4.6l-5.3-3.6a2.8 2.8 0 0 1 3.2-4.6M618.8 1015.8l5.4 3.3a2.8 2.8 0 1 1-3 4.9l-5.4-3.4a2.8 2.8 0 1 1 3-4.8M636.9 1026.5l5.5 3a2.8 2.8 0 1 1-2.7 5l-5.6-3a2.8 2.8 0 0 1 2.7-5M655.4 1036.1l5.7 2.7a2.9 2.9 0 1 1-2.4 5.2l-5.8-2.8a2.9 2.9 0 0 1 2.5-5.1M674.5 1044.8l5.7 2.5a2.9 2.9 0 0 1-2.1 5.3l-6-2.5a2.9 2.9 0 0 1 2.3-5.3M693.9 1052.6l5.9 2.2a2.9 2.9 0 1 1-2 5.4l-6-2.2a2.9 2.9 0 0 1 2-5.4M713.7 1059.5l6 1.9a2.9 2.9 0 1 1-1.7 5.5l-6.1-1.9a2.9 2.9 0 0 1 1.7-5.5M733.7 1065.5l6.1 1.6a3 3 0 0 1-1.5 5.6l-6.1-1.6a3 3 0 0 1 1.5-5.6M754 1070.5l6.2 1.4a3 3 0 0 1-1.2 5.7l-6.2-1.4a3 3 0 0 1 1.2-5.7M774.6 1074.7l6.2 1v.1a3 3 0 0 1-1 5.8l-6.3-1.1a3 3 0 1 1 1-5.8M795.3 1078l6.2.8a3 3 0 0 1-.7 6l-6.3-1a3 3 0 1 1 .8-5.8M816.1 1080.5l6.3.5a3 3 0 0 1-.5 6l-6.4-.6a3 3 0 1 1 .6-6M837 1082l6.3.3a3 3 0 0 1-.3 6l-6.3-.3a3 3 0 1 1 .3-6M858 1082.7l6.2.1a3 3 0 0 1 0 6H858a3 3 0 1 1 0-6M879 1082.7l6.2-.2a3 3 0 1 1 .2 6l-6.4.2a3 3 0 0 1-.1-6M899.9 1081.8l6.2-.4a3 3 0 1 1 .5 6l-6.4.4a3 3 0 0 1-.4-6M920.8 1080.2l6.2-.6a3 3 0 0 1 .7 6l-6.4.6a3 3 0 1 1-.6-6M941.6 1077.9l6.3-.9a3 3 0 1 1 .8 6l-6.3 1a3 3 0 1 1-.8-6.1M962.4 1074.9l6.2-1a3 3 0 1 1 1 6l-6.3 1a3 3 0 1 1-1-6M983 1071.2l6.2-1.2a3 3 0 0 1 1.2 6l-6.2 1.3a3 3 0 1 1-1.2-6M1003.6 1067l6.1-1.5a3.1 3.1 0 0 1 1.4 6l-6.2 1.5a3 3 0 0 1-1.3-6M1024 1062l6-1.5h.1a3.1 3.1 0 1 1 1.5 6l-6.1 1.6a3.1 3.1 0 0 1-1.5-6M1044.2 1056.6l6.1-1.7a3.1 3.1 0 1 1 1.7 6l-6 1.7a3.1 3.1 0 0 1-1.8-6M1064.4 1050.7l6-2a3.1 3.1 0 0 1 1.9 6l-6 2a3.1 3.1 0 0 1-2-6M1084.4 1044.2l6-2a3.2 3.2 0 1 1 2 6l-6 2a3.1 3.1 0 1 1-2-6M1104.2 1037.3l6-2.2a3.2 3.2 0 1 1 2.1 6l-6 2.1a3.2 3.2 0 0 1-2.1-6M1123.9 1029.9l5.8-2.3a3.2 3.2 0 0 1 2.4 5.9l-6 2.3a3.2 3.2 0 1 1-2.3-6M1143.4 1022l5.8-2.4a3.2 3.2 0 0 1 2.5 5.9l-5.9 2.4a3.2 3.2 0 1 1-2.4-5.9M1162.7 1013.8l5.8-2.5a3.2 3.2 0 0 1 2.6 5.8l-5.8 2.6a3.2 3.2 0 0 1-2.6-5.9M1181.9 1005.2l5.7-2.6a3.2 3.2 0 1 1 2.7 5.9l-5.7 2.6a3.2 3.2 0 1 1-2.7-5.9M1201 996.4l5.6-2.8a3.2 3.2 0 1 1 2.8 5.9l-5.7 2.7a3.2 3.2 0 1 1-2.8-5.8M1220 987.2l5.6-2.8a3.2 3.2 0 0 1 2.9 5.9l-5.7 2.8a3.2 3.2 0 1 1-2.9-5.9M1238.8 977.9l5.6-2.8a3.3 3.3 0 0 1 3 5.8l-5.7 2.8a3.3 3.3 0 1 1-3-5.8M1257.6 968.4l5.6-2.8a3.3 3.3 0 1 1 3 5.8l-5.6 2.9a3.3 3.3 0 1 1-3-5.9M1276.4 958.9l5.6-2.9a3.3 3.3 0 0 1 3 5.9l-5.6 2.8a3.3 3.3 0 0 1-3-5.8M1295.2 949.3l5.6-2.9a3.3 3.3 0 0 1 3 6l-5.6 2.8a3.3 3.3 0 0 1-3-5.9M1314 939.7l5.6-2.8a3.3 3.3 0 0 1 3 5.9l-5.6 2.8a3.3 3.3 0 1 1-3-5.9M1332.8 930.2l5.7-2.8a3.3 3.3 0 0 1 3 6l-5.7 2.8a3.3 3.3 0 1 1-3-6M1351.7 920.8l5.7-2.7a3.3 3.3 0 1 1 3 6l-5.8 2.7a3.3 3.3 0 1 1-2.9-6M1370.7 911.7l5.8-2.7a3.3 3.3 0 1 1 2.8 6l-5.7 2.7a3.3 3.3 0 1 1-2.9-6M1389.9 902.7l5.7-2.6a3.3 3.3 0 0 1 2.8 6l-5.8 2.6a3.3 3.3 0 0 1-2.7-6M1409.1 894.1l5.9-2.5a3.2 3.2 0 1 1 2.6 6l-5.8 2.5a3.3 3.3 0 0 1-2.7-6M1428.6 885.8l5.8-2.4a3.2 3.2 0 1 1 2.5 6l-5.8 2.4a3.2 3.2 0 0 1-2.5-6M1448.2 877.9l6-2.3a3.2 3.2 0 1 1 2.2 6l-5.9 2.2a3.2 3.2 0 0 1-2.3-5.9M1468 870.5l6-2.2a3.2 3.2 0 0 1 2 6l-5.9 2.1a3.2 3.2 0 1 1-2.1-6M1488 863.6l6-2a3.1 3.1 0 1 1 2 6l-6 2a3.1 3.1 0 1 1-2-6M1508.2 857.3l6.1-1.7a3.1 3.1 0 0 1 1.8 6l-6.1 1.7a3.1 3.1 0 1 1-1.8-6M1528.7 851.7l6.1-1.5a3 3 0 1 1 1.5 6l-6.1 1.5a3 3 0 0 1-1.5-6M1549.3 846.8l6.2-1.3a3 3 0 1 1 1.3 5.9l-6.2 1.3a3 3 0 1 1-1.3-5.9M1570 842.6l6.3-1a3 3 0 0 1 1 5.9l-6.2 1a3 3 0 0 1-1-5.9M1591 839.3l6.3-.9a3 3 0 1 1 .8 6l-6.3.8a3 3 0 0 1-.8-6M1612 836.8l6.4-.6a3 3 0 1 1 .5 5.9l-6.3.5a3 3 0 1 1-.6-5.8M1633.2 835.2l6.3-.3a3 3 0 0 1 .3 5.8l-6.3.3a3 3 0 0 1-.3-5.8M1654.4 834.6h6.3a2.9 2.9 0 1 1 0 5.8h-6.3a2.9 2.9 0 1 1 0-5.8M1675.6 835.1l6.4.4a2.9 2.9 0 0 1-.4 5.7l-6.3-.4a2.9 2.9 0 0 1 .3-5.7M1696.8 836.8l6.3.7a2.8 2.8 0 0 1-.6 5.6l-6.3-.7a2.8 2.8 0 1 1 .6-5.6M1717.8 839.6l6.3 1.1a2.8 2.8 0 1 1-1 5.5l-6.2-1a2.8 2.8 0 0 1 .9-5.6M1738.7 843.8l6.1 1.4a2.8 2.8 0 0 1-1.2 5.4l-6.2-1.5a2.8 2.8 0 1 1 1.2-5.3M1759.2 849.2l6 1.9a2.7 2.7 0 1 1-1.5 5.2l-6-1.9h-.1a2.7 2.7 0 1 1 1.6-5.2M1779.3 856l6 2.3a2.7 2.7 0 1 1-2 5l-5.9-2.2a2.7 2.7 0 1 1 2-5.1M1799 864.2l5.7 2.7a2.7 2.7 0 1 1-2.3 4.9l-5.7-2.8a2.7 2.7 0 0 1 2.3-4.8M1817.9 874l5.5 3.3a2.6 2.6 0 1 1-2.7 4.5l-5.5-3.2a2.6 2.6 0 0 1 2.7-4.6M1835.8 885.6l5.2 3.8a2.6 2.6 0 1 1-3.2 4.2l-5-3.8h-.1a2.6 2.6 0 1 1 3.1-4.3M1852.4 899l4.7 4.4a2.6 2.6 0 1 1-3.6 3.8v-.1l-4.6-4.3a2.6 2.6 0 1 1 3.5-3.8M1867.2 914.5l4 5a2.5 2.5 0 0 1-4 3.2v-.1l-3.9-4.9a2.5 2.5 0 0 1 3.9-3.2M1879.6 932l3 5.7a2.4 2.4 0 0 1-4 2.3h-.1l-3.1-5.5a2.4 2.4 0 1 1 4.1-2.5M1888.9 951.4l2 6.1a2.3 2.3 0 0 1-4.4 1.5v-.1l-2-5.9v-.1a2.3 2.3 0 0 1 4.3-1.5M1894.1 972.2l.8 6.5a2.2 2.2 0 0 1-4.4.5v-.1l-.8-6.2v-.1a2.2 2.2 0 0 1 4.4-.6M1895.2 993.7l-.5 6.4a2.1 2.1 0 0 1-4.2-.3v-.1l.4-6.2v-.1a2.2 2.2 0 1 1 4.3.3M1892.1 1015l-1.7 6.1a2 2 0 0 1-4-1v-.2l1.7-6a2 2 0 0 1 4 1M1884.7 1035l-3.2 5.7a2 2 0 0 1-3.4-1.8v-.2l3-5.4v-.1a2 2 0 1 1 3.6 1.9M1872.6 1053l-4.5 4.6a1.9 1.9 0 0 1-2.7-2.6l.1-.1 4.3-4.5v-.1a1.9 1.9 0 0 1 2.8 2.6M1856.1 1066.8l-1.6 1a1.8 1.8 0 0 1-1.8-3.1l1.5-1a1.8 1.8 0 0 1 2 3.1" style="fill:#fff"/><path d="m691.7 337.2 1.1 29.5 19.5-13.4z" style="fill:#60a5fa"/><path d="m823.6 315.6-77 72.6a7.5 7.5 0 0 1-10.8-.5l-70-80.1a3 3 0 0 1 2.5-5z" style="fill:#93c5fd"/><path d="m691.8 337.2 131.8-21.6L703 350.2l-.1 8.2z" style="fill:#60a5fa"/><path d="m709.7 357.8-16.9 8.9 10.2-16.5z" style="fill:#60a5fa"/><linearGradient id="V" x1="295.3" x2="187.2" y1="836.4" y2="964.9" gradientTransform="matrix(-1 0 0 1 622.2 0)" gradientUnits="userSpaceOnUse"><stop offset="0" style="stop-color:#1e3a8a"/><stop offset="1" style="stop-color:#1e40af"/></linearGradient><path d="M531.8 845c20.6 13.7 39.6 44.7 1.7 94.6-34 44.7-68.8 74-63.6 101.4 5.1 27.6-35.1 97-117 51.7-80.8-44.8-65.3-130.8 32.7-163.5 57.4-19 70.6-134.6 146.2-84.2" style="fill:url(#V)"/><linearGradient id="W" x1="1786.2" x2="1757.7" y1="976.8" y2="1082.2" gradientTransform="translate(-1206.3)" gradientUnits="userSpaceOnUse"><stop offset="0" style="stop-color:#ff928e"/><stop offset="1" style="stop-color:#feb3b1"/></linearGradient><path d="M597.5 1017s-32 38.3-64.3 7.2l-12.5 28.8s47.1 36.5 82.8-20.9z" style="fill:url(#W)"/><linearGradient id="X" x1="6207.1" x2="6190.3" y1="878" y2="334.3" gradientTransform="rotate(-7.2 2129 46742.6)" gradientUnits="userSpaceOnUse"><stop offset="0" style="stop-color:#2563eb"/><stop offset="1" style="stop-color:#2563eb"/></linearGradient><path d="M518.4 945.7A61 61 0 0 0 459 961a15 15 0 0 0-4.4 15.2c6.6 24.3 24 96.2 8.7 127.4 0 0 27 29.7 56.4 5.7 0 0 13.2-57.5 30.5-82.7 12-17.5-19-65.5-26.9-77q-1.9-2.7-5-3.8" style="fill:url(#X)"/><linearGradient id="Y" x1="516.2" x2="483.2" y1="896.3" y2="991.3" gradientUnits="userSpaceOnUse"><stop offset="0" style="stop-color:#ff928e"/><stop offset="1" style="stop-color:#feb3b1"/></linearGradient><path d="M504.6 899.3s-18 35.2-21 51.3c0 0 13.4 8.5 28.5-.8 0 0 6.3-36.6 9.2-43z" style="fill:url(#Y)"/><linearGradient id="Z" x1="-8835.5" x2="-8817.5" y1="1659.5" y2="1774.5" gradientTransform="rotate(16 8342.4 -27838.9)scale(-1 1)" gradientUnits="userSpaceOnUse"><stop offset="0" style="stop-color:#ff928e"/><stop offset="1" style="stop-color:#feb3b1"/></linearGradient><path d="M544.8 879.5s3.4 59-21.5 60c-24.8.7-27.3-41.3-27.3-41.3s7.4-26.5 19.2-29.6c11.8-3 29.6 11 29.6 11" style="fill:url(#Z)"/><linearGradient id="aa" x1="-8690.7" x2="-8778" y1="1816" y2="1919.8" gradientTransform="rotate(16 8342.4 -27838.9)scale(-1 1)" gradientUnits="userSpaceOnUse"><stop offset="0" style="stop-color:#1e3a8a"/><stop offset="1" style="stop-color:#1e40af"/></linearGradient><path d="M537.5 861.3s11.4 11.6 9.4 18.8-26.3-.3-32.3-3.7l-20.1 21.4s.6-31.7 14.5-41.5c13.9-9.7 28.5 5 28.5 5" style="fill:url(#aa)"/><linearGradient id="ab" x1="-8808.4" x2="-8790.4" y1="1655.3" y2="1770.3" gradientTransform="rotate(16 8342.4 -27838.9)scale(-1 1)" gradientUnits="userSpaceOnUse"><stop offset="0" style="stop-color:#ff928e"/><stop offset="1" style="stop-color:#feb3b1"/></linearGradient><path d="M503.6 898.8s-3-20.2-13-14.5.8 21.4 8.5 20.4z" style="fill:url(#ab)"/><linearGradient id="ac" x1="6052.3" x2="6211" y1="1555.2" y2="1275" gradientTransform="rotate(-.5 2541.3 596869.3)" gradientUnits="userSpaceOnUse"><stop offset="0" style="stop-color:#ff928e"/><stop offset="1" style="stop-color:#feb3b1"/></linearGradient><path d="M554 1230c0 2.6 4.5 23.3 7 34.4 1 4.4.3 9-2 13l-86.3 145.4q-1.5 2.7-2.3 5.7c-1.6 6.8-4.9 23.6-3.2 38.8l4.5 9.3-19.3-4.4-4.2-52 5.4-3.3a26 26 0 0 0 10.6-12.3c7.8-19 27.2-67.3 32.2-90.8 5.7-26.8 35.4-48.5 35.4-48.5l-5.2-12.4z" style="fill:url(#ac)"/><linearGradient id="ad" x1="6086.9" x2="6133.3" y1="1456.1" y2="1456.1" gradientTransform="rotate(-.5 2541.3 596869.3)" gradientUnits="userSpaceOnUse"><stop offset="0" style="stop-color:#1e3a8a"/><stop offset="1" style="stop-color:#1e40af"/></linearGradient><path d="M430.9 1454.3s10.4-16.6 11.7-23 4.6-17.8 11-14.4c0 0 3 31.3 2 43.5-1 12.3 13.9 11.9 13.9 11.9s4 .5 7 3.5c2.1 2.1.6 5.7-2.3 5.9-4.8.3-12.6.4-20.7-1.2-2.8-.5-5-3-5.1-5.8l-2.1-36-13.2 16.6z" style="fill:url(#ad)"/><linearGradient id="ae" x1="672.9" x2="583" y1="1172.5" y2="1271.5" gradientUnits="userSpaceOnUse"><stop offset="0" style="stop-color:#ff928e"/><stop offset="1" style="stop-color:#feb3b1"/></linearGradient><path d="m502.4 1253.2-3.4 148.5c-.4 18.5 2.9 59.4 21.4 71.7l-8 6s-10.1-8.6-20-25a152 152 0 0 0-14.4-22l3.7-7.5q2.4-5 1.3-10.6c-4-19.4-17.3-83.8-21-97.7a63 63 0 0 1 10.4-56.5c15-18.3 30-7 30-7" style="fill:url(#ae)"/><linearGradient id="af" x1="6129.9" x2="6185.2" y1="1464.5" y2="1464.5" gradientTransform="rotate(-.5 2541.3 596869.3)" gradientUnits="userSpaceOnUse"><stop offset="0" style="stop-color:#1e3a8a"/><stop offset="1" style="stop-color:#1e40af"/></linearGradient><path d="M485.3 1485.2q-.9 0-1.1-1a168 168 0 0 0-5.3-26.2c-2.4-5.1-10.3-26.8 0-28.7 0 0 25.5 37.3 30.4 42.3 5 5 11.1 1.8 11.1 1.8s4.8 1.4 8.4 6c1.7 2.2.1 5.4-2.7 5.4l-17.2.2c-5 0-9.5-3-11.3-7.6-3-7.6-8.2-18.7-14.3-23.6l3.2 30.1q0 1.2-1.2 1.3" style="fill:url(#af)"/><linearGradient id="ag" x1="6206.5" x2="6074" y1="1093" y2="1388.4" gradientTransform="rotate(-.5 2541.3 596869.3)" gradientUnits="userSpaceOnUse"><stop offset="0" style="stop-color:#1e3a8a"/><stop offset="1" style="stop-color:#1e40af"/></linearGradient><path d="M523.8 1095.2s-3.9 12.4 2 32.7l37 129a4 4 0 0 1-2.5 4.8c-11 4-47.4 15.1-97 11.7-2.4-.2-4.5-2-5-4.4l-16.7-75.1c-8.8-39.3-17.3-76.6 25.7-102.2 19.8 8.5 37 8.5 56.5 3.5" style="fill:url(#ag)"/><linearGradient id="ah" x1="514.9" x2="511.9" y1="915.3" y2="969.3" gradientUnits="userSpaceOnUse"><stop offset="0" style="stop-color:#ff928e"/><stop offset="1" style="stop-color:#feb3b1"/></linearGradient><path d="M479.2 978.5s-7.4 106.2 61.2 52.8c0 0 10.2-9.5 17.5-10.7 4-.6 8.4-1 11.6-1.3 1.5-.1 2.2 1.8 1 2.7a19 19 0 0 1-8.1 3.7c-5.2.5.3 4.3-5.3 14.2-5.7 10-13.7 6.2-13.7 6.2s-78.6 80.5-94.3-59.9c-.6-26.1 24.5-24.7 30.1-7.7" style="fill:url(#ah)"/><linearGradient id="ai" x1="-9032.5" x2="-9053.2" y1="390" y2="411.9" gradientTransform="rotate(9.4 1795.7 -50552.2)scale(-1 1.2768)" gradientUnits="userSpaceOnUse"><stop offset="0" style="stop-color:#1e3a8a"/><stop offset="1" style="stop-color:#1e40af"/></linearGradient><path d="m618.5 990.5-23.3-3c-2.8-.5-5.7 1.1-7.4 4.2l-15.4 33.9c-2.8 5-.8 11.8 3.9 12.6l18.7 2.4c1.8.3 3.7-.9 4.7-2.9l20.7-41.4c1.2-2.4.2-5.4-1.9-5.8" style="fill:url(#ai)"/><linearGradient id="aj" x1="1817.7" x2="1802.7" y1="987.9" y2="1043.5" gradientTransform="translate(-1206.3)" gradientUnits="userSpaceOnUse"><stop offset="0" style="stop-color:#ff928e"/><stop offset="1" style="stop-color:#feb3b1"/></linearGradient><path d="M602.6 1036.3s15.7-22.8 13.9-25.6c-1.9-2.8-15.6-6.9-18.8-7.8-3.3-1-9.4 19.7 4.9 33.4" style="fill:url(#aj)"/><path d="M363.4 1074.9a.9.9 0 0 0 .4-1.7c-15.1-6-27.3-18.7-32.7-34a58 58 0 0 1 4-47c11.1-19.8 32.5-31 53.2-41.7l2.5-1.3c22.4-11.7 44.2-25.5 52.2-48a.9.9 0 0 0-1.6-.6c-7.8 22-29.3 35.6-51.4 47l-2.5 1.4c-20.9 10.8-42.5 22-54 42.4a60 60 0 0 0-4 48.4 60 60 0 0 0 34 35" style="fill:#93c5fd"/><path d="M386.5 1067a.9.9 0 0 0 .3-1.8 59 59 0 0 1-39-29c-7.7-15.7-5.3-35.1 6-46.3a.9.9 0 1 0-1.2-1.2 42.5 42.5 0 0 0-6.3 48.2 61 61 0 0 0 40.2 30M1806.5 184.4l-116.5-6.1c-9.5-.5-17.1 7-16.9 16.5l3 107.2c.3 8.8 7.9 15.4 16.9 15l110.7-5.5c7.5-.3 13.7-7 13.9-14.9l2.7-96c.2-8.5-5.9-15.8-13.8-16.2" style="fill:#93c5fd"/><linearGradient id="ak" x1="1700.9" x2="1788.7" y1="247.3" y2="247.3" gradientUnits="userSpaceOnUse"><stop offset="0" style="stop-color:#dbeafe"/><stop offset="1" style="stop-color:#eff6ff"/></linearGradient><path d="M1744.8 291.2a44 44 0 1 1 0-88 44 44 0 0 1 0 88m0-80.5a36.6 36.6 0 1 0 0 73.2 36.6 36.6 0 0 0 0-73.2" style="fill:url(#ak)"/><linearGradient id="al" x1="1731" x2="1766.3" y1="248.4" y2="248.4" gradientUnits="userSpaceOnUse"><stop offset="0" style="stop-color:#dbeafe"/><stop offset="1" style="stop-color:#eff6ff"/></linearGradient><path d="M1731 264.2v-31.6c0-3.4 3.7-5.5 6.6-3.7l26.6 15.7a4.4 4.4 0 0 1 0 7.5l-26.6 15.8a4.4 4.4 0 0 1-6.6-3.7" style="fill-rule:evenodd;clip-rule:evenodd;fill:url(#al)"/><path d="m474.4 330.6-116.6-6c-9.5-.6-17 6.9-16.8 16.4l3 107.2c.3 8.8 7.8 15.5 16.8 15l110.7-5.4c7.5-.4 13.7-7 14-15l2.6-96c.3-8.5-5.8-15.8-13.7-16.2" style="fill:#93c5fd"/><linearGradient id="am" x1="346.3" x2="467.4" y1="390.3" y2="390.3" gradientUnits="userSpaceOnUse"><stop offset="0" style="stop-color:#dbeafe"/><stop offset="1" style="stop-color:#eff6ff"/></linearGradient><path d="M453.4 428.3h-62.2a5 5 0 0 1-5-3.8l-17.6-59.3L351 363a5.3 5.3 0 1 1 1.3-10.4l21.2 2.7q3.2.6 4.3 3.7l17.5 58.8H449l8-42a5.3 5.3 0 1 1 10.4 2l-8.8 46.3a5 5 0 0 1-5.2 4.3" style="fill:url(#am)"/><linearGradient id="an" x1="372.2" x2="465" y1="374.5" y2="374.5" gradientUnits="userSpaceOnUse"><stop offset="0" style="stop-color:#dbeafe"/><stop offset="1" style="stop-color:#eff6ff"/></linearGradient><path d="M459.7 379.8h-82.2a5.3 5.3 0 1 1 0-10.5h82.2a5.3 5.3 0 1 1 0 10.5" style="fill:url(#an)"/><linearGradient id="ao" x1="400.7" x2="411.2" y1="396.7" y2="396.7" gradientUnits="userSpaceOnUse"><stop offset="0" style="stop-color:#dbeafe"/><stop offset="1" style="stop-color:#eff6ff"/></linearGradient><path d="M406 423c-3 0-5.3-2.3-5.3-5.3v-42.1a5.3 5.3 0 1 1 10.5 0v42.1c0 3-2.3 5.3-5.2 5.3" style="fill:url(#ao)"/><linearGradient id="ap" x1="430.2" x2="440.7" y1="396.7" y2="396.7" gradientUnits="userSpaceOnUse"><stop offset="0" style="stop-color:#dbeafe"/><stop offset="1" style="stop-color:#eff6ff"/></linearGradient><path d="M435.5 423c-3 0-5.3-2.3-5.3-5.3v-42.1a5.3 5.3 0 1 1 10.5 0v42.1c0 3-2.3 5.3-5.2 5.3" style="fill:url(#ap)"/><linearGradient id="aq" x1="378.6" x2="460.7" y1="397.7" y2="397.7" gradientUnits="userSpaceOnUse"><stop offset="0" style="stop-color:#dbeafe"/><stop offset="1" style="stop-color:#eff6ff"/></linearGradient><path d="M455.5 403h-71.7a5.3 5.3 0 1 1 0-10.5h71.7a5.3 5.3 0 1 1 0 10.5" style="fill:url(#aq)"/><linearGradient id="ar" x1="394" x2="408.7" y1="440.7" y2="440.7" gradientUnits="userSpaceOnUse"><stop offset="0" style="stop-color:#dbeafe"/><stop offset="1" style="stop-color:#eff6ff"/></linearGradient><path d="M408.7 440.7a7.3 7.3 0 1 1-14.7 0 7.3 7.3 0 0 1 14.7 0" style="fill:url(#ar)"/><linearGradient id="as" x1="438.8" x2="453.5" y1="440.7" y2="440.7" gradientUnits="userSpaceOnUse"><stop offset="0" style="stop-color:#dbeafe"/><stop offset="1" style="stop-color:#eff6ff"/></linearGradient><circle cx="446.1" cy="440.7" r="7.3" style="fill:url(#as)"/><path d="m1993.6 611.6-116.6-6c-9.5-.6-17 6.9-16.8 16.4l3 107.2c.2 8.8 7.8 15.5 16.8 15l110.7-5.4c7.5-.4 13.7-7 14-15l2.6-96c.3-8.5-5.8-15.8-13.7-16.2" style="fill:#60a5fa"/><linearGradient id="at" x1="1880.1" x2="1987.6" y1="672.7" y2="672.7" gradientUnits="userSpaceOnUse"><stop offset="0" style="stop-color:#dbeafe"/><stop offset="1" style="stop-color:#eff6ff"/></linearGradient><path d="M1975 714.9h-82.2c-7 0-12.7-5.7-12.7-12.7v-58.9c0-7 5.7-12.7 12.7-12.7h82.1c7 0 12.7 5.7 12.7 12.7v58.9c0 7-5.7 12.7-12.7 12.7m-82.2-73.8q-2 .2-2.1 2.2v58.9c0 1.2 1 2.2 2.1 2.2h82.1q2-.2 2.2-2.2v-58.9c0-1.2-1-2.2-2.2-2.2z" style="fill:url(#at)"/><linearGradient id="au" x1="1882.1" x2="1983.6" y1="657" y2="657" gradientUnits="userSpaceOnUse"><stop offset="0" style="stop-color:#dbeafe"/><stop offset="1" style="stop-color:#eff6ff"/></linearGradient><path d="M1933.1 678.5q-1.6 0-3-1l-45.8-32.5a5.3 5.3 0 1 1 6-8.6l42.8 30.3 42.1-30a5.3 5.3 0 1 1 6.1 8.7l-45.1 32q-1.5 1-3.1 1" style="fill:url(#au)"/><linearGradient id="av" x1="1882.9" x2="1921" y1="685.5" y2="685.5" gradientUnits="userSpaceOnUse"><stop offset="0" style="stop-color:#dbeafe"/><stop offset="1" style="stop-color:#eff6ff"/></linearGradient><path d="m1888.2 715.5-1.6-10.4.7 5.2-4.4-2.8 28.2-49.3a5.3 5.3 0 1 1 9.2 5.2l-14.2 24.8-9.7 17c-5.7 9.9-5.7 9.9-8.2 10.3" style="fill:url(#av)"/><linearGradient id="aw" x1="1945" x2="1983" y1="685.5" y2="685.5" gradientUnits="userSpaceOnUse"><stop offset="0" style="stop-color:#dbeafe"/><stop offset="1" style="stop-color:#eff6ff"/></linearGradient><path d="M1977.7 715.5c-2.5-.4-2.5-.4-8.2-10.3l-9.7-17-14.1-24.8a5.3 5.3 0 1 1 9.1-5.2l28.2 49.3-4.4 2.8z" style="fill:url(#aw)"/><path d="m343 753.7-116.6-6c-9.5-.5-17 6.9-16.8 16.5l3 107.2c.2 8.7 7.8 15.4 16.8 15l110.7-5.5c7.5-.4 13.7-7 14-14.9l2.6-96c.3-8.6-5.9-15.9-13.7-16.3" style="fill:#60a5fa"/><linearGradient id="ax" x1="249.2" x2="317.1" y1="817" y2="817" gradientUnits="userSpaceOnUse"><stop offset="0" style="stop-color:#dbeafe"/><stop offset="1" style="stop-color:#eff6ff"/></linearGradient><path d="M291.5 773.8a3 3 0 0 0-4 2.8v53.5c-4-3.3-9.7-5.4-16-5.4-12.3 0-22.3 8-22.3 17.8 0 10 10 17.9 22.3 17.9s22.3-8 22.3-17.9v-53.4c8.9 1.4 14.9 8 18.4 13.6 1.5 2.3 5 1.1 4.9-1.6-1-16.6-17.8-24.5-25.6-27.3" style="fill:url(#ax)"/><path d="m2209.6 885.3-116.6-6c-9.5-.6-17.1 6.8-16.8 16.4l3 107.2c.2 8.8 7.8 15.5 16.8 15l110.7-5.4c7.5-.4 13.7-7 13.9-15l2.7-96c.2-8.5-5.9-15.8-13.7-16.2" style="fill:#60a5fa"/><linearGradient id="ay" x1="2110.2" x2="2137.1" y1="980.9" y2="980.9" gradientUnits="userSpaceOnUse"><stop offset="0" style="stop-color:#dbeafe"/><stop offset="1" style="stop-color:#eff6ff"/></linearGradient><path d="M2123.6 994.3a13.5 13.5 0 1 1 0-27 13.5 13.5 0 0 1 0 27m0-21.5a8.1 8.1 0 1 0 0 16.2 8.1 8.1 0 0 0 0-16.2" style="fill:url(#ay)"/><linearGradient id="az" x1="2117.4" x2="2160.3" y1="965.1" y2="965.1" gradientUnits="userSpaceOnUse"><stop offset="0" style="stop-color:#dbeafe"/><stop offset="1" style="stop-color:#eff6ff"/></linearGradient><path d="M2123.6 952.2a28.7 28.7 0 0 1 28.6 31.6 2 2 0 0 0 2.2 2.1l4.2-.6a2 2 0 0 0 1.6-1.8l.1-2.6a36.7 36.7 0 0 0-41.2-36.4 2 2 0 0 0-1.7 2.2l.7 4.1a2 2 0 0 0 2.2 1.6z" style="fill:url(#az)"/><linearGradient id="aA" x1="2113.9" x2="2181" y1="953.2" y2="953.2" gradientUnits="userSpaceOnUse"><stop offset="0" style="stop-color:#dbeafe"/><stop offset="1" style="stop-color:#eff6ff"/></linearGradient><path d="M2123.6 931.5A49.4 49.4 0 0 1 2173 981a2 2 0 0 0 2.2 2l4.1-.7 1.7-2a57.4 57.4 0 0 0-65.4-56.1 2 2 0 0 0-1.7 2.2l.7 4a2 2 0 0 0 2.2 1.7 49 49 0 0 1 6.8-.5" style="fill:url(#aA)"/><linearGradient id="aB" x1="2110.4" x2="2201.6" y1="941.3" y2="941.3" gradientUnits="userSpaceOnUse"><stop offset="0" style="stop-color:#dbeafe"/><stop offset="1" style="stop-color:#eff6ff"/></linearGradient><path d="M2123.6 910.8a70 70 0 0 1 70 67c0 1.2 1 2.1 2.2 2l4-.7a2 2 0 0 0 1.8-2 78 78 0 0 0-89.5-73.4 2 2 0 0 0-1.6 2.3l.7 4a2 2 0 0 0 2.2 1.6q5-.8 10.2-.8" style="fill:url(#aB)"/><path d="m2158 418.4-95.1-5A13 13 0 0 0 2049 427l2.5 87.5c.2 7.2 6.4 12.6 13.7 12.3l90.3-4.5c6.2-.3 11.2-5.7 11.4-12.1l2.2-78.4c.2-7-4.8-13-11.2-13.3" style="fill:#93c5fd"/><linearGradient id="aC" x1="2063.5" x2="2154.1" y1="465.4" y2="465.4" gradientUnits="userSpaceOnUse"><stop offset="0" style="stop-color:#dbeafe"/><stop offset="1" style="stop-color:#eff6ff"/></linearGradient><path d="M2145.5 428.3h-67.2c-6.3 0-14.8 4.6-14.8 11v37.5c0 6.1 8.6 10.5 14.8 10.5h46.2c1.6 0 2.2 3.7 2.2 5.3v5.5c0 2.3 2.4 3.1 3.5 3.5q1 .8 2.7 1 1.6 0 2.5-1.2l9.9-11.7c6.3-.2 8.8-6.8 8.8-13v-37.4c0-6-2.4-11-8.6-11m2.3 48.5c0 2.8 0 6.3-2.3 6.3h-2.5l-12 11.6v-8.1c0-1.6 1.1-3.5-.5-3.5h-52.2c-2.9 0-8.5-3.5-8.5-6.3v-36c0-4 5.6-4 8.5-4h67.2c2.9 0 2.3-.3 2.3 2.5z" style="fill:url(#aC)"/><path d="M2141.5 447.2c0 1.2-1 2.2-2.1 2.2h-61.2q-1.8-.2-2-2.2.2-1.8 2-2h61.2q1.8.2 2 2M2141.5 457.8c0 1.1-1 2-2.1 2h-61.2q-1.8-.2-2-2 .2-2 2-2.1h61.2c1.1 0 2 1 2 2M2141.5 472.5c0 1.2-1 2.1-2.1 2.1h-61.2q-1.8-.2-2-2 .2-2 2-2.2h61.2c1.1 0 2 1 2 2.1M1885.9 444.8l-51.5-2.7a7 7 0 0 0-7.5 7.3l1.4 47.4a7 7 0 0 0 7.4 6.6l48.9-2.4c3.3-.2 6-3.1 6.1-6.6l1.2-42.4c.1-3.8-2.6-7-6-7.2M1969 360.8l-35.7-2c-3 0-5.3 2.2-5.2 5.2l1 32.9c0 2.7 2.3 4.8 5 4.6l34.1-1.7a5 5 0 0 0 4.3-4.5l.8-29.6c0-2.6-1.8-4.8-4.2-5M2106.8 754.1l-42-2.2a5.7 5.7 0 0 0-6 6l1 38.6c.1 3.2 2.9 5.6 6.1 5.4l39.9-2c2.7 0 5-2.5 5-5.3l1-34.6c0-3.1-2.1-5.7-5-5.9M2232.2 831l-20.8-1.1c-1.7-.1-3 1.2-3 3l.5 19c0 1.6 1.4 2.8 3 2.7l19.8-1c1.3 0 2.4-1.2 2.5-2.6l.4-17.1c0-1.6-1-2.9-2.4-3M243.8 551.8l-42-2.2a5.7 5.7 0 0 0-6 6l1 38.6c.1 3.2 2.9 5.6 6 5.4l40-2c2.7 0 5-2.5 5-5.3l1-34.6c0-3.1-2.1-5.8-5-5.9M369.2 628.6l-20.8-1c-1.7-.1-3 1.2-3 3l.5 19c0 1.6 1.4 2.8 3 2.7l19.8-1c1.3 0 2.4-1.2 2.4-2.6l.5-17.2c0-1.5-1-2.8-2.4-2.9M597.2 271.3l-32.3-1.6c-2.6-.2-4.7 1.9-4.6 4.5l.8 29.7c0 2.4 2.2 4.3 4.7 4.1l30.6-1.5c2 0 3.8-2 3.8-4.1l.8-26.6c0-2.3-1.6-4.4-3.8-4.5" style="fill:#fff"/><linearGradient id="aD" x1="1019.6" x2="1047.6" y1="1234.6" y2="2014.6" gradientUnits="userSpaceOnUse"><stop offset="0" style="stop-color:#e1473d"/><stop offset="1" style="stop-color:#e9605a"/></linearGradient><path d="M998.7 1389.4q-1 0-1.7-.3l-18.3-7.5a4.5 4.5 0 0 1-2.7-4.5l.8-14.7a75 75 0 0 1-14.7-14.6l-14.7 1q-3.2 0-4.4-2.8l-7.6-18.3a5 5 0 0 1 1.2-5l11-9.8q-1.5-10.5 0-20.8l-11.1-9.7a5 5 0 0 1-1.2-5.1l7.5-18.3c.7-1.8 2.5-3 4.4-2.8l14.7.9a75 75 0 0 1 14.7-14.7l-1-14.7q0-3.2 2.8-4.4l18.2-7.6c1.8-.8 3.9-.3 5.1 1.1l9.8 11q10.5-1.5 20.8 0l9.7-11c1.3-1.5 3.3-2 5.1-1.2l18.3 7.5c1.7.7 2.9 2.5 2.7 4.4l-.8 14.7a75 75 0 0 1 14.7 14.7l14.7-1q3.2 0 4.4 2.8l7.6 18.2c.7 1.8.3 3.9-1.2 5.1l-11 9.8q1.5 10.4 0 20.8l11.1 9.7c1.5 1.3 2 3.3 1.2 5.1l-7.5 18.2c-.7 1.8-2.5 3-4.4 2.8l-14.7-.8a75 75 0 0 1-14.7 14.7l1 14.7c0 1.9-1 3.7-2.8 4.4l-18.2 7.6c-1.8.7-3.9.3-5.1-1.2l-9.8-11q-10.4 1.5-20.8 0l-9.7 11.1q-1.4 1.5-3.4 1.5m-16.4-13.2 15.9 6.5 11.2-12.6 1.7.3a69 69 0 0 0 22.2 0l1.7-.4 11.2 12.7 15.8-6.6-1-16.9 1.4-1q9-6.7 15.7-15.7l1-1.5 16.8 1 6.6-15.8-12.7-11.2.3-1.7a68 68 0 0 0 0-22.2l-.3-1.7 12.6-11.2-6.6-15.9-16.9 1-1-1.3q-6.5-9-15.7-15.7l-1.4-1 1-16.9-15.9-6.5-11.2 12.7-1.7-.3a68 68 0 0 0-22.2 0l-1.7.3-11.2-12.6-15.8 6.6 1 16.9-1.4 1q-9 6.5-15.7 15.7l-1 1.4-16.8-1-6.6 15.9 12.7 11.2-.3 1.7a68 68 0 0 0 0 22.2l.3 1.7-12.6 11.2 6.6 15.8 16.9-1 1 1.4q6.5 9 15.7 15.6l1.4 1zm40.2-22.9a50.8 50.8 0 0 1-50.3-58c.2-1.8 1.9-3 3.6-2.8s2.9 1.9 2.6 3.6a44.4 44.4 0 1 0 18.6-30 3.2 3.2 0 1 1-3.6-5.2q4.5-3 9.5-5.2a50.8 50.8 0 1 1 19.6 97.6" style="fill:url(#aD)"/><linearGradient id="aE" x1="1019.6" x2="1047.6" y1="1234.6" y2="2014.6" gradientUnits="userSpaceOnUse"><stop offset="0" style="stop-color:#e1473d"/><stop offset="1" style="stop-color:#e9605a"/></linearGradient><path d="M1022 1323a20.5 20.5 0 0 1-20.4-17.6 20.7 20.7 0 0 1 17.4-23.5 20.5 20.5 0 0 1 23.5 17.4 20.5 20.5 0 0 1-17.4 23.5zm-2-34.9a14.4 14.4 0 1 0 4.2 28.5 14.4 14.4 0 0 0-4.3-28.5" style="fill:url(#aE)"/><linearGradient id="aF" x1="1150.2" x2="1178.2" y1="1229.9" y2="2009.9" gradientUnits="userSpaceOnUse"><stop offset="0" style="stop-color:#e1473d"/><stop offset="1" style="stop-color:#e9605a"/></linearGradient><path d="M1154.8 1421.2q-2.3-.1-3.5-2.3l-2.6-5.6q-4.2-.8-8.3-2.5l-5.3 3.3q-2.3 1.2-4.4-.3l-7.3-6a4 4 0 0 1-1.2-4.3l2.2-5.8q-2.5-3.6-4.1-7.7l-6-1.4a4 4 0 0 1-3-3.3l-1-9.5q0-2.6 2.3-3.8l5.6-2.6q.7-4.4 2.5-8.3l-3.3-5.3c-.8-1.4-.7-3.2.3-4.4l6-7.4c1-1.2 2.8-1.7 4.3-1.1l5.8 2.1q3.6-2.4 7.7-4l1.4-6.1a4 4 0 0 1 3.3-3l9.5-.9q2.6-.2 3.8 2.2l2.6 5.6q4.3.9 8.3 2.5l5.3-3.2c1.4-.9 3.2-.8 4.4.3l7.4 6c1.2 1 1.7 2.7 1.1 4.2l-2.1 5.9q2.4 3.7 4 7.6l6.1 1.4q2.5.8 3 3.4l.9 9.4c.1 1.6-.7 3.2-2.2 3.9l-5.6 2.6q-.8 4.2-2.6 8.3l3.3 5.3c.9 1.3.7 3.1-.3 4.4l-6 7.3a4 4 0 0 1-4.2 1.2l-5.9-2.2q-3.7 2.5-7.6 4.1l-1.5 6a4 4 0 0 1-3.3 3l-9.4 1zm-14.8-17.6 1.6.8q4.5 2.3 9.7 2.9l1.7.2 3.3 7.2 5.9-.6 1.8-7.7 1.7-.5q4.8-1.7 8.9-4.8l1.4-1.1 7.3 2.7 3.8-4.5-4.1-6.7.7-1.6q2.2-4.5 3-9.7l.2-1.7 7.1-3.3-.6-6-7.6-1.7-.6-1.7a31 31 0 0 0-4.8-8.9l-1-1.4 2.7-7.4-4.6-3.7-6.7 4.1-1.6-.7q-4.5-2.2-9.7-3l-1.7-.2-3.3-7.1-5.9.6-1.8 7.6-1.6.6a31 31 0 0 0-9 4.8l-1.3 1-7.4-2.7-3.7 4.6 4 6.7-.7 1.5q-2.3 4.7-3 9.8l-.1 1.7-7.2 3.3.6 5.8 7.7 1.9.5 1.6q1.6 4.8 4.8 9l1 1.3-2.6 7.4 4.5 3.7zm15.5-1.4a26 26 0 0 1-25.9-23.4 26 26 0 0 1 2.4-13.7 3.2 3.2 0 0 1 5.7 2.7 19.7 19.7 0 0 0 33.1 20.9 19.6 19.6 0 0 0-2.7-27.8 20 20 0 0 0-18.6-3.5 3.2 3.2 0 0 1-2-6 26 26 0 1 1 8 50.9" style="fill:url(#aF)"/></svg>