<svg xmlns="http://www.w3.org/2000/svg" xml:space="preserve" viewBox="0 0 3710 3710"><linearGradient id="a" x1="3489.3" x2="1430.4" y1="3266.6" y2="1465.1" gradientUnits="userSpaceOnUse"><stop offset="0" style="stop-color:#dbeafe"/><stop offset="1" style="stop-color:#eff6ff"/></linearGradient><path d="M3139.4 2331c-266 626.5-974.9 977.5-1589.6 882.9-100-15.5-374.2-61.3-617-277.9-467.3-416.7-567.3-1242-190.3-1823.6C1017 689 1508.8 449 1976.2 461c100.6 2.6 486.5 18.5 825.5 298.1 49.8 41 159.7 138.7 258.7 293.5 232.4 363.5 252.4 870 79 1278.3" style="fill:url(#a)"/><path d="M1483.2 1374.3a6 6 0 0 1-4.6-2.9 472 472 0 0 0-11.6-19.4 5.7 5.7 0 1 1 9.7-6.1l11.9 19.9a5.7 5.7 0 0 1-5.4 8.5M1028.3 2092.8q-13.1-1-26.2-2.7a5.7 5.7 0 0 1-5-6.4 6 6 0 0 1 6.5-5 508 508 0 0 0 44.5 3.7c3.2-.2 5.6 2.7 5.5 5.9a5.7 5.7 0 0 1-6 5.5q-9.7-.3-19.3-1m92.4-2.2a5.7 5.7 0 0 1-.2-11.4q21.4-2.5 42.8-7l1.2-.3a5.7 5.7 0 0 1 2.4 11.2l-1.2.2a495 495 0 0 1-45 7.3m115-28.2a5.7 5.7 0 0 1-1.7-11 478 478 0 0 0 41-17.8 5.7 5.7 0 0 1 5 10.3 488 488 0 0 1-42 18.2q-1.1.5-2.4.3m104.4-55.3a5.7 5.7 0 0 1-2.8-10.4q18.3-12.8 35.3-27.2a5.7 5.7 0 0 1 7.4 8.7 489 489 0 0 1-36.1 28 6 6 0 0 1-3.8 1m87.9-79.2a5.7 5.7 0 0 1-4-9.5 481 481 0 0 0 27.7-35 5.7 5.7 0 1 1 9.3 6.7 491 491 0 0 1-28.3 35.8q-2 2.2-4.7 2m66-98.2q-1.2 0-2.2-.6a5.7 5.7 0 0 1-2.6-7.7q10.3-20 18.3-40.7a5.7 5.7 0 0 1 10.7 4.2 491 491 0 0 1-18.7 41.7 6 6 0 0 1-5.6 3.1m40-111.3-.8-.1c-3-.7-5-3.8-4.3-6.8q5-21.8 7.8-44a5.7 5.7 0 0 1 6.4-5c3.2.5 5.4 3.3 5 6.5q-3 22.6-8 45a6 6 0 0 1-6 4.4m11.8-117.7a6 6 0 0 1-5.3-5.6 477 477 0 0 0-3.2-44.5 5.7 5.7 0 0 1 11.3-1.4q2.8 22.7 3.3 45.6a5.7 5.7 0 0 1-6.1 5.9m-17.4-117a6 6 0 0 1-5.1-4.3q-6-21.6-13.9-42.4a5.7 5.7 0 0 1 10.7-4 493 493 0 0 1 14.2 43.4 5.7 5.7 0 0 1-6 7.2M930.3 2075.1q-.5 0-1.1-.2a499 499 0 0 1-22.1-7 5.7 5.7 0 1 1 3.7-10.8 486 486 0 0 0 21.6 6.8 5.7 5.7 0 0 1-2 11.2M636.3 1834.3q-3-.4-4.6-3.1-5.4-10.2-10.2-20.8a5.7 5.7 0 0 1 10.4-4.8q4.8 10.4 10 20.3a5.7 5.7 0 0 1-5.6 8.4M601.1 1746a6 6 0 0 1-5-4 499 499 0 0 1-10.5-43.8 5.7 5.7 0 0 1 11.2-2.2 497 497 0 0 0 10.3 42.7 5.7 5.7 0 0 1-6 7.3m-18.6-114.9a6 6 0 0 1-5.3-5.4q-.9-22.6.2-45a5.7 5.7 0 0 1 6-5.4c3.1.2 5.7 2.8 5.5 6q-1.2 21.9-.3 43.9a5.7 5.7 0 0 1-6.1 6m9.4-116-.7-.1c-3-.7-5-3.7-4.4-6.8q4.5-22 11-43.6a5.7 5.7 0 0 1 11 3.4 475 475 0 0 0-10.8 42.5 6 6 0 0 1-6 4.6m37.2-110.3q-1-.1-2-.6a5.7 5.7 0 0 1-2.8-7.6 491 491 0 0 1 21.3-39.7 5.7 5.7 0 1 1 9.8 5.9 480 480 0 0 0-20.7 38.7 6 6 0 0 1-5.6 3.3m62.4-98.3q-1.7 0-3.2-1.3a5.7 5.7 0 0 1-.8-8 491 491 0 0 1 30-33.5 5.7 5.7 0 0 1 8.2 8 482 482 0 0 0-29.3 32.7 6 6 0 0 1-4.9 2.1m84-80.5a5.7 5.7 0 0 1-3-10.3q18-13.4 37.3-25.2a5.7 5.7 0 0 1 6 9.8q-18.8 11.5-36.4 24.6a6 6 0 0 1-3.8 1.1m101-57.8a5.7 5.7 0 0 1-1.8-11q20.8-8.7 42.2-15.5a5.7 5.7 0 1 1 3.5 11q-21 6.5-41.2 15-1.3.6-2.7.5m112-32a5.7 5.7 0 0 1-.5-11.3q22.2-3.6 44.7-5a5.7 5.7 0 0 1 .8 11.4 482 482 0 0 0-45 5m160.4 1.5h-.6q-21.7-4-43.6-5.8a5.7 5.7 0 0 1 1-11.4q22.5 1.9 44.6 5.9a5.7 5.7 0 0 1-1.4 11.3M1240.5 1163.7q-1 0-1.7-.3-10.5-4.2-21.2-7.9a5.7 5.7 0 1 1 3.7-10.8q11 3.8 21.7 8a5.7 5.7 0 0 1-2.5 11M1242.3 1281.8a6 6 0 0 0-6.7.1l-56.8 41.5a307 307 0 0 0-97-21.3l-34.4-61.4a6 6 0 0 0-6-2.9l-83.1 15a6 6 0 0 0-4.7 4.7l-10.9 69.5a307 307 0 0 0-83.6 53.7l-67.7-19.2c-2.4-.7-5 .2-6.3 2.2l-48.3 69.3a6 6 0 0 0 .1 6.7l41.5 56.9a307 307 0 0 0-21.3 97l-61.4 34.3a6 6 0 0 0-2.9 6l15 83.2a6 6 0 0 0 4.7 4.7l69.5 10.8c13.4 31 31.7 59.2 53.7 83.6l-19.2 67.7c-.7 2.4.2 5 2.2 6.4l69.3 48.2c2 1.4 4.7 1.4 6.7 0l56.9-41.6a307 307 0 0 0 97 21.3l34.3 61.4a6 6 0 0 0 6 2.9l83.2-14.9a6 6 0 0 0 4.7-4.8l10.8-69.5c31-13.4 59.2-31.6 83.6-53.6l67.7 19.2c2.4.6 5-.3 6.4-2.3l48.2-69.3c1.4-2 1.4-4.7 0-6.7l-41.6-56.9a307 307 0 0 0 21.3-97l61.4-34.3a6 6 0 0 0 2.9-6l-14.9-83.1a6 6 0 0 0-4.8-4.7l-69.5-10.9a307 307 0 0 0-53.6-83.6l19.2-67.7c.6-2.4-.3-5-2.3-6.3z" style="fill:#93c5fd"/><path d="M1059 1693.5a84 84 0 0 1-70-49 83 83 0 0 1-2-63.8 83 83 0 0 1 43.8-46.7 83 83 0 0 1 63.9-2 83 83 0 0 1 46.6 43.8 83 83 0 0 1 2 63.9 83 83 0 0 1-84.2 53.8m11-149.6a66.4 66.4 0 1 0-9.5 132.5 66.4 66.4 0 0 0 9.5-132.5" style="fill:#bfdbfe"/><path d="M1048 1823.5a211 211 0 0 1-105-37.5 211 211 0 0 1-87.7-136.8q-4.8-27-2.8-53.7a211 211 0 0 1 37.5-105 211 211 0 0 1 182-91l-.7 17.2q-20.8-.8-41.4 3a194 194 0 0 0-125.8 80.5 194 194 0 0 0-31.9 146c9.2 51.2 37.8 95.9 80.6 125.7a194 194 0 0 0 145.9 31.9 195.5 195.5 0 0 0 157.6-226.5 195 195 0 0 0-44.8-93.7l12.9-11.3a212 212 0 0 1 51.6 155.2 212.7 212.7 0 0 1-228 196" style="fill:#bfdbfe"/><path d="M2105.6 1152.2c-2.6-.2-5-1.7-6.3-4.2q-6.7-13.2-14.7-25.9a7.6 7.6 0 1 1 12.9-8.1q8.3 13.2 15.4 27.1a7.6 7.6 0 0 1-7.3 11M1834.9 1630.7a7.6 7.6 0 0 1 0-15.3 325 325 0 0 0 59.6-9.9 7.6 7.6 0 1 1 3.9 14.8 343 343 0 0 1-63.5 10.4m152.9-50a7.6 7.6 0 0 1-3.5-14.1q25.6-16.3 47.7-37a7.6 7.6 0 1 1 10.4 11.2 337 337 0 0 1-50 38.7q-2.2 1.3-4.6 1.1m110.9-116.6q-1.7 0-3.2-1c-3.7-2-5-6.7-2.9-10.3q15-26.5 24.7-55.1a7.6 7.6 0 1 1 14.4 5q-10.1 29.8-25.8 57.6a8 8 0 0 1-7.2 3.8m42.7-155c-4-.4-7.2-3.8-7-7.8q.6-30.2-4.5-60.2a7.6 7.6 0 0 1 15-2.6q5.4 31.4 4.7 63c-.1 4.3-3.6 7.6-7.8 7.6zM1734.7 1622.4l-1.3-.2q-15.1-3.7-29.9-8.8a7.6 7.6 0 0 1 5-14.4q14 4.8 28.5 8.3a7.6 7.6 0 0 1-2.3 15M1519.2 1453.8c-2.6-.2-5-1.7-6.2-4.1q-7.2-13.8-13-28.4a7.6 7.6 0 1 1 14-5.7q5.7 13.9 12.5 27a7.6 7.6 0 0 1-7.3 11.2M1483.4 1330.2a7.6 7.6 0 0 1-7-7 337 337 0 0 1 .3-62.1c.4-4.2 4.2-7 8.3-6.9 4.2.4 7.2 4.2 6.8 8.4a318 318 0 0 0-.3 59.3 7.6 7.6 0 0 1-8.2 8.3M1508 1174q-1.3 0-2.4-.6a7.6 7.6 0 0 1-4.1-10q12.2-28.7 29.3-54.8a7.6 7.6 0 0 1 12.8 8.4 324 324 0 0 0-28 52.4 8 8 0 0 1-7.6 4.6m94.5-126.8a7.6 7.6 0 0 1-4.3-13.5 337 337 0 0 1 51.5-35 7.6 7.6 0 0 1 7.4 13.4 322 322 0 0 0-49.2 33.3 8 8 0 0 1-5.4 1.8m142.8-68.1a7.6 7.6 0 0 1-1-15.1q30.8-6.3 61.8-7a7.5 7.5 0 0 1 7.8 7.5c0 4.3-3.3 7.7-7.5 7.8q-29.7.6-59 6.6-1 .3-2.1.2M1932.5 995q-1.2 0-2.2-.4-13.9-5.6-28.2-9.7a7.6 7.6 0 0 1 4.2-14.6 336 336 0 0 1 29.6 10 7.6 7.6 0 0 1-3.4 14.8M1934 1072.1a4 4 0 0 0-4.6.1l-38.9 28.4a210 210 0 0 0-66.3-14.6l-23.5-42a4 4 0 0 0-4.1-2l-56.9 10.2a4 4 0 0 0-3.2 3.3l-7.4 47.6a210 210 0 0 0-57.2 36.7l-46.3-13.2a4 4 0 0 0-4.4 1.6l-33 47.4a4 4 0 0 0 0 4.6l28.5 38.9a210 210 0 0 0-14.6 66.3l-42 23.5a4 4 0 0 0-2 4.2l10.2 56.8a4 4 0 0 0 3.3 3.2l47.6 7.4a210 210 0 0 0 36.6 57.2l-13 46.4a4 4 0 0 0 1.5 4.3l47.4 33a4 4 0 0 0 4.6 0l38.8-28.5a210 210 0 0 0 66.4 14.6l23.5 42a4 4 0 0 0 4.1 2l56.9-10.2a4 4 0 0 0 3.2-3.3l7.4-47.5a210 210 0 0 0 57.2-36.7l46.3 13a4 4 0 0 0 4.4-1.5l33-47.4a4 4 0 0 0 0-4.5l-28.5-39a210 210 0 0 0 14.6-66.3l42-23.5a4 4 0 0 0 2-4.1l-10.2-56.9a4 4 0 0 0-3.3-3.2l-47.6-7.4a210 210 0 0 0-36.6-57.2l13-46.3a4 4 0 0 0-1.5-4.4z" style="fill:#93c5fd"/><path d="M1808.3 1359.3a62.8 62.8 0 0 1-21.3-119.7 62.8 62.8 0 1 1 21.3 119.7m-11.9-98.8a39.9 39.9 0 1 0 33 72.6 39.9 39.9 0 0 0-33-72.6" style="fill:#bfdbfe"/><path d="M1800.7 1448.2c-26.5-2-52.2-11-74.6-26.6a150 150 0 0 1-64.3-135.3c2-26.5 11-52.2 26.7-74.6a150 150 0 0 1 129.2-64.6l-.9 22.9a128.3 128.3 0 0 0-132.2 118 129 129 0 0 0 54.5 114.8c28 19.5 62 27 95.7 21a127 127 0 0 0 82.4-52.9 127 127 0 0 0 21-95.6c-4.1-22.9-14.3-44.1-29.5-61.5l17.3-15a150.6 150.6 0 0 1 10 185.2 150 150 0 0 1-135.3 64.2" style="fill:#bfdbfe"/><linearGradient id="b" x1="2410.6" x2="2034" y1="2313.9" y2="1724.3" gradientTransform="rotate(15.9 -2826.5 678.6)" gradientUnits="userSpaceOnUse"><stop offset="0" style="stop-color:#3b82f6"/><stop offset="1" style="stop-color:#2563eb"/></linearGradient><path d="M1606 2682.6c-198.3-43.7-49-337.8-42-349.1L1209 2458.2s-31.8 171 189.3 328.3c56 39.8 112.5 57 165.8 60.4a280 280 0 0 1 42-164.3" style="fill:url(#b)"/><linearGradient id="c" x1="1974.3" x2="2508.4" y1="1417.3" y2="1417.3" gradientTransform="rotate(15.9 -2826.5 678.6)" gradientUnits="userSpaceOnUse"><stop offset="0" style="stop-color:#febbba"/><stop offset="1" style="stop-color:#ff928e"/></linearGradient><path d="M2009.4 2696.1c-58.2-71.1-154.9-44-154.9-44-115.1 35.8-194.7 42.4-248.6 30.5a280 280 0 0 0-41.9 164.3c115.5 7.6 215.7-49 261-79.7a36.5 36.5 0 0 1 50.1 8.5c11.8 16.2 21.8 36.7 14.2 53.2-14.9 32.4 21.4 54.4 27.9 43 6.5-11.5 10.8-89.1 10.8-89.1s56.2 101.6 78.3 140.8c22 39.1 69.4 19.7 69.4 19.7s-8-176-66.3-247.2" style="fill:url(#c)"/><linearGradient id="d" x1="919.1" x2="-281.8" y1="3214.9" y2="4088.3" gradientTransform="rotate(-16.4 -3188.4 447)" gradientUnits="userSpaceOnUse"><stop offset="0" style="stop-color:#3b82f6"/><stop offset="1" style="stop-color:#2563eb"/></linearGradient><path d="M815.3 1935.7s249.4-196.5 903.6 83c0 0 70.7 78 46.6 173-24.1 95.2-364.8 624.3-363.1 861.6 0 0-246.2 168.6-589.4 41.8 0 0-154.5-616.3 2.3-1159.4" style="fill:url(#d)"/><linearGradient id="e" x1="1037.1" x2="1465.7" y1="2320.8" y2="1751.6" gradientUnits="userSpaceOnUse"><stop offset="0" style="stop-color:#febbba"/><stop offset="1" style="stop-color:#ff928e"/></linearGradient><path d="m1344.5 1670-89.5 209.7c-8.9 20.9-5 45 10.2 61.8 31 33.7 93.7 77.5 193 39.7a89 89 0 0 0 56.2-68.6l38-229.9z" style="fill:url(#e)"/><linearGradient id="f" x1="746.9" x2="-454" y1="2978.1" y2="3851.5" gradientTransform="rotate(-16.4 -3188.4 447)" gradientUnits="userSpaceOnUse"><stop offset="0" style="stop-color:#3b82f6"/><stop offset="1" style="stop-color:#2563eb"/></linearGradient><path d="M809.2 2722.8c-72.2-124 172.5-520 172.5-520l-166.4-267.1S238 2625 534.3 2955.5c42.4 47.4 88.6 75.7 136.6 89.6 12-172.6 83-271.1 138.3-322.3" style="fill:url(#f)"/><linearGradient id="g" x1="1386.1" x2="906.2" y1="2167.1" y2="2443.9" gradientUnits="userSpaceOnUse"><stop offset="0" style="stop-color:#1e3a8a"/><stop offset="1" style="stop-color:#1e40af"/></linearGradient><path d="M803.2 2722.7c-3.5 1-7.4-.4-9.4-3.8-73.8-126.8 162.6-512 172.7-528.4a8.2 8.2 0 0 1 14 8.7C978 2203 739 2592.3 808 2710.7a8.2 8.2 0 0 1-4.8 12" style="fill:url(#g)"/><linearGradient id="h" x1="1057.7" x2="-298.9" y1="3088.8" y2="5446.2" gradientTransform="rotate(-4 -2756.1 -81.5)" gradientUnits="userSpaceOnUse"><stop offset="0" style="stop-color:#febbba"/><stop offset="1" style="stop-color:#ff928e"/></linearGradient><path d="M1389.5 2709.2c-44.3 12.2-85.5 34.3-130 45.6-49.4 12.6-98.2 27.3-148 38.5-77.4 17.5-179.2 37.4-247.2-15.8-5.8-4.4-51.9-56.6-55.1-54.7-123.4 71.3-147.4 238-147.4 318.8 225 123 579-116.5 674.3-186.6a75 75 0 0 1 54.3-13.8c39 5.3 106.2 12.5 141.7 4.5 51.8-11.6 139.7 168 220.7 105.2 0 0-94.7-316.2-363.3-241.7" style="fill:url(#h)"/><linearGradient id="i" x1="1720.1" x2="1283" y1="1512.4" y2="1846.9" gradientTransform="rotate(6.4 1527.4 741.3)" gradientUnits="userSpaceOnUse"><stop offset="0" style="stop-color:#febbba"/><stop offset="1" style="stop-color:#ff928e"/></linearGradient><path d="M1634.5 1373.6s56.6 183 51.5 275.2 8 153.8-100 160.5-191.4-56.1-229.6-152.8c0 0-60-149-36.6-204.8 23.4-55.7 314.7-78.1 314.7-78.1" style="fill:url(#i)"/><linearGradient id="j" x1="1413" x2="1808.8" y1="1248.4" y2="1758" gradientTransform="rotate(6.4 1527.4 741.3)" gradientUnits="userSpaceOnUse"><stop offset="0" style="stop-color:#1e3a8a"/><stop offset="1" style="stop-color:#1e40af"/></linearGradient><path d="m1400 1595 13.3 1.4s-42.5-119.3 8.2-133.8 247.1-32.2 296.2-95.7c47.2-61.3 21-150.1-29.6-179.8a7 7 0 0 0-9.4 2.3l-5.4 7.9a7.2 7.2 0 0 1-13.1-2.9c-1-6-8.9-8.2-12.7-3.4-15 19-53 48.3-147 55-133.4 9.6-225.7 52.8-238 143a7.2 7.2 0 0 1-11.7 4.6c-9-7-24.1-11.4-46.7 3.6-39.3 26.2-33.3 106.1 38.2 179.3 3.4 3.5 2.7 9.3-1.7 11.5-15.3 7.7-39 27.4 12.8 63 53 36.4 86.8 36.8 99.7 35a7 7 0 0 0 6.3-6.8l4-80.6a7 7 0 0 1 8-6.9z" style="fill:url(#j)"/><linearGradient id="k" x1="1665.9" x2="1228.8" y1="1441.6" y2="1776" gradientTransform="rotate(6.4 1527.4 741.3)" gradientUnits="userSpaceOnUse"><stop offset="0" style="stop-color:#febbba"/><stop offset="1" style="stop-color:#ff928e"/></linearGradient><path d="M1401.4 1612s-16.6-114.7-70-89c-53.5 25.7 12 127.8 51.7 136.5z" style="fill:url(#k)"/><linearGradient id="l" x1="12820.8" x2="12126.1" y1="3602.4" y2="3792.8" gradientTransform="rotate(-178.1 7339.6 -285.3)scale(1.0536 -1)" gradientUnits="userSpaceOnUse"><stop offset="0" style="stop-color:#1e3a8a"/><stop offset="1" style="stop-color:#1e40af"/></linearGradient><path d="M1225.8 3056.8h2.1l908.2-14a39.4 39.4 0 0 0 39.8-39.2 39.7 39.7 0 0 0-41.4-38l-908.2 14a39.4 39.4 0 0 0-39.8 39.3 40 40 0 0 0 39.3 38" style="fill:url(#l)"/><linearGradient id="m" x1="1563.4" x2="1221.9" y1="1478.3" y2="1938.1" gradientUnits="userSpaceOnUse"><stop offset="0" style="stop-color:#3b82f6"/><stop offset="1" style="stop-color:#2563eb"/></linearGradient><path d="M1579.3 1727.2c-161.8 13.8-294.2-113-295-114.8v-28.6c.8 1.8 140.3 142.6 294.1 129.6z" style="fill:url(#m)"/><linearGradient id="n" x1="1697" x2="1493.8" y1="1599.7" y2="1865.3" gradientUnits="userSpaceOnUse"><stop offset="0" style="stop-color:#3b82f6"/><stop offset="1" style="stop-color:#2563eb"/></linearGradient><path d="M1645.3 1720.2c0 10.8-7.8 19.5-17.4 19.5h-46.3c-9.6 0-17.3-8.7-17.3-19.5 0-10.7 7.7-19.5 17.3-19.5h46.3c9.6 0 17.4 8.8 17.4 19.5" style="fill:url(#n)"/><linearGradient id="o" x1="2039.2" x2="525.5" y1="1364.2" y2="1614.3" gradientTransform="rotate(-9.7 760.8 1935.7)" gradientUnits="userSpaceOnUse"><stop offset="0" style="stop-color:#3b82f6"/><stop offset="1" style="stop-color:#2563eb"/></linearGradient><path d="M1366.9 1440.1s-37-197.1 191-198.3c3.1 0 3.6-4.5.6-5.2-62.5-14.4-243.7-35.7-246.5 201 34.8 12.4 54.9 2.5 54.9 2.5" style="fill:url(#o)"/><linearGradient id="p" x1="1489.5" x2="1322.1" y1="1308.8" y2="1572.2" gradientUnits="userSpaceOnUse"><stop offset="0" style="stop-color:#3b82f6"/><stop offset="1" style="stop-color:#2563eb"/></linearGradient><path d="M1325.1 1416c-89 18.1-78 130.6-78 130.6-6.4 81.6 17.4 122.1 48 141.4a70.2 70.2 0 0 0 107.5-54.3c1.6-22.2 3.5-43.3 5.2-50.8 4-18.2 6.3-184.9-82.7-166.8" style="fill:url(#p)"/><linearGradient id="q" x1="1332.4" x2="1033.3" y1="1568.7" y2="968.2" gradientUnits="userSpaceOnUse"><stop offset="0" style="stop-color:#3b82f6"/><stop offset="1" style="stop-color:#2563eb"/></linearGradient><path d="M1333.3 1444.5a40.4 40.4 0 0 0-44.1 23.8c-53.2 123.2 12 203.3 44.1 205 33.8 1.7 33.1-160.8 26-202.4a30 30 0 0 0-26-26.4" style="fill:url(#q)"/><linearGradient id="r" x1="1857.6" x2="1896.3" y1="3507.1" y2="2654.9" gradientUnits="userSpaceOnUse"><stop offset="0" style="stop-color:#1e3a8a"/><stop offset="1" style="stop-color:#1e40af"/></linearGradient><path d="M497.2 3087.9a51 51 0 0 1 5.7-31.6c5-8.9 12.6-14 20.6-14h2702.7c10.5 0 20.2 7.7 25.9 20.4a61 61 0 0 1 2 42.2l-29.3 90.7c-6.7 20.8-21.2 34.1-37.2 34.1H542c-14.9 0-27.6-15-30.5-36z" style="fill:url(#r)"/><path d="M3187.6 3233H542c-16.5 0-30.7-16.3-33.8-38.8L494 3088.3c-1.6-12 .6-24.2 6-33.7 5.8-10 14.3-15.6 23.6-15.6h2702.7c11.9 0 22.7 8.3 29 22.3a64 64 0 0 1 2 44.6l-29.2 90.8c-7.1 22-23 36.4-40.4 36.4m-2687-145.6 14.3 105.9c2.5 19.2 14 33 27.1 33h2645.6c14.4 0 27.8-12.4 34-31.7l29.3-90.8c4.2-13 3.5-27.8-1.9-39.8-5.1-11.5-13.6-18.3-22.8-18.3H523.5c-6.8 0-13.3 4.4-17.7 12.2-4.8 8.2-6.7 19-5.2 29.5" style="fill:#93c5fd"/><linearGradient id="s" x1="2407.3" x2="2698.9" y1="2056" y2="2801.5" gradientUnits="userSpaceOnUse"><stop offset="0" style="stop-color:#1e3a8a"/><stop offset="1" style="stop-color:#1e40af"/></linearGradient><path d="M1926.4 2011c-15.3 124.7-84 631.5-103.6 776.3a33.2 33.2 0 0 0 34 37.7l1165-33.3a33 33 0 0 0 31.5-26.1l181.2-816.2a33.3 33.3 0 0 0-34.4-40.4l-1242.6 72.8c-16 .9-29.2 13.2-31.1 29.1" style="fill:url(#s)"/><linearGradient id="t" x1="2372.2" x2="2538.8" y1="2352.4" y2="3377" gradientUnits="userSpaceOnUse"><stop offset="0" style="stop-color:#1e3a8a"/><stop offset="1" style="stop-color:#1e40af"/></linearGradient><path d="m2394.7 2522.8-172.2 488.7 400.4 8.5 33.3-494.3a38.4 38.4 0 0 0-40.9-41l-187 12.5c-15.3 1-28.5 11-33.6 25.6" style="fill:url(#t)"/><path d="m2626 3023.4-3.2-.1-405-8.6 173.7-493a42 42 0 0 1 36.6-27.8l187-12.5a41.8 41.8 0 0 1 44.4 44.5zm-398.8-15.2 392.5 8.3 33.2-491a35 35 0 0 0-37.3-37.4l-187 12.4c-14 1-26 10.1-30.8 23.4z" style="fill:#93c5fd"/><linearGradient id="u" x1="2297.2" x2="2788.7" y1="2948.4" y2="3270.5" gradientUnits="userSpaceOnUse"><stop offset="0" style="stop-color:#1e3a8a"/><stop offset="1" style="stop-color:#1e40af"/></linearGradient><path d="M2060.2 3018.4a20.8 20.8 0 0 0 19.7 27.3h627c11.5 0 20.8-9.3 20.8-20.8V2998c0-11.8-9.8-21.3-21.6-20.8l-627 27c-8.7.3-16.2 6-19 14.2" style="fill:url(#u)"/><path d="M2707 3049h-627c-7.9 0-15-3.6-19.6-10s-5.8-14.2-3.4-21.6c3.1-9.5 12-16.2 22-16.6l627-26.9c6.6-.3 12.9 2 17.6 6.7a24 24 0 0 1 7.5 17.4v27a24 24 0 0 1-24.2 24m0-68.4h-.8l-627 26.9c-7.2.3-13.6 5.1-15.8 12a17.3 17.3 0 0 0 16.6 22.9h627c9.6 0 17.4-7.9 17.4-17.5V2998c0-4.8-2-9.3-5.4-12.6a17 17 0 0 0-12-4.8M1908.8 2526.5l-8.3-1 57.3-451.4a59 59 0 0 1 54.7-51.3l1073.8-64.8.5 8.3L2013 2031c-24.2 1.5-44 20-47 44z" style="fill:#93c5fd"/><path d="M1832.9 2699.3h98.5v8.3h-98.5z" style="fill:#93c5fd" transform="rotate(-82.8 1882.3 2703.5)"/><linearGradient id="v" x1="2620.8" x2="260" y1="707.5" y2="5117.8" gradientUnits="userSpaceOnUse"><stop offset="0" style="stop-color:#ff928e"/><stop offset="1" style="stop-color:#fe7062"/></linearGradient><path d="M2280.6 812v251.3a56 56 0 0 0 53.3 55.9l314.3 14.7a56 56 0 0 0 58.5-55.8V812a56 56 0 0 0-55.9-56h-314.3a56 56 0 0 0-55.9 56" style="fill:url(#v)"/><path d="m2400.6 879.6-12.3-45.3-35.8-19.5-4.8 8.7 32 17.3 38.2 140 1.2 4.1H2575c15.2 0 29.1-7.4 37.4-20.2l7-9.2a73 73 0 0 0 12.4-38.9v-37zm219.9 37a62 62 0 0 1-10.3 33.6l-6.2 10.4a36 36 0 0 1-29.1 16.8h-148.1l-8.1-29.9-15.4-56.6h217.2z" style="fill:#fff"/><path d="M2610.7 1035.7c0 2.8-2.2 5.7-5 5.7H2423c-2.7 0-5.6-4.4-5.6-7.1V948c0-1 .6-.8 1-1.5l8.5 30.8h1.8v52.7h177.1c2.8 0 5 2.9 5 5.6M2509.3 884.6h6.7v93.8h-6.7z" style="fill:#fff"/><path d="M2450.3 884.6h6.7v93.8h-6.7zM2566.8 884.6h6.7v93.8h-6.7z" style="fill:#fff"/><path d="M2405.8 912.2h217v6h-217zM2415.3 944.9h202.1v6h-202.1zM2446.4 1047.8a21.6 21.6 0 1 0 0 43.1 21.6 21.6 0 0 0 0-43.1m0 34.6a13 13 0 1 1 0-26 13 13 0 0 1 0 26M2580.3 1047.8a21.6 21.6 0 1 0 0 43.1 21.6 21.6 0 0 0 0-43.1m0 34.6a13 13 0 1 1 0-26 13 13 0 0 1 0 26M2374.7 823.5c0 5.6-4.5 10-10.1 10h-33.7c-5.6 0-10.1-4.4-10.1-10s4.5-10.2 10-10.2h33.8c5.6 0 10.1 4.6 10.1 10.2" style="fill:#fff"/><linearGradient id="w" x1="1986.4" x2="-374.4" y1="367.9" y2="4778.2" gradientUnits="userSpaceOnUse"><stop offset="0" style="stop-color:#ff928e"/><stop offset="1" style="stop-color:#fe7062"/></linearGradient><path d="M1599.3 521.4V791a60 60 0 0 0 57.1 60l337.2 15.8a60 60 0 0 0 62.8-60V521.5a60 60 0 0 0-60-60h-337.1a60 60 0 0 0-60 60" style="fill:url(#w)"/><path d="M1944.5 786.1h-232.3a31.6 31.6 0 0 1-31.6-31.6V584.6a31.6 31.6 0 0 1 31.6-31.5h232.3a31.6 31.6 0 0 1 31.6 31.5v170a31.6 31.6 0 0 1-31.6 31.5M1712.2 574c-6 0-10.8 4.8-10.8 10.7v170c0 5.9 4.9 10.7 10.8 10.7h232.3c6 0 10.8-4.8 10.8-10.8V584.6c0-5.9-4.8-10.7-10.8-10.7z" style="fill:#fff"/><path d="M1828.6 673.3q-3.2 0-6-1.9l-130.2-92.3a10.4 10.4 0 1 1 12-17l124.2 88 122.5-87a10.4 10.4 0 1 1 12 17l-128.5 91.3q-2.8 2-6 2" style="fill:#fff"/><path d="m1700 778.9-3-20.6 1.4 10.3-8.7-5.7c2.4-3.9 49.3-86 80.3-140.2a10.4 10.4 0 1 1 18 10.3l-40.1 70.3-27.8 48.4c-15 26.4-15 26.4-20.1 27.2M1956.4 778.9c-5-.8-5-.8-20.2-27.2l-27.7-48.4-40.2-70.3a10.4 10.4 0 0 1 18-10.3c31 54.2 78 136.3 80.4 140.2l-8.7 5.7z" style="fill:#fff"/><linearGradient id="x" x1="3138.9" x2="778" y1="984.8" y2="5395.1" gradientUnits="userSpaceOnUse"><stop offset="0" style="stop-color:#ff928e"/><stop offset="1" style="stop-color:#fe7062"/></linearGradient><path d="M2670.9 1358.1v237.1a53 53 0 0 0 50.2 52.7l296.6 14a53 53 0 0 0 55.2-52.7V1358a53 53 0 0 0-52.7-52.8h-296.6a53 53 0 0 0-52.7 52.8" style="fill:url(#x)"/><path d="M2746.7 1643q-6.6 0-11.2-4l-8.6-7.9c-4.1-3.8-5.9-9.6-4.8-16.5 1-6.4 4.3-13 9.4-18.6l5.7-6.2 1.2-1.3 107-107a2.6 2.6 0 1 1 3.7 3.8l-107 107-1 1-5.7 6.3a31 31 0 0 0-8.1 15.8c-.8 5 .4 9.3 3.2 11.8l8.6 8c6 5.4 18.4 2.1 27-7.3l5.8-6.3 1-1.1 85.5-101.6a2.6 2.6 0 1 1 4 3.4l-85.4 101.6-1.2 1.3-5.7 6.2a33 33 0 0 1-23.4 11.6m2.6-16.7q-4.4 0-7.5-2.8c-6-5.4-4-17 4.5-26.2q6.1-6.6 13.2-8.8c5.1-1.5 9.6-.8 12.6 2s4.1 7.2 3 12.4c-1 4.7-3.7 9.6-7.5 13.8a27 27 0 0 1-18.3 9.6m15.3-33.3q-2.1 0-3.6.6a25 25 0 0 0-10.8 7.2c-6.2 6.8-8.4 15.6-4.9 18.9 3.2 2.9 11.5 1 18.4-6.5q5-5.6 6.3-11.4c.4-2 .7-5.5-1.5-7.4a6 6 0 0 0-4-1.4m133.2-114.3q-1 0-1.7-.6a2.6 2.6 0 0 1-.3-3.7l30.8-36.6 1.9 1.1a56 56 0 0 0 71.6-9.9 62 62 0 0 0 16.3-48.6 6 6 0 0 0-4-5 6 6 0 0 0-6.5 1.7l-33.2 36.2a14 14 0 0 1-11.4 4.5l-17.9-1.6a14 14 0 0 1-12.5-11.4l-3-17.7a14 14 0 0 1 3.4-11.8l33.2-36.2a6 6 0 0 0 1.1-6.5q-1.7-3.4-5.3-3.6c-17.6-.3-34.8 7.1-47 20.4a56 56 0 0 0-3.7 72.2l1.4 1.8-40 40a2.6 2.6 0 1 1-3.7-3.8l36.8-36.7a61 61 0 0 1 5.4-77 67 67 0 0 1 51-22.2 11 11 0 0 1 10 6.8c1.7 4.2 1 8.9-2.1 12.2l-33.2 36.2a9 9 0 0 0-2.1 7.3l3 17.7a9 9 0 0 0 7.8 7l17.9 1.6c2.6.3 5.3-.8 7-2.7l33.3-36.2c3-3.4 7.6-4.5 11.9-3.1a11 11 0 0 1 7.6 9.4c2 19-4.4 38.3-17.6 52.7a61 61 0 0 1-76.3 12l-28 33.2q-.7 1-2 1" style="fill:#fff"/><path d="M2978 1644.4h-2.2a24 24 0 0 1-16.9-9l-99.2-121.5a12.4 12.4 0 0 1 1.4-17.3l19.6-17c5.1-4.5 12.8-4.1 17.4.8l106.9 114.8a24.3 24.3 0 0 1-1.8 35.1l-9.2 8c-4.5 4-10.2 6.1-16 6.1m-92.7-159.6-19.5 17a5.4 5.4 0 0 0-.7 7.7l99.3 121.5a17.3 17.3 0 0 0 25 2l9.2-8a17.3 17.3 0 0 0 1.3-25l-107-114.8a5.4 5.4 0 0 0-7.6-.4" style="fill:#fff"/><path d="m2866 1498.8-86.2-100.8q-2 0-3.7-1.3l-25.8-19.8a6 6 0 0 1-1.7-2l-11.4-22.7c-1.4-2.7-.6-6.3 2-8.6l6.5-5.6c2.6-2.3 6.2-2.7 8.8-.9l21 14.4q1 .7 1.6 1.9l16.8 27.7q1.2 2.2.6 5l88.8 99.6zm-84-106.4 84.7 99.2 8.8-6.7-87.2-98 .9-1.6q.5-1 .1-1.5l-16.7-27.7q0-.2-.2-.2l-20.9-14.5q-1-.5-2.3.6l-6.5 5.6c-.8.7-1.1 1.8-.8 2.3l11.4 22.6.2.2 25.8 19.9q.5.2 1.1.1z" style="fill:#fff"/><linearGradient id="y" x1="1506.9" x2="-854" y1="111.2" y2="4521.5" gradientUnits="userSpaceOnUse"><stop offset="0" style="stop-color:#ff928e"/><stop offset="1" style="stop-color:#fe7062"/></linearGradient><path d="M875 692.2v283.6a63 63 0 0 0 60.2 63l354.6 16.7a63 63 0 0 0 66-63V692.2a63 63 0 0 0-63-63H938.2a63 63 0 0 0-63.1 63" style="fill:url(#y)"/><path d="M1128.6 867.3a433 433 0 0 1-6.2 75.3 273 273 0 0 1-4 18.5q-2.2 9-5.5 18a86 86 0 0 1-8.2 17.1 34 34 0 0 1-6.2 7.3q-1.9 1.6-4.1 2.6a12 12 0 0 1-9.5.3q-2.3-1-4.2-2.5-3.7-3.1-6.3-7.2a83 83 0 0 1-8.4-17q-3.2-9-5.6-18-2.3-9.2-4-18.5-3.3-18.7-4.8-37.5a493 493 0 0 1-.2-75.6 418 418 0 0 1 8-56 179 179 0 0 1 8.8-27q2-4.4 4.5-8.4a31 31 0 0 1 6.2-7.2q1.9-1.6 4.1-2.4a12 12 0 0 1 9.4.2q2.2 1 4 2.5 3.7 3.1 6.3 7.1 5.4 8 8.7 16.8a173 173 0 0 1 6 18q2.5 9 4.3 18.4c4.9 24.7 6.8 50 6.9 75.2m-1.9 0a445 445 0 0 0-6.3-75q-1.7-9.2-4.1-18.3-2.4-9-5.8-18-3.2-8.8-8.4-16.7-2.5-3.9-6-7-2-1.5-4-2.4-2.1-1-4.4-1.1-2.3 0-4.5.8-2.1.9-3.9 2.4-3.5 3.1-6 7.1-2.4 4-4.3 8.3-2 4.3-3.4 8.8-3 9-5 18-2 9.3-3.5 18.6-2.9 18.6-4 37.4a579 579 0 0 0 .3 75.3 388 388 0 0 0 8.4 55.8q2.2 9 5.4 18a82 82 0 0 0 8.1 16.8q2.5 4 6 7 2 1.5 4 2.3a11 11 0 0 0 8.7-.2q2-1 3.8-2.5a33 33 0 0 0 6-7q4.8-8 8-17 3-8.8 5.3-18 2.1-9 3.8-18.4 3-18.6 4.4-37.4t1.4-37.6" style="fill:#fff"/><path d="M1089.3 1011q-3 0-5.8-1.2a20 20 0 0 1-5-3q-3.8-3-7.1-8a86 86 0 0 1-8.8-17.8q-3.1-8.2-5.7-18.4a390.2 390.2 0 0 1-9-56.6 497 497 0 0 1-.2-76.2 417 417 0 0 1 8.2-56.6 181 181 0 0 1 9-27.7 68 68 0 0 1 4.8-8.8q3.2-5.1 7-8 2.4-2.1 5-3a15 15 0 0 1 12.1.3q2.5 1 5 3 3.5 3 7 7.8a88 88 0 0 1 9 17.5q3.3 8.3 6.1 18.4 2.3 8.8 4.4 18.7a397 397 0 0 1 7 75.9c0 27.7-2.1 52.6-6.3 76q-1.8 9.9-4 18.7a181 181 0 0 1-5.7 18.5 89 89 0 0 1-8.6 17.8q-3.4 5-6.9 8a21 21 0 0 1-4.9 3.2 16 16 0 0 1-6.6 1.4m-1.9-278.6q-1.5 0-2.8.6-1.5.6-3 1.9a26 26 0 0 0-5.2 6.2 101.4 101.4 0 0 0-7.4 16.2q-2.6 8-4.8 17.8-2 8.5-3.5 18.2a408 408 0 0 0-3.9 37.2 570 570 0 0 0 .3 74.7 381 381 0 0 0 8.2 55.2q2.5 9.8 5.3 17.6 3.7 9.9 7.8 16 2.7 4 5.3 6.2 1.5 1.2 3 1.8t2.8.6 3-.7 2.9-2a29 29 0 0 0 5.2-6.3q4-6.2 7.7-16.1 2.8-7.8 5.2-17.7 2-8.4 3.8-18.1a490.1 490.1 0 0 0 5.8-74.4 442 442 0 0 0-6.3-74.3q-1.8-9.5-4-18-2.6-9.8-5.7-17.6a80 80 0 0 0-8-16 30 30 0 0 0-5.4-6.2q-1.5-1.3-3-2-1.6-.7-3-.8z" style="fill:#fff"/><path d="M1192 867.3q-.2 24.4-6.6 48.1c-4.4 15.6-11 30.6-20 44.1a127 127 0 0 1-15.3 18.8q-8.6 8.8-18.9 15.3a91 91 0 0 1-22 10 83 83 0 0 1-69.8-10q-10.3-6.5-18.9-15.2a127 127 0 0 1-15.3-18.8 155 155 0 0 1-25-68 192 192 0 0 1 0-48.6q1.5-12 4.9-23.8a155 155 0 0 1 20.1-44.2 127 127 0 0 1 15.4-18.8q8.6-8.6 18.8-15.1a91 91 0 0 1 22-10 83 83 0 0 1 69.8 10q10.2 6.5 18.8 15.2 8.5 8.6 15.3 18.8c9 13.5 15.7 28.5 20.1 44q6.4 23.7 6.5 48.2m-2.2 0q0-24.2-6.2-47.6a155 155 0 0 0-19.5-43.8q-6.5-10-15-18.8-8.3-8.7-18.4-15.2-10.2-6.5-21.8-10.1a82 82 0 0 0-47.2 0q-11.6 3.6-21.7 10.1t-18.5 15.3q-8.4 8.6-15 18.7a154 154 0 0 0-19.3 43.8 176 176 0 0 0-6.2 47.6 189 189 0 0 0 6.2 47.5 154 154 0 0 0 19.4 43.8q6.6 10 15 18.8 8.3 8.6 18.4 15.2 10.2 6.5 21.7 10a82 82 0 0 0 23.6 3.7q12.1 0 23.6-3.6t21.7-10q10.2-6.7 18.5-15.3t15-18.7a155 155 0 0 0 19.4-43.8q6.4-23.4 6.3-47.6" style="fill:#fff"/><path d="M1085.3 1011q-12.7 0-25-3.8a94 94 0 0 1-22.9-10.5A111 111 0 0 1 1018 981q-8.6-8.7-15.8-19.4a159 159 0 0 1-25.5-69.5 196 196 0 0 1 0-49.6q1.6-12.5 5-24.3a159 159 0 0 1 20.6-45.2q7-10.6 15.8-19.3a111 111 0 0 1 19.5-15.8q11-6.8 22.9-10.4A86 86 0 0 1 1133 738a111 111 0 0 1 19.5 15.7q8.6 8.7 15.8 19.4 13.5 20.1 20.5 45 6.5 23.6 6.7 49.2-.1 25.6-6.6 49a158 158 0 0 1-20.6 45.3q-7.1 10.6-15.7 19.3-9.2 9.2-19.5 15.8-11 6.9-23 10.5a87 87 0 0 1-24.9 3.7m0-279.1a78 78 0 0 0-43.4 13.1q-9.4 6-17.8 14.7a122 122 0 0 0-14.5 18.3c-8.2 12.5-14.6 27-18.9 42.7a174 174 0 0 0-6 46.6 186 186 0 0 0 6 46.6 150 150 0 0 0 19 42.7q6.5 10 14.5 18.2a101 101 0 0 0 17.8 14.7 86 86 0 0 0 20.8 9.6 78 78 0 0 0 22.5 3.5 78 78 0 0 0 22.5-3.5 86 86 0 0 0 20.9-9.6q9.2-6 17.8-14.7 8-8.1 14.5-18.2c8.3-12.5 14.7-27 19-42.7a179 179 0 0 0 0-93.2 151 151 0 0 0-19-42.8q-6.5-10-14.4-18.2a101 101 0 0 0-17.9-14.7 78 78 0 0 0-43.4-13.1" style="fill:#fff"/><path d="m960.9 812 32-.4 32-.1 64-.1 64.1.1 32 .2 32 .3h.1v.1l-32 .3-32.1.2-64 .1-64-.1-32-.2-32.1-.2h-.1z" style="fill:#fff"/><path d="m1089 816.4-96.1-.3-33.6-.3-2.2-2.2V812l.1-3.6 3.7-.2 64-.4 64.1-.1 96 .3 35.7.3.1 7.4-3.8.1-64 .5zM998 758l22.8-.2 22.7-.1 22.7-.1h68.2l22.8.2 22.7.3v.2l-22.7.3-22.8.1-45.4.2h-22.8l-22.7-.1-22.7-.2-22.8-.2q0 0 0-.2z" style="fill:#fff"/><path d="m1089 762.6-28.7-.1h-16.8l-30.3-.3q-7.7 0-15.2-.2h-3.6l-.2-7.5 3.8-.1 14.7-.2 30.8-.2h16l29.5-.1 76.5.4 14.5.1 3.7.1-.2 7.4h-3.6q-7.5.2-15.1.3l-30.3.2zM949.8 865.7l34.8-.2 34.8-.2h139.2l34.8.2 34.8.3v.2l-34.8.3-34.8.1-69.6.1h-69.6l-34.8-.2-34.8-.3-.2-.1z" style="fill:#fff"/><path d="m1089 870.2-104.4-.2-38.5-.3-.1-7.5 3.7-.1 69.7-.4 69.6-.2 104.4.3 36.3.3 2.2 2.3-.1 5.2h-3.6l-69.6.5zM960.9 919.6l32-.3 32-.1 64-.2 64.1.2 32 .1 32 .3h.1v.2l-32 .3-32.1.1-64 .2-64-.1-32-.2-32.1-.2-.1-.2z" style="fill:#fff"/><path d="m1089 924-96.1-.2-33.6-.3-2.2-2.2v-1.7l.1-3.6 3.7-.1 64-.4 64.1-.1 96 .3 35.7.3.1 7.4-3.8.1-64 .4zM1184.5 974h-181.9a.5.5 0 0 1 0-1h181.9q.4.1.5.5-.1.5-.5.5" style="fill:#fff"/><path d="M1184.5 977.7h-181.9a4.2 4.2 0 0 1 0-8.3h181.9a4.2 4.2 0 0 1 0 8.3" style="fill:#fff"/><path d="M1089 1013.8a149 149 0 0 1-149.6-148c0-81.5 67.1-147.8 149.6-147.8s149.5 66.3 149.5 147.9-67 147.9-149.5 147.9m0-282.7A136 136 0 0 0 952.5 866c0 74.3 61.2 134.8 136.5 134.8s136.4-60.5 136.4-134.8S1164.2 731 1089 731" style="fill:#fff"/><path d="M1232.7 746.2h-43v-11.1l14.3-20.2q6-8.2 8-12.3 2.2-4 3.3-7.7t1-7.7q0-4.5-2-6.9a7 7 0 0 0-5.4-2.3q-2.9 0-5.4 1.6-2.5 1.5-6.1 5.5l-8.3-8.8q5.8-6.5 10.6-8.9a24 24 0 0 1 10.7-2.4 20 20 0 0 1 15.2 5.7 22 22 0 0 1 5.4 15.8 37 37 0 0 1-4 17q-2 4-5 8.6t-15.5 20.4v.5h26.2zM1288 729.4h-8.2v16.8h-14v-16.8h-26.1v-12.1l24.2-51.2h16v51h8zm-22.2-12.3v-16.9l.3-7.4.4-7.2h-.5q-1.9 6-4.1 10.8l-9.7 20.7z" style="fill:#fff"/></svg>