<svg xmlns="http://www.w3.org/2000/svg" xml:space="preserve" viewBox="0 0 3710 3710"><linearGradient id="a" x1="3589" x2="1108.6" y1="4065.3" y2="984.8" gradientUnits="userSpaceOnUse"><stop offset="0" style="stop-color:#dbeafe"/><stop offset="1" style="stop-color:#eff6ff"/></linearGradient><path d="M2906.6 2850.5c-57 60-110.9 98.6-153.5 129.2-500.6 359.2-1093 254.5-1219 229-185.9-37.8-545.3-110.8-805.1-416.4-393.1-462.2-331.9-1190.5-27-1671.3 55.8-88 350.4-576 949.2-654.3 362.4-47.4 784.8 48.2 1090.7 304.5 642.2 538 596.5 1624.8 164.7 2079.3" style="fill:url(#a)"/><circle cx="1660.7" cy="1824.9" r="1074.3" style="fill:#bfdbfe" transform="rotate(-45 1660.7 1824.9)"/><linearGradient id="b" x1="2459.4" x2="395" y1="764.4" y2="3505.3" gradientUnits="userSpaceOnUse"><stop offset="0" style="stop-color:#3b82f6"/><stop offset="1" style="stop-color:#2563eb"/></linearGradient><circle cx="1660.7" cy="1824.9" r="916.9" style="fill:url(#b)"/><path d="M1660.7 2787.7c-530.9 0-962.8-432-962.8-962.8S1129.8 862 1660.7 862s962.8 432 962.8 962.8-432 962.8-962.8 962.8m0-1879.7c-505.6 0-916.9 411.3-916.9 916.9s411.3 916.9 916.9 916.9 916.8-411.3 916.8-917c0-505.5-411.3-916.8-916.8-916.8" style="fill:#fff"/><linearGradient id="c" x1="2459.4" x2="395" y1="764.4" y2="3505.3" gradientUnits="userSpaceOnUse"><stop offset="0" style="stop-color:#3b82f6"/><stop offset="1" style="stop-color:#2563eb"/></linearGradient><circle cx="1660.7" cy="1824.9" r="559" style="fill:url(#c)"/><path d="M1660.7 2429.8c-333.6 0-604.9-271.4-604.9-605s271.4-604.8 604.9-604.8 604.9 271.4 604.9 604.9-271.4 604.9-605 604.9m0-1118c-283 0-513 230.2-513 513s230 513.1 513 513.1c282.9 0 513-230.1 513-513s-230.1-513-513-513" style="fill:#fff"/><linearGradient id="d" x1="1847.9" x2="1733" y1="349.2" y2="1255.1" gradientUnits="userSpaceOnUse"><stop offset="0" style="stop-color:#ff928e"/><stop offset="1" style="stop-color:#fe7062"/></linearGradient><circle cx="1660.7" cy="1824.9" r="216.6" style="fill:url(#d)"/><path d="M1660.7 2087.4c-144.7 0-262.5-117.8-262.5-262.5s117.8-262.5 262.5-262.5 262.5 117.8 262.5 262.5-117.8 262.5-262.5 262.5m0-433.1c-94.1 0-170.7 76.5-170.7 170.6s76.6 170.6 170.7 170.6 170.6-76.5 170.6-170.6-76.5-170.6-170.6-170.6" style="fill:#fff"/><linearGradient id="e" x1="187.4" x2="-70.7" y1="3877.1" y2="4925.5" gradientTransform="rotate(225 363.4 2563.5)" gradientUnits="userSpaceOnUse"><stop offset="0" style="stop-color:#1e3a8a"/><stop offset="1" style="stop-color:#1e40af"/></linearGradient><path d="m2685.7 802.6 22.9 22.8-863.8 863.8-22.8-22.9z" style="fill:url(#e)"/><linearGradient id="f" x1="-32.7" x2="-111.5" y1="4097.5" y2="4943.4" gradientTransform="rotate(225 363.4 2563.5)" gradientUnits="userSpaceOnUse"><stop offset="0" style="stop-color:#1e3a8a"/><stop offset="1" style="stop-color:#1e40af"/></linearGradient><path d="M1838.2 1611.3c13-13 74.7 48.6 61.6 61.7L1671 1852.9c-8.4 6.6-19.4-4.3-12.7-12.8z" style="fill:url(#f)"/><path d="m2708 825.9 116.3 11.6L2664.7 997a247 247 0 0 1-198.7 71zM2685.3 803.1l-11.6-116.2-159.5 159.5a247 247 0 0 0-71 198.8z" style="fill:#93c5fd"/><g style="opacity:.3"><path d="M1090.6 642.3a8.3 8.3 0 0 1-11.8 0q-9.5-9.6-19.8-18.3c-3.5-2.9-4-8-1.1-11.6h.1c3-3.6 8.2-4 11.7-1q10.9 9.1 20.9 19.1a8.3 8.3 0 0 1 0 11.8m-66.9-44.1q-11.4-7.2-23.3-13.4a8.3 8.3 0 0 1 7.6-14.8q12.5 6.6 24.6 14.1a8.3 8.3 0 0 1-8.9 14.1m-63.5-30.8q-12.6-4.5-25.7-7.8a8.3 8.3 0 0 1 4.2-16.1 331 331 0 0 1 27 8.2 8.3 8.3 0 0 1-5.5 15.7m-68.7-15.8q-13.5-1.5-26.9-2a8.3 8.3 0 0 1 .5-16.5q14.2.3 28.3 2a8.3 8.3 0 0 1-2 16.5m-70.6-.1q-13.4 1.5-26.6 4a8.3 8.3 0 0 1-3.2-16.2q13.9-2.8 28-4.3a8.3 8.3 0 1 1 1.8 16.5M752.1 567q-12.8 4.4-25 9.9a8.3 8.3 0 0 1-6.8-15.2q13-5.9 26.3-10.4a8.3 8.3 0 0 1 5.5 15.7M540 791.3a8.3 8.3 0 0 1-6-10.1q3.6-13.8 8.3-27.1a8.3 8.3 0 0 1 15.7 5.5q-4.6 12.8-7.9 25.8a8.3 8.3 0 0 1-10.1 6m148.3-194q-11.3 7.2-22.2 15.2a8.3 8.3 0 0 1-10-13.3q11.5-8.4 23.4-16a8.3 8.3 0 1 1 8.8 14.1m-124 125.8a8.3 8.3 0 0 1-3.6-11.3 337 337 0 0 1 14.2-24.5 8.3 8.3 0 1 1 14 8.9 318 318 0 0 0-14.4 24.7c-2.4 3-6.7 4-10.2 2.2m68.8-82q-9.5 9.5-18.3 19.8a8.3 8.3 0 0 1-12.8-10.6l.1-.1a333 333 0 0 1 19.3-20.8 8.3 8.3 0 0 1 11.7 11.7M539 846q1.7-1.9 1.9-4.5l1.2-13a8.3 8.3 0 1 0-16.5-1.8q-.8 6.7-1.3 13.5a8.3 8.3 0 0 0 14.8 5.9" style="fill:#93c5fd"/></g><g style="opacity:.3"><path d="M620.6 1086a8 8 0 0 0-.3-10.7q-4.3-4.8-8.4-9.9A8.3 8.3 0 1 0 599 1076q4.2 5.3 8.9 10.4a8.3 8.3 0 0 0 12.6-.4M1102.5 1086.8a8.3 8.3 0 1 1-12.4-11.1q8.8-9.8 16.9-20.5a8.3 8.3 0 0 1 13.2 10 343 343 0 0 1-17.7 21.6m31.2-56.3a8.3 8.3 0 0 1-3.1-11.3q6.4-11.6 12-23.6a8.3 8.3 0 1 1 15.1 6.9 333 333 0 0 1-13.4 26c-2.5 3.1-7 4-10.6 2m-63.6 87.9q-10.6 9-22 17a8.3 8.3 0 0 1-9.7-13.5q10.8-7.6 21-16.2a8.3 8.3 0 0 1 10.7 12.7m93.2-152.8a8.3 8.3 0 0 1-5.6-10.3 315 315 0 0 0 6.5-25.7 8.3 8.3 0 1 1 16.3 3.4q-3 13.7-6.9 27a8.3 8.3 0 0 1-10.3 5.6m-153.8 193.6q-12.3 6.3-25.3 11.8a8.3 8.3 0 1 1-6.4-15.3q12.2-5.1 24-11.3a8.3 8.3 0 1 1 7.7 14.8m-68.1 26.5q-13.5 3.5-27.2 6a8.3 8.3 0 0 1-3-16.3 320 320 0 0 0 25.9-5.8 8.3 8.3 0 0 1 4.3 16m-72.2 11q-14 .6-28 0a8.3 8.3 0 0 1 .8-16.6q13.2.6 26.5 0a8.3 8.3 0 1 1 .7 16.6m-73-5q-13.7-2.5-27.2-6.1a8.3 8.3 0 1 1 4.3-16q12.8 3.4 25.9 5.8a8.3 8.3 0 1 1-3 16.3m-70-20.9q-12.9-5.4-25.2-12a8.3 8.3 0 0 1 7.7-14.6q11.7 6.1 24 11.3a8.3 8.3 0 1 1-6.6 15.3m-63.8-35.7a338 338 0 0 1-22-17.2 8.3 8.3 0 1 1 10.8-12.7 323 323 0 0 0 20.9 16.4 8.3 8.3 0 1 1-9.7 13.5M1184.9 892.6q1.6-2 1.8-4.7l.7-13.6a8.3 8.3 0 1 0-16.7-.5q0 6.6-.6 13a8.3 8.3 0 0 0 14.8 5.8" style="fill:#93c5fd"/></g><path d="M1091.4 785a4 4 0 0 0-3.3-3l-47-6a206 206 0 0 0-37.5-55.2l11.6-45.8c.4-1.6-.2-3.3-1.6-4.2l-47.4-31c-1.4-1-3.2-1-4.5 0l-37.4 29a206 206 0 0 0-65.6-12.4l-24.2-40.7a4 4 0 0 0-4.1-1.8l-55.5 11.6a4 4 0 0 0-3.1 3.3l-6 46.9a206 206 0 0 0-55.2 37.5l-45.8-11.6c-1.6-.4-3.3.3-4.2 1.7l-31 47.4c-1 1.4-1 3.2.1 4.5l29 37.4a206 206 0 0 0-12.5 65.5l-40.6 24.2a4 4 0 0 0-1.8 4.2l11.5 55.5a4 4 0 0 0 3.3 3l47 6a206 206 0 0 0 37.5 55.2l-11.7 45.8c-.4 1.6.3 3.3 1.7 4.2l47.4 31.1c1.4 1 3.2.9 4.5-.2l37.4-28.9a206 206 0 0 0 65.6 12.5l24.2 40.6a4 4 0 0 0 4 1.8l55.6-11.5a4 4 0 0 0 3-3.4l6-46.9a206 206 0 0 0 55.2-37.5l45.8 11.6c1.6.4 3.3-.2 4.2-1.6l31.1-47.5c1-1.3.9-3.2-.1-4.5l-29-37.3a206 206 0 0 0 12.5-65.6l40.6-24.2a4 4 0 0 0 1.8-4.1z" style="fill:#93c5fd"/><path d="M892 905.5a57 57 0 1 1-77.2-84.1 57 57 0 0 1 77.1 84.1m-82.3-43.8a43.8 43.8 0 1 0 87.4 3.5 43.8 43.8 0 0 0-87.4-3.5" style="fill:#bfdbfe"/><path d="M960.9 952.2q4.5-5.5 8.5-11.7a141 141 0 0 0 12.6-23.9v-.2l.4-.8.6-1.6a3.3 3.3 0 1 0-6.2-2.4q-5.1 13.3-13 25.3a133.5 133.5 0 1 1 8.5-131.5q.3.8 1 1.2a3.3 3.3 0 0 0 5-4 140 140 0 0 0-49.3-56.2 140.4 140.4 0 0 0-214.1 145.8 139 139 0 0 0 60.4 88.7 139 139 0 0 0 105.4 20c31.9-6.6 60-23.7 80.2-48.7" style="fill:#bfdbfe"/><g style="opacity:.3"><path d="M1440 559.2a5 5 0 0 0 .2-6.1q-3.7-5.4-7.8-10.6a5.1 5.1 0 0 0-8 6.3l7.4 10.1a5 5 0 0 0 8.2.3M1414.3 529.3c-2 2-5.2 2-7.3 0a213 213 0 0 0-19.5-17.2 5 5 0 0 1-1-7.2c1.8-2 5-2.6 7.3-1a239 239 0 0 1 20.5 18.1 5 5 0 0 1 0 7.3m-48.4-32q-11.2-6.6-23.1-11.9a5.1 5.1 0 1 1 4.1-9.4q12.5 5.6 24.3 12.6a5.1 5.1 0 0 1-5.3 8.8m-47.6-20.9q-12.5-3.8-25.4-5.9a5.1 5.1 0 0 1 1.7-10.1q13.6 2.3 26.7 6.2a5.1 5.1 0 0 1-3 9.8m-51.3-8.6q-13.1-.6-26 .5a5.1 5.1 0 0 1-.9-10.3q13.6-1 27.3-.5a5.1 5.1 0 0 1-.4 10.3m-51.9 4.1q-12.8 2.6-25.2 6.8a5.1 5.1 0 0 1-3.2-9.7q13-4.4 26.3-7.1a5.1 5.1 0 0 1 2.1 10m-49.3 16.6q-11.7 5.7-22.7 12.8a5.1 5.1 0 0 1-5.6-8.7q11.5-7.4 23.9-13.3a5.1 5.1 0 0 1 4.4 9.2m-43.7 28.2a211 211 0 0 0-19 18 5.1 5.1 0 0 1-7.4-7q9.4-10 19.8-18.9a5.1 5.1 0 0 1 6.6 7.9m-56.5 62a5 5 0 0 1-2-7 223 223 0 0 1 14.7-23 5 5 0 0 1 7.2-1.1 5 5 0 0 1 1 7.2l-1.9 2.7a213 213 0 0 0-12.5 20 5 5 0 0 1-6.5 1.3" style="fill:#93c5fd"/></g><g style="opacity:.3"><path d="M1428 821q-8.7 10.5-18.5 19.7a5.1 5.1 0 0 1-7-7.5q9.3-8.7 17.6-18.7a5.1 5.1 0 0 1 7.9 6.5m8.8-20a5 5 0 0 1-1.5-7.1q6.9-10.8 12.6-22.4a5.1 5.1 0 0 1 9.2 4.5 225 225 0 0 1-13.5 23.9 5 5 0 0 1-6.8 1m-48 56.9a223 223 0 0 1-22.5 14.5 5.1 5.1 0 0 1-5-9q11.1-6.1 21.5-13.8a5.1 5.1 0 1 1 6 8.3m72-103.5a5 5 0 0 1-3.1-6.6q4.1-12 6.9-24.7a5.1 5.1 0 0 1 10 2.1 220 220 0 0 1-7.2 26 5 5 0 0 1-6.5 3.2M1342.2 884q-12.5 5.1-25.5 8.7a5.1 5.1 0 0 1-2.7-9.9 211 211 0 0 0 24.3-8.3 5.1 5.1 0 0 1 3.9 9.5m-51.8 14.3q-13.3 1.9-26.7 2.3a5.1 5.1 0 1 1-.3-10.2q12.8-.4 25.5-2.3a5.1 5.1 0 0 1 1.5 10.2m-53.6 1.4a222 222 0 0 1-26.6-4.1 5.1 5.1 0 0 1 2.2-10 210 210 0 0 0 25.3 3.9 5.1 5.1 0 0 1-1 10.2M1477.5 701.2q1-1.2 1.1-2.8.6-6.6.7-13.1a5.1 5.1 0 0 0-10.2-.3q-.2 6.2-.7 12.5a5.1 5.1 0 0 0 9 3.7" style="fill:#93c5fd"/></g><path d="M1415.5 625.6q-.4-1.8-2.2-2l-31.4-4a138 138 0 0 0-25-37l7.7-30.6q.3-1.8-1.1-2.9l-31.7-20.8q-1.7-.9-3 .1l-25 19.4q-21.7-7.8-44-8.3l-16.1-27.2q-1-1.5-2.8-1.2l-37.2 7.7q-1.7.4-2 2.2l-4 31.4a138 138 0 0 0-37 25.1l-30.6-7.7c-1-.3-2.2.1-2.8 1l-20.8 31.8q-1 1.6.1 3l19.4 25q-7.9 21.6-8.4 43.9l-27.1 16.2c-1 .5-1.5 1.7-1.3 2.7l7.8 37.2c.2 1 1 2 2.2 2l31.4 4a138 138 0 0 0 25 37l-7.7 30.6q-.3 1.8 1.1 2.8l31.8 20.9q1.4.9 3-.2l25-19.3q21.5 7.8 43.9 8.3l16.1 27.2q1 1.5 2.8 1.2l37.2-7.7q1.7-.4 2-2.2l4-31.4a138 138 0 0 0 37-25.1l30.6 7.7q1.7.4 2.8-1l20.8-31.8q1-1.6-.1-3l-19.4-25q7.9-21.6 8.4-44l27.1-16.1q1.5-1 1.3-2.8z" style="fill:#93c5fd"/><path d="M1282.5 706.7a38.6 38.6 0 0 1-54.8-2.3 38.9 38.9 0 1 1 54.8 2.3m-47.3-9.3a28.4 28.4 0 0 0 40.4 1.7 28.4 28.4 0 0 0 1.7-40.3 28.6 28.6 0 0 0-42 38.6" style="fill:#bfdbfe"/><path d="M1330.5 739.2a99 99 0 0 0 15-25.5l.2-.8a5.1 5.1 0 1 0-9.5-3.7q-3.3 8.6-8.5 16.4l-.5.8a86 86 0 0 1-53.4 36.3h-.2l-.5.1a86 86 0 0 1-72.2-17.6 86 86 0 0 1-30-49.4 86 86 0 0 1 12.3-65 86 86 0 0 1 54.6-37.2 86 86 0 0 1 95.5 46.9 5.1 5.1 0 1 0 9.2-4.5 96.5 96.5 0 0 0-106.7-52.5 96 96 0 0 0-61.2 41.7 96 96 0 0 0-13.8 72.7 96 96 0 0 0 41.6 61.2 97 97 0 0 0 128.1-20" style="fill:#bfdbfe"/><linearGradient id="g" x1="14746" x2="14216.4" y1="3046.3" y2="3622.4" gradientTransform="rotate(.5 -186.1 -1445925.3)" gradientUnits="userSpaceOnUse"><stop offset="0" style="stop-color:#1e3a8a"/><stop offset="1" style="stop-color:#1e40af"/></linearGradient><path d="M813.6 3164.2s-5.8 31-8.8 61.7c-1.2 12 8 22.6 20 23.2 41 2 128.5 6.2 160 5.1 4.6-.1 7.8-5 6-9.4a15 15 0 0 0-7.7-8.3l-144-67.9z" style="fill:url(#g)"/><linearGradient id="h" x1="14574.1" x2="14621.1" y1="3089.1" y2="3089.1" gradientTransform="rotate(.5 -186.1 -1445925.3)" gradientUnits="userSpaceOnUse"><stop offset="0" style="stop-color:#febbba"/><stop offset="1" style="stop-color:#ff928e"/></linearGradient><path d="m809.3 3146 4 37.1s25.2 12 42.7-1l-10.1-41.5z" style="fill:url(#h)"/><linearGradient id="i" x1="14787.7" x2="14337.1" y1="2394.8" y2="3005.6" gradientTransform="rotate(.5 -186.1 -1445925.3)" gradientUnits="userSpaceOnUse"><stop offset="0" style="stop-color:#1e3a8a"/><stop offset="1" style="stop-color:#1e40af"/></linearGradient><path d="M819.2 2447.7c-2 9.7-14.8 484 33.9 697 .8 3.4-1 7-4.3 8.3-7.9 3.1-23.1 7.6-41.4 8-5.7.1-10.7-3.6-12.3-9-14-49.5-81-297.2-87.9-533.3-7.6-263.9.1-9 .1-9l7.5-163z" style="fill:url(#i)"/><linearGradient id="j" x1="14627.2" x2="14097.6" y1="2937.1" y2="3513.1" gradientTransform="rotate(.5 -186.1 -1445925.3)" gradientUnits="userSpaceOnUse"><stop offset="0" style="stop-color:#1e3a8a"/><stop offset="1" style="stop-color:#1e40af"/></linearGradient><path d="M647 3178.8s-8.8 15.6-17.7 57.2a13 13 0 0 0 11.2 15.6c13.5 1.4 34.3 3.4 51 3.4 7.7 0 13.7-6.6 12.9-14.2a109 109 0 0 0-24.8-59.9z" style="fill:url(#j)"/><linearGradient id="k" x1="14404.6" x2="14445.2" y1="3086.7" y2="3086.7" gradientTransform="rotate(.5 -186.1 -1445925.3)" gradientUnits="userSpaceOnUse"><stop offset="0" style="stop-color:#febbba"/><stop offset="1" style="stop-color:#ff928e"/></linearGradient><path d="m639.8 3131 9.8 56.3s10.1 7.6 30.3 2.3l-4.3-60.4z" style="fill:url(#k)"/><linearGradient id="l" x1="14707.4" x2="14256.8" y1="2335.5" y2="2946.4" gradientTransform="rotate(.5 -186.1 -1445925.3)" gradientUnits="userSpaceOnUse"><stop offset="0" style="stop-color:#1e3a8a"/><stop offset="1" style="stop-color:#1e40af"/></linearGradient><path d="M618.4 2460.4c-43.8 249.8 3.1 618.6 19.4 690.8 1 4.4 4.6 7.8 9 8.6 7.6 1.3 20.1 2.5 32.5-1 4.2-1.2 7.3-5 7.5-9.4 2.8-58.2 2.1-416 42.1-557 2-7.2 6.5-13.4 12.6-17.6l75.5-52.6 6.5-86.1z" style="fill:url(#l)"/><linearGradient id="m" x1="12193.8" x2="11713.9" y1="-8273.3" y2="-7918.4" gradientTransform="matrix(-1 0 0 1 -1192 0)" gradientUnits="userSpaceOnUse"><stop offset="0" style="stop-color:#ff928e"/><stop offset="1" style="stop-color:#fe7062"/></linearGradient><path d="M887.2 1988.7c-124.3-3.2-261.7 30.1-261.7 30.1-39.1 215.8-11 465.4-11 465.4 96 26.1 205-13.5 205-13.5 16.8-90.2 93.8-343.7 93.8-343.7 60.8-7 111-24 152.4-46.7-31-36.8-45.4-83.2-51.6-110.7a417 417 0 0 1-127 19.1" style="fill:url(#m)"/><linearGradient id="n" x1="14767.7" x2="15008.1" y1="1861.8" y2="1861.8" gradientTransform="rotate(.5 -186.1 -1445925.3)" gradientUnits="userSpaceOnUse"><stop offset="0" style="stop-color:#febbba"/><stop offset="1" style="stop-color:#ff928e"/></linearGradient><path d="M1256 1809.2c-12.1-14.9-27.6-8-27.6-8-19 77-115.5 138.7-214.3 168.4 6.1 27.5 20.5 74 51.6 110.7 164.3-90.4 190.3-271.1 190.3-271.1" style="fill:url(#n)"/><linearGradient id="o" x1="-4507.8" x2="-4346.5" y1="1820.6" y2="2187.5" gradientTransform="rotate(.5 -5507.9 -346195)scale(-1 1)" gradientUnits="userSpaceOnUse"><stop offset="0" style="stop-color:#febbba"/><stop offset="1" style="stop-color:#ff928e"/></linearGradient><path d="M1253 1812.9c1.2 4-13.6 10.1-22.2-6.6-.2-8-4.7-42 0-48.5 25.7-34.3 75.3-77.1 75.3-77.1 8.2 8.2 1.3 16.2 1.3 16.2l-24 24.6c4.8 9 10.8 16.7 13.6 27.6 2 8.3.6 17.1-3.6 24.6s-10 17.2-15.5 24.8c-10.4 14.4-25 14.4-25 14.4" style="fill:url(#o)"/><linearGradient id="p" x1="15006.9" x2="15074.2" y1="1699.3" y2="1595.8" gradientTransform="rotate(.5 -186.1 -1445925.3)" gradientUnits="userSpaceOnUse"><stop offset="0" style="stop-color:#febbba"/><stop offset="1" style="stop-color:#ff928e"/></linearGradient><path d="m1272.7 1737.5-21.9 18.2-7 18.3 19.2 21.6s6.9-36.3 11.8-44.1 2.4-11.7-2-14" style="fill:url(#p)"/><linearGradient id="q" x1="12227.8" x2="11747.8" y1="-8227.4" y2="-7872.5" gradientTransform="matrix(-1 0 0 1 -1192 0)" gradientUnits="userSpaceOnUse"><stop offset="0" style="stop-color:#ff928e"/><stop offset="1" style="stop-color:#fe7062"/></linearGradient><path d="m672 2139.6-46.5-120.8s-116.8 77.8-136.9 177.6c22 1.8 61.8 8 100.7 28 9-47.1 82.7-84.8 82.7-84.8" style="fill:url(#q)"/><linearGradient id="r" x1="14241.8" x2="14546" y1="2202.2" y2="2202.2" gradientTransform="rotate(.5 -186.1 -1445925.3)" gradientUnits="userSpaceOnUse"><stop offset="0" style="stop-color:#febbba"/><stop offset="1" style="stop-color:#ff928e"/></linearGradient><path d="M772.3 2253.8s-131 72.4-174.4 9.1c-9-13.1-11-26.1-8.6-38.5a275 275 0 0 0-100.7-28 138 138 0 0 0 14.1 94.8c75.7 141.6 286.6-5 286.6-5z" style="fill:url(#r)"/><linearGradient id="s" x1="708.8" x2="823.7" y1="2106.1" y2="1883" gradientUnits="userSpaceOnUse"><stop offset="0" style="stop-color:#febbba"/><stop offset="1" style="stop-color:#ff928e"/></linearGradient><path d="m762.3 1886.6-40.7 114c-.6 1.9.1 4 1.9 5 10.7 6 49.3 23.6 96.4-5.6 5-3 8.3-8 9-13.8l13.8-98.8z" style="fill:url(#s)"/><linearGradient id="t" x1="5352.3" x2="5307.4" y1="8268.3" y2="8120.1" gradientTransform="rotate(-41.2 -5389.2 11031.2)" gradientUnits="userSpaceOnUse"><stop offset="0" style="stop-color:#febbba"/><stop offset="1" style="stop-color:#ff928e"/></linearGradient><path d="M849.3 1781.6s42.6 82.1 36.8 115c-6 33-59.7 30.1-106.4 2.9l-32-88.6z" style="fill:url(#t)"/><linearGradient id="u" x1="5311.8" x2="5349.4" y1="8010.1" y2="8224.5" gradientTransform="rotate(-41.2 -5389.2 11031.2)" gradientUnits="userSpaceOnUse"><stop offset="0" style="stop-color:#1e3a8a"/><stop offset="1" style="stop-color:#1e40af"/></linearGradient><path d="M782.1 1856.2c2-.9 2.7-3.2 1.6-5a88 88 0 0 1-11.9-25.7s-7.7-5 20-11.5c27.7-6.3 69.1-16.2 78-39.7 8.7-22.9-13-80.8-48.9-35.1a3.4 3.4 0 0 1-5.3 0c-5.8-7.7-20.9-23.5-42.2-14.2-20 8.7-22.3 23.2-22 30.6 0 2.1-2 3.8-4 3.4-10.1-2-34.2-4-45.7 20.7-9.4 20.2-3.5 31.8 2 37.5 1.7 1.8.9 4.8-1.6 5.6-6.6 2-15.2 7.4-14.4 22.9 1 21.4 24.8 19.7 31.6 18.8q1.9-.2 3 1c5.8 6.6 31.8 34.2 60.2 37.8 2.5.3 4.4-2 3.6-4.4l-12-36c-.5-1.6.3-3.4 2-4.1z" style="fill:url(#u)"/><linearGradient id="v" x1="5306.4" x2="5265.9" y1="8267.6" y2="8134.3" gradientTransform="rotate(-41.2 -5389.2 11031.2)" gradientUnits="userSpaceOnUse"><stop offset="0" style="stop-color:#febbba"/><stop offset="1" style="stop-color:#ff928e"/></linearGradient><path d="M787 1861.3s-30.7-21.5-33.1-3.7 27.6 26.2 42.6 19.6z" style="fill:url(#v)"/><linearGradient id="w" x1="14338.3" x2="14506.1" y1="2080.8" y2="2780" gradientTransform="translate(-13467.4)" gradientUnits="userSpaceOnUse"><stop offset="0" style="stop-color:#1e3a8a"/><stop offset="1" style="stop-color:#1e40af"/></linearGradient><path d="m745.6 2368.2 71.3-249.2a7 7 0 0 1 6.2-5.2c13-1.6 50.4-5.8 93.6-9.4 52.2-4.5 112.7-8 148.8-5 5.2.4 8.3 5.9 6 10.5-20.6 41.6-105.2 210.9-147.5 266.3a7 7 0 0 1-5.9 2.9l-165.6-1.6a7.3 7.3 0 0 1-7-9.3" style="fill:url(#w)"/><linearGradient id="x" x1="14223.3" x2="14318.4" y1="2265.8" y2="2265.8" gradientTransform="translate(-13467.4)" gradientUnits="userSpaceOnUse"><stop offset="0" style="stop-color:#febbba"/><stop offset="1" style="stop-color:#ff928e"/></linearGradient><path d="M762.8 2308s-10-40.9-6-55.4 11.9-33.1 37.8-29 56.4 15 56.4 15-1.5 19-21.2 12.9l12.2 9.4s-1.8 15.1-18.4 7l11.4 12.6s-7.2 12.4-19.4 4.5-18.1 28-52.8 23" style="fill:url(#x)"/><path d="M912 2178.8a21 21 0 1 0 41.9 0 21 21 0 0 0-42 0" style="fill:#93c5fd"/><path d="m825 2192.6 14.5-49.3c1.8-6 6.7-10.6 12.7-11.9 45.6-9.5 170.3-11.5 171.5-11.5v-5.6c-5.2 0-126.5 2-172.6 11.7-8 1.6-14.5 7.7-16.9 15.7l-14.5 49.3z" style="fill:#bfdbfe"/><linearGradient id="y" x1="5444.9" x2="5140.8" y1="1692.8" y2="2066.7" gradientTransform="rotate(-172.8 4154.7 99)scale(1 -1)" gradientUnits="userSpaceOnUse"><stop offset="0" style="stop-color:#febbba"/><stop offset="1" style="stop-color:#ff928e"/></linearGradient><path d="M2680 1821.9c2-3.8 7.6-3.2 8.7 1 4.2 15.2 14.5 41.7 36 51.2l3 1.4c1-2.9 1-6.3-1.3-9.9-6.7-10.2 5.4-24.1 5.4-24.1s.8 12.3 10.1 20c8 6.7 12 21.5 6.5 33.6-11.7 45.2-29.1 105 38.8 148.7 67.8 43.6 163.4-82.4 163.4-82.4l-47.4 150.3s-73.3 54-158.4-22-28.7-186.4-28.7-186.4-65-26.2-36.1-81.4" style="fill:url(#y)"/><linearGradient id="z" x1="-5076.7" x2="-5276.2" y1="2394.5" y2="2631.4" gradientTransform="rotate(16.2 1653.3 31629.6)" gradientUnits="userSpaceOnUse"><stop offset="0" style="stop-color:#1e3a8a"/><stop offset="1" style="stop-color:#1e40af"/></linearGradient><path d="M2962.5 1740.4s-19.7-88.2 81.3-64.8c0 0 49-8 51.6 38.3 0 0 31.6 20.8 8.4 60.8 0 0 94-36.2 134.9 46 41 82.4 3.3 127.7-36.1 139.5 0 0 32 16 16.8 52.3s-91.7 61.8-137 17.7c0 0-128.7 17-126.2-74 0 0-59.8-38.6 3-113.7 63-75.2 3.3-102 3.3-102" style="fill:url(#z)"/><linearGradient id="A" x1="3287" x2="3101.1" y1="1707.2" y2="1994.5" gradientUnits="userSpaceOnUse"><stop offset="0" style="stop-color:#ff928e"/><stop offset="1" style="stop-color:#fe7062"/></linearGradient><path d="M2957 1944.8c20.2-6 79.3-17.3 135.5 34.6a35 35 0 0 1 10 34.7c-15 55.6-54.9 219.8-20 290.9 0 0-61.5 67.9-128.7 13.2 0 0-30-131.4-69.6-189-27.2-39.8 43.5-149.5 61.4-176q4.2-6.2 11.3-8.4" style="fill:url(#A)"/><linearGradient id="B" x1="-5365.5" x2="-5349.3" y1="2812.3" y2="2696.9" gradientTransform="rotate(16.2 1653.3 31629.6)" gradientUnits="userSpaceOnUse"><stop offset="0" style="stop-color:#febbba"/><stop offset="1" style="stop-color:#ff928e"/></linearGradient><path d="M3013 1834.4s30 85 32.2 122.4c0 0-33.1 15-64.4-10.4 0 0-3.3-84.8-8-100z" style="fill:url(#B)"/><linearGradient id="C" x1="-5440" x2="-5288.1" y1="2565.1" y2="2739.7" gradientTransform="rotate(16.2 1653.3 31629.6)" gradientUnits="userSpaceOnUse"><stop offset="0" style="stop-color:#febbba"/><stop offset="1" style="stop-color:#ff928e"/></linearGradient><path d="M2971.3 1718.6s-78.6 109.9-31.6 141.8 102.8-46.2 102.8-46.2 18.2-60.1-.8-80.5-70.4-15-70.4-15" style="fill:url(#C)"/><linearGradient id="D" x1="-5172.3" x2="-5371.7" y1="2314.1" y2="2551.1" gradientTransform="rotate(16.2 1653.3 31629.6)" gradientUnits="userSpaceOnUse"><stop offset="0" style="stop-color:#1e3a8a"/><stop offset="1" style="stop-color:#1e40af"/></linearGradient><path d="M3007.6 1692.4s-36 8.5-41.1 24.8c-5 16.3 51.1 31.5 66.9 32.2l12.7 65.9s37.5-62 22.6-97.8-61-25.1-61-25.1" style="fill:url(#D)"/><linearGradient id="E" x1="-5402.1" x2="-5250.1" y1="2532.1" y2="2706.7" gradientTransform="rotate(16.2 1653.3 31629.6)" gradientUnits="userSpaceOnUse"><stop offset="0" style="stop-color:#febbba"/><stop offset="1" style="stop-color:#ff928e"/></linearGradient><path d="M3027.3 1806.2s30.6-35.4 42.7-12.4c12.2 23.1-27.5 40.4-41.2 29.1z" style="fill:url(#E)"/><linearGradient id="F" x1="4743.4" x2="5105.8" y1="3309.9" y2="2670.1" gradientTransform="rotate(.5 -1990 843039)scale(-1 1)" gradientUnits="userSpaceOnUse"><stop offset="0" style="stop-color:#febbba"/><stop offset="1" style="stop-color:#ff928e"/></linearGradient><path d="M2875.4 2593.9c.3 6-10.2 53.3-15.9 78.5a42 42 0 0 0 4.5 29.8l197.3 332q3.6 6 5.2 13c3.6 15.5 11 53.7 7.2 88.5l-10.2 21.2 44.1-10 9.6-118.6-12.5-7.6a59 59 0 0 1-24-28.1c-17.9-43.4-62.2-153.7-73.6-207.4-13-61.1-80.8-110.8-80.8-110.8l12-28.1z" style="fill:url(#F)"/><linearGradient id="G" x1="4822.4" x2="4928.3" y1="3083.7" y2="3083.7" gradientTransform="rotate(.5 -1990 843039)scale(-1 1)" gradientUnits="userSpaceOnUse"><stop offset="0" style="stop-color:#1e3a8a"/><stop offset="1" style="stop-color:#1e40af"/></linearGradient><path d="M3156.7 3106s-23.9-37.7-26.7-52.4c-2.8-14.8-10.6-40.7-25.3-33 0 0-7 71.5-4.5 99.5 2.4 27.9-31.6 27-31.6 27s-9.4 1.3-16.2 8.2c-4.7 4.7-1.4 12.9 5.3 13.3 11.1.7 28.8 1 47.3-2.6a14.5 14.5 0 0 0 11.7-13.4l4.9-82.2 30 38z" style="fill:url(#G)"/><linearGradient id="H" x1="5154.1" x2="4612" y1="2836.6" y2="3009.9" gradientTransform="rotate(.5 -1990 843039)scale(-1 1)" gradientUnits="userSpaceOnUse"><stop offset="0" style="stop-color:#febbba"/><stop offset="1" style="stop-color:#ff928e"/></linearGradient><path d="m2993.3 2646.8 8 339.2c.9 42.2-6.8 135.7-49 163.6l18.4 13.6s23-19.5 45.4-57.1c25.3-42.3 32.9-50 32.9-50l-8.4-17.2c-3.6-7.5-4.7-16-3-24.1 9-44.3 39.6-191.4 47.9-223 9.8-37.5 10.5-87.4-23.6-129.2-34.2-41.8-68.6-15.8-68.6-15.8" style="fill:url(#H)"/><linearGradient id="I" x1="4920.6" x2="5046.9" y1="3102.8" y2="3102.8" gradientTransform="rotate(.5 -1990 843039)scale(-1 1)" gradientUnits="userSpaceOnUse"><stop offset="0" style="stop-color:#1e3a8a"/><stop offset="1" style="stop-color:#1e40af"/></linearGradient><path d="M3032.4 3176.6q2.1-.1 2.6-2.2c1.4-9.9 7.2-49.6 12-59.9 5.5-11.8 23.5-61.3 0-65.5 0 0-58.3 85.1-69.4 96.6s-25.3 4-25.3 4-11 3.2-19.2 13.7c-3.9 5-.2 12.4 6.1 12.4l39.3.4c11.4.1 21.6-6.8 25.9-17.4 6.9-17.2 18.7-42.6 32.6-53.8l-7.2 68.8c-.2 1.6 1 3 2.6 3" style="fill:url(#I)"/><linearGradient id="J" x1="3434.8" x2="3130.6" y1="2168" y2="2401.2" gradientUnits="userSpaceOnUse"><stop offset="0" style="stop-color:#1e3a8a"/><stop offset="1" style="stop-color:#1e40af"/></linearGradient><path d="M2944.6 2286.1s8.8 28.2-4.8 74.7l-84.3 294.3a9 9 0 0 0 5.7 11.1c25.2 9 108.1 34.6 221.3 26.8 5.7-.4 10.4-4.4 11.7-10l38.1-171.5c20-89.7 42.3-186.4-55.8-244.8-45.2 19.3-87.3 30.7-132 19.4" style="fill:url(#J)"/><linearGradient id="K" x1="4824.3" x2="5425.6" y1="2233" y2="1545.2" gradientTransform="rotate(-172.8 4154.7 99)scale(1 -1)" gradientUnits="userSpaceOnUse"><stop offset="0" style="stop-color:#febbba"/><stop offset="1" style="stop-color:#ff928e"/></linearGradient><path d="M3100.6 1990.5s95.9 79.7 119.7 188.6c23.8 109-140.1 120.5-140.1 120.5s-22.3-24.8-48.7-16-2-43.4 28.8-43.2c31 .1 16.6 24.6 60.4 4.7 42.6-19.2 69-79-39.8-169.4a49 49 0 0 1-14.3-19.5c-21.2-53.2-4.4-88 34-65.7" style="fill:url(#K)"/><path d="M2466.2 2804.2h34.2v370h-34.2z" style="fill:#60a5fa"/><path d="M2633.2 3181.3h-299.7v-19.8c0-1.3 1.1-2.4 2.5-2.4h294.7c1.3 0 2.5 1 2.5 2.4zM2689.8 2790.6a39 39 0 0 1-39 39h-322.3a39 39 0 0 1-39-39v-35.4a39 39 0 0 1 39-39h322.2a39 39 0 0 1 39.1 39z" style="fill:#60a5fa"/><linearGradient id="L" x1="660.6" x2="600.2" y1="2897.2" y2="3015.9" gradientTransform="rotate(12.5 373.2 15624.6)scale(-1 1)" gradientUnits="userSpaceOnUse"><stop offset="0" style="stop-color:#1e3a8a"/><stop offset="1" style="stop-color:#1e40af"/></linearGradient><path d="M2180 3061.8s-110.5 47.7-104.2 97.5c0 0 114.3-21.9 134.8-54.6 20.5-32.6 9.2-51.6 9.2-51.6z" style="fill:url(#L)"/><linearGradient id="M" x1="545.8" x2="605.9" y1="2944.4" y2="2944.4" gradientTransform="rotate(12.5 373.2 15624.6)scale(-1 1)" gradientUnits="userSpaceOnUse"><stop offset="0" style="stop-color:#febbba"/><stop offset="1" style="stop-color:#ff928e"/></linearGradient><path d="m2207.2 3007.4 5.6 48.5a16 16 0 0 1-10.2 17 42 42 0 0 1-14 2.2c-8.4 0-15.9-5.5-18.1-13.6l-11-39.3z" style="fill:url(#M)"/><linearGradient id="N" x1="462.5" x2="718.1" y1="2785.2" y2="2426.9" gradientTransform="rotate(12.5 373.2 15624.6)scale(-1 1)" gradientUnits="userSpaceOnUse"><stop offset="0" style="stop-color:#1e3a8a"/><stop offset="1" style="stop-color:#1e40af"/></linearGradient><path d="M2448.8 2635.2s-203.4-9.4-304.7 49.6 5.2 342.3 5.2 342.3 26.4 5.7 64.5-14.6c0 0-54.4-207.4 40-243.5 106.1-40.6 215.9-30.7 215.9-30.7l-20.4-96.7z" style="fill:url(#N)"/><linearGradient id="O" x1="625.6" x2="416.2" y1="3017.2" y2="3291" gradientTransform="rotate(12.5 373.2 15624.6)scale(-1 1)" gradientUnits="userSpaceOnUse"><stop offset="0" style="stop-color:#1e3a8a"/><stop offset="1" style="stop-color:#1e40af"/></linearGradient><path d="M2098 3137.5c23.2-5.1 91.8-33.5 102.2-33.1s25.2 16 25.2 16 2.5 8.5-5 20.7c-17.6 13.8-55.7 39.1-100 41.9-32.5 2-52-11-63.3-23.5a91 91 0 0 1 41-22" style="fill:url(#O)"/><linearGradient id="P" x1="520.8" x2="682.5" y1="3076.5" y2="3076.5" gradientTransform="rotate(12.5 373.2 15624.6)scale(-1 1)" gradientUnits="userSpaceOnUse"><stop offset="0" style="stop-color:#3b82f6"/><stop offset="1" style="stop-color:#2563eb"/></linearGradient><path d="M2120.5 3183c44.2-2.8 82.3-28 100-41.9-5 8.3-14.7 18.3-32.7 28.5-44.7 25.2-118.7 21.6-133.3 15.9-11.8-4.6-8.1-15.6 2.6-26 11.2 12.6 30.8 25.5 63.4 23.5" style="fill:url(#P)"/><linearGradient id="Q" x1="502.3" x2="558.7" y1="2999.9" y2="2999.9" gradientTransform="rotate(12.5 373.2 15624.6)scale(-1 1)" gradientUnits="userSpaceOnUse"><stop offset="0" style="stop-color:#febbba"/><stop offset="1" style="stop-color:#ff928e"/></linearGradient><path d="M2249.7 3095c-1.6 5.7-17.8 22.9-27.1 32.5-4.5 4.5-11 6.5-17.2 5.1-4-.8-8.4-2.2-12.2-4.3a12 12 0 0 1-4.7-16.3l23.7-43z" style="fill:url(#Q)"/><linearGradient id="R" x1="370.4" x2="384.5" y1="2963.8" y2="2484.7" gradientTransform="rotate(12.5 373.2 15624.6)scale(-1 1)" gradientUnits="userSpaceOnUse"><stop offset="0" style="stop-color:#1e3a8a"/><stop offset="1" style="stop-color:#1e40af"/></linearGradient><path d="M2650.4 2618.1s17.7 126-33.6 151.7c-51.4 25.8-164 42.6-202.7 108-38.8 65.3-108.5 193.5-171.9 230.4 0 0-36.2-11.8-46.8-29.6 0 0 75.3-197.8 106.7-245.9 27.2-41.6 67-101.6 123.4-127.5 16.1-7.5 17.4-24.6 14.6-42.2l-5.2-32z" style="fill:url(#R)"/><linearGradient id="S" x1="2558.6" x2="2016.1" y1="2192.8" y2="2613.6" gradientUnits="userSpaceOnUse"><stop offset="0" style="stop-color:#ff928e"/><stop offset="1" style="stop-color:#fe7062"/></linearGradient><path d="M2174.5 2475.3c72 20.6 104.2-182 104-187l110.3 129.1s-65.8 115.7-165 128a117 117 0 0 1-64.5-9.4c13.3-21.6 16.3-43 15.2-60.7" style="fill:url(#S)"/><linearGradient id="T" x1="705.5" x2="902.4" y1="2405.7" y2="2405.7" gradientTransform="rotate(12.5 373.2 15624.6)scale(-1 1)" gradientUnits="userSpaceOnUse"><stop offset="0" style="stop-color:#febbba"/><stop offset="1" style="stop-color:#ff928e"/></linearGradient><path d="M2041.3 2409c31.3-12.9 58 12.9 58 12.9 31 31.8 55.7 47.8 75.2 53.4 1 17.7-2 39-15.2 60.7-38.7-17.8-61.3-53.7-70.7-71.6a13.5 13.5 0 0 0-17.7-6c-6.7 3.2-13.5 8-14 14.7-.8 13.2-16.4 14-16.5 9.1-.1-4.8 12-30.8 12-30.8l-50 32c-14 8.8-26-5.8-26-5.8s33.5-55.7 64.9-68.6" style="fill:url(#T)"/><linearGradient id="U" x1="1934.9" x2="2452" y1="2777" y2="2457.6" gradientUnits="userSpaceOnUse"><stop offset="0" style="stop-color:#ff928e"/><stop offset="1" style="stop-color:#fe7062"/></linearGradient><path d="M2622.6 2205s-96.7-66-330.3 53.4c0 0-24 30.5-12.8 64.9 11.3 34.3 150 220.4 155.4 307.7 0 0 94.8 55.9 217.9.5 0 0 41.3-230.6-30.2-426.5" style="fill:url(#U)"/><linearGradient id="V" x1="486.8" x2="617.5" y1="2058.2" y2="2058.2" gradientTransform="rotate(12.5 373.2 15624.6)scale(-1 1)" gradientUnits="userSpaceOnUse"><stop offset="0" style="stop-color:#febbba"/><stop offset="1" style="stop-color:#ff928e"/></linearGradient><path d="m2421.2 2120.7 38.3 74.9c3.8 7.4 3 16.4-2.3 23-10.5 13.1-32.4 30.8-70 19.4a33 33 0 0 1-22.3-23.8l-19.8-83.6z" style="fill:url(#V)"/><linearGradient id="W" x1="1966.2" x2="2483.3" y1="2827.6" y2="2508.2" gradientUnits="userSpaceOnUse"><stop offset="0" style="stop-color:#ff928e"/><stop offset="1" style="stop-color:#fe7062"/></linearGradient><path d="M2694.3 2466.6c6.5-45.6-113.8-133.8-113.8-133.8l42.1-127.8s229.6 163.9 181.3 297.7a94 94 0 0 1-29.8 43c-24.3-49.8-57.3-70.6-79.8-79.1" style="fill:url(#W)"/><linearGradient id="X" x1="781.5" x2="346.7" y1="2553.1" y2="3308.8" gradientTransform="rotate(174.4 1549.8 23.1)scale(1 -1)" gradientUnits="userSpaceOnUse"><stop offset="0" style="stop-color:#febbba"/><stop offset="1" style="stop-color:#ff928e"/></linearGradient><path d="M2526.4 2479.2s136.1 38 164.4-3.4q2.8-4.3 3.5-9.2c22.5 8.5 55.5 29.3 79.8 79.1-64.6 50.9-189.2-6.1-223-23.2a24 24 0 0 0-18-1.5c-12 3.8-32.9 9.6-44.5 9-17-1-35.3 60.5-64.2 45 0 0 13.1-105 102-95.8" style="fill:url(#X)"/><linearGradient id="Y" x1="680.5" x2="495.1" y1="-52.7" y2="192.6" gradientTransform="rotate(49.1 -1421 4352.8)scale(-1 1)" gradientUnits="userSpaceOnUse"><stop offset="0" style="stop-color:#febbba"/><stop offset="1" style="stop-color:#ff928e"/></linearGradient><path d="M2372.2 1998.3c-1.2 1-51.6 89-77.3 134a26.4 26.4 0 0 0 12.6 37.3l11.1 4.8c15.2 6.5 47.9 12 60.7 1.6l81-85.6s-60.8-115.7-88-92.1" style="fill:url(#Y)"/><linearGradient id="Z" x1="561.8" x2="756.9" y1="-67.1" y2="-67.1" gradientTransform="rotate(49.1 -1421 4352.8)scale(-1 1)" gradientUnits="userSpaceOnUse"><stop offset="0" style="stop-color:#1e3a8a"/><stop offset="1" style="stop-color:#1e40af"/></linearGradient><path d="M2483.2 2067c10-5.5 21.9-16.8 12.6-36.8-9.5-20.3-28.2-22.1-40.2-20.8a10 10 0 0 1-10.7-7.3c-.8-2.6-2.8-5-7-5.7a10 10 0 0 1-7.9-12.4 30 30 0 0 0-15-36c-30.8-18.7-59.6 8.5-67.7 32-8 23.6 26.6 42 48.7 45.7 16.8 2.9 25 22.2 28 31.4q1.3 4.5-1.2 8.5l-24.7 37.5q10 12.8 18.7 26.6 3.4-3.6 5.7-5.7c10.7-9.8 29.7-4.8 37.6-2q3.9 1.2 7.8-.7c8.5-4.4 25.7-16.8 11.6-40.2a10 10 0 0 1 3.7-14" style="fill:url(#Z)"/><linearGradient id="aa" x1="447.3" x2="578.3" y1="115.8" y2="-18.6" gradientTransform="rotate(49.1 -1421 4352.8)scale(-1 1)" gradientUnits="userSpaceOnUse"><stop offset="0" style="stop-color:#febbba"/><stop offset="1" style="stop-color:#ff928e"/></linearGradient><path d="M2407.9 2145.7s15.7-40.5 33.6-38.2 31.3 20.8 8.2 40c-28.7 23.8-41.8-1.8-41.8-1.8" style="fill:url(#aa)"/><linearGradient id="ab" x1="12793.8" x2="12537.6" y1="3172.2" y2="3242.5" gradientTransform="rotate(-2.8 -6377.7 212976.2)" gradientUnits="userSpaceOnUse"><stop offset="0" style="stop-color:#1e3a8a"/><stop offset="1" style="stop-color:#1e40af"/></linearGradient><path d="M2352.6 2565.9h-.7l-318-.4a14.2 14.2 0 1 1 0-28.4l318 .3a14.2 14.2 0 0 1 .7 28.5" style="fill:url(#ab)"/><linearGradient id="ac" x1="12547" x2="12365.2" y1="2315.9" y2="2508" gradientTransform="translate(-10487.1)" gradientUnits="userSpaceOnUse"><stop offset="0" style="stop-color:#1e3a8a"/><stop offset="1" style="stop-color:#1e40af"/></linearGradient><path d="M1748.1 2277.2H2013a51 51 0 0 1 45.7 29l122.4 259.5h-329a31 31 0 0 1-28.6-19.4l-95-240.2a21 21 0 0 1 19.7-29" style="fill:url(#ac)"/><path d="M1934.7 2410.3c5.7 17.8 1.5 35.1-9.5 38.6-11 3.6-24.5-8-30.2-25.8-5.8-17.9-1.5-35.2 9.4-38.7s24.5 8 30.3 25.9M1791 3247.8q-2.6 0-5.2-1a13 13 0 0 1-7-17L2059 2599c3-6.5 10.8-9.6 17.6-6.8 6.7 2.9 9.9 10.5 7 17L1803.3 3240a13 13 0 0 1-12.2 7.8" style="fill:#93c5fd"/><path d="M2106.7 3247.8c-5.1 0-10-3-12.2-7.8l-280.3-630.7c-2.9-6.5.3-14.1 7-17 6.8-2.8 14.7.2 17.6 6.8l280.2 630.7c3 6.5-.2 14.1-7 17q-2.6 1-5.3 1M2658.4 3247.8q-2.6 0-5.2-1a13 13 0 0 1-7-17l280.2-630.7c3-6.5 10.8-9.6 17.5-6.8 6.8 2.9 10 10.5 7 17L2670.7 3240a13 13 0 0 1-12.3 7.8" style="fill:#93c5fd"/><path d="M2974.1 3247.8c-5.2 0-10-3-12.3-7.8l-280.2-630.7c-2.9-6.5.2-14.1 7-17 6.8-2.8 14.7.2 17.6 6.8l280.2 630.7c2.9 6.5-.2 14.1-7 17q-2.6 1-5.3 1" style="fill:#93c5fd"/><path d="M3007 2579.6c.7-4.1-.3-8.4-2.7-11.6-2.4-3.3-6-5.2-9.7-5.2H1719.8c-5 0-9.5 2.9-12.2 7.5a18 18 0 0 0-1 15.6l13.9 33.5c3.1 7.6 10 12.5 17.5 12.5H2986c7 0 13-5.5 14.3-13.2z" style="fill:#93c5fd"/></svg>