<svg xmlns="http://www.w3.org/2000/svg" xml:space="preserve" viewBox="0 0 3710 3710"><linearGradient id="a" x1="3419.3" x2="1372.7" y1="3609.7" y2="1400.6" gradientUnits="userSpaceOnUse"><stop offset="0" style="stop-color:#dbeafe"/><stop offset="1" style="stop-color:#eff6ff"/></linearGradient><path d="M3134 2350.8c-281.1 657.3-1023.5 939.7-1605 891.5-158.9-13.1-478.4-39.5-727.9-275.5-479.1-453-405.3-1400.2 53.3-1957.7 59.1-71.9 468-553 1105-546.5 466.5 4.7 793.9 268.2 833.7 301a1284 1284 0 0 1 261.2 296.4c234.9 367.3 255.5 880 79.8 1290.8" style="fill:url(#a)"/><linearGradient id="b" x1="1619.3" x2="2232.7" y1="2666" y2="825.7" gradientUnits="userSpaceOnUse"><stop offset="0" style="stop-color:#1e3a8a"/><stop offset="1" style="stop-color:#1e40af"/></linearGradient><path d="M3127.8 2755.3c0 27.1-20.4 49.4-45.4 49.4H628.8c-25 0-45.4-22.3-45.4-49.4L563 1219.8c0-27.2 29.3-80.2 83.2-76.2l2398-67.6c31.3-.9 61.6 12.3 83.8 36.3 22.1 24.1 34.3 57 33.5 91z" style="fill:url(#b)"/><path d="M3083 2708c0 25.6-19.3 46.7-42.9 46.7H687.9c-23.6 0-42.9-21-42.9-46.8l-19.3-1394c2.3-83.8 69.8-114 110.8-112.2l2298.3-67.1a77 77 0 0 1 58.8 25.5c15.6 17 24.2 40 23.6 64z" style="fill:#93c5fd"/><linearGradient id="c" x1="1956.2" x2="1828.9" y1="1755.1" y2="3149.9" gradientUnits="userSpaceOnUse"><stop offset="0" style="stop-color:#1e3a8a"/><stop offset="1" style="stop-color:#1e40af"/></linearGradient><path d="M3238.2 2932.1H471.7a7.5 7.5 0 0 1-7.5-7.5v-119.9c0-4.1 3.4-7.5 7.5-7.5h2766.5c4.1 0 7.5 3.4 7.5 7.5v120c0 4-3.4 7.4-7.5 7.4" style="fill:url(#c)"/><path d="m720 1284.4 1637-38.4c26.6-.6 48.7 15.2 48.7 35v18.2c0 19-20.4 34.5-46 35l-1636.3 30.7c-25.6.5-47-14.3-48.3-33.3l-.7-10.5c-1.3-19.6 19.3-36.1 45.6-36.7" style="fill:#bfdbfe"/><linearGradient id="d" x1="2215.9" x2="2357.2" y1="1300.1" y2="1300.1" gradientUnits="userSpaceOnUse"><stop offset="0" style="stop-color:#dbeafe"/><stop offset="1" style="stop-color:#eff6ff"/></linearGradient><path d="M2356.8 1289.4a50 50 0 0 0-43-56.4 50.9 50.9 0 0 0-44.5 82.7l-50.7 39a7 7 0 0 0-.8 10.3l.5.5a6.6 6.6 0 0 0 9.3.3l46-45.4c7.4 7 16.9 11.7 27.6 13a50 50 0 0 0 55.6-44m-54 30.6c-19.9-2.5-34-21-31.4-41.3a36.7 36.7 0 0 1 40.7-32.2c20 2.5 34 21 31.5 41.3a36.7 36.7 0 0 1-40.7 32.2" style="fill:url(#d)"/><path d="m689.2 1993.6 27.3 660.4c1 22.3 32 40 69.7 39.6l801.4-6.5c37.7-.3 68-18.4 67.9-40.7l-2.8-666.6c-.1-22.8-32-41.1-70.6-40.5l-826 12.7c-37.8.6-67.8 19.2-66.9 41.6M1809.6 1409.1l502.4-6c51.4-.7 94 16 94.4 37l8.6 415c.4 21-41.5 38-92.9 37.7l-523-2.6c-29.4-.1-53.3-9.7-54-21.7l-24.5-421.2c-1.2-20.5 38.5-37.6 89-38.2M815.3 1399.6l715-6.3c73.1-.6 133.8 16.6 134.4 38.2l12.1 427.8c.7 21.6-59 39-132.1 38.8l-744.3-2.7c-41.9-.1-75.8-10-76.8-22.4l-35-434c-1.6-21.2 55-38.8 126.7-39.4M1808.4 1943.7l502.4-9.7c51.4-1 94 25.5 94.5 58.8l8.5 658.8c.4 33.2-41.5 60.2-92.9 59.8l-523-4.2c-29.4-.2-53.3-15.4-54-34.4l-24.5-668.4c-1.2-32.6 38.5-59.7 89-60.7M2546 1227.5l391.9-6.3c40-.7 73.3 16.6 73.7 38.2l6.6 428.8c.4 21.7-32.3 39.2-72.4 39l-408-2.8c-23-.1-41.6-10-42.2-22.4l-19.1-435c-1-21.2 30-38.9 69.4-39.5M2555.5 1784.7l392-5c40.1-.5 73.4 13 73.7 30l6.7 336.5c.3 17-32.4 30.7-72.5 30.5l-408-2c-23-.2-41.6-8-42.2-17.7l-19-341.3c-1-16.7 30-30.5 69.3-31" style="fill:#bfdbfe"/><path d="m2574.2 2251.9 392-5.7c40.1-.6 73.4 15 73.7 34.5l6.7 387.3c.3 19.6-32.4 35.4-72.5 35.2l-408-2.5c-23-.1-41.6-9-42.2-20.2l-19-393c-1-19.1 30-35 69.3-35.6" style="opacity:.37;fill:#fff"/><linearGradient id="e" x1="1315.6" x2="1313.4" y1="-123.9" y2="210.3" gradientTransform="rotate(-154.6 2103.1 166)scale(1 -1)" gradientUnits="userSpaceOnUse"><stop offset="0" style="stop-color:#1e3a8a"/><stop offset="1" style="stop-color:#1e40af"/></linearGradient><path d="m2625 743.4 1.4-3.1c24-50.9 64-61.4 99.1-44.7 35.2 16.6 52.3 54.1 28.2 105l-.7 1.3a329 329 0 0 0-128-58.5" style="fill:url(#e)"/><linearGradient id="f" x1="1840.5" x2="1645.6" y1="723.5" y2="1134.6" gradientTransform="rotate(61.4 415.4 4565.7)scale(-1 1)" gradientUnits="userSpaceOnUse"><stop offset="0" style="stop-color:#1e3a8a"/><stop offset="1" style="stop-color:#1e40af"/></linearGradient><path d="M2753 801.9c-24.4 50.3-80 94.3-114.7 77.8-34.5-16.4-36-85.7-13.4-136.3A329 329 0 0 1 2753 802" style="fill:url(#f)"/><linearGradient id="g" x1="1376.7" x2="1374.5" y1="-123.5" y2="210.7" gradientTransform="rotate(-154.6 2103.1 166)scale(1 -1)" gradientUnits="userSpaceOnUse"><stop offset="0" style="stop-color:#3b82f6"/><stop offset="1" style="stop-color:#2563eb"/></linearGradient><path d="M2691.6 716.3q18.2-32.2 30.9-67c4-11.7 7.6-23.6 9.5-36q1.5-9.4 1.1-19c-.3-6.3-1.7-13-5.1-18.9-3.4-6-9.3-10.5-15.7-12.6-6.5-2.2-13-2.6-19.5-2.2a31 31 0 0 0-19 7.3 27 27 0 0 0-8.2 19c-.5 6.7 1 13.3 3.1 19.5 2.4 6.1 5.4 12 10.4 17 2.6 2.4 5.6 5 10.3 5.6 2.3.3 4.9-.2 6.9-1.3a16 16 0 0 0 4.7-4.4c4.1-6.5 5-13 6-19.4a4.4 4.4 0 1 0-8.6-1.2v.2a40 40 0 0 1-4.3 15.6q-1.9 2.6-3.8 2.3c-1.5 0-3.7-1.4-5.5-3.2a39 39 0 0 1-8.7-14 41 41 0 0 1-3-16.4c.2-5.4 1.8-10.7 5.6-14 3.7-3.5 9-5.3 14.7-5.7 11.4-1.2 23.7 1.5 29.2 11.1a35 35 0 0 1 4.6 16.1 87 87 0 0 1-.7 17.8c-1.7 11.8-5 23.6-8.7 35.1-7.8 23-18 45.4-29.4 67a1.8 1.8 0 0 0 3.2 1.7" style="fill:url(#g)"/><linearGradient id="h" x1="1257" x2="1254.8" y1="-124.3" y2="209.9" gradientTransform="rotate(-154.6 2103.1 166)scale(1 -1)" gradientUnits="userSpaceOnUse"><stop offset="0" style="stop-color:#3b82f6"/><stop offset="1" style="stop-color:#2563eb"/></linearGradient><path d="M2730.6 734.5a453 453 0 0 1 33.2-65 201 201 0 0 1 21.7-29 87 87 0 0 1 13.3-11.9q7.2-5.2 15.4-6.6c10.9-1.8 20.8 6 27 15.6 3.3 4.6 5.3 9.9 5 15s-3.3 9.6-7.3 13.2a41 41 0 0 1-14.6 8 39 39 0 0 1-16.4 2.2c-2.5-.3-5-1.2-6-2.3s-1-2.1-.5-4.4c1.5-4.4 5.3-9 9.3-13.1l.1-.2a4.4 4.4 0 1 0-6.4-6c-4.3 4.8-8.7 9.7-11.2 17-.4 2-.8 4-.3 6.4.3 2.3 1.6 4.7 3.3 6.3 3.4 3.2 7.3 3.9 10.8 4.3 7 .7 13.6-.6 19.8-2.7a48 48 0 0 0 17.1-10 27 27 0 0 0 9.4-18.3 31 31 0 0 0-6.3-19.3 49 49 0 0 0-14-13.7c-5.7-3.6-13-5.4-19.8-4.2a41 41 0 0 0-17.9 8 93 93 0 0 0-13.9 12.9 206 206 0 0 0-21.8 30.1 457 457 0 0 0-32.4 66.4 1.8 1.8 0 0 0 3.4 1.4" style="fill:url(#h)"/><path d="M2700.8 758.5s-20.6 186 52.1 196.2 67.2-96.4-52.1-196.2M2700.8 758.5s-130.9 133.7-184.8 83.9c-54-49.9 32.1-113 184.8-83.9" style="opacity:.67;fill:#93c5fd"/><path d="M2689.7 765.2s-175.8 64-203-4.4c-27-68.3 78-88 203 4.4M2708 773.9s61.8 176.5 131.8 154.2c70-22.2 18.8-116-131.9-154.2" style="opacity:.67;fill:#93c5fd"/><path d="M2752 943q.8.4 1.8.4 25 0 33.3-15.5c16.2-30.4-26.4-94.6-28.2-97.3a4.4 4.4 0 0 0-7.3 4.9c11.6 17.3 39.2 66.9 27.8 88.2q-6 11-25.6 11a4.4 4.4 0 0 0-1.9 8.3" style="opacity:.78;fill:#fff"/><linearGradient id="i" x1="1309.3" x2="1561" y1="98.4" y2="98.4" gradientTransform="rotate(-154.6 2103.1 166)scale(1 -1)" gradientUnits="userSpaceOnUse"><stop offset="0" style="stop-color:#3b82f6"/><stop offset="1" style="stop-color:#2563eb"/></linearGradient><path d="M2697.3 765.9s-62-96.3-98.5-113.6c-39.3-18.6-99.2-1.2-128.6 9.5-5.8 2-5.4 10.3.4 12 67.2 19.7 145 53.3 226.7 92" style="fill:url(#i)"/><linearGradient id="j" x1="1064.7" x2="1316.4" y1="98.4" y2="98.4" gradientTransform="rotate(-154.6 2103.1 166)scale(1 -1)" gradientUnits="userSpaceOnUse"><stop offset="0" style="stop-color:#3b82f6"/><stop offset="1" style="stop-color:#2563eb"/></linearGradient><path d="M2691 762.8s113.8-12.9 150.2 4.4c39.3 18.7 63.8 76 74.2 105.6 2 5.7-4.6 10.7-9.6 7.2-57.8-39.5-133-78.4-214.8-117.2" style="fill:url(#j)"/><path d="M2891.8 852.4a4.4 4.4 0 0 0 6-5.7c-1.6-3.6-39.4-87.4-102-81.7a4.4 4.4 0 1 0 .7 8.8c56.5-5.2 92.8 75.6 93.2 76.5q.7 1.5 2.1 2.1" style="opacity:.6;fill:#fff"/><linearGradient id="k" x1="2417.7" x2="2700" y1="1988.2" y2="1988.2" gradientUnits="userSpaceOnUse"><stop offset="0" style="stop-color:#3b82f6"/><stop offset="1" style="stop-color:#2563eb"/></linearGradient><path d="m2435.6 2744-18-1141.8c-.1-12.5 12-22.8 27-22.8 24.2 0 43.8-16.4 43.8-36.7v-279c0-17.7 17.6-31.9 38.8-31.3l96.5 2.7c23.8.6 42.8 16.8 43.3 36.7l33 1472.3z" style="fill:url(#k)"/><linearGradient id="l" x1="4062.7" x2="4185.6" y1="2149" y2="2474.9" gradientTransform="translate(-1327)" gradientUnits="userSpaceOnUse"><stop offset="0" style="stop-color:#febbba"/><stop offset="1" style="stop-color:#ff928e"/></linearGradient><path d="m2703.4 2169.6.4 12.5c38.5 53.5 73.4 39.9 97.5 23.8-14.5-36-17-40-28.6-52.5-43.5 31.6-69.3 16.2-69.3 16.2" style="fill:url(#l)"/><linearGradient id="m" x1="3555.6" x2="3320" y1="270.9" y2="863.4" gradientUnits="userSpaceOnUse"><stop offset="0" style="stop-color:#ff928e"/><stop offset="1" style="stop-color:#fe7062"/></linearGradient><path d="m2878.6 2110.9-67.7-105.7c-4.4 59.6-15 115.5-38.2 148.2 11.5 12.5 14.1 16.5 28.6 52.5 60-40 77.3-95 77.3-95" style="fill:url(#m)"/><linearGradient id="n" x1="4707" x2="4851.8" y1="2969" y2="2969" gradientTransform="matrix(-1 0 0 1 7706.4 0)" gradientUnits="userSpaceOnUse"><stop offset="0" style="stop-color:#1e3a8a"/><stop offset="1" style="stop-color:#1e40af"/></linearGradient><path d="M2945 2998.2c-33.7 1.6-66.4.6-88.2-.5 19.9-14.1 65.6-44.9 103.8-57l26.3-1.7s8.9 13.6 12 44.5c-4.3 5.5-17 13-54 14.7" style="fill:url(#n)"/><linearGradient id="o" x1="-5183.2" x2="-5183.2" y1="2675.6" y2="2975.3" gradientTransform="matrix(-1 0 0 1 -2256.2 0)" gradientUnits="userSpaceOnUse"><stop offset="0" style="stop-color:#3b82f6"/><stop offset="1" style="stop-color:#2563eb"/></linearGradient><path d="m2856.6 2997.9.2-.2c21.8 1.1 54.5 2 88.2.5 36.9-1.7 49.6-9.2 54-14.7q0 2.2.4 4.4c.5 6.8-4.5 12.7-11.3 13.2-27.6 2.1-96.1 6.9-129.1 5.1-4.4-.2-6-5.8-2.4-8.3" style="fill:url(#o)"/><linearGradient id="p" x1="4452.6" x2="4520.4" y1="2969.4" y2="2969.4" gradientTransform="matrix(-1 0 0 1 7706.4 0)" gradientUnits="userSpaceOnUse"><stop offset="0" style="stop-color:#1e3a8a"/><stop offset="1" style="stop-color:#1e40af"/></linearGradient><path d="M3186.1 2989.2c2.5-15.8 6.4-38.7 9.5-44.6 4.8-9.1 21.2 0 21.2 0s11.6 5.4 16.9 14.4c3.4 5.7 12.7 22 19 33q1.1 2 1 4l-65.7 2.2a13 13 0 0 1-1.9-9" style="fill:url(#p)"/><linearGradient id="q" x1="-5500.9" x2="-5470.5" y1="2746.2" y2="3066.2" gradientTransform="matrix(-1 0 0 1 -2256.2 0)" gradientUnits="userSpaceOnUse"><stop offset="0" style="stop-color:#3b82f6"/><stop offset="1" style="stop-color:#2563eb"/></linearGradient><path d="M3253.8 2996c-.2 3.7-3.1 7-7.3 7.2l-47 1.3c-4.9.1-9.1-2.4-11.5-6.3z" style="fill:url(#q)"/><linearGradient id="r" x1="4481.3" x2="4525.3" y1="2922.7" y2="2922.7" gradientTransform="matrix(-1 0 0 1 7706.4 0)" gradientUnits="userSpaceOnUse"><stop offset="0" style="stop-color:#febbba"/><stop offset="1" style="stop-color:#ff928e"/></linearGradient><path d="M3181 2892c.7 2 9.2 43.1 12.9 61.2 1 5 5.5 8.5 10.6 8.3q4.3-.2 9.4-.8c6-.8 10.6-5.9 10.9-12 .6-15.8.9-46.2-5-58-8-16.2-38.7 1.3-38.7 1.3" style="fill:url(#r)"/><linearGradient id="s" x1="4714.4" x2="4751" y1="2919.8" y2="2919.8" gradientTransform="matrix(-1 0 0 1 7706.4 0)" gradientUnits="userSpaceOnUse"><stop offset="0" style="stop-color:#febbba"/><stop offset="1" style="stop-color:#ff928e"/></linearGradient><path d="M2992 2903.8c-3.6 0 1.5 18.9-4 37.5-1.3 4.2-4.4 7.5-8.8 7.5q-4.3 0-9.6-.3c-5.1-.4-9.3-4.4-9.7-9.5l-4.5-48.3z" style="fill:url(#s)"/><linearGradient id="t" x1="3111.4" x2="3416.8" y1="2477.1" y2="1496.8" gradientUnits="userSpaceOnUse"><stop offset="0" style="stop-color:#3b82f6"/><stop offset="1" style="stop-color:#2563eb"/></linearGradient><path d="M2890 2390.6c1.7 7.9 59.1 342.9 62.6 516.3 0 2.9 2.2 5.3 5 5.7 7.4 1 21.6 2.3 35.3-.2a4 4 0 0 0 3.5-3.8c2-32.3 18.1-305.5-1.6-434 0 0 163.3 343.6 188 438.4a5 5 0 0 0 5.1 3.7c7-.3 21.6-1.6 33.1-5.8a8.6 8.6 0 0 0 5.5-10.2c-13.9-56.7-110.8-447.5-176.6-533.6z" style="fill:url(#t)"/><linearGradient id="u" x1="2983.6" x2="3032.4" y1="2464.7" y2="2192" gradientUnits="userSpaceOnUse"><stop offset="0" style="stop-color:#3b82f6"/><stop offset="1" style="stop-color:#2563eb"/></linearGradient><path d="M2994.8 2476.7a2.1 2.1 0 0 0 1.5-3.7l-21.9-22.3a2.1 2.1 0 1 0-3 3l21.8 22.3q.6.7 1.6.7" style="fill:url(#u)"/><linearGradient id="v" x1="2739.5" x2="3035.8" y1="2158" y2="2174.9" gradientUnits="userSpaceOnUse"><stop offset="0" style="stop-color:#ff928e"/><stop offset="1" style="stop-color:#fe7062"/></linearGradient><path d="M2796.7 1971.1c42-11 119.3-28.4 181-24.5 20 1.2 23.9 20.2 24.7 34.3 9.3 164.1 23.5 301.5 47.5 386.2-53.8 21.3-107.2 31.2-159.8 23.5q-59.3-126.7-103.4-292.8s-17.3-88.3-.5-117.8q3.8-7 10.5-8.9" style="fill:url(#v)"/><linearGradient id="w" x1="4823.8" x2="4841.9" y1="2008.1" y2="1896.7" gradientTransform="matrix(-1 0 0 1 7706.4 0)" gradientUnits="userSpaceOnUse"><stop offset="0" style="stop-color:#febbba"/><stop offset="1" style="stop-color:#ff928e"/></linearGradient><path d="M2897.6 1856.2s10.6 63.2 13.8 92.4c.5 4.8-2 9.3-6.3 11.4a84 84 0 0 1-63.2 6.8 11 11 0 0 1-7.2-10.4l1.8-84.4z" style="fill:url(#w)"/><linearGradient id="x" x1="2708.8" x2="2269.3" y1="1398" y2="2070.2" gradientTransform="rotate(15.6 2776.2 1737.8)" gradientUnits="userSpaceOnUse"><stop offset="0" style="stop-color:#1e3a8a"/><stop offset="1" style="stop-color:#1e40af"/></linearGradient><path d="M2642.9 1523c1.5-.8 2-2.7 1.2-4.3l-4.3-7.6-.3.2-25.4-41c-.9-1.5-2.8-2-4.2-1l-4.8 2.9c-1.5.9-2 2.8-1 4.3l23.3 37.9c1 1.5.4 3.5-1.1 4.3l-183.6 103.6c-1.5.8-2 2.7-1.2 4.2l4.3 7.7 59.7 105.7c.9 1.5 2.8 2 4.3 1.2l4.9-2.8c1.5-.8 2-2.7 1.2-4.2l-58.2-103.1a3 3 0 0 1 1.2-4.2z" style="fill:url(#x)"/><path d="M2183.6 1481.9h436.9v99.3h-436.9z" style="fill:#60a5fa" transform="rotate(-29.4 2402 1531.5)"/><linearGradient id="y" x1="2761.4" x2="3182" y1="2009.7" y2="1429.3" gradientUnits="userSpaceOnUse"><stop offset="0" style="stop-color:#1e3a8a"/><stop offset="1" style="stop-color:#1e40af"/></linearGradient><path d="m2899.9 2473.8-28.1 14.3q-1.4.4-2-.7l-382-754.3q-.4-1.4.7-2l28.2-14.3q1.2-.5 2 .7l381.9 754.3q.4 1.2-.7 2" style="fill:url(#y)"/><ellipse cx="2211.6" cy="1638.5" rx="18.6" ry="50" style="fill:#60a5fa" transform="rotate(-29.4 2211.5 1638.5)"/><ellipse cx="2589.6" cy="1425.8" rx="18.6" ry="50" style="fill:#60a5fa" transform="rotate(-29.4 2589.5 1425.7)"/><linearGradient id="z" x1="1784" x2="1916.6" y1="17.9" y2="369.2" gradientTransform="rotate(41.2 -526 2337.8)" gradientUnits="userSpaceOnUse"><stop offset="0" style="stop-color:#febbba"/><stop offset="1" style="stop-color:#ff928e"/></linearGradient><path d="M2697.3 2171.5c-2.7-4-3.3-9-2-13.6 2.9-9 8.6-22 18.3-19.2 14.4 4.3 16.3 39.9 16.3 39.9l-3.8 22.8 4.8 11.4c-9.5-4.6-21.2-21-33.6-41.3" style="fill:url(#z)"/><linearGradient id="A" x1="3056.1" x2="2789.6" y1="2068.6" y2="2365.2" gradientUnits="userSpaceOnUse"><stop offset="0" style="stop-color:#febbba"/><stop offset="1" style="stop-color:#ff928e"/></linearGradient><path d="M3030.2 2251.8q8.9-12.3 17.6-27.2c57.5-98.6-48-249.5-48-249.5l-32.2 95.8c47.6 53 27.6 104.1 11.4 146.6-21.1 55.6-112.7 102.7-112.7 102.7l17.4 21.5s94.2-16.5 146.5-89.9" style="fill:url(#A)"/><linearGradient id="B" x1="2747" x2="3043.3" y1="2026.7" y2="2043.6" gradientUnits="userSpaceOnUse"><stop offset="0" style="stop-color:#ff928e"/><stop offset="1" style="stop-color:#fe7062"/></linearGradient><path d="M3066.4 2125.6c-1.2-76.5-62-157.8-73-172.1-.9-1-2.5-.8-3 .3l-22.8 117c9.7 22.7 7.7 36.9 17.4 57.3 26.1-3.7 50.4-3.9 76.2 1.7 2.7.6 5.2-1.5 5.2-4.2" style="fill:url(#B)"/><linearGradient id="C" x1="3075.3" x2="2808.9" y1="2085.9" y2="2382.5" gradientUnits="userSpaceOnUse"><stop offset="0" style="stop-color:#febbba"/><stop offset="1" style="stop-color:#ff928e"/></linearGradient><path d="M2866.3 2320.2c-5.4-2.7-47.3 3.4-40.9 9.2 11.3 10 11.8 17.7 0 27.2-6 4.7-19.4 11.8-23 .8-1-3-1.2-7-4.1-8.4-2.2-1-8.3 6.4-8.6 8.7-2 13.3 8.5 24.3 20.2 28.7 5.7 2.2 11.7 3 17.7 4 3.3.5 11.6 1.7 12.4 1.4q1.2-.8 2-2c2.7-3 17.4-15.3 20.5-19.4 1.8-2.2 23.7-29.9 22.6-32.5 0 0-14.3-15.4-18.8-17.7" style="fill:url(#C)"/><linearGradient id="D" x1="-7482.3" x2="-7517.3" y1="-3105.7" y2="-3221.4" gradientTransform="rotate(-138.2 -2575 522)scale(1 -1)" gradientUnits="userSpaceOnUse"><stop offset="0" style="stop-color:#febbba"/><stop offset="1" style="stop-color:#ff928e"/></linearGradient><path d="M2824.3 1788.9s-34 63.7-29.6 89.5 46.4 23.9 83 3l25.6-68.9z" style="fill:url(#D)"/><linearGradient id="E" x1="-7513.9" x2="-7484.6" y1="-3307.2" y2="-3139.9" gradientTransform="rotate(-138.2 -2575 522)scale(1 -1)" gradientUnits="userSpaceOnUse"><stop offset="0" style="stop-color:#1e3a8a"/><stop offset="1" style="stop-color:#1e40af"/></linearGradient><path d="M2876 1847.6c-1.4-.7-2-2.5-1-3.9a69 69 0 0 0 9.4-20s6-3.9-15.5-9c-21.6-5.2-53.8-13.2-60.6-31.6-6.6-18 10.8-63 38.4-27 1 1.3 3.1 1.3 4.2 0 4.5-6 16.4-18.2 33-10.8 15.5 7 17.2 18.3 17 24 0 1.7 1.4 3 3 2.7 8-1.5 26.7-2.8 35.5 16.5 7.2 15.9 2.5 24.9-1.8 29.3a2.6 2.6 0 0 0 1.2 4.3c5.1 1.6 11.7 6 11 18-.8 16.7-19.5 15.2-24.8 14.4q-1.4 0-2.3.9c-4.6 5-25 26.4-47.2 29-2 .2-3.5-1.7-2.8-3.5l9.6-28c.4-1.2-.2-2.7-1.5-3.2z" style="fill:url(#E)"/><linearGradient id="F" x1="-7518.1" x2="-7549.7" y1="-3106.3" y2="-3210.3" gradientTransform="rotate(-138.2 -2575 522)scale(1 -1)" gradientUnits="userSpaceOnUse"><stop offset="0" style="stop-color:#febbba"/><stop offset="1" style="stop-color:#ff928e"/></linearGradient><path d="M2872.2 1851.5s24.1-16.5 26-2.6c1.7 14-21.8 20.2-33.4 15z" style="fill:url(#F)"/><path d="M2799.8 3000.4a336 336 0 0 1-215.5 2.2 43 43 0 0 1-29.4-40.5v-340a633 633 0 0 0 268.9 0v345.2a35 35 0 0 1-24 33.1" style="fill:#bfdbfe"/><ellipse cx="2689.3" cy="2619.4" rx="134.4" ry="27" style="fill:#60a5fa"/><linearGradient id="G" x1="2693.8" x2="2739.2" y1="2783" y2="2446.4" gradientUnits="userSpaceOnUse"><stop offset="0" style="stop-color:#3b82f6"/><stop offset="1" style="stop-color:#2563eb"/></linearGradient><path d="M2823.8 2883.9a398 398 0 0 1-268.9 0v-135.6c90.4 22.3 180 23.4 268.9 0z" style="fill:url(#G)"/><linearGradient id="H" x1="2746.3" x2="2726.1" y1="2290.8" y2="2422.1" gradientUnits="userSpaceOnUse"><stop offset="0" style="stop-color:#3b82f6"/><stop offset="1" style="stop-color:#2563eb"/></linearGradient><path d="M2569.3 2653a22.4 22.4 0 0 0 26 15.4c7.6-1.9 14-7.8 21.9-8 8.8 0 16 7.2 21.1 14.4 9.4 13.1 16.5 27.8 21 43.3 1.5 5.2 2.9 10.6 6.5 14.6 7.7 8.5 22.4 5.8 31-1.8s13.3-18.6 19.7-28.2 16.2-18.4 27.7-17.7c3.8.2 7.5 1.5 11.4 1.7 8.5.4 16.8-5.7 19.2-13.9.7-2.5 1-5.2 2.2-7.4 4-6.8 14.2-7.5 19.5-13 3.4-3.5 4.5-8.6 8.4-12 1.5-1.3 11.7-5.5 12-6.2 1.7-5.4-4-10.4-9.3-12.7-30.9-13.8-66.2 0-99.7 4.6-33 4.6-64.4-2.9-97-2.6-18 .2-48.3 4.5-41.6 29.5" style="fill:url(#H)"/><ellipse cx="2690.9" cy="2620.2" rx="134.4" ry="27" style="fill:#60a5fa"/><linearGradient id="I" x1="2697" x2="2675.8" y1="2574.6" y2="2674.5" gradientUnits="userSpaceOnUse"><stop offset="0" style="stop-color:#1e3a8a"/><stop offset="1" style="stop-color:#1e40af"/></linearGradient><ellipse cx="2687.3" cy="2620.2" rx="110.7" ry="16.3" style="fill:url(#I)"/><path d="M1225 2973.9H498.1a42 42 0 0 1-42-42v-701.7a42 42 0 0 1 41.9-42l732.5-1.9a42 42 0 0 1 42.1 42.2l-5.8 703.7a42 42 0 0 1-42 41.7" style="fill:#60a5fa"/><path d="m1189.3 2240-649.8 4a42.6 42.6 0 0 0-42.3 42.8l4.5 590.2c.1 23 18.7 42 41.8 42.3l631.4 11.5c23.6.5 43-18.3 43.3-42l14-605.6c.3-23.9-19-43.3-42.9-43.2" style="fill:#bfdbfe"/><path d="M1162.9 2294.8v4.4c0 7-5.7 12.8-12.7 12.8H649.5c-7 0-12.8-5.7-12.8-12.8v-4.4c0-7 5.8-12.8 12.8-12.8h500.7c7 0 12.7 5.7 12.7 12.8M1107 2351.1c-.3 6.7-5.8 12-12.5 12l-437.8 8c-7.1.2-13-5.6-13-12.7v-1c0-7 5.6-12.7 12.6-12.8l437.8-7c7.4 0 13.3 6.1 13 13.5" style="opacity:.6;fill:#fff"/><path d="M1151.7 2897.5h-.4l-592.2-7.1a36 36 0 0 1-35.9-37l15.2-416.8a36 36 0 0 1 37-35.4l591.2 11.5c20 .4 36 17 35.6 36.9L1188 2862a36.4 36.4 0 0 1-36.3 35.6m-577-484.3a24 24 0 0 0-24.2 23.8l-15.2 416.7a24 24 0 0 0 24 24.6l592.1 7.1h.3c13.2 0 24-10.6 24.2-23.8l14.2-412.3a24.3 24.3 0 0 0-23.7-24.6l-591.2-11.5zm621.5 36.3" style="fill:#fff"/><path d="M1188.5 2493.6h-645a6 6 0 0 1 0-12h645a6 6 0 0 1 0 12" style="fill:#fff"/><linearGradient id="J" x1="942.7" x2="952" y1="1020.6" y2="1020.6" gradientUnits="userSpaceOnUse"><stop offset="0" style="stop-color:#febbba"/><stop offset="1" style="stop-color:#ff928e"/></linearGradient><path d="M950.7 1031.9a4.1 4.1 0 0 1-6.8-2.7q-.8-8.3-1.2-16.5a4.1 4.1 0 1 1 8.2-.4q.4 8 1.1 16.2.1 2-1.3 3.4" style="fill:url(#J)"/><linearGradient id="K" x1="943.6" x2="1638.8" y1="759.1" y2="759.1" gradientUnits="userSpaceOnUse"><stop offset="0" style="stop-color:#febbba"/><stop offset="1" style="stop-color:#ff928e"/></linearGradient><path d="M1637.5 648.7a4 4 0 0 1-5.2.3q-13.5-10-27.6-19a4.1 4.1 0 1 1 4.4-6.9q14.4 9 28 19.3a4 4 0 0 1 .4 6.3m-76-45.2c-1.2 1.1-3 1.4-4.5.7q-15.1-7-30.8-12.8a4.1 4.1 0 0 1 2.8-7.7q16 6 31.5 13a4 4 0 0 1 1 6.8m-83.6-28.7a4 4 0 0 1-3.7 1 431 431 0 0 0-32.8-6.4 4.1 4.1 0 0 1 1.3-8q16.8 2.5 33.4 6.4a4.1 4.1 0 0 1 1.8 7m-527.5 386a4.1 4.1 0 0 1-6.8-3.4q1.3-17 4-33.8a4.1 4.1 0 1 1 8.1 1.3q-2.5 16.6-4 33.1 0 1.6-1.3 2.8m439.9-397.2a4 4 0 0 1-2.9 1q-16.6-.3-33.3.5a4.1 4.1 0 0 1-.5-8.1q17-1 34-.6a4.1 4.1 0 0 1 2.7 7.2M966.4 873.8a4.1 4.1 0 0 1-6.7-4.2q4.8-16.3 10.8-32.2a4 4 0 1 1 7.7 2.8 435 435 0 0 0-10.6 31.7 4 4 0 0 1-1.2 2m335.8-303.2a4 4 0 0 1-2 1q-16.4 3-32.6 7.3a4.1 4.1 0 1 1-2-8q16.4-4.3 33.1-7.4a4.1 4.1 0 0 1 3.5 7M999.6 791.9a4.1 4.1 0 0 1-6.3-5q8-15 17.1-29.3a4.1 4.1 0 0 1 7 4.4 428 428 0 0 0-17.8 30m217.8-196.5-1.2.8a433 433 0 0 0-30.4 13.8 4.1 4.1 0 1 1-3.6-7.3 438 438 0 0 1 31-14.1 4.1 4.1 0 0 1 4.2 6.8m-78 41.6-.4.4a428 428 0 0 0-27 19.7 4 4 0 0 1-5.7-.7c-1.4-1.8-1-4.3.6-5.8q13.5-10.5 27.5-20a4.1 4.1 0 0 1 5 6.4m-90.5 81.6a4.1 4.1 0 0 1-5.8-5.7q10.9-13.1 22.8-25.2a4 4 0 0 1 5.8-.1 4 4 0 0 1 0 5.8 426 426 0 0 0-22.8 25.2" style="fill:url(#K)"/><linearGradient id="L" x1="1672.5" x2="1692.3" y1="687.1" y2="687.1" gradientUnits="userSpaceOnUse"><stop offset="0" style="stop-color:#febbba"/><stop offset="1" style="stop-color:#ff928e"/></linearGradient><path d="M1690.9 695.9a4 4 0 0 1-5.7-.2l-11.5-11.5a4 4 0 0 1 0-5.8 4 4 0 0 1 5.7-.1q6 5.8 11.7 11.7a4 4 0 0 1-.1 5.8z" style="fill:url(#L)"/><linearGradient id="M" x1="1804" x2="1812.5" y1="998.7" y2="998.7" gradientUnits="userSpaceOnUse"><stop offset="0" style="stop-color:#febbba"/><stop offset="1" style="stop-color:#ff928e"/></linearGradient><path d="M1810.9 1010a4 4 0 0 1-6.9-3.2l.3-16.3c0-2.2 1.8-4 4.1-4s4.1 1.7 4.1 4q0 8.2-.3 16.6 0 1.7-1.3 2.9" style="fill:url(#M)"/><linearGradient id="N" x1="1099.5" x2="1806.9" y1="1241.5" y2="1241.5" gradientUnits="userSpaceOnUse"><stop offset="0" style="stop-color:#febbba"/><stop offset="1" style="stop-color:#ff928e"/></linearGradient><path d="m1669.1 1314.2-2.7 2.5a4.1 4.1 0 0 1-5.5-6.1l2.7-2.4a429 429 0 0 0 21-20.4 4 4 0 0 1 5.8 0 4 4 0 0 1 .1 5.7 441 441 0 0 1-21.4 20.7M1624 1350l-.4.3a442 442 0 0 1-28.3 17.9 4.1 4.1 0 0 1-4.1-7.1q14.2-8.3 27.8-17.6a4.1 4.1 0 0 1 5 6.5m101.4-97.2a4.1 4.1 0 0 1-6-5.5q9.8-13.1 18.6-27a4.1 4.1 0 1 1 7 4.4 434 434 0 0 1-19.6 28.1m-177.7 138.9-1.1.7a436 436 0 0 1-31.3 11.9 4.1 4.1 0 0 1-2.7-7.8q15.6-5.3 30.8-11.6a4.1 4.1 0 0 1 4.3 6.8M1770 1178a4.1 4.1 0 0 1-6.4-4.7q7-14.9 12.8-30.3a4.1 4.1 0 1 1 7.7 2.9 436 436 0 0 1-13 30.8q-.5.9-1 1.3m-305.5 239.1a4 4 0 0 1-1.9 1q-16.4 3.3-33 5.3a4.1 4.1 0 1 1-1-8.2q16.3-2 32.4-5.2a4.1 4.1 0 0 1 3.5 7.1M1799 1096a4 4 0 0 1-6.7-4q4-16 6.5-32.2a4.1 4.1 0 0 1 8.1 1.3q-2.7 16.5-6.7 32.8a4 4 0 0 1-1.2 2.1M1378 1425.6a4 4 0 0 1-2.8 1q-16.6 0-33.4-1.5a4.1 4.1 0 0 1 .7-8.1q16.5 1.3 32.8 1.4a4.1 4.1 0 0 1 2.7 7.2m-86.4-9.3a4 4 0 0 1-3.6 1 443 443 0 0 1-32.5-8.2 4.1 4.1 0 1 1 2.3-7.9 389 389 0 0 0 31.9 8 4.1 4.1 0 0 1 1.9 7m-83-26.4a4 4 0 0 1-4.3.8 436 436 0 0 1-30.2-14.5 4.1 4.1 0 0 1 3.8-7.3q14.5 7.7 29.7 14.2a4 4 0 0 1 1 6.8m-75.9-42.4a4 4 0 0 1-5 .3q-13.8-9.6-26.7-20.2a4.1 4.1 0 0 1 5.2-6.4q12.7 10.5 26.2 20a4 4 0 0 1 .3 6.3" style="fill:url(#N)"/><linearGradient id="O" x1="1049" x2="1068.2" y1="1281.4" y2="1281.4" gradientUnits="userSpaceOnUse"><stop offset="0" style="stop-color:#febbba"/><stop offset="1" style="stop-color:#ff928e"/></linearGradient><path d="M1066.8 1290.5a4 4 0 0 1-5.7-.2q-5.6-6-11.1-12.3c-1.5-1.7-1.1-4.2.4-5.7a4 4 0 0 1 5.8.3q5.3 6.2 10.9 12a4 4 0 0 1-.2 5.9" style="fill:url(#O)"/><linearGradient id="P" x1="1050.2" x2="1706.5" y1="988.2" y2="988.2" gradientUnits="userSpaceOnUse"><stop offset="0" style="stop-color:#ff928e"/><stop offset="1" style="stop-color:#fe7062"/></linearGradient><path d="M1102.8 1176.4c1 2 3.2 3 5.3 2.7l62.2-9.7a274 274 0 0 0 68.4 56.8l2 62.8c.1 2.3 1.6 4.2 3.7 4.8l72.1 22.3c2.2.7 4.4-.1 5.7-1.9l37.2-50.8c30.2 2.1 60-.8 88.4-8.2l46 43c1.6 1.5 4 1.8 6 .8l66.7-35.3c2-1 3-3.1 2.7-5.3l-9.6-62.2a274 274 0 0 0 56.7-68.4l62.9-2q3.5-.3 4.7-3.7l22.3-72.1c.7-2.1 0-4.4-1.9-5.7l-50.7-37.2c2-30.2-.9-60-8.3-88.4l43-46c1.5-1.6 1.8-4 .8-6L1654 800c-1-2-3.2-3-5.4-2.7l-62.2 9.6a274 274 0 0 0-68.4-56.7l-2-62.9c-.1-2.2-1.6-4-3.7-4.7l-72.1-22.3c-2.1-.7-4.4 0-5.7 1.9l-37.2 50.7c-30.1-2-60 .9-88.4 8.3l-46-43a5 5 0 0 0-5.9-.8l-66.8 35.2c-2 1-3 3.2-2.7 5.4l9.7 62.2a274 274 0 0 0-56.8 68.4l-62.8 2a5 5 0 0 0-4.8 3.7l-22.3 72.1c-.6 2.1.1 4.4 1.9 5.7l50.8 37.2c-2.1 30.2.8 60 8.3 88.4l-43 46a5 5 0 0 0-.9 6z" style="fill:url(#P)"/><path d="M1427.4 1042.5za73 73 0 0 1-52.8 18.8 73 73 0 0 1-50.6-24.1 73.3 73.3 0 1 1 103.4 5.4m-89.9-99.5a60.5 60.5 0 0 0-4.4 86 60.5 60.5 0 0 0 86 4.4 60.5 60.5 0 0 0 4.5-86 60.5 60.5 0 0 0-86-4.5" style="opacity:.7;fill:#fff"/><path d="M1506 1127a188 188 0 0 1-218.8 24.5l6-10.7q16.5 9 34.5 14.7a176 176 0 0 0 192.8-62.6l.3-.3.2-.3a174.9 174.9 0 0 0-10.8-223.2 176.3 176.3 0 0 0-301.6 160l-12 3a188.6 188.6 0 0 1 349.6-132.7 187 187 0 0 1 13.4 143.5 187 187 0 0 1-53.6 84" style="opacity:.7;fill:#fff"/><linearGradient id="Q" x1="1796.7" x2="1815.2" y1="1102.5" y2="1102.5" gradientUnits="userSpaceOnUse"><stop offset="0" style="stop-color:#febbba"/><stop offset="1" style="stop-color:#ff928e"/></linearGradient><path d="M1798 1107q-.8-.7-1.2-1.6c-.5-1.7.4-3.5 2-4q6.2-2.1 12.4-3.8a3.2 3.2 0 0 1 1.7 6.2q-6 1.6-12 3.6-1.5.4-2.9-.4" style="fill:url(#Q)"/><linearGradient id="R" x1="1851.7" x2="2064.7" y1="1221.2" y2="1221.2" gradientUnits="userSpaceOnUse"><stop offset="0" style="stop-color:#febbba"/><stop offset="1" style="stop-color:#ff928e"/></linearGradient><path d="M2052.3 1351a3 3 0 0 1-1.3-3.6q3.7-12.7 5.6-25.6a3.2 3.2 0 1 1 6.3 1q-2 13.3-5.8 26.4a3.2 3.2 0 0 1-4.8 1.7m7.4-69.4a3 3 0 0 1-1.4-2.4q-.8-13.2-3.5-26a3.2 3.2 0 1 1 6.3-1.3 202 202 0 0 1 3.6 26.9 3.2 3.2 0 0 1-5 2.8m-206.6-184.8a3.2 3.2 0 0 1 1.6-5.8 207 207 0 0 1 27.1.7c1.8.1 3 1.7 2.9 3.4-.2 1.8-1.7 3-3.5 3a198 198 0 0 0-26.2-.7q-1 0-2-.6m189.7 117.2q-.7-.4-1-1.3a196 196 0 0 0-12.4-23.2 3.2 3.2 0 0 1 5.4-3.3 203 203 0 0 1 12.8 23.9 3.2 3.2 0 0 1-4.8 4m-120.7-108a3.2 3.2 0 0 1 2.8-5.6 202 202 0 0 1 25.2 10 3.2 3.2 0 1 1-2.7 5.7 195 195 0 0 0-25.3-10m81.5 50.4q-.2 0-.5-.4a198 198 0 0 0-19.5-17.5c-1.4-1-1.7-3-.6-4.4s3-1.6 4.5-.6a204 204 0 0 1 20.2 18 3.2 3.2 0 0 1-4.1 5" style="fill:url(#R)"/><linearGradient id="S" x1="2027.7" x2="2040.6" y1="1393.9" y2="1393.9" gradientUnits="userSpaceOnUse"><stop offset="0" style="stop-color:#febbba"/><stop offset="1" style="stop-color:#ff928e"/></linearGradient><path d="M2029.1 1402a3 3 0 0 1-.9-4.3q3.4-5.3 6.4-10.8a3 3 0 0 1 4.4-1.3c1.6.8 2 2.8 1.2 4.4q-3 5.6-6.6 11.1a3 3 0 0 1-4.5 1" style="fill:url(#S)"/><linearGradient id="T" x1="1895" x2="1913.8" y1="1487" y2="1487" gradientUnits="userSpaceOnUse"><stop offset="0" style="stop-color:#febbba"/><stop offset="1" style="stop-color:#ff928e"/></linearGradient><path d="M1896.4 1490.9a3.2 3.2 0 0 1 1.2-5.8q6.2-1 12.3-2.6a3.2 3.2 0 1 1 1.5 6.2q-6.2 1.6-12.7 2.7-1.2.3-2.3-.5" style="fill:url(#T)"/><linearGradient id="U" x1="1661.5" x2="1858.9" y1="1359.4" y2="1359.4" gradientUnits="userSpaceOnUse"><stop offset="0" style="stop-color:#febbba"/><stop offset="1" style="stop-color:#ff928e"/></linearGradient><path d="M1763.3 1468a3.2 3.2 0 0 1 3.3-5.4 194 194 0 0 0 23.3 11.3c1.6.6 2.4 2.5 1.7 4.1a3 3 0 0 1-4.1 1.8 201 201 0 0 1-24.2-11.8m-34.5-25-.4-.2q-9.9-9-18.6-19a3.2 3.2 0 1 1 4.9-4.2 197 197 0 0 0 18 18.5 3.2 3.2 0 0 1-4 5m99 48.1a3.2 3.2 0 0 1 2.3-5.8q12.8 2.3 25.7 2.7c1.8 0 3.2 1.5 3 3.3 0 1.8-1.5 3.1-3.2 3a204 204 0 0 1-26.5-2.7q-.8-.1-1.3-.5m-141.4-102q-.6-.3-1-1-6.4-11.9-11-24.3a3.2 3.2 0 0 1 6-2.3q4.5 12.1 10.6 23.5a3.2 3.2 0 0 1-4.6 4.1m-21.5-65a3 3 0 0 1-1.3-2.2 203 203 0 0 1-2.1-26.6 3.2 3.2 0 1 1 6.4 0q0 12.9 2 25.6a3.2 3.2 0 0 1-5 3.1m2-68.6q-1.6-1.2-1.4-3.3 2.8-13 7-25.7a3.2 3.2 0 1 1 6 2.1q-4.1 12.2-6.7 24.9a3.2 3.2 0 0 1-5 2" style="fill:url(#U)"/><linearGradient id="V" x1="1690.7" x2="1704" y1="1183.6" y2="1183.6" gradientUnits="userSpaceOnUse"><stop offset="0" style="stop-color:#febbba"/><stop offset="1" style="stop-color:#ff928e"/></linearGradient><path d="M1692 1191.6a3 3 0 0 1-.9-4.3q3.5-5.5 7.2-10.8c1-1.5 3-1.8 4.4-.8s1.8 3 .8 4.4q-3.6 5.2-7 10.5a3 3 0 0 1-4.4 1" style="fill:url(#V)"/><linearGradient id="W" x1="1711.3" x2="2018.5" y1="1292.7" y2="1292.7" gradientUnits="userSpaceOnUse"><stop offset="0" style="stop-color:#ff928e"/><stop offset="1" style="stop-color:#fe7062"/></linearGradient><path d="M1750.6 1189.8q-1.2 1.1-.6 2.7l11 26.8q-11.8 16.6-18 36.8l-27.8 7.8q-1.6.5-1.8 2.1l-2.1 34.8q0 1.7 1.4 2.3l26.8 11.1q3.7 20.8 13.4 38.7l-14.3 25.3q-.7 1.5.3 2.8l23 26q1.2 1.2 2.7.7l26.9-11.1q16.6 11.9 36.8 18l7.7 27.9q.6 1.6 2.2 1.7l34.7 2.1q1.6 0 2.4-1.4l11-26.8q20.8-3.7 38.8-13.4l25.3 14.3c.8.5 2 .4 2.7-.3l26-23q1.2-1.2.7-2.7l-11-26.8q11.7-16.7 17.9-36.8l28-7.8q1.5-.5 1.7-2.1l2.1-34.8q0-1.7-1.5-2.3l-26.8-11.2q-3.6-20.6-13.3-38.7l14.3-25.2q.8-1.5-.3-2.8l-23-26q-1.2-1.2-2.8-.7l-26.8 11.1q-16.6-11.8-36.8-18l-7.7-28q-.6-1.5-2.2-1.6l-34.7-2.2q-1.6 0-2.4 1.5l-11 26.8q-20.8 3.6-38.8 13.3l-25.3-14.3q-1.5-.7-2.7.3z" style="fill:url(#W)"/><path d="M1844.8 1322.2a35.4 35.4 0 0 1-9.4-49.6 35.7 35.7 0 1 1 9.4 49.6m34.8-51a26 26 0 0 0-40.4 26.4 26 26 0 0 0 30.5 20.8 26 26 0 0 0 20.9-30.5 26 26 0 0 0-11-16.7" style="opacity:.7;fill:#fff"/><path d="M1815.6 1366.7a89 89 0 0 1-35.6-97.5l9.2 2.6q-2.3 8.2-2.8 16.6-.5 9.5 1 18.3v.2a79.5 79.5 0 0 0 73.2 65.4 79 79 0 0 0 70.4-34.5 78.7 78.7 0 0 0-6.2-97 79 79 0 0 0-95.8-18l-4.4-8.4a88.6 88.6 0 0 1 129.4 84.3 88 88 0 0 1-29.8 61 88 88 0 0 1-108.6 7" style="opacity:.7;fill:#fff"/><path d="M2309.1 820.3a3 3 0 0 1-1.5-2.5l-.8-12.3a3.1 3.1 0 1 1 6.2-.5l.8 12.5a3.1 3.1 0 0 1-4.7 2.8M1855.8 1088.6q-9.3-5.7-18.2-12.1a3.1 3.1 0 1 1 3.6-5 299 299 0 0 0 21 13.7 3.1 3.1 0 0 1-3.1 5.4zm40.1 20.5a3.1 3.1 0 0 1 2.9-5.5 300 300 0 0 0 23.5 8.7c1.7.5 2.6 2.3 2 4a3 3 0 0 1-3.9 2 306 306 0 0 1-24.5-9.2m64 18.8a3.1 3.1 0 0 1 2.1-5.7q12.4 2.1 25 3.3a3.1 3.1 0 1 1-.6 6.2 304 304 0 0 1-26.6-3.8m66.4 4.2a3.1 3.1 0 0 1 1.5-5.8q12.5-.6 25-2.3a3.1 3.1 0 1 1 .9 6.1q-12.8 1.8-25.6 2.4-1 0-1.8-.4m65.7-10.8a3.1 3.1 0 0 1 .8-5.7q12-3.4 23.9-7.8c1.6-.6 3.4.2 4 1.8s-.2 3.4-1.8 4q-12 4.5-24.4 8-1.4.4-2.5-.3m61.7-25.1a3.1 3.1 0 0 1 .1-5.4q11.2-6 21.6-13a3.1 3.1 0 1 1 3.4 5.3 306 306 0 0 1-22 13.2q-1.6.7-3-.1m54.6-38.1-.7-.6c-1.1-1.3-1-3.3.3-4.4q9.5-8.4 18.2-17.4a3.1 3.1 0 1 1 4.5 4.3 302 302 0 0 1-18.6 17.7c-1 1-2.5 1-3.7.4m44.8-49.4h-.2c-1.4-1-1.7-3-.7-4.4a294 294 0 0 0 13.9-21c.8-1.5 2.8-2 4.2-1.1s2 2.8 1.1 4.2a281 281 0 0 1-14.1 21.5 3 3 0 0 1-4.2.8m32.7-58a3 3 0 0 1-1.3-3.9q5-11.6 8.8-23.6a3.1 3.1 0 0 1 6 2q-4 12.2-9 24a3 3 0 0 1-4.5 1.5m19-64q-1.7-1-1.5-3.1 2.2-12.4 3.4-25a3.1 3.1 0 1 1 6.2.6q-1.2 12.8-3.5 25.5a3 3 0 0 1-4.7 2M1805.8 1050.2l-.5-.4-8.9-9a3.1 3.1 0 0 1 4.5-4.2l8.7 8.7a3.1 3.1 0 0 1-3.8 4.9M1713.4 835.8a3 3 0 0 1-1.5-2.7q0-6.2.2-12.5a3.1 3.1 0 1 1 6.3.2l-.3 12.3a3.1 3.1 0 0 1-4.7 2.7M1718 783q-1.7-1.2-1.5-3.3 2.3-12.4 5.4-24.7a3.1 3.1 0 0 1 6 1.6q-3 12-5.3 24.2a3 3 0 0 1-4.7 2.1m18.3-63a3 3 0 0 1-1.3-3.9q4.9-11.6 10.7-22.9a3.1 3.1 0 1 1 5.5 2.9q-5.7 11-10.4 22.4a3 3 0 0 1-4.5 1.5m31.6-57.4-.1-.1c-1.4-1-1.8-3-.8-4.4a301 301 0 0 1 15.5-20 3.1 3.1 0 0 1 4.7 4 294 294 0 0 0-15.1 19.6 3 3 0 0 1-4.2.9m43.5-49-.7-.6c-1.1-1.3-1-3.3.3-4.4q9.3-8.5 19.4-16.2a3.1 3.1 0 1 1 3.8 5q-10 7.5-19 15.8-1.8 1.4-3.8.3m53.2-38.4-1-1.1a3 3 0 0 1 1-4.3 304 304 0 0 1 22.6-11.5 3.1 3.1 0 1 1 2.6 5.6 297 297 0 0 0-22 11.3q-1.7.9-3.2 0m60.2-25.9a3.1 3.1 0 0 1 .7-5.6q12.1-3.7 24.5-6.4a3.1 3.1 0 0 1 1.3 6.1q-12 2.6-24 6.2-1.3.4-2.5-.3m64.4-12a3.1 3.1 0 0 1 1.4-5.8q12.6-1 25.3-.8c1.7 0 3 1.4 3 3.1s-1.4 3.1-3.1 3q-12.3 0-24.7.9-1.1 0-1.9-.5m65.5 2.3a3.1 3.1 0 0 1 2-5.7 305 305 0 0 1 24.9 4.7c1.7.4 2.7 2.1 2.3 3.8s-2 2.7-3.7 2.3a300 300 0 0 0-25.5-5m63.4 16.6a3.1 3.1 0 0 1 2.7-5.5 302 302 0 0 1 23.3 10c1.5.7 2.2 2.6 1.4 4.1a3 3 0 0 1-4.2 1.5 295 295 0 0 0-23.2-10m78.5 44.8-.3-.3q-9.7-7.6-20-14.5a3 3 0 0 1-.9-4.3 3 3 0 0 1 4.3-1q10.6 7 20.5 15a3.1 3.1 0 0 1-3.6 5M2235.2 637.6q-.5-.1-.8-.6l-8.3-9a3.1 3.1 0 0 1 4.5-4.4q4.3 4.6 8.5 9.3a3.1 3.1 0 0 1-4 4.7" style="fill:#93c5fd"/><path d="M2202.6 703.5c-.7-1.4-2.2-2.1-3.7-1.9l-43 6.8a190 190 0 0 0-47.4-39.1l-1.5-43.5q-.1-2.4-2.5-3.3l-50-15.3c-1.4-.4-3 .1-3.9 1.3l-25.6 35.2q-31.5-2-61.1 5.9l-31.9-29.7a4 4 0 0 0-4-.5l-46.2 24.4q-2 1.3-1.8 3.8l6.7 43a190 190 0 0 0-39 47.3l-43.5 1.5q-2.5.1-3.3 2.6l-15.3 49.9c-.5 1.4 0 3 1.3 4l35.2 25.5q-2.1 31.5 5.8 61.1l-29.7 31.9a4 4 0 0 0-.5 4l24.5 46.2q1.3 2 3.7 1.9l43-6.8a190 190 0 0 0 47.4 39.1l1.5 43.5q.1 2.4 2.5 3.3l50 15.3c1.4.4 3-.1 3.9-1.4l25.5-35.1q31.6 2 61.2-5.9l31.8 29.7c1.1 1 2.8 1.2 4.1.5l46.1-24.5q2.2-1.2 1.9-3.7l-6.8-43a190 190 0 0 0 39.1-47.3l43.5-1.5c1.5-.1 2.9-1.1 3.3-2.6l15.3-49.9c.4-1.4 0-3-1.3-4l-35.2-25.5q2-31.5-5.9-61.2l29.7-31.8c1-1.1 1.3-2.8.6-4.1z" style="fill:#60a5fa"/><path d="M1985.8 877.6a51.3 51.3 0 0 1-7.7-81.4 50.7 50.7 0 0 1 72.1 3.6 50.7 50.7 0 0 1-3.6 72 51 51 0 0 1-60.8 5.8m48.3-79.2a41.4 41.4 0 0 0-63.3 33.5 41.4 41.4 0 0 0 39.5 43.8A41.4 41.4 0 0 0 2054 836a41 41 0 0 0-19.9-37.7m-19.4-10.7" style="fill:#93c5fd"/><path d="M1943.3 946.1a131 131 0 0 1-43.3-179.6 131 131 0 0 1 175.3-45.9l-4.6 8.2q-11.2-6.3-23.7-10.1l-.3-.1a121.4 121.4 0 0 0-151.2 80.5A121.4 121.4 0 0 0 2115 898a121 121 0 0 0 14.2-92.3l9.1-2.3a131 131 0 0 1-15.4 99.5 131 131 0 0 1-179.6 43.3" style="fill:#93c5fd"/><linearGradient id="X" x1="-2158.5" x2="-2009.9" y1="1373.4" y2="1767.2" gradientTransform="matrix(-1 0 0 1 -929.1 0)" gradientUnits="userSpaceOnUse"><stop offset="0" style="stop-color:#febbba"/><stop offset="1" style="stop-color:#ff928e"/></linearGradient><path d="m1268 1441.6-29.1 28.8c-41.5-4-73.4-16.9-98-33.2 14.8-36.7 29.8-58.5 41.6-71.3a240 240 0 0 0 85.6 75.7" style="fill:url(#X)"/><linearGradient id="Y" x1="1054.8" x2="1105.3" y1="881.6" y2="1225" gradientUnits="userSpaceOnUse"><stop offset="0" style="stop-color:#3b82f6"/><stop offset="1" style="stop-color:#2563eb"/></linearGradient><path d="m1064.9 1333.9 68.9-107.7c4.5 60.7 25 106.4 48.7 139.7-11.8 12.8-26.8 34.6-41.5 71.3-61.2-40.9-76.1-103.3-76.1-103.3" style="fill:url(#Y)"/><linearGradient id="Z" x1="10898.7" x2="11046.2" y1="2155.5" y2="2155.5" gradientTransform="translate(-9962.6)" gradientUnits="userSpaceOnUse"><stop offset="0" style="stop-color:#1e3a8a"/><stop offset="1" style="stop-color:#1e40af"/></linearGradient><path d="M991.6 2185.3c34.3 1.5 67.6.5 89.8-.6-20.2-14.4-66.8-45.7-105.7-58.1l-26.8-1.6s-9 13.7-12.3 45.3c4.4 5.5 17.4 13.2 55 15" style="fill:url(#Z)"/><linearGradient id="aa" x1="1009.9" x2="1009.9" y1="1856.5" y2="2161.9" gradientUnits="userSpaceOnUse"><stop offset="0" style="stop-color:#3b82f6"/><stop offset="1" style="stop-color:#2563eb"/></linearGradient><path d="m1081.7 2184.9-.3-.2a952 952 0 0 1-89.8.6c-37.6-1.8-50.6-9.5-55-15l-.4 4.4c-.6 7 4.6 13 11.5 13.5 28.1 2.2 97.9 7 131.5 5.2 4.4-.2 6-6 2.5-8.5" style="fill:url(#aa)"/><linearGradient id="ab" x1="10639.6" x2="10708.6" y1="2155.9" y2="2155.9" gradientTransform="translate(-9962.6)" gradientUnits="userSpaceOnUse"><stop offset="0" style="stop-color:#1e3a8a"/><stop offset="1" style="stop-color:#1e40af"/></linearGradient><path d="M746 2176c-2.6-16-6.6-39.4-9.7-45.3-5-9.4-21.7 0-21.7 0s-11.7 5.4-17.1 14.6c-3.5 5.8-13 22.4-19.5 33.6q-1 2-1 4l67 2.4q2.6-4.1 2-9.2" style="fill:url(#ab)"/><linearGradient id="ac" x1="686.2" x2="717.2" y1="1928.4" y2="2254.5" gradientUnits="userSpaceOnUse"><stop offset="0" style="stop-color:#3b82f6"/><stop offset="1" style="stop-color:#2563eb"/></linearGradient><path d="M677 2183a7.6 7.6 0 0 0 7.4 7.3l47.8 1.3c5 .2 9.4-2.4 11.8-6.3z" style="fill:url(#ac)"/><linearGradient id="ad" x1="10668.8" x2="10713.6" y1="2108.3" y2="2108.3" gradientTransform="translate(-9962.6)" gradientUnits="userSpaceOnUse"><stop offset="0" style="stop-color:#febbba"/><stop offset="1" style="stop-color:#ff928e"/></linearGradient><path d="m751 2077-13 62.4c-1 5.1-5.6 8.7-10.8 8.4q-4.4-.2-9.6-.8c-6.2-.8-10.8-6-11-12.1-.7-16.2-1-47.2 5-59.2 8.1-16.5 39.4 1.4 39.4 1.4" style="fill:url(#ad)"/><linearGradient id="ae" x1="10906.2" x2="10943.5" y1="2105.3" y2="2105.3" gradientTransform="translate(-9962.6)" gradientUnits="userSpaceOnUse"><stop offset="0" style="stop-color:#febbba"/><stop offset="1" style="stop-color:#ff928e"/></linearGradient><path d="M943.6 2089c3.8 0-1.4 19.3 4.2 38.2 1.3 4.3 4.4 7.7 9 7.7q4.3 0 9.7-.3c5.2-.4 9.4-4.5 10-9.7l4.5-49.2z" style="fill:url(#ae)"/><linearGradient id="af" x1="1117.6" x2="837.3" y1="1192.1" y2="2093.9" gradientUnits="userSpaceOnUse"><stop offset="0" style="stop-color:#3b82f6"/><stop offset="1" style="stop-color:#2563eb"/></linearGradient><path d="M1047.5 1566.2c-1.6 8-60.1 349.4-63.7 526a6 6 0 0 1-5.2 5.8c-7.4 1-21.9 2.4-35.9-.2-1.9-.4-3.4-2-3.5-3.9-2-33-18.5-311.2 1.7-442.2 0 0-166.4 350.2-191.6 446.7a5 5 0 0 1-5.2 3.8c-7.1-.3-22-1.6-33.7-6a9 9 0 0 1-5.6-10.3c14.1-57.8 112.9-455.9 180-543.6z" style="fill:url(#af)"/><linearGradient id="ag" x1="10999.1" x2="10846.2" y1="1531.1" y2="1728.7" gradientTransform="translate(-9962.6)" gradientUnits="userSpaceOnUse"><stop offset="0" style="stop-color:#1e3a8a"/><stop offset="1" style="stop-color:#1e40af"/></linearGradient><path d="M940.9 1653.9q-.9 0-1.5-.6-1.5-1.5 0-3.1l22.2-22.8a2.2 2.2 0 1 1 3.1 3l-22.3 22.8q-.7.7-1.5.7" style="fill:url(#ag)"/><linearGradient id="ah" x1="1328" x2="876.9" y1="1119.3" y2="1422.3" gradientUnits="userSpaceOnUse"><stop offset="0" style="stop-color:#3b82f6"/><stop offset="1" style="stop-color:#2563eb"/></linearGradient><path d="M1142.6 1138.8c-42.7-11.1-121.5-28.7-184.3-25-14.4 1-26 12.3-26.8 26.7-9.4 167.2-22.4 315.5-46.8 401.8 54.8 21.7 109.2 31.8 162.8 23.9q60.3-129 105.4-298.3s17.6-90 .5-120a18 18 0 0 0-10.8-9" style="fill:url(#ah)"/><linearGradient id="ai" x1="999.3" x2="1164.2" y1="1158" y2="969.5" gradientUnits="userSpaceOnUse"><stop offset="0" style="stop-color:#febbba"/><stop offset="1" style="stop-color:#ff928e"/></linearGradient><path d="M1039.8 1021.8s-10.7 64.4-14 94.1c-.5 4.9 2 9.4 6.4 11.7 11.8 6 37 15.8 64.4 6.8 4.5-1.4 7.5-5.8 7.4-10.6l-2-86z" style="fill:url(#ai)"/><linearGradient id="aj" x1="10982.4" x2="10863.4" y1="1065" y2="1156.1" gradientTransform="translate(-9962.6)" gradientUnits="userSpaceOnUse"><stop offset="0" style="stop-color:#febbba"/><stop offset="1" style="stop-color:#ff928e"/></linearGradient><path d="M1110.2 950.4s20.9 47.9 22.3 73c1.4 25 6.8 41.4-22.3 46.4-29 5-53.4-9.4-66.7-34.4 0 0-20.8-38.5-16.1-54.3s82.8-30.7 82.8-30.7" style="fill:url(#aj)"/><linearGradient id="ak" x1="10993.5" x2="11101.3" y1="920.6" y2="1059.4" gradientTransform="translate(-9962.6)" gradientUnits="userSpaceOnUse"><stop offset="0" style="stop-color:#1e3a8a"/><stop offset="1" style="stop-color:#1e40af"/></linearGradient><path d="M1053.4 1017.4h3.7s-15.1-31-1.8-36.4c13.2-5.5 65.9-16.2 77.2-34.9 11-18 1.2-41.2-13.4-47.8q-1.6-.5-2.5 1l-1.2 2.3a2 2 0 0 1-3.6-.4c-.5-1.6-2.7-2-3.6-.6-3.4 5.6-12.9 14.7-38.1 19.4-35.8 6.6-59.5 21-60 45.8a2 2 0 0 1-3.1 1.6c-2.7-1.6-6.9-2.3-12.6 2.4-9.8 8.3-5.8 29.7 15.8 47.4 1 .8 1 2.4-.1 3.2-4 2.5-9.7 8.6 5.4 16.6 15.4 8.3 24.5 7.4 28 6.5a2 2 0 0 0 1.5-2l-1.4-22q.2-1.8 2-2z" style="fill:url(#ak)"/><linearGradient id="al" x1="11062.4" x2="10943.4" y1="973.2" y2="1064.3" gradientTransform="translate(-9962.6)" gradientUnits="userSpaceOnUse"><stop offset="0" style="stop-color:#febbba"/><stop offset="1" style="stop-color:#ff928e"/></linearGradient><path d="M1054.3 1022s-8-30.5-21.6-22 7 34.3 18.1 35.4z" style="fill:url(#al)"/><linearGradient id="am" x1="507.9" x2="1479.5" y1="1514.9" y2="1514.9" gradientUnits="userSpaceOnUse"><stop offset="0" style="stop-color:#dbeafe"/><stop offset="1" style="stop-color:#eff6ff"/></linearGradient><path d="m609.8 1519.1-28.1 7.1c-48.3 12.2-80.7 48.5-72.5 81l9.8 38.7c8.2 32.6 54 49 102.3 36.8l28-7 5.6-1.6 824.6-246.7-21.3-84.3-842.8 174.7zm12.1 38.6c36.4-9.1 70.2 1 75.7 22.5 5.5 21.6-19.6 46.5-56 55.7-36.2 9.2-70.1-.9-75.6-22.4-5.4-21.6 19.6-46.6 56-55.8" style="fill:url(#am)"/><linearGradient id="an" x1="1408.4" x2="1812.4" y1="1348.5" y2="1348.5" gradientUnits="userSpaceOnUse"><stop offset="0" style="stop-color:#dbeafe"/><stop offset="1" style="stop-color:#eff6ff"/></linearGradient><path d="m1732.4 1228.6-163.2 41.2a39 39 0 0 0-26 22.1l-24.4 56.4c-7 16.1-2.2 34.9 11.6 45.7l48.3 38c9.4 7.4 21.7 10 33.3 7.1l163.2-41.2c24.6-6.3 45.5 19.4 33.9 42a222 222 0 0 1-143.7 113.1c-117.4 29.7-221.2-41.4-249.8-154.3-28.5-112.9 29.1-224.8 146.5-254.4 64.9-16.4 130-3.1 180.2 31.2 21 14.3 14.7 46.9-9.9 53.1" style="fill:url(#an)"/><linearGradient id="ao" x1="-1144.3" x2="-1008" y1="17917.9" y2="16943.3" gradientTransform="rotate(-104.2 351 3481.9)scale(1 -1)" gradientUnits="userSpaceOnUse"><stop offset="0" style="stop-color:#1e3a8a"/><stop offset="1" style="stop-color:#1e40af"/></linearGradient><path d="m1736.3 1244-163.2 41.2a39 39 0 0 0-26 22.1l-24.4 56.4c-7 16-2.2 34.8 11.6 45.7l48.2 38c9.5 7.4 21.8 10 33.4 7l163.2-41.2c24.6-6.2 45.5 19.5 33.9 42a222 222 0 0 1-143.7 113.2C1551.9 1598 1448 1527 1419.5 1414c-28.5-112.9 29-224.8 146.4-254.5 65-16.4 130.1-3 180.3 31.3 20.9 14.3 14.7 46.9-9.9 53" style="fill:url(#ao)"/><linearGradient id="ap" x1="-368.6" x2="-232.2" y1="14228.2" y2="13253.6" gradientTransform="rotate(75.8 -4309.7 577)scale(-1 1.2395)" gradientUnits="userSpaceOnUse"><stop offset="0" style="stop-color:#1e3a8a"/><stop offset="1" style="stop-color:#1e40af"/></linearGradient><path d="m613 1531.4-28.2 7.1c-48.3 12.2-80.7 48.5-72.5 81l9.8 38.7c8.2 32.5 54 49 102.3 36.8l28-7 5.6-1.6 824.6-246.8-21.3-84.2L618.5 1530zm12 38.6c36.4-9.2 70.2.9 75.7 22.5s-19.6 46.5-56 55.7c-36.2 9.2-70.1-.9-75.6-22.5s19.6-46.5 56-55.7" style="fill:url(#ap)"/><linearGradient id="aq" x1="-1733.2" x2="-1566" y1="1390" y2="1631.5" gradientTransform="matrix(-1 0 0 1 -929.1 0)" gradientUnits="userSpaceOnUse"><stop offset="0" style="stop-color:#febbba"/><stop offset="1" style="stop-color:#ff928e"/></linearGradient><path d="M821 1361.5c-21.2 59.2-9.3 122.8-9.3 122.8l-27.8 7.5s-36-42.9-27.8-137.8c25.7-4 49.8 2 64.8 7.5" style="fill:url(#aq)"/><linearGradient id="ar" x1="1244.7" x2="793.6" y1="995.3" y2="1298.3" gradientUnits="userSpaceOnUse"><stop offset="0" style="stop-color:#3b82f6"/><stop offset="1" style="stop-color:#2563eb"/></linearGradient><path d="M756.1 1354q1.4-16 4.5-34c18.9-104.8 153.2-185.4 184.8-203 3-1.7 6.5.5 6.4 3.9l-4.5 142.4c-74.8 10-110.2 52.9-126.4 98.2-15-5.4-39-11.5-64.8-7.5" style="fill:url(#ar)"/><linearGradient id="as" x1="-2263" x2="-2114.4" y1="1412.8" y2="1806.6" gradientTransform="matrix(-1 0 0 1 -929.1 0)" gradientUnits="userSpaceOnUse"><stop offset="0" style="stop-color:#febbba"/><stop offset="1" style="stop-color:#ff928e"/></linearGradient><path d="M1326.8 1493.9a18 18 0 0 0 11.7-10.1c4.3-9.6 9.1-25-1.2-29.7-15.3-7-43.2 21.6-43.2 21.6l-13.6 22-12.4 6.1c11.4 3.2 33.4-2 58.7-10" style="fill:url(#as)"/><linearGradient id="at" x1="-1797.2" x2="-1628.1" y1="1433.7" y2="1678" gradientTransform="matrix(-1 0 0 1 -929.1 0)" gradientUnits="userSpaceOnUse"><stop offset="0" style="stop-color:#febbba"/><stop offset="1" style="stop-color:#ff928e"/></linearGradient><path d="M809.9 1470.4h34.4s-28 16.7-28.9 34.4 11.1 54.1 16.7 64c6.2 11-78-16.1-48.2-98.4z" style="fill:url(#at)"/><linearGradient id="au" x1="2100.9" x2="2245.7" y1="3188.2" y2="2582.2" gradientUnits="userSpaceOnUse"><stop offset="0" style="stop-color:#ff928e"/><stop offset="1" style="stop-color:#fe7062"/></linearGradient><path d="M2511 3158.5v29.6c0 7.5-4 13.8-9 14.4l-460.7 41.8a33 33 0 0 1-12.9-.8l-320.9-60.5c-3.4-.9-6-5.3-6-10.5v-31.2l340.6-42.2 43.8-20.7 43.6 6.2 25.7-4.9 58.8 17.1z" style="fill:url(#au)"/><linearGradient id="av" x1="2271.6" x2="2352.4" y1="3132.7" y2="2503.2" gradientUnits="userSpaceOnUse"><stop offset="0" style="stop-color:#ff928e"/><stop offset="1" style="stop-color:#fe7062"/></linearGradient><path d="M2511 3158.5v29.6c0 7.5-4 13.8-9 14.4l-460.6 41.8a33 33 0 0 1-10.3-.2v-159l54.8-6.8 43.6 6.3 25.7-4.9 58.8 17.1z" style="fill:url(#av)"/><linearGradient id="aw" x1="2178.1" x2="2131" y1="2630.7" y2="2970.8" gradientUnits="userSpaceOnUse"><stop offset="0" style="stop-color:#e1473d"/><stop offset="1" style="stop-color:#e9605a"/></linearGradient><path d="m2155.2 3079.7-453.6 60.2 327.2 61.6q6 1.5 12.2.8l470-43.8z" style="fill:url(#aw)"/><linearGradient id="ax" x1="3265.2" x2="3029.5" y1="155.4" y2="747.9" gradientUnits="userSpaceOnUse"><stop offset="0" style="stop-color:#ff928e"/><stop offset="1" style="stop-color:#fe7062"/></linearGradient><path d="M2321.5 3134c0 21.7-68 38.5-161.8 42.8q-35.7 1.7-75.3.8c-129.2-3-233-27-233-53.6 0-.6 0-1.9.2-1.9h-.2l.5-1.3.5-1.2 29.8-77.9 36-94 50.4-131.7 38.5-100.8 48-125.4c6-15.7 17.1-25.4 29.2-25.4q2.4 0 4.8.5c10.1 2.2 19.2 11.4 24.4 25l48.4 126.2 38.6 102.2 51 134.3 36.6 96.6h.5l30.5 78.5c1.3 2.1 2.4 4.2 2.4 6.4" style="fill:url(#ax)"/><path d="M2288.6 3049.3c-29.4 9.8-76.4 16.9-132.7 19.5q-34.1 1.6-71.7 1c-86.8-1.7-162-12.9-202-28l36-94c42 9.4 100.8 15.8 166.1 16.8q31.8.4 61.3-.7c41.2-1.7 77.5-5.6 106.2-11.3l36.3 96.6zM2201 2818.3q-34 3.6-73.4 4.8a1097 1097 0 0 1-159-7l38.5-100.9a1066 1066 0 0 0 154.7 1z" style="fill:#fff"/></svg>