<svg width="512" height="512" viewBox="0 0 512 512" fill="none" xmlns="http://www.w3.org/2000/svg">
  <style>
    @media (prefers-color-scheme: light) {
    .bg { fill: #FFFFFF; }
    .logo { fill: #2563EB; stroke: #2563EB; }
    }
    @media (prefers-color-scheme: dark) {
    .bg { fill: #0F172A; }
    .logo { fill: #3B82F6; stroke: #3B82F6; }
    }
  </style>
  <rect class="bg" width="512" height="512" />
  <path class="logo"
    d="M171.327 390.044L323.881 124.84C324.265 124.173 323.784 123.341 323.015 123.341H78.251C77.3623 123.341 76.9151 124.414 77.5408 125.045L173.407 221.761C173.726 222.082 173.789 222.578 173.561 222.969L76.7286 389.042C76.3399 389.709 76.8207 390.546 77.5924 390.546H170.46C170.818 390.546 171.149 390.355 171.327 390.044Z"
    stroke-width="19.3686" />
  <path class="logo"
    d="M438.044 214C438.044 155.127 381.549 127.117 374.147 123.699C373.687 123.487 373.16 123.673 372.908 124.112L220.781 389.048C220.399 389.715 220.88 390.546 221.649 390.546H435.668C436.553 390.546 437.002 389.48 436.383 388.847L359.521 310.254C358.981 309.701 359.224 308.774 359.969 308.57C383.873 302.015 438.044 275.525 438.044 214Z"
    stroke-width="19.3686" />
</svg>