<?xml version="1.0" encoding="utf-8"?>
<!-- Generator: Adobe Illustrator 27.5.0, SVG Export Plug-In . SVG Version: 6.00 Build 0)  -->
<svg version="1.1" xmlns="http://www.w3.org/2000/svg" xmlns:xlink="http://www.w3.org/1999/xlink" x="0px" y="0px"
	 viewBox="0 0 3710 3710" style="enable-background:new 0 0 3710 3710;" xml:space="preserve">
<g id="Background">
	<g>
		<g>
			<rect style="fill:#FFFFFF;" width="3710" height="3710"/>
		</g>
	</g>
</g>
<g id="Illustration">
	<g>
		<linearGradient id="SVGID_1_" gradientUnits="userSpaceOnUse" x1="3490.77" y1="3634.0166" x2="1550.243" y2="1568.295">
			<stop  offset="0" style="stop-color:#DAE3FE"/>
			<stop  offset="1" style="stop-color:#E9EFFD"/>
		</linearGradient>
		<path style="fill:url(#SVGID_1_);" d="M2906.47,2806.815c-71.636,73.84-135.734,117.246-184.809,150.014
			c-478.623,319.581-1027.419,281.65-1196.574,250.166c-272.911-50.794-501.608-140.808-699.541-319.632
			c-449.764-406.344-427.888-1254.008-84.214-1779.099c40.749-62.261,383.904-570.922,932.206-642.597
			c13.411-1.753,23.417-2.751,32.181-3.679c84.821-8.981,610.441-56.379,1039.031,302.694
			c61.351,51.399,170.533,137.868,251.637,285.511C3286.655,1578.607,3332.216,2367.973,2906.47,2806.815z"/>
		<g>
			<g>
				<path style="fill:#91B3FA;" d="M2882.252,1579.845c-0.817-3.531-1.644-7.063-2.502-10.594
					c-129.59-533.497-671.865-859.778-1211.203-728.768l237.213,976.56L2882.252,1579.845z"/>
				<path style="fill:#91B3FA;" d="M1902.858,1813.253l950.62,326.38c59.062-171.495,72.443-361.069,28.941-550.881
					c-1.37-5.978-2.809-11.922-4.28-17.85L1902.858,1813.253z"/>
				<path style="fill:#7D97F4;" d="M1905.747,1817.045l193.193,986.195c6.186-1.214,12.372-2.467,18.56-3.801
					c356.771-76.901,628.12-334.413,738.877-656.02L1905.747,1817.045z"/>
				
					<linearGradient id="SVGID_00000062176057895649026670000014765762426678214288_" gradientUnits="userSpaceOnUse" x1="1419.4391" y1="603.0376" x2="1132.5314" y2="2898.3044">
					<stop  offset="0" style="stop-color:#FF928E"/>
					<stop  offset="1" style="stop-color:#FE7062"/>
				</linearGradient>
				<path style="fill:url(#SVGID_00000062176057895649026670000014765762426678214288_);" d="M1782.217,1735.628l-200.623-972.192
					c-453.631,93.612-772.178,479.341-799.999,920.354l995.084,58.243C1780.182,1742.238,1782.926,1739.064,1782.217,1735.628z"/>
				
					<linearGradient id="SVGID_00000154401621227668208720000002412570771671361717_" gradientUnits="userSpaceOnUse" x1="3439.1477" y1="3206.9316" x2="1577.5837" y2="2206.0911">
					<stop  offset="0" style="stop-color:#4F52FF"/>
					<stop  offset="1" style="stop-color:#4042E2"/>
				</linearGradient>
				<path style="fill:url(#SVGID_00000154401621227668208720000002412570771671361717_);" d="M1906.362,1812.838L903.609,1779.51
					c-4.294,87.847,3.608,161.475,23.615,251.482c93.335,419.894,436.795,719.464,838.818,776.986L1906.362,1812.838z"/>
				
					<linearGradient id="SVGID_00000013906774758299282260000000409625004904592018_" gradientUnits="userSpaceOnUse" x1="2135.1956" y1="2172.3582" x2="3269.4871" y2="978.0166">
					<stop  offset="0" style="stop-color:#4F52FF"/>
					<stop  offset="1" style="stop-color:#4042E2"/>
				</linearGradient>
				<path style="fill:url(#SVGID_00000013906774758299282260000000409625004904592018_);" d="M1757.605,2810.997
					c110.939,16.819,226.498,15.18,342.658-7.493l0,0l-192.157-986.398L1757.605,2810.997z"/>
			</g>
			<g style="opacity:0.61;">
				<path style="fill:#FFFFFF;" d="M1547.459,2718.771c-0.847,0-1.71-0.163-2.544-0.507
					c-138.792-57.309-264.236-147.243-362.773-260.077c-101.821-116.591-175.082-258.269-211.871-409.717
					c-3.297-13.579-6.337-27.357-9.034-40.949c-0.717-3.615,1.632-7.127,5.245-7.845c3.636-0.717,7.128,1.634,7.845,5.245
					c2.662,13.411,5.659,27.004,8.911,40.4c36.287,149.372,108.542,289.106,208.955,404.089
					c97.188,111.29,220.918,199.993,357.818,256.52c3.405,1.406,5.027,5.307,3.62,8.713
					C1552.568,2717.217,1550.082,2718.771,1547.459,2718.771z"/>
			</g>
			<g style="opacity:0.61;">
				<path style="fill:#FFFFFF;" d="M2272.947,2723.067c-2.655,0-5.167-1.595-6.206-4.212c-1.359-3.426,0.316-7.304,3.743-8.663
					c248.23-98.521,445.567-298.831,541.41-549.571c1.313-3.444,5.17-5.169,8.614-3.851c3.444,1.316,5.167,5.172,3.851,8.614
					c-97.172,254.221-297.259,457.317-548.955,557.211C2274.598,2722.915,2273.764,2723.067,2272.947,2723.067z"/>
			</g>
			<g style="opacity:0.61;">
				<path style="fill:#FFFFFF;" d="M2686.85,1243.748c-2.023,0-4.02-0.914-5.33-2.652
					c-119.932-158.846-283.748-275.043-473.749-336.027c-3.509-1.126-5.441-4.884-4.313-8.393c1.127-3.506,4.874-5.446,8.393-4.314
					c192.633,61.83,358.723,179.639,480.317,340.692c2.222,2.94,1.639,7.125-1.303,9.345
					C2689.662,1243.31,2688.248,1243.748,2686.85,1243.748z"/>
			</g>
			<g style="opacity:0.74;">
				<path style="fill:#FFFFFF;" d="M1327.831,1679.139c-0.143,0-0.29-0.005-0.437-0.015l-510.554-32.928l1.117-7.212
					c13.436-86.567,35.538-170.383,69.557-263.777c1.261-3.465,5.099-5.242,8.552-3.986c3.463,1.262,5.245,5.091,3.984,8.554
					c-32.765,89.957-54.369,170.902-67.765,254.045l495.968,31.988c3.678,0.236,6.467,3.41,6.229,7.088
					C1334.256,1676.427,1331.32,1679.139,1327.831,1679.139z"/>
			</g>
			<g style="opacity:0.74;">
				<path style="fill:#FFFFFF;" d="M1728.292,1704.939c-0.238,0-0.476-0.008-0.717-0.025l-104.147-6.737
					c-3.678-0.238-6.467-3.411-6.229-7.088c0.238-3.68,3.496-6.472,7.089-6.228l100.713,6.514l-108.317-507.167
					c-0.769-3.605,1.528-7.15,5.131-7.92c3.597-0.767,7.148,1.526,7.92,5.131l109.037,510.536c0.71,3.317-0.156,6.693-2.375,9.262
					C1734.335,1703.606,1731.413,1704.939,1728.292,1704.939z M1725.721,1694.746h0.036H1725.721z"/>
			</g>
		</g>
		<g>
			<g>
				
					<linearGradient id="SVGID_00000152970803892328320260000011692467369299686075_" gradientUnits="userSpaceOnUse" x1="2929.188" y1="945.2092" x2="2080.2825" y2="1775.6602">
					<stop  offset="0" style="stop-color:#2B3582"/>
					<stop  offset="1" style="stop-color:#150E42"/>
				</linearGradient>
				<polygon style="fill:url(#SVGID_00000152970803892328320260000011692467369299686075_);" points="1912.363,1604.009 
					1907.567,1595.226 2232.053,1417.928 2533.596,1550.474 2792.469,1296.55 2792.994,1296.238 3097.046,1116.797 
					3102.135,1125.417 2798.607,1304.548 2535.772,1562.363 2232.532,1429.07 				"/>
			</g>
			
				<linearGradient id="SVGID_00000117663604322103796880000004343569583336464039_" gradientUnits="userSpaceOnUse" x1="1965.6156" y1="1545.1754" x2="1882.7655" y2="1626.2244">
				<stop  offset="0" style="stop-color:#09005D"/>
				<stop  offset="1" style="stop-color:#1A0F91"/>
			</linearGradient>
			
				<circle style="fill:url(#SVGID_00000117663604322103796880000004343569583336464039_);" cx="1909.965" cy="1599.616" r="34.891"/>
			
				<linearGradient id="SVGID_00000177453058396591944530000011757182129785666440_" gradientUnits="userSpaceOnUse" x1="2287.9446" y1="1369.0576" x2="2205.0945" y2="1450.1066">
				<stop  offset="0" style="stop-color:#09005D"/>
				<stop  offset="1" style="stop-color:#1A0F91"/>
			</linearGradient>
			
				<circle style="fill:url(#SVGID_00000177453058396591944530000011757182129785666440_);" cx="2232.294" cy="1423.499" r="34.891"/>
			
				<linearGradient id="SVGID_00000094577132941771047290000014297858666251995825_" gradientUnits="userSpaceOnUse" x1="2590.3357" y1="1495.3307" x2="2507.4854" y2="1576.3799">
				<stop  offset="0" style="stop-color:#09005D"/>
				<stop  offset="1" style="stop-color:#1A0F91"/>
			</linearGradient>
			
				<circle style="fill:url(#SVGID_00000094577132941771047290000014297858666251995825_);" cx="2534.685" cy="1549.772" r="34.891"/>
			
				<linearGradient id="SVGID_00000175293301355870229870000015569724541482998712_" gradientUnits="userSpaceOnUse" x1="2842.8818" y1="1246.1074" x2="2760.0317" y2="1327.1564">
				<stop  offset="0" style="stop-color:#09005D"/>
				<stop  offset="1" style="stop-color:#1A0F91"/>
			</linearGradient>
			
				<circle style="fill:url(#SVGID_00000175293301355870229870000015569724541482998712_);" cx="2787.231" cy="1300.548" r="34.891"/>
			
				<linearGradient id="SVGID_00000166665156391382277940000005327920635874573225_" gradientUnits="userSpaceOnUse" x1="3155.2419" y1="1066.6665" x2="3072.3918" y2="1147.7155">
				<stop  offset="0" style="stop-color:#09005D"/>
				<stop  offset="1" style="stop-color:#1A0F91"/>
			</linearGradient>
			
				<circle style="fill:url(#SVGID_00000166665156391382277940000005327920635874573225_);" cx="3099.591" cy="1121.108" r="34.891"/>
		</g>
		<g>
			<g>
				<g>
					
						<linearGradient id="SVGID_00000057862381635162420310000006780828631899329677_" gradientUnits="userSpaceOnUse" x1="1981.5242" y1="3215.4011" x2="2170.5229" y2="3215.4011" gradientTransform="matrix(1 0 0 1 -1140.7335 0)">
						<stop  offset="0" style="stop-color:#4F52FF"/>
						<stop  offset="1" style="stop-color:#4042E2"/>
					</linearGradient>
					<path style="fill:url(#SVGID_00000057862381635162420310000006780828631899329677_);" d="M1024.453,3206.26
						c-32.378,2.799-88.571,7.345-132.871,9.295c-26.63,1.172-41.961-1.436-50.791-4.97c0.015,0.995,0.043,1.936,0.082,2.81
						c0.209,4.661,3.997,8.391,8.706,8.654c83.707,4.672,150.28,1.617,173.98,0.175c4.901-0.299,7.821-5.624,5.315-9.802
						C1027.62,3210.331,1026.101,3208.283,1024.453,3206.26z"/>
					
						<linearGradient id="SVGID_00000124875138942834294770000015311909942986647947_" gradientUnits="userSpaceOnUse" x1="1981.5134" y1="3178.3596" x2="2165.186" y2="3178.3596" gradientTransform="matrix(1 0 0 1 -1140.7335 0)">
						<stop  offset="0" style="stop-color:#09005D"/>
						<stop  offset="1" style="stop-color:#1A0F91"/>
					</linearGradient>
					<path style="fill:url(#SVGID_00000124875138942834294770000015311909942986647947_);" d="M891.581,3215.554
						c44.3-1.95,100.494-6.496,132.871-9.295c-31.833-39.055-132.871-65.379-132.871-65.379h-28.536
						c-19.627,28.292-22.469,55.228-22.254,69.703C849.62,3214.119,864.951,3216.726,891.581,3215.554z"/>
					
						<linearGradient id="SVGID_00000139281216758679966300000002678855497678567573_" gradientUnits="userSpaceOnUse" x1="1998.9733" y1="3126.645" x2="2052.2102" y2="3126.645" gradientTransform="matrix(1 0 0 1 -1140.7335 0)">
						<stop  offset="0" style="stop-color:#FEBBBA"/>
						<stop  offset="1" style="stop-color:#FF928E"/>
					</linearGradient>
					<path style="fill:url(#SVGID_00000139281216758679966300000002678855497678567573_);" d="M858.24,3094.294l2.67,52.844
						c0.289,5.722,4.573,10.531,10.304,11.351c5.702,0.815,13.339,0.919,21.436-1.776c4.982-1.658,8.68-5.856,9.599-10.976
						l9.227-51.442H858.24z"/>
				</g>
				<g>
					<g>
						
							<linearGradient id="SVGID_00000066482905776628268130000007065813566422144896_" gradientUnits="userSpaceOnUse" x1="1604.7391" y1="3211.325" x2="1677.1667" y2="3211.325" gradientTransform="matrix(1 0 0 1 -1140.7335 0)">
							<stop  offset="0" style="stop-color:#4F52FF"/>
							<stop  offset="1" style="stop-color:#4042E2"/>
						</linearGradient>
						<path style="fill:url(#SVGID_00000066482905776628268130000007065813566422144896_);" d="M487.59,3215.158
							c-14.041-1.958-20.394-9.252-23.057-17.05c-0.018,0.07-0.035,0.14-0.053,0.21c-2.065,8.226,2.723,16.751,12.297,20.805
							c11.572,4.9,24.225,5.735,34.047,5.33c10.538-0.434,20.212-4.795,25.529-11.775l0.08-0.105
							C525.855,3217.807,511.006,3218.424,487.59,3215.158z"/>
						
							<linearGradient id="SVGID_00000049926551202603862300000002170137521397976228_" gradientUnits="userSpaceOnUse" x1="1605.2661" y1="3155.5581" x2="1711.5753" y2="3155.5581" gradientTransform="matrix(1 0 0 1 -1140.7335 0)">
							<stop  offset="0" style="stop-color:#09005D"/>
							<stop  offset="1" style="stop-color:#1A0F91"/>
						</linearGradient>
						<path style="fill:url(#SVGID_00000049926551202603862300000002170137521397976228_);" d="M553.79,3093.955h-23.533
							c-35.846-0.732-58.356,74.874-65.724,104.153c2.664,7.798,9.017,15.092,23.057,17.05c23.416,3.266,38.265,2.65,48.843-2.584
							c19.366-25.484,28.967-62.809,33.582-84.591C575.265,3103.208,553.79,3093.955,553.79,3093.955z"/>
					</g>
					
						<linearGradient id="SVGID_00000126323560612866842290000012786763036892923009_" gradientUnits="userSpaceOnUse" x1="1660.5239" y1="3082.2644" x2="1724.1477" y2="3082.2644" gradientTransform="matrix(1 0 0 1 -1140.7335 0)">
						<stop  offset="0" style="stop-color:#FEBBBA"/>
						<stop  offset="1" style="stop-color:#FF928E"/>
					</linearGradient>
					<path style="fill:url(#SVGID_00000126323560612866842290000012786763036892923009_);" d="M533.282,3044.907l-13.068,51.975
						c-1.602,6.373,1.448,12.964,7.34,15.988c7.31,3.752,17.603,7.694,27.062,6.552c4.448-0.537,8.144-3.67,9.614-7.858
						l19.185-54.683L533.282,3044.907z"/>
				</g>
				
					<linearGradient id="SVGID_00000168817978815973499070000004726409073967687583_" gradientUnits="userSpaceOnUse" x1="-136.0228" y1="3794.7637" x2="1158.3982" y2="2393.584">
					<stop  offset="0" style="stop-color:#4F52FF"/>
					<stop  offset="1" style="stop-color:#4042E2"/>
				</linearGradient>
				<path style="fill:url(#SVGID_00000168817978815973499070000004726409073967687583_);" d="M517.694,3059.93
					c16.259,14.422,69.141,16.326,69.141,16.326c190.491-457.198,268.416-522.15,268.416-522.15
					c-27.505,172.567-4.435,554.61-4.435,554.61c31.434,13.871,71.961,0,71.961,0c2.553-282.516,45.977-528.897,97.276-723.139
					c-128.749-2.894-197.217-46.951-219.573-64.634C693.159,2493.967,517.694,3059.93,517.694,3059.93z"/>
				
					<linearGradient id="SVGID_00000167389758628322803140000010478469109953851305_" gradientUnits="userSpaceOnUse" x1="-719.1067" y1="4255.228" x2="-81.9048" y2="3761.48" gradientTransform="matrix(1 0 0 1 -1140.7335 0)">
					<stop  offset="0" style="stop-color:#FF928E"/>
					<stop  offset="1" style="stop-color:#FE7062"/>
				</linearGradient>
				<path style="fill:url(#SVGID_00000167389758628322803140000010478469109953851305_);" d="M833.178,1795.164
					c-24.369,121.555-15.635,339.116-9.899,438.352c1.612,27.892-17.858,66.559-33.596,92.938
					c-2.469,4.138-0.945,9.435,3.341,11.638c26.349,13.542,115.612,55.512,219.067,60.734c6.898,0.348,13.058-4.35,14.844-11.022
					c76.74-286.538,165.874-469.637,165.874-469.637C1094.401,1761.019,833.178,1795.164,833.178,1795.164z"/>
				
					<linearGradient id="SVGID_00000000204877872263093360000007528755568990452108_" gradientUnits="userSpaceOnUse" x1="871.441" y1="1967.2299" x2="891.4581" y2="2290.8359">
					<stop  offset="0" style="stop-color:#4F52FF"/>
					<stop  offset="1" style="stop-color:#4042E2"/>
				</linearGradient>
				<path style="fill:url(#SVGID_00000000204877872263093360000007528755568990452108_);" d="M868.249,2543.282
					c-1.081,0-2.178-0.292-3.17-0.894c-2.875-1.758-3.786-5.505-2.038-8.376c1.025-1.686,25.666-41.514,75.529-65.571
					c3.03-1.454,6.679-0.197,8.147,2.842c1.463,3.032,0.191,6.685-2.845,8.144c-46.485,22.431-70.176,60.549-70.412,60.93
					C872.313,2542.239,870.305,2543.282,868.249,2543.282z"/>
				<g>
					
						<linearGradient id="SVGID_00000114781774805235179980000013502747771465886096_" gradientUnits="userSpaceOnUse" x1="1952.0133" y1="2154.8672" x2="1725.5237" y2="2355.4287" gradientTransform="matrix(1 0 0 1 -1140.7335 0)">
						<stop  offset="0" style="stop-color:#FEBBBA"/>
						<stop  offset="1" style="stop-color:#FF928E"/>
					</linearGradient>
					<path style="fill:url(#SVGID_00000114781774805235179980000013502747771465886096_);" d="M680.321,2144.025
						c7.828,56.627,30.955,118.392,77.22,184l17.587-14.337c0,0-20.302-82.372-8.761-175.855
						C737.828,2132.266,704.122,2138.005,680.321,2144.025z"/>
					
						<linearGradient id="SVGID_00000114034965550952763550000017382617457104216754_" gradientUnits="userSpaceOnUse" x1="-829.4394" y1="4112.8438" x2="-192.235" y2="3619.094" gradientTransform="matrix(1 0 0 1 -1140.7335 0)">
						<stop  offset="0" style="stop-color:#FF928E"/>
						<stop  offset="1" style="stop-color:#FE7062"/>
					</linearGradient>
					<path style="fill:url(#SVGID_00000114034965550952763550000017382617457104216754_);" d="M860.397,1945.147l-27.219-149.983
						c0,0-181.863,139.013-152.856,348.861c23.801-6.02,57.507-11.759,86.046-6.192
						C774.682,2070.492,799.517,1997.386,860.397,1945.147z"/>
				</g>
				<g>
					
						<linearGradient id="SVGID_00000164496861564446019450000006658376718573635737_" gradientUnits="userSpaceOnUse" x1="-625.4002" y1="4376.1689" x2="11.803" y2="3882.4199" gradientTransform="matrix(1 0 0 1 -1140.7335 0)">
						<stop  offset="0" style="stop-color:#FF928E"/>
						<stop  offset="1" style="stop-color:#FE7062"/>
					</linearGradient>
					<path style="fill:url(#SVGID_00000164496861564446019450000006658376718573635737_);" d="M1192.808,1918.166l-70.199,151.184
						c11.35,91.274,60.383,130.74,113.251,145.877c3.297-41.598,13.815-75.206,23.576-98.453
						C1191.884,2047.029,1192.808,1918.166,1192.808,1918.166z"/>
					
						<linearGradient id="SVGID_00000157271487653064714040000005462508873896147135_" gradientUnits="userSpaceOnUse" x1="2376.594" y1="2173.8379" x2="2554.9636" y2="2173.8379" gradientTransform="matrix(1 0 0 1 -1140.7335 0)">
						<stop  offset="0" style="stop-color:#FEBBBA"/>
						<stop  offset="1" style="stop-color:#FF928E"/>
					</linearGradient>
					<path style="fill:url(#SVGID_00000157271487653064714040000005462508873896147135_);" d="M1259.436,2116.773
						c-9.76,23.247-20.279,56.855-23.576,98.453c141.052,54.726,178.37-51.408,178.37-51.408l-26.068-4.599
						C1329.293,2165.421,1288.172,2146.443,1259.436,2116.773z"/>
				</g>
				
					<linearGradient id="SVGID_00000143596200177829995730000005251754838237977243_" gradientUnits="userSpaceOnUse" x1="2203.2144" y1="1697.1694" x2="2201.2661" y2="2030.2617" gradientTransform="matrix(1 0 0 1 -1140.7335 0)">
					<stop  offset="0" style="stop-color:#FEBBBA"/>
					<stop  offset="1" style="stop-color:#FF928E"/>
				</linearGradient>
				<path style="fill:url(#SVGID_00000143596200177829995730000005251754838237977243_);" d="M1128.132,1731.518l-33.89,124.583
					c-3.807,13.995-18.946,21.511-32.413,16.127c-14.534-5.81-32.973-13.741-48.846-22.311
					c-16.944-9.148-22.245-30.944-11.52-46.936l70.459-105.059L1128.132,1731.518z"/>
			</g>
			
				<linearGradient id="SVGID_00000049187100170818407970000009199695254082440882_" gradientUnits="userSpaceOnUse" x1="1549.6212" y1="2120.6572" x2="558.7827" y2="2487.6338">
				<stop  offset="0" style="stop-color:#09005D"/>
				<stop  offset="1" style="stop-color:#1A0F91"/>
			</linearGradient>
			<path style="fill:url(#SVGID_00000049187100170818407970000009199695254082440882_);" d="M1478.878,2080.45l-868.401,316.063
				c-36.421,13.256-53.831,54.727-37.785,90.009l2.635,5.793c14.197,31.216,51.092,44.907,82.215,30.51l843.206-390.072
				L1478.878,2080.45z"/>
			
				<linearGradient id="SVGID_00000075882125223302359730000018162811903435144638_" gradientUnits="userSpaceOnUse" x1="2590.0801" y1="1890.3293" x2="3447.447" y2="1890.3293" gradientTransform="matrix(1 0 0 1 -1140.7335 0)">
				<stop  offset="0" style="stop-color:#B37CFF"/>
				<stop  offset="1" style="stop-color:#F895E7"/>
			</linearGradient>
			
				<ellipse style="opacity:0.23;fill:url(#SVGID_00000075882125223302359730000018162811903435144638_);" cx="1878.03" cy="1890.329" rx="428.683" ry="420.95"/>
			
				<linearGradient id="SVGID_00000132781488614439621140000011273589059668110230_" gradientUnits="userSpaceOnUse" x1="2541.7544" y1="1890.3291" x2="3495.7727" y2="1890.3291" gradientTransform="matrix(1 0 0 1 -1140.7335 0)">
				<stop  offset="0" style="stop-color:#09005D"/>
				<stop  offset="1" style="stop-color:#1A0F91"/>
			</linearGradient>
			<path style="fill:url(#SVGID_00000132781488614439621140000011273589059668110230_);" d="M1878.03,1421.925
				c-263.445,0-477.009,209.713-477.009,468.403c0,258.694,213.564,468.405,477.009,468.405
				c263.445,0,477.009-209.711,477.009-468.405C2355.039,1631.637,2141.475,1421.925,1878.03,1421.925z M1878.03,2289.926
				c-224.745,0-406.938-178.905-406.938-399.598c0-220.691,182.193-399.597,406.938-399.597
				c224.747,0,406.939,178.906,406.939,399.597C2284.969,2111.021,2102.777,2289.926,1878.03,2289.926z"/>
			<path style="fill:#91B3FA;" d="M1437.288,1948.355c-1.593,0-2.975-1.182-3.178-2.801c-1.424-11.162-2.416-22.46-2.966-33.584
				c-0.085-1.767,1.28-3.271,3.043-3.356c2.102-0.127,3.28,1.276,3.365,3.043c0.534,10.959,1.517,22.092,2.916,33.093
				c0.22,1.754-1.017,3.356-2.772,3.581C1437.559,1948.347,1437.415,1948.355,1437.288,1948.355z M1440.56,1817.379
				c-0.186,0-0.373-0.017-0.568-0.051c-1.738-0.309-2.899-1.975-2.585-3.717c5.407-30.139,14.061-59.774,25.732-88.078l0.008-0.008
				c68.762-166.811,231.619-274.603,414.885-274.603c85.459,0,168.527,23.74,240.247,68.656c1.5,0.941,1.949,2.916,1.009,4.416
				c-0.924,1.509-2.907,1.954-4.416,1.017c-70.694-44.276-152.593-67.681-236.84-67.681c-180.664,0-341.191,106.236-408.961,270.645
				c-0.009,0.009-0.009,0.013-0.009,0.017c-11.501,27.88-20.028,57.066-25.35,86.747
				C1443.433,1816.289,1442.085,1817.379,1440.56,1817.379z"/>
			<g>
				
					<linearGradient id="SVGID_00000047761377227419446980000002971736527795188121_" gradientUnits="userSpaceOnUse" x1="1979.3048" y1="3441.4297" x2="1815.3416" y2="3658.3398" gradientTransform="matrix(0.9897 -0.1428 0.1428 0.9897 -1279.7882 -1480.9402)">
					<stop  offset="0" style="stop-color:#FEBBBA"/>
					<stop  offset="1" style="stop-color:#FF928E"/>
				</linearGradient>
				<path style="fill:url(#SVGID_00000047761377227419446980000002971736527795188121_);" d="M1202.276,1636.865
					c0.309,2.139-28.266,142.169-28.266,142.169l-79.608-18.015l7.365-136.743
					C1101.766,1624.276,1197.108,1601.048,1202.276,1636.865z"/>
				
					<linearGradient id="SVGID_00000057843629464783355610000009861970605607794057_" gradientUnits="userSpaceOnUse" x1="1021.0793" y1="1678.0952" x2="1589.9596" y2="1750.0226">
					<stop  offset="0" style="stop-color:#09005D"/>
					<stop  offset="1" style="stop-color:#1A0F91"/>
				</linearGradient>
				<path style="fill:url(#SVGID_00000057843629464783355610000009861970605607794057_);" d="M1119.671,1654.747l-9.514,71.68
					c-0.122,0.919-0.121,1.827,0.01,2.745c0.803,5.619,4.983,24.747,24.292,19.277c17.521-4.963,33.585-9.232,44.682-5.838
					c4.982,1.524,7.989,6.571,6.946,11.675c-2.6,12.722-8.988,41.281-18.323,65.247c-1.895,4.864-7.22,7.417-12.231,5.956
					c-15.098-4.402-46.682-14.576-70.173-28.713c-3.183-1.916-5.079-5.377-4.922-9.089c0.764-18.096,2.88-73.103,1.099-88.522
					c-1.672-14.473-19.434-23.143-27.151-26.252c-2.53-1.019-4.513-3.013-5.524-5.546c-3.574-8.955-8.501-29.678,17.615-38.17
					c5.466-1.777,8.346-7.67,6.404-13.079c-3.868-10.769-5.499-27.202,14.704-36.256c20.535-9.203,35.871,1.744,44.151,10.64
					c3.348,3.597,8.721,4.145,12.875,1.52c2.365-1.494,5.412-1.985,9.093,0.309c4.96,3.09,11.529,0.984,14.089-4.27
					c4.918-10.094,14.94-20.906,35.043-17.463c35.673,6.109,39.714,45.64,30.303,68.805c-9.411,23.165-47.711,14.342-66.924,2.664
					c-14.608-8.879-33.558,0.427-41.802,5.399C1121.801,1649.042,1120.073,1651.724,1119.671,1654.747z"/>
				
					<linearGradient id="SVGID_00000004527375081572052870000000541655228791513266_" gradientUnits="userSpaceOnUse" x1="1739.1632" y1="3613.2056" x2="1870.675" y2="3478.2778" gradientTransform="matrix(0.9897 -0.1428 0.1428 0.9897 -1279.7882 -1480.9402)">
					<stop  offset="0" style="stop-color:#FEBBBA"/>
					<stop  offset="1" style="stop-color:#FF928E"/>
				</linearGradient>
				<path style="fill:url(#SVGID_00000004527375081572052870000000541655228791513266_);" d="M1078.332,1725.3
					c0,0,14.665-41.067-0.402-51.125c-15.067-10.057-37.383-4.836-32.469,24.914C1051.572,1736.095,1078.332,1725.3,1078.332,1725.3
					z"/>
			</g>
			
				<linearGradient id="SVGID_00000045580906284146887700000015659075078361852554_" gradientUnits="userSpaceOnUse" x1="2041.4543" y1="2255.8708" x2="1814.9648" y2="2456.4324" gradientTransform="matrix(1 0 0 1 -1140.7335 0)">
				<stop  offset="0" style="stop-color:#FEBBBA"/>
				<stop  offset="1" style="stop-color:#FF928E"/>
			</linearGradient>
			<path style="fill:url(#SVGID_00000045580906284146887700000015659075078361852554_);" d="M767.876,2311.192l82.094-6.69
				l35.553,32.774c0,0-8.411,11.627-34.708,4.944c-26.297-6.683-62.318-8.323-62.318-8.323s-36.303,16.366-36.745-14.256
				L767.876,2311.192z"/>
			
				<linearGradient id="SVGID_00000005960356467319404870000015185245214385616516_" gradientUnits="userSpaceOnUse" x1="2536.0137" y1="2152.8896" x2="2599.8894" y2="2152.8896" gradientTransform="matrix(1 0 0 1 -1140.7335 0)">
				<stop  offset="0" style="stop-color:#FEBBBA"/>
				<stop  offset="1" style="stop-color:#FF928E"/>
			</linearGradient>
			<path style="fill:url(#SVGID_00000005960356467319404870000015185245214385616516_);" d="M1403.774,2183.237
				c7.1,5.546,31.424-6.034,46.308-14.039c7.254-3.902,10.768-12.384,8.278-20.236c-3.582-11.296-9.551-25.876-16.904-27.715
				C1429.254,2118.197,1374.517,2160.38,1403.774,2183.237z"/>
			<path style="fill:#91B3FA;" d="M627.613,2510.676c-0.347,0-0.703-0.055-1.051-0.174c-33.919-11.73-41.81-31.771-42.454-46.518
				c-0.932-21.553,12.612-41.555,33.69-49.777l104.274-40.661c1.619-0.644,3.492,0.166,4.145,1.822
				c0.644,1.648-0.17,3.509-1.822,4.153l-104.274,40.657c-18.519,7.226-30.419,24.715-29.605,43.526
				c0.805,18.562,13.637,32.266,38.148,40.738c1.67,0.581,2.56,2.403,1.975,4.077
				C630.181,2509.846,628.944,2510.676,627.613,2510.676z"/>
			<path style="fill:#91B3FA;" d="M755.356,2367.207c-1.28,0-2.492-0.775-2.983-2.038c-0.644-1.653,0.169-3.509,1.822-4.153
				l13.518-5.268c1.619-0.648,3.5,0.174,4.145,1.822c0.644,1.653-0.169,3.509-1.822,4.153l-13.518,5.268
				C756.136,2367.139,755.746,2367.207,755.356,2367.207z"/>
		</g>
		<g>
			
				<linearGradient id="SVGID_00000050620902518405531800000002173294983394448554_" gradientUnits="userSpaceOnUse" x1="-3735.9915" y1="3071.7837" x2="-4311.6621" y2="3697.9526" gradientTransform="matrix(-1 0 0 1 -1038.0688 0)">
				<stop  offset="0" style="stop-color:#4F52FF"/>
				<stop  offset="1" style="stop-color:#4042E2"/>
			</linearGradient>
			<path style="fill:url(#SVGID_00000050620902518405531800000002173294983394448554_);" d="M2879.893,3118.429
				c0,0,5.962,33.75,8.885,67.16c1.143,13.058-8.924,24.395-22.02,24.94c-44.491,1.853-139.661,5.456-173.811,3.933
				c-5.134-0.229-8.49-5.485-6.59-10.26c1.592-4.001,4.663-7.236,8.575-9.034l157.203-72.25L2879.893,3118.429z"/>
			
				<linearGradient id="SVGID_00000014608481625157717230000006511883693814180760_" gradientUnits="userSpaceOnUse" x1="-3922.8455" y1="3118.2903" x2="-3871.7114" y2="3118.2903" gradientTransform="matrix(-1 0 0 1 -1038.0688 0)">
				<stop  offset="0" style="stop-color:#FEBBBA"/>
				<stop  offset="1" style="stop-color:#FF928E"/>
			</linearGradient>
			<path style="fill:url(#SVGID_00000014608481625157717230000006511883693814180760_);" d="M2884.777,3098.598l-4.79,40.371
				c0,0-27.538,12.819-46.344-1.616l11.404-44.989L2884.777,3098.598z"/>
			
				<linearGradient id="SVGID_00000086693108047445977600000009370478594601057949_" gradientUnits="userSpaceOnUse" x1="-4044.0957" y1="2727.3044" x2="-3875.0217" y2="2727.3044" gradientTransform="matrix(-1 0 0 1 -1038.0688 0)">
				<stop  offset="0" style="stop-color:#09005D"/>
				<stop  offset="1" style="stop-color:#1A0F91"/>
			</linearGradient>
			<path style="fill:url(#SVGID_00000086693108047445977600000009370478594601057949_);" d="M2881.177,2339.625
				c2.069,10.543,11.106,526.093-44.003,757.129c-0.899,3.77,1.012,7.655,4.6,9.122c8.453,3.453,25.023,8.454,44.881,9.121
				c6.15,0.207,11.664-3.791,13.398-9.694c15.753-53.604,91.237-322.175,101.083-578.732c11.003-286.678,0-9.761,0-9.761
				l-6.453-177.207L2881.177,2339.625z"/>
			
				<linearGradient id="SVGID_00000106864190787877866210000006844657161916456081_" gradientUnits="userSpaceOnUse" x1="-3865.1338" y1="2953.0564" x2="-4440.8042" y2="3579.2249" gradientTransform="matrix(-1 0 0 1 -1038.0688 0)">
				<stop  offset="0" style="stop-color:#4F52FF"/>
				<stop  offset="1" style="stop-color:#4042E2"/>
			</linearGradient>
			<path style="fill:url(#SVGID_00000106864190787877866210000006844657161916456081_);" d="M3060.727,3136.037
				c0,0,9.49,17.039,18.677,62.314c1.659,8.177-4.054,16.002-12.357,16.819c-14.691,1.444-37.307,3.302-55.424,3.177
				c-8.351-0.057-14.869-7.329-13.863-15.62c2.007-16.526,8.258-43.639,27.571-64.772L3060.727,3136.037z"/>
			
				<linearGradient id="SVGID_00000182505719790588494820000003933109794458678954_" gradientUnits="userSpaceOnUse" x1="-4107.1309" y1="3115.6677" x2="-4062.9817" y2="3115.6677" gradientTransform="matrix(-1 0 0 1 -1038.0688 0)">
				<stop  offset="0" style="stop-color:#FEBBBA"/>
				<stop  offset="1" style="stop-color:#FF928E"/>
			</linearGradient>
			<path style="fill:url(#SVGID_00000182505719790588494820000003933109794458678954_);" d="M3069.062,3084.112l-11.192,61.051
				c0,0-11.066,8.231-32.957,2.264l5.343-65.687L3069.062,3084.112z"/>
			
				<linearGradient id="SVGID_00000083064061459166990960000010907912586894455721_" gradientUnits="userSpaceOnUse" x1="-4154.7173" y1="2721.7722" x2="-3914.6868" y2="2721.7722" gradientTransform="matrix(-1 0 0 1 -1038.0688 0)">
				<stop  offset="0" style="stop-color:#09005D"/>
				<stop  offset="1" style="stop-color:#1A0F91"/>
			</linearGradient>
			<path style="fill:url(#SVGID_00000083064061459166990960000010907912586894455721_);" d="M3099.298,2355.446
				c45.071,272.009-9.777,672.292-28.275,750.638c-1.133,4.796-5.004,8.471-9.865,9.277c-8.257,1.369-21.852,2.486-35.253-1.407
				c-4.617-1.341-7.862-5.506-8.05-10.311c-2.482-63.34,1.985-452.184-40.011-605.857c-2.128-7.788-6.885-14.58-13.464-19.258
				l-81.512-57.948l-6.25-93.668L3099.298,2355.446z"/>
			<g>
				
					<linearGradient id="SVGID_00000165235476256932746560000003899952102193454737_" gradientUnits="userSpaceOnUse" x1="2561.533" y1="2594.0708" x2="3031.9048" y2="1883.5081">
					<stop  offset="0" style="stop-color:#FF928E"/>
					<stop  offset="1" style="stop-color:#FE7062"/>
				</linearGradient>
				<path style="fill:url(#SVGID_00000165235476256932746560000003899952102193454737_);" d="M2812.102,1840.042
					c135.07-2.232,284.105,35.465,284.105,35.465c40.261,234.926,7.04,505.895,7.04,505.895
					c-104.568,27.422-222.527-16.766-222.527-16.766c-17.38-98.193-98.47-374.542-98.47-374.542
					c-65.996-8.191-120.36-27.231-165.131-52.404c34.15-39.585,50.249-89.955,57.242-119.73
					C2722.117,1832.803,2770.441,1840.73,2812.102,1840.042z"/>
				
					<linearGradient id="SVGID_00000092423466900214099980000004518519791994273434_" gradientUnits="userSpaceOnUse" x1="-3712.4299" y1="1784.2721" x2="-3451.1963" y2="1784.2721" gradientTransform="matrix(-1 0 0 1 -1038.0688 0)">
					<stop  offset="0" style="stop-color:#FEBBBA"/>
					<stop  offset="1" style="stop-color:#FF928E"/>
				</linearGradient>
				<path style="fill:url(#SVGID_00000092423466900214099980000004518519791994273434_);" d="M2413.127,1641.09
					c13.269-16.026,30.062-8.445,30.062-8.445c19.877,83.962,124.098,152.039,231.172,185.316
					c-6.993,29.775-23.092,80.145-57.242,119.73C2439.422,1837.779,2413.127,1641.09,2413.127,1641.09z"/>
			</g>
			<g>
				
					<linearGradient id="SVGID_00000052076015638401685950000007588813262371161228_" gradientUnits="userSpaceOnUse" x1="13957.1689" y1="1740.4834" x2="14132.4639" y2="2139.3176" gradientTransform="matrix(1 0 0 1 -11485.8467 0)">
					<stop  offset="0" style="stop-color:#FEBBBA"/>
					<stop  offset="1" style="stop-color:#FF928E"/>
				</linearGradient>
				<path style="fill:url(#SVGID_00000052076015638401685950000007588813262371161228_);" d="M2416.348,1645.166
					c-1.388,4.413,14.689,11.135,24.156-6.917c0.331-8.652,5.592-45.716,0.423-52.764c-27.533-37.537-80.915-84.592-80.915-84.592
					c-9.022,8.902-1.589,17.647-1.589,17.647l25.896,26.976c-5.416,9.788-12.023,18.05-15.119,29.89
					c-2.345,8.966-0.911,18.547,3.618,26.707c4.546,8.19,10.747,18.835,16.61,27.166
					C2400.524,1645.047,2416.348,1645.166,2416.348,1645.166z"/>
				
					<linearGradient id="SVGID_00000056411318422167261160000011053638267641969053_" gradientUnits="userSpaceOnUse" x1="-3452.4502" y1="1607.6571" x2="-3379.3076" y2="1495.2" gradientTransform="matrix(-1 0 0 1 -1038.0688 0)">
					<stop  offset="0" style="stop-color:#FEBBBA"/>
					<stop  offset="1" style="stop-color:#FF928E"/>
				</linearGradient>
				<path style="fill:url(#SVGID_00000056411318422167261160000011053638267641969053_);" d="M2395.646,1563.019l23.598,20.005
					l7.409,19.918l-21.04,23.341c0,0-7.074-39.519-12.333-48.073C2388.022,1569.657,2390.749,1565.521,2395.646,1563.019z"/>
			</g>
			
				<linearGradient id="SVGID_00000011711044588661575210000006918349906635124873_" gradientUnits="userSpaceOnUse" x1="2698.3757" y1="2684.6567" x2="3168.7483" y2="1974.0928">
				<stop  offset="0" style="stop-color:#FF928E"/>
				<stop  offset="1" style="stop-color:#FE7062"/>
			</linearGradient>
			<path style="fill:url(#SVGID_00000011711044588661575210000006918349906635124873_);" d="M3044.399,2006.295l51.808-130.788
				c0,0,126.163,85.722,146.911,194.409c-23.839,1.756-67.217,7.956-109.676,29.395
				C3124.112,2047.991,3044.399,2006.295,3044.399,2006.295z"/>
			
				<linearGradient id="SVGID_00000051354610673386833890000000789831539014189212_" gradientUnits="userSpaceOnUse" x1="-4284.063" y1="2154.3025" x2="-3953.4697" y2="2154.3025" gradientTransform="matrix(-1 0 0 1 -1038.0688 0)">
				<stop  offset="0" style="stop-color:#FEBBBA"/>
				<stop  offset="1" style="stop-color:#FF928E"/>
			</linearGradient>
			<path style="fill:url(#SVGID_00000051354610673386833890000000789831539014189212_);" d="M2934.146,2129.362
				c0,0,141.65,80.054,189.444,11.697c9.924-14.194,12.296-28.3,9.852-41.748c42.459-21.439,85.837-27.639,109.676-29.395
				c6.256,32.765,2.949,67.613-16.305,102.834c-83.72,153.147-311.412-8.464-311.412-8.464L2934.146,2129.362z"/>
			<g>
				
					<linearGradient id="SVGID_00000018916399001661379340000004298691095361040808_" gradientUnits="userSpaceOnUse" x1="-3853.4534" y1="1919.2612" x2="-3671.6721" y2="2676.6848" gradientTransform="matrix(-1 0 0 1 -1038.0688 0)">
					<stop  offset="0" style="stop-color:#09005D"/>
					<stop  offset="1" style="stop-color:#1A0F91"/>
				</linearGradient>
				<path style="fill:url(#SVGID_00000018916399001661379340000004298691095361040808_);" d="M2951.167,2230.638l-77.307-269.973
					c-0.878-3.065-3.492-5.3-6.659-5.669c-14.006-1.634-54.593-6.222-101.453-10.186c-56.445-4.775-121.995-8.643-161.165-5.352
					c-5.569,0.468-8.934,6.358-6.457,11.368c22.274,45.064,113.898,228.376,159.78,288.426c1.52,1.99,3.871,3.153,6.375,3.13
					l179.365-1.669C2948.865,2240.663,2952.603,2235.656,2951.167,2230.638z"/>
				
					<linearGradient id="SVGID_00000019642914995427318510000014127754339716965526_" gradientUnits="userSpaceOnUse" x1="-3739.6411" y1="1799.8702" x2="-3778.3557" y2="1969.8778" gradientTransform="matrix(-1 0 0 1 -1038.0688 0)">
					<stop  offset="0" style="stop-color:#4F52FF"/>
					<stop  offset="1" style="stop-color:#4042E2"/>
				</linearGradient>
				<path style="fill:url(#SVGID_00000019642914995427318510000014127754339716965526_);" d="M2757.729,1921.404l-56.049-9.339
					c-2.985-0.498-5.43,2.355-4.482,5.228l5.549,16.813c0.483,1.464,1.76,2.523,3.288,2.727l53.936,7.205
					c2.791,0.373,5.091-2.163,4.449-4.904l-3.435-14.678C2760.615,1922.874,2759.33,1921.671,2757.729,1921.404z"/>
				
					<linearGradient id="SVGID_00000035502135937400843920000002720318546359661996_" gradientUnits="userSpaceOnUse" x1="-3759.9026" y1="1871.183" x2="-3778.4185" y2="1982.2772" gradientTransform="matrix(-1 0 0 1 -1038.0688 0)">
					<stop  offset="0" style="stop-color:#4F52FF"/>
					<stop  offset="1" style="stop-color:#4042E2"/>
				</linearGradient>
				<path style="fill:url(#SVGID_00000035502135937400843920000002720318546359661996_);" d="M2799.697,1968.854l-4.617-24.051
					c-0.463-2.412-2.455-4.235-4.899-4.483l-113.206-11.488c-3.811-0.387-6.861,3.105-5.967,6.829l7.198,29.97
					c0.576,2.398,2.663,4.13,5.126,4.254l110.625,5.569C2797.558,1975.635,2800.377,1972.395,2799.697,1968.854z"/>
				
					<linearGradient id="SVGID_00000078004940262227101380000008382109084690323886_" gradientUnits="userSpaceOnUse" x1="-3978.0149" y1="2119.6396" x2="-3875.0217" y2="2119.6396" gradientTransform="matrix(-1 0 0 1 -1038.0688 0)">
					<stop  offset="0" style="stop-color:#FEBBBA"/>
					<stop  offset="1" style="stop-color:#FF928E"/>
				</linearGradient>
				<path style="fill:url(#SVGID_00000078004940262227101380000008382109084690323886_);" d="M2932.489,2165.412
					c0,0,10.769-44.281,6.425-59.991c-4.344-15.71-12.76-35.91-40.814-31.421c-28.054,4.489-61.147,16.307-61.147,16.307
					s1.672,20.463,22.993,13.861l-13.222,10.23c0,0,1.89,16.385,19.9,7.631l-12.298,13.568c0,0,7.735,13.457,20.985,4.826
					C2888.561,2131.792,2894.913,2170.744,2932.489,2165.412z"/>
			</g>
			
				<linearGradient id="SVGID_00000142157142187923963040000014241902599755663545_" gradientUnits="userSpaceOnUse" x1="2975.6409" y1="1997.9414" x2="2892.2375" y2="1697.6891">
				<stop  offset="0" style="stop-color:#FEBBBA"/>
				<stop  offset="1" style="stop-color:#FF928E"/>
			</linearGradient>
			<path style="fill:url(#SVGID_00000142157142187923963040000014241902599755663545_);" d="M2948.917,1730.386l42.977,124.287
				c0.712,2.059-0.135,4.339-2.041,5.393c-11.715,6.477-53.923,25.2-104.786-7.049c-5.299-3.359-8.906-8.838-9.711-15.06
				l-13.917-107.57H2948.917z"/>
			<g>
				
					<linearGradient id="SVGID_00000083086381642955457010000004583270393454917256_" gradientUnits="userSpaceOnUse" x1="-8389.2676" y1="-4109.27" x2="-8438.1104" y2="-4270.3667" gradientTransform="matrix(-0.746 -0.6659 -0.6659 0.746 -6164.4043 -803.1727)">
					<stop  offset="0" style="stop-color:#FEBBBA"/>
					<stop  offset="1" style="stop-color:#FF928E"/>
				</linearGradient>
				<path style="fill:url(#SVGID_00000083086381642955457010000004583270393454917256_);" d="M2855.404,1615.292
					c0,0-47.194,88.836-41.144,124.722c6.049,35.886,64.538,33.309,115.613,4.164l35.69-95.924L2855.404,1615.292z"/>
				
					<linearGradient id="SVGID_00000183967918586208402380000010064405440238791076_" gradientUnits="userSpaceOnUse" x1="-8433.334" y1="-4389.957" x2="-8392.4766" y2="-4156.9204" gradientTransform="matrix(-0.746 -0.6659 -0.6659 0.746 -6164.4043 -803.1727)">
					<stop  offset="0" style="stop-color:#09005D"/>
					<stop  offset="1" style="stop-color:#1A0F91"/>
				</linearGradient>
				<path style="fill:url(#SVGID_00000183967918586208402380000010064405440238791076_);" d="M2927.616,1697.069
					c-2.075-0.919-2.842-3.459-1.598-5.359c3.781-5.776,10.869-17.56,13.129-27.877c0,0,8.484-5.434-21.593-12.632
					c-30.077-7.199-74.931-18.374-84.358-43.975c-9.192-24.961,14.959-87.733,53.49-37.717c1.466,1.903,4.338,1.945,5.802,0.041
					c6.316-8.221,22.923-25.285,45.979-14.94c21.575,9.68,24.006,25.49,23.709,33.459c-0.087,2.345,2.008,4.167,4.313,3.727
					c10.909-2.08,37.085-3.867,49.304,22.987c10.064,22.119,3.523,34.639-2.435,40.763c-1.93,1.983-1.084,5.25,1.562,6.061
					c7.17,2.194,16.427,8.273,15.5,25.07c-1.282,23.22-27.243,21.174-34.635,20.116c-1.211-0.174-2.431,0.242-3.251,1.149
					c-6.338,7.014-34.893,36.794-65.798,40.384c-2.677,0.31-4.75-2.333-3.874-4.88l13.375-38.878
					c0.622-1.806-0.243-3.787-1.989-4.56L2927.616,1697.069z"/>
				
					<linearGradient id="SVGID_00000134937260288167609560000013672769405569619634_" gradientUnits="userSpaceOnUse" x1="-8439.1963" y1="-4110.0195" x2="-8483.1426" y2="-4254.9619" gradientTransform="matrix(-0.746 -0.6659 -0.6659 0.746 -6164.4043 -803.1727)">
					<stop  offset="0" style="stop-color:#FEBBBA"/>
					<stop  offset="1" style="stop-color:#FF928E"/>
				</linearGradient>
				<path style="fill:url(#SVGID_00000134937260288167609560000013672769405569619634_);" d="M2922.24,1702.588
					c0,0,33.602-23.054,36.057-3.639c2.455,19.414-30.259,28.121-46.463,20.883L2922.24,1702.588z"/>
			</g>
		</g>
		<g>
			<path style="fill:#91B3FA;" d="M1301.818,1128.317l129.135,8.798c6.138,0.531,9.493-6.987,5-11.201l-123.833-91.699
				L1301.818,1128.317z"/>
			<path style="fill:#91B3FA;" d="M564.091,715.039l727.27-4.449c16.652-0.102,30.174,12.236,30.048,27.415l-3.061,366.17
				c-0.128,15.265-14.005,27.447-30.744,26.988l-719.395-19.708c-15.98-0.438-28.744-12.275-28.949-26.847l-4.814-342.012
				C534.233,727.505,547.535,715.141,564.091,715.039z"/>
			<path style="opacity:0.14;fill:#FFFFFF;" d="M586.617,737.438l681.015-3.887c15.593-0.089,28.255,10.691,28.136,23.953
				l-2.866,319.927c-0.12,13.337,11.292,32.1-4.383,31.7l-698.047-25.339c-14.964-0.383-26.916-10.725-27.108-23.456l-4.508-298.82
				C558.658,748.329,571.114,737.526,586.617,737.438z"/>
			<path style="opacity:0.77;fill:#FFFFFF;" d="M1288.52,1109.129l-719.587-19.711c-3.037-0.081-5.445-2.32-5.49-5.092
				l-4.813-342.015c-0.024-1.391,0.536-2.665,1.619-3.675c1.079-1.01,2.465-1.546,4.007-1.553l727.268-4.45
				c1.567,0,2.96,0.525,4.048,1.516c1.099,1.006,1.667,2.284,1.651,3.697L1294.162,1104
				C1294.146,1106.827,1291.613,1109.129,1288.52,1109.129z M569.23,1084.15l719.378,19.704l2.823-366.055l-727.139,4.563
				L569.23,1084.15z"/>
			<path style="opacity:0.77;fill:#FFFFFF;" d="M606.042,820.194c0,12.955,7.545,23.457,16.852,23.457h618.571
				c9.307,0,16.852-10.502,16.852-23.457c0-12.955-7.545-23.457-16.852-23.457H622.894
				C613.587,796.737,606.042,807.239,606.042,820.194z"/>
			<path style="opacity:0.77;fill:#FFFFFF;" d="M639.923,883.654h579.94c12.618,0,22.847,6.299,22.847,14.068
				s-10.229,14.068-22.847,14.068h-579.94c-12.618,0-22.847-6.298-22.847-14.068C617.076,889.953,627.305,883.654,639.923,883.654z"
				/>
			<path style="opacity:0.77;fill:#FFFFFF;" d="M617.076,961.8c0,7.755,10.21,14.042,22.805,14.042h580.024
				c12.595,0,22.804-6.287,22.804-14.042v-8.681c0-7.889-10.551-14.23-23.359-14.038l-580.024,8.681
				C626.951,947.948,617.076,954.178,617.076,961.8z"/>
			<path style="opacity:0.77;fill:#FFFFFF;" d="M642.21,1006.078h579.94c12.618,0,22.847,6.299,22.847,14.068
				c0,7.77-10.229,14.068-22.847,14.068H642.21c-12.618,0-22.847-6.298-22.847-14.068
				C619.363,1012.376,629.592,1006.078,642.21,1006.078z"/>
		</g>
	</g>
</g>
</svg>
