<svg width="381" height="287" viewBox="0 0 381 287" fill="none" xmlns="http://www.w3.org/2000/svg">
<path d="M104.435 276.388L256.989 11.1829C257.373 10.5163 256.892 9.6843 256.122 9.6843H11.359C10.4702 9.6843 10.023 10.757 10.6487 11.3883L106.515 108.104C106.834 108.425 106.897 108.921 106.669 109.312L9.83648 275.385C9.44777 276.052 9.92866 276.889 10.7004 276.889H103.568C103.926 276.889 104.257 276.698 104.435 276.388Z" fill="#2563EB"/>
<path d="M371.152 100.343C371.152 41.4702 314.657 13.4598 307.255 10.0425C306.795 9.83001 306.268 10.0157 306.016 10.4554L153.889 275.391C153.507 276.058 153.988 276.889 154.757 276.889H368.776C369.661 276.889 370.11 275.823 369.491 275.19L292.629 196.597C292.089 196.045 292.332 195.117 293.077 194.913C316.981 188.358 371.152 161.868 371.152 100.343Z" fill="#2563EB"/>
<path d="M104.435 276.388L256.989 11.1829C257.373 10.5163 256.892 9.6843 256.122 9.6843H11.359C10.4702 9.6843 10.023 10.757 10.6487 11.3883L106.515 108.104C106.834 108.425 106.897 108.921 106.669 109.312L9.83648 275.385C9.44777 276.052 9.92866 276.889 10.7004 276.889H103.568C103.926 276.889 104.257 276.698 104.435 276.388Z" stroke="#2563EB" stroke-width="19.3686"/>
<path d="M371.152 100.343C371.152 41.4702 314.657 13.4598 307.255 10.0425C306.795 9.83001 306.268 10.0157 306.016 10.4554L153.889 275.391C153.507 276.058 153.988 276.889 154.757 276.889H368.776C369.661 276.889 370.11 275.823 369.491 275.19L292.629 196.597C292.089 196.045 292.332 195.117 293.077 194.913C316.981 188.358 371.152 161.868 371.152 100.343Z" stroke="#2563EB" stroke-width="19.3686"/>
</svg>
